<svg version="1.1" xmlns="http://www.w3.org/2000/svg" viewBox="0 0 500 109.8" width="500" height="110">
<path d="M61.7,29l-0.3,4.2h3.1c1.4,0,2.5,1.1,2.5,2.5c0,1.4-1.1,2.5-2.5,2.5h-3.8c-1.1,5.3-2.9,5.8-6.4,5.8c-0.4,0-1.1,0-1.8,0
	c-1.3-0.1-2.3-1.2-2.2-2.5c0.1-1.2,1-2.1,2.2-2.2h0.4c0.5,0,0.8-0.1,1.1-1.1H39c-0.7,1.6-2.6,2.4-4.3,1.7c-1.4-0.6-2.1-2-1.9-3.5
	L34,29h-3.1c-1.4,0-2.5-1.1-2.5-2.5c0,0,0,0,0,0c0-1.4,1.1-2.5,2.5-2.5h3.7l0.6-5.4L34.8,19c-1.1,1.1-3,1.1-4.1,0
	c0,0-0.1-0.1-0.1-0.1c-1-1.1-1-2.8,0-3.9c2.3-2.3,4.1-5.1,5.4-8c0.7-1.5,2.5-2.2,4-1.5C41,6,41.6,6.9,41.7,8h23.2
	c1.4,0.1,2.5,1.3,2.4,2.7c-0.1,1.3-1.1,2.3-2.4,2.4H39.3l-1.3,2h21.2c1.7,0,3.1,1.4,3.1,3c0,0,0,0.1,0,0.1L62,24h2.9
	c1.4,0,2.5,1.1,2.5,2.5c0,0,0,0,0,0c0,1.4-1.1,2.5-2.5,2.5H61.7z M44.5,29h-4.1l-0.5,4.2H44L44.5,29z M45.3,20.2h-3.9L41,24h4
	L45.3,20.2z M55.2,29h-4.5l-0.5,4.2h4.7L55.2,29z M55.7,20.2h-4.2L51.2,24h4.4L55.7,20.2z"/>
<path d="M103.4,11.3v30.1c-0.1,1.7-1.5,2.9-3.1,2.9c0,0,0,0,0,0c-1.5,0.1-2.8-1-3.1-2.4H79.9c-0.3,1.4-1.6,2.5-3.1,2.4
	c-1.6,0-2.9-1.2-3.1-2.8V11.3c0-2.1,1.7-3.8,3.8-3.8h22.1C101.8,7.5,103.4,9.2,103.4,11.3C103.4,11.3,103.4,11.3,103.4,11.3z
	 M79.9,13.4v8.1h17.1v-8.1H79.9z M97.1,36v-8.7H79.9V36H97.1z"/>
<path d="M146.2,15.3c-2,3.8-4.6,7.3-7.6,10.4c-1.7,1.7-3.9,2-5.4,0.4c-1.3-1.5-1.2-3.9,0.3-5.2c0,0,0.1,0,0.1-0.1
	c1.7-1.6,3.2-3.3,4.5-5.2H116c-1.8,0.1-3.2-1.3-3.3-3.1c0,0,0,0,0,0c0-1.7,1.4-3.1,3.1-3.1c0.1,0,0.2,0,0.2,0h26.6
	C146,9.3,147.9,12.1,146.2,15.3z M131.4,20.5c0,8.1-0.6,15.8-8.6,21c-1.9,1.2-4,1.1-5.2-0.5c-1.1-1.6-0.6-3.8,1-4.9
	c0.1,0,0.1-0.1,0.2-0.1c6.6-4.6,5.8-8.2,5.8-15.5c-0.1-1.9,1.3-3.5,3.2-3.7c0,0,0.1,0,0.1,0c1.9,0,3.5,1.6,3.5,3.6
	C131.4,20.4,131.4,20.5,131.4,20.5z"/>
<path d="M183.2,16.4c-2.7,11.3-9.4,21.2-20.1,25.5c-2.6,1.1-4.6,0.1-5.3-1.6c-0.8-1.9,0.3-4,2.5-4.8c7.8-2.9,13.6-9.6,15.3-17.7
	h-19.9c-1.7,0-3.1-1.4-3.1-3.1s1.4-3.1,3.1-3.1l0,0h23.5c2.1-0.2,3.9,1.4,4,3.5C183.4,15.5,183.4,15.9,183.2,16.4z M188.4,8.7
	c0,2.3-1.8,4.1-4.1,4.1c-2.3,0-4.1-1.8-4.1-4.1s1.8-4.1,4.1-4.1l0,0C186.6,4.6,188.4,6.4,188.4,8.7z M186.6,8.7c0-1.3-1-2.3-2.3-2.3
	c-1.3,0-2.3,1-2.3,2.3c0,0,0,0,0,0c0,1.3,1,2.3,2.3,2.3C185.6,11,186.6,10,186.6,8.7C186.6,8.7,186.6,8.7,186.6,8.7z"/>
<path d="M203,11.8v13.3c0.1,1.9-1.4,3.6-3.3,3.7c0,0-0.1,0-0.1,0c-1.9,0-3.4-1.5-3.4-3.4c0-0.1,0-0.2,0-0.3V11.8
	c-0.1-1.9,1.3-3.5,3.2-3.6c1.9-0.1,3.5,1.3,3.6,3.2C203,11.5,203,11.7,203,11.8z M221.6,11.2V23c0,8-3.4,15.2-12.4,19
	c-2.3,0.9-4.4,0.6-5.2-1.2c-0.9-1.9-0.2-4.1,2.3-5c6.7-2.6,8.4-6.3,8.4-13V11.2c-0.1-1.9,1.3-3.6,3.3-3.7c0.1,0,0.1,0,0.2,0
	c1.9,0,3.4,1.5,3.4,3.4C221.6,11,221.6,11.1,221.6,11.2z"/>
<path d="M263.3,25.9c-2.2,0.6-4.6,1.3-6.9,2.1c0.1,1.1,0.2,2.3,0.2,3.7c0,2.2-1.2,3.8-3.2,3.8s-3.1-1.3-3.1-3.5v-1.3
	c-2.6,1.4-4.4,2.8-4.4,4.2c0,1.8,2.4,2.4,7.4,2.4c2.4-0.1,4.7-0.3,7.1-0.7c2.3-0.3,3.8,0.2,4.1,1.9s-0.7,3.3-3.1,3.8
	c-2.5,0.5-5.1,0.7-7.7,0.6c-9.7,0-14.2-2.4-14.2-7.5c0-4.2,4.5-7.7,9.7-10.4c-0.4-0.5-1-0.8-1.6-0.8c-1.9,0-4.7,1.4-6.4,3.1
	c-0.6,0.6-1.6,1.8-2.7,3.1c-1.5,1.7-3.7,1.9-5,0.6c-1.3-1.4-1.2-3.6,0.2-4.9c2.4-2.7,4.5-5.6,6.2-8.9h-4.3c-1.6,0.1-2.9-1.1-3-2.7
	c0-0.1,0-0.1,0-0.2c0-1.5,1.2-2.7,2.7-2.7c0.1,0,0.2,0,0.3,0h6.7l0.6-2.1c0.3-1.9,2-3.2,3.9-3c1.9,0.3,3.2,2,3,3.9
	c0,0.3-0.1,0.6-0.2,0.9l-0.1,0.2h8.5c1.5-0.2,2.8,0.9,3,2.3c0,0.2,0,0.3,0,0.5c0,1.5-1.2,2.8-2.7,2.8c-0.1,0-0.2,0-0.3,0h-11.2
	c-0.6,1.1-1.3,2.1-2.1,3c1.5-0.8,3.1-1.1,4.8-1.1c2.3-0.1,4.5,1.2,5.5,3.4c2.1-0.9,4.3-1.6,6.6-2.3c2-0.6,4-0.3,4.6,1.7
	S265.4,25.3,263.3,25.9z"/>
<path d="M307.4,43.2c-4.4,0-14,0-16.4,0c-6.1-0.1-10.2-1.4-13.5-5.1c-0.3,1.2-0.6,2.4-0.9,3.5c-0.5,1.4-2,2.2-3.4,1.7
	c-0.1,0-0.1-0.1-0.2-0.1c-1.3-0.5-2-2-1.5-3.3c1.4-3.8,2-7.9,2-11.9c0-1.4,1.2-2.6,2.6-2.5c1.4,0,2.6,1.2,2.5,2.6l0,0
	c0,0.9-0.1,1.8-0.1,2.7c0.4,0.7,0.8,1.3,1.2,1.9v-9.5h-5.5c-1.4,0-2.5-1.1-2.5-2.5c0-1.4,1.1-2.5,2.5-2.5h5.3v-3.3h-3.3
	c-1.4,0-2.5-1.1-2.5-2.5c0,0,0,0,0,0c0-1.4,1.1-2.5,2.5-2.5h3.3V8.2c0-1.7,1.3-3,3-3s3,1.3,3,3v1.4h2.2c1.4,0,2.5,1.1,2.5,2.5
	c0,0,0,0,0,0c0,1.4-1.1,2.5-2.4,2.5c0,0,0,0,0,0h-2.2V18h3.1c1.4,0,2.5,1.1,2.5,2.5c0,1.4-1.1,2.5-2.5,2.5h-3.1v3.1h2.9
	c1.4-0.1,2.6,1,2.7,2.4c0.1,1.4-1,2.6-2.4,2.7c-0.1,0-0.2,0-0.3,0h-2.9V37c2.1,0.7,4.2,1,6.4,0.9c1.9,0,10.4-0.2,15.4-0.5
	c1.6-0.1,2.9,1.2,2.9,2.7c0,0,0,0,0,0C310.2,41.9,309,43.2,307.4,43.2z M291.4,9.8c0-1.4,1.2-2.6,2.6-2.6h10c1.9,0,3.4,1.5,3.4,3.4
	c0,0,0,0,0,0v9.1c0,1.9-1.5,3.4-3.4,3.4l0,0h-6.2v5.4c0,2.2,0.2,2.5,1.4,2.5h3.5c0.6,0,0.8,0,0.8-0.7c0.1-1.6,1.5-2.8,3.1-2.8
	c1.7,0.1,2.9,1.5,2.8,3.2c0,0,0,0.1,0,0.1c-0.6,4.9-2,5.6-6.2,5.6h-4.5c-5.6,0-6.9-1.5-6.9-7.9v-7.2c0-1.9,1.5-3.4,3.4-3.4
	c0,0,0,0,0,0h6.2v-5.5H294C292.6,12.4,291.4,11.2,291.4,9.8L291.4,9.8z"/>
<path d="M352.8,17.8c-0.4,25.2-1.4,26.2-6.6,26.2h-0.9c-1.5,0-2.8-1.2-2.8-2.7c0-0.1,0-0.1,0-0.2c0.1-1.4,1.2-2.6,2.6-2.7
	c1,0,1.4-1.1,1.8-18.8h-1.6c-0.4,9.7-1.5,17.2-4.5,22.5c-0.8,1.4-2.7,1.9-4.1,1.1c-1-0.6-1.5-1.6-1.5-2.7c-0.3,0.3-0.7,0.5-1.1,0.5
	c-5,0.5-11.7,1.1-16.5,1.5c-1.3,0.1-2.5-0.9-2.6-2.2c0,0,0,0,0-0.1c-0.1-1.4,0.9-2.5,2.3-2.6c0,0,0.1,0,0.1,0l5.9-0.2V36h-5.5
	c-1.2,0-2.1-0.9-2.1-2.1c0-1.2,0.9-2.1,2.1-2.1h5.5v-0.9h-4.5c-1.4,0-2.5-1.1-2.5-2.5V20c0-1.4,1.1-2.5,2.5-2.5h4.5v-0.9H317
	c-1.2,0-2.1-1-2.1-2.1c0-1.1,0.9-2.1,2.1-2.1h6.3v-0.9c-1.8,0.1-3.7,0.2-5.3,0.1c-1.1,0-2.1-0.9-2.1-2.1c0,0,0-0.1,0-0.1
	c0.1-1.1,1-2,2.1-2c4.9,0,9.8-0.5,14.5-1.5c1.2-0.3,2.4,0.3,2.7,1.5c0.3,1.2-0.3,2.4-1.5,2.7c-0.1,0-0.2,0-0.3,0.1l-4.3,0.7v1.5h5.7
	c1.1,0,2.1,0.9,2.1,2.1c0,1.2-0.9,2.1-2.1,2.1h-5.7v0.9h4.8c1.4,0,2.5,1.1,2.5,2.5v8.3c0,1.4-1.1,2.5-2.5,2.5h-4.8v0.9h4.8
	c1.2,0,2.1,0.9,2.1,2.1c0,1.2-0.9,2.1-2.1,2.1h-4.8v1.2l4.6-0.3c1.1-0.1,2.1,0.7,2.2,1.8c2.5-4.7,3.4-10.9,3.7-19
	c-1.5,0-2.7-1.3-2.7-2.8c0-1.5,1.3-2.7,2.8-2.7c0-1.9,0-3.9,0-6c-0.1-1.6,1.1-3,2.7-3c1.6-0.1,3,1.1,3,2.7c0,0.1,0,0.2,0,0.3
	c0,2.1,0,4.1-0.1,6h3.8c1.9,0,3.6,1.5,3.6,3.5C352.8,17.7,352.8,17.7,352.8,17.8z M323.2,21.4h-1.5v1.1h1.5V21.4z M323.2,25.7h-1.5
	v1.1h1.5V25.7z M329.1,22.5h1.5v-1.1h-1.5V22.5z M329.1,26.9h1.5v-1.1h-1.5V26.9z"/>
<path d="M392.9,14c0,1.7-1.2,2.9-3.2,2.9h-7.3c0,3.4,0,6.3,0,8.3c0.2,0.9,0.4,1.8,0.4,2.6c0,7.2-2.6,13.7-12.8,16
	c-2.1,0.5-3.8-0.3-4.2-2c-0.5-1.9,0.5-3.4,2.7-3.9c3.4-0.8,5.3-1.8,6.4-3.3c-0.8,0.2-1.7,0.3-2.5,0.3c-5,0-8-3.1-8-7.9
	s3.3-8.4,8.6-8.4c1,0,2.1,0.1,3.1,0.4c0-0.7,0-1.4,0-2.1h-14.5c-1.9,0-3.3-1.1-3.3-2.9s1.2-2.9,3.2-2.9h14.3c0-0.4,0-0.7,0-1
	c-0.1-2.2,1.1-3.8,3.3-3.9c1.9-0.1,3.6,1.4,3.7,3.3c0,0.2,0,0.3,0,0.5v1.1h7.2C391.5,11.1,392.9,12.1,392.9,14z M372.9,29.6
	c1.5,0.1,2.8-1.1,2.9-2.6c0-0.1,0-0.1,0-0.2v-0.7c-0.1-1.4-1.4-2.5-2.8-2.4c-0.1,0-0.1,0-0.2,0c-1.6,0.1-2.7,1.4-2.6,3
	C370.1,28.3,371.4,29.6,372.9,29.6z"/>
<path d="M431.5,31.1c0,6.9-4.6,11.5-14.5,11.5c-7,0-10.8-2.9-10.8-7.2c0-3.7,3.4-6.7,8.5-6.7c4.7,0,7.6,2.2,8.5,6.9
	c1.3-1.1,2-2.7,1.9-4.3c0-3.1-2.7-5.8-6.5-5.8c-1.2,0-2.4,0.2-3.5,0.5c-3.3,1-6.9,3.5-10.2,6.6c-1.1,1.3-3.1,1.4-4.4,0.3
	c-0.1-0.1-0.3-0.3-0.4-0.4c-1.1-1.5-0.8-3.6,0.6-4.7c0,0,0.1-0.1,0.1-0.1c5.4-4,10.4-8.4,15.2-13.1c-2.5,0.2-6.2,0.8-10,0.9
	c-2.2,0.1-3.8-1.1-3.9-3.1c-0.1-1.8,1.2-3.2,3.5-3.2c5.6-0.1,11.3-0.4,16.8-1.1c1.7-0.2,3.1-0.1,4,1.3c1,1.5,0.7,3.5-0.7,4.6
	l-7.8,6.6c1-0.1,2-0.2,2.9-0.2C427.7,20.3,431.5,25.5,431.5,31.1z M417.9,37.3c-0.3-2.3-1.3-3.5-3.1-3.5s-2.8,0.7-2.8,1.7
	c0,1.2,1.2,1.9,4.5,1.9C417,37.3,417.4,37.3,417.9,37.3z"/>
<path d="M468.2,42.1c-2.9,0.3-5.9,0.4-8.9,0.4c-11.5,0-17.2-3.1-17.2-9.8c0-4.4,3.7-8,8.3-10.8c-1.8-3.2-2.1-6.4-2.2-11.8
	c0-2.4,1.5-4,3.5-4s3.5,1.4,3.5,3.9c0,4,0,6.8,1,9c2.7-1.1,5.4-2.1,8.2-2.9c2.4-0.6,4.4-0.5,5.2,1.5c0.8,2.2-0.6,4-3.1,4.6
	c-9.2,2.2-17.7,6.2-17.7,10c0,2.4,2.5,3.9,10.6,3.9c2.8,0,5.6-0.2,8.2-0.5c2.2-0.2,3.9,0.4,4.1,2.6S470.2,41.9,468.2,42.1z"/>
<path d="M95.5,95c-0.9,5.1-4.1,8.1-7.4,8.1c-5.4,0-10.8-5.9-10.8-19.9c0-2.3,0.1-4.6,0.4-6.8c0.4-2,1.8-3.4,3.8-3.2s3,1.9,2.8,4.1
	c-0.2,1.6-0.5,4.1-0.5,5.9c0,9.5,2,12.8,4,12.8c1.1,0,1.3-1.6,1.8-3c0.4-1.7,2.1-2.8,3.8-2.4c0,0,0,0,0.1,0C95.1,91,96,92.5,95.5,95
	z M111.7,92.4c0,2.7-1.4,4.2-3.5,4.2s-3.3-1.4-3.4-4c-0.4-6.8-1.1-9.6-4.6-13.8c-1.6-1.8-1.6-3.8-0.2-5s3.5-1.1,5.2,0.7
	C108.9,78.3,111.8,84.6,111.7,92.4L111.7,92.4z"/>
<path d="M136.3,95c-0.9,5.1-4.1,8.1-7.4,8.1c-5.4,0-10.8-5.9-10.8-19.9c0-2.3,0.1-4.6,0.4-6.8c0.4-2,1.8-3.4,3.8-3.2s3,1.9,2.8,4.1
	c-0.2,1.6-0.5,4.1-0.5,5.9c0,9.5,2,12.8,4,12.8c1.1,0,1.4-1.6,1.8-3c0.5-1.6,1.9-2.9,3.8-2.4C135.9,91,136.7,92.5,136.3,95z
	 M152.4,92.4c0,2.7-1.4,4.2-3.5,4.2s-3.3-1.4-3.4-4c-0.4-6.8-1.1-9.6-4.6-13.8c-1.6-1.8-1.6-3.8-0.2-5s3.5-1.1,5.2,0.7
	C149.7,78.3,152.6,84.6,152.4,92.4L152.4,92.4z"/>
<path d="M187.1,103.2c-3.3,0.6-6.7,0.8-10.1,0.8c-10.9,0-16.4-1.9-16.4-7.5c0.1-2.5,1-4.9,2.6-6.8c1.4-1.6,3.4-2.1,4.7-1
	s1.7,2.9,0.3,4.8c-0.5,0.6-0.8,1.3-0.9,2.1c0,1.7,2.5,2.2,9.8,2.2c2.9,0,5.7-0.3,8.5-0.8c2.6-0.5,4,0.1,4.6,1.7
	C191.1,100.8,189.7,102.6,187.1,103.2z M162.7,74.1c0.4-1.6,1.8-2.5,4-2.2c3.1,0.5,6.2,0.7,9.2,0.7c3.4,0,6-0.1,8.9-0.4
	c1.7-0.1,3.1,0.2,4,1.9c1,1.8,0.3,4-1.4,5c0,0,0,0,0,0c-2.5,1.6-4.9,3.3-7.7,5.4c-2,1.5-4,1.1-5-0.3s-0.6-3.3,1.4-4.7
	c0.7-0.5,1.4-0.8,2.2-1c-1.4,0.2-2.7,0.3-4.1,0.3c-2.8,0.1-5.7-0.1-8.5-0.5C163.4,77.8,162.2,76.2,162.7,74.1z"/>
<path d="M224.5,104.1c-2.9,0.3-5.9,0.4-8.9,0.4c-11.5,0-17.2-3.1-17.2-9.8c0-4.4,3.7-8,8.3-10.8c-1.8-3.2-2.1-6.4-2.2-11.8
	c0-2.4,1.5-4,3.5-4s3.5,1.4,3.5,3.9c0,4,0,6.8,1,9c2.7-1.1,5.4-2.1,8.2-2.9c2.4-0.7,4.4-0.5,5.2,1.6c0.8,2.2-0.6,4-3.1,4.7
	c-9.2,2.2-17.6,6.2-17.6,10c0,2.4,2.5,3.9,10.6,3.9c2.8,0,5.6-0.2,8.2-0.4c2.2-0.2,3.9,0.4,4.1,2.6S226.6,103.9,224.5,104.1z"/>
<path d="M271.2,92.7c0,6.3-3,11.3-10.8,12.5c-2,0.3-3.8-0.3-4.3-2.2c-0.4-1.6,0.5-3.3,2.2-3.8c0.1,0,0.3-0.1,0.4-0.1
	c3.8-0.9,6.1-2.2,6.1-6.1c0.1-2-0.9-3.8-2.6-4.9c-1.7,4.5-4.5,8.4-8.1,11.4c0.5,1.8-0.4,3.6-2.2,4.2c-1.2,0.4-2.5,0-3.4-1
	c-2,0.8-4.2,1.2-6.4,1.2c-3.8,0-5.9-3.1-5.9-7.3c0-5.8,4-11.1,10.5-13.8c0-1.3,0.1-2.7,0.2-4.2h-6.5c-1.5,0.1-2.9-1.1-3-2.6
	c-0.1-1.5,1.1-2.9,2.6-3c0.1,0,0.2,0,0.3,0h7l0.2-1.7c0-1.7,1.5-3.1,3.2-3c0.1,0,0.3,0,0.4,0c1.8,0.2,2.8,1.7,2.5,3.7l-0.2,1h13.1
	c1.5-0.1,2.9,1.1,3,2.6c0,0.1,0,0.1,0,0.2c0,1.6-1.3,2.8-2.9,2.8c-0.1,0-0.1,0-0.2,0H253l-0.2,2.6c1.1-0.1,2.2-0.2,3.4-0.2
	c0.6,0,1.2,0,1.8,0c0.6-1.3,2-2.1,3.5-1.7c1.4,0.2,2.4,1.5,2.4,2.9C268.7,84.1,271.2,87.9,271.2,92.7z M243.7,97.8
	c1.3,0,2.5-0.3,3.7-0.9c-0.3-2.6-0.6-5.3-0.6-8.2c-2.9,1.8-4.8,4.4-4.8,7.3c-0.1,0.9,0.5,1.6,1.3,1.8
	C243.4,97.9,243.5,97.9,243.7,97.8L243.7,97.8z M256.4,86.5c-0.4,0-0.7,0-1.1,0c-0.9,0-1.8,0.1-2.7,0.2c0,2.1,0.1,4,0.3,5.9
	C254.4,90.8,255.6,88.7,256.4,86.5L256.4,86.5z"/>
<path d="M310.2,93.2c0,6.9-4.6,11.5-14.5,11.5c-7,0-10.8-2.9-10.8-7.2c0-3.7,3.4-6.7,8.5-6.7c4.7,0,7.6,2.2,8.5,6.9
	c1.3-1.1,2-2.7,1.9-4.3c0-3.1-2.7-5.8-6.5-5.8c-1.2,0-2.4,0.2-3.5,0.5c-3.3,1-6.9,3.5-10.2,6.6c-1.1,1.3-3.1,1.4-4.4,0.3
	c-0.1-0.1-0.3-0.3-0.4-0.4c-1.1-1.5-0.8-3.6,0.6-4.7c0,0,0.1-0.1,0.1-0.1c5.4-4,10.4-8.4,15.2-13c-2.5,0.2-6.2,0.8-10,0.9
	c-2.2,0.1-3.8-1.2-3.9-3.1c-0.1-1.8,1.2-3.2,3.5-3.2c5.6-0.1,11.3-0.4,16.8-1.1c1.7-0.2,3-0.1,4,1.3c1,1.5,0.7,3.5-0.7,4.7l-7.8,6.5
	c1-0.1,2-0.2,2.9-0.2C306.4,82.3,310.2,87.5,310.2,93.2z M296.6,99.3c-0.3-2.3-1.3-3.6-3.1-3.6s-2.8,0.7-2.8,1.7
	c0,1.2,1.2,1.9,4.5,1.9C295.6,99.3,296.1,99.3,296.6,99.3z"/>
<path d="M343,87.2c0,6.7-1.1,11.3-2.6,13.9s-3.5,3.6-6.7,3.6c-1.4,0-2.8-0.2-4.2-0.7c-2-0.7-3-2.4-2.4-4.3c0.5-1.5,2-2.4,4.2-1.8
	l1.6,0.4c1,0.2,1.5,0.2,2-0.5c1.2-1.6,1.9-4.8,1.9-10.4c0-3.8-1-4.7-4-4.6c-0.3,0-0.6,0-1,0c-1.9,7.5-4.5,13.9-7.5,18.6
	c-0.9,1.6-3,2.2-4.6,1.3c-0.1-0.1-0.3-0.2-0.4-0.2c-1.5-1.2-1.6-3.1-0.3-5c2.8-4.3,5-9,6.3-14l-4,0.7c-1.9,0.4-3.6-0.3-4-2.2
	c-0.3-1.7,0.8-3.4,2.5-3.7c0.1,0,0.2,0,0.3,0c2.2-0.4,4.4-0.7,6.5-0.9c0.4-2,0.6-4,0.9-6.1c0-1.8,1.5-3.3,3.3-3.2c0.1,0,0.2,0,0.4,0
	c2,0.2,3.2,1.8,2.8,4.2c-0.2,1.6-0.5,3.1-0.9,4.7C340,77.2,343,80.4,343,87.2z M352,93.9c-1.9,0.4-3.5-0.8-3.9-3.3
	c-0.4-3.9-2.1-7.7-4.6-10.7c-1.2-1.3-1.1-3.2,0.2-4.4c0.1-0.1,0.1-0.1,0.2-0.2c1.4-1,3.3-0.6,4.6,0.7c3.1,2.9,5.4,8.4,6.1,13.2
	C355,92,353.8,93.6,352,93.9z"/>
<path d="M392.6,94.2c0,7.1-3.9,10.5-13,10.5c-9.6,0-13.6-3.8-13.6-11.7c0-1,0-2.2,0.1-3.5h-5c-1.6,0.3-3.2-0.8-3.5-2.4
	c-0.3-1.6,0.8-3.2,2.4-3.5c0.3-0.1,0.7-0.1,1,0h5.4l0.4-4h-5.1c-1.6,0.1-3-1.1-3.1-2.7c0-0.1,0-0.1,0-0.2c0-1.6,1.3-2.9,2.9-2.9
	c0.1,0,0.2,0,0.2,0h5.7l0.2-1.6c0.1-2,1.8-3.6,3.8-3.5c0.1,0,0.1,0,0.2,0c2,0.1,3.5,1.8,3.3,3.8c0,0.2-0.1,0.5-0.1,0.7l-0.1,0.7h7.9
	c1.6-0.1,3,1.1,3.1,2.7c0,0.1,0,0.1,0,0.2c0,1.7-1.4,3-3.1,2.9c0,0-0.1,0-0.1,0h-8.8l-0.5,4h8.3c2.2,0,3.3,1.1,3.3,2.9s-1.1,3-3.3,3
	h-8.9c-0.1,1.3-0.1,2.4-0.1,3.3c0,4.4,1.7,5.9,7.1,5.9c4.2,0,6.6-1,6.2-4.7l-0.3-1.4c-0.4-2,0.3-3.6,2.1-4.2s3.6,0.4,4.4,2.6
	C392.4,92,392.6,93.1,392.6,94.2z"/>
<path d="M420.6,78.8c0.1,3.1-1.4,5.9-4,7.5c-1.4,0.8-2.5,2.1-3,3.7c-0.2,1.5-1.5,2.6-3,2.5c-1.9,0-2.8-1.3-2.8-3.2
	c0.1-2.1,1.1-4,2.8-5.3c2.3-1.9,3.1-2.9,3.1-4.6c0.1-1.6-1.1-3-2.7-3.1c-0.1,0-0.2,0-0.2,0c-1.4,0-2.8,0.4-4,1.1
	c-1.4,0.7-3.1,0.2-3.8-1.1c0-0.1-0.1-0.1-0.1-0.2c-0.8-1.5-0.1-3.4,1.4-4.1c0,0,0,0,0,0c2.1-1.2,4.4-1.8,6.8-1.8
	C416.9,70.2,420.6,73.5,420.6,78.8z M414.5,98.9c0,2.1-1.8,3.9-3.9,3.9s-3.9-1.8-3.9-3.9c0-2.1,1.8-3.9,3.9-3.9
	C412.7,95,414.5,96.8,414.5,98.9z"/>
</svg>