<svg version="1.1" xmlns="http://www.w3.org/2000/svg" viewBox="0 0 689 109.8" width="689" height="110">
<path d="M37.2,26.8c0,7.5-5.1,9.8-10.3,9.8c-2.8,0-5.6-0.7-8-2.2c-1.8-1.2-2.6-3-1.8-4.6c0.7-1.5,2.4-2.1,3.9-1.4
	c0.2,0.1,0.3,0.2,0.5,0.3c1.5,1.2,3.2,1.8,5.1,1.8c1.6,0,3.6-0.8,3.6-3.2c0-1.8-1.4-3-5.3-4.7c-4.3-1.9-7.3-3.8-7.3-9
	c0-7.8,6.4-9.5,10.2-9.5c3.5,0,6.1,1,7.6,2.4c1.2,1,1.5,2.8,0.5,4.1c-0.9,1.2-2.6,1.6-3.9,0.8c-1.1-0.8-2.4-1.3-3.8-1.3
	c-1.6,0-3.7,0.5-3.7,3.1c0,1.6,2,2.6,4.4,3.8C33.1,18.9,37.2,21,37.2,26.8z"/>
<path d="M65.2,23.7c0,5.8-2.6,13.2-12,13.2s-12-7.4-12-13.2c0-5.6,2.6-12.8,12-12.8S65.2,18,65.2,23.7z M58.2,23.6
	c0-5.3-2.1-7.2-5.1-7.2s-5,1.9-5,7.2c0,5.5,2,7.6,5,7.6S58.2,29,58.2,23.6L58.2,23.6z"/>
<path d="M105.2,19.1v13.8c0,1.8-1.4,3.4-3.3,3.4c0,0,0,0-0.1,0c-1.9,0-3.4-1.5-3.4-3.4c0,0,0,0,0,0v-12c0-2.5-1.2-4-3.6-4
	c-1.5,0.1-2.9,0.6-4.1,1.6c0.2,1.3,0.3,2.6,0.3,3.9V33c0,1.8-1.5,3.3-3.3,3.3c-1.8,0-3.3-1.5-3.3-3.3c0,0,0,0,0,0V20.9
	c0-2.7-1.1-4-3.6-4c-1.4,0.1-2.7,0.7-3.7,1.8v14.2c0.1,1.9-1.3,3.5-3.2,3.6c-1.9,0.1-3.5-1.3-3.6-3.2c0-0.1,0-0.2,0-0.4V18.3
	c-0.1-1.1-0.2-2.3-0.4-3.4c-0.2-1.5,0.7-3,2.2-3.4c1.8-0.7,3.9,0.3,4.6,2.1c0,0.1,0.1,0.2,0.1,0.3c0,0.1,0,0.1,0,0.2
	c1.8-1.7,4.1-2.6,6.5-2.7c4,0,5.5,1.7,6.3,2.7c2.2-1.7,4.9-2.7,7.7-2.7C104.1,11.3,105.2,15.8,105.2,19.1z"/>
<path d="M117,25.7v0.1c0,1.3,0.8,5.1,6.2,5.1c1.9,0,2.7-0.6,4.2-1.1c1.5-0.5,3.1,0.4,3.5,1.9c0.4,1.4-0.2,2.8-1.5,3.4
	c-2,1-4.3,1.5-6.5,1.5c-10.1,0-12.6-6.5-12.6-12.5c0-7.2,3.9-13.2,12-13.2c7.2,0,9.3,5.4,9.3,10.8v0.8c0.1,1.6-1.1,3-2.7,3.1
	c-0.2,0-0.3,0-0.5,0L117,25.7z M117.2,20.9h8.2c0-2.5-0.7-4.7-3.9-4.7C118.6,16.2,117.2,19.1,117.2,20.9z"/>
<path d="M148.3,33c0,1.4-1,2.3-2.5,2.9l-1.6,0.2c-3.7,0-6.7-1.5-6.7-5.9V17.6h-1.3c-1.5-0.1-2.6-1.4-2.5-2.8
	c0.1-1.3,1.2-2.4,2.5-2.5h1.3V8.9c0.1-1.8,1.7-3.3,3.5-3.2c1.7,0.1,3.1,1.5,3.2,3.2v3.4h2.2c1.5,0.1,2.6,1.4,2.5,2.8
	c-0.1,1.3-1.2,2.4-2.5,2.5h-2.2v9.9c0,2.2,0.3,3.1,1.6,3.1h0.1c1.2-0.1,2.3,0.8,2.4,2C148.3,32.7,148.3,32.9,148.3,33z"/>
<path d="M174,19.1v13.8c0.1,1.9-1.3,3.5-3.2,3.6s-3.5-1.3-3.6-3.2c0-0.1,0-0.2,0-0.4v-12c0-2.7-1.1-4-3.5-4
	c-1.6-0.1-3.2,0.6-4.2,1.9v14.1c0.1,1.9-1.3,3.5-3.2,3.6c-1.9,0.1-3.5-1.3-3.6-3.2c0-0.1,0-0.2,0-0.4V6c-0.1-1.9,1.3-3.5,3.2-3.6
	c1.9-0.1,3.5,1.3,3.6,3.2c0,0.1,0,0.2,0,0.4v7.7c1.8-1.5,4-2.3,6.4-2.3C172.8,11.3,174,15.8,174,19.1z"/>
<path d="M179.4,6c0.2-2.3,2.2-4,4.5-3.8c2,0.2,3.6,1.8,3.8,3.8c-0.2,2.3-2.2,4-4.5,3.8C181.1,9.6,179.5,8,179.4,6z M186.9,14.9v17.9
	c0.1,1.9-1.3,3.5-3.2,3.6c-1.9,0.1-3.5-1.3-3.6-3.2c0-0.1,0-0.2,0-0.4V14.9c0.1-1.9,1.7-3.3,3.6-3.2
	C185.4,11.8,186.8,13.2,186.9,14.9L186.9,14.9z"/>
<path d="M214.4,19.1v13.8c0.1,1.9-1.3,3.5-3.2,3.6s-3.5-1.3-3.6-3.2c0-0.1,0-0.2,0-0.4v-12c0-2.7-1.1-4-3.5-4
	c-1.6,0-3.1,0.6-4.2,1.8v14.2c0,1.9-1.5,3.4-3.4,3.4c-1.9,0-3.4-1.5-3.4-3.4c0,0,0,0,0,0V18c0-1.1-0.3-1.9-0.4-2.9
	c-0.2-1.5,0.6-3,2.1-3.6c1.8-0.7,3.8,0.2,4.6,2c0.1,0.1,0.1,0.3,0.1,0.4c0,0,0.1,0.1,0.1,0.2c1.8-1.7,4.2-2.7,6.8-2.7
	C213.2,11.3,214.4,15.8,214.4,19.1z"/>
<path d="M242.3,14.3c-0.1,0.8-0.2,1.7-0.2,2.3v18.5c0,9-7,10.7-11.6,10.7c-3.2,0-6.7-0.4-8.9-1.9c-1.5-0.9-1.9-2.9-1-4.4
	c0-0.1,0.1-0.1,0.1-0.2c1-1.3,2.7-1.7,4.1-1c1.7,0.8,3.6,1.2,5.5,1.2c3.3,0,5.1-1.8,5.1-5.3v-0.8c-1.5,2-4,3.1-6.5,3
	c-7.1,0-9.6-5.5-9.6-12.5s2.8-13,10.2-13c2.4-0.1,4.7,0.9,6.4,2.6c0-0.1,0.1-0.2,0.1-0.2c0.3-1.4,1.6-2.3,3-2.2
	C241.5,11.2,242.5,12.6,242.3,14.3z M235.3,27.7c0.2-1.2,0.3-2.3,0.3-3.5v-0.7c0-1.4-0.1-2.9-0.3-4.3c-0.9-1.5-2.5-2.4-4.3-2.4
	c-3.8,0-4.6,3.6-4.6,7.3s1,6.9,4.1,6.9C232.7,30.9,234.5,29.6,235.3,27.7L235.3,27.7z"/>
<path d="M281.2,14.3c-0.1,0.8-0.2,1.7-0.2,2.3v18.5c0,9-7,10.7-11.6,10.7c-3.2,0-6.7-0.4-8.9-1.9c-1.5-0.9-1.9-2.9-1-4.4
	c0-0.1,0.1-0.1,0.1-0.2c1-1.3,2.7-1.7,4.1-1c1.7,0.8,3.6,1.2,5.5,1.2c3.3,0,5.1-1.8,5.1-5.3v-0.8c-1.5,2-3.9,3.2-6.5,3.1
	c-7.1,0-9.6-5.5-9.6-12.5s2.8-13,10.2-13c2.4-0.1,4.7,0.9,6.4,2.6c0-0.1,0.1-0.2,0.1-0.2c0.3-1.4,1.6-2.3,3-2.2
	C280.4,11.2,281.4,12.6,281.2,14.3z M274.2,27.7c0.2-1.2,0.3-2.3,0.3-3.5v-0.7c0-1.4-0.1-2.9-0.3-4.3c-0.9-1.5-2.6-2.4-4.4-2.4
	c-3.8,0-4.6,3.6-4.6,7.3s1,6.9,4.1,6.9C271.5,30.9,273.4,29.7,274.2,27.7L274.2,27.7z"/>
<path d="M310.1,23.7c0,5.8-2.6,13.2-12,13.2s-12-7.4-12-13.2c0-5.6,2.6-12.8,12-12.8S310.1,18,310.1,23.7z M303.1,23.6
	c0-5.3-2.1-7.2-5.1-7.2s-5,1.9-5,7.2c0,5.5,2,7.6,5,7.6S303.2,29,303.1,23.6L303.1,23.6z"/>
<path d="M338.1,23.7c0,5.8-2.6,13.2-12,13.2s-12-7.4-12-13.2c0-5.6,2.6-12.8,12-12.8S338.1,18,338.1,23.7z M331.1,23.6
	c0-5.3-2.1-7.2-5.1-7.2s-5,1.9-5,7.2c0,5.5,2,7.6,5,7.6S331.1,29,331.1,23.6L331.1,23.6z"/>
<path d="M363.7,35.9c-1.6,0.9-3.6,0.3-4.5-1.4c-0.1-0.2-0.2-0.3-0.2-0.5l-0.2-0.6c-1.8,2.2-4.4,3.4-7.2,3.3c-7,0-9.6-5.5-9.6-12.6
	s2.8-13,10.2-13c2.1,0,4.2,0.8,5.8,2.2V5.9c0.1-1.8,1.7-3.3,3.5-3.2c1.7,0.1,3.1,1.5,3.2,3.2v20.6c0,2.1,0.2,4.1,0.6,6.1
	C365.5,33.9,364.9,35.2,363.7,35.9z M358,27.8c0.2-1.2,0.3-2.4,0.3-3.5v-0.7c0-1.4-0.1-2.9-0.3-4.3c-1-1.5-2.6-2.4-4.4-2.5
	c-3.8,0-4.6,3.6-4.6,7.3s1,6.9,4.1,6.9C355.3,30.9,357.2,29.7,358,27.8z"/>
<path d="M416.8,19.1v13.8c0.1,1.9-1.3,3.4-3.2,3.5c-1.9,0.1-3.4-1.3-3.5-3.2c0-0.1,0-0.2,0-0.4v-12c0-2.5-1.2-4-3.6-4
	c-1.5,0.1-2.9,0.6-4.1,1.6c0.2,1.3,0.3,2.6,0.3,3.9V33c0,1.8-1.5,3.3-3.3,3.3S396,34.8,396,33V20.9c0-2.7-1.1-4-3.6-4
	c-1.4,0.1-2.7,0.7-3.7,1.8v14.2c0.1,1.9-1.3,3.5-3.2,3.6c-1.9,0.1-3.5-1.3-3.6-3.2c0-0.1,0-0.2,0-0.4V18.3c-0.1-1.1-0.2-2.3-0.4-3.4
	c-0.2-1.5,0.7-3,2.2-3.4c1.8-0.7,3.9,0.3,4.6,2.1c0,0.1,0.1,0.2,0.1,0.3c0,0.1,0,0.1,0,0.2c1.8-1.7,4.1-2.6,6.5-2.7
	c4,0,5.5,1.7,6.3,2.7c2.2-1.7,4.9-2.7,7.7-2.7C415.6,11.3,416.8,15.8,416.8,19.1z"/>
<path d="M422.2,6c0.2-2.3,2.3-4,4.5-3.7c2,0.2,3.5,1.8,3.7,3.7c-0.2,2.3-2.1,4-4.4,3.9C423.9,9.7,422.3,8.1,422.2,6z M429.8,14.9
	v17.9c0.1,1.9-1.3,3.5-3.2,3.6c-1.9,0.1-3.5-1.3-3.6-3.2c0-0.1,0-0.2,0-0.4V14.9c0.1-1.9,1.7-3.3,3.6-3.2
	C428.3,11.8,429.7,13.2,429.8,14.9L429.8,14.9z"/>
<path d="M457.7,14.3c-0.1,0.8-0.2,1.7-0.2,2.3v18.5c0,9-7,10.7-11.6,10.7c-3.2,0-6.7-0.4-8.9-1.9c-1.5-0.9-1.9-2.9-1-4.4
	c0-0.1,0.1-0.1,0.1-0.2c0.9-1.3,2.6-1.7,4.1-1c1.7,0.8,3.6,1.2,5.5,1.2c3.3,0,5.1-1.8,5.1-5.3v-0.8c-1.5,2-3.9,3.2-6.5,3.1
	c-7.1,0-9.6-5.5-9.6-12.5s2.8-13,10.2-13c2.4-0.1,4.8,0.9,6.5,2.6c0-0.1,0.1-0.2,0.1-0.2c0.3-1.4,1.6-2.3,3-2.2
	C456.9,11.2,457.8,12.6,457.7,14.3z M450.7,27.7c0.2-1.2,0.3-2.3,0.3-3.5v-0.7c0-1.4-0.1-2.9-0.3-4.3c-0.9-1.5-2.6-2.4-4.4-2.4
	c-3.8,0-4.6,3.6-4.6,7.3s1,6.9,4.1,6.9C448,30.9,449.9,29.6,450.7,27.7L450.7,27.7z"/>
<path d="M485,19.1v13.8c0.1,1.9-1.3,3.5-3.2,3.6s-3.5-1.3-3.6-3.2c0-0.1,0-0.2,0-0.4v-12c0-2.7-1.1-4-3.5-4c-1.6,0-3.2,0.6-4.2,1.9
	v14.1c0.1,1.9-1.3,3.5-3.2,3.6c-1.9,0.1-3.5-1.3-3.6-3.2c0-0.1,0-0.2,0-0.4V6c-0.1-1.9,1.3-3.5,3.2-3.6c1.9-0.1,3.5,1.3,3.6,3.2
	c0,0.1,0,0.2,0,0.4v7.7c1.8-1.5,4-2.3,6.4-2.3C483.8,11.3,485,15.8,485,19.1z"/>
<path d="M502.9,33c0,1.4-1,2.3-2.5,2.9l-1.5,0.2c-3.7,0-6.7-1.5-6.7-5.9V17.6h-1.3c-1.5-0.1-2.6-1.4-2.5-2.8
	c0.1-1.3,1.2-2.4,2.5-2.5h1.3V8.9c0.1-1.8,1.7-3.3,3.5-3.2c1.7,0.1,3.1,1.5,3.2,3.2v3.4h2.2c1.5,0.1,2.6,1.4,2.5,2.8
	c-0.1,1.3-1.2,2.4-2.5,2.5h-2.2v9.9c0,2.2,0.3,3.1,1.6,3.1h0.1c1.2-0.1,2.3,0.8,2.4,2C502.9,32.7,502.9,32.9,502.9,33z"/>
<path d="M539.6,19.1v13.8c0.1,1.9-1.3,3.5-3.2,3.6c-1.9,0.1-3.5-1.3-3.6-3.2c0-0.1,0-0.2,0-0.4v-12c0-2.7-1.1-4-3.5-4
	c-1.6-0.1-3.2,0.6-4.2,1.9v14.1c0.1,1.9-1.3,3.5-3.2,3.6c-1.9,0.1-3.5-1.3-3.6-3.2c0-0.1,0-0.2,0-0.4V6c-0.1-1.9,1.3-3.5,3.2-3.6
	s3.5,1.3,3.6,3.2c0,0.1,0,0.2,0,0.4v7.7c1.8-1.5,4-2.3,6.4-2.3C538.5,11.3,539.6,15.8,539.6,19.1z"/>
<path d="M563.6,36.1c-1.5,0.8-3.4,0.2-4.2-1.3c-0.3-0.6-0.6-1.2-0.7-1.8c-1.4,2.3-4,3.7-6.7,3.5c-3.4,0-7.8-1.9-7.8-8
	c0-5.7,2.9-7.7,13.6-8.1v-0.9c0-1.9-0.7-2.8-3.1-2.8c-1.4,0-2.8,0.4-4.1,1.2c-1.4,0.8-3.2,0.3-4-1c-0.1-0.1-0.1-0.2-0.2-0.3
	c-0.6-1.5,0.1-3.2,1.6-3.9c2.2-1.1,4.6-1.7,7.1-1.7c6.5,0,9.1,2.4,9.1,8.6v8.9c0,1.5,0.2,3,0.7,4.4
	C565.2,34.1,564.7,35.4,563.6,36.1z M557.8,27.7v-2.2c-5.9,0.2-7.2,0.9-7.2,2.9s1.5,2.6,2.9,2.6C555.5,30.9,557.2,29.6,557.8,27.7z"
	/>
<path d="M593,23.5c0,7.1-2.8,13-10.2,13c-2.1,0-4.2-0.8-5.8-2.3v8c0,1.8-1.5,3.3-3.3,3.3c-1.8,0-3.3-1.5-3.3-3.3c0,0,0,0,0,0V18
	c-0.1-1.1-0.2-2.1-0.4-3.1c-0.2-1.5,0.7-3,2.1-3.5c1.9-0.7,4,0.3,4.6,2.2c0,0.1,0.1,0.2,0.1,0.3l0.1,0.3c1.6-2,4-3.1,6.6-3.1
	C590.4,11.1,593,16.5,593,23.5z M586,23.7c0-3.8-1-6.9-4.1-6.9c-2,0.1-3.9,1.2-4.8,3.1c-0.2,1.2-0.3,2.4-0.3,3.7v0.7
	c0,1.5,0.1,2.9,0.3,4.4c0.9,1.5,2.6,2.4,4.3,2.4C585.2,31,586,27.4,586,23.7z"/>
<path d="M620.8,23.5c0,7.1-2.8,13-10.2,13c-2.2,0-4.2-0.8-5.8-2.3v8c0,1.8-1.5,3.3-3.3,3.3c-1.8,0-3.3-1.5-3.3-3.3c0,0,0,0,0,0V18
	c-0.1-1.1-0.2-2.1-0.4-3.1c-0.2-1.5,0.7-3,2.1-3.5c1.9-0.7,4,0.3,4.6,2.2c0,0.1,0.1,0.2,0.1,0.3l0.1,0.3c1.6-2,4-3.1,6.6-3.1
	C618.2,11.1,620.8,16.5,620.8,23.5z M613.8,23.7c0-3.8-1-6.9-4.1-6.9c-2,0.1-3.9,1.2-4.8,3.1c-0.2,1.2-0.3,2.4-0.3,3.7v0.7
	c0,1.5,0.1,2.9,0.3,4.4c1,1.5,2.6,2.4,4.3,2.4C613,31,613.8,27.4,613.8,23.7L613.8,23.7z"/>
<path d="M631.5,25.7v0.1c0,1.3,0.8,5.1,6.2,5.1c1.9,0,2.7-0.6,4.2-1.1c1.4-0.5,2.9,0.2,3.5,1.5c0.7,1.4,0.1,3-1.3,3.7
	c0,0-0.1,0-0.1,0.1c-2,1-4.3,1.5-6.5,1.5c-10.1,0-12.6-6.5-12.6-12.5c0-7.2,3.9-13.2,12-13.2c7.3,0,9.3,5.4,9.3,10.8v0.8
	c0.1,1.6-1.1,3-2.7,3.1c-0.2,0-0.3,0-0.5,0L631.5,25.7z M631.6,20.9h8.2c0-2.5-0.7-4.7-3.9-4.7C633,16.2,631.7,19.1,631.6,20.9z"/>
<path d="M672.3,19.1v13.8c0.1,1.9-1.3,3.5-3.2,3.6c-1.9,0.1-3.5-1.3-3.6-3.2c0-0.1,0-0.2,0-0.4v-12c0-2.7-1.1-4-3.5-4
	c-1.6,0-3.1,0.6-4.2,1.8v14.2c0.1,1.9-1.3,3.5-3.2,3.6c-1.9,0.1-3.5-1.3-3.6-3.2c0-0.1,0-0.2,0-0.4V18c0-1.1-0.3-1.9-0.4-2.9
	c-0.3-1.5,0.6-3,2.1-3.6c1.8-0.7,3.8,0.2,4.5,2c0.1,0.1,0.1,0.3,0.1,0.4c0,0,0.1,0.1,0.1,0.2c1.8-1.7,4.2-2.7,6.8-2.7
	C671.1,11.3,672.3,15.8,672.3,19.1z"/>
<path d="M33.5,68c-0.2-2.3,1.5-4.3,3.8-4.5s4.3,1.5,4.5,3.8c0.2,2.3-1.5,4.3-3.8,4.5c-0.1,0-0.2,0-0.3,0
	C35.4,71.9,33.6,70.2,33.5,68z M41.1,76.9v17.9c0.1,1.9-1.3,3.5-3.2,3.6c-1.9,0.1-3.5-1.3-3.6-3.2c0-0.1,0-0.2,0-0.4V76.9
	c0.1-1.9,1.7-3.3,3.6-3.2C39.6,73.8,41,75.2,41.1,76.9L41.1,76.9z"/>
<path d="M62.6,68.9c-0.5,1.4-1.9,2.2-3.3,1.8c-0.5-0.1-1-0.2-1.5-0.2c-1.6,0-2.6,1.5-2.6,3.3v0.5h2.2c1.5,0.1,2.6,1.4,2.5,2.8
	c-0.1,1.3-1.2,2.4-2.5,2.5h-2.2V95c0,1.8-1.5,3.3-3.3,3.3c-1.8,0-3.3-1.5-3.3-3.3V79.6h-1.5c-1.5-0.1-2.6-1.4-2.5-2.8
	c0.1-1.3,1.2-2.4,2.5-2.5h1.5v-0.7c0-3.3,1.9-9,9.2-9c1.2,0,2.3,0.2,3.4,0.7C62.5,65.9,63.1,67.5,62.6,68.9z"/>
<path d="M94.4,77.6c-1.5,6.8-4.1,14.7-6.4,19c-1.5,3.2-3.3,6.2-5.4,9c-1.1,1.6-3.3,2-5,1c-1.5-1-2-2.9-1-4.5
	c0.1-0.1,0.1-0.2,0.2-0.2c1.4-2,2.7-3.9,3.9-5.8l-7.9-17.9c-0.8-1.7,0-3.7,1.7-4.5c0.5-0.2,1-0.3,1.5-0.3c1.5-0.1,2.9,0.9,3.3,2.3
	l5,12.9l0.8-2.7c1.2-4.2,1.8-6.6,2.5-9.9c0.4-1.7,1.9-2.8,3.6-2.8C93.9,73.4,94.8,75.7,94.4,77.6z"/>
<path d="M121.5,85.7c0,5.8-2.6,13.2-12,13.2s-12-7.4-12-13.2c0-5.6,2.6-12.8,12-12.8S121.5,80,121.5,85.7z M114.5,85.6
	c0-5.3-2.1-7.2-5.1-7.2s-5.1,1.9-5.1,7.2c0,5.5,2,7.6,5.1,7.6S114.5,91.1,114.5,85.6L114.5,85.6z"/>
<path d="M145.8,98.3c-1.8,0.6-3.6-0.6-4.4-2.4l-0.1-0.2c-1.8,1.8-4.3,2.7-6.9,2.7c-6.9,0-8.1-4.7-8.1-7.9V76.9
	c0.1-1.9,1.7-3.3,3.6-3.2c1.7,0.1,3.1,1.5,3.2,3.2v11.9c0,2.7,1.1,4.1,3.5,4.1c1.6,0,3.1-0.7,4.2-1.8V76.9c0.1-1.9,1.7-3.3,3.6-3.2
	c1.7,0.1,3.1,1.5,3.2,3.2v12.6c0,1.7,0.2,3.4,0.5,5.1C148.4,96.3,147.4,97.9,145.8,98.3z"/>
<path d="M187.9,85.7c0,5.8-2.6,13.2-12,13.2s-12-7.4-12-13.2c0-5.6,2.6-12.8,12-12.8S187.9,80,187.9,85.7z M180.9,85.6
	c0-5.3-2.1-7.2-5-7.2s-5.1,1.9-5.1,7.2c0,5.5,2,7.6,5.1,7.6S181,91.1,180.9,85.6L180.9,85.6z"/>
<path d="M215.7,85.6c0,7.1-2.8,13-10.2,13c-2.2,0-4.2-0.8-5.8-2.3v8c0.1,1.8-1.3,3.4-3.2,3.5c-1.8,0.1-3.4-1.3-3.5-3.2
	c0-0.1,0-0.2,0-0.4V80c-0.1-1.1-0.2-2.1-0.4-3.1c-0.2-1.5,0.7-3,2.1-3.5c1.9-0.7,4,0.3,4.6,2.2c0,0.1,0.1,0.2,0.1,0.3l0.1,0.3
	c1.6-2,4-3.1,6.6-3.1C213.1,73.1,215.7,78.5,215.7,85.6z M208.7,85.7c0-3.8-1-6.8-4.1-6.9c-2,0.1-3.9,1.2-4.8,3.1
	c-0.2,1.2-0.3,2.4-0.3,3.7v0.7c0,1.5,0.1,2.9,0.3,4.4c0.9,1.5,2.6,2.4,4.3,2.4C207.9,93,208.7,89.4,208.7,85.7L208.7,85.7z"/>
<path d="M226.4,87.7v0.1c0,1.3,0.8,5.1,6.2,5.1c1.9,0,2.7-0.6,4.2-1.1c1.5-0.5,3.1,0.4,3.5,1.9c0.4,1.4-0.2,2.8-1.5,3.4
	c-2,1-4.3,1.5-6.5,1.5c-10.1,0-12.6-6.5-12.6-12.5c0-7.2,3.9-13.2,11.9-13.2c7.2,0,9.3,5.4,9.3,10.8v0.8c0.1,1.6-1.1,3-2.7,3.1
	c-0.2,0-0.3,0-0.5,0L226.4,87.7z M226.5,82.9h8.2c0-2.5-0.7-4.7-3.9-4.7C228,78.2,226.6,81.1,226.5,82.9L226.5,82.9z"/>
<path d="M267.2,81.1v13.8c0,1.9-1.5,3.4-3.4,3.4s-3.4-1.5-3.4-3.4l0,0v-12c0-2.7-1.1-4-3.5-4c-1.6,0-3.1,0.6-4.2,1.8v14.2
	c0.1,1.9-1.3,3.5-3.2,3.6c-1.9,0.1-3.5-1.3-3.6-3.2c0-0.1,0-0.2,0-0.4V80c0-1.1-0.3-1.9-0.4-2.9c-0.2-1.5,0.6-3,2.1-3.6
	c1.8-0.7,3.8,0.2,4.6,1.9c0.1,0.1,0.1,0.3,0.1,0.4c0,0,0.1,0.1,0.1,0.2c1.8-1.7,4.2-2.7,6.8-2.7C266,73.3,267.2,77.8,267.2,81.1z"/>
<path d="M296.1,95c0,1.4-1,2.3-2.5,2.9l-1.5,0.2c-3.7,0-6.7-1.5-6.7-5.9V79.6h-1.3c-1.5-0.1-2.6-1.4-2.5-2.8
	c0.1-1.3,1.2-2.4,2.5-2.5h1.3v-3.4c0.1-1.8,1.7-3.3,3.5-3.2c1.7,0.1,3.1,1.5,3.2,3.2v3.4h2.2c1.5,0.1,2.6,1.4,2.5,2.8
	c-0.1,1.3-1.2,2.4-2.5,2.5h-2.2v9.9c0,2.2,0.3,3.1,1.6,3.1h0.1c1.2-0.1,2.3,0.8,2.4,2C296.2,94.7,296.2,94.9,296.1,95z"/>
<path d="M321.8,81.1v13.8c0.1,1.9-1.3,3.5-3.2,3.6c-1.9,0.1-3.5-1.3-3.6-3.2c0-0.1,0-0.2,0-0.4v-12c0-2.7-1.1-4-3.5-4
	c-1.6-0.1-3.2,0.6-4.2,1.9v14.1c0.1,1.9-1.3,3.5-3.2,3.6c-1.9,0.1-3.5-1.3-3.6-3.2c0-0.1,0-0.2,0-0.4V68c-0.1-1.9,1.3-3.5,3.2-3.6
	c1.9-0.1,3.5,1.3,3.6,3.2c0,0.1,0,0.2,0,0.4v7.7c1.8-1.5,4-2.3,6.4-2.3C320.7,73.3,321.8,77.8,321.8,81.1z"/>
<path d="M333.6,87.7v0.1c0,1.3,0.8,5.1,6.1,5.1c1.9,0,2.7-0.6,4.2-1.1c1.5-0.5,3.1,0.4,3.5,1.9c0.4,1.4-0.2,2.8-1.5,3.4
	c-2,1-4.3,1.5-6.5,1.5c-10.1,0-12.6-6.5-12.6-12.5c0-7.2,3.9-13.2,12-13.2c7.2,0,9.3,5.4,9.3,10.8v0.8c0.1,1.6-1.1,3-2.7,3.1
	c-0.2,0-0.3,0-0.5,0L333.6,87.7z M333.8,82.9h8.1c0-2.5-0.7-4.7-3.9-4.7C335.2,78.2,333.8,81.1,333.8,82.9z"/>
<path d="M381.9,98.1c-1.5,0.8-3.4,0.2-4.1-1.3c-0.3-0.6-0.6-1.2-0.7-1.8c-1.4,2.3-4,3.7-6.7,3.5c-3.4,0-7.8-1.9-7.8-8
	c0-5.7,2.9-7.7,13.6-8.1v-0.9c0-1.9-0.7-2.8-3.1-2.8c-1.4,0.1-2.8,0.5-4,1.2c-1.4,0.8-3.2,0.3-4-1c-0.1-0.1-0.1-0.2-0.2-0.3
	c-0.6-1.5,0.1-3.2,1.6-3.9c2.2-1.1,4.6-1.7,7.1-1.7c6.5,0,9.1,2.4,9.1,8.6v8.9c0,1.5,0.2,3,0.7,4.4
	C383.6,96.1,383.1,97.4,381.9,98.1z M376.2,89.7v-2.2c-5.9,0.2-7.2,0.9-7.2,2.9s1.5,2.6,2.9,2.6C373.9,92.9,375.6,91.6,376.2,89.7z"
	/>
<path d="M411.4,85.6c0,7.1-2.8,13-10.2,13c-2.2,0-4.2-0.8-5.8-2.3v8c0.1,1.8-1.3,3.4-3.2,3.5c-1.8,0.1-3.4-1.3-3.5-3.2
	c0-0.1,0-0.2,0-0.4V80c-0.1-1.1-0.2-2.1-0.4-3.1c-0.2-1.5,0.7-3,2.1-3.5c1.9-0.7,4,0.3,4.6,2.2c0,0.1,0.1,0.2,0.1,0.3l0.1,0.3
	c1.6-2,4-3.1,6.6-3.1C408.8,73.1,411.4,78.5,411.4,85.6z M404.4,85.7c0-3.8-1-6.8-4.1-6.9c-2,0.1-3.9,1.2-4.8,3.1
	c-0.2,1.2-0.3,2.4-0.3,3.7v0.7c0,1.5,0.1,2.9,0.3,4.4c1,1.5,2.6,2.4,4.4,2.4C403.6,93,404.4,89.4,404.4,85.7L404.4,85.7z"/>
<path d="M439.1,85.6c0,7.1-2.8,13-10.2,13c-2.2,0-4.2-0.8-5.8-2.3v8c0.1,1.8-1.3,3.4-3.2,3.5c-1.8,0.1-3.4-1.3-3.5-3.2
	c0-0.1,0-0.2,0-0.4V80c-0.1-1.1-0.2-2.1-0.4-3.1c-0.2-1.5,0.7-3,2.1-3.5c1.9-0.7,3.9,0.3,4.6,2.2c0,0.1,0.1,0.2,0.1,0.3l0.1,0.3
	c1.6-2,4-3.1,6.6-3.1C436.5,73.1,439.1,78.5,439.1,85.6z M432.1,85.7c0-3.8-1-6.8-4.1-6.9c-2,0.1-3.9,1.2-4.8,3.1
	c-0.2,1.2-0.3,2.4-0.3,3.7v0.7c0,1.5,0.1,2.9,0.3,4.4c0.9,1.5,2.6,2.4,4.3,2.4C431.4,93,432.1,89.4,432.1,85.7L432.1,85.7z"/>
<path d="M460.8,87.7v0.1c0,1.3,0.8,5.1,6.1,5.1c1.9,0,2.7-0.6,4.2-1.1c1.5-0.5,3.1,0.4,3.5,1.9c0.4,1.4-0.2,2.8-1.5,3.4
	c-2,1-4.3,1.5-6.5,1.5c-10.1,0-12.6-6.5-12.6-12.5c0-7.2,3.9-13.2,12-13.2c7.3,0,9.3,5.4,9.3,10.8v0.8c0.1,1.6-1.1,3-2.7,3.1
	c-0.2,0-0.3,0-0.5,0L460.8,87.7z M461,82.9h8.1c0-2.5-0.7-4.7-3.9-4.7C462.4,78.2,461,81.1,461,82.9z"/>
<path d="M500.8,78l-7.1,17.4c-0.6,1.7-2.3,2.9-4.1,2.9c-1.8,0-3.4-1.1-4-2.8l-7.3-17.4c-0.7-1.7,0.2-3.7,2-4.4
	c0.4-0.1,0.8-0.2,1.2-0.2c1.5-0.1,2.9,0.9,3.3,2.4l5,14l4.6-14c0.4-1.5,1.7-2.5,3.2-2.5c1.9,0,3.4,1.5,3.4,3.4
	C501,77.2,500.9,77.6,500.8,78z"/>
<path d="M510.5,87.7v0.1c0,1.3,0.8,5.1,6.2,5.1c1.9,0,2.7-0.6,4.2-1.1c1.4-0.5,2.9,0.2,3.5,1.5c0.7,1.4,0.1,3-1.3,3.7
	c0,0-0.1,0-0.1,0.1c-2,1-4.3,1.5-6.5,1.5c-10.1,0-12.6-6.5-12.6-12.5c0-7.2,3.9-13.2,12-13.2c7.3,0,9.3,5.4,9.3,10.8v0.8
	c0.1,1.6-1.1,3-2.7,3.1c-0.2,0-0.3,0-0.5,0L510.5,87.7z M510.7,82.9h8.2c0-2.5-0.7-4.7-3.9-4.7C512.1,78.2,510.7,81.1,510.7,82.9z"
	/>
<path d="M541.2,79.7c-2,0.4-3.5,1.1-4.3,2.6v12.5c0.1,1.9-1.3,3.5-3.2,3.6s-3.5-1.3-3.6-3.2c0-0.1,0-0.2,0-0.4V80
	c-0.1-1-0.2-2-0.4-3.1c-0.3-1.5,0.6-2.9,2.1-3.4c1.8-0.7,3.8,0.2,4.5,2c0.1,0.1,0.1,0.3,0.1,0.4l0.2,0.6c0.7-1.3,1.8-2.2,3.2-2.7
	c1.5-0.6,3.3,0.1,3.9,1.7c0,0.1,0.1,0.2,0.1,0.3c0.4,1.7-0.6,3.4-2.2,3.8C541.4,79.7,541.3,79.7,541.2,79.7z"/>
<path d="M567,77.6c-1.5,6.8-4.1,14.7-6.4,19c-1.5,3.2-3.3,6.2-5.4,9c-1.1,1.6-3.3,2-5,1c-1.5-1-2-3-1-4.5c0-0.1,0.1-0.1,0.2-0.2
	c1.4-2,2.7-3.9,3.9-5.8l-7.9-17.9c-0.7-1.7,0.1-3.7,1.8-4.5c0.4-0.2,0.9-0.3,1.4-0.3c1.5-0.1,2.9,0.9,3.3,2.3l5,12.9l0.9-2.7
	c1.2-4.2,1.8-6.6,2.5-9.9c0.4-1.7,1.9-2.8,3.6-2.8C566.4,73.4,567.4,75.7,567,77.6z"/>
<path d="M591.6,97.9c-1.6,0.9-3.7,0.3-4.5-1.4c-0.1-0.2-0.2-0.3-0.2-0.5l-0.2-0.6c-1.8,2.2-4.4,3.4-7.2,3.3c-7,0-9.6-5.6-9.6-12.6
	s2.8-13.1,10.2-13.1c2.1,0,4.2,0.8,5.8,2.1v-7.3c0.1-1.8,1.7-3.3,3.5-3.2c1.7,0.1,3.1,1.5,3.2,3.2v20.6c0,2.1,0.2,4.1,0.6,6.1
	C593.5,95.9,592.8,97.2,591.6,97.9z M585.9,89.8c0.2-1.2,0.3-2.4,0.3-3.6v-0.7c0-1.4-0.1-2.9-0.3-4.3c-1-1.5-2.6-2.4-4.4-2.4
	c-3.8,0-4.6,3.6-4.6,7.3s1,6.9,4.1,6.9C583.2,92.9,585.1,91.7,585.9,89.8z"/>
<path d="M616.6,98.1c-1.5,0.8-3.4,0.2-4.2-1.3c-0.3-0.6-0.6-1.2-0.7-1.8c-1.4,2.3-4,3.7-6.7,3.5c-3.4,0-7.8-1.9-7.8-8
	c0-5.7,2.9-7.7,13.6-8.1v-0.9c0-1.9-0.7-2.8-3.1-2.8c-1.4,0-2.9,0.5-4.1,1.2c-1.4,0.8-3.2,0.3-4-1c-0.1-0.1-0.1-0.2-0.2-0.3
	c-0.6-1.5,0.1-3.2,1.6-3.9c2.2-1.1,4.6-1.7,7.1-1.7c6.5,0,9.1,2.4,9.1,8.6v8.9c0,1.5,0.2,3,0.7,4.4
	C618.2,96.1,617.7,97.4,616.6,98.1z M610.8,89.7v-2.2c-5.9,0.2-7.2,0.9-7.2,2.9s1.5,2.5,2.9,2.5C608.5,92.9,610.2,91.6,610.8,89.7z"
	/>
<path d="M643.3,77.6c-1.5,6.8-4.1,14.7-6.4,19c-1.5,3.2-3.3,6.2-5.4,9c-1.1,1.6-3.3,2-5,1c-1.5-1-2-3-1-4.5c0-0.1,0.1-0.1,0.2-0.2
	c1.4-2,2.7-3.9,3.9-5.8l-7.9-17.9c-0.7-1.7,0.1-3.7,1.8-4.5c0.4-0.2,0.9-0.3,1.4-0.3c1.5-0.1,2.8,0.9,3.3,2.3l5,12.9l0.9-2.7
	c1.2-4.2,1.8-6.6,2.5-9.9c0.4-1.7,1.9-2.8,3.6-2.8C642.7,73.4,643.7,75.7,643.3,77.6z"/>
<path d="M655.5,94.4c0,2.2-1.7,3.9-3.9,3.9c-2.2,0-3.9-1.7-3.9-3.9c0-2.2,1.7-3.9,3.9-3.9c0,0,0,0,0,0
	C653.8,90.6,655.5,92.3,655.5,94.4z M648.6,84.7l-0.5-8v-7c-0.1-2,1.4-3.7,3.4-3.8c2-0.1,3.7,1.4,3.8,3.4c0,0.1,0,0.3,0,0.4v6.9
	l-0.5,8c-0.1,1.7-1.6,3-3.3,2.9C649.9,87.5,648.7,86.3,648.6,84.7L648.6,84.7z"/>
</svg>