<svg version="1.1" xmlns="http://www.w3.org/2000/svg" viewBox="0 0 689 109.8" width="689" height="110">
<path d="M77.9,37.1c0.3,1.8-1,3.6-2.8,3.8c-0.1,0-0.2,0-0.3,0c-3.1,0.4-6.2,0.6-9.3,0.5c-2.2,0-4.2,0-5.8-0.2
	c-6.5-0.4-10.2-3.8-10.2-9.3V10.8c-0.1-1.9,1.3-3.5,3.2-3.7c0.1,0,0.1,0,0.2,0c1.9,0,3.4,1.5,3.4,3.4c0,0.1,0,0.2,0,0.3v8.8
	c5-1,9.9-2.7,14.5-5.1c1.8-0.9,3.8-0.8,4.7,1.1c0.9,1.7,0.2,3.9-1.5,4.8c0,0,0,0,0,0c-5,2.5-11.3,4.1-17.7,5.2v4
	c0,4,0.8,5.1,4.7,5.4c1,0.1,2.2,0,3.8,0c3,0,6.1-0.4,9.1-0.6C76.2,34.2,77.7,35.2,77.9,37.1z M81.2,9.5c0,2.5-2,4.5-4.5,4.5
	s-4.5-2-4.5-4.5c0-2.5,2-4.5,4.5-4.5c0,0,0,0,0,0C79.2,5,81.2,7,81.2,9.5z M79.4,9.6c0-1.4-1.2-2.6-2.6-2.6c-1.4,0-2.6,1.2-2.6,2.6
	s1.2,2.6,2.6,2.6C78.2,12.2,79.4,11,79.4,9.6z"/>
<path d="M120.2,14.7c-2,3.8-4.6,7.3-7.5,10.4c-1.7,1.7-4,2-5.4,0.4c-1.3-1.5-1.2-3.9,0.3-5.2c0,0,0,0,0.1-0.1
	c1.7-1.6,3.2-3.3,4.5-5.2H90c-1.8,0.1-3.2-1.3-3.3-3c0,0,0,0,0-0.1c0-1.7,1.3-3.1,3-3.1c0.1,0,0.2,0,0.3,0h26.6
	C120,8.8,121.9,11.5,120.2,14.7z M105.3,20c0,8.1-0.6,15.8-8.7,21c-1.9,1.2-4,1.1-5.2-0.5c-1.1-1.6-0.6-3.8,1.1-4.9
	c0.1,0,0.1-0.1,0.2-0.1c6.6-4.6,5.8-8.2,5.8-15.5c-0.1-1.9,1.3-3.5,3.2-3.7c0,0,0.1,0,0.1,0c1.9,0,3.5,1.6,3.5,3.6
	C105.3,19.9,105.3,20,105.3,20z"/>
<path d="M157.2,15.8c-2.7,11.3-9.4,21.2-20.1,25.5c-2.6,1.1-4.6,0.1-5.3-1.6s0.3-4,2.5-4.8c7.8-2.9,13.6-9.5,15.3-17.7h-19.9
	c-1.7,0-3.1-1.4-3.1-3.1s1.4-3.1,3.1-3.1h23.5c2.1-0.2,3.9,1.4,4,3.5C157.4,14.9,157.3,15.4,157.2,15.8z M162.4,8.1
	c0,2.3-1.9,4.1-4.1,4.1c-2.3,0-4.1-1.9-4.1-4.1c0-2.3,1.9-4.1,4.1-4.1C160.5,4,162.4,5.8,162.4,8.1C162.4,8.1,162.4,8.1,162.4,8.1z
	 M160.6,8.1c0.1-1.3-0.9-2.4-2.1-2.4c-1.3-0.1-2.4,0.9-2.4,2.1c0,0.1,0,0.2,0,0.3c0.1,1.3,1.2,2.2,2.4,2.1
	C159.6,10.2,160.5,9.3,160.6,8.1z"/>
<path d="M198.3,14.7v21.5c0,2.4-1.1,3.7-3.6,3.7h-23.4c-2.5,0-3.7-1.3-3.7-3.7V14.7c0-2.5,1.2-3.7,3.7-3.7h23.3
	C197.1,11.1,198.3,12.4,198.3,14.7z M191.4,17.4h-17.2v16.1h17.2L191.4,17.4z"/>
<path d="M238.3,28.7l-10,1.3l1.2,8.6c0.4,1.8-0.8,3.6-2.6,4c-0.1,0-0.2,0-0.3,0c-1.8,0.4-3.5-0.8-3.9-2.6c0-0.2,0-0.3-0.1-0.5
	l-1.2-8.6l-11.6,1.5c-1.6,0.3-3.2-0.7-3.5-2.4c0,0,0-0.1,0-0.1c-0.3-1.6,0.8-3.2,2.4-3.5c0.1,0,0.3,0,0.4,0l11.5-1.5l-0.8-5.8
	l-8.9,1.1c-1.6,0.4-3.3-0.6-3.7-2.3c0-0.1,0-0.2-0.1-0.3c-0.3-1.8,0.9-3.2,2.9-3.5l8.8-1.1l-0.5-3.3c-0.3-2.1,0.8-3.8,2.8-4.1
	c1.9-0.3,3.6,1,3.9,2.9c0,0.1,0,0.2,0,0.3l0.5,3.4l8-1c1.6-0.4,3.2,0.6,3.6,2.3c0,0.1,0,0.1,0,0.2c0.3,1.6-0.8,3.2-2.4,3.5
	c-0.1,0-0.3,0-0.5,0l-7.9,1l0.9,5.8l10.1-1.3c2-0.2,3.4,0.6,3.6,2.5c0.3,1.6-0.8,3.2-2.4,3.5C238.6,28.7,238.4,28.7,238.3,28.7z"/>
<path d="M276.2,23.6c-1,2.7-2.4,5.3-4,7.6c-1.3,1.9-3.3,2.3-4.6,1.2c-1.2-1.1-1.3-3-0.3-4.2c0.8-1,1.5-2.1,2-3.2l-7.2,1.5l2.6,12.1
	c0.4,1.6-0.5,3.3-2.1,3.7c-1.6,0.4-3.3-0.5-3.7-2.1c0-0.1,0-0.2-0.1-0.3l-2.6-12.2l-4.4,0.9c-1.5,0.5-3.1-0.3-3.6-1.8
	c0-0.1-0.1-0.2-0.1-0.4c-0.3-1.6,0.7-3.2,2.4-3.5c0.1,0,0.1,0,0.2,0l4.3-0.9l-0.9-3.9c-0.5-1.6,0.4-3.3,2-3.9c1.6-0.5,3.3,0.4,3.9,2
	c0.1,0.2,0.1,0.4,0.1,0.6l0.9,4l11.2-2.2C275.5,17.9,277.3,20.8,276.2,23.6z"/>
<path d="M316.5,22.5c-2.6,8-9,16.1-17.9,18.9c-2.3,0.7-4.3,0-5-1.8s0.2-3.9,2.6-4.7c6.3-2.1,10.8-6.5,12.5-11.6H288
	c-1.7,0-3-1.4-3-3s1.4-3,3-3h24.5C316.1,17.3,317.5,19.4,316.5,22.5z M288.9,11c0-1.7,1.4-3,3.1-3c0.1,0,0.1,0,0.2,0h18.1
	c1.7-0.1,3.1,1.3,3.2,3c0,0,0,0,0,0c0,1.7-1.5,3.1-3.2,3.1c0,0,0,0,0,0h-18.1c-1.7,0.1-3.2-1.2-3.3-3C288.9,11.1,288.9,11,288.9,11z
	"/>
<path d="M356,16.9c-2.9,11.7-8.9,20.5-19.6,24.9c-2.1,0.9-4.3,0.3-5-1.5s0.2-3.9,2.3-4.7c7.7-2.9,13.3-9.5,15-17.6h-9.8
	c-2.2,3.5-5,6.5-8.2,9.1c-1.7,1.3-3.7,1.3-4.9-0.1c-1.3-1.4-1.1-3.6,0.3-4.9c0.1-0.1,0.2-0.1,0.3-0.2c4.2-3.5,7.6-8,9.8-13.1
	c0.6-1.8,2.5-2.8,4.3-2.3c0.1,0,0.2,0.1,0.4,0.1c2,0.8,2.5,2.9,1.7,4.9l-0.2,0.6h9.9C355.1,12.2,356.6,14.5,356,16.9z"/>
<path d="M395,15.1c-2.9,11.6-9.2,22.2-20.1,26.6c-2.3,0.9-4.4,0.3-5.1-1.5s0.1-3.8,2.3-4.7c3.1-1.3,5.9-3.2,8.2-5.6
	c-1.3-1-2.6-1.9-4-2.7c-2.2-1.3-2.5-3.4-1.6-4.8c1.1-1.7,2.9-2,5.1-0.9c1.6,0.9,3.2,1.9,4.6,3.1c1.5-2.5,2.6-5.3,3.1-8.1h-9.2
	c-2.3,3.9-5.3,7.4-8.8,10.3c-1.8,1.5-3.8,1.5-5.1-0.1c-1.2-1.6-0.8-3.8,0.7-4.9c0,0,0,0,0,0c4.9-3.9,7.5-8.3,9.6-13
	c0.7-1.9,2.7-2.8,4.6-2.2c0,0,0.1,0,0.1,0c1.6,0.6,2.5,2.4,2,4.1h9.7C394.2,10.6,395.6,12.6,395,15.1z"/>
<path d="M436.6,24.3c0,1.9-1.5,3.4-3.4,3.4c-0.1,0-0.2,0-0.2,0h-26.8c-2,0.2-3.7-1.3-3.9-3.3c0-0.1,0-0.1,0-0.2
	c0-1.9,1.6-3.5,3.5-3.4c0.1,0,0.1,0,0.2,0h26.9c1.9-0.1,3.5,1.3,3.7,3.2C436.6,24.2,436.6,24.2,436.6,24.3z"/>
<path d="M475,35c1.6,2,1.8,4.6,0.1,6s-4,0.9-5.5-1.1c-2.3-3-4.9-5.8-7.8-8.3c-3.5,3.9-7.7,7-12.4,9.3c-2.3,1.1-4.2,0.6-5.1-1.2
	s-0.2-3.8,1.9-4.7c8.2-3.8,14.6-10.7,17.8-19.2h-15.1c-1.7,0.1-3.1-1.2-3.2-2.8c0-0.1,0-0.1,0-0.2c0-1.7,1.3-3,3-3c0,0,0.1,0,0.1,0
	H468c2.9,0,4.9,2.1,3.9,4.9c-1.5,4.2-3.5,8.2-6,11.8C469.3,29,472.3,31.9,475,35z M471.4,10.1c-0.7-0.6-0.9-1.7-0.3-2.4
	c0-0.1,0.1-0.1,0.1-0.1c0.6-0.6,1.5-0.7,2.2-0.2c1.1,0.6,2,1.6,2.5,2.7c0.5,0.8,0.3,1.9-0.5,2.5c-0.8,0.5-1.9,0.4-2.4-0.4
	c0,0,0-0.1-0.1-0.1C472.5,11.4,472,10.7,471.4,10.1L471.4,10.1z M479.4,9.5c-0.8,0.5-1.9,0.4-2.4-0.4c0-0.1-0.1-0.1-0.1-0.2
	c-0.5-0.7-1-1.3-1.6-1.9c-0.7-0.6-0.8-1.7-0.3-2.4c0,0,0.1-0.1,0.1-0.1c0.7-0.6,1.6-0.6,2.3-0.1c1,0.6,1.9,1.5,2.4,2.6
	C480.4,7.8,480.2,8.9,479.4,9.5L479.4,9.5z"/>
<path d="M493.8,11c-1.2,4.9-1.8,9.9-1.8,14.9c-0.1,3.7,0.4,7.3,1.4,10.9c0.7,2.5-0.3,4.2-2,4.8c-2,0.7-3.7-0.6-4.5-2.9
	c-0.9-2.5-1.4-7.7-1.4-12.7c0-5.4,0.5-10.9,1.6-16.2c0.5-2.2,2.1-3.6,4.1-3.1S494.5,8.6,493.8,11z M514.8,39.6
	c-1.9,0.3-3.9,0.4-5.8,0.4c-8.1,0-12.7-2-12.7-6.7c0-1.5,0.3-2.9,0.9-4.3c0.9-2.1,2.5-2.9,4.1-2.4c1.5,0.4,2.4,2,1.9,3.5
	c0,0.1-0.1,0.2-0.1,0.3l-0.3,1.2c-0.2,1.7,1.7,2.4,6.4,2.4c1.7,0,3.3-0.2,5-0.5c2.2-0.4,3.8,0.1,4.2,2.2S517.2,39.2,514.8,39.6
	L514.8,39.6z M496.6,15.4c-0.2-1.7,1-3,2.9-3.3c3.3-0.4,6.7-0.7,10-0.6c1.7,0,3.3,0.1,5,0.3c2,0.3,3.1,1.4,3,3.1s-1.3,3-3.6,2.9
	c-1.7-0.1-3.8-0.1-5.4-0.1c-3.1,0-5.3,0.2-8.5,0.5c-1.6,0.3-3.1-0.7-3.4-2.3C496.6,15.7,496.6,15.6,496.6,15.4z"/>
<path d="M559,24.2c0,8.4-3.7,15.3-20.2,16.5c-2.5,0.2-4.3-1-4.5-3.2s1.2-3.7,3.9-3.9c9.6-0.7,13.8-2.8,13.8-8.7
	c0-5.1-3.3-7.6-8.6-7.6c-3.5,0-8.4,1.5-14.6,3c-2.5,0.6-4.4-0.4-5-2.4s0.6-4,3.2-4.7c5.6-1.4,11.4-2.2,17.2-2.5
	C553.2,10.8,559,16.3,559,24.2z"/>
<path d="M584.3,32.4c-0.9,5.1-4.1,8.1-7.4,8.1c-5.4,0-10.8-5.9-10.8-19.9c0-2.3,0.1-4.6,0.4-6.8c0.4-2,1.8-3.4,3.8-3.2
	s3,1.9,2.8,4.1c-0.2,1.6-0.5,4.1-0.5,5.9c0,9.5,2,12.8,4,12.8c1.1,0,1.3-1.6,1.8-3c0.5-1.6,1.9-2.9,3.8-2.4
	C583.8,28.4,584.7,30,584.3,32.4z M600.4,29.9c0,2.7-1.4,4.2-3.5,4.2s-3.3-1.4-3.4-4c-0.4-6.8-1.2-9.6-4.6-13.8
	c-1.5-1.8-1.6-3.8-0.2-5.1s3.5-1.1,5.2,0.7C597.7,15.8,600.5,22,600.4,29.9L600.4,29.9z"/>
<path d="M622.5,28.3c0,4,2.8,6.2,10.4,6.8c2.3,0.2,3.9,1.2,3.8,3.5s-1.8,3.3-4.5,3.1c-10.3-0.6-16.4-5.5-16.4-13
	c0-4.8,2.1-9.3,5.8-12.3l-12,1.2c-2.2,0.2-3.8-1.1-3.9-3s1.2-3.2,3.4-3.3c5.6-0.3,13.5-0.9,17.2-1.2c2.8-0.2,6.2-0.6,9.1-0.9
	c2.1-0.2,3.8,0.7,4,2.7s-1,3.5-3.3,3.8c-1.6,0.2-3.1,0.5-4,0.6c-1,0.3-2.1,0.8-3,1.4C624.7,20.7,622.5,24.2,622.5,28.3z"/>
<path d="M135.3,76.1c0,1.4-1.1,2.5-2.4,2.5h-11.3c-1.4,0-2.5-1.1-2.5-2.5c0-1.4,1.1-2.5,2.5-2.4h11.3
	C134.2,73.7,135.3,74.7,135.3,76.1C135.3,76.1,135.3,76.1,135.3,76.1z M134.4,94.2v6.8c0,1.8-1.5,3.3-3.4,3.3h-5.1
	c-0.5,0.9-1.5,1.5-2.6,1.4c-1.3,0.1-2.6-0.8-2.7-2.2v-9.3c0-1.9,1.5-3.4,3.4-3.4c0,0,0,0,0,0h7C132.9,90.9,134.4,92.4,134.4,94.2z
	 M120.8,81.9c0-1.3,1-2.3,2.3-2.3c0,0,0,0,0,0h8.7c1.3,0,2.3,1,2.3,2.3c0,1.3-1,2.3-2.3,2.3c0,0,0,0,0,0h-8.7
	C121.9,84.2,120.8,83.2,120.8,81.9C120.8,81.9,120.8,81.9,120.8,81.9z M120.8,87.5c0-1.3,1-2.3,2.3-2.3c0,0,0,0,0,0h8.7
	c1.3,0.1,2.2,1.2,2.1,2.4c-0.1,1.1-1,2.1-2.1,2.1h-8.7C121.9,89.8,120.8,88.8,120.8,87.5C120.8,87.5,120.8,87.5,120.8,87.5z
	 M121.3,70.4c0-1.3,1.1-2.3,2.3-2.3h7.7c1.3,0.1,2.3,1.2,2.2,2.5c-0.1,1.2-1,2.1-2.2,2.2h-7.7C122.3,72.7,121.3,71.7,121.3,70.4z
	 M128.8,96H126v3.1h2.7L128.8,96z M158.1,92.5c0,1.6-1.3,2.8-2.9,2.8h-5.5v7.3c0,1.7-1.4,3.1-3.1,3.1c-1.7,0-3.1-1.4-3.1-3.1
	c0,0,0,0,0,0v-7.2h-5.7c-1.6,0-2.8-1.3-2.9-2.8c0-1.6,1.3-2.8,2.9-2.8h5.7v-2.7h-3.8c-1.5-0.1-2.7-1.4-2.6-2.9
	c0.1-1.4,1.2-2.5,2.6-2.6h3.8v-2.4h-5c-1.5,0.1-2.9-1.1-3-2.6c-0.1-1.5,1.1-2.9,2.6-3c0.1,0,0.2,0,0.3,0h0.9
	c-0.2-0.3-0.4-0.6-0.5-0.9l-0.5-1.4c-0.6-1.4,0-3.1,1.4-3.8c1.4-0.6,3.1,0,3.8,1.4l0,0l0.7,1.7c0.4,1,0.2,2.1-0.5,2.9h4.6
	c-0.1-0.6,0-1.1,0.2-1.6l1.1-2.7c0.6-1.5,2.4-2.3,3.9-1.7c0,0,0,0,0,0c1.5,0.6,2.2,2.4,1.6,3.9c0,0.1-0.1,0.2-0.1,0.3l-1,1.8h0.4
	c1.5-0.1,2.9,1.1,3,2.6c0.1,1.5-1.1,2.9-2.6,3c-0.1,0-0.2,0-0.3,0h-4.8v2.4h3.7c1.5,0.1,2.7,1.4,2.6,2.9c-0.1,1.4-1.2,2.5-2.6,2.6
	h-3.7v2.7h5.5C156.8,89.7,158.1,91,158.1,92.5L158.1,92.5z"/>
<path d="M195.1,93.2c-3.1,8-8.9,10.9-15.1,10.9c-9,0-13.1-5.1-13.1-15.2c0-3.3,0-9.2,0.2-16.5c0-2.6,1.5-4.2,3.6-4.2
	s3.7,1.8,3.5,4.3c-0.5,7.2-0.7,13.1-0.7,16.3c0,6.6,1.9,8.9,6.7,8.9c4.2,0,6.8-2.2,8.7-7.1c0.8-2.2,2.7-3.5,4.8-2.7
	S196.1,90.8,195.1,93.2z"/>
<path d="M227,103.6c-1.3,1.6-3.6,1.6-5.7-0.3c-5-4.7-10.3-8.9-16.1-12.6c-1.4-0.7-2.3-2.2-2.3-3.8c0.1-1.4,0.8-2.7,2-3.5
	c5.5-4.2,10.6-8.9,15.2-14.1c1.5-1.7,3.6-2.4,5.3-0.9c1.6,1.3,1.8,3.6,0,5.7c-2.2,2.5-5.3,5.5-13.5,11.7c-0.3,0.2-0.5,0.6-0.5,1
	c0,0.4,0.2,0.7,0.5,0.8c5,3,11.3,7.2,14.1,10C227.9,99.4,228.6,101.7,227,103.6z"/>
<path d="M275,89.5c0,6.7-3.9,12.8-13.5,14c-3,0.3-4.6-0.6-4.9-2.5s0.9-3.5,3.4-3.8c6.3-0.8,8.4-3.2,8.4-7.6c0-4.6-2.3-6.8-5.5-6.8
	s-6.4,1.7-9.8,4.8c-0.1,4.7-0.1,9.3-0.1,13.2c0,2.4-1.4,3.9-3.4,3.9s-3.4-1.4-3.3-4l0.2-6l-1.9,2.3c-1.4,1.8-3.8,2-5,0.7
	s-1-3.4,0.4-5c1.7-2,3.3-4.1,4.8-6.2c0.7-1.1,1.4-1.9,1.9-2.8c0-1,0-2.1,0-3.1l-4.2,0.4c-1.8,0.3-3.5-0.8-3.8-2.6c0-0.1,0-0.2,0-0.3
	c-0.1-1.7,1-3.3,3.4-3.4c1.8-0.1,3.4-0.2,4.7-0.3c0-1.1,0-2,0-3c-0.1-1.9,1.3-3.5,3.2-3.6c0.1,0,0.2,0,0.2,0c1.8,0,3.3,1.5,3.3,3.3
	c0,0.1,0,0.2,0,0.3l-0.1,2.4c1.5,0.7,2.2,2.4,1.6,3.9c-0.4,1-1,1.9-1.8,2.6v0.2c3.5-2.6,6.8-4.1,11-4.1
	C270.8,76.4,275,81.3,275,89.5z"/>
<path d="M306.2,86.7c0,6.7-1.1,11.3-2.6,13.9s-3.5,3.6-6.7,3.6c-1.4,0-2.8-0.2-4.2-0.7c-2-0.7-3-2.4-2.4-4.3c0.5-1.5,2-2.4,4.2-1.8
	l1.6,0.4c1,0.2,1.5,0.2,2-0.5c1.2-1.6,2-4.9,2-10.4c0-3.8-1-4.7-4-4.6c-0.3,0-0.6,0-1,0c-1.9,7.5-4.5,13.9-7.5,18.6
	c-0.9,1.6-3,2.2-4.6,1.3c-0.1-0.1-0.3-0.2-0.4-0.2c-1.5-1.2-1.6-3.1-0.3-5c2.8-4.3,5-9,6.3-14l-4,0.7c-1.9,0.4-3.6-0.3-4-2.2
	c-0.3-1.7,0.9-3.4,2.6-3.6c0.1,0,0.1,0,0.2,0c2.2-0.4,4.4-0.7,6.5-0.8c0.4-2,0.6-4,0.9-6.1c0-1.8,1.5-3.3,3.3-3.2c0.1,0,0.3,0,0.4,0
	c2,0.2,3.2,1.8,2.8,4.2c-0.2,1.6-0.5,3.1-0.9,4.7C303.2,76.7,306.2,79.8,306.2,86.7z M315.2,93.4c-1.9,0.4-3.5-0.8-3.9-3.3
	c-0.4-3.9-2.1-7.7-4.6-10.7c-1.2-1.3-1.1-3.2,0.2-4.4c0.1-0.1,0.1-0.1,0.2-0.2c1.4-1,3.3-0.6,4.6,0.7c3.1,2.9,5.4,8.4,6.1,13.2
	C318.2,91.5,317.1,93.1,315.2,93.4L315.2,93.4z"/>
<path d="M356.1,92.6c0,6.9-4.6,11.5-14.5,11.5c-7,0-10.8-2.9-10.8-7.2c0-3.7,3.4-6.7,8.5-6.7c4.7,0,7.6,2.2,8.5,6.9
	c1.3-1.1,2-2.7,1.9-4.3c0-3.1-2.7-5.8-6.5-5.8c-1.2,0-2.4,0.2-3.5,0.5c-3.3,1-6.9,3.5-10.2,6.6c-1.1,1.3-3.1,1.4-4.4,0.3
	c-0.1-0.1-0.3-0.3-0.4-0.4c-1.1-1.5-0.8-3.6,0.6-4.7c0,0,0.1-0.1,0.1-0.1c5.4-4,10.4-8.3,15.2-13c-2.5,0.2-6.2,0.8-10,0.9
	c-2.2,0.1-3.8-1.2-3.9-3.1c-0.1-1.8,1.2-3.2,3.5-3.2c5.6-0.1,11.3-0.4,16.8-1.1c1.7-0.2,3-0.1,4,1.3c1,1.5,0.7,3.5-0.7,4.7l-7.8,6.5
	c1-0.1,2-0.2,2.9-0.2C352.2,81.8,356.1,87,356.1,92.6z M342.4,98.7c-0.3-2.3-1.3-3.6-3.1-3.6s-2.8,0.7-2.8,1.7
	c0,1.2,1.2,1.9,4.5,1.9C341.5,98.8,342,98.8,342.4,98.7z"/>
<path d="M389.9,73.6V75h6.3c1.5,0,2.7,1.3,2.7,2.8v10.1c0,1.5-1.2,2.8-2.7,2.8h-6.3c-0.1,2.3-0.7,4.6-1.9,6.7c2.9,1.3,6,2,9.2,2.2
	c1.6,0.1,2.8,1.5,2.7,3.1c-0.1,1.6-1.5,2.8-3.1,2.7c-0.1,0-0.2,0-0.3,0c-4.3-0.5-8.4-1.8-12.1-3.8c-1.7,1.3-3.5,2.4-5.5,3.3
	c-1.4,0.9-3.3,0.5-4.1-0.9c-0.9-1.4-0.5-3.3,0.9-4.1c0.2-0.1,0.5-0.3,0.7-0.3c1-0.5,2-1,3-1.7c-0.8-0.9-1.6-1.8-2.2-2.8
	c-0.8-1.3-0.5-3,0.8-3.8s3-0.5,3.8,0.8c0.4,0.6,0.8,1.1,1.2,1.7c0.4-1,0.6-2,0.7-3H378c-1.5,0-2.8-1.2-2.8-2.8v-10
	c0-1.5,1.2-2.8,2.8-2.8h5.7v-1.4h-6.4c-1.3,0-2.5-1-2.6-2.4c-0.5,1.8-1.1,3.7-1.8,5.5v26c0,1.7-1.3,3-3,3s-3-1.3-3-3v-14
	c-1,1-2.6,1.1-3.8,0.3c-1.3-0.9-1.7-2.7-0.8-4c3.1-4.8,5.3-10.1,6.6-15.6c0.4-1.6,1.9-2.6,3.5-2.2c1.3,0.3,2.3,1.4,2.4,2.7
	c0.4-1,1.4-1.6,2.4-1.6h20.8c1.5,0,2.6,1.2,2.6,2.7c0,0,0,0,0,0c0,1.5-1.2,2.7-2.6,2.7L389.9,73.6z M383.8,79.6H381V81h2.7
	L383.8,79.6z M383.8,84.6H381V86h2.7L383.8,84.6z M389.9,79.6V81h3.1v-1.4H389.9z M393,84.6h-3.1V86h3.1L393,84.6z"/>
<path d="M416.3,83.6v0.2l4.9,5.5c0.9,1.2,0.8,2.9-0.4,3.8s-2.9,0.8-3.8-0.4c-0.1-0.1-0.2-0.2-0.3-0.4l-0.5-0.9v11.3
	c0,1.7-1.4,3.1-3.1,3.1c-1.7,0-3.1-1.4-3.1-3.1v-9c-0.5,1-1.1,2-1.6,2.9c-0.9,1.4-2.7,1.9-4.1,1c-0.1-0.1-0.3-0.2-0.4-0.3
	c-1.2-1-1.4-2.9-0.4-4.1c0,0,0,0,0.1-0.1c2.5-2.9,4.5-6.1,6.1-9.6h-4.4c-1.5,0-2.7-1.2-2.7-2.7c0-1.5,1.2-2.7,2.7-2.7h4.7v-2.8
	l-3.7,0.5c-1.5,0.2-2.8-0.9-2.9-2.4c0,0,0-0.1,0-0.1c-0.1-1.4,1-2.7,2.4-2.8c3.9-0.4,7.7-1.3,11.3-2.6c1.4-0.7,3.1-0.1,3.7,1.3
	c0.7,1.4,0.1,3.1-1.3,3.7c-0.2,0.1-0.3,0.1-0.5,0.2l-2.9,0.9v4.2h3.5c1.5,0,2.7,1.2,2.7,2.7s-1.2,2.7-2.7,2.7c0,0,0,0,0,0
	L416.3,83.6z M427.1,95.7c-1.7,0-3-1.3-3-3V74.2c0-1.7,1.3-3,3-3s3,1.3,3,3v18.5C430.1,94.4,428.8,95.7,427.1,95.7
	C427.1,95.7,427.1,95.7,427.1,95.7z M439.4,69.7v29.3c0,4.8-1.8,6.4-6.5,6.4c-0.7,0-1.5,0-2.2,0c-1.7,0-3-1.3-3-3c0-0.1,0-0.2,0-0.3
	c0.1-1.6,1.5-2.8,3.1-2.8h0.7c1.3,0,1.7-0.2,1.7-1.2V69.7c0-1.7,1.4-3.1,3.1-3.1c0,0,0,0,0,0c1.7,0,3,1.3,3.1,2.9
	C439.4,69.6,439.4,69.7,439.4,69.7L439.4,69.7z"/>
<path d="M458.6,79.7c-1.5,5.5-3.7,10.9-6.6,15.8c-1.2,2-3.4,2.7-5.2,1.4s-1.8-3.2-0.7-5c2.5-3.8,4.4-7.9,5.8-12.2h-2.9
	c-1.7,0.1-3.1-1.2-3.1-2.9c0,0,0-0.1,0-0.1c0-1.7,1.4-3,3.1-2.9c0,0,0,0,0.1,0h4.3l0.4-2.7c0.2-2.2,1.7-3.6,3.8-3.3
	c1.8,0.1,3.1,1.7,3,3.5c0,0.2,0,0.3-0.1,0.5l-0.3,2h2.1c1.7-0.1,3.1,1.2,3.2,2.8c0,0,0,0.1,0,0.1c0,1.7-1.3,3-3,3
	c-0.1,0-0.1,0-0.2,0L458.6,79.7z M479.1,98.9c-0.9,1.3-2.7,1.7-4,0.8c-0.1,0-0.1-0.1-0.2-0.1L473,98c-0.6,4.1-3.2,6.2-8.2,6.2
	c-5.5,0-9.2-3-9.2-7.2c0-3.5,2.9-7,8.9-7c0.9,0,1.7,0,2.5,0.1l-0.2-4.8v-1.5c0-2.2,1.3-3.6,3.2-3.6c1.7,0,3.1,1.3,3.1,3
	c0,0.2,0,0.3,0,0.5c0,0.6-0.1,2.1-0.1,2.6c0,2,0.1,3.7,0.1,5.3c1.7,0.6,3.2,1.5,4.6,2.6C479.7,95.4,480,97.4,479.1,98.9z
	 M467.2,95.7v-0.5c-0.9-0.2-1.8-0.3-2.7-0.3c-2.3,0-3.5,0.9-3.5,2.1s1.2,1.9,3.1,1.9C466.2,98.9,467.2,98,467.2,95.7z M479.9,81.1
	c-1.1,1.4-3.1,1.7-4.5,0.7c-1.8-1.3-3.8-2.3-5.8-3.2c-1.6-0.5-2.4-2.2-1.9-3.8c0-0.1,0-0.1,0.1-0.2c0.6-1.4,2-2.1,3.9-1.7
	c2.6,0.6,5.1,1.8,7.2,3.4C480.5,77.6,480.9,79.6,479.9,81.1z"/>
<path d="M494.9,87.9V103c-0.1,1.6-1.4,2.7-3,2.6c-1.4-0.1-2.6-1.2-2.6-2.6v-8.7c-0.5,1.2-1.8,1.8-3,1.4c-0.6-0.2-1-0.6-1.3-1.2
	c-0.3-0.7-0.3-1.5,0-2.2c1.9-3.8,3.4-7.8,4.3-12v-0.2h-1.6c-1.4,0-2.6-1.2-2.6-2.6s1.2-2.6,2.6-2.6h1.6v-5.4c0.1-1.6,1.4-2.7,3-2.6
	c1.4,0.1,2.6,1.2,2.6,2.6v5.4h0.6c1.4,0,2.6,1.2,2.6,2.6s-1.2,2.6-2.6,2.6h-0.6v0.5c1.1,1.8,2.1,3.7,2.9,5.1
	c0.2,0.5,0.3,1.1,0.1,1.6c-0.4,0.9-1.5,1.3-2.5,0.9C495.2,88.1,495,88,494.9,87.9z M523.9,100.6c-1.1,4.3-3.1,5.1-6.4,4.7
	c-1.8-0.2-3.4-1.2-4.4-2.6c-1.3,0.9-2.8,1.7-4.2,2.3c-1.2,0.5-2.6,0-3.1-1.2c0,0,0-0.1,0-0.1c-0.5-1.2,0.1-2.5,1.2-3.1
	c1.4-0.6,2.7-1.4,3.9-2.2c-0.8-2.3-1.4-4.7-1.8-7.1h-3.4l-0.2,1.5c1,0.8,1.9,1.7,2.8,2.7c0.9,1,0.7,2.6-0.3,3.4
	c-1,0.9-2.6,0.7-3.4-0.3l-0.2-0.4c-0.6,2.1-1.6,4-3,5.7c-0.9,1.2-2.7,1.3-3.8,0.4c-1.2-0.9-1.3-2.7-0.4-3.8c2-2.4,2.8-5.8,3.1-9.2
	h-0.8c-1.3,0.1-2.4-0.9-2.4-2.1s0.9-2.4,2.1-2.4c0.1,0,0.2,0,0.3,0h8.8l-0.3-2.2c-0.2,0.1-0.4,0.2-0.6,0.2c-0.6,0.1-1.2,0-1.7-0.4
	l-6.2,1.3c-1.1,0.4-2.2-0.2-2.6-1.3s0.2-2.2,1.3-2.6l2.4-3.8c-0.8-1.2-1.7-2.4-2.7-3.5c-0.7-0.7-0.7-1.8,0-2.5
	c0.3-0.3,0.6-0.5,1-0.6c0.5-1,1-2,1.3-2.8c0.5-1.1,1.7-1.6,2.8-1.1c1.1,0.5,1.6,1.7,1.1,2.8c0,0.1-0.1,0.1-0.1,0.2
	c-0.6,1.1-1.3,2.2-2,3.3l0.5,0.7l1.1-2.2c0.5-1,1.7-1.5,2.7-1c0,0,0,0,0.1,0l0.5,0.3v-2.2c-0.1-1.5,1-2.9,2.6-3c1.5-0.1,2.9,1,3,2.6
	c0,0.1,0,0.2,0,0.3c0,0.8,0,1.6,0,2.4c0.3-0.3,0.6-0.4,0.9-0.5l1.3-2.7c0.4-1.1,1.7-1.6,2.7-1.1c1.1,0.4,1.6,1.7,1.1,2.7
	c0,0.1-0.1,0.2-0.1,0.3l-1.8,3l0.6,0.7l1.2-2.2c0.6-1,1.9-1.4,2.9-0.8s1.4,1.9,0.8,2.9c0,0,0,0.1-0.1,0.1c-1.3,2-2.8,4.2-4.4,6.4
	l1.4-0.2c-0.7-0.9-0.5-2.1,0.4-2.8s2.1-0.5,2.8,0.4c0.2,0.3,0.3,0.6,0.4,0.9c0.4,1,0.7,1.9,0.9,2.9c0.3,1-0.4,2.1-1.4,2.3
	c-0.1,0-0.1,0-0.2,0c-0.6,0.1-1.2-0.1-1.6-0.5l-2,0.4l1,0.7c0.5,0.4,0.8,1.1,0.7,1.7h1.3c1.3-0.1,2.4,0.9,2.4,2.1
	c0.1,1.3-0.9,2.4-2.1,2.4c-0.1,0-0.2,0-0.3,0h-7.4c0.2,1.1,0.4,2.1,0.6,2.9l0.9-1.5c0.7-1.2,2.3-1.6,3.5-0.9s1.6,2.3,0.9,3.5
	c-0.8,1.3-1.7,2.6-2.8,3.8c0.3,0.2,0.7,0.4,1.1,0.4c0.4,0.1,0.8-0.2,0.8-0.5c0.5-1.2,1.9-1.8,3.1-1.3
	C523.6,98.2,524.2,99.4,523.9,100.6L523.9,100.6z M504.4,81l-0.1-0.3c-0.1-0.3-0.2-0.6-0.1-0.9l-1,1.4L504.4,81z M507.6,79.1
	l-0.2-4.2l-2.2,3.5l0.2-0.1C506.1,78,507.1,78.3,507.6,79.1L507.6,79.1z M512.8,74.7l0.3,6.5l2.2-3.3
	C514.6,76.7,513.8,75.6,512.8,74.7L512.8,74.7z M516.3,86.8L516.3,86.8c-0.6-0.5-0.9-1.1-0.8-1.8l-0.7,0.1c-0.5,0.1-1,0-1.5-0.3
	l0.2,1.9H516.3z"/>
<path d="M548.2,76c0.6,1.4-0.1,3-1.5,3.6c-0.1,0-0.2,0.1-0.3,0.1c-1.1,0.3-2.2-0.1-2.9-0.9c-3.8,0.4-8.8,0.9-12.6,1.3
	c-1.4,0.1-2.7-0.9-2.8-2.4c0,0,0,0,0-0.1c-0.1-1.4,1-2.6,2.4-2.7c0,0,0,0,0,0c0.2,0,0.4,0,0.6,0c0.7-2,1.4-4,2-5.8
	c0.4-1.5,2-2.3,3.4-1.9c0,0,0,0,0.1,0c1.5,0.5,2.3,2.1,1.8,3.6c0,0,0,0.1,0,0.1l-1.6,3.6l4.8-0.2l-0.6-1.2c-0.7-1.2-0.3-2.8,0.9-3.5
	c1.2-0.7,2.8-0.3,3.5,0.9C546.4,72.3,547.4,74.1,548.2,76z M546.8,83.9V100c0,4.2-1.3,5.4-5.3,5.4h-1.3c-1.5-0.1-2.6-1.5-2.5-3
	c0-1.3,1-2.5,2.4-2.6c0.5,0,0.7-0.2,0.7-0.6v-1.6h-5.2v5.3c0,1.6-1.3,3-2.9,3c-1.7,0-3-1.3-3-3V83.9c0-1.9,1.5-3.4,3.4-3.4h10.2
	C545.3,80.5,546.8,82,546.8,83.9L546.8,83.9z M535.6,85.7v1.3h5.2v-1.3L535.6,85.7z M540.9,92.9v-1.3h-5.2v1.3L540.9,92.9z
	 M548.5,76.9v-7.3c-0.1-1.6,1.1-3,2.8-3.1c1.6-0.1,3,1.1,3.1,2.8c0,0.1,0,0.2,0,0.3V71c2-0.6,3.9-1.5,5.8-2.4
	c1.3-0.7,2.9-0.2,3.5,1.1c0.7,1.3,0.2,2.9-1.1,3.5c-2.6,1.3-5.4,2.3-8.2,3.1v0.7c0,2.1,0.2,2.4,1.5,2.4h3.9c0.6,0,0.8,0,0.9-0.5
	c0.3-1.6,1.8-2.7,3.4-2.4s2.7,1.8,2.4,3.4c-0.7,4.2-2.1,4.9-6.2,4.9h-4.8C549.7,84.7,548.5,83.2,548.5,76.9L548.5,76.9z M566.4,99.6
	c-0.7,4.4-2.1,5.2-6.2,5.2h-4.8c-5.6,0-6.9-1.5-6.9-8.1v-8.6c-0.1-1.6,1.1-3,2.8-3.1c1.6-0.1,3,1.1,3.1,2.8c0,0.1,0,0.2,0,0.3v2
	c2.1-0.8,4.1-1.7,6-2.8c1.2-0.8,2.8-0.5,3.6,0.7c0.8,1.2,0.5,2.8-0.7,3.6c-0.1,0.1-0.2,0.1-0.3,0.2c-2.7,1.5-5.6,2.7-8.6,3.7v1.2
	c0,2.2,0.2,2.6,1.5,2.6h3.9c0.6,0,0.8,0,0.9-0.5c0.3-1.6,1.8-2.7,3.4-2.4C565.6,96.6,566.6,98,566.4,99.6L566.4,99.6z"/>
</svg>