<svg version="1.1"
	 xmlns="http://www.w3.org/2000/svg" viewBox="0 0 630 105" width="630" height="160">
<style type="text/css">
	.st0{fill:#FFF;}
</style>
<path d="M138.8,34.1c-1.9,1.2-2.5,3.6-1.3,5.5c0.3,0.5,0.7,0.9,1.2,1.2c1,0.7,2,1.6,2.8,2.6c0.7,1.1,2,1.7,3.3,1.7
	c0.8,0,1.5-0.2,2.2-0.7c5-3.2,9-7.6,11.8-12.8c0.2,0.4,0.4,0.8,0.6,1.1c-2,0.9-2.8,3.3-1.9,5.3c0.1,0.1,0.1,0.3,0.2,0.4
	c0.6,1,0.9,2.1,1.1,3.2c0.1,2.1,1.8,3.7,3.9,3.8c1.4,0,2.4,0.1,3.3,0.1c1.3,0,2.7-0.1,4-0.2c2.6-0.3,5-1.6,6.6-3.8
	c1.9-2.4,2.6-6.4,3.1-16.8c0.2,0.4,0.3,0.7,0.4,0.9c0.4,1.1,1.3,2,2.5,2.4v13.7c0,2.2,1.8,4,4,4h4.6c2.2,0,4-1.8,4-4V40
	c0.6,0.3,1.3,0.5,2,0.5c0.2,0.6,0.4,1.3,0.5,2c0.3,2,2,3.5,4,3.4c2.7,0,5.5-0.2,7.9-1.5c1.8-1,3.1-2.6,3.6-4.6
	c0.6,0.3,1.3,0.5,2,0.5c0.4,0,0.9-0.1,1.3-0.2l4.5-1.6c1.8-0.6,2.9-2.5,2.6-4.4c-0.3-1.8-0.7-3.7-1.3-5.4c0.8,0.8,1.8,1.3,2.9,1.3
	h0.2v8.3c0,2.2,1.8,4,4,4h4.9c0.6,0,1.3-0.1,1.8-0.4c0,2.2,1.8,4,4,4h5.1c2,0,3.7-1.5,4-3.5h0.1c3.1,0,5.5-0.1,7.6-1.1
	c4.3-2,4.3-6,4.3-7.6V30c0.9-0.1,1.7-0.6,2.3-1.2c0.8,0.9,1.8,1.4,3,1.4h2.1c-1.5,1-3.1,1.8-4.8,2.5c-2,0.8-3,3.2-2.2,5.2
	c0.2,0.6,0.6,1.1,1.1,1.5c1,1,1.9,2.1,2.7,3.2c0.7,1.1,2,1.8,3.4,1.8c0.6,0,1.2-0.1,1.8-0.4c2.7-1.4,5.2-3.1,7.6-5v2.8
	c0,2.2,1.8,4,4,4h5.1c2.2,0,4-1.8,4-4v-2.7c2.3,1.9,4.8,3.6,7.5,5c0.6,0.3,1.2,0.4,1.8,0.4c1.4,0,2.7-0.7,3.4-1.9
	c0.8-1.2,1.6-2.2,2.6-3.2c1.7-1.5,1.8-4,0.3-5.6c-0.4-0.4-0.9-0.8-1.4-1c-1.7-0.7-3.3-1.6-4.8-2.6h2.2c2.2,0,4-1.8,4-4v-4.7
	c0-2.2-1.8-4-4-4H302l0.4-0.8c1.7-0.5,2.9-2.1,2.9-3.8V8.3c0-2.2-1.8-4-4-4h-10.1V3.8c0-2.2-1.8-4-4-4h-5.1c-2.2,0-4,1.8-4,4v0.5
	h-9.7c-1.4,0-2.7,0.8-3.5,2c-0.7-1.4-2.1-2.3-3.6-2.3h-2l0,0c0-2.2-1.8-4-4-4h-4.9c-1,0-1.9,0.4-2.6,1c-0.7-0.6-1.6-0.9-2.6-0.9
	h-4.9c-0.9,0-1.7,0.3-2.4,0.8c-0.7-0.6-1.6-0.9-2.5-0.9h-4.9c-2.2,0-4,1.8-4,4v0h-2.1c-2.1,0-3.8,1.5-4,3.6L217.4,7
	c-0.2,0-0.5-0.1-0.7-0.1c-0.3,0-0.6,0-0.8,0.1l-0.4,0.1h-8.1c0.1-0.4,0.2-0.7,0.3-1.1c0.5-2.1-0.7-4.3-2.9-4.9c0,0-0.1,0-0.1,0
	l-4.7-1C199.7,0,199.4,0,199.1,0c-1.2,0-2.4,0.6-3.1,1.5l-4.4-1.3c-0.4-0.1-0.8-0.2-1.2-0.2c-1.7,0-3.2,1.1-3.8,2.7
	c-1.5,4.3-3.8,8.3-6.6,11.9c0-0.6,0-1.1,0-1.1c0-1.1-0.4-2.1-1.1-2.9c-0.8-0.8-1.8-1.2-2.9-1.2h-12.5V3.9c0-2.2-1.8-4-4-4h-4.9
	c-1.4,0-2.6,0.7-3.4,1.8c-1.1-0.9-2.7-1.1-4-0.6L143,2.9c-2.1,0.8-3,3.1-2.2,5.2c0.1,0.3,0.3,0.6,0.5,0.9l0.3,0.4
	c-2,0.2-3.6,1.9-3.6,4v4.9c0,2.2,1.8,4,4,4h6.7C146.9,27.3,143.4,31.4,138.8,34.1z M264.6,14.4c0.5,1.4,1.8,2.3,3.2,2.5
	c0.1,0.2,0.2,0.4,0.4,0.6h-1.8c-0.7,0-1.3,0.2-1.9,0.5v-0.9c0-0.7-0.2-1.4-0.5-2C264.2,14.9,264.4,14.6,264.6,14.4z M221.3,23.8v1.7
	c-0.1-0.4-0.3-0.9-0.5-1.3C221,24.1,221.1,24,221.3,23.8z"/>
<path d="M316.2,20c1.5,0,3-0.4,4.2-1.3c1.2,0.8,2.6,1.3,4.1,1.3c1.8,0,3.5-0.6,4.9-1.8c0.7,0.6,1.6,0.9,2.5,0.9h1.3
	c-1.4,1.6-2.9,3.1-4.7,4.3c-1.8,1.2-2.3,3.7-1.1,5.5c0,0.1,0.1,0.1,0.1,0.2c0.7,1.1,1.2,2.3,1.7,3.6c0.4,1.3,1.4,2.3,2.6,2.7
	c0.4,0.1,0.8,0.2,1.2,0.2v6.4c0,2.2,1.8,4,4,4h5c1,0,2-0.4,2.8-1.1c0.6,0.5,1.3,0.9,2.1,1c0.2,0,0.4,0,0.6,0c1,0,1.9-0.4,2.6-1
	c0.7-0.6,1.3-1.2,1.9-1.8c0.6,1.5,2,2.6,3.6,2.6c0.8,0,1.8,0.1,2.8,0.1c1.3,0,2.7-0.1,4-0.3c2.5-0.4,4.8-1.8,6.2-4
	c1.5-2.3,2.2-5.6,2.6-17.4c0.7,0.5,1.6,0.8,2.4,0.8h1V42c0,2.2,1.8,4,4,4h4.9c1.2,0,2.3-0.5,3.1-1.4h10.8c0.8,0.9,1.8,1.4,3,1.4h5.1
	c2.2,0,4-1.8,4-4V24.8h0.6c0.5,0,1-0.1,1.4-0.3v0.3c0,2.2,1.8,4,4,4h3.2c-1.9,1.4-3.9,2.6-6.1,3.5c-2,0.9-3,3.2-2.1,5.3
	c0.2,0.6,0.6,1.1,1.1,1.5c1.1,1.1,2,2.2,2.9,3.4c0.7,1.1,2,1.8,3.3,1.8c0.6,0,1.3-0.2,1.9-0.5c2.6-1.4,5.1-3,7.4-4.9V42
	c0,2.2,1.8,4,4,4h5.2c2.2,0,4-1.8,4-4v-3.2c2.3,1.9,4.8,3.6,7.4,5c0.6,0.3,1.2,0.5,1.8,0.5c1.4,0,2.6-0.7,3.4-1.8
	c0.5-0.7,1-1.4,1.5-2c0.6,0.7,1.2,1.5,1.8,2.3c0.7,1.1,2,1.8,3.4,1.8c0.6,0,1.2-0.1,1.8-0.4c2.7-1.4,5.2-3.1,7.6-5v2.8
	c0,2.2,1.8,4,4,4h5.1c2.2,0,4-1.8,4-4v-2.7c2.3,1.9,4.8,3.6,7.5,5c1.8,0.9,4.1,0.3,5.2-1.5c0.8-1.2,1.6-2.2,2.6-3.2
	c1.7-1.5,1.8-4,0.3-5.6c-0.4-0.4-0.9-0.8-1.4-1c-1.7-0.7-3.3-1.6-4.8-2.6h2.2c2.2,0,4-1.8,4-4v-4.7c0-0.6-0.1-1.2-0.4-1.7
	c0.6,0.3,1.2,0.4,1.8,0.4c0.6,0,1.1-0.1,1.6-0.4c1.1-0.5,2.1-1.1,3-1.9l0.1,0.1c0.7,1.3,2,2.1,3.5,2.1c0.6,0,1.1-0.1,1.6-0.4
	c4.8-2,8-6.7,8.1-11.9c0-4.7-3.3-8.4-7.6-8.4c-1.5,0-3,0.4-4.2,1.3c-1.2-0.8-2.6-1.3-4.1-1.3c-3.3-0.1-6.2,2.1-7,5.2
	c-0.6-0.4-1.3-0.6-2-0.6H482V3.8c0-2.2-1.8-4-4-4h-5.1c-2.2,0-4,1.8-4,4v0.5h-9.7c-2.2,0-4,1.8-4,4v4.7c0,2,1.5,3.7,3.5,4
	c0.1,0.2,0.2,0.4,0.4,0.6h-1.8c-0.6,0-1.3,0.2-1.8,0.5c-0.6-1-1.5-1.7-2.6-1.9c0.1-0.4,0.2-0.9,0.2-1.3V10c0-2.2-1.8-4-4-4h-8.8V3.9
	c0-2.2-1.8-4-4-4h-5.2c-2.2,0-4,1.8-4,4V6h-8.4c-2.2,0-4,1.8-4,4v4.8c0,0.4,0.1,0.9,0.2,1.3c-0.2,0-0.5,0.1-0.7,0.2
	c-0.1-1.4-0.9-2.8-2.2-3.4c0.2-0.5,0.3-1,0.3-1.4V7.2c0-2.2-1.8-4-4-4h-10.4c-0.3-0.6-0.6-1.3-1-1.9c-0.7-1.2-2-1.9-3.4-1.9
	c-0.2,0-0.4,0-0.6,0.1l-5,0.8c-1.3,0.2-2.4,1-2.9,2.2c-0.1,0.2-0.2,0.5-0.3,0.7h-8.6c-2.2,0-4,1.8-4,4v4.3c0,0.4,0.1,0.9,0.2,1.3
	c-0.2,0.1-0.4,0.2-0.6,0.4c0-1.2,0-2.4,0.1-3.7V9.4c0-0.6,0-2.3,0-2.3c0-2.2-1.7-4-3.9-4.1c0,0-0.1,0-0.1,0h-20.3
	c-0.9,0-1.9,0.3-2.6,0.9c-0.7-1-1.4-2-2-2.7c-0.8-1-1.9-1.5-3.2-1.5c-0.7,0-1.3,0.2-1.9,0.5l-3.8,2.1c-1,0.5-1.7,1.5-2,2.6
	c0,0.2-0.1,0.5-0.1,0.7c0-0.7-0.1-1.4-0.5-2L330,1.4c-0.7-1.3-2-2.1-3.5-2.1c-0.6,0-1.2,0.1-1.7,0.4c-1.1,0.5-2.1,1.1-3,1.9
	l-0.1-0.1c-0.7-1.3-2.1-2.1-3.5-2.1c-0.6,0-1.2,0.1-1.7,0.4c-4.8,2.1-7.9,6.7-7.9,11.9C308.6,16.3,311.9,20,316.2,20z M493.3,16.8
	c0.4-0.1,0.8-0.3,1.2-0.6l1,1.8c-0.5-0.3-1.2-0.4-1.8-0.4h-0.8L493.3,16.8z M451.9,28.8c0.7,0,1.3-0.2,1.9-0.5
	c0.7,1.2,2,1.9,3.4,1.9h2.1c-1.4,0.9-2.9,1.7-4.4,2.3c-0.1-0.1-0.2-0.1-0.3-0.2c-2.2-1-4.2-2.2-6.1-3.5L451.9,28.8z M331.6,5.9
	c0,0.3,0,0.5,0.1,0.8h-0.3C331.5,6.4,331.6,6.2,331.6,5.9z"/>
<path d="M543.8,66.2h-9.9c-2.2,0-4,1.8-4,4V73c-1.8-3.6-5.8-6.9-14.3-6.9h-9.9c-2.2,0-4,1.8-4,4v18.9l-6.5-20.1
	c-0.5-1.6-2.1-2.8-3.8-2.8h-7.1c-1.8,0-3.3,1.2-3.8,2.8l-8.4,26.3c0.5-4.3,0.7-10.8,1-20.8c0-0.7,0-2,0-2.4c0-2.2-1.8-4-4-4h-6
	l0-0.2c0.5-2.1-0.7-4.3-2.9-4.9c0,0-0.1,0-0.1,0l-4.6-1c-0.3-0.1-0.6-0.1-0.9-0.1c-1.8,0-3.4,1.2-3.9,3c-0.3,1.2-0.6,2.4-1,3.5
	c-0.2,0-0.4,0-0.6,0h-0.6l0.2-0.5c0.4-1.1,0.2-2.4-0.4-3.4c-0.6-1-1.7-1.7-2.9-1.9l-5.3-0.7c-0.2,0-0.4,0-0.5,0
	c-2.1,0-3.8,1.6-4,3.7c-0.1,0.8-0.2,1.8-0.4,2.9h-1.4c-1.6,0-3,0.9-3.6,2.4c0-0.5,0-1,0.1-1.5s0.1-1.4,0.1-1.8c0-0.1,0-0.2,0-0.3
	c0-2.2-1.8-4-4-4h-20.7c-0.6,0-1.1,0.1-1.7,0.4c-0.7-1.1-2-1.8-3.3-1.8h-5c-2.2,0-4,1.8-4,4v3.8h-1.1c-0.4,0-0.9,0.1-1.3,0.2v-1.3
	c0-2.2-1.8-4-4-4h-6c-0.5-1.7-2.1-2.8-3.8-2.8h-4.8c-1.7,0-3.3,1.1-3.8,2.8h-5.4c-0.5-1.7-2.1-2.8-3.8-2.8h-4.4c-2.2,0-4,1.8-4,4
	v4.1c-0.5,0.1-1,0.2-1.4,0.5c0.2-1.3-0.3-2.6-1.2-3.5l-3.8-3.5c-1.2-1.1-3-1.4-4.5-0.7c-3.6,1.5-7.4,2.5-11.3,3.1
	c-0.3,0.1-0.7,0.2-1,0.1h-3.7c-0.3-0.7-0.6-1.4-0.9-1.9c-0.7-1.4-2.1-2.3-3.6-2.3c-0.3,0-0.6,0-0.9,0.1l-4.3,1
	c-1.1,0.3-2.1,1-2.6,2.1c-0.2,0.3-0.3,0.7-0.4,1h-1.8c-2.2,0-4,1.8-4,4v4c0,0.8,0.2,1.5,0.6,2.2c-0.4,0.4-0.7,0.8-0.9,1.3
	c-0.3-0.1-0.7-0.1-1-0.1h-0.9v-10c0-2.2-1.8-4-4-4h-27.1c-2.2,0-4,1.8-4,4v10h-1c-1.2,0-2.2,0.5-3,1.4v-1.3c0-2-1.5-3.7-3.4-4
	c2-1,2.7-3.4,1.7-5.4c-0.1-0.3-0.3-0.5-0.5-0.8l-3.5-4c-1-1.1-2.5-1.6-4-1.2c-5.6,1.5-15.9,2.7-26.9,3.1c-1.3,0.1-2.6,0.8-3.2,1.9
	c-0.4,0.7-0.6,1.4-0.5,2.2c-0.3-0.2-0.7-0.4-1.1-0.5l-3.3-0.9c-0.3-0.1-0.7-0.1-1.1-0.1c-0.4,0-0.8,0.1-1.2,0.2h-0.1h-2l0.1-0.5
	c0.4-2.2-1.1-4.2-3.3-4.6l-4.6-0.8c-0.2,0-0.4-0.1-0.7-0.1c-0.8,0-1.7,0.3-2.4,0.8c-0.3,0.2-0.6,0.5-0.8,0.8h-19.9
	c-1.2,0-2.4,0.6-3.2,1.6c-0.1-0.2-0.3-0.5-0.5-0.7c-0.7-0.8-1.7-1.2-2.8-1.2l-4.9-0.1h-0.1c-1,0-2,0.4-2.8,1.1
	c-0.8,0.7-1.2,1.8-1.2,2.8c0,0.2,0,0.3,0,0.5c-0.8-1-2-1.7-3.2-1.7c-0.2,0-0.4,0-0.6,0c-0.7-1.3-2.1-2.1-3.5-2.1h-4.7
	c-0.7,0-1.4,0.2-2.1,0.6c-0.7-1.4-2.1-2.3-3.6-2.3h-4.4c-2.2,0-4,1.8-4,4v3.7h-0.3c-1.2,0-2.3,0.6-3.1,1.5c-0.3-0.1-0.5-0.2-0.8-0.3
	h-0.1v-2.3c0-2.2-1.8-4-4-4h-9.2c-0.6-1.5-2.1-2.5-3.7-2.5H114c-2.2,0-4,1.8-4,4V70h-8.6c-1,0-1.9,0.3-2.7,1v-2.2c0-2.2-1.8-4-4-4
	h-6.9l0,0c-0.5-1-1.4-1.7-2.5-1.9l-4.6-1.2c-0.3-0.1-0.7-0.1-1-0.1c-1.7,0-3.2,1.1-3.8,2.7c-0.1,0.2-0.1,0.4-0.2,0.6h-4.3
	c-0.5-0.9-1.4-1.6-2.5-1.9l-4.7-1.2c-0.3-0.1-0.7-0.1-1-0.1c-1.6,0-3.1,1-3.7,2.5c-1.2,2.9-3,5.5-5.3,7.6c-1.7,1.4-1.9,3.9-0.5,5.6
	c0.3,0.4,0.8,0.8,1.2,1c0.9,0.5,1.7,1,2.5,1.6c-2.1,0.2-3.6,1.9-3.6,4V88c0,1.2,0.6,2.4,1.5,3.2v3.4c0,2.2,1.8,4,4,4h2.1
	c0.2,0.3,0.5,0.6,0.8,0.8c2,1.4,3.7,3.1,5.2,5c0.6,1,1.6,1.6,2.7,1.8c0.2,0,0.4,0.1,0.7,0.1c0.9,0,1.8-0.3,2.5-0.9l0.3-0.3
	c0.5,1.7,2.1,2.8,3.8,2.8c3.5,0,6.2-0.1,8.6-1c4.7-2,4.7-6.3,4.7-8v-0.4h2.9c0.5,0,0.9-0.1,1.3-0.3c-0.2,0.4-0.4,0.8-0.6,1.1
	c-1.2,1.9-0.6,4.3,1.3,5.5c0.2,0.1,0.4,0.2,0.6,0.3c1.1,0.5,2.1,1.1,3,1.8c0.7,0.6,1.7,1,2.6,1c0.2,0,0.4,0,0.6,0
	c0.5-0.1,1.1-0.3,1.5-0.6h30.4c1.3,0,2.5-0.6,3.2-1.6c0.7,1.3,2.1,2.1,3.5,2.1c2.7,0,5.4-0.1,7.7-1.6c1-0.6,1.9-1.5,2.4-2.6
	c0.7,0.8,1.6,1.4,2.7,1.5h0.4c1.3,0,2.5-0.6,3.2-1.6c0,0,0.1-0.1,0.1-0.1l0.2,0.2c1.1,0.8,2.2,1.8,3.1,2.8c0.7,0.8,1.7,1.4,2.8,1.5
	h0.3c1,0,1.9-0.4,2.6-1c1.1-1,2.1-2,3-3.1l0,0c0.5,2.2,2.6,3.5,4.7,3.1c0.3-0.1,0.6-0.2,0.8-0.3l4.6-2.1c0.4-0.2,0.8-0.4,1.1-0.8
	c0.6,0.3,1.2,0.4,1.8,0.4h4c0.7,0,1.4-0.2,2-0.5c0.1,0.2,0.1,0.4,0.1,0.5c0.4,1.9,2,3.2,3.9,3.2c2.2,0.1,4.5-0.1,6.6-0.7
	c0.6,0.6,1.3,1,2.2,1.2c0.3,0.1,0.5,0.1,0.8,0.1c1,0,1.9-0.4,2.6-1c1.9-1.6,3.6-3.4,5-5.5c1.4,1.9,2.9,3.6,4.6,5.2
	c0.7,0.7,1.7,1,2.7,1c0.3,0,0.5,0,0.8-0.1c1.2-0.3,2.3-1.1,2.8-2.2c0.5-0.8,1.1-1.6,1.9-2.1c1.8-1.3,2.1-3.8,0.8-5.6
	c-0.2-0.3-0.4-0.5-0.7-0.7c-2.9-2.3-5-5.4-6.1-9h0.3c0.8,0,1.7-0.3,2.4-0.8v4.2c0,2.2,1.8,4,4,4h5.7c-0.7,0.3-1.3,0.9-1.7,1.6
	c-0.7,1.3-0.7,2.8,0,4.1c0.7,1.1,1.2,2.3,1.5,3.6c0.4,1.8,2,3.2,3.9,3.2h1.4c3.8,0,6.8-0.2,9.1-1.1h0.1c4.6-1.9,5.1-5.8,5.1-8.6
	v-2.7h12.1c0.5,0,1.1-0.1,1.6-0.3l-0.1,0.1c-0.7,0.8-1,1.9-0.9,2.9l0.4,4.2c0.2,2.1,1.9,3.7,4,3.7h0.5c2.4-0.3,5.3-0.6,8.7-0.9
	c0.5,1.7,2.1,2.9,3.9,2.9h4.6c0.6,0,1.2-0.1,1.8-0.4c0.5,0.2,1,0.3,1.5,0.3c0.5,0,1-0.1,1.5-0.3c1.8-0.7,3.5-1.5,5.1-2.5
	c1.9,1.1,3.9,1.9,6,2.5c0.4,0.1,0.8,0.2,1.1,0.2c1.5,0,2.9-0.8,3.5-2.2c0.6-1,1.3-2,2.1-2.8c0.2-0.2,0.4-0.4,0.5-0.7
	c0.2,0.2,0.4,0.3,0.6,0.5c0.4,0.3,0.9,0.6,1.4,0.8c0,0.1,0.1,0.3,0.1,0.4c0.3,2,2,3.5,4,3.4c2.2,0,4.7,0,6.9-1.2h0.1
	c1-0.6,1.8-1.4,2.3-2.4c0.2,0.1,0.4,0.3,0.6,0.4c0.9,0.6,1.8,1.2,2.6,2c0.8,0.8,1.9,1.3,3,1.3h0.3c1.2-0.1,2.3-0.7,3-1.7
	c0.3-0.4,0.5-0.8,0.8-1.3c0.3,1.9,2,3.3,3.9,3.3h4.7c2.2,0,4-1.8,4-4v-16c0.2,0,0.4,0,0.6-0.1c0.4,0.3,0.8,0.5,1.2,0.7l2.5,0.8v14.7
	c0,2.2,1.8,4,4,4h4.4c0.9,0,1.7-0.3,2.4-0.8c0.7,0.6,1.6,0.9,2.5,0.9h4.5c2.2,0,4-1.8,4-4v-1.8c0.3,0.7,0.5,1.5,0.6,2.2
	c0.3,2,2,3.5,4,3.4c3.2,0,5.7,0,8-1.1c1.8-0.8,3.2-2.3,3.7-4.2c0.2,0.6,0.4,1.2,0.5,1.8c0.3,1.9,2,3.3,3.9,3.4h1.1
	c3.1,0,5.6-0.2,7.8-1.3c0.6-0.3,1.1-0.7,1.6-1.1c0.7,1.4,2.1,2.3,3.6,2.3h4.8c0.2,0,0.5,0,0.7-0.1c0.5,0.3,1.1,0.4,1.7,0.4
	c0.6,0,1.3-0.2,1.8-0.4c1.5-0.8,3-1.7,4.4-2.8c1.4,1,2.8,1.9,4.3,2.6c1.9,0.9,4.1,0.2,5.2-1.6c0.4-0.7,0.9-1.3,1.4-1.9
	c0.6,1.6,2.1,2.7,3.8,2.7h4.4c1.8,0,3.4-1.2,3.9-3h7c1,0,2-0.4,2.8-1.1c0.1,0.4,0.2,0.8,0.2,1.2c0.1,2.1,1.8,3.7,3.9,3.8
	c1.4,0,2.5,0.1,3.4,0.1c1.2,0,2.4,0,3.6-0.2h0.2c2.6-0.3,4.9-1.7,6.4-3.8c0.5-0.7,0.9-1.4,1.2-2.2c0.1,0.5,0.3,0.9,0.6,1.3
	c0.8,1,2,1.6,3.2,1.6h6.1c1.8,0,3.4-1.2,3.9-2.9l1.3-4.8h3.7l1.3,4.8c0.5,1.7,2.1,3,3.9,2.9h6.3c1.4-1,3.2-1,4.6,0h6
	c2.2,0,4-1.8,4-4v-6.7l0,0c6.7,0,11.8-2.8,14.2-7.4v14.1c0,2.2,1.8,4,4,4h6c2.2,0,4-1.8,4-4v-6.7l0,0c9.5,0,15.7-5.5,15.7-14
	C559.7,75.6,558.1,66.2,543.8,66.2z M97.4,80.7c-0.6-0.5-1.4-0.8-2.2-0.9v-2.3c0-0.3,0-0.5-0.1-0.8c0.9-0.1,1.7-0.4,2.3-1V80.7z
	 M140.1,95.3L140.1,95.3c-1,0-2,0.4-2.7,1.1c-0.6-0.6-1.3-1-2.2-1.1c0.3-0.4,0.6-0.9,0.9-1.3l0.4-0.5c0.1-0.2,0.2-0.3,0.2-0.5
	c0.7,1.3,2,2.2,3.4,2.2L140.1,95.3z M140.1,82.1l-1.5,0.4c-0.1-0.3-0.1-0.5-0.2-0.7c0.5,0.2,0.9,0.3,1.4,0.3h0.3V82.1z M179.2,80.1
	c-0.4,0.2-0.7,0.5-1,0.9c0.3-2.1,0.5-4.4,0.6-6.9c0.1,0.1,0.3,0.3,0.4,0.4L179.2,80.1z M221.6,83.3c0.2-1,0.5-2,0.8-3.1V82
	c0,0.3,0,0.6,0.1,0.9C222.2,83,221.9,83.1,221.6,83.3z M265,93.8c-0.4,0-0.8,0.2-1.2,0.3c0.7-0.7,1-1.7,1-2.7V89h0.1L265,93.8z
	 M303.7,94.4c-0.4,0.4-0.6,0.8-0.8,1.3l-0.2-0.1c0.6-1,1.1-2,1.5-3c0.2,0.2,0.3,0.4,0.5,0.6C304.4,93.6,304.1,94,303.7,94.4z
	 M345.7,73.6c0,0.5-0.1,1.1-0.1,1.7c-0.3-0.1-0.5-0.1-0.8-0.1h-4.9c1.8-0.5,3.6-1.1,5.4-1.7c0.2-0.1,0.3-0.1,0.5-0.2
	C345.7,73.4,345.7,73.5,345.7,73.6z M387.7,96.1v-2.6c0.5,0.8,1.3,1.4,2.3,1.7C389.2,95.3,388.4,95.6,387.7,96.1L387.7,96.1z
	 M429.9,95.9c-0.8-0.3-1.6-0.7-2.3-1.2c0.9-1.9,1.7-3.8,2.3-5.8V95.9z M429.9,79.2c-0.2-0.2-0.5-0.4-0.8-0.5
	c0.4-1.1,0.7-2.3,0.8-3.5V79.2z M454.6,94.8c-0.5,0-1,0.1-1.4,0.3v-2.9C453.8,93.1,454.3,94.1,454.6,94.8L454.6,94.8z M517.4,80.6
	c-0.5,0.2-1.1,0.4-1.7,0.3V79c0.6,0,1.2,0.1,1.8,0.2c0,0.1,0,0.3,0,0.4C517.5,80,517.5,80.3,517.4,80.6z M545.6,80.6
	c-0.5,0.2-1.1,0.4-1.7,0.3V79c0.6,0,1.2,0.1,1.8,0.2c0,0.1,0,0.3,0,0.4C545.8,80,545.7,80.3,545.6,80.6L545.6,80.6z"/>
<path d="M575.2,91.9c0.3-0.5,0.5-1.1,0.5-1.7l1.1-13.9c0-0.1,0-0.1,0-0.2L577,70c0.1-2.2-1.7-4.1-3.9-4.1c0,0-0.1,0-0.1,0h-6.8
	c-2.2,0-4,1.8-4,4c0,0,0,0.1,0,0.1l0.2,6.1c0,0.1,0,0.1,0,0.2l1.1,13.9c0,0.6,0.2,1.1,0.5,1.7c-1.3,1.4-2,3.3-2,5.3
	c-0.1,4.1,3.2,7.5,7.3,7.6c0.1,0,0.2,0,0.3,0c4.1,0,7.5-3.3,7.6-7.4c0-0.1,0-0.1,0-0.2C577.2,95.2,576.5,93.3,575.2,91.9z"/>
<path class="st0" d="M176.1,12.1c0,0,0,1.7,0,2.3c-0.6,15.6-1.1,21.5-2.7,23.5c-0.9,1.3-2.4,2.1-4,2.2c-2.2,0.2-4.3,0.3-6.5,0.1
	c-0.2-1.8-0.7-3.5-1.7-5.1c2.5,0.2,4.8,0.2,5.9,0.2c0.7,0.1,1.3-0.2,1.8-0.7c1-1.1,1.6-6.2,2-17.7H159c-1.1,7.8-4.5,16.6-14.1,22.9
	c-1.1-1.4-2.4-2.6-3.9-3.6c7-4.2,11.7-11.2,13-19.3h-12v-4.9h12.5c0.1-1.4,0.1-2.7,0.1-3.9V2.7h4.9v5.5c0,1.2,0,2.5-0.1,3.9
	L176.1,12.1z M148.3,11.6c-1-2.2-2.3-4.3-3.8-6.2l4.2-1.8c1.6,1.9,2.9,3.9,4,6.1L148.3,11.6z M163.2,30.4c-1.3-2.7-2.9-5.3-4.7-7.7
	l4.1-1.9c1.9,2.3,3.6,4.8,5,7.4L163.2,30.4z"/>
<path class="st0" d="M195,4.2c-1.1,2.9-2.4,5.7-3.9,8.4v28h-4.6V19.8c-0.8,1.2-1.8,2.3-2.7,3.3c-0.7-1.8-1.6-3.5-2.6-5.1
	c4.1-4.4,7.3-9.6,9.3-15.2L195,4.2z M209.4,14.4v20.9c0,2.3-0.4,3.7-1.9,4.5s-3.4,1-6,1c-0.3-1.7-0.9-3.4-1.7-4.9c1.7,0,3.4,0,4,0
	s0.7-0.2,0.7-0.7V14.4h-4.7c-1.1,2.2-2.3,4.3-3.8,6.2c-1.2-1.2-2.5-2.2-3.9-3.2c3.1-3.5,5.6-9.1,6.9-14.7l4.7,1.1
	c-0.5,2.1-1.2,4.1-1.9,6.1h14l0.8-0.2l3.4,0.6c-0.5,3.3-1.2,7.1-1.8,9.5l-4.1-0.7c0.2-1.3,0.4-3,0.6-4.8L209.4,14.4z M202.7,21.8
	c-1,4.8-2.9,9.4-5.5,13.6c-1.3-1-2.7-1.8-4.1-2.6c2.3-2.9,4-7.5,5-12L202.7,21.8z M215.2,20.4c2.1,4.2,3.6,8.7,4.4,13.3l-4.7,1.6
	c-0.8-4.6-2.1-9.1-4.1-13.4L215.2,20.4z"/>
<path class="st0" d="M261.3,6.8V11h-5.9v3.5h-4.9V11h-5.2v3.3h-4.9V11h-4.9v3.4h-4.9V11h-6.1V6.8h6.1v-4h4.9v4h4.9v-4h4.9v4h5.2v-4
	h4.9v4H261.3z M225.3,15.9h35.2v9h-3.3v7.7c0,2.1-0.4,3.3-1.9,4s-3.4,0.7-6,0.7c-0.3-1.5-0.8-2.9-1.4-4.2c1.5,0.1,3.2,0,3.7,0
	s0.7-0.1,0.7-0.6v-4.8h-7v13h-5.1v-13h-5.8v9.5h-4.9V24.9h-4.2L225.3,15.9z M230,20v3.5h10.2V20H230z M255.5,20h-10.3v3.5h10.3V20z"
	/>
<path class="st0" d="M290.1,25c3.8,4.4,8.5,8,13.8,10.3c-1.3,1.2-2.4,2.6-3.4,4.1c-5.2-2.7-9.7-6.5-13.3-11.2v12.5h-5.1V28.2
	c-3.7,4.5-8.2,8.3-13.4,11c-1-1.5-2.1-2.9-3.4-4.1c5.4-2.3,10.2-5.8,14-10.2h-12.8v-4.6h7.7c-0.7-2.5-1.7-4.8-3.1-7l4.2-1.6h-6.9
	V7.1h13.7V2.6h5.1v4.4h14.1v4.6h-6.8l4.7,1.4c-1.3,2.5-2.7,4.9-4.3,7.2h7.9V25H290.1z M275.4,11.7c1.5,2.2,2.6,4.6,3.5,7.1l-3.9,1.5
	h7v-8.6H275.4z M287.2,11.7v8.6h6.9l-3.4-1.2c1.4-2.4,2.5-4.8,3.5-7.4H287.2z"/>
<path class="st0" d="M315.6,9c0.3-0.1,0.6-0.2,0.9-0.2c1.6,0,2.8,1.2,2.9,2.8c0,0.1,0,0.2,0,0.2c0,1.7-1.3,3-3,3c-0.1,0-0.1,0-0.2,0
	c-2,0-3.6-1.9-3.6-4.4c0.1-3.6,2.3-6.9,5.6-8.3l1.1,2.2C316.9,5.4,315.6,7.7,315.6,9z M323.9,9c0.3-0.1,0.6-0.2,0.9-0.2
	c1.6,0,2.8,1.2,2.8,2.8c0,0.1,0,0.1,0,0.2c0,1.7-1.3,3-3,3c-0.1,0-0.1,0-0.2,0c-2,0-3.6-1.9-3.6-4.4c0.1-3.6,2.3-6.9,5.6-8.3
	l1.2,2.2C325.2,5.4,323.9,7.7,323.9,9z"/>
<path class="st0" d="M345.4,30.7c-0.8-1.2-2.1-2.9-3.5-4.6v14.6h-5V26.6c-1.2,1.3-2.6,2.5-4,3.7c-0.6-1.7-1.3-3.3-2.3-4.8
	c4.2-3,7.6-7,10-11.6h-8.8V9.5h7c-1-1.7-2.1-3.3-3.2-4.9l3.8-2.1c1.3,1.7,2.6,3.5,3.7,5.3l-2.8,1.7h3l0.6-0.2l2.7,1.9
	c-1.3,3.1-2.9,6.2-4.7,9v0.6l0.7,0.6c1.1-1.3,2.1-2.6,3.1-4l3.1,2.7c-1.5,1.2-2.8,2.5-4,3.5c1.4,1.3,2.7,2.6,3.3,3.2L345.4,30.7z
	 M367.6,5.8c0,0,0,1.8,0,2.4c-0.4,20.5-0.7,27.6-2.2,29.8c-0.8,1.3-2.1,2.2-3.6,2.3c-2,0.3-3.9,0.3-5.9,0.2
	c-0.2-1.6-0.6-3.2-1.4-4.7c2.2,0.2,4.1,0.2,5,0.2c0.6,0.1,1.2-0.2,1.5-0.8c1.1-1.4,1.5-8,1.8-24.7h-5.5c-0.5,13.9-2.5,23.9-9.8,30.1
	c-1.1-1.4-2.3-2.7-3.7-3.8c6.8-5.1,8.3-14.2,8.6-26.3h-5.1V5.8H367.6z"/>
<path class="st0" d="M410.2,15.2v4.3h-36.6v-4.3h8.9c-0.4-1.5-0.9-2.9-1.6-4.2l4-0.8h-9V6h13.7c-0.3-1-0.8-2-1.3-3l5.1-0.8
	c0.7,1.2,1.3,2.5,1.7,3.8h13.1v4.3h-8.4l3.8,0.8c-0.7,1.5-1.4,2.9-2,4.2L410.2,15.2z M378.7,22h26.9v18.7h-5.1v-1.4h-16.9v1.4h-4.9
	L378.7,22z M383.6,26v2.7h16.9v-2.6L383.6,26z M400.4,35.3v-2.9h-16.9v2.9L400.4,35.3z M385.8,10.2c1,1.5,1.7,3.2,2.1,5h8.4
	c0.7-1.6,1.3-3.3,1.8-5H385.8z"/>
<path class="st0" d="M438.5,23.6c3.9,4.8,8.9,8.7,14.5,11.2c-1.3,1.3-2.5,2.7-3.5,4.2c-5.1-2.8-9.6-6.6-13.3-11.2v13h-5.2V28
	c-3.7,4.5-8.2,8.2-13.2,11c-1-1.5-2.2-2.9-3.5-4.2c5.7-2.5,10.6-6.4,14.5-11.2h-13.2v-4.8h15.5v-5.2h-12.4V8.8h12.4V2.7h5.2v6.1H449
	v4.8h-12.8v5.2h15.7v4.8H438.5z"/>
<path class="st0" d="M480.9,25c3.8,4.4,8.5,8,13.8,10.3c-1.3,1.2-2.4,2.6-3.4,4.1c-5.2-2.7-9.8-6.5-13.4-11.2v12.5h-5.1V28.2
	c-3.7,4.5-8.2,8.3-13.4,11c-1-1.5-2.1-2.9-3.4-4.1c5.4-2.3,10.1-5.8,13.9-10.2h-12.8v-4.7h7.8c-0.7-2.5-1.7-4.8-3.1-7l4.2-1.6h-6.9
	V7.1h13.7V2.6h5.1v4.4h14.1v4.6h-6.8l4.7,1.4c-1.3,2.5-2.7,4.9-4.3,7.2h7.9V25H480.9z M466.3,11.7c1.5,2.2,2.6,4.6,3.5,7.1l-3.9,1.5
	h7v-8.6H466.3z M478,11.7v8.6h6.9l-3.4-1.2c1.4-2.4,2.5-4.8,3.5-7.4H478z"/>
<path class="st0" d="M501.6,8.2c-0.3,0.2-0.6,0.2-0.9,0.2c-1.5,0-2.8-1.2-2.8-2.8c0-0.1,0-0.1,0-0.2c0-1.7,1.3-3,3-3
	c0.1,0,0.1,0,0.2,0c2,0,3.6,1.9,3.6,4.4c-0.1,3.6-2.3,6.8-5.6,8.2l-1.2-2.1C500.4,11.7,501.6,9.5,501.6,8.2z M509.9,8.2
	c-0.3,0.1-0.6,0.2-0.9,0.2c-1.6,0-2.8-1.2-2.9-2.8c0-0.1,0-0.2,0-0.2c0-1.7,1.3-3,3-3c0.1,0,0.1,0,0.2,0c2,0,3.6,1.9,3.6,4.4
	c-0.1,3.6-2.3,6.8-5.6,8.2l-1.1-2.1C508.7,11.7,509.9,9.5,509.9,8.2z"/>
<path class="st0" d="M86.8,86.7v2.4h6.9v4.1h-6.9v4.4c0,2.4-0.5,3.6-2.2,4.3s-4,0.7-7,0.7c-0.4-1.6-1-3.1-1.8-4.5
	c2.1,0.1,4.5,0.1,5.2,0.1s0.9-0.2,0.9-0.7v-4.3H69.7c1.9,1.3,3.5,2.9,4.9,4.7l-3.8,3c-1.7-2.4-3.8-4.4-6.2-6.1l2.2-1.6h-7.5v-4.1
	h22.4v-2.5h-24v-4.1h16v-2.3H61.9v-4h11.8v-2h2.4c-0.8-0.5-1.8-1.1-2.4-1.4c0.5-0.4,1-0.9,1.5-1.4h-5.5c0.5,0.8,0.9,1.7,1.2,2.6
	l-4.2,1.7c-0.5-1.5-1.1-2.9-1.8-4.3h-0.4c-1.1,1.7-2.4,3.2-3.8,4.7c-1.3-1-2.6-1.9-4-2.7c2.8-2.5,5.1-5.7,6.5-9.2l4.7,1.2
	c-0.3,0.7-0.6,1.3-1,2h8.9v3.3c1.7-1.9,2.9-4.2,3.8-6.6l4.7,1.2c-0.2,0.7-0.5,1.4-0.9,2.1h11.2v4h-6.8c0.6,0.8,1.1,1.7,1.6,2.6
	l-4.2,1.8c-0.7-1.5-1.5-3-2.5-4.3h-1.6c-0.7,1.1-1.5,2.2-2.4,3.1v1.6h12.4v4H78.8v2.3h16.1v4.1L86.8,86.7z"/>
<path class="st0" d="M128.6,83c1.6,0,2-0.3,2.2-2.2c1.3,0.6,2.6,1,4,1.3c-0.5,3.5-1.9,4.4-5.6,4.4h-8.2c-5.3,0-6.8-1-6.8-4.5
	l-6.6,0.5l-0.2-3.2l6.8-0.5v-2h-7.9v5.4c0,6.1-0.6,14.9-4.1,20.6c-1.3-1-2.7-1.8-4.2-2.4c3.3-5.3,3.6-12.8,3.6-18.2v-9.4H114v-8.1
	h4.9v2.5h13V71h-13v1.7h11.6l0.8-0.2l3.8,0.9c-0.6,2.4-1.4,4.8-2.4,7l-4.3-1.4c0.2-0.7,0.5-1.6,0.7-2.4h-10.4v1.7l8.4-0.7l0.2,3.2
	l-8.7,0.7v0.1c0,1.2,0.4,1.3,2.7,1.3L128.6,83z M124.7,98h9.9v4.1h-30.2V98h8.5V87.2h4.5V98h2.8V87.2h4.5L124.7,98z M109.7,88.8
	c1.3,2.1,2.3,4.4,2.9,6.8l-4.2,1.5c-0.6-2.5-1.5-4.8-2.6-7.1L109.7,88.8z M133.1,90c-1.6,2.5-3.3,5.2-4.8,7l-3.4-1.3
	c1.3-2.3,2.5-4.7,3.3-7.1L133.1,90z"/>
<path class="st0" d="M148.5,87.5v10c0,2.2-0.4,3.4-1.6,4.2s-3,0.9-5.6,0.9c-0.2-1.5-0.6-3-1.2-4.4c1.5,0,2.9,0,3.3,0
	s0.7-0.2,0.7-0.7v-8.7l-3.9,1.1l-1.1-4.6c1.4-0.3,3.1-0.7,4.9-1.2v-7.2h-4.3v-4.5h4.3v-7.7h4.4v7.7h3.3v4.5h-3.3v6l3.1-0.9l0.6,4.3
	L148.5,87.5z M164.2,86.7c0.5,1.3,1,2.6,1.8,3.9c-9.2,6.7-10.6,8.1-11.4,9.3c-0.7-1.3-1.5-2.5-2.4-3.6c1.3-1.1,2-2.7,2-4.3V66.4h4.7
	v24.1L164.2,86.7z M163.8,82.3c-1.1-4.2-2.7-8.3-4.6-12.2l4-1.6c2.1,3.8,3.7,7.8,5,11.9L163.8,82.3z M173.9,101.7
	c-0.7-3-1.7-6-2.8-8.9c-1.5,3.7-3.8,7.1-6.8,9.8c-1.2-1.3-2.6-2.5-4-3.5c8.1-6.3,9.7-17.8,9.9-33.4l4.9,0.1
	c-0.1,6.8-0.7,13.5-2,20.2c2.2,4.3,4,8.9,5.3,13.6L173.9,101.7z"/>
<path class="st0" d="M211.8,79.9c0,0.9,0,1.9-0.1,2.9c1.6,7.7,4,12.3,8.8,16.2c-1.3,1-2.3,2.2-3.1,3.6c-3.3-3-5.9-6.7-7.5-10.9
	c-1.4,4.3-4,8.1-7.5,11.1c-0.6-1.1-1.4-2-2.3-2.9c-0.2,0.8-0.8,1.4-1.6,1.7c-1.3,0.5-3.1,0.6-5.7,0.6c-0.3-1.2-0.7-2.3-1.3-3.4
	c1.5,0.1,3.3,0.1,3.8,0.1s0.7-0.2,0.7-0.6V86.5h-14.8v-4.2h14.6V70.2h-14.1v-4.1h20.8v4.1h-2.4v9.2c2.3-3.6,3.8-9.2,4.6-14.9
	l4.6,0.8c-0.3,1.8-0.6,3.5-1.1,5.2h7.5l0.6-0.2l3.3,0.9c-0.6,3.9-1.5,7.8-2.6,11.6l-3.8-1.1c0.4-1.8,0.9-4.4,1.3-7h-7.5
	c-0.8,2.7-1.9,5.2-3.3,7.6h0.3v4.2h-3.8v12c6.4-5.9,7.1-13.7,7.1-18.8v-3.1h4.3L211.8,79.9z M187,97.5V99h-3.9V88.2h11v9.3H187z
	 M193.5,71.8v8.9h-10.2v-8.9H193.5z M189.8,75h-3.1v2.7h3.1V75z M187,91.5v2.7h3.3v-2.7H187z M200.2,82.4h3.6
	c-1.2-0.8-2.4-1.6-3.6-2.2V82.4z"/>
<path class="st0" d="M260.9,90.2h-16.1v6.6c0,2.9-0.7,4.2-2.6,4.9s-4.9,0.8-9.1,0.8c-0.4-1.7-1.1-3.3-2-4.8c3,0.1,6.4,0.1,7.3,0.1
	s1.3-0.3,1.3-1.1v-6.6h-16.1v-4.7h16.1v-4.8h-13.3v-4.7h13.3v-4.8c-4.2,0.4-8.5,0.6-12.5,0.8c-0.2-1.5-0.6-2.9-1.2-4.3
	c9.8-0.4,21-1.5,27.7-3.3l3.5,4c-4.1,1-8.2,1.7-12.4,2.2v5.4h13.7v4.7h-13.7v4.8h16.1L260.9,90.2z"/>
<path class="st0" d="M283.4,98.8v3.9h-4.6v-3.3c-4.8,0.5-9.4,1-13,1.4l-0.4-4.2c1.1-0.1,2.3-0.2,3.6-0.3V83.8h-3.5V80h37v3.8h-19
	v11.1l1.9-0.2v3.9L283.4,98.8z M297.5,78.5h-27.1V66h27.1V78.5z M273.5,83.8v1.6h5.3v-1.6H273.5z M273.5,90.4h5.3v-1.7h-5.3V90.4z
	 M278.8,95.4v-1.6h-5.3v2.1L278.8,95.4z M292.6,69.1h-17.5v1.6h17.5V69.1z M292.6,73.6h-17.5v1.7h17.5V73.6z M301.8,86.3
	c-1,3.6-2.8,6.9-5.2,9.7c2.1,1.2,4.3,2.1,6.7,2.7c-1.1,1.1-2.1,2.4-2.9,3.8c-2.6-0.7-5-1.9-7.2-3.5c-2,1.5-4.2,2.7-6.5,3.6
	c-0.6-1.3-1.4-2.5-2.4-3.5c2-0.6,4-1.6,5.8-2.8c-1.8-2-3.2-4.2-4.3-6.6l2-0.6h-3v-3.8h13.5l0.8-0.2L301.8,86.3z M289.8,89.1
	c0.9,1.7,2,3.1,3.4,4.4c1.2-1.3,2.3-2.8,3.1-4.4H289.8z"/>
<path class="st0" d="M313.8,90.9c-0.9,2.7-2.3,5.2-4.1,7.4c-1-0.8-2-1.6-3.1-2.3c1.6-1.7,2.8-3.8,3.5-6L313.8,90.9z M319.2,88.9v8.7
	c0,2-0.3,3-1.5,3.7s-2.9,0.7-5,0.7c-0.2-1.4-0.7-2.7-1.3-4c1.2,0,2.5,0,2.9,0s0.6-0.1,0.6-0.6v-8.6h-7.5v-4.1h7.5v-3.1h-7.8v-4h4
	c-0.2-1.5-0.6-2.9-1.2-4.2l3.3-0.8h-5.5v-4h7c-0.4-1.1-0.8-2.2-1.2-3.2l4.3-1c0.7,1.4,1.2,2.8,1.8,4.2h6.5v3.9h-5.1l3.3,0.7
	c-0.6,1.6-1.2,3.1-1.8,4.4h4.2v4h-7.4v3.1h6.7v4.1L319.2,88.9z M313.7,72.7c0.7,1.4,1.1,3,1.4,4.5l-2,0.5h4.9
	c0.7-1.7,1.3-3.3,1.8-5.1H313.7z M344.7,82.6h-3.8v20h-4.7v-20h-4v0.3c0,6-0.5,14.3-4,19.4c-1.1-1.1-2.4-2.1-3.7-2.9
	c0.8-1.2,1.4-2.5,1.8-3.9l-3.2,2c-0.9-2.1-2-4.2-3.2-6.1l3.1-1.8c1.2,1.8,2.3,3.8,3.3,5.8c1.3-4,1.4-8.6,1.4-12.5V68.5
	c4.2-0.7,8.4-1.8,12.3-3.5l3.8,3.6c-3.8,1.4-7.6,2.4-11.6,3.1v6.4h12.5L344.7,82.6z"/>
<path class="st0" d="M348,83.3c0.9-3.5,1.5-7,1.7-10.6l3.4,0.4c-0.1,3.8-0.7,7.7-1.6,11.4L348,83.3z M386.5,77.5V81h-26.7v-3.5h10.8
	v-1.8h-8.4l0.1,0.2l-3.2,1.6c-0.4-1.5-0.9-3.1-1.5-4.5v29.6h-4.4v-38h4.4v6.5l2.3-1c0.9,1.8,1.6,3.6,2.3,5.5v-3.2h8.4v-1.6H361v-3.5
	h9.5v-2.8h4.8v2.8h9.9v3.5h-9.9v1.6h8.8v3.3h-8.8v1.8H386.5z M383.8,98.1c0,2.1-0.4,3.3-1.9,3.9s-3.5,0.7-6.3,0.7
	c-0.2-1.4-0.7-2.8-1.3-4.1c1.7,0.1,3.6,0.1,4.1,0.1s0.8-0.2,0.8-0.7v-1.3H367v6.1h-4.5V82.5h21.2L383.8,98.1z M367,86.1V88h12.2
	v-1.9H367z M379.2,93.3v-1.9H367v1.9H379.2z"/>
<path class="st0" d="M405,86.5c-1.4,0.4-2.8,0.8-4.3,1.2v9.5c0,2.5-0.5,3.8-2,4.5s-3.7,0.9-6.9,0.8c-0.3-1.6-0.8-3.2-1.6-4.6
	c1.9,0.1,4,0.1,4.6,0.1s0.9-0.2,0.9-0.9v-8.1c-1.6,0.4-3.2,0.8-4.6,1.1l-1.1-4.9c1.6-0.3,3.6-0.8,5.7-1.3v-6.9h-5.1v-4.7h5.1v-7.8h5
	v7.8h3.9v4.7h-3.9v5.6c1.2-0.3,2.5-0.6,3.7-0.9L405,86.5z M427.3,81c-0.6,4.8-2.3,9.5-5,13.6c1.9,1.7,4,3,6.4,3.9
	c-1.3,1.2-2.5,2.6-3.4,4.2c-2.3-1.1-4.3-2.5-6.1-4.3c-1.8,1.8-3.9,3.3-6.2,4.5c-0.7-1.1-1.5-2.1-2.5-2.9v2.6h-4.8V66.1h20.7
	c0,0,0,1.2-0.1,1.8c-0.2,5.7-0.6,8.2-1.6,9.3c-1,1-2.3,1.5-3.7,1.4c-2.1,0.1-4.2,0.1-6.4,0c-0.1-1.4-0.5-2.8-1.2-4
	c2.4,0.2,4.6,0.2,5.5,0.2s1.2,0,1.6-0.4s0.5-1.6,0.7-4h-10.7v9.7h12.9l0.9-0.2L427.3,81z M410.5,98.8c2-1,3.9-2.4,5.5-4
	c-2.3-3.1-4-6.6-5.3-10.3h-0.3L410.5,98.8z M415.4,84.6c0.9,2.3,2.1,4.5,3.6,6.5c1.2-2,2.1-4.2,2.7-6.5L415.4,84.6z"/>
<path class="st0" d="M469.2,70.9c0,0,0,1.6,0,2.2c-0.5,18.2-1,24.7-2.6,26.9c-0.9,1.3-2.3,2.1-3.9,2.2c-2.1,0.2-4.3,0.2-6.4,0.1
	c-0.2-1.7-0.7-3.3-1.6-4.7c2.6,0.2,5,0.2,6.1,0.2c0.7,0.1,1.3-0.2,1.8-0.7c1.2-1.3,1.7-7.4,2.2-21.8h-8.7c-1,2.3-2.2,4.4-3.6,6.4
	c-1-0.8-2-1.6-3.1-2.3v19h-10.9v3h-4.4V71.2h4.6c0.6-2.2,1-4.4,1.2-6.6l5.3,0.7c-0.7,2-1.4,4.1-2.1,5.8h6.3v6.6
	c2.6-4,4.4-8.5,5.5-13.1l4.6,1.1c-0.5,1.8-1,3.5-1.6,5.2H469.2z M444.8,75.4h-6.5V82h6.5V75.4z M444.8,94.2v-8h-6.5v8H444.8z
	 M458.3,92c-1.7-3.3-3.6-6.4-5.7-9.4l3.8-2.2c2.2,2.9,4.2,5.9,6,9.1L458.3,92z"/>
<path class="st0" d="M484.3,69h7.1l9.7,30.2h-6.3l-2.1-7.8h-9.8l-2.1,7.8h-6.1L484.3,69z M484.2,86.8h7.2l-0.9-3.3
	c-0.9-3.1-1.8-6.6-2.6-9.9h-0.2c-0.8,3.3-1.7,6.7-2.6,9.9L484.2,86.8z"/>
<path class="st0" d="M505.7,69h9.9c6.7,0,11.8,2.4,11.8,9.5c0,6.9-5.2,10-11.7,10h-4v10.7h-6L505.7,69z M515.4,83.7
	c4.2,0,6.2-1.8,6.2-5.2s-2.2-4.7-6.4-4.7h-3.4v9.9H515.4z"/>
<path class="st0" d="M533.9,69h9.9c6.7,0,11.8,2.4,11.8,9.5c0,6.9-5.2,10-11.7,10h-4v10.7h-6L533.9,69z M543.6,83.7
	c4.2,0,6.2-1.8,6.2-5.2s-2.2-4.7-6.4-4.7H540v9.9H543.6z"/>
<path class="st0" d="M566.1,96c0-2,1.6-3.6,3.6-3.6c2,0,3.6,1.6,3.6,3.6c0,2-1.6,3.6-3.6,3.6c0,0,0,0,0,0c-1.9,0.1-3.5-1.4-3.6-3.3
	C566.1,96.2,566.1,96.1,566.1,96z M566.5,74.8l-0.2-6.1h6.7l-0.2,6.1l-1.1,14h-4.2L566.5,74.8z"/>
</svg>