<svg version="1.1" xmlns="http://www.w3.org/2000/svg" viewBox="0 0 689 109.8" width="689" height="110">
<path d="M243.6,37.1c3.7,0,4.3-1.1,4.9-6.4c1.4,0.8,2.9,1.4,4.5,1.8c-0.8,6.8-2.4,8.9-9,8.9h-12.8c-7.2,0-9.3-1.6-9.3-7.9V22.8
	l-5.7,1.8l-1.3-4.4l7-2.2V7h4.8v9.5l6.3-2V4.2h4.8v8.8l7.4-2.3l0.5-0.4l0.9-0.6l3.4,1.5l-0.2,0.9c-0.1,7.6-0.4,12.4-1.2,14.8
	s-1.9,3.2-3.3,3.6c-1.7,0.4-3.4,0.5-5.1,0.4c-0.1-1.5-0.5-3-1.1-4.5c1.1,0.1,2.7,0.1,3.4,0.1s1.4-0.3,1.9-1.8s0.6-4.4,0.6-9.3
	l-7.3,2.3v15.2H233V19.3l-6.3,2v12.2c0,3,0.6,3.5,4.6,3.5H243.6z"/>
<path d="M293.7,27h-8.4v15.2h-4.9V27h-8.5v-4.6h8.5v-8.2h-2.4c-1,2.2-2.1,4.3-3.5,6.3c-1.2-0.9-2.4-1.7-3.7-2.4v2.1h-13.1v-3.7h13.1
	v0.6c0.6-0.8,1.1-1.6,1.6-2.4h-16.7v-3.8h6.8c-0.3-1.9-0.9-3.7-1.8-5.4l3.5-1.3c1.1,1.8,1.8,3.7,2.1,5.7l-2.4,1h8.5v3.8
	c1.8-3.4,3-7,3.7-10.7l4.9,1c-0.4,1.6-0.9,3.2-1.4,4.8h13.2v4.4h-7.5v8.1h8.4L293.7,27z M270.5,40.1h-8.9v1.6h-4.2V27.8h13.1
	L270.5,40.1z M257.5,22.1h13.1v3.6h-13.1L257.5,22.1z M261.6,31.6v4.7h4.6v-4.7H261.6z"/>
<path d="M318.5,5.4l-0.6,0.7c3.8,3.3,10.4,6,16.9,7.4c-1.2,1.1-2.2,2.3-3.1,3.7c-0.8-0.2-1.7-0.5-2.5-0.7V27h-28.3V16.7
	c-0.9,0.3-1.7,0.6-2.5,0.8c-0.7-1.3-1.6-2.6-2.6-3.7c7.5-1.8,14.8-5.2,18.5-9.9L318.5,5.4z M327.7,15.9c-1.9-0.7-3.8-1.5-5.5-2.5
	v1.1h-14.3v-0.8c-1.6,0.8-3.3,1.6-4.9,2.2H327.7z M303.1,28.3h24v13.8h-5v-1h-14.2v1.1h-4.8V28.3z M307.8,24
	c-0.3-1.5-0.7-2.9-1.4-4.2l3.1-0.9h-4.6V24H307.8z M307.9,31.5v1.6h14.2v-1.6L307.9,31.5z M322.1,37.9v-1.6h-14.2v1.6L322.1,37.9z
	 M312.9,18.9h-3.2c0.7,1.4,1.3,2.8,1.6,4.3l-2.6,0.8h4.2L312.9,18.9z M318.8,11.4c-1.2-0.8-2.3-1.7-3.4-2.7
	c-1.1,0.9-2.2,1.8-3.5,2.6L318.8,11.4z M316.8,18.9V24h3.8l-2.5-0.7c0.6-1.4,1.2-2.9,1.6-4.4L316.8,18.9z M324.9,18.9h-4.2l3.2,0.8
	c-0.8,1.6-1.6,3.2-2.2,4.4h3.3V18.9z"/>
<path d="M373.4,27.5c-0.7,8.2-1.4,11.8-2.7,13.1c-0.8,0.9-2,1.5-3.3,1.5c-1.7,0.2-3.5,0.2-5.2,0.1c-0.1-1.5-0.6-3-1.4-4.4
	c1.4,0.1,2.9,0.2,4.3,0.2c0.5,0.1,1.1-0.1,1.5-0.5c0.7-0.7,1.3-2.9,1.8-7.8h-23.8c-0.6,0.5-1.1,0.9-1.7,1.4l3.5,1.2
	c-0.8,3.5-2,7.3-4.4,9.8l-3.8-2.7c2-2.2,3.4-4.9,4-7.9c-1.3,0.9-2.6,1.7-4,2.5c-0.7-1.5-1.6-2.9-2.6-4.2c6.3-3.3,11.4-8.4,14.6-14.7
	h-12.7v-4.4h8c-1-1.7-2.1-3.4-3.4-4.9l4.4-1.7c1.5,1.6,2.9,3.4,4,5.3l-3.2,1.3h5.1c0.9-2.1,1.7-4.4,2.2-6.6l5,1.1
	c-0.6,1.8-1.2,3.7-1.9,5.5H368c-0.5,2.4-1.1,5.2-1.6,7.5h4.2c-0.5,2.4-1,5.1-1.5,7.3h4.5L373.4,27.5z M351.7,31.8
	c0.8,2.7,1.1,5.5,1.2,8.3l-4.1,0.5c0-2.8-0.3-5.6-0.9-8.3L351.7,31.8z M351.4,22.4c-0.8,1.1-1.6,2.2-2.5,3.2h15.8
	c0.2-1,0.5-2,0.7-3.2H351.4z M357.6,31.1c1,2.3,1.7,4.7,2.2,7.2l-3.9,1c-0.4-2.5-1.1-5-2-7.3L357.6,31.1z M355.7,15.1
	c-0.5,1.1-1.1,2.1-1.7,3.1h7.9c0.2-0.9,0.5-2,0.7-3.1L355.7,15.1z M362.5,36.7c-0.6-1.9-1.4-3.8-2.4-5.5l3.3-1.2
	c1.1,1.7,2,3.5,2.6,5.4L362.5,36.7z"/>
<path d="M389.7,5.8c-1.1,2.9-2.4,5.7-3.9,8.4v28h-4.6V21.3c-0.8,1.2-1.8,2.3-2.7,3.3c-0.7-1.8-1.6-3.5-2.6-5.1
	c4.1-4.4,7.3-9.6,9.3-15.2L389.7,5.8z M404.1,16v20.8c0,2.3-0.4,3.7-1.9,4.5s-3.4,1-6,1c-0.3-1.7-0.9-3.4-1.7-4.9c1.7,0,3.4,0,4,0
	s0.7-0.2,0.7-0.7V16h-4.7c-1.1,2.2-2.3,4.3-3.8,6.2c-1.2-1.2-2.5-2.3-3.9-3.2c3.1-3.5,5.5-9.1,6.9-14.7l4.7,1.1
	c-0.5,2.1-1.2,4.1-1.9,6.1h14l0.8-0.2l3.4,0.6c-0.5,3.3-1.2,7.1-1.8,9.5l-4.1-0.7c0.2-1.3,0.5-3,0.6-4.8L404.1,16z M397.4,23.3
	c-1,4.8-2.9,9.4-5.5,13.6c-1.3-1-2.7-1.9-4.1-2.6c2.3-2.9,4-7.5,5-12L397.4,23.3z M409.9,22c2.1,4.2,3.6,8.7,4.4,13.3l-4.6,1.6
	c-0.8-4.6-2.1-9.2-4.1-13.4L409.9,22z"/>
<path d="M445.8,21.4c2.7,2.8,6,5,9.7,6.4c-1.3,1.2-2.3,2.5-3.3,4c-4.8-2.4-9-5.9-12-10.4h-7.9c-1,1.5-2.1,2.8-3.3,4.1
	c2.9-0.6,5.8-1.6,8.5-2.9l4,2.2c-4,2.2-8.3,3.7-12.7,4.7c-0.5-0.8-1.2-1.5-1.8-2.2c-2,1.8-4.2,3.2-6.6,4.4c-1.1-1.4-2.3-2.6-3.6-3.8
	c3.6-1.5,6.8-3.7,9.4-6.6h-8.4v-4.2h11.5c0.5-0.8,0.9-1.7,1.3-2.6c-5.3,0.2-6.6,0.4-7.8,0.8c-0.3-1.5-0.8-3-1.4-4.4
	c1.1-0.3,2.2-0.7,3.1-1.4c3-1.6,5.7-3.6,8.2-5.9l4.4,2.4c-2,1.6-4.1,3.1-6.3,4.4l11.3-0.3c-1.2-0.9-2.4-1.8-3.5-2.6l3.8-2.5
	c3.5,2.3,8.2,5.8,10.5,8.3l-4.1,2.7c-0.7-0.8-1.4-1.5-2.2-2.2L436,14.3c-0.4,1-0.8,1.9-1.2,2.8h19.9v4.2H445.8z M449.9,33.4
	c-5.6,5.3-14.9,7.7-25.5,8.9c-0.5-1.5-1.3-3-2.2-4.3c9.6-0.7,18.7-2.6,23.2-6.7L449.9,33.4z M444.7,29.2c-4.2,3.2-10.9,5.3-17,6.5
	c-0.7-1.3-1.6-2.6-2.7-3.7c5.5-0.7,12.3-2.5,15.6-4.7L444.7,29.2z"/>
<path d="M476.6,11.5c0,0,0,1.6,0,2.2c-0.4,17.4-0.6,23.6-1.9,25.5c-0.7,1.1-1.8,1.9-3.1,2.1c-1.6,0.2-3.3,0.3-4.9,0.2
	c-0.1-1.7-0.6-3.4-1.4-4.8c1.6,0.1,3.1,0.2,3.9,0.2c0.6,0,1.1-0.2,1.4-0.7c0.8-1.1,1.1-6.1,1.3-19.8h-4.1c-0.4,10.9-1.8,20-7.1,26
	c-0.9-1.4-2.2-2.6-3.6-3.5c4.6-5.2,5.7-13,6-22.5h-4.7v-4.7h4.7c0-2.2,0-4.4,0-6.7h4.8c0,2.3,0,4.5,0,6.7H476.6z M493.6,8.8v32.3
	h-4.9v-2.5h-5.3v2.8h-4.7V8.8H493.6z M488.8,33.9V13.5h-5.3v20.4H488.8z"/>
<path d="M154.1,87.4c-1.7-1.2-5.2-3.1-7.6-4.4l2.6-3.6c2.2,1.1,5.9,2.9,7.7,4L154.1,87.4z M147.1,102.1c2.8-4.1,5.4-8.4,7.8-12.8
	l3.5,3.3c-2.2,4.3-4.7,8.9-7.2,12.9L147.1,102.1z M155.9,76.3c-2.4-1.6-4.9-3.1-7.4-4.5l2.7-3.5c2.3,1.1,5.8,2.9,7.6,4.1L155.9,76.3
	z M173.9,84.3v5.1h8.3v16.3h-4.6v-1.5h-12.2v1.7H161V89.4h8.3v-5.1h-10.8v-4.6h10.9v-4.8c-2.6,0.4-5.4,0.7-7.9,0.9
	c-0.3-1.4-0.8-2.8-1.4-4.2c6.9-0.7,14.6-2,19.1-3.8l3.7,3.8c-2.9,1-5.8,1.8-8.9,2.4v5.6h10.4v4.6L173.9,84.3z M177.7,93.8h-12.2v6
	h12.2L177.7,93.8z"/>
<path d="M226.4,77c0,0,0,1.6,0,2.2c-0.4,16.7-0.7,22.6-2,24.5c-0.7,1.1-1.9,1.8-3.2,2c-1.7,0.2-3.4,0.3-5.1,0.2
	c-0.1-1.6-0.6-3.2-1.4-4.7c1.8,0.2,3.4,0.2,4.1,0.2c0.6,0,1.1-0.2,1.4-0.7c0.9-1.1,1.3-6.1,1.5-19.2H218
	c-0.5,10.9-2.4,19.3-9.3,24.8c-0.8-1.2-1.8-2.3-2.9-3.2c-5.9,0.6-11.8,1.2-16.1,1.6l-0.6-4.1c2.3-0.2,5.1-0.4,8.3-0.6v-2.5h-7.2V94
	h7.2v-1.6h-7V79.8h7v-1.6h-8v-3.5h8v-1.6c-2.4,0.2-4.7,0.3-6.9,0.3c-0.2-1.2-0.6-2.3-1.1-3.4c5.9-0.3,11.8-0.9,17.6-2l2.1,3.6
	c-2.2,0.4-4.7,0.8-7.3,1.1v2h7.8V77h3.8c0-2.7,0-5.5,0-8.5h4.6c0,3,0,5.8-0.1,8.5H226.4z M194.2,84.7h3.2v-1.8h-3.2V84.7z
	 M197.4,89.4v-1.9h-3.2v1.8L197.4,89.4z M201.8,99.5c2.3-0.2,4.7-0.4,7.1-0.6c3.2-4.4,4.2-10.2,4.4-17.5h-3.7v-3.2h-7.8v1.6h7.2
	v12.6h-7.2V94h7.4v3.4h-7.4L201.8,99.5z M205,84.7v-1.8h-3.2v1.8H205z M201.8,87.6v1.8h3.2v-1.8L201.8,87.6z"/>
<path d="M245,98h-8.3v3.6h-4.5V70.3H245V98z M236.7,74.6v7.2h3.8v-7.2L236.7,74.6z M240.5,93.7V86h-3.8v7.7L240.5,93.7z M264.8,84.1
	v3.5h3.9v4.2h-3.9v8.9c0,2.3-0.4,3.5-2,4.3s-3.8,0.8-6.8,0.8c-0.3-1.6-0.8-3.1-1.6-4.6c2,0.1,4.2,0.1,4.8,0.1s0.9-0.2,0.9-0.7v-8.8
	h-14.3v-4.2h14.3v-3.5h-14.4v-4.2h9.2v-3.6h-7.8v-4.2h7.8v-4.3h4.8v4.3h8.1v4.2h-8.1v3.6h9.3v4.2L264.8,84.1z M251.3,92.3
	c2,2,3.6,4.2,4.9,6.7l-4.2,2.4c-1.2-2.5-2.8-4.8-4.6-6.8L251.3,92.3z"/>
<path d="M283.4,76c-0.5,2.9-2.3,5.8-6.6,7.7c-0.8-1.1-1.7-2.2-2.8-3.1c3.2-1.1,4.5-2.8,5-4.6h-5.3v-3.8h5.6v-4h4.3v4h2.3v-4h4.2v3.9
	h3.5v-4h4.4v4h2.3v-4h4.3v4h5.5V76h-5.4v2c0,1.1,0.1,1.2,0.5,1.2h1.1c0.5,0,0.6-0.4,0.7-2.9c1.1,0.7,2.3,1.2,3.6,1.5
	c-0.4,3.8-1.4,4.9-3.9,4.9h-2.4c-3.4,0-4-1.2-4-4.7V76H298v6.4h-12V76H283.4z M274.2,83.9h35.5v8.8h-3.9v6.4c0,2.1-0.4,3.3-2,3.9
	s-3.7,0.7-6.6,0.7c-0.3-1.5-0.8-2.9-1.5-4.2c1.8,0.1,4,0.1,4.5,0s0.8-0.1,0.8-0.6v-4.3h-7.1v11.2h-4.7V94.7h-6.3v8.8h-4.7V92.7h-4
	L274.2,83.9z M278.7,87.8v3.1h10.5v-3.1L278.7,87.8z M290.1,76v2.8h3.5V76H290.1z M305,87.8h-11v3.1h11V87.8z"/>
<path d="M348.4,91.8c-1.6-1.7-3.4-3.3-5.3-4.7c-0.8,1.3-1.7,2.5-2.7,3.5c-1-0.8-2.1-1.5-3.2-2.1c4,5.2,9.4,9.1,15.6,11.4
	c-1.4,1.3-2.6,2.8-3.6,4.4c-5.1-2.4-9.6-6-13.2-10.3v11.9h-5.1V94.2c-3.6,4.2-8.1,7.7-13.1,10.1c-1-1.5-2.2-2.9-3.4-4.2
	c6.7-2.6,12.4-7.2,16.5-13.1v-9.4H316v-4.8h14.8v-5h5.2v5h15.4v4.8H336v9.1c0.2,0.3,0.4,0.6,0.6,0.9c2.6-2.3,4.3-6,5.1-9.8l4.7,0.9
	c-0.4,1.5-0.8,2.9-1.4,4.4c2.3,1.8,5.1,4,6.6,5.3L348.4,91.8z M327.4,78.8c-0.4,1.5-0.9,3-1.5,4.4c1.5,1.3,3,2.7,4,3.6l-3.3,3.4
	c-0.9-1-1.8-2-2.7-2.8c-1.2,2.1-2.8,4-4.7,5.6c-1.2-1.2-2.4-2.2-3.8-3.2c3.6-2.6,6.1-6.8,7.2-11.8L327.4,78.8z"/>
<path d="M376.2,93.1c-0.5,2.1-1.6,4.1-3,5.7c5.3,1.8,12,1.9,20.3,1.9c-1,1.4-1.8,3.1-2.1,4.8c-8.9-0.2-16.4-0.8-22.2-3.4
	c-3.4,1.9-7.2,3.1-11,3.8c-0.8-1.5-1.8-3-2.9-4.3c3.2-0.4,6.2-1.2,9.2-2.4c-1.6-1.3-3-2.8-4.2-4.6l3.7-1.5h-4.3V76.3h12v-2.4h-15.6
	v-4.3h35.7v4.3h-15v2.4h12.5v16.8H376.2z M364.2,82.9h7.5v-2.6h-7.5V82.9z M364.2,89.1h7.5c0-0.4,0-0.9,0-1.3v-1.3h-7.5L364.2,89.1z
	 M364.6,93.1c1.1,1.4,2.5,2.6,4,3.6c1.1-1,1.9-2.2,2.4-3.6H364.6z M384.4,86.5h-7.6v1.3c0,0.4,0,0.9,0,1.3h7.7L384.4,86.5z
	 M376.8,80.3v2.6h7.7v-2.6L376.8,80.3z"/>
<path d="M434.2,87.8c-5.8,12.4-19.1,16.7-34.7,18.1c-0.5-1.6-1.1-3.2-2-4.7c6.1-0.3,12.1-1.4,17.9-3.3c-1.1-1-2.3-2-3.5-2.8l4-2.3
	c1.3,0.9,2.8,2,4.1,3.1c2.6-1.4,4.9-3.3,6.8-5.6h-9.3c-3.6,2.5-7.6,4.6-11.8,6.1c-0.8-1.4-1.8-2.7-3-3.8c8.4-2.6,14-6.6,17.1-10.6
	l5.2,1.2c-0.8,0.9-1.6,1.8-2.5,2.7h7.4l0.9-0.2L434.2,87.8z M428.8,72.8c-5.3,9.4-16.8,14.4-28.6,16.6c-0.5-1.5-1.3-3-2.2-4.3
	c4.1-0.6,8.2-1.6,12.1-3.1c-1.1-1-2.2-1.9-3.3-2.7l3.6-2.2c1.4,0.9,2.8,1.9,4.1,3c2.4-1.3,4.7-2.9,6.7-4.8H411
	c-2.7,1.9-5.6,3.5-8.6,4.8c-0.9-1.3-2-2.5-3.3-3.5c6.6-2.4,11.4-5.9,14.1-9.1l5.2,1.2c-0.7,0.7-1.4,1.5-2.2,2.2h8.6l0.9-0.2
	L428.8,72.8z"/>
<path d="M461,94.2c4.3,2.9,9,5.1,13.9,6.6c-1.3,1.2-2.3,2.5-3.2,4c-4.9-2-9.5-4.7-13.6-8.1v9.2h-4.9v-9.2c-4,3.6-8.7,6.4-13.7,8.2
	c-0.9-1.4-2-2.8-3.2-4c5-1.3,9.7-3.6,13.9-6.7h-13.1v-4h16.1v-2h4.9v2h15.8v4L461,94.2z M446.4,88.7c0-0.6-0.1-1.3-0.2-1.9
	c-6,0.8-7.1,1.1-7.8,1.5c-0.2-0.7-0.8-2.6-1.3-3.7c0.9-0.2,1.6-0.9,2.6-2.2c0.4-0.5,1.2-1.5,2.1-2.9c-1.2,0.1-2.3,0.3-3.4,0.7
	c-0.4-1.2-0.8-2.4-1.3-3.6c0.6-0.1,1.1-0.7,1.7-1.6c1.4-2.3,2.5-4.7,3.3-7.3l3.8,1.3c-1.1,2.5-2.4,4.9-3.9,7.1l2-0.2
	c0.7-1.2,1.4-2.5,2-3.8l3.4,2c-2,3.5-4.4,6.7-7.1,9.7l3.2-0.3c-0.2-0.9-0.3-1.8-0.5-2.5l3-0.7c0.7,2.4,1.2,4.9,1.5,7.4L446.4,88.7z
	 M461.3,87.3h-11.5v-16h3.3c0.3-1.3,0.6-2.5,0.7-3.8l4.4,0.7l-1.3,3.1h4.4L461.3,87.3z M457,74.9h-3.1v2.7h3.1V74.9z M457,80.9h-3.1
	v2.8h3.1V80.9z M471,89c0-0.5-0.1-1.1-0.2-1.8c-6.1,0.7-7.3,1-7.9,1.3c-0.2-0.8-0.8-2.7-1.2-3.8c0.8-0.2,1.5-1,2.6-2.2
	c0.8-1,1.5-2,2.2-3c-2.6,0.4-3.4,0.6-3.8,0.9c-0.2-0.8-0.8-2.7-1.2-3.7c0.7-0.3,1.3-0.9,1.7-1.6c1.4-2.3,2.5-4.8,3.2-7.4L470,69
	c-1,2.6-2.3,5-3.8,7.3l2.6-0.2c0.7-1.1,1.3-2.3,1.8-3.5l3.4,2c-2,3.5-4.4,6.8-7.1,9.8l3.3-0.3c-0.2-0.8-0.4-1.7-0.6-2.4l3-0.8
	c0.7,2.4,1.3,4.8,1.7,7.2L471,89z"/>
<path d="M492.1,98.7c2.5,1.1,5.7,1.4,9.7,1.4c2.9,0,13.3,0,16.8-0.1c-0.8,1.5-1.4,3.1-1.8,4.8h-15c-7.9,0-13-1.1-16.4-6.3
	c-0.5,2.6-1.4,5.1-2.7,7.4c-0.8-1.2-1.9-2.2-3.1-3c2.6-4.7,2.8-11,2.6-16.6l4,0.2c0,1.5,0,3,0,4.5c0.4,1.4,1,2.7,1.8,3.9V83.7h-7.1
	v-4.3h6v-3.3h-5v-4.2h5v-4.2h4.3v4.2h4.2v4.2h-4.2v3.3h4.9v4.3h-3.8v4.1h3.8V92h-3.8L492.1,98.7z M497,73.3h-1.6v-4.1h13.2v3.1h6
	l0.7-0.1l2.5,0.8c-0.5,5.1-1.3,10.1-2.6,15c1.2,2.7,2.3,5.5,3.2,8.4l-3.8,1.4c-0.4-1.4-0.8-2.8-1.3-4.2c-0.8,2-1.8,3.9-3,5.6
	c-0.8-1.2-1.9-2.3-3-3.3c1.7-2.4,2.9-5.1,3.8-8c-1.2-2.8-2.6-5.8-3.9-8.3v9.7l1.3-0.4l0.7,3.4l-2,0.8v6.2h-3.8v-4.7
	c-2.7,1.1-5.4,2.1-7.7,2.9l-1-4c0.7-0.2,1.5-0.4,2.4-0.7L497,73.3z M503.3,73.3h-2.6v3.3h2.6V73.3z M503.3,80.3h-2.6v3.5h2.6V80.3z
	 M503.3,90.8v-3.3h-2.6v4.2L503.3,90.8z M510.3,78.2c0.7,1.3,1.5,2.7,2.2,4.2c0.4-2,0.7-4.1,1-6.2h-5.4v-2.8h-0.9v5.9L510.3,78.2z"
	/>
<path d="M536.3,79.1c0-2.4-1.5-3.8-4-3.8c-2.2,0.1-4.2,1.1-5.5,2.8l-3.6-3.3c2.4-2.9,6-4.6,9.8-4.7c5.5,0,9.5,2.9,9.5,8.4
	c0,6.7-8,7.4-7.4,13.7h-5.7C528.4,85.2,536.3,83.5,536.3,79.1z M528.4,100.1c0-2.1,1.7-3.9,3.9-3.9c2.1,0,3.9,1.7,3.9,3.9
	c0,2.1-1.7,3.9-3.9,3.9c-2.1,0.1-3.8-1.6-3.9-3.6C528.4,100.2,528.4,100.1,528.4,100.1z"/>
</svg>