<svg version="1.1"
	 xmlns="http://www.w3.org/2000/svg" viewBox="0 0 630 105" width="630" height="160">
<style type="text/css">
	.st0{fill:#FFF;}
</style>
<path d="M138.6,35.4c0.2,0.4,0.4,0.7,0.6,1c-1.5,1.6-1.4,4.1,0.2,5.7c0.1,0.1,0.3,0.2,0.4,0.3l3.8,2.7c1.6,1.1,3.8,0.9,5.2-0.5
	c0.4-0.4,0.8-0.9,1.1-1.3l0,0c0.7,0.7,1.7,1.1,2.7,1.1h0.5l4.2-0.5c0.7-0.1,1.4-0.4,2-0.9h0.5c0.3,0,0.7,0,1-0.1l1.4-0.4
	c0.3,1.9,1.9,3.4,3.9,3.4c1,0,1.8,0.1,2.6,0.1c1.1,0,2.2,0,3.2-0.2c2.2-0.2,4.2-1.2,5.6-2.8c2.1-2.2,3-5.8,3.8-15.5l0,0
	c0.4,0.3,0.8,0.5,1.2,0.7v13.7c0,2.2,1.8,4,4,4h4.6c2.2,0,4-1.8,4-4v-1.8c0.6,0.3,1.3,0.5,2,0.5c0.2,0.6,0.4,1.3,0.5,2
	c0.3,2,2,3.5,4,3.4c2.7,0,5.5-0.2,7.9-1.5c1.7-1,3-2.6,3.5-4.5c1,0.6,2.2,0.7,3.3,0.3l4.7-1.6c1.8-0.6,2.9-2.5,2.6-4.4
	c-0.1-0.7-0.2-1.4-0.4-2.1c0.6,0.4,1.3,0.6,2,0.6v6.8c0,2.2,1.8,4,4,4h4.7c0.9,0,1.7-0.3,2.4-0.8c0.4,1.9,2,3.2,3.9,3.2h4.7
	c1.5,0,2.9-0.8,3.6-2.2c3.1,0,5.6,0,7.9-1c4.4-1.9,4.4-6.2,4.4-7.6v-2.4c1.9-0.1,3.5-1.5,3.8-3.4c0.7,0.5,1.6,1.3,2.2,1.8
	c-0.9,0.5-1.9,0.9-2.8,1.3c-1.3,0.5-2.2,1.6-2.5,2.9c-0.3,1.3,0.2,2.7,1.1,3.7c1,1.1,2,2.2,2.9,3.5c1.1,1.6,3.2,2.3,5,1.4
	c2.6-1.2,5.1-2.7,7.5-4.5v2.4c0,2.2,1.8,4,4,4h5.1c2.2,0,4-1.8,4-4v-2.5c2.3,1.8,4.8,3.3,7.5,4.6c0.5,0.3,1.1,0.4,1.7,0.4
	c1.4,0,2.7-0.7,3.4-1.9c0.8-1.3,1.7-2.4,2.8-3.5c1.7-1.4,1.9-4,0.4-5.6c-0.4-0.5-1-0.9-1.6-1.1c-1.1-0.4-2.1-0.9-3.1-1.4l0.1-0.1
	l3.4-3.4c1.6-1.6,1.6-4.1,0-5.7c0,0-0.1-0.1-0.1-0.1c-1.1-1.1-2.9-2.4-4.6-3.8l0,0h1.5c2.2,0,4-1.8,4-4V8.9c0-2.2-1.8-4-4-4H291v-1
	c0-2.2-1.8-4-4-4h-5c-2.2,0-4,1.8-4,4v1h-10.9c-1,0-2,0.4-2.8,1.1c-0.8-1.1-2-1.7-3.3-1.7h-1.4l0,0c0-2.2-1.8-4-4-4h-4.3
	c-0.4,0-0.8,0.1-1.2,0.2c-0.3-0.1-0.7-0.1-1-0.1h-4.4c-0.6,0-1.2,0.1-1.8,0.4c-0.5-0.2-1.1-0.4-1.6-0.4H237l0,0
	c-0.4,0-0.7,0.1-1.1,0.1c-0.4-0.1-0.8-0.2-1.2-0.2h-4.3c-2.2,0-4,1.8-4,4h-1.6c-2,0-3.6,1.5-3.9,3.4l-3.4-0.6
	c-0.2,0-0.5-0.1-0.7-0.1c-0.3,0-0.6,0-0.8,0.1l-0.4,0.1h-8.1c0.1-0.4,0.2-0.7,0.3-1.1c0.6-2.1-0.7-4.3-2.9-4.9c0,0-0.1,0-0.1,0
	L200,0.1c-0.3-0.1-0.6-0.1-0.9-0.1c-1.2,0-2.4,0.6-3.1,1.5l-4.4-1.3c-0.4-0.1-0.8-0.2-1.2-0.2c-1.7,0-3.2,1.1-3.8,2.7
	c-1.8,5.1-4.6,9.8-8.3,13.8l-0.1,0.1c-0.5-1.3-1.6-2.3-3-2.6c0.2-0.9,0.4-1.7,0.5-2.6c0.1-0.3,0.1-0.6,0.1-0.9c0-2.2-1.8-4-4-4h-4.6
	c0-0.1,0.1-0.2,0.1-0.3c0.7-2.1-0.5-4.4-2.6-5c-0.1,0-0.2-0.1-0.3-0.1l-5-1.1c-0.3-0.1-0.6-0.1-0.9-0.1c-1.8,0-3.3,1.2-3.8,2.9
	c-0.5-0.6-0.9-1.1-1.4-1.6c-0.8-0.8-1.8-1.3-2.9-1.2c-0.5,0-1,0.1-1.5,0.3l-4.4,1.7c-1.2,0.5-2.1,1.5-2.4,2.8
	c-0.1,0.6-0.1,1.2,0,1.9h-0.6c-2.2,0-4,1.8-4,4v4.4c0,2.2,1.8,4,4,4h5.2c-2.5,2.9-5.5,5.4-8.9,7.1c-2,1-2.7,3.4-1.7,5.4
	c0.1,0.2,0.2,0.4,0.4,0.6C137.2,33,137.9,34.2,138.6,35.4z M265.1,17.1c0.6,0.4,1.3,0.5,2,0.5h1c-0.8,1.6-2,3.1-3.4,4.3v-2
	c0-0.4-0.1-0.9-0.2-1.3C264.8,18.2,265,17.7,265.1,17.1z M221.3,23.9v1.7c-0.1-0.4-0.3-0.9-0.5-1.3C221,24.2,221.1,24,221.3,23.9
	L221.3,23.9z"/>
<path d="M316.2,20c1.5,0,3-0.4,4.2-1.3c1.2,0.8,2.6,1.3,4.1,1.3c1.8,0,3.5-0.6,4.9-1.8c0.7,0.6,1.6,0.9,2.5,0.9h1.3
	c-1.4,1.6-2.9,3.1-4.7,4.3c-1.8,1.2-2.3,3.7-1.1,5.5c0,0.1,0.1,0.1,0.1,0.2c0.7,1.1,1.2,2.3,1.7,3.6c0.4,1.3,1.4,2.3,2.6,2.7
	c0.4,0.1,0.8,0.2,1.2,0.2v6.4c0,2.2,1.8,4,4,4h5c1,0,2-0.4,2.8-1.1c0.6,0.5,1.3,0.9,2.1,1c0.2,0,0.4,0,0.6,0c1,0,1.9-0.4,2.6-1
	c0.7-0.6,1.3-1.2,1.9-1.8c0.6,1.5,2,2.6,3.6,2.6c0.8,0,1.8,0.1,2.8,0.1c1.3,0,2.7-0.1,4-0.3c2.5-0.4,4.8-1.8,6.2-4
	c1.5-2.3,2.2-5.6,2.6-17.4c0.7,0.5,1.6,0.8,2.4,0.8h1V42c0,2.2,1.8,4,4,4h4.9c1.2,0,2.3-0.5,3.1-1.4h10.8c0.8,0.9,1.8,1.4,3,1.4h5.1
	c2.2,0,4-1.8,4-4V24.8h0.6c0.5,0,1-0.1,1.4-0.3v0.3c0,2.2,1.8,4,4,4h3.2c-1.9,1.4-3.9,2.6-6.1,3.5c-1.2,0.5-2.1,1.7-2.4,3
	c-0.2,1.4,0.3,2.8,1.3,3.7c1.1,1.1,2,2.2,2.9,3.4c0.7,1.1,2,1.8,3.3,1.8c0.6,0,1.3-0.2,1.9-0.5c2.6-1.4,5.1-3,7.4-4.9V42
	c0,2.2,1.8,4,4,4h5.2c2.2,0,4-1.8,4-4v-3.2c2.3,1.9,4.8,3.6,7.4,5c0.6,0.3,1.2,0.5,1.8,0.5c1.4,0,2.6-0.7,3.4-1.8
	c0.5-0.8,1.1-1.5,1.6-2.2c0.7,0.8,1.3,1.5,1.8,2.4c1.1,1.6,3.2,2.3,5,1.4c2.6-1.2,5.1-2.7,7.4-4.5V42c0,2.2,1.8,4,4,4h5.1
	c2.2,0,4-1.8,4-4v-2.5c2.3,1.8,4.9,3.3,7.5,4.6c0.5,0.3,1.1,0.4,1.7,0.4c1.4,0,2.7-0.7,3.4-1.9c0.8-1.3,1.7-2.4,2.8-3.5
	c1.1-0.9,1.6-2.4,1.3-3.8c-0.3-1.4-1.2-2.5-2.6-3c-1.1-0.4-2.1-0.9-3.1-1.4l0.1-0.1l3.4-3.4c1.6-1.6,1.6-4.1,0-5.7
	c0,0-0.1-0.1-0.1-0.1c-1.1-1-2.9-2.4-4.6-3.8l0,0h1.5c0.6,0,1.2-0.2,1.8-0.5l0.5,1c1,1.8,3.2,2.5,5.1,1.7c1.1-0.5,2.1-1.1,3-1.9
	l0.1,0.1c0.7,1.3,2,2.1,3.5,2.1c0.6,0,1.2-0.2,1.7-0.5c4.8-2,7.9-6.7,8-11.9c0-4.7-3.3-8.4-7.6-8.4c-1.5,0-3,0.4-4.2,1.3
	c-1.2-0.8-2.6-1.3-4.1-1.3c-3.3-0.1-6.2,2.2-7,5.4c-0.3-0.1-0.6-0.1-0.9-0.1h-11.4v-1c0-2.2-1.8-4-4-4h-5.1c-2.2,0-4,1.8-4,4v1
	h-10.8c-2.2,0-4,1.8-4,4v4.8c0,2.2,1.8,4,4,4h1c-0.7,1.5-1.8,2.9-3,4V20c0-1.9-1.3-3.5-3.1-3.9c0.1-0.4,0.2-0.9,0.2-1.3V10
	c0-2.2-1.8-4-4-4h-8.8V3.9c0-2.2-1.8-4-4-4h-5.2c-2.2,0-4,1.8-4,4V6h-8.4c-2.2,0-4,1.8-4,4v4.8c0,0.4,0.1,0.9,0.2,1.3
	c-0.2,0-0.5,0.1-0.7,0.2c-0.1-1.4-0.9-2.7-2.2-3.4c0.2-0.5,0.3-1,0.3-1.4V7.2c0-2.2-1.8-4-4-4h-10.4c-0.3-0.6-0.6-1.3-1-1.9
	c-0.7-1.2-2-1.9-3.4-1.9c-0.2,0-0.4,0-0.6,0.1l-5,0.8c-1.3,0.2-2.4,1-2.9,2.2c-0.1,0.2-0.2,0.5-0.3,0.7h-8.6c-2.2,0-4,1.8-4,4v4.3
	c0,0.4,0.1,0.9,0.2,1.3c-0.2,0.1-0.4,0.2-0.6,0.4c0-1.2,0-2.4,0.1-3.7V9.4c0-0.6,0-2.3,0-2.3c0-2.2-1.7-4-3.9-4.1c0,0-0.1,0-0.1,0
	h-20.3c-0.9,0-1.9,0.3-2.6,0.9c-0.7-1-1.4-2-2-2.7c-0.8-1-1.9-1.5-3.2-1.5c-0.7,0-1.3,0.2-1.9,0.5l-3.8,2.1c-1,0.5-1.7,1.5-2,2.6
	c0,0.2-0.1,0.5-0.1,0.7c0-0.7-0.1-1.4-0.5-2L330,1.4c-0.7-1.3-2-2.1-3.5-2.1c-0.6,0-1.2,0.1-1.7,0.4c-1.1,0.5-2.1,1.1-3,1.9
	l-0.1-0.1c-0.7-1.3-2.1-2.1-3.5-2.1c-0.6,0-1.2,0.1-1.7,0.4c-4.8,2.1-7.9,6.7-7.9,11.9C308.6,16.3,311.9,20,316.2,20z M451.9,28.9
	c0.8,0,1.5-0.2,2.2-0.7c0.3,0.3,0.6,0.6,0.9,0.9c0.9,0.7,1.8,1.4,2.6,2.1c-0.9,0.5-1.9,0.9-2.8,1.3c-0.1,0-0.2-0.1-0.2-0.1
	c-2.2-1-4.2-2.2-6.1-3.5L451.9,28.9z"/>
<path d="M544.5,66.2h-9.9c-2.2,0-4,1.8-4,4v2.9c-1.8-3.6-5.8-6.9-14.3-6.9h-9.9c-2.2,0-4,1.8-4,4v18.9L495.9,69
	c-0.5-1.7-2.1-2.8-3.8-2.8H485c-1.7,0-3.3,1.1-3.8,2.8l-8.4,26.4c0.5-4.3,0.7-10.8,1-20.8c0-0.7,0-2,0-2.4c0-2.2-1.8-4-4-4h-6l0-0.2
	c0.6-2.1-0.7-4.3-2.9-4.9c0,0-0.1,0-0.1,0l-4.6-1.1c-0.3-0.1-0.6-0.1-0.9-0.1c-1.8,0-3.4,1.2-3.9,3c-0.3,1.2-0.6,2.4-1,3.5
	c-0.2,0-0.4,0-0.6,0h-0.6l0.2-0.5c0.7-2.1-0.4-4.4-2.5-5.1c-0.2-0.1-0.5-0.1-0.7-0.2l-5.3-0.7c-0.2,0-0.4,0-0.5,0
	c-2.1,0-3.8,1.6-4,3.7c-0.1,0.8-0.2,1.8-0.4,2.9h-1.4c-1.3,0-2.5,0.6-3.3,1.7v-2.6c0-2.2-1.8-4-4-4h-16.8c-1.4,0-2.7,0.7-3.4,1.9
	h-0.2c-0.3-2-2-3.5-4-3.5h-4.5c-2,0-3.7,1.5-4,3.5h-2c-1.1,0-2.2,0.5-3,1.3c-0.7-1.3-2-2.2-3.5-2.2h-6.1c-0.5-1.6-2.1-2.8-3.8-2.8
	h-4.8c-1.7,0-3.3,1.1-3.8,2.8H362c-0.5-1.7-2.1-2.8-3.8-2.8h-4.4c-2.2,0-4,1.8-4,4v4.1c-0.5,0.1-1,0.2-1.4,0.5
	c0.2-1.3-0.3-2.6-1.2-3.5l-3.8-3.5c-0.7-0.7-1.7-1.1-2.7-1.1c-0.6,0-1.2,0.1-1.7,0.4c-3.7,1.5-7.5,2.5-11.4,3.1
	c-0.2,0-0.4,0.1-0.5,0.1c-0.2,0-0.3,0-0.5,0h-3.7c-0.3-0.7-0.6-1.4-0.9-1.9c-0.7-1.4-2.1-2.3-3.6-2.3c-0.3,0-0.6,0-0.9,0.1l-4.3,1
	c-1.1,0.3-2.1,1-2.6,2.1c-0.2,0.3-0.3,0.7-0.4,1h-1.8c-2.2,0-4,1.8-4,4v3.9c0,0.8,0.2,1.5,0.6,2.2c-0.4,0.4-0.7,0.8-0.9,1.3
	c-0.3-0.1-0.7-0.1-1-0.1h-0.9v-10c0-2.2-1.8-4-4-4h-27.1c-2.2,0-4,1.8-4,4v10h-1c-1.2,0-2.2,0.5-3,1.4v-1.2c0-2-1.5-3.7-3.4-4
	c2-1,2.7-3.4,1.7-5.4c-0.1-0.3-0.3-0.5-0.5-0.8l-3.5-4c-0.8-0.9-1.8-1.4-3-1.4c-0.3,0-0.7,0-1,0.1c-5.6,1.5-15.9,2.7-26.8,3.1
	c-2.2,0.1-3.9,1.9-3.8,4.1c-0.3-0.2-0.7-0.4-1.1-0.5l-3.3-0.9c-0.3-0.1-0.7-0.1-1.1-0.1c-0.4,0-0.8,0.1-1.2,0.2h-0.1h-2l0.1-0.5
	c0.4-2.2-1.1-4.2-3.3-4.6l-4.6-0.8c-0.2,0-0.4-0.1-0.7-0.1c-1.2,0-2.4,0.6-3.2,1.5h-19.9c-1.2,0-2.4,0.6-3.1,1.5l-2.1-1.4
	c-0.7-0.5-1.4-0.7-2.2-0.7c-0.4,0-0.9,0.1-1.3,0.2h-0.1h-9.8c-0.8,0-1.5,0.2-2.1,0.6c-0.2,0-0.4-0.1-0.7,0c-0.5,0-1,0.1-1.5,0.3
	c-0.7-1.2-2-2-3.4-2h-3.9c-0.6,0-1.2,0.1-1.7,0.4c-0.5-0.3-1.1-0.4-1.7-0.4h-4.1c-2.2,0-4,1.8-4,4v3.7c-1,0-2,0.4-2.7,1.1
	c-0.2-0.1-0.4-0.2-0.7-0.3v-2c0-2.2-1.8-4-4-4h-9.7c-0.6-1.5-2.1-2.5-3.7-2.5h-4.8c-2.2,0-4,1.8-4,4v3.6h-8.6c-2.2,0-4,1.8-4,4v9.3
	c0,1.1,0,2.3-0.1,3.5v-2.4c0-2.1-1.6-3.9-3.8-4v-2.3c0-0.3,0-0.5-0.1-0.8c2.1-0.2,3.6-1.9,3.6-4v-4c0-2.2-1.8-4-4-4h-6.9l0,0
	c-0.5-1-1.4-1.7-2.5-1.9L80,61.7c-0.3-0.1-0.7-0.1-1-0.1c-1.7,0-3.2,1.1-3.8,2.7c-0.1,0.2-0.1,0.4-0.2,0.6h-4.3
	c-0.5-0.9-1.4-1.6-2.5-1.9l-4.6-1.2c-1.9-0.5-4,0.5-4.7,2.3c-1.2,2.9-3,5.5-5.3,7.6c-1.7,1.4-1.9,3.9-0.5,5.6c0.3,0.4,0.8,0.8,1.2,1
	c0.9,0.5,1.7,1,2.5,1.6c-2.1,0.2-3.6,1.9-3.6,4V88c0,1.2,0.6,2.4,1.5,3.2v3.4c0,2.2,1.8,4,4,4h2.1c0.2,0.3,0.5,0.6,0.8,0.8
	c2,1.4,3.7,3.1,5.1,5c0.6,1,1.6,1.6,2.7,1.8c0.2,0,0.4,0.1,0.7,0.1c0.9,0,1.8-0.3,2.5-0.9l0.3-0.3c0.5,1.7,2.1,2.8,3.8,2.8
	c3.5,0,6.2-0.1,8.6-1c4.7-2,4.7-6.3,4.7-8v-0.4H93c1.3,0,2.5-0.6,3.3-1.7c-0.3,0.7-0.7,1.4-1.1,2c-1.2,1.9-0.7,4.3,1.2,5.5
	c0.2,0.1,0.4,0.2,0.6,0.3c1,0.5,1.9,1.1,2.7,1.8c0.7,0.7,1.7,1.1,2.8,1.1c0.1,0,0.3,0,0.4,0c0.7-0.1,1.4-0.3,2-0.8
	c0.2,0,0.5,0.1,0.7,0.1h30c0.9,0,1.9-0.3,2.6-0.9c0.7,1.2,2,2,3.5,2c2.5,0,5.1-0.1,7.3-1.4c1.3,1.5,3.6,1.8,5.2,0.7
	c1.2-0.8,2.2-1.7,3.2-2.6c0.3,0.3,0.6,0.5,1,0.7c0.7,0.4,1.3,0.9,1.9,1.4c0.8,0.8,1.8,1.3,2.9,1.3h0.2c1.2,0,2.3-0.6,3-1.5
	c0.2-0.2,0.4-0.5,0.5-0.7c2.2,1.1,4.6,1.6,7,1.5h3.8c2,0,3.8-1.5,4-3.5v-0.2c0.6,0.4,1.3,0.6,2,0.6h3.9c0.7,0,1.4-0.2,1.9-0.5
	c0.1,0.2,0.1,0.3,0.1,0.5c0.4,1.9,2,3.3,3.9,3.2c2.2,0.1,4.5-0.1,6.6-0.7c0.8,0.8,1.8,1.3,2.9,1.3c1,0,1.9-0.4,2.6-1
	c1.9-1.6,3.6-3.4,5-5.5c1.4,1.9,2.9,3.6,4.6,5.2c0.7,0.7,1.7,1,2.7,1c0.3,0,0.5,0,0.8-0.1c1.2-0.3,2.3-1.1,2.8-2.2
	c0.5-0.8,1.1-1.6,1.9-2.1c1.8-1.3,2.1-3.8,0.8-5.6c-0.2-0.3-0.4-0.5-0.7-0.7c-2.9-2.3-5-5.4-6.1-9h0.3c0.8,0,1.7-0.3,2.4-0.8v4.2
	c0,2.2,1.8,4,4,4h5.7c-0.7,0.3-1.3,0.9-1.7,1.5c-0.7,1.3-0.7,2.8,0,4.1c0.7,1.1,1.2,2.3,1.5,3.6c0.4,1.8,2,3.2,3.9,3.2h1.4
	c3.8,0,6.8-0.2,9.1-1.1h0.1c4.6-1.9,5.1-5.8,5.1-8.7v-2.7h12.1c0.5,0,1.1-0.1,1.6-0.3l-0.1,0.1c-0.7,0.8-1,1.9-0.9,2.9l0.4,4.2
	c0.2,2.1,1.9,3.7,4,3.7c0.1,0,0.3,0,0.5,0c2.4-0.3,5.3-0.6,8.7-0.9c0.5,1.7,2.1,2.9,3.9,2.9h4.6c0.6,0,1.2-0.1,1.8-0.4
	c0.5,0.2,1,0.3,1.5,0.3c0.5,0,1-0.1,1.5-0.3c1.8-0.7,3.5-1.5,5.1-2.5c1.9,1.1,3.9,1.9,6,2.5c0.4,0.1,0.8,0.2,1.1,0.2
	c1.5,0,2.9-0.8,3.5-2.2c0.6-1,1.3-1.9,2.1-2.8c0.2-0.2,0.4-0.4,0.5-0.7c0.2,0.2,0.4,0.3,0.6,0.5c0.4,0.3,0.9,0.6,1.4,0.8
	c0,0.2,0.1,0.3,0.1,0.4c0.3,2,2,3.5,4,3.4c2.2,0,4.7,0,6.9-1.2h0.1c1-0.5,1.8-1.3,2.4-2.3c0.2,0.2,0.4,0.3,0.6,0.4
	c0.9,0.6,1.8,1.2,2.6,2c0.8,0.8,1.9,1.3,3,1.3h0.3c1.2-0.1,2.3-0.7,3-1.7c0.3-0.4,0.5-0.8,0.8-1.3c0.3,1.9,2,3.3,3.9,3.3h4.7
	c2.2,0,4-1.8,4-4v-16c0.2,0,0.4,0,0.6-0.1c0.4,0.3,0.8,0.5,1.2,0.7l2.5,0.8v14.7c0,2.2,1.8,4,4,4h4.4c0.9,0,1.7-0.3,2.4-0.8
	c0.7,0.6,1.6,0.9,2.5,0.9h4.5c2.2,0,4-1.8,4-4v-1.8c0.3,0.7,0.5,1.5,0.6,2.2c0.3,2,2,3.5,4,3.4c3.2,0,5.7,0,8-1.1
	c4.2-1.9,4.2-6,4.2-7.5l0,0c0.8,0.8,1.8,1.2,2.9,1.2h3.1v3.3c0,2.2,1.8,4,4,4h4.5c1.7,0,3.3-1.1,3.8-2.8c0.5,1.7,2.1,2.8,3.8,2.8
	h4.4c0.2,0,0.4,0,0.6,0c0.2,0.1,0.4,0.1,0.6,0.2c0.2,0,0.5,0.1,0.7,0.1c0.9,0,1.7-0.3,2.4-0.8c0.9-0.6,1.7-1.3,2.5-2.1
	c0.9,0.7,1.8,1.4,2.7,1.9c0.6,0.4,1.3,0.6,2,0.6c1.4,0,2.7-0.7,3.4-1.9c0.3-0.5,0.7-1,1-1.4c0.6,1.5,2.1,2.4,3.7,2.4h4.4
	c1.8,0,3.4-1.2,3.9-3h7c1,0,2-0.4,2.8-1.1c0.1,0.4,0.2,0.8,0.2,1.2c0.1,2.1,1.8,3.7,3.9,3.8c1.4,0,2.5,0.1,3.4,0.1
	c1.2,0,2.4,0,3.6-0.2h0.2c2.6-0.3,4.9-1.7,6.4-3.8c0.5-0.7,0.9-1.4,1.2-2.2c0.1,0.5,0.3,0.9,0.6,1.3c0.8,1,2,1.6,3.2,1.6h6.1
	c1.8,0,3.4-1.2,3.9-3l1.3-4.8h3.7l1.3,4.8c0.5,1.8,2,3,3.9,3h6.3c0.8,0,1.6-0.3,2.3-0.7c0.7,0.5,1.5,0.7,2.3,0.7h6c2.2,0,4-1.8,4-4
	v-6.8l0,0c6.7,0,11.8-2.8,14.2-7.4v14.1c0,2.2,1.8,4,4,4h6c2.2,0,4-1.8,4-4v-6.7l0,0c9.5,0,15.7-5.5,15.7-14
	C560.3,75.6,558.8,66.2,544.5,66.2z M97,94.8c0-0.1,0-0.2,0-0.3v-3.7c0.5-0.5,0.8-1.1,1-1.8C97.9,91,97.5,93,97,94.8z M139.6,81.9
	l-0.8,0.2c-0.1-0.2-0.1-0.4-0.2-0.7C138.9,81.7,139.2,81.8,139.6,81.9L139.6,81.9z M140.5,95.7L140.5,95.7c-0.6,0-1.3,0.2-1.8,0.4
	c-0.6-0.6-1.3-1.1-2.2-1.3v-5.7l0,0l0.6,2.4c0.3,1.1,1,2,2,2.6c0.5,0.2,0.9,0.4,1.5,0.5L140.5,95.7z M179.9,77.6
	c-0.2-0.1-0.4-0.2-0.6-0.3c-0.1-0.6-0.4-1.2-0.8-1.6l-0.3-0.3c0.4-0.5,0.7-1,1-1.5c0.2,0.3,0.4,0.5,0.7,0.7L179.9,77.6z M222.3,83.3
	c0.2-1,0.5-2,0.8-3.1V82c0,0.3,0,0.6,0.1,0.9C222.8,83,222.5,83.1,222.3,83.3L222.3,83.3z M265.7,93.8c-0.4,0-0.8,0.2-1.2,0.3
	c0.7-0.7,1-1.7,1-2.7V89h0.2V93.8z M304.4,94.4c-0.4,0.4-0.6,0.8-0.8,1.3l-0.2-0.1c0.6-1,1.1-2,1.5-3c0.2,0.2,0.3,0.4,0.5,0.6
	C305.1,93.6,304.8,94,304.4,94.4L304.4,94.4z M346.3,73.7c0,0.5-0.1,1.1-0.1,1.7c-0.3-0.1-0.5-0.1-0.8-0.1h-4.9
	c1.8-0.5,3.6-1.1,5.4-1.7c0.2-0.1,0.3-0.2,0.5-0.2C346.4,73.4,346.3,73.5,346.3,73.7L346.3,73.7z M430.5,95.8
	c-0.6-0.3-1.1-0.7-1.6-1.1c0.6-1.5,1.2-3,1.6-4.5V95.8z M455.2,94.8c-0.5,0-1,0.1-1.4,0.3v-2.9C454.4,93.2,454.9,94.2,455.2,94.8
	L455.2,94.8z M518.1,80.6c-0.5,0.2-1.1,0.4-1.7,0.3V79c0.6,0,1.2,0.1,1.8,0.2c0,0.1,0,0.3,0,0.4C518.2,80,518.2,80.3,518.1,80.6
	L518.1,80.6z M546.3,80.6c-0.5,0.2-1.1,0.4-1.7,0.3V79c0.6,0,1.2,0.1,1.8,0.2c0,0.1,0,0.3,0,0.4C546.4,80,546.4,80.3,546.3,80.6
	L546.3,80.6z"/>
<path d="M575.9,91.9c0.3-0.5,0.5-1.1,0.5-1.7l1.1-13.9c0-0.1,0-0.1,0-0.2l0.2-6.1c0.1-2.2-1.7-4.1-3.9-4.1c0,0-0.1,0-0.1,0h-6.8
	c-2.2,0-4,1.8-4,4c0,0,0,0.1,0,0.1l0.2,6.1c0,0.1,0,0.1,0,0.2l1.1,13.9c0,0.6,0.2,1.1,0.5,1.7c-1.3,1.4-2,3.3-2,5.3
	c-0.1,4.1,3.2,7.5,7.3,7.6c0.1,0,0.2,0,0.3,0c4.1,0,7.5-3.3,7.6-7.4c0-0.1,0-0.1,0-0.2C577.9,95.2,577.2,93.3,575.9,91.9z"/>
<path class="st0" d="M177.3,25.9c-0.7,8.2-1.4,11.8-2.7,13.1c-0.8,0.9-2,1.5-3.3,1.5c-1.7,0.2-3.4,0.2-5.2,0.1
	c-0.1-1.5-0.6-3-1.4-4.4c1.4,0.1,2.9,0.2,4.3,0.2c0.5,0.1,1.1-0.1,1.5-0.5c0.7-0.7,1.3-2.9,1.8-7.8h-23.8c-0.6,0.5-1.1,0.9-1.7,1.3
	l3.5,1.2c-0.8,3.5-2,7.3-4.4,9.8l-3.8-2.7c2-2.2,3.4-4.9,4-7.9c-1.3,0.9-2.6,1.7-4,2.5c-0.7-1.5-1.6-2.9-2.6-4.2
	c6.3-3.3,11.4-8.4,14.7-14.7h-12.7V9.3h8c-1-1.7-2.2-3.4-3.5-4.9l4.4-1.7c1.5,1.6,2.9,3.4,4,5.3l-3.2,1.3h5.1
	c0.9-2.1,1.7-4.4,2.2-6.6l5,1.1c-0.6,1.8-1.2,3.7-1.9,5.5h10.3c-0.5,2.4-1.1,5.2-1.6,7.5h4.2c-0.4,2.4-1,5.1-1.6,7.3h4.5L177.3,25.9
	z M155.6,30.3c0.7,2.7,1.1,5.5,1.2,8.3l-4.2,0.5c0-2.8-0.3-5.6-0.9-8.3L155.6,30.3z M155.3,20.9c-0.8,1.1-1.6,2.2-2.5,3.2h15.8
	c0.2-1,0.5-2,0.7-3.2H155.3z M161.5,29.6c1,2.3,1.7,4.7,2.2,7.2l-3.9,1c-0.4-2.5-1.1-5-2-7.3L161.5,29.6z M159.6,13.6
	c-0.5,1.1-1.1,2.1-1.7,3.1h7.9c0.2-0.9,0.5-2,0.7-3.1L159.6,13.6z M166.4,35.2c-0.6-1.9-1.4-3.8-2.4-5.5l3.4-1.1
	c1.1,1.7,2,3.5,2.6,5.4L166.4,35.2z"/>
<path class="st0" d="M195,4.2c-1.1,2.9-2.4,5.7-3.9,8.4v28h-4.6V19.8c-0.8,1.2-1.8,2.3-2.7,3.3c-0.7-1.8-1.6-3.4-2.6-5.1
	c4.1-4.4,7.3-9.6,9.3-15.2L195,4.2z M209.4,14.4v20.9c0,2.3-0.4,3.7-1.9,4.5s-3.4,1-6,1c-0.3-1.7-0.9-3.4-1.7-4.9c1.7,0,3.4,0,4,0
	s0.7-0.2,0.7-0.7V14.4h-4.7c-1.1,2.2-2.3,4.3-3.8,6.2c-1.2-1.2-2.5-2.2-3.9-3.2c3.1-3.5,5.6-9.1,6.9-14.7l4.7,1.1
	c-0.5,2.1-1.2,4.1-1.9,6.1h14l0.8-0.2l3.4,0.6c-0.5,3.3-1.2,7.1-1.8,9.5l-4.1-0.7c0.2-1.3,0.4-3,0.6-4.8L209.4,14.4z M202.7,21.8
	c-1,4.8-2.9,9.4-5.5,13.6c-1.3-1-2.7-1.8-4.1-2.6c2.3-2.9,4-7.5,5-12L202.7,21.8z M215.2,20.4c2.1,4.2,3.6,8.7,4.4,13.3l-4.7,1.6
	c-0.8-4.6-2.1-9.1-4.1-13.4L215.2,20.4z"/>
<path class="st0" d="M234.4,10.9c-0.5,2.9-2.3,5.8-6.6,7.7c-0.8-1.1-1.7-2.2-2.8-3.1c3.2-1.1,4.5-2.8,5-4.6h-5.3V7.1h5.6v-4h4.3v4
	h2.3v-4h4.2v4h3.5v-4h4.4v4h2.3v-4h4.3v4h5.3v3.8h-5.4v2c0,1.1,0.1,1.2,0.5,1.2h1.1c0.5,0,0.6-0.4,0.7-2.9c1.1,0.7,2.3,1.2,3.6,1.5
	c-0.4,3.8-1.4,4.9-3.9,4.9h-2.4c-3.3,0-4-1.1-4-4.7v-2H249v6.4h-12v-6.4H234.4z M225.3,18.8h35.5v8.8h-3.9V34c0,2.1-0.5,3.3-2,3.9
	s-3.7,0.7-6.6,0.7c-0.3-1.5-0.8-2.9-1.5-4.2c1.8,0.1,3.9,0.1,4.5,0s0.8-0.1,0.8-0.6v-4.3H245v11.2h-4.7V29.6H234v8.8h-4.7V27.6h-4
	L225.3,18.8z M229.8,22.7v3.1h10.5v-3.1H229.8z M241.1,10.9v2.8h3.5v-2.8L241.1,10.9z M256,22.7h-11v3.1h11V22.7z"/>
<path class="st0" d="M299.4,26.7c-1.7-1.7-3.4-3.2-5.3-4.7c-0.8,1.3-1.7,2.5-2.7,3.5c-1-0.8-2.1-1.5-3.2-2.1
	c4,5.1,9.4,9.1,15.6,11.4c-1.4,1.3-2.6,2.8-3.6,4.4c-5.1-2.4-9.6-6-13.2-10.3v11.8H282V29.1c-3.6,4.2-8.1,7.7-13.1,10.1
	c-1-1.5-2.2-2.9-3.5-4.2c6.7-2.6,12.5-7.2,16.6-13.1v-9.4h-14.9V7.7H282v-5h5.1v5h15.4v4.8H287v9.1c0.2,0.3,0.4,0.6,0.6,0.9
	c2.6-2.3,4.3-5.9,5.1-9.8l4.7,0.9c-0.3,1.5-0.8,3-1.3,4.4c2.3,1.8,5.1,4,6.6,5.3L299.4,26.7z M278.4,13.7c-0.4,1.5-0.9,2.9-1.4,4.3
	c1.5,1.3,3,2.6,4,3.6l-3.3,3.4c-0.9-1-1.8-2-2.7-2.9c-1.2,2.1-2.8,4-4.7,5.6c-1.2-1.2-2.4-2.2-3.8-3.2c3.6-2.6,6.1-6.9,7.2-11.8
	L278.4,13.7z"/>
<path class="st0" d="M315.6,9c0.3-0.1,0.6-0.2,0.9-0.2c1.6,0,2.8,1.2,2.9,2.8c0,0.1,0,0.2,0,0.2c0,1.7-1.3,3-3,3c-0.1,0-0.1,0-0.2,0
	c-2,0-3.6-1.9-3.6-4.4c0.1-3.6,2.3-6.9,5.6-8.3l1.1,2.2C316.9,5.4,315.6,7.7,315.6,9z M323.9,9c0.3-0.1,0.6-0.2,0.9-0.2
	c1.6,0,2.8,1.2,2.8,2.8c0,0.1,0,0.1,0,0.2c0,1.7-1.3,3-3,3c-0.1,0-0.1,0-0.2,0c-2,0-3.6-1.9-3.6-4.4c0.1-3.6,2.3-6.9,5.6-8.3
	l1.2,2.2C325.2,5.4,323.9,7.7,323.9,9z"/>
<path class="st0" d="M345.4,30.7c-0.8-1.2-2.1-2.9-3.5-4.6v14.6h-5V26.6c-1.2,1.3-2.6,2.5-4,3.7c-0.6-1.7-1.3-3.3-2.3-4.8
	c4.2-3,7.6-7,10-11.6h-8.8V9.5h7c-1-1.7-2.1-3.3-3.2-4.9l3.8-2.1c1.3,1.7,2.6,3.5,3.7,5.3l-2.8,1.7h3l0.6-0.2l2.7,1.9
	c-1.3,3.1-2.9,6.2-4.7,9v0.6l0.7,0.6c1.1-1.2,2.1-2.6,3.1-4l3.1,2.6c-1.5,1.2-2.8,2.5-4,3.5c1.4,1.3,2.7,2.6,3.3,3.2L345.4,30.7z
	 M367.6,5.8c0,0,0,1.8,0,2.4c-0.4,20.5-0.7,27.6-2.2,29.8c-0.8,1.3-2.1,2.2-3.6,2.3c-2,0.2-3.9,0.3-5.9,0.2
	c-0.2-1.6-0.6-3.2-1.4-4.7c2.2,0.2,4.1,0.2,5,0.2c0.6,0.1,1.2-0.2,1.5-0.8c1.1-1.4,1.5-8,1.8-24.7h-5.5c-0.5,13.9-2.5,23.9-9.8,30.1
	c-1.1-1.4-2.3-2.7-3.7-3.8c6.8-5.1,8.3-14.2,8.6-26.3h-5.1V5.8H367.6z"/>
<path class="st0" d="M410.2,15.3v4.3h-36.6v-4.3h8.9c-0.4-1.5-0.9-2.9-1.6-4.3l4-0.8h-9V6h13.7c-0.3-1-0.8-2-1.3-3l5.1-0.8
	c0.7,1.2,1.3,2.5,1.7,3.8h13.1v4.3h-8.4l3.8,0.8c-0.7,1.5-1.4,2.9-2,4.2L410.2,15.3z M378.7,22.1h26.9v18.7h-5.1v-1.4h-16.9v1.4
	h-4.9L378.7,22.1z M383.6,26.1v2.7h16.9v-2.7L383.6,26.1z M400.4,35.4v-2.9h-16.9v2.9L400.4,35.4z M385.8,10.2c1,1.5,1.7,3.2,2.1,5
	h8.4c0.7-1.6,1.3-3.3,1.8-5H385.8z"/>
<path class="st0" d="M438.5,23.6c3.9,4.8,8.9,8.7,14.5,11.2c-1.3,1.3-2.5,2.7-3.5,4.2c-5.1-2.8-9.6-6.6-13.3-11.2v13h-5.2V28.1
	c-3.7,4.5-8.2,8.2-13.2,10.9c-1-1.5-2.2-2.9-3.5-4.2c5.7-2.5,10.6-6.4,14.5-11.2h-13.2v-4.8h15.5v-5.2h-12.4V8.8h12.4V2.7h5.2v6.1
	H449v4.8h-12.8v5.2h15.7v4.8L438.5,23.6z"/>
<path class="st0" d="M490.3,26.7c-1.7-1.7-3.4-3.2-5.3-4.7c-0.8,1.3-1.7,2.5-2.7,3.5c-1-0.8-2.1-1.5-3.2-2.1
	c4,5.1,9.4,9.1,15.6,11.4c-1.4,1.3-2.6,2.8-3.6,4.4c-5.1-2.4-9.6-6-13.2-10.3v11.8h-5.1V29.1c-3.6,4.2-8.1,7.7-13.1,10.1
	c-1-1.5-2.1-2.9-3.4-4.2c6.7-2.6,12.4-7.2,16.5-13.1v-9.4h-14.8V7.7h14.8v-5h5.1v5h15.4v4.8h-15.4v9.1c0.2,0.3,0.4,0.6,0.6,0.9
	c2.6-2.3,4.3-5.9,5.1-9.8l4.7,0.9c-0.4,1.5-0.8,3-1.4,4.4c2.3,1.8,5.1,4,6.6,5.3L490.3,26.7z M469.3,13.7c-0.4,1.5-0.9,3-1.5,4.4
	c1.5,1.3,3,2.6,4,3.6l-3.3,3.3c-0.9-1-1.8-2-2.7-2.9c-1.2,2.1-2.8,4-4.7,5.6c-1.2-1.2-2.4-2.2-3.8-3.2c3.6-2.6,6.1-6.9,7.2-11.8
	L469.3,13.7z"/>
<path class="st0" d="M501.6,8.2c-0.3,0.2-0.6,0.2-0.9,0.2c-1.5,0-2.8-1.2-2.8-2.8c0-0.1,0-0.1,0-0.2c0-1.7,1.3-3,3-3
	c0.1,0,0.1,0,0.2,0c2,0,3.6,1.9,3.6,4.4c-0.1,3.6-2.3,6.9-5.6,8.2l-1.2-2.1C500.4,11.8,501.6,9.5,501.6,8.2z M509.9,8.2
	c-0.3,0.1-0.6,0.2-0.9,0.2c-1.6,0-2.8-1.2-2.9-2.8c0-0.1,0-0.2,0-0.2c0-1.7,1.3-3,3-3c0.1,0,0.1,0,0.2,0c2,0,3.6,1.9,3.6,4.4
	c-0.1,3.6-2.3,6.9-5.6,8.2l-1.1-2.1C508.7,11.8,509.9,9.5,509.9,8.2z"/>
<path class="st0" d="M86.1,86.8v2.4H93v4.1h-6.9v4.4c0,2.4-0.5,3.6-2.2,4.3s-4,0.7-7,0.7c-0.4-1.6-1-3.1-1.8-4.5
	c2.1,0.1,4.5,0.1,5.2,0.1s0.9-0.2,0.9-0.7v-4.3H69c1.9,1.3,3.5,2.9,4.9,4.7l-3.8,3c-1.7-2.3-3.8-4.4-6.2-6.1l2.2-1.6h-7.5v-4.1h22.4
	v-2.4h-24v-4.1h16v-2.3H61.2v-4h11.8v-1.9h2.4c-0.8-0.5-1.8-1.1-2.4-1.4c0.5-0.4,1-0.9,1.5-1.4h-5.5c0.5,0.8,0.9,1.7,1.2,2.6
	l-4.2,1.7c-0.5-1.5-1.1-2.9-1.9-4.3h-0.4c-1.1,1.7-2.4,3.2-3.8,4.7c-1.3-1-2.6-1.9-4-2.7c2.8-2.5,5.1-5.7,6.5-9.2l4.6,1.2
	c-0.3,0.7-0.6,1.3-1,2h8.9v3.3c1.7-1.9,2.9-4.1,3.8-6.5l4.7,1.2c-0.2,0.7-0.5,1.4-0.9,2.1H94v4h-6.7c0.6,0.8,1.1,1.7,1.6,2.6
	l-4.2,1.8c-0.7-1.5-1.5-3-2.5-4.3h-1.6c-0.7,1.1-1.5,2.2-2.4,3.1v1.6h12.4v4H78.1v2.3h16.1v4.1L86.1,86.8z"/>
<path class="st0" d="M106.9,81.7c0,6.1-0.7,15.1-4.4,20.8c-1.2-1-2.5-1.9-3.9-2.6c3.4-5.3,3.8-12.8,3.8-18.1v-9.3h12.6v-7.6h4.8v2.4
	h13.4v3.6h-13.4v1.6h11.9l0.7-0.2l3.4,0.7c-0.5,2.4-1.3,4.8-2.3,7.1l-4-1.1c0.2-0.8,0.5-1.8,0.8-2.8h-11v2l8.6-0.7l0.2,3.2l-8.8,0.7
	v0.4c0,1.2,0.4,1.3,2.6,1.3h7.1c1.6,0,1.9-0.4,2.1-2.2c1.2,0.6,2.5,1.1,3.9,1.3c-0.5,3.5-1.8,4.4-5.5,4.4h-8c-5.3,0-6.7-1-6.7-4.7
	l-6.3,0.5l-0.2-3.3l6.5-0.5V76h-7.8V81.7z M126,97.6h9.7v4.1h-30.1v-4.1h9.5v-2.3h-6.2v-7.7h3.7v4.2h2.5V87h4.1v10.6h2.7V87h4.2v4.8
	h2.8v-4.2h3.7v7.7H126V97.6z"/>
<path class="st0" d="M159.7,100.1c-0.8-1-1.7-2-2.6-2.9c-1.2,2.2-3,4.1-5.1,5.5c-0.8-1-1.7-1.9-2.7-2.7c3-1.7,5.1-4.5,5.9-7.8h-4.7
	v-3.7h5.2v-3.4h-0.9c-0.5,1.2-1.1,2.3-1.7,3.4c-1-0.8-2-1.5-3.1-2.1l0.1-0.2l-1.4,0.5v11.2c0,2.1-0.4,3.3-1.6,4s-2.9,0.9-5.4,0.9
	c-0.2-1.5-0.6-2.9-1.2-4.2c1.4,0,2.9,0,3.3,0s0.7-0.2,0.7-0.7v-9.6l-3.6,1.2l-1.1-4.6c1.3-0.4,2.9-0.8,4.7-1.5v-6.5h-4v-4.4h4v-7.7
	h4.1v7.7h2.5v4.4h-2.5V82l2.4-0.8l0.4,2.3c0.7-1.7,1.2-3.5,1.5-5.3l3.6,0.8c-0.2,0.8-0.4,1.6-0.6,2.4h6.5v3.7h-3.1v3.4h3.5v3.8H159
	c-0.1,0.4-0.2,0.8-0.3,1.3c1.3,1.1,2.4,2.2,3.5,3.5L159.7,100.1z M178.8,98.3c-0.6,1.2-1,2.4-1.1,3.8h-3.8c-3.4,0-6.2-0.8-8.1-4.1
	c-0.6,1.7-1.4,3.4-2.5,4.8c-0.9-0.9-1.9-1.6-2.9-2.2c2.9-3.3,3.6-8.6,3.7-15l3.6,0.2c-0.1,2.4-0.3,4.7-0.6,7.1
	c0.4,1.2,0.9,2.4,1.8,3.4V83.3h-5.6v-3.9h9c-2.3-2.3-4.9-4.1-7.8-5.5c-0.4,3.6-1.5,4.5-4,4.5h-3.8c-3.6,0-4.4-1-4.4-4.6v-9.1h3.9
	v4.2c1.7-0.7,3.4-1.5,4.9-2.6l2.6,3c-2.4,1.3-5,2.3-7.6,3v1.4c0,1.1,0.2,1.2,1.1,1.2h2.7c0.8,0,0.9-0.4,1.1-2.4
	c1,0.6,2.2,1.1,3.4,1.3l2.6-2.7c0.9,0.4,1.8,0.9,2.8,1.4c0.8-1,1.5-2,2.2-3.1h-8.1v-3.7h10.4l0.7-0.2l2.7,1.8c-1.4,2.6-3,5-4.9,7.3
	c1,0.7,1.8,1.5,2.6,2.4l-2.3,2.4h2.1l0.6-0.1l2.2,0.6c-0.4,2.5-0.9,5.5-1.4,7.4l-2.8-0.7c0.2-0.9,0.3-2,0.5-3.3h-2v5.2h4.7v3.8h-4.6
	v5.9c0.6,0.1,1.2,0.1,1.8,0.1H178.8z"/>
<path class="st0" d="M212.4,79.9c0,0.9,0,1.9-0.1,2.9c1.6,7.7,4,12.3,8.8,16.2c-1.3,1-2.3,2.2-3.1,3.6c-3.3-3-5.9-6.7-7.4-10.9
	c-1.4,4.3-4,8.1-7.5,11.1c-0.6-1.1-1.4-2-2.3-2.9c-0.2,0.8-0.8,1.4-1.6,1.7c-1.3,0.5-3.1,0.6-5.7,0.6c-0.3-1.2-0.7-2.3-1.3-3.4
	c1.5,0.1,3.3,0.1,3.8,0.1s0.7-0.2,0.7-0.6V86.6H182v-4.2h14.6V70.2h-14.2v-4.1h20.8v4.1h-2.4v9.2c2.3-3.6,3.8-9.2,4.6-14.9l4.6,0.8
	c-0.3,1.8-0.6,3.5-1.1,5.2h7.5l0.7-0.2l3.3,0.9c-0.6,3.9-1.5,7.8-2.6,11.6l-3.8-1.1c0.4-1.8,0.9-4.4,1.3-7h-7.5
	c-0.8,2.7-1.9,5.2-3.3,7.6h0.3v4.2h-3.8v12c6.4-5.9,7.1-13.7,7.1-18.8v-3.1h4.3L212.4,79.9z M187.6,97.5V99h-3.9V88.2h11v9.3
	L187.6,97.5z M194.1,71.8v8.9h-10.2v-8.9H194.1z M190.4,75h-3.1v2.7h3.1V75z M187.6,91.6v2.7h3.3v-2.7L187.6,91.6z M200.8,82.4h3.6
	c-1.2-0.8-2.4-1.6-3.6-2.2V82.4z"/>
<path class="st0" d="M261.5,90.3h-16.1v6.6c0,2.9-0.7,4.2-2.6,4.9s-4.9,0.8-9.1,0.8c-0.4-1.7-1.1-3.3-2-4.8c3,0.1,6.4,0.1,7.3,0.1
	s1.3-0.3,1.3-1.1v-6.6h-16.1v-4.7h16.1v-4.8H227v-4.6h13.3v-4.8c-4.2,0.4-8.5,0.6-12.5,0.8c-0.2-1.5-0.6-2.9-1.2-4.3
	c9.8-0.4,21-1.5,27.7-3.3l3.5,4c-4.1,1-8.2,1.7-12.4,2.2v5.3h13.7v4.7h-13.7v4.8h16.1V90.3z"/>
<path class="st0" d="M284,98.9v3.9h-4.6v-3.3c-4.8,0.5-9.4,1-13,1.4l-0.4-4.2c1.1-0.1,2.3-0.2,3.6-0.3V83.8h-3.5V80H303v3.8h-19V95
	l1.9-0.2v3.9L284,98.9z M298.2,78.5h-27.1V66h27.1V78.5z M274.1,83.8v1.6h5.3v-1.6H274.1z M274.1,90.5h5.3v-1.7h-5.3V90.5z
	 M279.4,95.4v-1.6h-5.3v2.1L279.4,95.4z M293.3,69.1h-17.5v1.6h17.5L293.3,69.1z M293.3,73.7h-17.5v1.7h17.5L293.3,73.7z
	 M302.4,86.3c-1,3.6-2.8,7-5.3,9.8c2.1,1.2,4.3,2.1,6.7,2.7c-1.1,1.1-2.1,2.4-2.9,3.8c-2.6-0.7-5-1.9-7.2-3.5
	c-2,1.5-4.2,2.7-6.5,3.6c-0.6-1.3-1.4-2.5-2.4-3.5c2-0.7,4-1.6,5.7-2.9c-1.8-2-3.2-4.2-4.3-6.6l2-0.6h-3v-3.8h13.5l0.8-0.2
	L302.4,86.3z M290.5,89.1c0.9,1.7,2,3.1,3.4,4.4c1.2-1.3,2.3-2.8,3.1-4.4H290.5z"/>
<path class="st0" d="M314.5,91c-0.9,2.7-2.3,5.2-4.1,7.4c-1-0.8-2-1.6-3.1-2.3c1.6-1.7,2.8-3.8,3.5-6L314.5,91z M319.8,89v8.7
	c0,1.9-0.3,3-1.5,3.7s-2.9,0.7-5,0.7c-0.2-1.4-0.7-2.7-1.3-4c1.2,0,2.5,0,2.9,0s0.6-0.1,0.6-0.6v-8.6H308v-4.1h7.5v-3.1h-7.8v-4h4
	c-0.2-1.5-0.7-2.9-1.2-4.2l3.4-0.8h-5.5v-4h7c-0.4-1.1-0.8-2.2-1.2-3.2l4.3-1c0.7,1.4,1.3,2.8,1.8,4.2h6.4v4h-5.1l3.3,0.7
	c-0.6,1.6-1.2,3.1-1.8,4.4h4.2v4h-7.4v3.1h6.7v4.1L319.8,89z M314.4,72.7c0.7,1.4,1.1,3,1.4,4.5l-2,0.5h4.8c0.7-1.7,1.3-3.3,1.8-5.1
	H314.4z M345.4,82.6h-3.8v20h-4.7v-20h-4v0.3c0,6-0.5,14.3-4,19.4c-1.1-1.1-2.4-2.1-3.7-2.9c0.8-1.2,1.4-2.5,1.8-3.9l-3.2,2
	c-0.9-2.1-2-4.2-3.2-6.1l3.2-1.8c1.2,1.8,2.3,3.7,3.3,5.7c1.3-4,1.4-8.6,1.4-12.5V68.5c4.2-0.7,8.4-1.8,12.4-3.5l3.8,3.6
	c-3.8,1.4-7.6,2.4-11.6,3.1v6.4h12.5L345.4,82.6z"/>
<path class="st0" d="M348.6,83.3c0.9-3.5,1.5-7,1.7-10.6l3.4,0.4c-0.1,3.8-0.7,7.7-1.6,11.4L348.6,83.3z M387.1,77.5V81h-26.7v-3.4
	h10.8v-1.8h-8.4l0.1,0.2l-3.2,1.6c-0.4-1.5-0.9-3-1.5-4.5v29.6h-4.4v-38h4.4v6.5l2.3-1c0.9,1.8,1.6,3.6,2.3,5.5v-3.2h8.4v-1.6h-9.5
	v-3.5h9.5v-2.8h4.8v2.8h9.9v3.5H376v1.6h8.8v3.3H376v1.8L387.1,77.5z M384.4,98.1c0,2.1-0.4,3.3-1.9,3.9s-3.5,0.7-6.3,0.7
	c-0.2-1.4-0.7-2.8-1.3-4.1c1.7,0.1,3.6,0.1,4.1,0.1s0.8-0.2,0.8-0.7v-1.3h-12.2v6.1h-4.5V82.6h21.2V98.1z M367.6,86.1V88h12.2v-1.9
	L367.6,86.1z M379.8,93.3v-1.9h-12.2v1.9L379.8,93.3z"/>
<path class="st0" d="M402.8,75.1h6.5v4.1h-4l2.4,0.6c-0.7,1.4-1.4,2.8-2.1,4.1h2.8V88h-5.7v3.3h6.5v4h-6.5v7.3h-4.5v-7.3h-7.1v-4
	h7.1V88h-6.1v-4.1h2.9c-0.4-1.4-0.8-2.7-1.4-4l2.3-0.7h-4.7v-4.1h7v-2.8h-5.9v-4h5.9v-3.5h4.5v3.5h5.6v4h-5.6L402.8,75.1z
	 M401.6,83.9c0.8-1.5,1.4-3.1,2-4.7h-6.2c0.7,1.3,1.2,2.7,1.6,4.1l-1.8,0.6L401.6,83.9z M428.2,81.2c-0.7,4.5-2.1,8.9-4.2,13
	c1.6,1.8,3.5,3.3,5.6,4.4c-1.2,1.1-2.3,2.4-3.2,3.8c-1.9-1.1-3.6-2.6-5-4.2c-1.3,1.8-2.9,3.3-4.6,4.6c-0.6-0.8-1.2-1.5-1.9-2.2v2
	h-4.4V66.4h16.8V74c0,2.1-0.5,3.3-2,3.9s-3.8,0.7-6.7,0.7c-0.3-1.4-0.7-2.8-1.4-4.2c2,0.1,4.2,0.1,4.9,0.1s0.8-0.2,0.8-0.6v-3.3h-8
	v9.7h9.7l0.8-0.2L428.2,81.2z M414.8,98.5c1.4-1.2,2.7-2.6,3.8-4.1c-1.6-2.6-2.9-5.5-3.8-8.4V98.5z M418.2,84.2
	c0.7,2.1,1.7,4.2,2.8,6.1c0.9-2,1.6-4,2.1-6.1L418.2,84.2z"/>
<path class="st0" d="M469.8,70.9c0,0,0,1.6,0,2.2c-0.5,18.2-1,24.7-2.6,26.9c-0.9,1.3-2.3,2.1-3.9,2.2c-2.1,0.2-4.3,0.2-6.4,0.1
	c-0.2-1.7-0.7-3.3-1.6-4.7c2.6,0.2,5,0.2,6.1,0.2c0.7,0.1,1.3-0.2,1.8-0.7c1.2-1.3,1.7-7.4,2.2-21.8h-8.7c-1,2.3-2.2,4.4-3.6,6.4
	c-1-0.8-2-1.6-3.1-2.3v19h-10.9v3h-4.4V71.2h4.6c0.6-2.2,1-4.4,1.2-6.6l5.3,0.7c-0.7,2-1.4,4.1-2.1,5.8h6.3v6.6
	c2.6-4,4.4-8.5,5.5-13.1l4.7,1.1c-0.5,1.8-1,3.5-1.6,5.2H469.8z M445.4,75.5h-6.5v6.6h6.5V75.5z M445.4,94.3v-8h-6.5v8H445.4z
	 M458.9,92.1c-1.7-3.3-3.6-6.4-5.7-9.4l3.8-2.2c2.2,2.9,4.2,5.9,6,9L458.9,92.1z"/>
<path class="st0" d="M485,69h7.1l9.7,30.2h-6.3l-2.1-7.8h-9.8l-2.1,7.8h-6.1L485,69z M484.9,86.8h7.2l-0.9-3.3
	c-0.9-3.1-1.8-6.6-2.6-9.9h-0.2c-0.8,3.3-1.7,6.7-2.6,9.9L484.9,86.8z"/>
<path class="st0" d="M506.4,69h9.9c6.7,0,11.8,2.4,11.8,9.5c0,6.9-5.2,10-11.7,10h-4v10.7h-6L506.4,69z M516,83.7
	c4.2,0,6.2-1.8,6.2-5.2s-2.2-4.7-6.4-4.7h-3.4v9.9H516z"/>
<path class="st0" d="M534.6,69h9.9c6.7,0,11.8,2.4,11.8,9.5c0,6.9-5.2,10-11.7,10h-4v10.7h-6L534.6,69z M544.2,83.7
	c4.2,0,6.2-1.8,6.2-5.2s-2.2-4.7-6.4-4.7h-3.4v9.9L544.2,83.7z"/>
<path class="st0" d="M566.7,96c0-2,1.6-3.6,3.6-3.6c2,0,3.6,1.6,3.6,3.6c0,2-1.6,3.6-3.6,3.6c0,0,0,0,0,0c-1.9,0.1-3.5-1.4-3.6-3.3
	C566.7,96.2,566.7,96.1,566.7,96z M567.1,74.8l-0.2-6.1h6.8l-0.2,6.1l-1.1,14h-4.2L567.1,74.8z"/>
</svg>