<svg version="1.1" xmlns="http://www.w3.org/2000/svg" viewBox="0 0 689 109.8" width="689" height="110">
<path d="M144.5,12.3h-4.7v24.3c0,2.9-0.7,4.4-2.6,5.2s-5.1,0.9-9.2,0.9c-0.4-1.8-1.1-3.5-2-5.1c2.9,0.2,6.4,0.1,7.4,0.1
	s1.3-0.3,1.3-1.2V12.3h-26.9V7.4h36.7V12.3z M116.2,32.7v3.1h-4.7V16.9h17.3v15.8H116.2z M116.2,21.5V28h7.8v-6.5H116.2z"/>
<path d="M166.4,26.3c0.3,1.6,0.7,3.1,1.3,4.6c-11.6,6.1-13.5,7.3-14.7,8.5c-0.7-1.4-1.6-2.7-2.6-3.9c1.1-0.7,3-2.5,3-4.6V7.5h5.3
	v22.7L166.4,26.3z M183.1,42.6c-2-3.1-4.3-5.9-6.9-8.6c-2.7,3.9-6.3,7-10.6,9c-1.1-1.5-2.3-3-3.7-4.2c12.2-5,15.1-15.1,15.7-32.3
	l5.2,0.2c-0.4,9.5-1.6,17-4.2,22.9c3.2,3.2,6.9,7.1,8.7,9.8L183.1,42.6z M167.9,20.8c-1.5-3.4-3.5-6.7-5.8-9.6l4.2-2.3
	c2.3,2.9,4.3,6,6,9.3L167.9,20.8z"/>
<path d="M211.9,30c-0.5,2.1-1.6,4.1-3,5.7c5.3,1.8,12,1.9,20.3,1.9c-1,1.4-1.8,3.1-2.1,4.8c-8.8-0.2-16.4-0.8-22.2-3.4
	c-3.4,1.9-7.2,3.1-11,3.8c-0.8-1.5-1.8-3-2.9-4.3c3.2-0.4,6.2-1.2,9.2-2.4c-1.6-1.3-3-2.8-4.2-4.6l3.7-1.5h-4.3V13.3h12.1v-2.4
	h-15.6V6.6h35.7v4.3h-15v2.4H225V30H211.9z M199.9,19.8h7.5v-2.6h-7.5V19.8z M199.9,26.1h7.5c0-0.5,0-0.9,0-1.4v-1.3h-7.5
	L199.9,26.1z M200.3,30.1c1.1,1.4,2.4,2.6,3.9,3.6c1.1-1,1.9-2.2,2.4-3.6L200.3,30.1z M220.2,23.5h-7.7v1.3c0,0.4,0,0.9,0,1.3h7.7
	L220.2,23.5z M212.5,17.2v2.6h7.7v-2.6L212.5,17.2z"/>
<path d="M251.6,12c0,0,0,1.6,0,2.2c-0.4,17.4-0.6,23.6-1.9,25.5c-0.7,1.1-1.8,1.9-3.1,2.1c-1.6,0.2-3.3,0.3-4.9,0.2
	c-0.1-1.7-0.6-3.4-1.4-4.9c1.6,0.1,3.1,0.2,3.9,0.2c0.6,0,1.1-0.2,1.4-0.7c0.8-1.1,1.1-6.1,1.4-19.8h-4.1c-0.4,10.9-1.8,20-7.1,26
	c-0.9-1.4-2.2-2.6-3.6-3.5c4.6-5.2,5.7-13,5.9-22.5h-4.7V12h4.8c0-2.2,0-4.4,0-6.7h4.8c0,2.3,0,4.5,0,6.7H251.6z M268.6,9.4v32.3
	h-4.9v-2.5h-5.3v2.8h-4.6V9.4L268.6,9.4z M263.7,34.4V14h-5.3v20.4L263.7,34.4z"/>
<path d="M281.2,24.4c-2.2-1.7-4.6-3.3-7.1-4.6l2.2-3.6c2.5,1.1,5,2.5,7.2,4.2L281.2,24.4z M284.5,29.5c-1.8,4.2-4,8.8-6.1,12.8
	l-3.7-3.4c2.4-4.1,4.6-8.4,6.6-12.7L284.5,29.5z M282.4,12.9c-2.1-1.6-4.4-2.9-6.7-4.1l2.4-3.7c2.4,1.1,4.7,2.3,6.9,3.7L282.4,12.9z
	 M303.4,28.7c2.3,3.4,5.3,6.2,8.8,8.3c-1.3,1.1-2.4,2.4-3.4,3.8c-3.2-2.3-5.9-5.2-8-8.6v10.2H296V32.1c-2.3,3.7-5.5,6.7-9.3,8.9
	c-0.9-1.4-2-2.6-3.2-3.7c4-1.9,7.4-4.9,9.9-8.6h-7.4v-4.3h10v-4h4.9v4h10.1v4.3H303.4z M297.1,13.8c-2.1,3.6-5,6.8-8.4,9.3
	c-1-1.2-2.2-2.3-3.3-3.3c3-1.8,5.5-4.3,7.3-7.3L297.1,13.8z M290.3,14.9h-4.2V6.6h24.8v8.1h-4.5v-3.9h-16.1V14.9z M302.8,12.1
	c2.9,2.5,5.5,5.3,7.8,8.4l-3.7,2.6c-2.2-3.2-4.7-6.1-7.5-8.7L302.8,12.1z"/>
<path d="M328.8,5c13,9.5,12.6,23.6,25.6,31.9c-1,1.7-1.8,3.6-2.3,5.6c-8.4-4.7-11.9-13-16-20.7c-3.2,9.3-8.2,16.2-15.6,20.5
	c-1.4-1.5-2.9-2.8-4.4-4c8.7-4.3,13.7-12.1,16.1-23c-1.7-2.4-3.9-4.6-6.3-6.2L328.8,5z"/>
<path d="M391.5,10.1c-4.1,4.4-8.8,8.2-14,11.3v15.7c0,2.8-0.7,4.1-2.6,4.8s-4.9,0.8-8.9,0.8c-0.4-1.7-1.1-3.4-2-4.9
	c2.9,0.1,6.2,0.1,7.1,0.1s1.2-0.2,1.2-0.9V19c3.4-1.9,6.5-4.1,9.4-6.7h-23.5V7.6h28.3l1.1-0.3L391.5,10.1z"/>
<path d="M434.1,35.9H428v6.8h-4.6v-6.8h-7.7v-4.2h7.7v-3.7h-3.8c-0.5,1.1-1,2.1-1.7,3.1c-1.1-0.7-2.2-1.3-3.4-1.8v8.4
	c0,1.8-0.2,2.9-1.3,3.6s-2.3,0.8-4.1,0.8c-0.2-1.2-0.5-2.3-0.9-3.5v1.5h-3.2v-6.9h-2.7c-0.3,3.4-1.3,6.6-3.1,9.5
	c-1.1-0.8-2.2-1.6-3.4-2.2c2.7-4.2,2.9-10.2,2.9-14.8v-6.1c-1-0.9-2.1-1.8-3.2-2.6c2.8-3,4.9-7.7,6-12.5l4.3,0.9
	c-0.2,0.9-0.5,1.9-0.9,2.8h4.4l0.6-0.2l2.9,1.8c-0.6,1.7-1.4,3.4-2.2,5.1h3.7v2.6c3.5-1.5,4.8-4,5.3-7h-4.6v-4h17.9c0,0,0,1-0.1,1.6
	c-0.2,6.5-0.6,9.3-1.4,10.4c-0.6,0.8-1.5,1.2-2.5,1.3c-1.4,0.1-2.7,0.2-4.1,0.1c-0.1-1.4-0.5-2.7-1.1-3.9c1.3,0.1,2.4,0.2,2.9,0.2
	c0.4,0.1,0.8-0.1,1.1-0.4c0.4-0.4,0.6-1.8,0.7-5.2h-4.5c-0.6,4.2-2.2,7.6-6.2,9.9l3.6,0.7c-0.1,0.9-0.3,1.8-0.6,2.6h2.5v-3.3h4.5V24
	h5.2v4.1H428v3.7h6.1L434.1,35.9z M403.8,12.2c-0.5,1.1-0.9,2-1.4,3h4.3c0.4-0.9,0.8-1.9,1.1-3H403.8z M405.1,29.8v-4.2h-2.2v0.2
	c0,1.2,0,2.5-0.1,3.9H405.1z M402.8,22.2h2.2v-3.5h-2.2V22.2z M410.6,22.2v-3.5h-2.3v3.5H410.6z M408.3,25.7v4.2h2.3v-4.2H408.3z
	 M408.3,38.2c0.9,0,1.6,0,1.8,0s0.5-0.1,0.5-0.5v-4.3h-2.3V38.2z M414.5,29.2c1.6-2.5,2.6-5.4,3.1-8.3c-0.3,0.1-0.6,0.3-0.9,0.4
	c-0.5-1.2-1.3-2.2-2.2-3.1V29.2z"/>
<path d="M448.4,9h9.9c6.7,0,11.8,2.4,11.8,9.5c0,6.9-5.2,10-11.7,10h-4v10.8h-6L448.4,9z M458.1,23.7c4.2,0,6.2-1.8,6.2-5.2
	s-2.2-4.7-6.4-4.7h-3.4v9.9H458.1z"/>
<path d="M475.7,9.4c0-1.9,1.6-3.5,3.5-3.5s3.5,1.6,3.5,3.5s-1.6,3.5-3.5,3.5S475.7,11.4,475.7,9.4z M476.2,16.4h6v22.8h-6V16.4z"/>
<path d="M488.4,33c0-4.9,4-7.5,13.2-8.4c-0.1-2.2-1.1-4-3.9-4c-2.2,0.2-4.4,0.9-6.3,2.2l-2.2-4c2.8-1.9,6.1-2.9,9.5-3
	c5.8,0,8.8,3.5,8.8,10.1v13.4h-4.9l-0.4-2.5h-0.2c-1.9,1.8-4.3,2.9-6.9,3c-3.6,0.2-6.6-2.6-6.8-6.2C488.4,33.4,488.4,33.2,488.4,33z
	 M501.6,32.9v-4.6c-5.6,0.7-7.5,2.2-7.5,4.3c0,1.8,1.3,2.6,3,2.6S500.1,34.3,501.6,32.9z"/>
<path d="M514.7,16.4h4.9l0.5,2.4h0.1c1.8-1.7,4.2-2.8,6.7-2.9c5.6,0,9,4.6,9,11.6c0,7.8-4.7,12.4-9.7,12.4c-2.1-0.1-4.2-1-5.7-2.5
	l0.2,3.8V48h-6L514.7,16.4z M529.7,27.5c0-4.4-1.4-6.8-4.5-6.8c-1.5,0-2.9,0.8-4.5,2.4v10c1.1,1.1,2.6,1.7,4.1,1.7
	C527.6,34.9,529.7,32.5,529.7,27.5z"/>
<path d="M542,16.4h4.9l0.5,4h0.1c1.7-3,4.1-4.6,6.5-4.6c0.9,0,1.8,0.1,2.7,0.5l-1,5.2c-0.8-0.2-1.6-0.4-2.4-0.4
	c-1.8,0-4,1.2-5.2,4.5v13.7h-6L542,16.4z"/>
<path d="M559.3,27.8c0-7.6,5.3-12,11-12s11,4.4,11,12s-5.3,12-11,12S559.3,35.4,559.3,27.8z M575.2,27.8c0-4.3-1.8-7.1-4.9-7.1
	s-4.8,2.8-4.8,7.1s1.8,7.1,4.8,7.1S575.2,32.2,575.2,27.8L575.2,27.8z"/>
<path d="M214,99.3c0,2.5-0.5,3.8-2.1,4.6s-4,0.8-7.2,0.8c-0.3-1.6-0.9-3.2-1.7-4.7c2,0.1,4.4,0.1,5.1,0.1s0.9-0.2,0.9-0.8V96h-7.2
	v7.8h-4.9V96H189c-0.7,3.5-2.5,6.6-5,9.1c-1.1-1.3-2.4-2.5-3.8-3.5c4.5-4.2,4.9-10.2,4.9-15v-6c-0.6,0.5-1.3,1-1.9,1.5
	c-1-1.4-2.2-2.6-3.6-3.6c4.6-3,8.2-7.1,10.6-12l5.3,0.9c-0.3,0.5-0.5,1.1-0.8,1.6h10.5l0.8-0.2l3.3,2.3c-1.2,1.7-2.5,3.4-3.9,4.9
	h8.6V99.3z M196.9,91.7v-3.6H190c0,1.1-0.1,2.4-0.2,3.6L196.9,91.7z M192.2,73c-0.7,1-1.5,2-2.3,3h9.8c0.9-1,1.7-2,2.5-3H192.2z
	 M190.1,83.8h6.9v-3.5h-6.9V83.8z M209.1,80.3h-7.2v3.5h7.2V80.3z M209.1,91.7v-3.6h-7.2v3.6L209.1,91.7z"/>
<path d="M249.2,99.7c3.9,0,4.5-0.9,5.1-6c1.4,0.8,3,1.4,4.6,1.7c-0.9,6.7-2.5,8.7-9.4,8.7h-13.9c-7.6,0-9.9-1.5-9.9-7.3V81.9
	c-0.8,0.7-1.6,1.3-2.4,1.8c-0.7-1.6-1.6-3.2-2.6-4.6c5.2-3.1,9.5-7.4,12.5-12.6l4.4,1.7c-0.3,0.6-0.7,1.2-1,1.8h9.4l0.9-0.2l3.1,2.3
	c-1.5,2.2-3.2,4.2-5,6.1h10v15.3h-4.8V92h-19.8v4.8c0,2.5,0.7,2.9,5.1,2.9L249.2,99.7z M233.4,74.2c-1.1,1.3-2.2,2.6-3.4,3.8h9.1
	c1.2-1.2,2.4-2.5,3.4-3.8H233.4z M230.3,87.3h7.6v-4.8h-7.6V87.3z M250.1,82.5h-7.4v4.8h7.4V82.5z"/>
<path d="M274.1,68.1c-0.9,3-2,6-3.2,8.9v27.8h-4.6V85.6c-0.5,0.8-1.1,1.5-1.6,2.2c-0.6-1.8-1.4-3.5-2.4-5.2
	c3.4-4.8,5.8-10.1,7.2-15.8L274.1,68.1z M274.2,75.6h4.7v29.1h-4.7V75.6z M279.7,66.6c1.8,2.4,3.5,5,5,7.7l-4,2.5
	c-1.4-2.8-2.9-5.5-4.7-8L279.7,66.6z M299.3,99.5c0,2.4-0.5,3.6-2,4.4s-3.7,0.9-6.9,0.9c-0.3-1.6-0.8-3.1-1.5-4.5
	c1.9,0.1,4,0.1,4.7,0.1s0.9-0.2,0.9-0.9v-27h-9.9v-4.4h14.7L299.3,99.5z"/>
<path d="M341.5,73c0,0,0,1.6,0,2.2c-0.5,18.2-1,24.7-2.6,26.9c-0.9,1.3-2.3,2.1-3.9,2.2c-2.1,0.2-4.3,0.2-6.4,0.1
	c-0.2-1.7-0.7-3.3-1.6-4.7c2.6,0.2,5,0.2,6.1,0.2c0.7,0.1,1.3-0.2,1.8-0.7c1.2-1.3,1.7-7.4,2.2-21.8h-8.8c-1,2.3-2.2,4.4-3.6,6.4
	c-1-0.8-2-1.6-3.1-2.3v19h-10.9v3h-4.4V73.3h4.6c0.6-2.2,1-4.4,1.2-6.6l5.3,0.7c-0.7,2-1.4,4.1-2.1,5.8h6.3v6.6
	c2.6-4,4.4-8.5,5.5-13.1l4.6,1.1c-0.5,1.8-1,3.5-1.6,5.2L341.5,73z M317.1,77.5h-6.5v6.6h6.5V77.5z M317.1,96.3v-8h-6.5v8H317.1z
	 M330.6,94.1c-1.7-3.3-3.6-6.4-5.7-9.4l3.8-2.2c2.2,2.9,4.2,5.9,6,9L330.6,94.1z"/>
<path d="M362.8,78c-0.1,1.6-0.2,3.3-0.4,4.9h17.5c0,0.7-0.1,1.4-0.2,2.1c-0.7,11-1.6,15.6-3.3,17.3c-1.1,1.2-2.7,1.9-4.4,1.9
	c-2.3,0.2-4.7,0.2-7,0c-0.2-1.7-0.8-3.3-1.7-4.8c2.8,0.2,5.6,0.3,6.9,0.3c0.7,0.1,1.4-0.1,2-0.5c1.1-0.9,1.8-4.4,2.4-11.7h-12.9
	c-1.4,6.8-4.4,13.2-11.7,17.4c-0.9-1.5-2.1-2.9-3.5-4c9.8-5.2,10.6-14.4,11-23h-10.3v-4.8h17.2c-0.7-1.6-1.6-3.6-2.5-5.2l4.8-1.8
	c1.1,1.9,2.1,3.8,2.9,5.8l-2.8,1.2h16.7V78H362.8z"/>
<path d="M414.7,91.9c-0.5,2.1-1.3,4-2.5,5.8c4.7,1.4,9.6,2.2,14.5,2.3c-1.2,1.4-2.2,2.9-2.9,4.5c-5.2-0.3-10.3-1.5-15-3.4
	c-2.4,1.7-5.1,3-8,3.8c-0.8-1.4-1.8-2.8-2.9-4c2.3-0.4,4.5-1.2,6.6-2.2c-1.9-1.3-3.5-2.9-4.9-4.7l4.2-1.5c1.2,1.4,2.6,2.5,4.2,3.4
	c1-1.1,1.6-2.5,2-3.9h-9V75.5h9.4V73h-9.9v-3.6c-1,2.6-2.1,5.1-3.3,7.6v27.7h-4.6V84.5c-0.6,0.9-1.3,1.8-2.1,2.6
	c-0.7-1.7-1.6-3.4-2.6-5c3.9-4.5,6.8-9.7,8.6-15.3l4.6,1.4l-0.2,0.5h24.8V73h-10.2v2.4h9.2v16.4H414.7z M405.5,82h4.9v-3h-4.9V82z
	 M410.4,88.3c0-0.5,0-1.1,0-1.6v-1.4h-4.9v3L410.4,88.3z M419.7,85.3h-4.5v1.5c0,0.5,0,1,0,1.6h4.6L419.7,85.3z M415.2,79v3h4.5v-3
	H415.2z"/>
<path d="M446.5,93.5c-5.4,1.6-11.2,3.2-15.7,4.4l-1.2-5c1.7-0.4,3.7-0.8,5.9-1.4V75.7h-5.3v-4.6h15.3v4.6h-5.2v14.6l5.6-1.5
	L446.5,93.5z M466.8,75.3c0,0,0,1.6,0,2.2c-0.5,16.5-0.9,22.4-2.4,24.4c-0.8,1.2-2.1,2.1-3.6,2.2c-2,0.2-3.9,0.2-5.9,0.1
	c-0.1-1.7-0.6-3.3-1.5-4.8c2.1,0.2,4.1,0.2,5.1,0.2c0.6,0.1,1.2-0.2,1.6-0.7c1-1.1,1.5-6.2,1.8-19h-5.5c-0.7,10.9-3.1,19.5-12,24.8
	c-0.9-1.5-2.1-2.8-3.4-3.9c7.9-4.5,10-11.6,10.5-20.9h-5.5v-4.6h5.7c0-2.5,0-5.2,0-7.9h4.9c0,2.7,0,5.4-0.1,7.9H466.8z"/>
<path d="M486.8,69.2c1.9,2.8,4,6.4,4.6,9l-4.4,1.7c-0.2-0.7-0.4-1.4-0.6-2c-9.8,0.8-11.5,1.1-12.5,1.5c-0.4-1.5-1-3.1-1.6-4.5
	c0.8-0.3,1.5-0.9,2-1.6c1.5-2.1,2.7-4.3,3.7-6.7l5.1,1.3c-1.2,2.4-2.7,4.6-4.4,6.7l6-0.4c-0.6-1.2-1.4-2.4-2-3.5L486.8,69.2z
	 M489.4,99.9c0,2.1-0.4,3.3-1.8,4s-3.3,0.8-5.7,0.8c-0.3-1.5-0.9-2.9-1.6-4.3c1.2,0.1,2.4,0.1,3.6,0c0.5,0,0.6-0.1,0.6-0.6v-2.7
	h-6.1v7.7H474V81.3h15.4L489.4,99.9z M478.5,85.3v2.2h6.1v-2.2H478.5z M484.6,93.5v-2.4h-6.1v2.4H484.6z M498.4,84.9
	c-4.7,0-5.9-1.4-5.9-5.8V66.8h4.8v5.9c2.5-1,5-2.1,7.4-3.4l3.1,3.5c-3.4,1.6-6.9,2.8-10.5,3.8V79c0,1.5,0.2,1.6,1.8,1.6h4.4
	c1.4,0,1.6-0.6,1.8-4.2c1.3,0.8,2.7,1.4,4.2,1.8c-0.5,5.2-1.8,6.7-5.5,6.7L498.4,84.9z M503.8,100.3c1.4,0,1.7-0.8,1.9-4.9
	c1.3,0.8,2.8,1.4,4.3,1.8c-0.5,5.7-1.8,7.3-5.7,7.3h-5.7c-4.8,0-6-1.4-6-5.9V85.8h4.8v5.5c2.7-1,5.2-2.3,7.6-3.8l3.2,3.5
	c-3.5,1.7-7.1,3.2-10.8,4.3v3.2c0,1.4,0.3,1.6,1.9,1.6H503.8z"/>
</svg>