<svg version="1.1" xmlns="http://www.w3.org/2000/svg" viewBox="0 0 689 110" width="689" height="110">
<path d="M175.7,28.3c-0.1,1.7-0.2,3.1-0.3,4.4h4.6v4.2h-5.1c-0.1,1.2-0.4,2.3-1,3.3c-0.8,1.1-2,1.8-3.4,1.9
	c-1.8,0.2-3.6,0.2-5.5,0.1c-0.1-1.3-0.5-2.6-1.1-3.7c1.4,0.1,2.9,0.2,4.3,0.2c0.6,0.1,1.1-0.2,1.4-0.7c0.2-0.4,0.4-0.7,0.5-1.1h-22
	c0.5-2.4,1-5.5,1.5-8.7H144v-4.3h6.2c0.3-2.4,0.6-5,0.9-7.2c-1,1.3-2,2.4-3,3.4c-1.4-1-2.9-2-4.4-2.8c4.1-3.7,7.3-8.2,9.3-13.3
	l4.9,1.3c-0.4,0.8-0.8,1.7-1.2,2.5h23.5v4.3h-26.1c-0.7,1.1-1.4,2.1-2.1,3.1h24.1c0,0,0,1.5,0,2.1c-0.1,2.4-0.2,4.5-0.2,6.4h5.9V28
	L175.7,28.3z M154.4,28.1c-0.2,1.6-0.4,3.1-0.7,4.6h8.9c-1.5-1.2-3.1-2.2-4.9-3l1.6-1.6C159.3,28.1,154.4,28.1,154.4,28.1z
	 M155.5,19.7c-0.2,1.5-0.4,2.9-0.6,4.5h8.1c-1.5-1.1-3.1-2.1-4.7-2.8l1.7-1.6L155.5,19.7z M170.7,32.7c0.1-1.3,0.2-2.8,0.3-4.6h-8.5
	c1.7,0.9,3.3,2,4.8,3.2l-1.3,1.4H170.7z M171.1,24.1c0.1-1.4,0.1-2.8,0.2-4.4H163c1.7,0.9,3.2,1.9,4.6,3.1l-1.4,1.4L171.1,24.1z"/>
<path d="M206.6,24.2c2.9,6.5,8.1,11.2,16,13.3c-1.3,1.3-2.5,2.9-3.3,4.6c-7.7-2.5-12.6-7.2-16-13.9c-2.2,5.4-6.9,10.6-16,14
	c-0.9-1.5-1.9-3-3.2-4.2c9.4-3.3,13.4-8.6,15.1-13.8h-13.7v-5h14.7c0.1-1.1,0.1-2.1,0.1-3.1V12H187V7h32.3v5h-13.9v4.2
	c0,1,0,2-0.1,3h15.6v5L206.6,24.2z"/>
<path d="M234.1,22.7c-0.2,6.3-1.4,14.6-5.8,19.8c-1.2-1.3-2.5-2.4-4-3.3c4.4-5.4,4.8-13.2,4.8-18.9V9.8H242
	c-0.5-1.4-1.2-3.1-1.8-4.4l4.8-1.2c0.9,1.8,1.8,3.7,2.5,5.6h11.8v12.8h-25.2V22.7z M234.1,14.3v3.9h20.2v-3.9
	C254.3,14.3,234.1,14.3,234.1,14.3z M260.2,25.6V42h-5v-1.9h-15.5v2H235V25.6H260.2z M255.2,35.6v-5.5h-15.5v5.6L255.2,35.6z"/>
<path d="M302.3,13.1c0,0,0,1.6,0,2.2c-0.4,16.4-0.9,22.4-2.2,24.3c-0.7,1.2-2,2-3.4,2.1c-1.8,0.2-3.6,0.2-5.5,0.1
	c-0.1-1.7-0.6-3.3-1.5-4.7c1.9,0.2,3.7,0.2,4.5,0.2c0.6,0.1,1.2-0.2,1.5-0.7c0.9-1.1,1.3-6,1.7-18.8h-4.2c-0.6,10.2-2.3,18.9-8,24.6
	c-1-1.4-2.2-2.7-3.6-3.7c1.2-1.2,2.2-2.5,3.1-3.9l-3.9,1.2c-0.1-0.5-0.3-1.2-0.5-1.9c-10.1,2.6-11.8,3.2-13,4
	c-0.4-1.5-0.9-2.9-1.5-4.3c0.8-0.3,1.3-1.2,2-2.7c1.2-3.1,2.2-6.4,2.9-9.7h-5V17h18v4.4h-8c-0.9,3.5-2,7-3.4,10.3l6.9-1.6
	c-0.6-1.8-1.2-3.5-1.8-5.1l3.9-1.1c1.5,3.4,2.7,6.8,3.7,10.3c2.4-4.5,3.3-10.1,3.5-16.5h-4.4v-4.6h4.6c0-2.6,0-5.3,0-8.1h4.8
	c0,2.8,0,5.5-0.1,8.1H302.3z M282.8,11.7h-15.9V7.4h15.9V11.7z"/>
<path d="M313.3,19.9c0,6.5-0.6,16.5-4,22.8c-1.3-1.1-2.7-2.1-4.3-2.8c3-5.8,3.3-14.1,3.3-20v-11h15.6c-0.4-1.4-1-2.8-1.5-4l4.9-1.1
	c0.7,1.6,1.5,3.5,2.1,5.2h13.2v4.6h-29.3L313.3,19.9L313.3,19.9z M343.1,36.2v4.6h-30.3v-4.6h15.1c4-6.5,6.8-13.7,8.4-21.2l5.2,1.7
	c-2,6.8-4.9,13.3-8.5,19.5H343.1z M318.8,17.2c1.8,4.5,3.3,9.1,4.6,13.8l-4.6,1.9c-1.1-4.8-2.6-9.5-4.3-14.1L318.8,17.2z
	 M325.8,30.3c-0.8-4.7-1.9-9.4-3.3-14l4.4-1.1c1.5,4.6,2.6,9.2,3.5,13.9L325.8,30.3z"/>
<path d="M380.9,36.6c0,2.6-0.6,3.9-2.2,4.7s-4.1,0.9-7.8,0.9c-0.3-1.6-0.8-3.2-1.5-4.7c2.3,0.1,5,0.1,5.7,0.1s1-0.2,1-1v-6.1h-8.6
	v11.4h-4.9V30.5h-8.3c-0.7,4.4-2.2,8.9-5.1,12.1c-1.1-1.2-2.4-2.3-3.8-3.1c4.5-4.9,4.8-12.1,4.8-17.9V7h30.7V36.6z M362.6,25.9v-5
	h-7.7v0.7c0,1.3,0,2.8-0.1,4.3H362.6z M354.9,11.6v4.7h7.7v-4.7C362.6,11.6,354.9,11.6,354.9,11.6z M376.1,11.6h-8.6v4.7h8.6V11.6z
	 M376.1,25.9v-5h-8.6v5H376.1z"/>
<path d="M423,10.5c0,0,0,1.6,0,2.2c-0.5,18.2-1,24.7-2.6,26.9c-0.9,1.3-2.4,2.1-3.9,2.2c-2.1,0.2-4.3,0.2-6.4,0.1
	c-0.2-1.7-0.7-3.3-1.6-4.7c2.6,0.2,5,0.2,6.1,0.2c0.7,0.1,1.3-0.2,1.8-0.7c1.2-1.3,1.7-7.4,2.2-21.8h-8.7c-1,2.3-2.2,4.4-3.6,6.5
	c-1-0.8-2.1-1.6-3.2-2.3v19h-10.9v3h-4.4V10.8h4.6c0.6-2.2,1-4.4,1.2-6.6l5.3,0.7c-0.7,2-1.4,4.1-2.1,5.8h6.3v6.6
	c2.6-4,4.4-8.5,5.5-13.1l4.6,1.1c-0.5,1.8-1,3.5-1.6,5.2H423z M398.6,15.1h-6.5v6.6h6.5V15.1z M398.6,33.9v-8h-6.5v8H398.6z
	 M412.1,31.7c-1.7-3.3-3.6-6.4-5.7-9.4l3.8-2.2c2.2,2.9,4.2,5.9,6,9.1L412.1,31.7z"/>
<path d="M439.2,28.9c0.5,1.5,1.1,2.9,1.9,4.2c-7.4,6.4-8.8,7.6-9.5,8.6c-0.7-1.4-1.7-2.7-2.7-3.8c1.4-1.1,2.2-2.8,2.3-4.6V21.4h-4.7
	v-4.6h9.3v15L439.2,28.9z M434.5,14.4c-1.9-2.3-4-4.5-6.2-6.5l3.1-2.9c2.3,1.9,4.5,3.9,6.5,6.1L434.5,14.4z M454.4,21.1v5.6h8.1
	v15.5h-5.1v-1.3h-10.7v1.5h-4.9V26.7h7.7v-5.6h-10.1v-4.6h10.1v-5.8c-2.9,0.3-5.7,0.6-8.4,0.8c-0.3-1.4-0.7-2.7-1.3-4
	c7-0.6,14.8-1.6,19.7-3.1l3.2,3.9c-2.8,0.7-5.5,1.3-8.4,1.8v6.4h9.9v4.6H454.4z M457.4,31.1h-10.7v5.4h10.7V31.1z"/>
<path d="M495.1,37.2c3.7,0,4.3-1.1,4.8-6.4c1.4,0.8,2.9,1.4,4.5,1.8c-0.8,6.8-2.5,8.9-9.1,8.9h-12.7c-7.2,0-9.3-1.6-9.3-7.9V22.9
	l-5.7,1.8l-1.3-4.4l7-2.2v-11h4.8v9.5l6.3-2V4.3h4.8v8.8l7.4-2.3l0.5-0.4l0.9-0.6l3.4,1.5l-0.2,0.9c-0.1,7.6-0.4,12.4-1.2,14.8
	s-1.9,3.2-3.3,3.6c-1.7,0.4-3.4,0.5-5.1,0.4c-0.1-1.5-0.5-3-1.1-4.5c1.1,0.1,2.7,0.1,3.4,0.1s1.4-0.3,1.9-1.8s0.6-4.4,0.7-9.3
	l-7.3,2.3V33h-4.8V19.4l-6.3,2v12.2c0,3.1,0.6,3.5,4.6,3.5L495.1,37.2L495.1,37.2z"/>
<path d="M521.1,30.9c0.3,1.4,0.7,2.8,1.2,4.2c-6.6,4.6-7.8,5.6-8.5,6.4c-0.6-1.6-1.5-3.1-2.5-4.4c1.2-0.9,1.9-2.3,1.9-3.8V20.9h-5.9
	v-4.6h10.6v16.8L521.1,30.9z M516.6,14.1c-1.9-2.4-4-4.6-6.3-6.6l3.2-3.1c2.3,1.9,4.5,4,6.6,6.2L516.6,14.1z M545.2,27.6h-9.7v14.3
	h-4.9V27.6h-10.4v-4.7h10.4v-8.5h-3.5c-0.8,2.1-1.7,4.1-2.9,6c-1.5-0.8-3-1.6-4.5-2.2c2.7-3.3,4.4-8.7,5.1-14.3l4.8,0.7
	c-0.3,1.8-0.6,3.4-1,5h15.1v4.7h-8.1v8.5h9.7v4.8H545.2z"/>
<path d="M113.8,69.8c-0.4,0.6-0.9,1.1-1.4,1.7c4.9,3.9,10.5,7,16.4,8.9c-1.3,1.3-2.5,2.7-3.4,4.3c-2.2-0.9-4.3-1.9-6.3-3.1v3H100
	v-2.7c-2,1.2-4.1,2.2-6.2,3.2c-1-1.6-2.1-3-3.5-4.3c7.8-2.9,15.1-7.9,19-13.1L113.8,69.8z M117.8,92.9c3.5,3,6.6,6.6,9.1,10.4
	l-4.3,2.7c-0.6-1.1-1.3-2.1-2-3.1c-20.1,1.5-22.9,1.6-24.9,2.4c-0.5-1.7-1-3.3-1.6-4.9c1.2-0.4,2.3-1.1,3.2-2c2-1.7,3.8-3.6,5.4-5.6
	h-9.9v-4.7h33.7v4.7h-17.1c-2,2.4-4.1,4.7-6.4,6.7l14.2-0.8c-1.1-1.3-2.3-2.5-3.5-3.6L117.8,92.9z M116.8,80.1
	c-2.6-1.7-5-3.5-7.2-5.6c-2.1,2.1-4.4,3.9-6.8,5.6H116.8z"/>
<path d="M165.4,85.9c-1.4,4.6-4,8.8-7.6,12.1c3.6,1.9,7.5,3.1,11.5,3.7c-1.2,1.3-2.2,2.8-3,4.4c-4.5-0.8-8.7-2.5-12.6-5
	c-3.7,2.3-7.7,4-11.9,5c-0.7-1.5-1.5-3-2.5-4.3c3.7-0.8,7.2-2.1,10.5-3.9c-1.7-1.6-3.2-3.5-4.4-5.6c-2.9,4.4-6.8,8-11.4,10.6
	c-1-1.5-2.2-2.8-3.6-3.9c7.2-3.8,11.6-9.9,14.2-17.8h-5.3c-2.2,0-3.9,0.3-4.3,0.9c-0.4-1.5-1-3-1.6-4.4c0.8-0.3,1.4-0.9,1.8-1.7
	c1.2-2.3,2.2-4.7,2.8-7.2l5.1,0.8c-0.7,2.4-1.7,4.7-2.9,6.9h5.6c0.7-2.9,1.2-5.9,1.6-8.9l5.4,0.9c-0.4,2.8-0.8,5.5-1.4,8h16.4v4.6
	h-17.5c-0.4,1.2-0.7,2.2-1.1,3.3h11.9l0.9-0.2L165.4,85.9z M148.5,89.2c1.4,2.3,3.1,4.3,5.1,6c2-1.7,3.6-3.7,4.9-6H148.5z
	 M161.4,76.2c-1-1.5-3.1-4-4.7-5.9l3.8-2.2c1.6,1.7,3.8,4.1,4.9,5.6L161.4,76.2z"/>
<path d="M208.7,100.1v4.8H172v-4.8h15.7v-8.2h-11.1v-4.7h11.1V80h-8.4c-1.1,2.1-2.3,4.1-3.8,5.9c-1.4-1.1-2.8-2-4.4-2.9
	c3.2-3.4,5.8-9,7.2-14.6l5,1.1c-0.6,2-1.2,3.9-1.9,5.8h6.3V68h5.1v7.3h13.7V80h-13.7v7.2H205v4.7h-12.2v8.2H208.7z"/>
<path d="M249.4,83.9v5.2h-37.5v-5.2H249.4z"/>
<path d="M271.4,88.4c-6.6,0.9-13.8,1.7-18.9,2.3l-0.5-4.8l2.2-0.2V72h4.5v13.2L261,85V67.9h4.8V74h5v4.3h-5v6.2l5.4-0.6L271.4,88.4z
	 M252.6,100.3h36.8v4.8h-36.8V100.3z M257.3,91.8H285v4.6h-27.7V91.8z M278.5,89.4c-4.7,0-5.9-1.5-5.9-6.3V67.9h4.9V75
	c2.5-0.9,5-1.9,7.4-3.2l3.6,3.8c-3.6,1.5-7.3,2.7-11,3.8v3.7c0,1.6,0.2,1.8,1.7,1.8h4.4c1.3,0,1.6-0.7,1.8-4.8
	c1.3,0.9,2.8,1.5,4.4,1.9c-0.5,5.8-1.9,7.5-5.7,7.5L278.5,89.4z"/>
<path d="M316.1,69.9c-0.4,0.5-0.8,1-1.2,1.4c4.8,4,10.3,7.1,16.2,9.2c-1.4,1.3-2.6,2.8-3.7,4.4c-5.7-2.7-11-6.2-15.7-10.5
	c-4.8,4.4-10.3,8-16.2,10.7c-1-1.6-2.1-3-3.5-4.3c7.2-2.8,15.2-7.7,19.5-13.4L316.1,69.9z M327,88.3c-3.1,3.3-7.1,7.3-10.8,10.9
	c1.4,0.9,2.8,1.8,4.2,2.8l-3.7,4.2c-3-2.5-9.5-6.5-14.1-9.1l3.4-3.7c1.8,0.9,3.9,2.1,6,3.3c1.9-1.9,4-3.8,5.7-5.7h-20.2v-4.7h14.8
	c-1.6-2-3.5-3.9-5.4-5.7l3.4-2.8c2.1,1.7,4.1,3.6,5.9,5.7l-3.2,2.8h9.5l0.8-0.2L327,88.3z"/>
<path d="M354.1,67.9c0,1.7-0.1,3.9-0.3,6.4c0.6,5.5,3.1,20.9,17.3,27.2c-1.5,1.1-2.7,2.6-3.5,4.2c-9-4.3-13.6-12.3-15.9-19.3
	c-2.2,7.2-6.5,14.6-15,19.5c-1.1-1.6-2.4-2.9-4-4c16.5-8.8,15.8-27.1,15.9-34H354.1z"/>
<path d="M410.6,89.4h-8.4V106h-5.1V89.4h-9.6c-0.7,6.1-3,12.3-10.1,16.7c-1.1-1.4-2.4-2.6-3.9-3.6c4.9-2.7,8.2-7.6,8.9-13.1h-8.8
	v-4.6h9.2v-10H375v-4.5h34.4v4.6h-7.1v10h8.4L410.6,89.4z M397.2,84.8v-10h-9.3v10H397.2z"/>
<path d="M421.5,82.8c-0.5,5.7-1.5,11.4-3,16.9l-4.9-2c1.6-5.2,2.6-10.5,3.1-15.9L421.5,82.8z M429.2,79.5v18.9
	c0,1.9,0.3,2.2,2.3,2.2h5.8c2,0,2.4-1.3,2.7-7.7c1.4,0.9,2.9,1.6,4.6,2c-0.6,7.7-1.9,10.2-6.9,10.2h-6.8c-5.3,0-6.8-1.6-6.8-6.8
	V79.5H429.2z M428.8,68.5c3.7,2.3,8.8,5.9,11.3,8.4l-3.6,3.8c-2.2-2.5-7.2-6.4-11-8.9L428.8,68.5z M446.6,80.6
	c2.3,4.9,4.1,9.9,5.3,15.2l-4.9,2c-1-5.3-2.6-10.5-4.9-15.4L446.6,80.6z"/>
<path d="M490.8,74.2c0,0,0,1.6,0,2.2c-0.5,18.2-1,24.7-2.6,26.9c-0.9,1.3-2.3,2.1-3.9,2.2c-2.1,0.2-4.3,0.2-6.4,0.1
	c-0.2-1.7-0.7-3.3-1.6-4.7c2.6,0.2,5,0.2,6.1,0.2c0.7,0.1,1.3-0.2,1.8-0.7c1.2-1.3,1.7-7.4,2.2-21.8h-8.7c-1,2.3-2.1,4.4-3.5,6.5
	c-1-0.8-2-1.6-3.1-2.3v19h-10.9v3h-4.4V74.4h4.6c0.6-2.2,1-4.4,1.2-6.6l5.3,0.7c-0.7,2-1.4,4.1-2.1,5.8h6.3v6.8
	c2.6-4,4.4-8.5,5.5-13.1l4.7,1c-0.5,1.8-1,3.5-1.6,5.2H490.8z M466.4,78.7h-6.5v6.6h6.5V78.7z M466.4,97.5v-8h-6.5v8H466.4z
	 M479.9,95.3c-1.7-3.3-3.6-6.4-5.7-9.4l3.8-2.2c2.2,2.9,4.2,5.9,6,9.1L479.9,95.3z"/>
<path d="M532,94.6h-4.2v7.1h-4.9v-1.6h-7.3v1.3c0,2.4-0.6,3.4-2.2,4.1s-3.8,0.7-7.2,0.7c-0.4-1.3-0.9-2.6-1.6-3.8
	c2,0.1,4.4,0.1,5,0.1s1-0.3,1-1v-1.4h-12.4v-3.6h12.4v-1.9h-16.1v-3.7h16.1v-1.8h-12.1v-3.3h12.1v-1.7h-11V76h11v-1.7h-15.2v-3.8
	h15.2v-2.7h4.9v2.7h15.6v3.8h-15.6V76h11.6v8.1h-11.6v1.8h12.3v5h4.2V94.6z M510.6,81.1v-2h-6.4v2H510.6z M515.5,79.1v2h6.6v-2
	H515.5z M515.5,90.9h7.3v-1.8h-7.3V90.9z M522.8,94.6h-7.3v1.9h7.3V94.6z"/>
<path d="M534,86.6c0.9-3.5,1.5-7.1,1.7-10.7l3.4,0.4c-0.1,3.8-0.7,7.7-1.6,11.4L534,86.6z M572.5,80.8v3.5h-26.7v-3.5h10.8V79h-8.4
	l0.1,0.2l-3.2,1.5c-0.4-1.5-0.9-3-1.5-4.5v29.6h-4.4v-38h4.4v6.5l2.3-1c0.9,1.8,1.6,3.6,2.3,5.5v-3.2h8.4v-1.5H547v-3.4h9.5v-2.8
	h4.8v2.8h9.9v3.4h-9.9v1.6h8.8V79h-8.8v1.8L572.5,80.8z M569.8,101.3c0,2.1-0.4,3.3-1.9,3.9s-3.5,0.7-6.3,0.7
	c-0.2-1.4-0.7-2.8-1.3-4.1c1.7,0.1,3.6,0.1,4.1,0.1s0.8-0.2,0.8-0.7v-1.3H553v6.1h-4.5V85.8h21.2L569.8,101.3L569.8,101.3z
	 M553,89.3v1.9h12.2v-1.9H553z M565.2,96.5v-1.9H553v1.9H565.2z"/>
<path d="M592.5,79.2c0-2.4-1.5-3.8-4-3.8c-2.2,0.1-4.2,1.1-5.5,2.8l-3.6-3.3c2.4-2.9,6-4.6,9.8-4.7c5.5,0,9.5,2.9,9.5,8.4
	c0,6.6-8,7.4-7.4,13.7h-5.7C584.7,85.3,592.5,83.6,592.5,79.2z M584.7,100.2c0-2.1,1.7-3.9,3.9-3.9s3.9,1.7,3.9,3.9
	c0,2.1-1.7,3.9-3.9,3.9l0,0c-2.1,0.1-3.8-1.6-3.9-3.6C584.6,100.3,584.6,100.2,584.7,100.2z"/>
</svg>