<svg version="1.1"
	 xmlns="http://www.w3.org/2000/svg" viewBox="0 0 630 170" width="630" height="170">
<style type="text/css">
	.st0{fill:#FFF;}
</style>
<path d="M369.2,39.3c0,3.1,2.5,5.6,5.6,5.6h10.7c3.4,0,6.1-2.7,6.1-6.1V18.7c0-3.1-2.5-5.7-5.7-5.7c-3.1,0-5.7,2.5-5.7,5.7
	c0,0,0,0,0,0v15h-5.4C371.7,33.7,369.2,36.2,369.2,39.3z"/>
<path d="M314.4,85.3c0,4.7,3.8,8.4,8.4,8.4s8.4-3.8,8.4-8.4c0-4.7-3.8-8.4-8.4-8.4C318.2,76.9,314.4,80.7,314.4,85.3z"/>
<path d="M554.3,127.6c-4,0-7.2,3.3-7.1,7.2c0,0.1,0,0.1,0,0.2v10.5c0,5-1,6.4-5.1,8c-2.1,0.7-3.7,2.3-4.5,4.3
	c-0.7,1.9-0.6,4,0.3,5.8c1.2,2.4,3.6,3.8,6.2,3.8c1.2,0,2.5-0.3,3.6-0.8c8.9-3.7,13.8-11.1,13.8-20.9V135c0.2-3.9-2.9-7.2-6.8-7.4
	C554.5,127.6,554.4,127.6,554.3,127.6z"/>
<path d="M544.5,147.6v-12.1c0.1-3.9-3-7.2-6.9-7.3c0,0-0.1,0-0.1,0c-1.8,0-3.5,0.7-4.8,1.9c-1.4-4-5.9-6.1-9.9-4.7
	c-2.6,0.9-4.5,3.2-5,5.9h-18.2c-1.9,0-3.7,0.7-5,2c-0.1-0.2-0.1-0.3-0.2-0.5c-1.5-2.3-4.1-3.7-6.8-3.6h-24.2c-1.8,0-3.5,0.6-4.8,1.8
	c-1.1-2.6-3.7-4.3-6.5-4.3h-10.1c-2,0-4,0.9-5.3,2.4c-0.3-0.1-0.5-0.1-0.8-0.2c-1.8-3.2-5.9-4.4-9.1-2.6c-1.1,0.6-2,1.5-2.6,2.6
	c-1.1,0.1-2.1,0.5-3,1.2c-1.1-1.3-2.8-2.1-4.5-2.1h-3c-2.6-3-7.2-3.4-10.2-0.8c-0.3,0.2-0.5,0.5-0.8,0.8h-2.9
	c-0.7,0-1.5,0.1-2.1,0.4c-2.1-3.1-6.3-3.9-9.4-1.8c-1.9,1.3-3,3.4-2.9,5.6v1c-2.2,0.8-3.8,2.7-4,5.1v0.1c-0.1,1.4-0.3,2.8-0.7,4.1
	c-0.1,0.3-0.1,0.5-0.2,0.8c-1-1-2.1-1.9-3.4-2.6l0.4-0.3c2.9-2.3,3.5-6.5,1.4-9.5c-1.3-2-3.5-3.1-5.9-3c-0.5,0-1,0-1.5,0.1h0
	c-4.9,0.6-9.9,0.9-14.8,1c-2,0-4,0.8-5.4,2.2c-0.5,0.6-1,1.3-1.3,2c-1.4-1.7-3.4-2.6-5.6-2.5h-3.1c-1.1-2.7-3.7-4.5-6.7-4.5h-0.3
	c-1.9,0.1-3.7,0.9-5,2.3c-0.6,0.6-1.1,1.4-1.4,2.2h-9.4c-2-0.1-4,0.8-5.4,2.3c-0.2-0.1-0.3-0.2-0.5-0.3l0,0c0-3.4-2.8-6.2-6.2-6.2
	h-12.8c-1.1,0-2.3,0.3-3.2,0.9c-1.2-0.9-2.7-1.5-4.2-1.5l0,0c-3.1,0-5.8,2.1-6.6,5.1c-0.6,2.2-1.4,4.4-2.3,6.5
	c-0.1-1.5-0.7-3-1.7-4.1c-0.5-0.6-1.2-1.1-1.9-1.4c-0.2-1.3-0.8-2.5-1.7-3.4l0,0l0,0c-2-2.1-5.2-2.5-7.7-1c-1.2-0.9-2.6-1.4-4.1-1.4
	c-0.6,0-1.2,0.1-1.8,0.3c-0.7,0.2-1.4,0.6-2,1c-1-0.5-2-0.7-3.1-0.7h-8.7c-3.5,0-6.3,2.9-6.3,6.4c0,1.2,0.4,2.4,1,3.5
	c-0.3,1.3-0.1,2.7,0.4,3.9c-1,0.5-1.8,1.3-2.4,2.2c-0.8-1.9-2.4-3.3-4.4-3.7c0.1-0.4,0.1-0.8,0.1-1.2c0.1-3.5-2.7-6.4-6.3-6.5
	c-0.1,0-0.3,0-0.4,0h-3.9c-0.1-0.3-0.3-0.7-0.4-1c-1-1.7-2.6-2.9-4.5-3.4c-3.5-0.9-7.1,1-8.4,4.4H206c-2.5-0.1-4.8,1.2-6,3.4v-0.8
	c0-3.9-3.2-7.1-7.1-7.1h-10.2c-2,0-4,0.9-5.3,2.4c-0.3-0.1-0.5-0.1-0.8-0.2c-1.8-3.2-5.9-4.4-9.1-2.6c-1.1,0.6-2,1.5-2.6,2.6
	c-1.2,0.1-2.3,0.6-3.2,1.3c-1.1-1.4-2.8-2.2-4.6-2.2h-3c-2.6-3-7.2-3.4-10.2-0.8c-0.3,0.2-0.5,0.5-0.8,0.8h-2.9
	c-0.7,0-1.5,0.1-2.1,0.4c-2.1-3.1-6.3-3.8-9.4-1.7c-1.8,1.3-2.9,3.3-2.9,5.5v1c-0.3,0.1-0.5,0.2-0.8,0.3c0.4-3.6-2.3-6.8-5.9-7.2
	c-0.2,0-0.5,0-0.7,0c-1,0-2,0.2-2.9,0.7c-2.7,1.3-5.6,2.2-8.5,2.8c-0.3,0-0.6,0.1-0.9,0.1c-1-0.7-2.2-1-3.4-1.1h-0.3
	c-1.7-3.3-5.8-4.5-9.1-2.8c-1.2,0.6-2.1,1.6-2.8,2.8H90c-2,0-3.8,0.9-5,2.5c-0.7-2.9-3.3-5-6.3-5H56.9c-3.6,0-6.5,2.9-6.5,6.5v6
	c-3.2,0.9-5,4.2-4.1,7.4c0.5,1.8,1.8,3.2,3.5,3.9v3.8c-0.7,0.4-1.3,0.9-1.8,1.4c-1.1,1.3-1.6,2.9-1.5,4.6c0.3,3.2,3,5.6,6.2,5.6
	c0.2,0,0.5,0,0.7,0l5.1-0.7c1.5,3.4,5.5,4.8,8.8,3.3c0.2-0.1,0.3-0.2,0.5-0.2c0.6,0.2,1.2,0.3,1.9,0.3c0.8,0,1.6-0.2,2.3-0.5
	c1.3-0.5,2.6-1.2,3.8-1.9c1.2,0.7,2.5,1.3,3.7,1.8c3,1.2,6.5-0.1,7.9-3c0.9,0.5,1.9,0.7,2.9,0.7h0.2c1.8,3.2,5.9,4.3,9.1,2.5
	c0.6-0.3,1.1-0.7,1.5-1.2c1.1,0.8,2.5,1.2,3.8,1.2c2.2,0,4.3-1,5.6-2.8c1.7,3.3,5.8,4.7,9.1,3c2.3-1.2,3.7-3.5,3.7-6.1v-12.4
	c0.1-0.1,0.2-0.1,0.3-0.2c0.1,0.1,0.3,0.2,0.4,0.2c0.5,0.2,1,0.4,1.5,0.5v11.9c0,3.7,3,6.7,6.8,6.7c1.8,0,3.6-0.7,4.8-2
	c1.3,1.3,3,2,4.8,2c1.9,0,3.7-0.8,4.9-2.1c1.1,1.1,2.6,1.7,4.2,1.8h0.1h0.6h0.8c5.6,0,8.5-2.5,8.7-7.6c0.7,0.5,1.5,0.8,2.4,1v0.2
	c0,3.7,3,6.7,6.7,6.7c2.4,0,4.6-1.3,5.8-3.3c1.2,2.1,3.4,3.3,5.8,3.3c1.3,0,2.6-0.4,3.7-1.1c0.3,0.1,0.7,0.1,1,0.1
	c1.1,0,2.3-0.3,3.3-0.9c3.2,1.9,7.2,0.8,9.1-2.3c1.7-2.8,1-6.4-1.5-8.5c0.6-1.6,1.1-3.2,1.4-4.9c0.1,1.6,0.8,3.1,2,4.3l0,0l0,0
	c1.2,1.1,2.7,1.8,4.4,1.9c0.3,4.7,3.7,10,16.9,10c2.6,0.1,5.2-0.1,7.8-0.6c4.3-0.9,6.7-4.2,5.9-8.1c-0.5-2.4-2.4-5-6.6-5H229
	c0-0.1,0-0.2,0-0.4s0-0.3,0-0.4c1-0.3,2.1-0.6,3-0.9c1.9-0.4,3.6-1.6,4.7-3.3c0.2,0.4,0.4,0.8,0.6,1.1c-0.2,0.6-0.3,1.3-0.3,2
	c0,2.2,1.1,4.2,2.9,5.4c-2.7,2.4-2.9,6.6-0.5,9.3c1.9,2.1,5.1,2.8,7.7,1.5c3-1.3,5.7-3.2,8-5.6c1.1,3.5,3.8,5.6,9.4,5.6h3.4
	c5.5,0,8.2-2.1,9.3-7.1v1.2c0,3.7,3.1,6.8,6.8,6.8c1.5,0,3-0.5,4.2-1.5c1.2,1,2.8,1.5,4.3,1.5c1.4,0,2.7-0.4,3.9-1.1h6.4
	c1.2,0.7,2.5,1.1,3.9,1.1c3.6,0.1,6.6-2.6,6.8-6.2v-7.7c0-1.2-0.4-2.5-1-3.5c0.8-1.6,0.8-3.5,0-5.1c0.4-0.8,0.6-1.7,0.6-2.6
	c0-0.1,0-0.3,0-0.4c0.3-0.2,0.5-0.5,0.8-0.7c1.2,0.8,2.6,1.3,4,1.4c-0.7,1.6-1.1,3.4-1.1,5.1c-0.1,3,1.1,5.9,3.1,8
	c-0.4,0.4-0.7,0.8-1,1.2c-1.9,3.2-0.9,7.3,2.3,9.2c1.1,0.7,2.4,1,3.7,1c0.7,0,1.3-0.1,2-0.2c6.7-1.5,14.8-5.9,14.8-18.4
	c0-1-0.1-2-0.3-2.9c0-0.9,0-1.9,0-3h2.6c2.8,0.1,5.3-1.5,6.4-4.1c1,1.3,2.5,2.3,4.1,2.6c-1.6,1.3-3.4,2.7-5.1,4
	c-3.1,2.3-3.8,6.6-1.6,9.8c0.1,0.1,0.1,0.2,0.2,0.2c1.2,1.6,3,2.5,5,2.6c1,4.2,4.9,8.2,13.5,8.2c12.7,0,17.2-7.5,17.2-14.5
	c0-1.1-0.1-2.1-0.3-3.2l0.1,0.1c0.5,0.2,1,0.4,1.5,0.5v11.9c0,3.7,3,6.8,6.7,6.8c1.9,0,3.7-0.7,5-2.1c1.3,1.3,3,2,4.8,2
	c1.9,0,3.7-0.8,4.9-2.1c1.1,1.1,2.6,1.7,4.2,1.8h0.1h0.6h0.8c5.5,0,8.4-2.4,8.7-7.5c0.6,0.4,1.3,0.7,2.1,0.8v0.2
	c0,3.7,3,6.7,6.7,6.7c2.4,0,4.6-1.3,5.8-3.3c1.2,2,3.4,3.3,5.8,3.3c1.3,0,2.6-0.4,3.7-1.1c0.3,0.1,0.7,0.1,1,0.1
	c1.1,0,2.3-0.3,3.3-0.9c3.2,1.9,7.2,0.8,9.1-2.3c1.7-2.8,1-6.4-1.5-8.5c0.9-2.5,1.6-5.2,2-7.9c0.3-1.6,0-3.3-0.9-4.8
	c0.4-0.7,0.6-1.6,0.8-2.4c1.3,1,2.9,1.6,4.5,1.6h3.8c0,0.2,0,0.3,0,0.5c0,0.7,0,1.3,0,1.9c0.1,5.1,0.1,6.3-3.6,8.9
	c-1.7,1.1-2.9,2.9-3.2,4.9c-0.3,1.8,0.1,3.7,1.2,5.2l0,0l0,0c1.3,1.8,3.4,2.8,5.6,2.8c1.6,0,3.1-0.5,4.5-1.4
	c4.5-2.8,7.7-7.4,8.8-12.6c0.2,0,0.5,0,0.7,0c2.1,0,4.1-0.9,5.6-2.5c2.7-2.7,5-5.8,6.9-9.1c1.3,2,3.5,3.2,5.9,3.2h12.3
	c-2.1,3.9-5.6,6.8-9.7,8.3c-2,0.7-3.6,2.2-4.5,4.2c-1.5,3.6,0.1,7.7,3.7,9.2c0.9,0.4,1.9,0.6,2.8,0.6c1.2,0,2.3-0.3,3.4-0.7
	c10.1-4.1,17.7-13.5,20.6-25.9c0.1-0.3,0.1-0.6,0.2-0.8c0.7-0.3,1.4-0.7,2-1.2v9c-0.2,3.9,2.8,7.1,6.7,7.3c0.1,0,0.3,0,0.4,0
	C541.4,154.7,544.5,151.5,544.5,147.6z M85,155.6c0.2-0.4,0.3-0.7,0.5-1.1l0.2,0.2C85.5,154.9,85.2,155.2,85,155.6z"/>
<path d="M581.6,153.9c0.9-1.1,1.4-2.5,1.5-3.9l0.5-8.1v-7.2c0-4.2-3.4-7.7-7.6-7.7s-7.7,3.4-7.7,7.6c0,0,0,0,0,0v7.2l0.5,8.1
	c0.1,1.4,0.6,2.8,1.5,3.9c-3.1,3.1-3.1,8.1,0,11.2c3.1,3.1,8.1,3.1,11.2,0C584.7,161.9,584.7,156.9,581.6,153.9L581.6,153.9z"/>
<path d="M216,33.7c3.2,0,5.7-2.6,5.7-5.7c0,0,0,0,0,0V13h5.4c0.4,0,0.9-0.1,1.3-0.1c-0.1,0.4-0.1,0.8-0.1,1.2c0,3.2,2.3,5.9,5.4,6.4
	c-0.9,1.2-1.9,2.4-3.1,3.5c-2.7,2.5-2.9,6.8-0.4,9.5c1,1,2.2,1.7,3.6,2v2.8c0,3.7,3,6.7,6.8,6.7c1.6,0,3.1-0.6,4.3-1.6
	c2.5,1.2,5.4,0.9,7.5-0.8c1.2,1.3,2.9,2,4.7,2.1h2.1c3.9,0,7.7-0.8,9.3-7c0.8-3.8,1.3-7.7,1.3-11.5c0.2,0.1,0.5,0.1,0.8,0.2v12.5
	c0.2,3.6,3.2,6.3,6.8,6.2c1.5,0,2.9-0.4,4.1-1.3h10.5c1.2,0.9,2.7,1.3,4.2,1.3c3.6,0.1,6.7-2.7,6.9-6.3V26.3l0,0
	c0.9-0.1,1.8-0.5,2.5-1c-0.4,0.5-0.6,1.1-0.8,1.7c-0.6,1.9-0.4,3.9,0.6,5.6c1,1.8,2.8,3.1,4.9,3.5c6,1.3,11.8,3.3,17.3,6
	c1.2,0.6,2.4,0.9,3.8,0.9c2.7,0,5.2-1.6,6.3-4.1c1.5-3.5,0.1-7.3-3.6-9.7c0.7-0.7,1.2-1.5,1.6-2.4c0.7-1.8,0.6-3.9-0.3-5.6
	c1.4-0.8,2.5-2.1,3-3.6c1.3-3.6-0.3-7.3-4.1-9.3c-4.6-2.4-13.7-4.4-18-4.8c-0.3,0-0.6,0-0.9,0l0,0c-3.4-0.2-6.4,2.1-7.1,5.4
	c-0.4,1.9-0.1,3.8,0.9,5.4c0.3,0.5,0.7,0.9,1.2,1.3c-0.8,0.9-1.3,2-1.6,3.1c-0.1,0.5-0.1,1.1-0.1,1.6l0,0c0,0,0-0.1,0-0.1
	c0-2.4-1.4-4.6-3.6-5.6c0.7-1,1.1-2.3,1.1-3.5c0-3.4-2.8-6.2-6.2-6.2h-7.3c-1.9-3.3-6.1-4.4-9.4-2.5c-1,0.6-1.9,1.5-2.5,2.5h-7
	c-1.8,0-3.6,0.8-4.7,2.2c-0.2-0.4-0.5-0.7-0.8-1c-1.4-1.4-3.3-2.2-5.3-2.2h-13.2c-1.2,0-2.3,0.3-3.3,0.9c-1.9-3.2-6.1-4.2-9.3-2.3
	c-1.8,1.1-3,3-3.2,5.1c-0.4,0.1-0.7,0.1-1.1,0.3c0-0.2,0-0.4,0-0.5c0-3.1-2.5-5.6-5.6-5.6h-10.7c-3.4,0-6.1,2.7-6.1,6.1v20.1
	C210.3,31.1,212.9,33.6,216,33.7z"/>
<path d="M336.4,23.4c-0.2,3.9,2.8,7.1,6.7,7.3c0.1,0,0.2,0,0.2,0c0.9,0,1.9-0.2,2.8-0.5c-1.6,0.8-2.8,2.1-3.5,3.8
	c-1.5,3.6,0.2,7.7,3.8,9.1c0.9,0.4,1.8,0.5,2.8,0.5c1.1,0,2.2-0.2,3.3-0.7c10.3-4.1,17.1-12.6,20.2-25.3c0.6-2.2,0.1-4.6-1.3-6.4
	c-1.5-1.9-3.8-2.9-6.2-2.8h-4.7c-0.1-0.3-0.2-0.6-0.3-0.9c-0.7-1.7-2.1-3.1-3.8-3.8c-0.9-0.4-1.9-0.6-2.9-0.6c-3,0-5.6,1.9-6.6,4.6
	c-1.7,4-4.4,7.6-7.7,10.4C337.5,19.5,336.5,21.4,336.4,23.4z M348,29.1c2.7-2.1,5.1-4.7,7.2-7.5h1.1c-2,3.8-5.4,6.7-9.4,8.2
	C347.3,29.6,347.7,29.4,348,29.1z"/>
<path d="M400,27.7c0,4.5,2.3,6.5,4.2,7.5c0.3,0.1,0.6,0.2,0.9,0.3c0,0.2-0.1,0.4-0.1,0.7c-0.2,3.8,2.5,6.8,6.7,7.4
	c1,0.1,1.9,0.2,2.9,0.2c17.8,0,19.2-10.9,19.2-14.2c0.1-4.8-2.7-9.2-7.2-11c1.4-0.8,2.4-2.1,2.9-3.6c1.2-3.7-0.5-7.4-4.5-9.1
	C420.3,4,415.2,3,410,3h-0.6c-4,0.1-7,2.6-7.3,6.2c-0.1,1.3,0.1,2.7,0.7,3.8l0,0C401,16,400,20.8,400,27.7z"/>
<path d="M126.7,102.4c1.3,0.9,2.8,1.5,4.4,1.5c2.4,0,4.7-1.2,6.1-3.1c4-5.2,6.6-12.8,7.9-18.8c2.7,4.6,4.1,8.2,5.7,14.9
	c0.9,3.7,3.7,6.1,7.1,6.1c0.6,0,1.1-0.1,1.6-0.2c4.1-1,6.4-4.8,5.4-9.3c-0.2-1-0.5-2.1-0.8-3.2c1.5,1.5,3.5,2.3,5.6,2.3H194
	c2.6,0,4.9-1.3,6.3-3.5c1.4,1.5,3.4,2.4,5.4,2.4h3.4l-0.8,0.3c-1.9,0.7-3.4,2.2-4.2,4c-0.8,1.8-0.8,3.7,0,5.5
	c1.1,2.6,3.7,4.3,6.5,4.2c1,0,2.1-0.2,3.1-0.5c6.2-1.9,10.9-7.1,12.2-13.5h5.9c2.1,0,4.2-0.9,5.5-2.6c0.9,2.7,3.4,4.6,6.3,4.5
	c0.5,0,1.1-0.1,1.6-0.2h0.1l1.6,7.2c0.6,3.6,4.1,6.1,7.8,5.4c0.2,0,0.3-0.1,0.5-0.1c3.6-0.8,5.9-4.4,5.1-8c0-0.1,0-0.2-0.1-0.2v-0.2
	h0.1c2.4-0.1,4.7-1.3,6-3.3c1.7-2.4,3.1-5,4.1-7.8c1-2.3,0.7-5-0.7-7.1c-1.3-1.9-3.5-3-5.9-3c-0.6,0-1.1,0.1-1.7,0.2l-6.3,1.2
	c-0.6-3.1-3.4-5.4-6.6-5.4c-0.5,0-1,0.1-1.5,0.2c-1.7,0.4-3.2,1.4-4.2,2.9c-0.9,1.5-1.3,3.3-0.9,5c-1.6,0.3-3,1.2-4,2.4
	c-0.9-2.9-3.7-4.8-6.7-4.7h-0.5c1.7-0.8,3-2.3,3.6-4.1c0.6-1.8,0.4-3.8-0.6-5.5c-1.2-2-3.3-3.3-5.6-3.2c-1,0-2,0.2-2.9,0.6
	c-5.4,2-11,3.1-16.8,3.2c-2,0-3.9,0.9-5.2,2.5c-1.6,2-1.9,4.7-0.8,7c-1.3,0.5-2.4,1.4-3.2,2.5c-1.4-1.7-3.5-2.7-5.8-2.7h-24.4
	c-3.7-0.2-6.9,2.6-7.4,6.3c-0.9-2.4-1.9-4.7-3.1-7l0.1-0.1c0.5,0.2,1.1,0.2,1.6,0.2c0.7,0,1.4-0.1,2-0.3h0.1
	c2.9-1.1,4.5-4.2,3.7-7.2c-0.5-1.9-1.5-3.7-2.9-5.1c-1.1-1.2-2.7-1.9-4.3-1.9c-1,0-2,0.3-2.8,0.8c-0.3,0.1-0.5,0.3-0.8,0.5
	c-0.6-0.2-1.1-0.2-1.7-0.2l0,0c-2.9,0-5.3,2.1-5.7,5c-1.8,0.4-3.3,1.5-4.4,3c-1.1-1.3-2.6-2.1-4.3-2.3c-0.3,0-0.7-0.1-1-0.1l0,0
	c-3.6,0-6.6,2.7-7.1,6.2c-1,6.7-2.9,11.7-6,15.9l0,0l0,0c-2.6,3.1-2.2,7.8,1,10.4C126.6,102.4,126.7,102.4,126.7,102.4z"/>
<path d="M293,66.4c-2.2,0-4.2,1-5.6,2.7c-1.3-1.4-3.1-2.1-5-2.1c-3.9,0-7,3.2-7,7.1c0,0,0,0.1,0,0.1v9c0,4.9-0.7,6.4-3.8,8.6
	c-1.7,1.1-2.9,3-3.3,5c-0.7,3.8,1.9,7.5,5.7,8.1c0.4,0.1,0.8,0.1,1.3,0.1c1.7,0,3.3-0.6,4.7-1.5c2.4-1.6,4.4-3.7,6-6.2
	c0.3,3.9,3.6,6.9,7.5,6.9c1.3,0,2.5-0.3,3.7-0.8c5.4-2.4,9.9-6.4,13-11.5c1.3-2,1.8-4.4,1.2-6.7c-0.5-1.8-1.8-3.4-3.5-4.2
	c-1-0.5-2-0.8-3.1-0.8c-1.7,0-3.4,0.6-4.7,1.8v-8.3c0.1-3.9-3-7.2-7-7.3C293.1,66.4,293,66.4,293,66.4z"/>
<path d="M338.7,94.5c-0.9,1.8-0.9,3.9-0.1,5.8c1.2,2.8,3.9,4.6,6.9,4.5c1,0,2.1-0.2,3.1-0.5c10-3.2,19.2-10.4,24.2-18.8
	c2.1-3.4,1.2-7.8-2.2-10c0,0-0.1,0-0.1-0.1c-1-0.6-2.2-1-3.5-1l0,0c-2.6,0-4.9,1.4-6.2,3.6c-1.4,2.3-3.1,4.3-5.1,6.1
	c0-0.6-0.1-1.2-0.3-1.8c1.4-0.5,2.6-1.5,3.4-2.8c2.2-3.7,1-8-2.9-10.4c-1.9-1.2-4-2-6.2-2.5c-0.7-0.1-1.3-0.2-2-0.2
	c-2.7-0.1-5.3,1.5-6.4,4l0,0l0,0c-0.7,1.5-0.8,3.2-0.4,4.9c-1.8,0.7-3.1,2-3.9,3.8c-1.6,3.6,0.1,7.8,3.7,9.3c0,0,0.1,0,0.1,0
	c1.2,0.6,2.3,1.1,3.6,1.8l-1,0.3C341.3,91.2,339.6,92.6,338.7,94.5z"/>
<path d="M390.4,72.7c-1.9-1.6-4-2.9-6.3-3.7c-1.2-0.5-2.4-0.7-3.6-0.8l0,0c-2.6,0-5,1.4-6.3,3.7c-2,3.5-0.7,8,2.8,10c0,0,0,0,0.1,0
	c1.4,0.8,2.7,1.8,4,2.8c1.5,1.2,3.3,1.9,5.2,1.9c2.2,0,4.3-1.1,5.7-2.8C394.5,80.4,393.9,75.7,390.4,72.7z"/>
<path d="M379.7,90.7c-2.1,0.6-3.8,2-4.8,3.9c-0.9,1.7-1,3.8-0.4,5.6c1,3,3.8,5,6.9,4.9c0.9,0,1.8-0.1,2.7-0.4
	c9.9-3,19.7-10.3,24.9-18.8c0.5-0.8,0.9-1.7,1.1-2.6c1.4,1.5,3.3,2.3,5.3,2.3h1.9c-1.1,2.6-2.9,4.8-5.2,6.4c-3.4,2.2-4.3,6.8-2,10.1
	c0,0,0,0,0,0c1.3,1.9,3.4,3,5.7,3c1.7,0,3.3-0.6,4.7-1.6c1-0.7,1.9-1.4,2.8-2.2c1,2,2.9,3.5,5.1,4c1.4,0.3,2.9,0.4,4.3,0.4
	c5.4,0,8.6-2.2,10.4-7c0.8-2.2,1.4-7.1,1.7-12.2c0.6,3.6,3.8,6.2,7.4,6.1h24.3c1.7,0,3.4-0.6,4.7-1.6c1,7.4,5.7,12.8,11.7,12.8
	c1.8,0,3.6-0.6,5.2-1.5c1.5,1.8,3.7,2.8,6,2.7c0.9,0,1.8-0.1,2.6-0.4c9.5-2.6,14.7-9.5,14.7-19.3c0-9.1-6-18.3-19.4-18.3
	c-8.9-0.2-16.9,5.5-19.8,13.9c-1.4-1.7-3.5-2.7-5.8-2.7H452c-3.3-0.1-6.3,2.1-7.2,5.3c0.1-1.4,0.1-2.8,0.1-4.1c0-0.5,0-1.1-0.1-1.6
	h0.1c2.9-1.1,4.6-4.2,3.7-7.2v-0.1c-0.5-1.9-1.5-3.7-2.9-5.1l0,0l0,0c-1.1-1.2-2.7-1.9-4.4-1.9l0,0c-1,0-1.9,0.2-2.8,0.7
	c-0.4,0.2-0.8,0.5-1.1,0.8c-0.6-0.2-1.1-0.3-1.7-0.3c-1,0-2.1,0.3-2.9,0.8c-0.5,0.3-1,0.7-1.4,1.2c-1.3-1.3-3.2-2.1-5.1-2.1
	c-3.9,0-7.1,3.2-7.1,7.1v0.3h-3.8c-3.1-0.1-5.9,1.9-6.8,4.9c-0.4-0.5-0.8-0.9-1.3-1.2c-1.1-0.8-2.5-1.3-3.9-1.3l0,0
	c-2.5,0.1-4.7,1.4-6.1,3.4C392.3,84.8,387.7,88.2,379.7,90.7z"/>
<path class="st0" d="M228.8,6.3c0,0.9-0.7,1.6-1.6,1.6h-9.4v18.9c0.1,0.9-0.6,1.8-1.6,1.8s-1.8-0.6-1.8-1.6c0-0.1,0-0.2,0-0.3V6.8
	c0-1.2,0.9-2.1,2.1-2.1c0,0,0,0,0,0h10.7C228.1,4.6,228.8,5.4,228.8,6.3z"/>
<path class="st0" d="M244,28.5l-0.7-0.9v9.7c0,1.5-1.3,2.7-2.8,2.7c-1.5,0-2.7-1.2-2.7-2.7c0,0,0,0,0,0V29l-0.7,0.7
	c-1.1,1.1-2.8,1.1-3.8,0c-1.1-1.1-1.1-2.8,0-3.8c0,0,0.1-0.1,0.1-0.1c3.1-2.9,5.5-6.4,7.2-10.2h-5.7c-1.4,0.1-2.6-1-2.7-2.4
	s1-2.6,2.4-2.7c0.1,0,0.2,0,0.3,0h3V7.2c0-1.5,1.2-2.7,2.7-2.7c0,0,0,0,0,0c1.5,0,2.8,1.2,2.8,2.7v3.2l0,0c1.8,0,3.3,1.5,3.3,3.3
	c0,0.4-0.1,0.9-0.2,1.3c-0.8,2.2-1.9,4.3-3,6.3l0.6,0.6l1.2-2c0.6-1,1.8-1.4,2.9-0.8c1,0.6,1.3,1.9,0.8,2.9c0,0-0.1,0.1-0.1,0.1
	l-1.8,2.4l0.8,0.7c1,1,1,2.6,0,3.5c-1,1-2.6,1-3.5,0C244.2,28.7,244.1,28.6,244,28.5z M266.3,10.3c-0.5,28.2-1.4,29.3-7,29.3h-2
	c-1.5,0.1-2.7-1.1-2.8-2.6c-0.1-1.5,1.1-2.7,2.6-2.8c0.1,0,0.2,0,0.3,0h0.9c1.5,0,2.1-0.3,2.5-22.1h-3.3c-0.3,11-1.5,20.3-7.3,26.2
	c-1,1.2-2.8,1.5-4,0.5c-1.2-1-1.5-2.8-0.5-4c0.1-0.2,0.3-0.4,0.5-0.5c5-5,5.7-12.7,5.9-22.1h-2.3c-1.5,0-2.7-1.1-2.7-2.6
	c0,0,0-0.1,0-0.1c0-1.4,1.2-2.6,2.6-2.6h13.2c1.9,0,3.4,1.5,3.4,3.3C266.3,10.2,266.3,10.3,266.3,10.3z"/>
<path class="st0" d="M304.5,19.1c0,1.2-1,2.2-2.2,2.1h-31.1c-1.2,0-2.1-1-2.1-2.1c0-1.2,1-2.2,2.1-2.2h7c-0.2-0.7-0.4-1.4-0.7-2
	c-0.4-0.9-0.2-2,0.5-2.7h-4.4c-1.2,0-2.2-1-2.2-2.1c0-1.2,1-2.2,2.1-2.2c0,0,0,0,0,0h10.1V7.3c-0.1-1.6,1.1-3,2.7-3.1
	c1.6-0.1,3,1.1,3.1,2.7c0,0.1,0,0.2,0,0.3v0.6h10.4c1.2,0,2.1,1,2.1,2.2s-1,2.2-2.1,2.2h-3.8c0.7,0.9,0.8,2.2,0.1,3.2l-1,1.6h7
	C303.5,16.9,304.5,17.8,304.5,19.1C304.5,19,304.5,19.1,304.5,19.1z M299.2,25.2v12.5c-0.2,1.4-1.4,2.5-2.9,2.3c-1,0-2-0.5-2.6-1.3
	h-13.8c-0.6,0.8-1.5,1.3-2.5,1.3c-1.4,0.1-2.6-0.9-2.8-2.2V25.2c0-1.6,1.2-2.8,2.8-2.9c0,0,0,0,0,0h18.9
	C297.9,22.3,299.1,23.6,299.2,25.2C299.2,25.1,299.2,25.2,299.2,25.2z M280.2,26.7v1.7h13.2v-1.7H280.2z M280.2,32.5v1.7h13.2v-1.7
	H280.2z M291.2,12.8l0.4-0.7h-9.4c0.2,0.2,0.3,0.4,0.4,0.7c0.4,0.8,0.7,1.7,1,2.6c0.1,0.5,0.1,1,0,1.5h6.3c-0.1-0.5-0.1-1.1,0.2-1.6
	L291.2,12.8z"/>
<path class="st0" d="M334,36.2c-0.8,1.8-2.7,2.2-4.6,1.2c-5.8-2.8-11.9-5-18.2-6.3c-1.7-0.2-2.8-1.8-2.6-3.5c0-0.2,0.1-0.3,0.1-0.5
	c0.5-1.4,1.6-2.2,3.7-2c4.7,0.5,15.9,4,19.5,6.3C333.9,32.8,334.7,34.5,334,36.2z M334.5,15c-0.7,1.8-2.4,2.4-4.2,1.6
	c-5-2.1-10.3-3.5-15.6-4.4c-1.7-0.1-2.9-1.6-2.8-3.2c0-0.2,0-0.3,0.1-0.5c0.3-1.5,1.6-2.4,3.8-2.2c4.1,0.4,12.6,2.4,16.5,4.4
	C334.3,11.7,335.2,13.2,334.5,15z M315,21.8c-1.6-0.2-2.7-1.6-2.5-3.2c0-0.1,0-0.2,0-0.3c0.3-1.4,1.6-2.4,3.6-2.1
	c4.7,0.6,9.2,1.9,13.5,3.9c1.8,0.8,2.9,2.3,2.1,4.2c-0.6,1.6-2.2,2-4.1,1.3C323.6,23.9,319.4,22.7,315,21.8z"/>
<path class="st0" d="M368.7,15.6c-2.6,10.6-8,18.6-17.8,22.6c-1.9,0.8-3.9,0.3-4.6-1.4s0.2-3.5,2.1-4.3c7-2.6,12.1-8.7,13.6-15.9
	h-8.8c-2,3.1-4.6,5.9-7.5,8.2c-1.5,1.1-3.3,1.2-4.5-0.1c-1.2-1.3-1-3.3,0.3-4.4c0.1-0.1,0.1-0.1,0.2-0.2c3.8-3.2,6.9-7.3,8.9-11.9
	c0.5-1.6,2.3-2.6,3.9-2c0.1,0,0.2,0.1,0.3,0.1c1.8,0.7,2.3,2.6,1.5,4.4l-0.2,0.6h9C367.9,11.3,369.2,13.3,368.7,15.6z"/>
<path class="st0" d="M387.6,17.6v20.1c0,1.1-0.9,2.1-2.1,2.1c0,0,0,0-0.1,0h-10.7c-0.9,0.1-1.7-0.6-1.8-1.5
	c-0.1-0.9,0.6-1.7,1.5-1.8c0.1,0,0.2,0,0.3,0h9.4v-19c0-0.9,0.8-1.7,1.7-1.7C386.9,15.9,387.6,16.6,387.6,17.6
	C387.6,17.6,387.6,17.6,387.6,17.6L387.6,17.6z"/>
<path class="st0" d="M429.9,28.4c0,6.4-5.3,10.2-15.2,10.2c-0.8,0-1.6-0.1-2.4-0.1c-2-0.3-3.3-1.5-3.2-3.2c0.1-1.5,1.3-2.7,3.5-2.4
	l1.8,0.2c7.3,0.3,9.6-2,9.6-4.4c0-1.9-1.3-3.5-4.6-3.5c-3,0-6.2,1.5-9.4,4.5c-1,1.1-2.6,1.4-4,0.8c-1.5-0.7-1.9-2.1-1.9-3.8
	c0-5.4,0.6-10,2.2-12.5c0.7-1.4,2.4-2.1,3.9-1.5c1.5,0.6,2,2.3,1.1,4c-1,2.2-1.5,4.5-1.4,6.9c3.1-2.2,6.8-3.4,10.6-3.3
	C426.2,20.2,429.9,23.6,429.9,28.4z M406.1,8.4c0.1-1.6,1.4-2.5,3.4-2.6c4.8,0,9.5,0.8,14,2.5c2,0.9,2.9,2.4,2.3,4.1
	s-2.4,2.2-4.2,1.6c-4.1-1.5-8.4-2.4-12.7-2.6c-1.5,0-2.8-1.2-2.8-2.8C406.1,8.6,406.1,8.5,406.1,8.4L406.1,8.4z"/>
<path class="st0" d="M141.8,76.6c-1,7.1-3.9,15.6-7.8,20.7c-1,1.6-3,2-4.6,1.1c-1.6-1-2-3-1.1-4.6c0.1-0.2,0.2-0.4,0.4-0.5
	c3.9-5.1,5.9-11,6.8-17.7c0.1-1.7,1.7-3,3.4-2.9c1.7,0.1,3,1.7,2.9,3.4C141.8,76.2,141.8,76.3,141.8,76.6L141.8,76.6z M161,93.1
	c0.5,2.5-0.6,4.2-2.4,4.6s-3.4-0.8-3.9-3c-1.9-7.8-3.6-11.9-7.1-17.6c-1.2-1.9-0.7-4,0.9-4.9c1.7-0.8,3.7-0.2,4.5,1.5
	C156.7,79.7,159.4,86.2,161,93.1z M152.7,69.9c-0.6-0.8-0.5-1.9,0.3-2.5c0.1-0.1,0.1-0.1,0.2-0.2c0.8-0.4,1.8-0.3,2.4,0.4
	c0.9,0.9,1.6,2.1,1.9,3.4c0.3,1-0.2,2-1.2,2.4c-1,0.4-2-0.1-2.4-1.1c0,0,0-0.1,0-0.1C153.6,71.5,153.2,70.7,152.7,69.9z M161.6,72.5
	c-1,0.4-2-0.1-2.4-1.1c0-0.1,0-0.1-0.1-0.2c-0.3-0.8-0.7-1.6-1.1-2.4c-0.6-0.8-0.5-1.9,0.3-2.5c0.1,0,0.1-0.1,0.2-0.1
	c0.8-0.4,1.8-0.2,2.3,0.5c0.9,0.9,1.6,2,1.9,3.2C163.1,71,162.6,72.1,161.6,72.5z"/>
<path class="st0" d="M197.3,84.3c0,1.7-1.4,3.1-3.1,3.1c-0.1,0-0.1,0-0.2,0h-24.4c-1.8,0.2-3.3-1.2-3.5-2.9c0-0.1,0-0.1,0-0.2
	c0-1.8,1.5-3.1,3.2-3.1c0.1,0,0.1,0,0.2,0H194c1.7-0.1,3.2,1.2,3.3,2.9C197.3,84.2,197.3,84.2,197.3,84.3z"/>
<path class="st0" d="M234.7,83.6c0,1.5-1.2,2.8-2.7,2.8c-0.1,0-0.2,0-0.3,0h-9.3c-0.5,5.9-2.7,11.2-10,13.7c-2,0.7-3.9,0.3-4.6-1.4
	c-0.7-1.6,0.1-3.4,1.7-4.1c0.1,0,0.2-0.1,0.3-0.1c4.8-1.8,6.1-3.5,6.5-8h-10.6c-1.5,0.1-2.9-1-3-2.6c0-0.1,0-0.1,0-0.2
	c0-1.5,1.3-2.7,2.8-2.7c0.1,0,0.1,0,0.2,0h10.7v-4.3c-2.4,0.3-4.7,0.5-6.8,0.6c-1.8,0-3-0.8-3.2-2.3c-0.2-1.4,0.8-2.8,2.2-3
	c0.2,0,0.4,0,0.6,0c6.2-0.1,12.3-1.4,18.1-3.6c1.5-0.6,2.9-0.3,3.6,0.9c0.8,1.3,0.4,3.1-1,3.9c-0.2,0.1-0.3,0.2-0.5,0.2
	c-2.2,0.9-4.4,1.6-6.7,2.1v5.4h9.2c1.5-0.1,2.7,1,2.8,2.5C234.7,83.4,234.7,83.5,234.7,83.6z"/>
<path class="st0" d="M266.5,83.6c-0.9,2.4-2.2,4.8-3.7,6.9c-1.2,1.7-3,2.1-4.2,1.1c-1.1-1-1.2-2.7-0.3-3.8c0.7-0.9,1.4-1.9,1.9-2.9
	l-6.6,1.3l2.4,11c0.4,1.5-0.4,3-1.9,3.4c-1.5,0.4-3-0.4-3.4-1.9c0-0.1-0.1-0.2-0.1-0.4l-2.4-11.1l-4,0.8c-1.4,0.4-2.8-0.3-3.2-1.7
	c0-0.1-0.1-0.2-0.1-0.3c-0.3-1.5,0.7-2.9,2.2-3.2c0,0,0.1,0,0.1,0l3.9-0.8l-0.8-3.6c-0.5-1.5,0.3-3,1.8-3.5s3,0.3,3.5,1.8
	c0.1,0.2,0.1,0.4,0.1,0.6l0.8,3.7l10.1-2C265.9,78.5,267.5,81.1,266.5,83.6z"/>
<path class="st0" d="M285.5,73.1v9.2c0,6.7-1.7,12.5-7.8,16.7c-1.8,1.2-3.8,1-4.9-0.4c-1-1.5-0.7-3.6,0.8-4.6c0.1,0,0.1-0.1,0.2-0.1
	c4.6-3.2,5.6-6.2,5.6-11.8v-8.9c0-1.7,1.4-3,3-3S285.4,71.4,285.5,73.1L285.5,73.1z M306.7,88.7c-2.6,4.4-6.5,7.8-11.1,9.9
	c-3.2,1.4-5.7-0.3-5.7-3.6V72.6c-0.1-1.7,1.1-3.2,2.8-3.3c1.7-0.1,3.2,1.1,3.3,2.8c0,0.2,0,0.3,0,0.5v18.3c2.3-1.5,4.3-3.5,5.8-5.9
	c1.2-1.8,2.6-2.4,4.2-1.7C307.8,84.3,308.1,86.4,306.7,88.7z"/>
<path class="st0" d="M327.3,84.2c0,2.5-2,4.4-4.4,4.4c-2.5,0-4.4-2-4.4-4.4c0-2.5,2-4.4,4.4-4.4C325.3,79.8,327.3,81.8,327.3,84.2z"
	/>
<path class="st0" d="M342.3,83.8c-1.6-0.6-2.4-2.4-1.8-4c0,0,0-0.1,0.1-0.1c0.6-1.4,2-2.2,4-1.7c1.9,0.5,3.7,1.3,5.3,2.4
	c1.6,0.9,2.1,2.9,1.3,4.5c-0.8,1.5-2.7,2.1-4.2,1.2c-0.1,0-0.1-0.1-0.2-0.1C345.2,85.2,343.8,84.5,342.3,83.8z M369.3,82.4
	c-4.1,7-12.4,14-21.9,17c-2.5,0.8-4.4,0.1-5.1-1.7c-0.7-1.6,0-3.4,1.6-4.1c0.2-0.1,0.4-0.2,0.6-0.2c8.6-2.6,14.9-6.7,19.6-14.2
	c0.8-1.5,2.7-2.2,4.2-1.4c0,0,0,0,0,0C369.9,78.9,370.3,80.9,369.3,82.4C369.3,82.4,369.3,82.4,369.3,82.4L369.3,82.4z M344.8,71.1
	c0.6-1.3,2-2,4-1.6c1.7,0.4,3.4,1.1,4.9,2c1.9,1.2,2.7,3.1,1.6,4.9c-1,1.4-3,1.8-4.4,0.8c-1.4-0.8-2.9-1.5-4.4-2.1
	c-1.5-0.5-2.3-2.2-1.8-3.8C344.7,71.3,344.7,71.2,344.8,71.1L344.8,71.1z"/>
<path class="st0" d="M377.7,72.8c1-1.7,2.7-2.1,4.9-1.2c1.9,0.7,3.7,1.8,5.2,3.1c1.9,1.6,2.3,3.9,1,5.5s-3.2,1.9-5.2,0.2
	c-1.4-1.2-2.9-2.2-4.5-3.1C377.5,76.4,376.8,74.4,377.7,72.8z M405.5,82.7c-4.2,6.8-12.8,14.1-22.6,17c-2,0.6-3.9,0.1-4.6-1.9
	s0.4-3.7,2.6-4.4c9.3-2.9,14.5-7.1,19.6-14.3c1.2-1.7,3-2.2,4.4-1.2S406.6,81,405.5,82.7z"/>
<path class="st0" d="M440.9,78.3c-0.2,8.1-0.9,15.7-1.7,17.9c-1.1,3-2.7,4.4-6.6,4.4c-1.2,0-2.3-0.1-3.5-0.3
	c-1.5-0.3-2.6-1.5-2.7-3.1c0-1.9,1.3-3.2,3.5-3c0.6,0.1,1.1,0.1,1.7,0.1c0.9,0,1.3-0.1,1.7-0.7c0.9-1.4,1.3-8.3,1.3-13.1h-6.1
	c-1.3,7.6-4.1,14.2-10.5,18.7c-1.7,1.2-3.7,1.1-4.8-0.4c-1-1.5-0.6-3.6,1-4.6c0,0,0,0,0,0c5.1-3.6,7.2-8.1,8.2-13.6h-7.1
	c-1.6,0.1-2.9-1.1-3-2.6c0-0.1,0-0.1,0-0.2c0-1.5,1.3-2.8,2.8-2.7c0.1,0,0.1,0,0.2,0h7.7l0.1-4.2c-0.1-1.7,1.3-3.2,3-3.2
	c0,0,0,0,0.1,0c1.7,0,3.1,1.3,3.1,3c0,0.1,0,0.2,0,0.4c0,1.4-0.1,2.7-0.2,4.1h8.7c1.7-0.1,3.1,1.2,3.1,2.8
	C441,77.9,440.9,78.1,440.9,78.3z M434.3,70.6c-0.6-0.8-0.5-2,0.3-2.6c0.1,0,0.1-0.1,0.2-0.1c0.8-0.4,1.8-0.2,2.4,0.4
	c0.9,1,1.6,2.2,1.9,3.5c0.3,1-0.2,2.1-1.2,2.5c-1,0.3-2.1-0.2-2.4-1.2c0,0,0-0.1,0-0.1C435.1,72.2,434.8,71.4,434.3,70.6z M443.6,73
	c-0.9,0.4-2-0.1-2.4-1c0-0.1-0.1-0.2-0.1-0.3c-0.3-0.8-0.7-1.7-1.2-2.4c-0.6-0.8-0.5-1.9,0.3-2.6c0.1,0,0.1-0.1,0.2-0.1
	c0.8-0.4,1.8-0.2,2.4,0.5c0.9,0.9,1.6,2.1,1.9,3.3C445.1,71.5,444.6,72.6,443.6,73z"/>
<path class="st0" d="M479.7,84.3c0,1.7-1.4,3.1-3.1,3.1c-0.1,0-0.2,0-0.2,0h-24.3c-1.8,0.2-3.3-1.2-3.5-2.9c0-0.1,0-0.1,0-0.2
	c0-1.8,1.5-3.1,3.2-3.1c0.1,0,0.2,0,0.2,0h24.4c1.7-0.1,3.2,1.2,3.3,2.9C479.7,84.2,479.7,84.2,479.7,84.3z"/>
<path class="st0" d="M517.3,84.3c0,6.8-2.9,12.9-11.8,15.4c-2.4,0.7-4.4-0.2-4.9-1.9c-0.7-2.1,0.5-3.7,2.7-4.4
	c5.8-1.7,7.8-4.1,7.8-9.2c0-4.3-2.4-7.9-7.2-8.6c-0.6,13.6-4.7,22.9-11.1,22.9c-4.9,0-7.9-5.8-7.9-11.6c-0.1-9.3,7.3-16.9,16.5-17
	c0.2,0,0.3,0,0.5,0C512.8,69.9,517.3,77,517.3,84.3z M498.1,76.2c-4.6,1.4-7.7,5.8-7.5,10.7c0,3.2,1,5.2,2.4,5.2
	C494.8,92.1,497.6,86.8,498.1,76.2L498.1,76.2z"/>
<path class="st0" d="M85.5,143.8c0,1.1-0.9,2-2,2H67.2v15.5c0,1.5-1.2,2.7-2.7,2.7c-1.5,0-2.7-1.2-2.7-2.7v-1.7l-9,1.2
	c-1.2,0.1-2.3-0.8-2.4-2c-0.1-1.2,0.8-2.3,2-2.4l1.2-0.1v-10.5h-1.6c-1.1,0-2-0.9-2-2s0.9-2,2-2h31.3
	C84.6,141.8,85.5,142.7,85.5,143.8z M54.4,138.3V132c0-1.4,1.1-2.5,2.5-2.5h21.8c1.4,0,2.5,1.1,2.5,2.5v6.3c0,1.4-1.1,2.5-2.5,2.5
	H56.9C55.5,140.8,54.4,139.7,54.4,138.3z M61.9,145.8H59v1.1h2.9L61.9,145.8z M61.9,150.2H59v1.1h2.9L61.9,150.2z M61.9,154.7H59
	v1.3l2.9-0.2L61.9,154.7z M59.9,133.8h15.6v-1H59.9L59.9,133.8z M59.9,137.6h15.6v-1H59.9L59.9,137.6z M84.1,161.7
	c-0.4,1.2-1.7,1.9-2.9,1.6c-0.1,0-0.2-0.1-0.2-0.1c-1.9-0.7-3.7-1.7-5.3-2.9c-1.6,1.2-3.3,2.2-5.2,3c-1.1,0.5-2.5-0.1-2.9-1.2
	c0-0.1,0-0.1-0.1-0.2c-0.4-1.1,0.2-2.3,1.3-2.8c1.2-0.5,2.3-1.1,3.4-1.9c-0.9-1-1.7-2-2.4-3.1c-0.7-1-0.4-2.4,0.7-3.1
	c0.1,0,0.2-0.1,0.2-0.1l0.2-0.1H70c-1.1,0-2.1-0.9-2.1-2.1c0-1.1,0.9-2.1,2.1-2.1c0,0,0,0,0,0h9.8c1.5,0,2.7,1.2,2.7,2.7
	c0,0.3,0,0.5-0.1,0.8c-0.7,2.5-1.9,4.8-3.5,6.8c1.2,0.7,2.4,1.3,3.7,1.8C83.8,159.3,84.4,160.5,84.1,161.7L84.1,161.7z M77,150.8
	h-4.5c0.4,0.2,0.8,0.5,1.1,0.9c0.5,0.8,1.1,1.6,1.7,2.3C76,153,76.6,152,77,150.8z"/>
<path class="st0" d="M103,157.3c-0.9,0.8-2.3,0.8-3.2-0.2c0,0,0,0,0,0l-0.7-0.8v5c0,1.5-1.2,2.7-2.7,2.7c-1.5,0-2.7-1.2-2.7-2.7
	v-3.2l-1.4,1.7c-0.9,1-2.5,1.1-3.5,0.2c-1-0.9-1.1-2.5-0.2-3.5c0.1-0.1,0.1-0.1,0.2-0.2c1.8-1.5,3.3-3.2,4.5-5.1h-3.5
	c-1.2,0-2.2-1-2.2-2.3c0-1.2,1-2.2,2.2-2.2h3.8v-2h-4.1c-1.2,0-2.2-1-2.2-2.2s1-2.2,2.2-2.2h1c-0.1-1.3-0.3-2.6-0.6-3.9
	c-1.1-0.1-2-1-2-2.1c0-1.2,0.9-2.2,2.1-2.2h3.6v-0.9c0-1.5,1.2-2.7,2.7-2.7c1.5,0,2.7,1.2,2.7,2.7v0.9h3.5c1.2,0,2.2,1,2.2,2.2
	c0,0.9-0.6,1.7-1.4,2l-1.3,4h0.7c1.2,0,2.2,1,2.2,2.2s-1,2.2-2.2,2.2h-3.7v2h3.4c1.2,0,2.2,1,2.2,2.2c0,1.2-1,2.2-2.2,2.3h-3.4
	l3.7,2.9c1,0.8,1.1,2.2,0.4,3.1C103.1,157.2,103.1,157.3,103,157.3z M98.2,136.3h-3.7c0.3,1.3,0.5,2.6,0.6,3.9h2.3L98.2,136.3z
	 M122.9,143.1c0,1.4-1.1,2.6-2.5,2.6h0h-0.8v15.6c0,1.5-1.2,2.8-2.8,2.8s-2.8-1.2-2.8-2.8v-15.6h-2.6v1.8c0,5.3-0.8,10.3-3.8,14.4
	c-1,1.3-2.8,1.6-4.1,0.6c-0.1-0.1-0.2-0.1-0.3-0.2c-1-1-1.2-2.6-0.3-3.8c2.4-3.2,3-6.8,3-11v-12.9c0-0.9,0.7-1.7,1.6-1.7
	c0,0,0,0,0.1,0c3.4-0.7,6.7-1.7,9.8-3.2c1.2-0.6,2.7-0.2,3.4,1c0.7,1.2,0.3,2.8-0.9,3.5c-0.1,0.1-0.2,0.1-0.3,0.1
	c-2.6,1.1-5.4,2-8.1,2.7v3.6h9C121.7,140.6,122.8,141.7,122.9,143.1L122.9,143.1z"/>
<path class="st0" d="M135.5,138.4l-0.4-1.5v24.2c0,1.5-1.3,2.7-2.8,2.7c-1.5,0-2.7-1.2-2.7-2.7c0,0,0,0,0,0v-22.7
	c-0.1,1.8-0.4,3.6-0.8,5.3c-0.3,1.1-1.5,1.8-2.6,1.5c-1.1-0.3-1.8-1.5-1.5-2.6c0.5-1.6,0.8-3.3,0.9-5c0.1-1.1,1.1-1.9,2.2-1.8
	c0.9,0,1.7,0.7,1.9,1.6v-6.3c0-1.5,1.2-2.7,2.7-2.7c1.5,0,2.8,1.2,2.8,2.7v3.5c0.2-0.4,0.5-0.7,0.9-0.8c1-0.4,2.2,0.1,2.6,1.1
	c0.3,0.9,0.6,1.6,0.8,2.4c0.4,1-0.2,2.2-1.2,2.5c-0.1,0-0.2,0.1-0.4,0.1C136.8,140.2,135.8,139.5,135.5,138.4z M159.7,142.6
	c0,1.1-0.9,2-2,2H139c-1.1,0-2-0.9-2-2c0-1.1,0.9-2,2-2h6.6v-0.9h-4c-1.1,0-2-0.8-2-1.9c0,0,0,0,0-0.1c0-1.1,0.9-2,2-2h4V135h-5.5
	c-1.1,0-2-0.9-2-2s0.9-2,2-2h5.5v-0.3c0.2-1.4,1.4-2.4,2.9-2.3c1.6,0,2.9,1,2.9,2.3v0.3h5.6c1.1,0,2,0.9,2,2s-0.9,2-2,2h-5.6v0.9h4
	c1.1,0,2,0.9,2,2c0,1.1-0.9,1.9-1.9,1.9c0,0,0,0-0.1,0h-4v0.9h6.4C158.8,140.6,159.7,141.5,159.7,142.6L159.7,142.6z M157.6,148.4
	v10.7c0,3.6-1.1,4.5-4.8,4.5c-0.4,0-0.9,0-1.4,0c-1.2,0-2.2-1-2.2-2.2c0-1.2,1-2.2,2.2-2.2c0.6,0,0.7-0.1,0.7-0.6v-0.4h-7.2v3.1
	c-0.1,1.5-1.4,2.7-2.9,2.6c-1.4-0.1-2.5-1.2-2.6-2.6v-12.8c0-1.7,1.3-3,3-3h12.1C156.1,145.4,157.5,146.7,157.6,148.4z M144.8,149.5
	v0.9h7.2v-0.9H144.8z M152.1,154.6v-0.9h-7.2v0.9H152.1z"/>
<path class="st0" d="M177.1,142h-0.7c0.7,0.6,0.9,1.6,0.5,2.4l-0.8,1.8h0.5c1.2,0,2.2,1,2.2,2.2s-1,2.2-2.2,2.2l0,0h-3.3v2h2.6
	c1.2,0,2.2,1,2.2,2.2s-1,2.2-2.2,2.2l0,0h-2.6v4.1c0,1.5-1.2,2.7-2.7,2.7c0,0,0,0,0,0c-1.5,0-2.7-1.2-2.7-2.7c0,0,0,0,0,0v-4.1H165
	c-1.2,0-2.2-1-2.2-2.2s1-2.2,2.2-2.2h2.9v-2h-3.7c-1.2,0-2.2-1-2.2-2.2s1-2.2,2.2-2.2h0.6l-0.4-2c-0.2-0.8,0.1-1.7,0.7-2.2h-1.3
	c-1.2,0.1-2.3-0.8-2.3-2c-0.1-1.2,0.8-2.3,2-2.3c0.1,0,0.2,0,0.3,0h4.1V136h-2.5c-1.2,0-2.1-0.9-2.1-2.1c0,0,0,0,0,0
	c0-1.2,0.9-2.1,2.1-2.1c0,0,0,0,0,0h2.5v-0.7c0-1.5,1.2-2.7,2.7-2.7c0,0,0,0,0,0c1.5,0,2.7,1.2,2.7,2.7c0,0,0,0,0,0v0.7h2.3
	c1.2,0,2.1,0.9,2.1,2.1c0,0,0,0,0,0c0,1.2-0.9,2.1-2.1,2.1c0,0,0,0,0,0h-2.3v1.6h3.7c1.2-0.1,2.3,0.8,2.3,2c0.1,1.2-0.8,2.3-2,2.3
	C177.3,142,177.2,142,177.1,142L177.1,142z M173.4,142h-5.8c0.4,0.3,0.6,0.6,0.7,1.1c0.3,1,0.5,2.1,0.7,3.1h2.9l0.9-3.1
	C172.9,142.7,173.1,142.3,173.4,142z M195.9,161.5c-0.7,1.3-2.3,1.8-3.6,1.1c-0.1-0.1-0.2-0.1-0.3-0.2c-0.7-0.5-1.4-1.1-2-1.7
	l-1.3,1.4c-1,1-2.7,0.9-3.7-0.1c-0.1-0.1-0.1-0.1-0.2-0.2c-0.3,1.4-1.8,2.3-3.2,2c-1.2-0.3-2.1-1.4-2.1-2.6v-28.4
	c0-1.7,1.4-3.1,3.1-3.1h10.1c1.7,0,3.1,1.4,3.1,3.1v5c0,3.6-1,4.5-4.6,4.5h-1.7c-1.3-0.1-2.2-1.2-2.1-2.4c0.1-1.1,1-2,2.1-2.1h0.1
	c0.6,0,0.8-0.1,0.8-0.5v-2.4h-5.7v8.3h7.8c1.7,0,3.1,1.4,3.1,3.1c0,0.2,0,0.4,0,0.5c-0.5,3.4-1.5,6.7-3,9.8c0.7,0.6,1.4,1.2,2.1,1.7
	C196,158.9,196.5,160.3,195.9,161.5L195.9,161.5z M190.3,147.8h-5.4v1.6c0.3-0.3,0.6-0.5,1-0.6c1.2-0.3,2.4,0.3,2.9,1.4l0.6,1.4
	C189.7,150.4,190,149.1,190.3,147.8L190.3,147.8z M186.6,156.7c-0.7-1.1-1.3-2.2-1.8-3.3v5.2l0.3-0.3
	C185.7,157.9,186.2,157.3,186.6,156.7L186.6,156.7z"/>
<path class="st0" d="M231,147.2c-2,0.5-4.2,1.2-6.3,1.9c0.1,1,0.2,2.1,0.2,3.3c0,2-1.1,3.4-2.9,3.4s-2.9-1.2-2.8-3.2v-1.2
	c-2.4,1.3-4,2.6-4,3.8c0,1.6,2.2,2.1,6.7,2.1c2.2-0.1,4.3-0.2,6.4-0.6c2.1-0.3,3.4,0.2,3.7,1.7s-0.6,3-2.8,3.4
	c-2.3,0.4-4.7,0.6-7,0.5c-8.8,0-12.9-2.2-12.9-6.8c0-3.8,4.1-7,8.8-9.4c-0.3-0.5-0.9-0.7-1.4-0.7c-2.2,0.3-4.2,1.3-5.8,2.8
	c-0.6,0.6-1.5,1.6-2.5,2.8c-1.4,1.6-3.3,1.7-4.6,0.6c-1.2-1.3-1.1-3.3,0.2-4.5c0,0,0,0,0,0c2.2-2.4,4.1-5.1,5.6-8h-3.9
	c-1.4,0.1-2.6-1-2.7-2.4c0-0.1,0-0.1,0-0.2c0-1.4,1.1-2.5,2.5-2.5c0.1,0,0.2,0,0.3,0h6.1l0.6-1.9c0.2-1.7,1.7-3,3.4-2.8
	c1.7,0.2,3,1.7,2.8,3.4c0,0.3-0.1,0.7-0.3,1l-0.1,0.2h7.7c1.3-0.2,2.5,0.8,2.7,2.1c0,0.1,0,0.3,0,0.4c0,1.4-1.1,2.5-2.4,2.6
	c-0.1,0-0.2,0-0.3,0H216c-0.5,1-1.2,1.9-1.9,2.7c1.3-0.7,2.8-1,4.3-1c2.1-0.1,4,1.1,4.9,3c2-0.8,4-1.5,6-2.1
	c1.8-0.5,3.6-0.3,4.1,1.5S232.9,146.7,231,147.2z"/>
<path class="st0" d="M273.6,157.9c-0.6,4.4-1.9,5.1-5.6,5.1h-3.4c-5,0-6.2-1.4-6.2-7.8v-2h-3.4c-0.7,3.8-3.3,7.2-9.5,10.2
	c-1.3,0.6-2.8,0.1-3.4-1.2c0-0.1,0-0.1-0.1-0.2c-0.5-1.3,0-2.7,1.3-3.3c3.6-1.7,5.3-3.5,6-5.5h-5.9c-1.3,0-2.4-1.1-2.4-2.4
	c0-1.3,1.1-2.3,2.4-2.3h6.3v-2.9c-0.8,0-1.4-0.4-1.9-1.1c-1.3,1-2.8,1.9-4.2,2.7c-1.2,0.6-2.7,0.1-3.3-1.1c0,0,0-0.1-0.1-0.1
	c-0.5-1.2,0-2.5,1.2-3.1c1.5-0.7,2.9-1.6,4.2-2.7c-0.6-0.6-1.3-1.2-2-1.8c-0.9-0.7-1.1-2.1-0.4-3c0.7-0.9,2-1.2,3-0.5l2.4,1.8
	c0.6-0.8,1-1.6,1.4-2.4h-5.9c-1.3,0-2.3-1-2.3-2.3s1-2.3,2.3-2.3l0,0h8.8c1.7,0,3,1.3,3,3c0,0.4-0.1,0.8-0.2,1.1
	c-1,2.6-2.4,5-4.2,7.2h10.9c-2.1-2.5-3.7-5.4-4.9-8.4c-0.5-1.3,0.1-2.7,1.4-3.2c0.1,0,0.1,0,0.2-0.1c1.3-0.4,2.6,0.3,3.1,1.5
	l0.8,1.8l2.7-2.3c1-0.8,2.4-0.7,3.3,0.3c0.8,1,0.7,2.4-0.3,3.3c-1,0.8-2.2,1.6-3.4,2.4l0.9,1.1c1.1-0.8,2.1-1.6,2.9-2.4
	c1-0.9,2.5-0.9,3.4,0.1s0.9,2.5-0.1,3.4c-0.1,0.1-0.2,0.2-0.4,0.3l-2.5,1.7c0.8,0.6,1.7,1.1,2.6,1.6c1.3,0.7,1.8,2.2,1.3,3.5
	c-0.6,1.4-2.2,2-3.6,1.4c-0.1,0-0.2-0.1-0.2-0.1c-1.2-0.7-2.4-1.4-3.4-2.3c-0.4,0.7-1.2,1.1-2,1.1H264v2.9h6.4c1.3,0,2.3,1,2.3,2.3
	c0,1.3-1,2.4-2.3,2.4c0,0,0,0,0,0H264v2c0,2.2,0.2,2.5,1.1,2.5h2.5c0.4,0,0.6-0.1,0.7-0.6c0.2-1.5,1.6-2.5,3-2.3
	C272.7,155,273.8,156.4,273.6,157.9L273.6,157.9z M258.4,145.6h-3.2v2.9h3.2V145.6z"/>
<path class="st0" d="M288.6,132.6c-0.5,1.7-1.1,3.4-1.8,5.1v23.5c0,1.5-1.2,2.8-2.7,2.8c0,0,0,0-0.1,0c-1.5,0-2.8-1.2-2.8-2.7
	c0,0,0,0,0,0v-12.7c-1,1.1-2.8,1.3-3.9,0.2c-1.1-0.9-1.2-2.5-0.4-3.7c2.9-4.3,5-9,6.3-14c0.4-1.5,1.9-2.3,3.4-2
	c1.5,0.4,2.4,1.9,2.1,3.4C288.6,132.5,288.6,132.5,288.6,132.6z M311.6,137.3c0,1.3-1.1,2.4-2.5,2.4h-19c-1.4,0.1-2.5-0.9-2.6-2.3
	c-0.1-1.4,0.9-2.5,2.3-2.6c0.1,0,0.2,0,0.3,0h19C310.5,134.8,311.5,135.9,311.6,137.3z M309.5,154.1v7.7c-0.2,1.4-1.4,2.3-2.8,2.2
	c-0.9,0-1.8-0.4-2.4-1.1H295c-0.6,0.7-1.4,1.1-2.4,1.1c-1.3,0.1-2.5-0.8-2.7-2.1v-7.8c0-1.7,1.3-3,3-3h13.6
	C308.2,151.1,309.5,152.4,309.5,154.1C309.5,154.1,309.5,154.1,309.5,154.1z M290.4,142.8c0-1.2,0.9-2.1,2.1-2.1c0,0,0,0,0,0H307
	c1.2,0,2.1,0.9,2.1,2.1c0,0,0,0,0,0c0,1.2-0.9,2.1-2.1,2.1c0,0,0,0,0,0h-14.5C291.3,144.9,290.3,144,290.4,142.8
	C290.3,142.8,290.3,142.8,290.4,142.8z M290.4,148c0-1.1,0.9-2.1,2.1-2.1c0,0,0,0,0.1,0H307c1.1,0,2.1,0.9,2.1,2c0,0,0,0,0,0.1
	c0,1.2-0.9,2.1-2.1,2.1c0,0,0,0,0,0h-14.5C291.3,150.1,290.3,149.2,290.4,148C290.3,148,290.3,148,290.4,148L290.4,148z
	 M291.2,131.7c0-1.2,1-2.2,2.1-2.2h12.8c1.2,0,2.2,1,2.2,2.2c0,1.2-1,2.1-2.2,2.1h-12.8C292.2,133.8,291.2,132.9,291.2,131.7
	C291.2,131.7,291.2,131.7,291.2,131.7L291.2,131.7z M303.9,155.6h-8.6v2.6h8.6V155.6z"/>
<path class="st0" d="M347,136.4c0,1.4-1.1,2.6-2.6,2.6c-0.1,0-0.3,0-0.4,0h-6.7c0,3.1,0,5.7,0,7.5c0.2,0.8,0.3,1.6,0.3,2.4
	c0,6.6-2.4,12.4-11.7,14.5c-1.9,0.4-3.4-0.3-3.9-1.8c-0.4-1.7,0.5-3.1,2.5-3.5c3.1-0.7,4.8-1.7,5.8-3c-0.8,0.2-1.5,0.2-2.3,0.3
	c-4.5,0-7.3-2.8-7.3-7.2s3-7.6,7.8-7.6c0.9,0,1.9,0.1,2.8,0.3c0-0.6,0-1.3,0-1.9h-13.1c-1.7,0-3-1-3-2.6c0-1.4,1.1-2.6,2.6-2.6
	c0.1,0,0.2,0,0.3,0h13c0-0.3,0-0.6,0-0.9c-0.3-1.7,0.9-3.3,2.6-3.5c0.1,0,0.3,0,0.4,0c1.8-0.1,3.3,1.2,3.4,3c0,0.1,0,0.3,0,0.4v1
	h6.4C345.7,133.8,347,134.7,347,136.4z M328.9,150.6c1.4,0.1,2.6-1,2.6-2.4c0,0,0-0.1,0-0.1v-0.6c-0.1-1.3-1.3-2.3-2.6-2.2
	c0,0-0.1,0-0.1,0c-1.4,0.1-2.5,1.3-2.4,2.7C326.4,149.4,327.5,150.5,328.9,150.6L328.9,150.6z"/>
<path class="st0" d="M379.8,152c0,6.3-4.2,10.5-13.2,10.5c-6.4,0-9.8-2.6-9.8-6.6c0-3.4,3.1-6.1,7.7-6.1c4.3,0,6.9,2,7.7,6.3
	c1.2-1,1.8-2.4,1.7-3.9c0-2.8-2.4-5.3-5.9-5.3c-1.1,0-2.1,0.2-3.2,0.4c-3.5,1.3-6.6,3.4-9.3,6c-1,1.2-2.8,1.3-4,0.2
	c-0.1-0.1-0.3-0.2-0.4-0.4c-1-1.3-0.8-3.2,0.5-4.2c0.1,0,0.1-0.1,0.2-0.1c4.9-3.6,9.5-7.6,13.8-11.9c-2.3,0.2-5.6,0.7-9,0.8
	c-2,0.1-3.5-1-3.5-2.9c-0.1-1.6,1.1-2.9,3.2-2.9c5.1,0,10.2-0.4,15.3-1c1.5-0.2,2.8-0.1,3.6,1.1c0.9,1.4,0.6,3.2-0.7,4.2l-7.1,5.9
	c0.9-0.1,1.8-0.2,2.7-0.1C376.3,142.1,379.8,146.9,379.8,152z M367.4,157.6c-0.3-2.1-1.2-3.2-2.9-3.2s-2.5,0.6-2.5,1.5
	s1.1,1.7,4.1,1.7C366.5,157.6,367,157.6,367.4,157.6L367.4,157.6z"/>
<path class="st0" d="M394.9,138.4l-0.4-1.5v24.2c0,1.5-1.3,2.7-2.8,2.7c-1.5,0-2.7-1.2-2.7-2.7c0,0,0,0,0,0v-22.7
	c-0.1,1.8-0.4,3.6-0.8,5.3c-0.3,1.1-1.5,1.8-2.6,1.5c-1.1-0.3-1.8-1.5-1.5-2.6l0,0c0.5-1.6,0.8-3.3,0.9-5c0.1-1.1,1.1-1.9,2.1-1.8
	c0.9,0,1.7,0.7,1.9,1.6v-6.3c0-1.5,1.2-2.7,2.7-2.7c1.5,0,2.8,1.2,2.8,2.7v3.5c0.2-0.4,0.5-0.7,0.9-0.8c1-0.4,2.2,0.1,2.6,1.1
	c0.3,0.9,0.6,1.6,0.8,2.4c0.4,1-0.2,2.2-1.2,2.5c-0.1,0-0.2,0.1-0.4,0.1C396.2,140.2,395.1,139.5,394.9,138.4z M419.1,142.6
	c0,1.1-0.9,2-2,2h-18.7c-1.1,0-2-0.9-2-2c0-1.1,0.9-2,2-2h6.6v-0.9h-4c-1.1,0-2-0.8-2-1.9c0,0,0,0,0-0.1c0-1.1,0.9-2,2-2h4V135h-5.5
	c-1.1,0-2-0.9-2-2s0.9-2,2-2h5.5v-0.3c0.2-1.4,1.4-2.4,2.9-2.3c1.6,0,2.9,1,2.9,2.3v0.3h5.6c1.1,0,2,0.9,2,2s-0.9,2-2,2h-5.6v0.9h4
	c1.1,0,2,0.9,2,2c0,1.1-0.9,1.9-1.9,1.9c0,0,0,0-0.1,0h-4v0.9h6.3C418.1,140.6,419,141.4,419.1,142.6
	C419.1,142.6,419.1,142.6,419.1,142.6L419.1,142.6z M416.9,148.4v10.7c0,3.6-1.1,4.5-4.8,4.5c-0.4,0-0.9,0-1.4,0
	c-1.2,0-2.2-1-2.2-2.2c0-1.2,1-2.2,2.2-2.2c0.5,0,0.7-0.1,0.7-0.6v-0.4h-7.2v3.1c-0.1,1.5-1.4,2.7-2.9,2.6c-1.4-0.1-2.5-1.2-2.6-2.6
	v-12.8c0-1.7,1.3-3,3-3h12.1C415.5,145.4,416.9,146.7,416.9,148.4L416.9,148.4z M404.2,149.5v0.9h7.2v-0.9H404.2z M411.4,154.6v-0.9
	h-7.2v0.9H411.4z"/>
<path class="st0" d="M436.2,142h-0.7c0.7,0.6,0.9,1.6,0.5,2.4l-0.8,1.8h0.5c1.2,0,2.2,1,2.2,2.2s-1,2.2-2.2,2.2l0,0h-3.3v2h2.6
	c1.2,0,2.2,1,2.2,2.2s-1,2.2-2.2,2.2h-2.6v4.1c0,1.5-1.2,2.7-2.7,2.7c0,0,0,0,0,0c-1.5,0-2.7-1.2-2.7-2.7v-4.1h-2.9
	c-1.2,0-2.2-1-2.2-2.2s1-2.2,2.2-2.2h2.9v-2h-3.7c-1.2,0-2.2-1-2.2-2.2s1-2.2,2.2-2.2h0.6l-0.5-2c-0.2-0.8,0.1-1.7,0.7-2.2h-1.3
	c-1.2,0.1-2.3-0.8-2.3-2c-0.1-1.2,0.8-2.3,2-2.3c0.1,0,0.2,0,0.3,0h4.1V136h-2.5c-1.2,0-2.1-0.9-2.1-2.1c0,0,0,0,0,0
	c0-1.2,0.9-2.1,2.1-2.1c0,0,0,0,0,0h2.5v-0.7c0-1.5,1.2-2.7,2.7-2.7c1.5,0,2.7,1.2,2.7,2.7c0,0,0,0,0,0v0.7h2.3
	c1.2,0,2.1,0.9,2.1,2.1c0,0,0,0,0,0c0,1.2-0.9,2.1-2.1,2.1c0,0,0,0,0,0h-2.3v1.6h3.7c1.2-0.1,2.3,0.8,2.3,2c0.1,1.2-0.8,2.3-2,2.3
	C436.4,142,436.3,142,436.2,142L436.2,142z M432.5,142h-5.8c0.3,0.3,0.6,0.6,0.7,1.1c0.3,1,0.5,2.1,0.7,3.1h2.9l0.9-3.1
	C432,142.7,432.2,142.3,432.5,142z M455,161.6c-0.7,1.3-2.3,1.8-3.6,1.1c-0.1-0.1-0.2-0.1-0.3-0.2c-0.7-0.5-1.4-1.1-2-1.7l-1.3,1.4
	c-1,1-2.7,0.9-3.7-0.1c-0.1-0.1-0.1-0.1-0.2-0.2c-0.3,1.4-1.8,2.3-3.2,2c-1.2-0.3-2.1-1.4-2.1-2.6v-28.5c0-1.7,1.4-3.1,3.1-3.1h10.1
	c1.7,0,3.1,1.4,3.1,3.1v5c0,3.6-1,4.5-4.6,4.5h-1.7c-1.3-0.1-2.2-1.2-2.1-2.4c0.1-1.1,1-2,2.1-2.1h0.1c0.6,0,0.8-0.1,0.8-0.5v-2.4
	H444v8.3h7.8c1.7,0,3.1,1.4,3.1,3.1c0,0.2,0,0.4,0,0.5c-0.5,3.4-1.5,6.7-3,9.8c0.7,0.6,1.4,1.2,2.1,1.7
	C455.2,158.9,455.6,160.4,455,161.6z M449.4,147.9H444v1.6c0.3-0.3,0.6-0.5,1-0.6c1.2-0.3,2.4,0.3,2.9,1.4l0.6,1.4
	C448.8,150.4,449.2,149.2,449.4,147.9L449.4,147.9z M445.7,156.8c-0.7-1.1-1.3-2.2-1.8-3.3v5.2l0.3-0.3
	C444.8,157.9,445.3,157.4,445.7,156.8L445.7,156.8z"/>
<path class="st0" d="M490.7,137.6c-1.8,3.4-4.1,6.6-6.8,9.4c-1.5,1.5-3.6,1.8-4.9,0.3c-1.2-1.4-1.1-3.5,0.3-4.7c0,0,0,0,0.1,0
	c1.5-1.4,2.9-3,4.1-4.7h-20.1c-1.6,0.1-2.9-1.2-3-2.8c0,0,0,0,0-0.1c0-1.5,1.2-2.8,2.8-2.8c0.1,0,0.2,0,0.2,0h24.2
	C490.5,132.2,492.2,134.7,490.7,137.6z M477.2,142.4c0,7.3-0.6,14.4-7.9,19.1c-1.7,1.1-3.7,1-4.7-0.5c-1-1.5-0.5-3.5,0.9-4.4
	c0.1,0,0.1-0.1,0.2-0.1c6-4.2,5.3-7.4,5.3-14.1c-0.1-1.7,1.2-3.2,2.9-3.3c0,0,0.1,0,0.1,0c1.8,0,3.2,1.4,3.2,3.2
	C477.2,142.3,477.2,142.3,477.2,142.4L477.2,142.4z"/>
<path class="st0" d="M524.3,138.6c-2.4,10.2-8.5,19.2-18.2,23.1c-2.4,1-4.1,0.1-4.8-1.4s0.3-3.6,2.3-4.4c7.1-2.6,12.3-8.7,13.9-16.1
	h-18c-1.6,0-2.8-1.3-2.8-2.8s1.3-2.8,2.8-2.8h21.3c1.9-0.1,3.5,1.3,3.6,3.1C524.5,137.8,524.5,138.2,524.3,138.6z M529.1,131.6
	c0,2.1-1.7,3.7-3.7,3.7s-3.7-1.7-3.8-3.7c0-2.1,1.7-3.7,3.7-3.7c0,0,0,0,0,0C527.4,127.9,529.1,129.5,529.1,131.6z M527.4,131.6
	c0-1.1-0.9-2.1-2.1-2.1c-1.1,0-2.1,0.9-2.1,2.1c0,1.1,0.9,2.1,2.1,2.1c0,0,0,0,0,0C526.5,133.6,527.4,132.7,527.4,131.6L527.4,131.6
	z"/>
<path class="st0" d="M540.5,134.4v12.1c0.1,1.7-1.2,3.2-3,3.3c0,0-0.1,0-0.1,0c-1.7,0-3.1-1.3-3.1-3c0-0.1,0-0.2,0-0.3v-12.1
	c-0.1-1.7,1.1-3.2,2.8-3.3c1.7-0.1,3.2,1.1,3.3,2.8C540.6,134.1,540.6,134.2,540.5,134.4z M557.4,133.9v10.7
	c0,7.3-3.1,13.8-11.3,17.2c-2.1,0.9-4,0.5-4.7-1.1s-0.2-3.7,2.1-4.6c6.1-2.3,7.7-5.7,7.7-11.8v-10.5c-0.1-1.7,1.2-3.3,3-3.4
	c0.1,0,0.1,0,0.2,0c1.7,0,3.1,1.4,3.1,3.1C557.4,133.7,557.4,133.8,557.4,133.9L557.4,133.9z"/>
<path class="st0" d="M579.9,158.4c0,2.2-1.7,3.9-3.9,3.9c-2.2,0-3.9-1.7-3.9-3.9c0-2.2,1.7-3.9,3.9-3.9
	C578.1,154.5,579.9,156.2,579.9,158.4z M572.9,148.6l-0.5-8.1v-7c0-2,1.6-3.6,3.7-3.6c2,0,3.6,1.6,3.6,3.6v7l-0.5,8.1
	c-0.1,1.7-1.6,3-3.3,2.9C574.2,151.4,573,150.2,572.9,148.6z"/>
</svg>