<svg version="1.1" xmlns="http://www.w3.org/2000/svg" viewBox="0 0 698.5 104.9" width="699" height="105">
<path d="M133.1,5.6v17.9c0,7.5-6,11.1-13.1,11.1s-13-3.6-13-11.1V5.6c0.1-1.9,1.8-3.4,3.8-3.2c1.7,0.1,3.1,1.5,3.2,3.2v15.5
	c0,4.6,1.2,7.6,6,7.6s6-3,6-7.6V5.6c0.1-1.9,1.8-3.4,3.8-3.2C131.5,2.5,132.9,3.8,133.1,5.6L133.1,5.6z"/>
<path d="M154.8,26.8c0,6.1-4.7,7.8-8.4,7.8c-2.6,0.1-5.1-0.6-7.2-2c-1.1-0.9-1.5-2.4-0.8-3.6c0.7-1.4,2.4-1.9,3.8-1.2h0.1
	c1.2,0.8,2.6,1.2,4,1.2c1,0.1,1.9-0.7,2-1.7c0-0.1,0-0.1,0-0.2c0-1.3-1.5-2.2-4.2-3.6c-3.2-1.6-5.2-3.3-5.2-7.1
	c0-5.9,4.9-7.4,8.8-7.4c1.8,0,3.5,0.5,5,1.3c1.4,0.7,2,2.5,1.3,3.9c0,0.1-0.1,0.1-0.1,0.1c-0.8,1.2-2.5,1.5-3.7,0.6
	c-0.1,0-0.1-0.1-0.1-0.1c-0.7-0.5-1.6-0.7-2.4-0.7c-1-0.1-1.9,0.7-1.9,1.7c0,0.1,0,0.1,0,0.2c0,1,0.8,1.6,3.3,3
	C152,20.7,154.8,22.5,154.8,26.8z"/>
<path d="M165.3,23.6v0.1c0,1.3,0.8,5.1,6.2,5.1c1.9,0,2.7-0.6,4.2-1.1s3.1,0.4,3.5,1.9c0.4,1.4-0.2,2.8-1.5,3.4
	c-2,1-4.3,1.5-6.5,1.5c-10.1,0-12.6-6.5-12.6-12.5c0-7.2,3.9-13.2,11.9-13.2c7.3,0,9.3,5.4,9.3,10.8v0.8c0.1,1.6-1.1,3-2.7,3.1
	c-0.2,0-0.3,0-0.5,0L165.3,23.6L165.3,23.6z M165.5,18.9h8.1c0-2.5-0.7-4.7-3.9-4.7C166.9,14.1,165.5,17.1,165.5,18.9z"/>
<path d="M200.2,4.8c-0.5,1.4-1.9,2.2-3.4,1.8c-0.5-0.1-1-0.2-1.5-0.2c-1.6,0-2.6,1.5-2.6,3.3v0.5h2.2c1.5,0,2.7,1.2,2.7,2.6
	c0,1.5-1.2,2.7-2.6,2.7l0,0h-2.2v15.4c0,1.8-1.5,3.3-3.3,3.3s-3.3-1.5-3.3-3.3V15.5h-1.5c-1.5,0-2.6-1.2-2.6-2.7s1.2-2.6,2.6-2.6
	h1.5V9.5c0-3.4,1.9-9,9.2-9c1.2,0,2.3,0.2,3.4,0.7C200.1,1.9,200.7,3.4,200.2,4.8z"/>
<path d="M220.4,34.2c-1.8,0.6-3.6-0.6-4.4-2.4l-0.1-0.2c-1.8,1.8-4.3,2.7-6.9,2.7c-6.9,0-8.1-4.6-8.1-7.9V12.8
	c0.1-1.9,1.7-3.3,3.6-3.2c1.7,0.1,3.1,1.5,3.2,3.2v11.9c0,2.7,1.1,4.1,3.5,4.1c1.6,0,3.1-0.7,4.2-1.8V12.8c0.1-1.9,1.7-3.3,3.6-3.2
	c1.7,0.1,3.1,1.5,3.2,3.2v12.6c0,1.7,0.2,3.4,0.5,5.1C223,32.2,222,33.8,220.4,34.2z"/>
<path d="M235.4,3.9v26.9c0.1,1.9-1.3,3.5-3.2,3.6s-3.5-1.3-3.6-3.2c0-0.1,0-0.2,0-0.4V3.9c0.1-1.9,1.7-3.3,3.6-3.2
	C233.9,0.7,235.3,2.1,235.4,3.9z"/>
<path d="M268,4.8c-0.5,1.4-1.9,2.2-3.3,1.8c-0.5-0.1-1-0.2-1.5-0.2c-1.6,0-2.6,1.5-2.6,3.3v0.5h2.2c1.5,0,2.6,1.2,2.6,2.7
	s-1.2,2.6-2.6,2.6h-2.2v15.4c0,1.8-1.5,3.3-3.3,3.3c-1.8,0-3.3-1.5-3.3-3.3V15.5h-1.5c-1.5,0-2.7-1.2-2.7-2.6c0-1.5,1.2-2.7,2.6-2.7
	l0,0h1.5V9.5c0-3.4,1.9-9,9.2-9c1.2,0,2.3,0.2,3.4,0.7C267.9,1.9,268.5,3.4,268,4.8z"/>
<path d="M274.4,23.6v0.1c0,1.3,0.8,5.1,6.1,5.1c1.9,0,2.7-0.6,4.2-1.1s3.1,0.4,3.5,1.9c0.4,1.4-0.2,2.8-1.5,3.4
	c-2,1-4.3,1.5-6.5,1.5c-10.1,0-12.6-6.5-12.6-12.5c0-7.2,3.9-13.2,11.9-13.2c7.3,0,9.3,5.4,9.3,10.8v0.8c0.1,1.6-1.1,3-2.7,3.1
	c-0.2,0-0.3,0-0.5,0L274.4,23.6L274.4,23.6z M274.6,18.9h8.1c0-2.5-0.7-4.7-3.9-4.7C276,14.1,274.6,17.1,274.6,18.9L274.6,18.9z"/>
<path d="M311.7,34c-1.5,0.8-3.4,0.2-4.2-1.3c-0.3-0.6-0.5-1.2-0.7-1.8c-1.4,2.3-4,3.7-6.7,3.5c-3.4,0-7.8-1.9-7.8-8
	c0-5.7,2.9-7.7,13.6-8.1v-0.9c0-1.9-0.7-2.8-3.1-2.8c-1.4,0-2.8,0.4-4.1,1.2c-1.4,0.8-3.2,0.3-4-1.1c-0.1-0.1-0.1-0.2-0.2-0.3
	c-0.6-1.5,0.1-3.2,1.6-3.9c2.2-1.1,4.6-1.7,7.1-1.7c6.5,0,9.1,2.4,9.1,8.6v8.9c0,1.5,0.2,3,0.7,4.4C313.4,32.1,312.8,33.4,311.7,34z
	 M306,25.6v-2.2c-5.9,0.2-7.2,0.9-7.2,2.9s1.5,2.5,2.9,2.5C303.7,28.8,305.4,27.5,306,25.6z"/>
<path d="M330.2,30.9c0,1.4-1,2.3-2.5,2.9l-1.5,0.3c-3.7,0-6.7-1.5-6.7-5.9V15.5h-1.3c-1.5,0-2.7-1.2-2.7-2.6c0-1.5,1.2-2.7,2.6-2.7
	l0,0h1.3V6.8c-0.1-1.8,1.3-3.4,3.2-3.5c1.8-0.1,3.4,1.3,3.5,3.2c0,0.1,0,0.2,0,0.4v3.4h2.2c1.5,0,2.7,1.2,2.7,2.6
	c0,1.5-1.2,2.7-2.6,2.7l0,0h-2.2v9.9c0,2.2,0.3,3.1,1.6,3.1h0.1c1.2-0.1,2.3,0.8,2.4,2C330.3,30.6,330.3,30.8,330.2,30.9z"/>
<path d="M354,34.2c-1.8,0.6-3.6-0.6-4.4-2.4l-0.1-0.2c-1.8,1.8-4.3,2.7-6.9,2.7c-6.9,0-8.1-4.6-8.1-7.9V12.8
	c0.1-1.9,1.7-3.3,3.6-3.2c1.7,0.1,3.1,1.5,3.2,3.2v11.9c0,2.7,1.1,4.1,3.5,4.1c1.6,0,3.1-0.7,4.2-1.8V12.8c0.1-1.9,1.7-3.3,3.6-3.2
	c1.7,0.1,3.1,1.5,3.2,3.2v12.6c0,1.7,0.2,3.4,0.5,5.1C356.6,32.2,355.6,33.8,354,34.2z"/>
<path d="M373.3,15.6c-2,0.4-3.5,1.1-4.3,2.6v12.5c0,1.9-1.5,3.4-3.4,3.4s-3.4-1.5-3.4-3.4l0,0V15.9c-0.1-1-0.2-2-0.4-3.1
	c-0.3-1.5,0.6-2.9,2.1-3.4c1.8-0.7,3.8,0.1,4.6,1.9c0.1,0.1,0.1,0.3,0.1,0.4l0.2,0.6c0.7-1.3,1.9-2.2,3.2-2.7
	c1.5-0.6,3.3,0.1,3.9,1.7c0,0.1,0.1,0.2,0.1,0.3c0.5,1.7-0.5,3.4-2.2,3.9C373.7,15.6,373.5,15.6,373.3,15.6z"/>
<path d="M384.8,23.6v0.1c0,1.3,0.8,5.1,6.2,5.1c1.9,0,2.7-0.6,4.2-1.1s3.1,0.4,3.5,1.9c0.4,1.4-0.2,2.8-1.5,3.4
	c-2,1-4.3,1.5-6.5,1.5c-10.2,0.1-12.7-6.4-12.7-12.4c0-7.2,3.9-13.2,11.9-13.2c7.3,0,9.3,5.4,9.3,10.8v0.8c0.1,1.6-1.1,3-2.7,3.1
	c-0.2,0-0.3,0-0.5,0H384.8z M385,18.9h8.1c0-2.5-0.7-4.7-3.9-4.7C386.4,14.1,385,17.1,385,18.9L385,18.9z"/>
<path d="M419.5,26.8c0,6.1-4.7,7.8-8.4,7.8c-2.6,0.1-5.1-0.6-7.2-2c-1.1-0.9-1.5-2.4-0.8-3.6c0.7-1.4,2.4-1.9,3.8-1.2h0.1
	c1.2,0.8,2.6,1.2,4,1.2c1,0.1,1.9-0.7,2-1.7c0-0.1,0-0.1,0-0.2c0-1.3-1.5-2.2-4.2-3.6c-3.2-1.6-5.2-3.3-5.2-7.1
	c0-5.9,4.9-7.4,8.8-7.4c1.8,0,3.5,0.5,5,1.3c1.4,0.7,2,2.5,1.3,3.9c0,0.1-0.1,0.1-0.1,0.1c-0.8,1.2-2.5,1.5-3.7,0.6
	c-0.1,0-0.1-0.1-0.1-0.1c-0.7-0.5-1.6-0.8-2.5-0.7c-1-0.1-1.9,0.7-1.9,1.7c0,0.1,0,0.1,0,0.2c0,1,0.8,1.6,3.3,3
	C416.6,20.7,419.5,22.5,419.5,26.8z"/>
<path d="M447.1,30.9c0,1.4-1,2.3-2.5,2.9l-1.6,0.3c-3.7,0-6.7-1.5-6.7-5.9V15.5H435c-1.5,0-2.6-1.2-2.6-2.7s1.2-2.6,2.6-2.6h1.3V6.8
	c-0.1-1.8,1.3-3.4,3.2-3.5c1.8-0.1,3.4,1.3,3.5,3.2c0,0.1,0,0.2,0,0.4v3.4h2.2c1.5,0,2.6,1.2,2.6,2.7s-1.2,2.6-2.6,2.6H443v9.9
	c0,2.2,0.3,3.1,1.6,3.1h0.1c1.2-0.1,2.3,0.8,2.4,1.9C447.2,30.6,447.2,30.8,447.1,30.9z"/>
<path d="M474.5,21.6c0,5.8-2.6,13.2-12,13.2s-12-7.4-12-13.2c0-5.6,2.6-12.9,12-12.9S474.5,16,474.5,21.6z M467.5,21.5
	c0-5.3-2.1-7.2-5.1-7.2s-5.1,1.9-5.1,7.2c0,5.5,2,7.6,5.1,7.6S467.5,27,467.5,21.5L467.5,21.5z"/>
<path d="M497.4,3.9v26.9c0.1,1.9-1.3,3.5-3.2,3.6c-1.9,0.1-3.5-1.3-3.6-3.2c0-0.1,0-0.2,0-0.4V3.9c0.1-1.9,1.7-3.3,3.6-3.2
	C495.9,0.7,497.3,2.1,497.4,3.9z"/>
<path d="M509.2,23.6v0.1c0,1.3,0.8,5.1,6.1,5.1c1.9,0,2.7-0.6,4.2-1.1s3.1,0.4,3.5,1.9c0.4,1.4-0.2,2.8-1.5,3.4
	c-2,1-4.3,1.5-6.5,1.5c-10.1,0-12.6-6.5-12.6-12.5c0-7.2,3.9-13.2,12-13.2c7.2,0,9.3,5.4,9.3,10.8v0.8c0.1,1.6-1.1,3-2.7,3.1
	c-0.2,0-0.3,0-0.5,0L509.2,23.6L509.2,23.6z M509.3,18.9h8.2c0-2.5-0.7-4.7-3.9-4.7C510.8,14.1,509.4,17.1,509.3,18.9z"/>
<path d="M546.5,34c-1.5,0.8-3.4,0.2-4.2-1.3l0,0c-0.3-0.6-0.6-1.2-0.7-1.8c-1.4,2.3-4,3.7-6.7,3.5c-3.4,0-7.8-1.9-7.8-8
	c0-5.7,2.9-7.7,13.6-8.1v-0.9c0-1.9-0.7-2.8-3.1-2.8c-1.4,0-2.8,0.4-4.1,1.2c-1.4,0.8-3.2,0.3-4-1.1c-0.1-0.1-0.1-0.2-0.2-0.3
	c-0.6-1.5,0.1-3.2,1.6-3.9c2.2-1.1,4.6-1.7,7.1-1.7c6.5,0,9.1,2.4,9.1,8.6v8.9c0,1.5,0.2,3,0.7,4.4C548.1,32.1,547.6,33.4,546.5,34z
	 M540.7,25.6v-2.2c-5.9,0.2-7.2,0.9-7.2,2.9s1.5,2.5,2.9,2.5C538.4,28.8,540.1,27.5,540.7,25.6z"/>
<path d="M564.4,15.6c-2,0.4-3.5,1.1-4.3,2.6v12.5c0.1,1.9-1.3,3.5-3.2,3.6s-3.5-1.3-3.6-3.2c0-0.1,0-0.2,0-0.4V15.9
	c-0.1-1-0.2-2-0.4-3.1c-0.3-1.5,0.7-3,2.1-3.4c1.8-0.7,3.8,0.1,4.6,1.9c0.1,0.1,0.1,0.3,0.1,0.4l0.2,0.6c0.7-1.3,1.8-2.2,3.2-2.7
	c1.5-0.6,3.3,0.1,3.9,1.7c0,0.1,0.1,0.2,0.1,0.3c0.5,1.7-0.5,3.4-2.1,3.9C564.7,15.6,564.5,15.6,564.4,15.6z"/>
<path d="M591.5,17v13.8c0.1,1.9-1.3,3.5-3.2,3.6s-3.5-1.3-3.6-3.2c0-0.1,0-0.2,0-0.4v-12c0-2.7-1.1-4-3.5-4c-1.6,0-3.1,0.6-4.2,1.8
	v14.2c0.1,1.9-1.3,3.5-3.2,3.6s-3.5-1.3-3.6-3.2c0-0.1,0-0.2,0-0.4V15.9c0-1.1-0.3-1.9-0.4-2.9c-0.2-1.5,0.6-3,2.1-3.5
	c1.8-0.7,3.8,0.1,4.6,1.9c0.1,0.1,0.1,0.3,0.1,0.4c0,0,0.1,0.1,0.1,0.2c1.8-1.7,4.2-2.7,6.8-2.7C590.4,9.2,591.5,13.8,591.5,17z"/>
<path d="M35.3,78.1v13.8c0.1,1.9-1.3,3.4-3.2,3.5s-3.4-1.3-3.5-3.2c0-0.1,0-0.2,0-0.4v-12c0-2.5-1.2-4-3.6-4
	c-1.5,0.1-2.9,0.6-4.1,1.6c0.2,1.3,0.3,2.6,0.3,3.9v10.6c0.1,1.8-1.3,3.4-3.1,3.5c-1.8,0.1-3.4-1.3-3.5-3.1c0-0.1,0-0.2,0-0.4v-12
	c0-2.7-1.1-4-3.6-4c-1.4,0.1-2.7,0.7-3.7,1.8v14.2c0.1,1.9-1.3,3.5-3.2,3.6s-3.6-1.4-3.7-3.3c0-0.1,0-0.2,0-0.4V77.3
	C0.3,76.2,0.2,75,0,73.9c-0.2-1.5,0.7-3,2.2-3.4c1.8-0.7,3.9,0.3,4.6,2.1c0,0.1,0.1,0.2,0.1,0.3c0,0.1,0,0.1,0,0.2
	c1.8-1.7,4.1-2.6,6.5-2.7c4,0,5.5,1.7,6.3,2.7c2.2-1.7,4.9-2.6,7.7-2.7C34.2,70.3,35.3,74.9,35.3,78.1z"/>
<path d="M64.4,82.7c0,5.8-2.6,13.2-12,13.2s-12-7.4-12-13.2c0-5.6,2.6-12.8,12-12.8S64.4,77.1,64.4,82.7z M57.4,82.6
	c0-5.3-2.1-7.2-5.1-7.2s-5,1.9-5,7.2c0,5.5,2,7.6,5,7.6S57.4,88.1,57.4,82.6L57.4,82.6z"/>
<path d="M80.6,76.7c-2,0.4-3.5,1.2-4.3,2.6v12.5c0.1,1.9-1.3,3.5-3.2,3.6c-1.9,0.1-3.5-1.3-3.6-3.2c0-0.1,0-0.2,0-0.4V77
	c-0.1-1-0.2-2-0.4-3.1c-0.3-1.5,0.6-2.9,2.1-3.4c1.8-0.7,3.8,0.1,4.6,1.9c0.1,0.1,0.1,0.3,0.1,0.4l0.2,0.6c0.7-1.3,1.8-2.2,3.2-2.7
	c1.5-0.6,3.3,0.1,3.9,1.7c0,0.1,0.1,0.2,0.1,0.3c0.5,1.7-0.5,3.4-2.2,3.9C80.9,76.7,80.8,76.7,80.6,76.7z"/>
<path d="M92.1,84.7L92.1,84.7c0,1.4,0.8,5.2,6.2,5.2c1.9,0,2.7-0.6,4.2-1.1s3.1,0.4,3.5,1.9c0.4,1.4-0.2,2.8-1.5,3.4
	c-2,1-4.3,1.5-6.5,1.5c-10.2,0.1-12.7-6.4-12.7-12.4c0-7.2,3.9-13.2,12-13.2c7.2,0,9.3,5.4,9.3,10.8v0.8c0.1,1.6-1.1,3-2.7,3.1
	c-0.2,0-0.3,0-0.5,0L92.1,84.7z M92.2,80h8.2c0-2.5-0.7-4.7-3.9-4.7C93.7,75.2,92.3,78.2,92.2,80z"/>
<path d="M140.4,95.1c-1.5,0.8-3.4,0.2-4.1-1.3c-0.3-0.6-0.6-1.2-0.7-1.8c-1.4,2.3-4,3.7-6.7,3.5c-3.4,0-7.8-1.9-7.8-8
	c0-5.7,2.9-7.7,13.6-8.1v-0.9c0-1.9-0.7-2.8-3.1-2.8c-1.4,0-2.8,0.4-4.1,1.2c-1.4,0.8-3.2,0.3-4-1.1c-0.1-0.1-0.1-0.2-0.2-0.3
	c-0.6-1.5,0.1-3.2,1.6-3.9c2.2-1.1,4.6-1.7,7.1-1.7c6.5,0,9.1,2.4,9.1,8.6v8.9c0,1.5,0.2,3,0.7,4.4C142,93.2,141.5,94.5,140.4,95.1z
	 M134.6,86.7v-2.2c-5.9,0.2-7.2,0.9-7.2,2.9s1.5,2.5,2.9,2.5C132.3,89.9,134,88.6,134.6,86.7L134.6,86.7z"/>
<path d="M169.7,82.6c0,7.1-2.8,13.1-10.2,13.1c-2.3-0.1-4.5-1-6.2-2.4l-0.1,0.2c-0.5,1.1-1.7,1.8-2.9,1.8c-1.8,0-3.2-1.4-3.2-3.2
	V64.9c0.1-1.8,1.7-3.3,3.5-3.2c1.7,0.1,3.1,1.5,3.2,3.2v7.8c1.7-1.7,3.9-2.6,6.3-2.6C167.1,70.1,169.7,75.5,169.7,82.6z M162.8,82.7
	c0-3.8-1-6.9-4.1-6.9c-2.1,0-4,1.3-4.9,3.2c-0.2,1.2-0.2,2.4-0.2,3.5v0.7c0,1.4,0.1,2.9,0.3,4.3c1,1.5,2.6,2.4,4.4,2.4
	C162,90,162.8,86.4,162.8,82.7z"/>
<path d="M197.7,82.7c0,5.8-2.6,13.2-12,13.2s-12-7.4-12-13.2c0-5.6,2.6-12.8,12-12.8S197.7,77.1,197.7,82.7z M190.7,82.6
	c0-5.3-2.1-7.2-5.1-7.2s-5.1,1.9-5.1,7.2c0,5.5,2,7.6,5.1,7.6S190.7,88.1,190.7,82.6z"/>
<path d="M222,95.3c-1.8,0.6-3.6-0.6-4.4-2.4l-0.1-0.2c-1.8,1.8-4.3,2.7-6.8,2.7c-6.9,0-8.1-4.7-8.1-7.9V73.9
	c0.1-1.9,1.7-3.3,3.6-3.2c1.7,0.1,3.1,1.5,3.2,3.2v11.9c0,2.7,1.1,4.1,3.5,4.1c1.6,0,3.1-0.7,4.2-1.8V73.9c0.1-1.9,1.7-3.3,3.6-3.2
	c1.7,0.1,3.1,1.5,3.2,3.2v12.6c0,1.7,0.2,3.4,0.5,5.1C224.7,93.3,223.6,94.9,222,95.3z"/>
<path d="M242,92c0,1.4-1,2.3-2.5,2.9l-1.6,0.2c-3.7,0-6.7-1.5-6.7-5.9V76.6h-1.3c-1.5,0-2.7-1.2-2.7-2.7s1.2-2.7,2.7-2.7h1.3v-3.4
	c-0.1-1.8,1.3-3.4,3.2-3.5c1.8-0.1,3.4,1.3,3.5,3.2c0,0.1,0,0.2,0,0.4v3.4h2.2c1.5,0,2.6,1.2,2.6,2.7s-1.2,2.7-2.6,2.7h-2.2v9.9
	c0,2.2,0.3,3.1,1.6,3.1h0.1c1.2-0.1,2.3,0.8,2.4,2C242,91.7,242,91.9,242,92z"/>
<path d="M272.2,92c0,1.4-1,2.3-2.5,2.9l-1.5,0.2c-3.7,0-6.7-1.5-6.7-5.9V76.6h-1.3c-1.5,0-2.6-1.2-2.6-2.7s1.2-2.7,2.6-2.7h1.3v-3.4
	c-0.1-1.8,1.3-3.4,3.2-3.5c1.8-0.1,3.4,1.3,3.5,3.2c0,0.1,0,0.2,0,0.4v3.4h2.2c1.5,0,2.6,1.2,2.6,2.7s-1.2,2.7-2.6,2.7h-2.2v9.9
	c0,2.2,0.3,3.1,1.6,3.1h0.1c1.2-0.1,2.3,0.8,2.4,2C272.2,91.7,272.2,91.9,272.2,92z"/>
<path d="M297.9,78.1v13.8c0,1.9-1.5,3.4-3.4,3.4s-3.4-1.5-3.4-3.4l0,0v-12c0-2.7-1.1-4-3.5-4c-1.6-0.1-3.2,0.6-4.2,1.9v14.1
	c0.1,1.9-1.3,3.5-3.2,3.6c-1.9,0.1-3.5-1.3-3.6-3.2c0-0.1,0-0.2,0-0.4V65c0.1-1.9,1.7-3.3,3.6-3.2c1.7,0.1,3.1,1.5,3.2,3.2v7.7
	c1.8-1.5,4-2.3,6.4-2.3C296.8,70.3,297.9,74.9,297.9,78.1z"/>
<path d="M309.7,84.7L309.7,84.7c0,1.4,0.8,5.2,6.2,5.2c1.9,0,2.7-0.6,4.2-1.1s3.1,0.4,3.5,1.9c0.4,1.4-0.2,2.8-1.5,3.4
	c-2,1-4.3,1.5-6.5,1.5c-10.1,0-12.6-6.5-12.6-12.5c0-7.2,3.9-13.2,12-13.2c7.2,0,9.3,5.4,9.3,10.8v0.8c0.1,1.6-1.1,3-2.7,3.1
	c-0.2,0-0.3,0-0.5,0L309.7,84.7z M309.9,80h8.2c0-2.5-0.7-4.7-3.9-4.7C311.3,75.2,309.9,78.2,309.9,80z"/>
<path d="M363.1,73.5c0,7.9-5.3,11.1-11,11.1h-4.2v7.2c0.1,1.9-1.3,3.6-3.2,3.8c-1.9,0.1-3.6-1.3-3.8-3.2c0-0.2,0-0.4,0-0.5v-25
	c-0.2-1.6,1.1-3.1,2.7-3.3c0.2,0,0.4,0,0.6,0h5.7C357.2,63.6,363.1,65.8,363.1,73.5z M356,73.9c0-2.7-1.8-4.3-5.9-4.3h-2.2v9.2h2.4
	C354.2,78.8,356,77.6,356,73.9z"/>
<path d="M367.2,65c-0.2-2.3,1.5-4.3,3.8-4.5s4.3,1.5,4.5,3.8c0.2,2.3-1.5,4.3-3.8,4.5c-0.1,0-0.2,0-0.3,0
	C369.1,68.9,367.2,67.2,367.2,65z M374.7,73.9v17.9c0.1,1.9-1.3,3.5-3.2,3.6c-1.9,0.1-3.5-1.3-3.6-3.2c0-0.1,0-0.2,0-0.4V73.9
	c0.1-1.9,1.7-3.3,3.6-3.2C373.2,70.8,374.6,72.2,374.7,73.9z"/>
<path d="M398.7,95.1c-1.5,0.8-3.4,0.2-4.2-1.3c-0.3-0.6-0.6-1.2-0.7-1.8c-1.4,2.3-4,3.7-6.7,3.5c-3.4,0-7.8-1.9-7.8-8
	c0-5.7,2.9-7.7,13.6-8.1v-0.9c0-1.9-0.7-2.8-3.1-2.8c-1.5,0-2.9,0.5-4.1,1.2c-1.4,0.8-3.2,0.3-4-1.1c-0.1-0.1-0.1-0.2-0.1-0.3
	c-0.6-1.5,0.1-3.2,1.6-3.9c2.2-1.1,4.6-1.7,7.1-1.7c6.5,0,9.1,2.4,9.1,8.6v8.9c0,1.5,0.2,3,0.7,4.4
	C400.3,93.2,399.8,94.4,398.7,95.1z M392.9,86.7v-2.2c-5.9,0.2-7.2,0.9-7.2,2.9s1.5,2.5,2.9,2.5C390.6,89.9,392.3,88.6,392.9,86.7
	L392.9,86.7z"/>
<path d="M428.1,82.6c0,7.1-2.8,13-10.2,13c-2.2,0-4.2-0.8-5.8-2.3v8c-0.1,1.8-1.7,3.3-3.5,3.2c-1.7-0.1-3.1-1.5-3.2-3.2V77
	c-0.1-1.1-0.2-2.1-0.4-3.1c-0.2-1.5,0.7-3,2.1-3.5c1.9-0.7,4,0.4,4.6,2.2c0,0.1,0.1,0.2,0.1,0.2l0.1,0.3c1.6-2,4-3.1,6.6-3.1
	C425.5,70.1,428.1,75.5,428.1,82.6z M421.1,82.7c0-3.8-1-6.8-4.1-6.9c-2,0.1-3.9,1.2-4.8,3.1c-0.2,1.2-0.3,2.4-0.3,3.7v0.7
	c0,1.5,0.1,2.9,0.3,4.4c1,1.5,2.6,2.4,4.4,2.4C420.3,90,421.1,86.4,421.1,82.7L421.1,82.7z"/>
<path d="M444.3,76.7c-2,0.4-3.5,1.2-4.3,2.6v12.5c0.1,1.9-1.3,3.5-3.2,3.6c-1.9,0.1-3.5-1.3-3.6-3.2c0-0.1,0-0.2,0-0.4V77
	c-0.1-1-0.2-2-0.4-3.1c-0.3-1.5,0.6-2.9,2.1-3.4c1.8-0.7,3.8,0.1,4.6,1.9c0.1,0.1,0.1,0.3,0.1,0.4l0.2,0.6c0.7-1.3,1.8-2.2,3.2-2.7
	c1.5-0.6,3.3,0.1,3.9,1.7c0,0.1,0.1,0.2,0.1,0.3c0.5,1.7-0.5,3.4-2.2,3.9C444.6,76.7,444.5,76.7,444.3,76.7z"/>
<path d="M473.1,82.7c0,5.8-2.6,13.2-12,13.2s-12-7.4-12-13.2c0-5.6,2.6-12.8,12-12.8S473.1,77.1,473.1,82.7z M466.1,82.6
	c0-5.3-2.1-7.2-5-7.2s-5.1,1.9-5.1,7.2c0,5.5,2,7.6,5.1,7.6S466.1,88.1,466.1,82.6L466.1,82.6z"/>
<path d="M504.5,94.6c-1.4,0.7-3,1-4.5,1.1c-8.9,0-12-6.3-12-12.7c0-7.7,4.1-12.9,11.5-12.9c1.8,0,3.7,0.4,5.3,1.3
	c1.4,0.8,1.9,2.5,1.1,3.9c-0.7,1.3-2.2,1.9-3.5,1.3c-0.7-0.3-1.4-0.5-2.2-0.5c-3.5,0-5.2,2.2-5.2,6.8s2.7,6.7,5.1,6.7
	c0.9-0.1,1.7-0.2,2.6-0.6c1.3-0.4,2.7,0.1,3.4,1.3c0.8,1.4,0.3,3.3-1.2,4.1C504.7,94.6,504.6,94.6,504.5,94.6z"/>
<path d="M531.5,78.1v13.8c0,1.9-1.5,3.4-3.4,3.4s-3.4-1.5-3.4-3.4l0,0v-12c0-2.7-1.1-4-3.5-4c-1.6-0.1-3.2,0.6-4.2,1.9v14.1
	c0.1,1.9-1.3,3.5-3.2,3.6c-1.9,0.1-3.5-1.3-3.6-3.2c0-0.1,0-0.2,0-0.4V65c0.1-1.9,1.7-3.3,3.6-3.2c1.7,0.1,3.1,1.5,3.2,3.2v7.7
	c1.8-1.5,4-2.3,6.4-2.3C530.4,70.3,531.5,74.9,531.5,78.1z"/>
<path d="M555.5,95.1c-1.5,0.8-3.4,0.2-4.2-1.3c-0.3-0.6-0.5-1.2-0.7-1.8c-1.4,2.3-4,3.7-6.7,3.5c-3.4,0-7.8-1.9-7.8-8
	c0-5.7,2.9-7.7,13.6-8.1v-0.9c0-1.9-0.7-2.8-3.1-2.8c-1.4,0-2.8,0.4-4.1,1.2c-1.4,0.8-3.2,0.3-4-1.1c-0.1-0.1-0.1-0.2-0.2-0.3
	c-0.6-1.5,0.1-3.2,1.6-3.9c2.2-1.1,4.6-1.7,7.1-1.7c6.5,0,9.1,2.4,9.1,8.6v8.9c0,1.5,0.2,3,0.7,4.4
	C557.2,93.2,556.6,94.5,555.5,95.1z M549.8,86.7v-2.2c-5.9,0.2-7.2,0.9-7.2,2.9s1.5,2.5,2.9,2.5C547.4,89.9,549.2,88.6,549.8,86.7z"
	/>
<path d="M573.4,76.7c-2,0.4-3.5,1.2-4.3,2.6v12.5c0.1,1.9-1.3,3.5-3.2,3.6s-3.5-1.3-3.6-3.2c0-0.1,0-0.2,0-0.4V77
	c-0.1-1-0.2-2-0.4-3.1c-0.3-1.5,0.6-2.9,2.1-3.4c1.8-0.7,3.8,0.1,4.5,1.9c0.1,0.1,0.1,0.3,0.1,0.4l0.2,0.6c0.7-1.3,1.8-2.2,3.2-2.7
	c1.5-0.6,3.3,0.1,3.9,1.7c0,0.1,0.1,0.2,0.1,0.3c0.5,1.7-0.5,3.4-2.2,3.9C573.7,76.7,573.6,76.7,573.4,76.7z"/>
<path d="M597.1,95.1c-1.5,0.8-3.4,0.2-4.2-1.3c-0.3-0.6-0.5-1.2-0.7-1.8c-1.4,2.3-4,3.7-6.7,3.5c-3.4,0-7.8-1.9-7.8-8
	c0-5.7,2.9-7.7,13.6-8.1v-0.9c0-1.9-0.7-2.8-3.1-2.8c-1.4,0-2.8,0.4-4.1,1.2c-1.4,0.8-3.2,0.3-4-1.1c-0.1-0.1-0.1-0.2-0.2-0.3
	c-0.6-1.5,0.1-3.2,1.6-3.9c2.2-1.1,4.6-1.7,7.1-1.7c6.5,0,9.1,2.4,9.1,8.6v8.9c0,1.5,0.2,3,0.7,4.4
	C598.7,93.2,598.2,94.5,597.1,95.1z M591.3,86.7v-2.2c-5.9,0.2-7.2,0.9-7.2,2.9s1.5,2.5,2.9,2.5C589,89.9,590.7,88.6,591.3,86.7z"/>
<path d="M619.2,94.6c-1.4,0.7-2.9,1-4.5,1.1c-8.8,0-12-6.3-12-12.7c0-7.7,4.1-12.9,11.5-12.9c1.8,0,3.7,0.4,5.3,1.3
	c1.4,0.8,1.9,2.5,1.1,3.9c-0.7,1.3-2.2,1.9-3.5,1.3c-0.7-0.3-1.4-0.5-2.2-0.5c-3.5,0-5.2,2.2-5.2,6.8s2.7,6.7,5.1,6.7
	c0.9-0.1,1.7-0.2,2.6-0.6c1.3-0.4,2.7,0.1,3.4,1.3c0.8,1.5,0.3,3.3-1.2,4.1C619.4,94.5,619.3,94.6,619.2,94.6z"/>
<path d="M636.8,92c0,1.4-1,2.3-2.5,2.9l-1.6,0.3c-3.7,0-6.7-1.5-6.7-5.9V76.6h-1.3c-1.5,0-2.7-1.2-2.7-2.7s1.2-2.7,2.7-2.7h1.3v-3.4
	c-0.1-1.8,1.3-3.4,3.2-3.5c1.8-0.1,3.4,1.3,3.5,3.2c0,0.1,0,0.2,0,0.4v3.4h2.2c1.5,0,2.7,1.2,2.7,2.7s-1.2,2.7-2.7,2.7l0,0h-2.2v9.9
	c0,2.2,0.3,3.1,1.6,3.1h0.1c1.2-0.1,2.3,0.8,2.4,2C636.8,91.7,636.8,91.9,636.8,92z"/>
<path d="M646.8,84.7L646.8,84.7c0,1.4,0.8,5.2,6.2,5.2c1.9,0,2.7-0.6,4.2-1.1s3.1,0.4,3.5,1.9c0.4,1.4-0.2,2.8-1.5,3.4
	c-2,1-4.2,1.5-6.5,1.5c-10.1,0-12.6-6.5-12.6-12.5c0-7.2,3.9-13.2,12-13.2c7.2,0,9.3,5.4,9.3,10.8v0.8c0.1,1.6-1.1,3-2.7,3.1
	c-0.2,0-0.3,0-0.5,0L646.8,84.7L646.8,84.7z M647,80h8.2c0-2.5-0.7-4.7-3.9-4.7C648.4,75.2,647,78.2,647,80z"/>
<path d="M677.5,76.7c-2,0.4-3.5,1.2-4.3,2.6v12.5c0.1,1.9-1.3,3.5-3.2,3.6s-3.5-1.3-3.6-3.2c0-0.1,0-0.2,0-0.4V77
	c-0.1-1-0.2-2-0.4-3.1c-0.3-1.5,0.6-2.9,2.1-3.4c1.8-0.7,3.8,0.1,4.5,1.9c0.1,0.1,0.1,0.3,0.1,0.4l0.2,0.6c0.7-1.3,1.8-2.2,3.2-2.7
	c1.5-0.6,3.3,0.1,3.9,1.7c0,0.1,0.1,0.2,0.1,0.3c0.5,1.7-0.5,3.4-2.2,3.9C677.8,76.7,677.6,76.7,677.5,76.7z"/>
<path d="M698.5,87.9c0,6.1-4.7,7.8-8.4,7.8c-2.6,0.1-5.1-0.6-7.2-2c-1.1-0.9-1.4-2.4-0.8-3.6c0.7-1.4,2.4-1.9,3.8-1.2h0.1
	c1.2,0.8,2.6,1.2,4,1.2c1,0.1,1.9-0.6,2-1.7c0-0.1,0-0.2,0-0.2c0-1.3-1.5-2.2-4.2-3.6c-3.2-1.6-5.2-3.3-5.2-7.1
	c0-5.9,4.9-7.4,8.8-7.4c1.8,0,3.5,0.5,5,1.3c1.4,0.7,2,2.5,1.3,3.9c0,0.1-0.1,0.1-0.1,0.1c-0.8,1.2-2.5,1.5-3.7,0.6
	c-0.1,0-0.1-0.1-0.1-0.1c-0.7-0.5-1.6-0.7-2.5-0.7c-1-0.1-1.9,0.7-1.9,1.7c0,0.1,0,0.1,0,0.2c0,1,0.8,1.6,3.3,3
	C695.7,81.8,698.5,83.6,698.5,87.9z"/>
</svg>