<svg version="1.1" xmlns="http://www.w3.org/2000/svg" viewBox="0 0 689 109.8" width="689" height="110">
<path d="M243.6,37.2c3.7,0,4.3-1.1,4.9-6.4c1.4,0.8,2.9,1.4,4.5,1.8c-0.8,6.8-2.4,8.9-9,8.9h-12.8c-7.2,0-9.3-1.6-9.3-7.9V23
	l-5.7,1.8l-1.3-4.4l7-2.2v-11h4.8v9.5l6.3-2V4.3h4.8v8.8l7.4-2.3l0.5-0.4l0.9-0.6l3.4,1.5l-0.2,0.9c-0.1,7.6-0.4,12.4-1.2,14.8
	s-1.9,3.2-3.3,3.6c-1.7,0.4-3.4,0.5-5.1,0.4c-0.1-1.5-0.5-3-1.1-4.4c1.1,0.1,2.3,0.1,3.4,0.1c0.9,0,1.4-0.3,1.9-1.8s0.6-4.4,0.6-9.3
	l-7.3,2.3v15.2H233V19.4l-6.3,2v12.2c0,3.1,0.6,3.5,4.6,3.5L243.6,37.2z"/>
<path d="M269.6,31.3c0.3,1.4,0.7,2.8,1.2,4.2c-6.6,4.6-7.8,5.5-8.5,6.4c-0.6-1.6-1.5-3.1-2.5-4.4c1.2-0.9,1.9-2.3,1.9-3.8V21.3h-5.9
	v-4.6h10.6v16.8L269.6,31.3z M265.1,14.5c-1.9-2.4-4-4.6-6.3-6.6l3.2-3.1c2.3,1.9,4.5,4,6.6,6.2L265.1,14.5z M293.7,28H284v14.3
	h-4.9V28h-10.4v-4.7h10.4v-8.5h-3.5c-0.7,2.1-1.7,4.1-2.9,6c-1.5-0.8-3-1.6-4.5-2.2c2.6-3.3,4.4-8.7,5.1-14.3L278,5
	c-0.3,1.8-0.6,3.4-1,5.1h15.1v4.7H284v8.5h9.7L293.7,28z"/>
<path d="M319.3,6.2c-0.4,0.6-0.9,1.1-1.4,1.7c4.9,3.9,10.5,7,16.4,8.9c-1.3,1.3-2.5,2.7-3.4,4.3c-2.2-0.9-4.3-1.9-6.3-3.1v3h-19
	v-2.7c-2,1.2-4.1,2.3-6.2,3.2c-1-1.6-2.1-3-3.5-4.3c7.8-2.9,15.1-7.9,19-13.1L319.3,6.2z M323.3,29.3c3.5,3,6.6,6.5,9.1,10.4
	l-4.3,2.7c-0.6-1.1-1.3-2.1-2-3.1c-20.1,1.5-22.9,1.6-24.9,2.4c-0.4-1.7-1-3.3-1.6-4.9c1.2-0.4,2.3-1.1,3.2-2c2-1.7,3.8-3.6,5.4-5.6
	h-9.9v-4.7H332v4.7h-17.1c-2,2.4-4.1,4.7-6.4,6.7l14.2-0.8c-1.1-1.3-2.3-2.5-3.5-3.6L323.3,29.3z M322.3,16.5
	c-2.5-1.7-4.9-3.5-7.2-5.5c-2.1,2.1-4.4,3.9-6.8,5.6L322.3,16.5z"/>
<path d="M372.2,13.7c0,0,0,1.7,0,2.3c-0.6,15.6-1.1,21.5-2.7,23.5c-0.9,1.3-2.4,2.1-4,2.2c-2.2,0.2-4.3,0.3-6.5,0.1
	c-0.2-1.8-0.7-3.5-1.7-5.1c2.5,0.2,4.8,0.2,5.9,0.2c0.7,0.1,1.3-0.2,1.8-0.7c1.1-1.1,1.6-6.2,2-17.7h-11.9
	c-1.1,7.8-4.5,16.6-14.1,22.9c-1.1-1.4-2.4-2.6-3.9-3.6c7-4.2,11.7-11.3,13-19.3h-12v-5h12.5c0.1-1.4,0.1-2.7,0.1-3.9V4.3h4.9v5.5
	c0,1.2,0,2.5-0.1,3.9H372.2z M344.4,13.2c-1-2.2-2.3-4.3-3.8-6.2l4.2-1.8c1.6,1.9,2.9,3.9,4,6.1L344.4,13.2z M359.3,32
	c-1.3-2.7-2.9-5.3-4.7-7.7l4.1-1.9c1.9,2.3,3.6,4.8,5,7.4L359.3,32z"/>
<path d="M389.7,5.9c-1.1,2.9-2.4,5.7-3.9,8.4v28.1h-4.6V21.4c-0.8,1.2-1.8,2.3-2.7,3.3c-0.7-1.8-1.6-3.5-2.6-5.1
	c4.1-4.4,7.3-9.6,9.3-15.2L389.7,5.9z M404.1,16.1v20.9c0,2.3-0.4,3.7-1.9,4.5s-3.4,1-6,1c-0.3-1.7-0.9-3.4-1.7-4.9c1.7,0,3.4,0,4,0
	s0.7-0.2,0.7-0.7V16.1h-4.7c-1.1,2.2-2.3,4.3-3.8,6.2c-1.2-1.2-2.5-2.2-3.9-3.2c3.1-3.5,5.5-9.1,6.9-14.7l4.7,1.1
	c-0.5,2.1-1.2,4.1-1.9,6.1h14l0.8-0.2l3.4,0.6c-0.5,3.3-1.2,7.1-1.8,9.5l-4-0.7c0.2-1.3,0.5-3,0.6-4.8H404.1z M397.4,23.4
	c-1,4.8-2.9,9.4-5.6,13.6c-1.3-1-2.7-1.9-4.1-2.6c2.3-2.9,4-7.5,5-12L397.4,23.4z M409.9,22c2.1,4.2,3.6,8.7,4.4,13.3l-4.6,1.6
	c-0.8-4.6-2.1-9.1-4.1-13.4L409.9,22z"/>
<path d="M445.8,21.5c2.7,2.8,6,5,9.7,6.4c-1.3,1.2-2.4,2.5-3.3,4c-4.8-2.4-9-5.9-12-10.4h-7.9c-1,1.5-2.1,2.8-3.3,4.1
	c2.9-0.7,5.8-1.6,8.5-2.9l4,2.2c-4,2.2-8.3,3.7-12.7,4.7c-0.5-0.8-1.2-1.5-1.8-2.2c-2,1.8-4.2,3.3-6.6,4.5c-1.1-1.4-2.3-2.7-3.6-3.9
	c3.6-1.5,6.8-3.7,9.4-6.6h-8.4v-4.2h11.5c0.5-0.8,0.9-1.7,1.3-2.6c-5.3,0.2-6.6,0.4-7.8,0.8c-0.3-1.5-0.8-3-1.4-4.4
	c1.1-0.3,2.2-0.7,3.1-1.3c3-1.6,5.7-3.6,8.1-5.9l4.4,2.4c-2,1.6-4.1,3.1-6.3,4.4l11.3-0.3c-1.1-0.9-2.3-1.8-3.5-2.6l3.8-2.4
	c3.5,2.3,8.2,5.8,10.5,8.3l-4.1,2.7c-0.7-0.8-1.5-1.6-2.2-2.3L436,14.4c-0.4,1-0.8,1.9-1.2,2.8h19.9v4.2L445.8,21.5z M449.9,33.5
	c-5.6,5.3-14.9,7.7-25.4,8.9c-0.5-1.5-1.3-3-2.2-4.3c9.6-0.7,18.7-2.6,23.2-6.7L449.9,33.5z M444.7,29.3c-4.2,3.2-10.9,5.3-17,6.4
	c-0.7-1.4-1.6-2.6-2.7-3.7c5.5-0.7,12.3-2.5,15.6-4.7L444.7,29.3z"/>
<path d="M476.6,11.6c0,0,0,1.6,0,2.2c-0.4,17.4-0.6,23.6-1.9,25.5c-0.7,1.1-1.8,1.9-3.1,2.1c-1.6,0.2-3.3,0.3-4.9,0.2
	c-0.1-1.7-0.6-3.4-1.4-4.8c1.6,0.1,3.1,0.2,3.9,0.2c0.6,0,1.1-0.2,1.4-0.7c0.8-1.1,1.1-6.1,1.4-19.8h-4.1c-0.4,10.9-1.8,20-7.1,26
	c-0.9-1.4-2.2-2.6-3.6-3.5c4.6-5.2,5.7-13,6-22.5h-4.7v-4.7h4.7c0-2.2,0-4.4,0-6.7h4.8c0,2.3,0,4.5,0,6.7H476.6z M493.6,8.9v32.3
	h-4.9v-2.5h-5.3v2.8h-4.7V8.9H493.6z M488.8,34V13.6h-5.3V34H488.8z"/>
<path d="M155.9,87.5c-1.7-1.2-5.2-3.1-7.6-4.4l2.6-3.6c2.2,1.1,5.9,2.9,7.7,4L155.9,87.5z M148.9,102.2c2.8-4.1,5.4-8.4,7.8-12.8
	l3.6,3.3c-2.2,4.3-4.7,8.9-7.2,12.9L148.9,102.2z M157.6,76.4c-1.6-1.2-5.1-3.1-7.4-4.5l2.7-3.5c2.3,1.2,5.8,2.9,7.6,4.1L157.6,76.4
	z M175.7,84.4v5.1h8.3v16.3h-4.6v-1.5h-12.2v1.7h-4.4V89.5h8.3v-5.1h-10.8v-4.7h10.8v-4.8c-2.6,0.4-5.4,0.7-7.9,0.9
	c-0.3-1.4-0.8-2.8-1.4-4.2c6.9-0.7,14.6-2,19.1-3.8l3.7,3.8c-2.9,1-5.8,1.8-8.9,2.4v5.6H186v4.7L175.7,84.4z M179.4,93.9h-12.3v6
	h12.2L179.4,93.9z"/>
<path d="M228.3,76.7c0,0,0,1.6,0,2.2c-0.4,16.4-0.9,22.4-2.2,24.3c-0.7,1.2-2,2-3.4,2.1c-1.8,0.2-3.6,0.2-5.5,0.1
	c-0.1-1.7-0.6-3.3-1.4-4.7c1.9,0.2,3.7,0.2,4.5,0.2c0.6,0.1,1.2-0.2,1.5-0.7c0.9-1.1,1.3-6,1.7-18.8h-4.2c-0.6,10.2-2.3,18.9-8,24.6
	c-1-1.4-2.2-2.7-3.6-3.7c1.2-1.2,2.2-2.5,3.1-3.9l-3.9,1.2c-0.1-0.5-0.3-1.2-0.5-1.9c-10.1,2.6-11.8,3.2-13,4
	c-0.4-1.5-0.9-2.9-1.6-4.3c0.8-0.3,1.3-1.2,2-2.7c1.2-3.1,2.2-6.4,2.9-9.7h-5v-4.5h18v4.4h-8c-0.9,3.5-2,7-3.4,10.3l6.9-1.6
	c-0.6-1.8-1.2-3.5-1.8-5.1l3.9-1.1c1.5,3.4,2.8,6.9,3.8,10.4c2.4-4.4,3.3-10.1,3.6-16.5h-4.4v-4.7h4.6c0-2.6,0-5.3,0-8.1h4.8
	c0,2.8,0,5.5-0.1,8.1H228.3z M208.9,75.3h-15.9V71h15.9V75.3z"/>
<path d="M248.1,98.5h-9.4v3.3h-4.6V71.1h14L248.1,98.5z M238.7,75.4v7.1h4.9v-7.1H238.7z M243.6,94.1v-7.4h-4.9v7.4H243.6z
	 M270.8,80.2h-4.2v19.3c0,2.9-0.6,4.2-2.5,5s-4.6,0.9-8.7,0.8c-0.3-1.7-0.9-3.3-1.7-4.9c2.8,0.1,5.9,0.1,6.7,0.1s1.2-0.3,1.2-1.1
	V80.2h-12.1v-4.8h12.1v-7.2h4.9v7.2h4.2V80.2z M255.8,94.3c-1.2-2.4-3.8-6.4-5.8-9.3l4-2.1c2,2.8,4.8,6.6,6.1,9L255.8,94.3z"/>
<path d="M311.9,72.1v4.1H306v3.5h-4.9v-3.5h-5.2v3.3H291v-3.3h-4.9v3.4h-4.9v-3.4h-6.1v-4.1h6.1v-4h4.9v4h4.9v-4h4.9v4h5.2v-4h4.9v4
	H311.9z M275.9,81.2h35.2v9h-3.4v7.7c0,2.1-0.4,3.3-1.9,4s-3.4,0.7-6,0.7c-0.3-1.5-0.8-2.9-1.4-4.2c1.5,0.1,3.2,0,3.7,0
	s0.7-0.1,0.7-0.6v-4.8h-7v13h-5.1v-13H285v9.5h-4.9V90.2h-4.2L275.9,81.2z M280.7,85.2v3.5h10.2v-3.5L280.7,85.2z M306.2,85.2h-10.3
	v3.5h10.3V85.2z"/>
<path d="M340.8,90.2c3.8,4.4,8.5,8,13.8,10.3c-1.3,1.2-2.4,2.6-3.4,4.1c-5.2-2.7-9.7-6.5-13.3-11.2v12.5h-5.1V93.5
	c-3.7,4.5-8.2,8.3-13.4,11c-1-1.5-2.1-2.9-3.4-4.1c5.4-2.3,10.1-5.8,13.9-10.2h-12.8v-4.6h7.7c-0.7-2.5-1.7-4.8-3.1-7l4.2-1.6H319
	v-4.7h13.7v-4.5h5.1v4.4H352V77h-6.8l4.7,1.4c-1.3,2.5-2.7,4.9-4.3,7.2h7.9v4.7L340.8,90.2z M326.1,77c1.5,2.2,2.6,4.6,3.5,7.1
	l-3.9,1.5h7.1V77H326.1z M337.9,77v8.6h6.9l-3.4-1.2c1.4-2.4,2.5-4.8,3.5-7.4H337.9z"/>
<path d="M377.9,93.2c-0.5,2.1-1.6,4.1-3,5.7c5.3,1.8,12,1.9,20.3,1.9c-1,1.4-1.8,3.1-2.1,4.8c-8.8-0.2-16.3-0.8-22.2-3.4
	c-3.5,1.9-7.2,3.1-11,3.8c-0.8-1.6-1.8-3-2.9-4.3c3.2-0.4,6.2-1.2,9.2-2.4c-1.6-1.3-3-2.8-4.2-4.6l3.7-1.5h-4.3V76.4h12.1V74h-15.6
	v-4.3h35.7V74h-15v2.4H391v16.8H377.9z M365.9,83h7.5v-2.6h-7.5V83z M365.9,89.3h7.5c0-0.4,0-0.9,0-1.3v-1.3h-7.5L365.9,89.3z
	 M366.3,93.3c1.1,1.4,2.5,2.6,4,3.6c1.1-1,1.9-2.2,2.4-3.6H366.3z M386.2,86.7h-7.7V88c0,0.4,0,0.9,0,1.3h7.7L386.2,86.7z
	 M378.5,80.4V83h7.7v-2.6L378.5,80.4z"/>
<path d="M435.9,87.9c-5.8,12.4-19.1,16.7-34.7,18.2c-0.4-1.6-1.1-3.2-2-4.7c6.1-0.3,12.1-1.4,17.9-3.3c-1.1-1-2.3-2-3.5-2.9l4-2.3
	c1.4,1,2.8,2,4.1,3.1c2.6-1.4,4.9-3.2,6.8-5.6h-9.3c-3.6,2.5-7.6,4.6-11.8,6.1c-0.8-1.4-1.8-2.7-3-3.8c8.4-2.6,14-6.6,17.1-10.6
	l5.3,1.2c-0.8,0.9-1.6,1.8-2.5,2.7h7.3l0.9-0.2L435.9,87.9z M430.6,72.9c-5.3,9.4-16.8,14.4-28.6,16.6c-0.6-1.5-1.3-3-2.2-4.3
	c4.1-0.6,8.2-1.6,12.1-3.1c-1.1-1-2.2-1.9-3.3-2.7l3.6-2.2c1.4,0.9,2.8,1.9,4.1,3c2.4-1.3,4.7-2.9,6.7-4.8h-10.2
	c-2.7,1.9-5.6,3.5-8.6,4.8c-0.9-1.3-2-2.5-3.3-3.5c6.6-2.4,11.4-5.9,14.1-9.1l5.2,1.3c-0.7,0.7-1.4,1.5-2.2,2.2h8.6l0.9-0.2
	L430.6,72.9z"/>
<path d="M450.4,92.5c-2.3,4-5.1,7.6-8.2,11c-1.3-1.1-2.7-2.1-4.1-3c3.1-2.8,5.6-6,7.6-9.6L450.4,92.5z M460.6,88.5v11.6
	c0,2.7-0.5,4-2.2,4.8s-4.2,0.9-7.6,0.9c-0.3-1.7-0.8-3.4-1.6-4.9c2.2,0.1,4.7,0,5.5,0s1-0.2,1-0.8V88.5h-8.4c-2.4,0-4.7,0.2-5.1,0.7
	c-0.4-1.5-1-3-1.6-4.4c0.7-0.3,1.1-1.2,1.5-2.7c0.8-3.8,1.2-7.6,1.3-11.5c9.5-0.2,20.4-1,27.4-2.4l2.5,4.4c-7,1.5-16.5,2.2-25.1,2.4
	c-0.3,2.9-0.8,5.8-1.4,8.7h9v-7h5v7h13.9v4.9L460.6,88.5z M468.7,90.9c2.8,3.3,5.3,6.7,7.5,10.4l-4.6,2.1c-2.1-3.8-4.4-7.3-7.1-10.7
	L468.7,90.9z"/>
<path d="M490.4,98.8c2.5,1.1,5.7,1.4,9.7,1.4c2.9,0,13.3,0,16.8-0.1c-0.8,1.5-1.5,3.1-1.8,4.8h-15c-7.9,0-13-1.1-16.4-6.3
	c-0.5,2.6-1.4,5.1-2.7,7.4c-0.8-1.2-1.9-2.2-3.1-3c2.6-4.7,2.8-11,2.6-16.6l4,0.2c0,1.5,0,3,0,4.5c0.4,1.4,1,2.7,1.8,3.9V83.8H479
	v-4.3h6v-3.3h-5V72h5v-4.1h4.3V72h4.1v4.2h-4.1v3.3h4.9v4.3h-3.8v4.1h3.8v4.2h-3.8L490.4,98.8z M495.3,73.4h-1.6v-4.1h13.2v3.1h6
	l0.7-0.1l2.5,0.8c-0.5,5.1-1.3,10.1-2.6,15c1.3,2.7,2.3,5.5,3.2,8.4l-3.8,1.4c-0.4-1.4-0.8-2.8-1.3-4.2c-0.8,2-1.8,3.9-3,5.6
	c-0.8-1.2-1.9-2.3-3-3.3c1.7-2.4,2.9-5.1,3.8-7.9c-1.2-2.9-2.6-5.8-3.9-8.4v9.7l1.3-0.4l0.7,3.4l-2,0.8v6.2h-3.8v-4.7
	c-2.7,1.1-5.4,2.1-7.7,2.9l-1-4c0.7-0.2,1.5-0.4,2.4-0.7L495.3,73.4z M501.6,73.4h-2.6v3.3h2.6V73.4z M501.6,80.4h-2.6v3.5h2.6V80.4
	z M501.6,90.9v-3.3h-2.6v4.2L501.6,90.9z M508.6,78.3c0.7,1.3,1.5,2.7,2.2,4.2c0.4-2,0.7-4.1,1-6.2h-5.4v-2.8h-0.9v5.9L508.6,78.3z"
	/>
<path d="M534.5,79.2c0-2.4-1.5-3.8-4-3.8c-2.2,0-4.2,1.1-5.5,2.8l-3.6-3.3c2.4-2.9,6-4.6,9.8-4.7c5.5,0,9.5,2.9,9.5,8.4
	c0,6.6-8,7.4-7.4,13.7h-5.7C526.7,85.2,534.5,83.6,534.5,79.2z M526.7,100.2c0-2.1,1.7-3.9,3.9-3.9s3.9,1.7,3.9,3.9
	c0,2.1-1.7,3.9-3.9,3.9l0,0c-2.1,0.1-3.8-1.6-3.9-3.6C526.7,100.4,526.7,100.3,526.7,100.2L526.7,100.2z"/>
</svg>