<svg version="1.1" xmlns="http://www.w3.org/2000/svg" viewBox="0 0 689 109.8" width="689" height="110">
<path d="M79.5,7.7v25.1c0.1,1.9-1.3,3.6-3.2,3.8s-3.6-1.3-3.8-3.2c0-0.2,0-0.4,0-0.5V7.7c-0.1-1.9,1.3-3.6,3.2-3.8s3.6,1.3,3.8,3.2
	C79.5,7.3,79.5,7.5,79.5,7.7z"/>
<path d="M98.2,33c0,1.4-1,2.3-2.5,2.9l-1.6,0.2c-3.7,0-6.7-1.5-6.7-5.9V17.6h-1.3c-1.5,0-2.6-1.2-2.6-2.7c0-1.5,1.2-2.6,2.6-2.6h1.3
	V8.9c0.1-1.8,1.7-3.3,3.5-3.2c1.7,0.1,3.1,1.5,3.2,3.2v3.4h2.2c1.5,0,2.7,1.2,2.7,2.6s-1.2,2.7-2.6,2.7c0,0,0,0,0,0h-2.2v9.9
	c0,2.2,0.3,3.1,1.6,3.1h0.1c1.2-0.1,2.3,0.8,2.4,2C98.2,32.7,98.2,32.9,98.2,33z"/>
<path d="M148.6,19.1v13.8c0,1.8-1.4,3.4-3.3,3.4c0,0,0,0-0.1,0c-1.9,0-3.4-1.5-3.4-3.4c0,0,0,0,0,0v-12c0-2.5-1.2-4-3.6-4
	c-1.5,0.1-2.9,0.6-4.1,1.6c0.2,1.3,0.3,2.6,0.3,3.9V33c0,1.8-1.5,3.3-3.3,3.3c-1.8,0-3.3-1.5-3.3-3.3c0,0,0,0,0,0V20.9
	c0-2.7-1.1-4-3.6-4c-1.4,0.1-2.7,0.7-3.7,1.8v14.2c0.1,1.9-1.3,3.5-3.2,3.6c-1.9,0.1-3.5-1.3-3.6-3.2c0-0.1,0-0.2,0-0.4V18.3
	c-0.1-1.1-0.2-2.3-0.4-3.4c-0.2-1.5,0.7-3,2.2-3.4c1.8-0.7,3.9,0.3,4.6,2.1c0,0.1,0.1,0.2,0.1,0.3c0,0.1,0,0.1,0,0.2
	c1.8-1.7,4.1-2.6,6.5-2.7c4,0,5.5,1.7,6.3,2.7c2.2-1.7,4.9-2.7,7.7-2.7C147.4,11.3,148.6,15.9,148.6,19.1z"/>
<path d="M154,6c0.2-2.3,2.2-4,4.5-3.8c2,0.2,3.6,1.8,3.8,3.8c-0.2,2.3-2.2,4-4.5,3.8C155.8,9.6,154.2,8,154,6z M161.6,14.9v17.9
	c0.1,1.9-1.3,3.5-3.2,3.6c-1.9,0.1-3.5-1.3-3.6-3.2c0-0.1,0-0.2,0-0.4V14.9c0.1-1.9,1.7-3.3,3.6-3.2
	C160.1,11.8,161.5,13.2,161.6,14.9L161.6,14.9z"/>
<path d="M189.5,14.3c-0.1,0.8-0.2,1.7-0.2,2.3v18.5c0,9-7,10.7-11.6,10.7c-3.2,0-6.7-0.4-8.9-1.9c-1.5-0.9-1.9-2.9-1-4.4
	c0-0.1,0.1-0.1,0.1-0.2c1-1.3,2.7-1.7,4.1-1c1.7,0.8,3.6,1.2,5.5,1.2c3.3,0,5.1-1.8,5.1-5.3v-0.8c-1.5,2-4,3.2-6.5,3
	c-7.1,0-9.6-5.5-9.6-12.5s2.8-13,10.2-13c2.4-0.1,4.7,0.9,6.4,2.6c0-0.1,0.1-0.2,0.1-0.2c0.3-1.4,1.6-2.3,3-2.2
	C188.6,11.2,189.6,12.6,189.5,14.3z M182.5,27.7c0.2-1.2,0.3-2.3,0.3-3.5v-0.7c0-1.4-0.1-2.9-0.3-4.3c-0.9-1.5-2.6-2.4-4.4-2.4
	c-3.8,0-4.6,3.6-4.6,7.3s1,6.9,4.1,6.9C179.7,30.9,181.6,29.7,182.5,27.7L182.5,27.7z"/>
<path d="M216.7,19.1v13.8c0.1,1.9-1.3,3.5-3.2,3.6s-3.5-1.3-3.6-3.2c0-0.1,0-0.2,0-0.4v-12c0-2.7-1.1-4-3.5-4
	c-1.6-0.1-3.2,0.6-4.2,1.9v14.1c0.1,1.9-1.3,3.5-3.2,3.6c-1.9,0.1-3.5-1.3-3.6-3.2c0-0.1,0-0.2,0-0.4V6c0.1-1.9,1.7-3.3,3.6-3.2
	c1.7,0.1,3.1,1.5,3.2,3.2v7.7c1.8-1.5,4-2.3,6.4-2.3C215.6,11.3,216.7,15.9,216.7,19.1z"/>
<path d="M234.7,33c0,1.4-1,2.3-2.5,2.9l-1.6,0.2c-3.7,0-6.7-1.5-6.7-5.9V17.6h-1.3c-1.5,0-2.6-1.2-2.6-2.7c0-1.5,1.2-2.6,2.6-2.6
	h1.3V8.9c0.1-1.8,1.7-3.3,3.5-3.2c1.7,0.1,3.1,1.5,3.2,3.2v3.4h2.2c1.5,0,2.6,1.2,2.6,2.7c0,1.5-1.2,2.6-2.6,2.6h-2.2v9.9
	c0,2.2,0.3,3.1,1.6,3.1h0.1c1.2-0.1,2.3,0.8,2.4,2C234.7,32.7,234.7,32.9,234.7,33z"/>
<path d="M272.7,23.6c0,7.1-2.8,13.1-10.2,13.1c-2.3-0.1-4.5-1-6.2-2.5l-0.1,0.2c-0.5,1.1-1.7,1.8-2.9,1.8c-1.8,0-3.2-1.4-3.2-3.2
	V5.9c0-1.8,1.5-3.3,3.3-3.3c1.8,0,3.3,1.5,3.3,3.3v7.8c1.7-1.7,3.9-2.6,6.3-2.6C270.1,11.1,272.7,16.5,272.7,23.6z M265.8,23.7
	c0-3.8-1-6.9-4.1-6.9c-2.1,0-4,1.3-4.9,3.2c-0.2,1.2-0.2,2.4-0.2,3.5v0.7c0,1.4,0.1,2.9,0.3,4.3c1,1.5,2.6,2.4,4.4,2.4
	C265,31,265.8,27.4,265.8,23.7z"/>
<path d="M283.4,25.7v0.1c0,1.3,0.8,5.1,6.2,5.1c1.9,0,2.7-0.6,4.2-1.1c1.5-0.5,3.1,0.4,3.5,1.9c0.4,1.4-0.2,2.8-1.5,3.4
	c-2,1-4.3,1.5-6.5,1.5c-10.1,0-12.6-6.5-12.6-12.5c0-7.2,3.9-13.2,12-13.2c7.2,0,9.3,5.4,9.3,10.8v0.8c0.1,1.6-1.1,3-2.7,3.1
	c-0.2,0-0.3,0-0.5,0L283.4,25.7z M283.6,20.9h8.2c0-2.5-0.7-4.7-3.9-4.7C285,16.2,283.6,19.1,283.6,20.9L283.6,20.9z"/>
<path d="M318.3,35.6c-1.4,0.7-3,1-4.5,1.1c-8.9,0-12-6.3-12-12.7c0-7.7,4.1-12.9,11.5-12.9c1.8,0,3.6,0.4,5.2,1.3
	c1.4,0.8,1.9,2.5,1.1,3.9c-0.7,1.3-2.2,1.8-3.5,1.3c-0.7-0.3-1.4-0.5-2.2-0.5c-3.5,0-5.2,2.2-5.2,6.9s2.7,6.6,5.1,6.6
	c0.9-0.1,1.7-0.2,2.6-0.6c1.3-0.4,2.7,0.1,3.4,1.4c0.8,1.4,0.3,3.3-1.2,4.1C318.4,35.6,318.4,35.6,318.3,35.6z"/>
<path d="M347,23.7c0,5.8-2.6,13.2-12,13.2s-12-7.4-12-13.2c0-5.6,2.6-12.8,12-12.8S347,18,347,23.7z M340,23.6c0-5.3-2.1-7.2-5-7.2
	s-5.1,1.9-5.1,7.2c0,5.5,2,7.6,5.1,7.6S340,29.1,340,23.6z"/>
<path d="M387,19.1v13.8c0.1,1.9-1.3,3.4-3.2,3.5c-1.9,0.1-3.4-1.3-3.5-3.2c0-0.1,0-0.2,0-0.4v-12c0-2.5-1.2-4-3.6-4
	c-1.5,0.1-2.9,0.6-4.1,1.6c0.2,1.3,0.3,2.6,0.3,3.9V33c-0.1,1.8-1.7,3.2-3.5,3.1c-1.7-0.1-3-1.4-3.1-3.1V20.9c0-2.7-1.1-4-3.6-4
	c-1.4,0.1-2.7,0.7-3.7,1.8v14.2c0.1,1.9-1.3,3.5-3.2,3.6c-1.9,0.1-3.5-1.3-3.6-3.2c0-0.1,0-0.2,0-0.4V18.3c-0.1-1.1-0.2-2.3-0.4-3.4
	c-0.2-1.5,0.7-3,2.2-3.4c1.8-0.7,3.9,0.3,4.6,2.1c0,0.1,0.1,0.2,0.1,0.3c0,0.1,0,0.1,0,0.2c1.8-1.7,4.1-2.6,6.5-2.7
	c4,0,5.5,1.7,6.3,2.7c2.2-1.7,4.9-2.7,7.7-2.7C385.8,11.3,387,15.9,387,19.1z"/>
<path d="M398.8,25.7v0.1c0,1.3,0.8,5.1,6.2,5.1c1.9,0,2.7-0.6,4.2-1.1c1.5-0.5,3.1,0.4,3.5,1.9c0.4,1.4-0.2,2.8-1.5,3.4
	c-2,1-4.3,1.5-6.5,1.5c-10.1,0-12.6-6.5-12.6-12.5c0-7.2,3.9-13.2,12-13.2c7.3,0,9.3,5.4,9.3,10.8v0.8c0.1,1.6-1.1,3-2.7,3.1
	c-0.2,0-0.3,0-0.5,0L398.8,25.7z M398.9,20.9h8.1c0-2.5-0.7-4.7-3.9-4.7C400.4,16.2,399,19.1,398.9,20.9L398.9,20.9z"/>
<path d="M464.2,19.1v13.8c0,1.8-1.4,3.4-3.3,3.4c0,0,0,0-0.1,0c-1.9,0-3.4-1.5-3.4-3.4c0,0,0,0,0,0v-12c0-2.5-1.2-4-3.6-4
	c-1.5,0.1-2.9,0.6-4.1,1.6c0.2,1.3,0.3,2.6,0.3,3.9V33c-0.1,1.8-1.7,3.2-3.5,3.1c-1.7-0.1-3-1.4-3.1-3.1V20.9c0-2.7-1.1-4-3.6-4
	c-1.4,0.1-2.7,0.7-3.7,1.8v14.2c0.1,1.9-1.3,3.5-3.2,3.6c-1.9,0.1-3.5-1.3-3.6-3.2c0-0.1,0-0.2,0-0.4V18.3c-0.1-1.1-0.2-2.3-0.5-3.4
	c-0.2-1.5,0.7-3,2.2-3.4c1.8-0.7,3.9,0.3,4.6,2.1c0,0.1,0.1,0.2,0.1,0.3c0,0.1,0,0.1,0,0.2c1.8-1.7,4.1-2.6,6.5-2.7
	c4,0,5.5,1.7,6.3,2.7c2.2-1.7,4.9-2.7,7.7-2.7C463.1,11.3,464.2,15.9,464.2,19.1z"/>
<path d="M493.3,23.7c0,5.8-2.6,13.2-12,13.2s-12-7.4-12-13.2c0-5.6,2.6-12.8,12-12.8S493.3,18,493.3,23.7z M486.3,23.6
	c0-5.3-2.1-7.2-5.1-7.2s-5.1,1.9-5.1,7.2c0,5.5,2,7.6,5.1,7.6S486.3,29.1,486.3,23.6L486.3,23.6z"/>
<path d="M509.5,17.7c-2,0.4-3.5,1.1-4.3,2.6v12.5c0.1,1.9-1.3,3.5-3.2,3.6c-1.9,0.1-3.5-1.3-3.6-3.2c0-0.1,0-0.2,0-0.4V18
	c-0.1-1-0.2-2-0.4-3.1c-0.3-1.5,0.6-2.9,2.1-3.4c1.8-0.7,3.8,0.2,4.6,2c0.1,0.1,0.1,0.3,0.1,0.4l0.2,0.6c0.7-1.3,1.8-2.2,3.2-2.7
	c1.5-0.6,3.3,0.1,3.9,1.7c0,0.1,0.1,0.2,0.1,0.3c0.4,1.7-0.6,3.4-2.2,3.9C509.8,17.7,509.6,17.7,509.5,17.7z"/>
<path d="M521,25.7v0.1c0,1.3,0.8,5.1,6.2,5.1c1.9,0,2.7-0.6,4.2-1.1c1.5-0.5,3.1,0.4,3.5,1.9c0.4,1.4-0.2,2.8-1.5,3.4
	c-2,1-4.3,1.5-6.5,1.5c-10.1,0-12.6-6.5-12.6-12.5c0-7.2,3.9-13.2,11.9-13.2c7.3,0,9.3,5.4,9.3,10.8v0.8c0.1,1.6-1.1,3-2.7,3.1
	c-0.2,0-0.3,0-0.5,0L521,25.7z M521.2,20.9h8.2c0-2.5-0.7-4.7-3.9-4.7C522.6,16.2,521.2,19.1,521.2,20.9L521.2,20.9z"/>
<path d="M566.9,6.9c-0.5,1.4-1.9,2.2-3.3,1.8c-0.5-0.1-1-0.2-1.5-0.2c-1.6,0-2.6,1.5-2.6,3.3v0.5h2.2c1.5,0,2.6,1.2,2.6,2.7
	c0,1.5-1.2,2.6-2.6,2.6h-2.2V33c-0.1,1.8-1.7,3.2-3.5,3.1c-1.7-0.1-3-1.4-3.1-3.1V17.6h-1.5c-1.5,0-2.6-1.2-2.6-2.7
	c0-1.5,1.2-2.6,2.6-2.6h1.5v-0.7c0-3.3,1.9-9,9.2-9c1.2,0,2.3,0.2,3.4,0.7C566.8,4,567.4,5.5,566.9,6.9z"/>
<path d="M587,36.3c-1.8,0.6-3.6-0.6-4.4-2.4l-0.1-0.2c-1.8,1.8-4.3,2.7-6.8,2.7c-6.9,0-8.1-4.6-8.1-7.9V14.9
	c0.1-1.9,1.7-3.3,3.6-3.2c1.7,0.1,3.1,1.5,3.2,3.2v11.9c0,2.7,1.1,4.1,3.5,4.1c1.6,0,3.1-0.7,4.2-1.8V14.9c0.1-1.9,1.7-3.3,3.6-3.2
	c1.7,0.1,3.1,1.5,3.2,3.2v12.6c0,1.7,0.2,3.4,0.5,5.1C589.6,34.3,588.6,35.9,587,36.3z"/>
<path d="M616.5,19.1v13.8c0.1,1.9-1.3,3.5-3.2,3.6c-1.9,0.1-3.5-1.3-3.6-3.2c0-0.1,0-0.2,0-0.4v-12c0-2.7-1.1-4-3.5-4
	c-1.6,0-3.1,0.6-4.2,1.8v14.2c0.1,1.9-1.3,3.5-3.2,3.6c-1.9,0.1-3.5-1.3-3.6-3.2c0-0.1,0-0.2,0-0.4V18c0-1.1-0.3-1.9-0.4-2.9
	c-0.2-1.5,0.6-3,2.1-3.6c1.8-0.7,3.8,0.2,4.6,2c0.1,0.1,0.1,0.3,0.1,0.4c0,0,0.1,0.1,0.1,0.2c1.8-1.7,4.2-2.7,6.8-2.7
	C615.4,11.3,616.5,15.9,616.5,19.1z"/>
<path d="M168.6,95c0,1.4-1,2.3-2.5,2.9l-1.6,0.2c-3.7,0-6.7-1.5-6.7-5.9V79.6h-1.3c-1.5,0-2.6-1.2-2.6-2.7s1.2-2.7,2.6-2.7h1.3v-3.4
	c0.1-1.8,1.7-3.3,3.5-3.2c1.7,0.1,3.1,1.5,3.2,3.2v3.4h2.2c1.5,0,2.7,1.2,2.7,2.7s-1.2,2.7-2.7,2.7l0,0h-2.2v9.9
	c0,2.2,0.3,3.1,1.6,3.1h0.1c1.2-0.1,2.3,0.8,2.4,2C168.7,94.7,168.7,94.9,168.6,95z"/>
<path d="M196,85.7c0,5.8-2.6,13.2-12,13.2s-12-7.4-12-13.2c0-5.6,2.6-12.8,12-12.8S196,80.1,196,85.7z M189,85.6
	c0-5.3-2.1-7.2-5.1-7.2s-5.1,1.9-5.1,7.2c0,5.5,2,7.6,5.1,7.6S189,91.1,189,85.6z"/>
<path d="M219.2,76.9v18.3c0,6.7-2.7,10-6.1,11.9c-1.5,1-3.4,0.7-4.5-0.7c-1.1-1.3-0.9-3.3,0.4-4.4c0.1-0.1,0.3-0.2,0.4-0.3
	c2.3-1.6,3-3.5,3-7.8V76.9c0.1-1.9,1.7-3.3,3.6-3.2C217.7,73.8,219.1,75.2,219.2,76.9L219.2,76.9z M211.6,68
	c-0.2-2.3,1.6-4.2,3.8-4.4c2.3-0.2,4.2,1.6,4.4,3.8c0.2,2.3-1.6,4.2-3.8,4.4c-0.1,0-0.2,0-0.3,0C213.5,71.9,211.7,70.2,211.6,68z"/>
<path d="M248.1,85.7c0,5.8-2.6,13.2-12,13.2s-12-7.4-12-13.2c0-5.6,2.6-12.8,12-12.8S248.1,80.1,248.1,85.7z M241.1,85.6
	c0-5.3-2.1-7.2-5-7.2s-5.1,1.9-5.1,7.2c0,5.5,2,7.6,5.1,7.6S241.1,91.1,241.1,85.6L241.1,85.6z"/>
<path d="M252.4,68c-0.2-2.3,1.5-4.3,3.8-4.4c2.3-0.2,4.3,1.5,4.4,3.8c0.2,2.3-1.5,4.3-3.8,4.4c-0.1,0-0.2,0-0.3,0
	C254.3,71.9,252.5,70.2,252.4,68C252.4,68,252.4,68,252.4,68z M259.9,76.9v17.9c0.1,1.9-1.3,3.5-3.2,3.6c-1.9,0.1-3.5-1.3-3.6-3.2
	c0-0.1,0-0.2,0-0.4V76.9c0.1-1.9,1.7-3.3,3.6-3.2C258.4,73.8,259.8,75.2,259.9,76.9L259.9,76.9z"/>
<path d="M287.4,81.1v13.8c0.1,1.9-1.3,3.5-3.2,3.6c-1.9,0.1-3.5-1.3-3.6-3.2c0-0.1,0-0.2,0-0.4v-12c0-2.7-1.1-4-3.5-4
	c-1.6,0-3.1,0.6-4.2,1.8v14.2c0.1,1.9-1.3,3.5-3.2,3.6c-1.9,0.1-3.5-1.3-3.6-3.2c0-0.1,0-0.2,0-0.4V80c0-1.1-0.3-1.9-0.4-2.9
	c-0.2-1.5,0.6-3,2.1-3.6c1.8-0.7,3.8,0.2,4.6,2c0.1,0.1,0.1,0.3,0.1,0.4c0,0,0.1,0.1,0.1,0.2c1.8-1.7,4.2-2.7,6.8-2.7
	C286.2,73.3,287.4,77.8,287.4,81.1z"/>
<path d="M316.3,95c0,1.4-1,2.3-2.5,2.9l-1.5,0.2c-3.7,0-6.7-1.5-6.7-5.9V79.6h-1.3c-1.5,0-2.6-1.2-2.6-2.7s1.2-2.7,2.6-2.7h1.3v-3.4
	c0.1-1.8,1.7-3.3,3.5-3.2c1.7,0.1,3.1,1.5,3.2,3.2v3.4h2.2c1.5,0,2.6,1.2,2.6,2.7s-1.2,2.7-2.6,2.7h-2.2v9.9c0,2.2,0.3,3.1,1.6,3.1
	h0.2c1.2-0.1,2.2,0.8,2.3,2C316.3,94.7,316.3,94.9,316.3,95z"/>
<path d="M342,81.1v13.8c0.1,1.9-1.3,3.5-3.2,3.6c-1.9,0.1-3.5-1.3-3.6-3.2c0-0.1,0-0.2,0-0.4v-12c0-2.7-1.1-4-3.5-4
	c-1.6-0.1-3.2,0.6-4.2,1.9v14.1c0.1,1.9-1.3,3.5-3.2,3.6c-1.9,0.1-3.5-1.3-3.6-3.2c0-0.1,0-0.2,0-0.4V68c0.1-1.9,1.7-3.3,3.6-3.2
	c1.7,0.1,3.1,1.5,3.2,3.2v7.7c1.8-1.5,4.1-2.4,6.4-2.3C340.9,73.3,342,77.8,342,81.1z"/>
<path d="M353.8,87.7v0.1c0,1.3,0.8,5.1,6.1,5.1c1.9,0,2.7-0.6,4.2-1.1c1.5-0.5,3.1,0.4,3.5,1.9c0.4,1.4-0.2,2.8-1.5,3.4
	c-2,1-4.3,1.5-6.5,1.5c-10.1,0-12.6-6.5-12.6-12.5c0-7.2,3.9-13.2,12-13.2c7.3,0,9.3,5.4,9.3,10.8v0.8c0.1,1.6-1.1,3-2.7,3.1
	c-0.2,0-0.3,0-0.5,0L353.8,87.7z M354,83h8.1c0-2.5-0.7-4.7-3.9-4.7C355.4,78.2,354,81.2,354,83z"/>
<path d="M389.9,87.7v0.1c0,1.3,0.8,5.1,6.2,5.1c1.9,0,2.7-0.6,4.2-1.1c1.4-0.5,2.9,0.2,3.5,1.5c0.7,1.4,0.1,3-1.3,3.7
	c-0.1,0-0.1,0-0.2,0.1c-2,1-4.3,1.5-6.5,1.5c-10.1,0-12.6-6.5-12.6-12.5c0-7.2,3.8-13.2,11.9-13.2c7.3,0,9.3,5.4,9.3,10.8v0.8
	c0.1,1.6-1.1,3-2.7,3.1c-0.2,0-0.3,0-0.5,0L389.9,87.7z M390.1,83h8.1c0-2.5-0.7-4.7-3.9-4.7C391.5,78.2,390.1,81.2,390.1,83z"/>
<path d="M429.9,78l-7.1,17.4c-0.6,1.7-2.3,2.9-4.1,2.9c-1.8,0-3.4-1.1-4-2.8l-7.2-17.4c-0.7-1.7,0.2-3.7,2-4.4
	c0.4-0.1,0.8-0.2,1.2-0.2c1.5-0.1,2.9,0.9,3.3,2.4l5,14l4.6-14c0.4-1.5,1.7-2.5,3.2-2.5c1.9,0,3.4,1.5,3.4,3.3
	C430.1,77.2,430,77.6,429.9,78z"/>
<path d="M439.6,87.7v0.1c0,1.3,0.8,5.1,6.1,5.1c1.9,0,2.7-0.6,4.2-1.1c1.5-0.5,3.1,0.4,3.5,1.9c0.4,1.4-0.2,2.8-1.5,3.4
	c-2,1-4.3,1.5-6.5,1.5c-10.1,0-12.6-6.5-12.6-12.5c0-7.2,3.9-13.2,12-13.2c7.2,0,9.3,5.4,9.3,10.8v0.8c0.1,1.6-1.1,3-2.7,3.1
	c-0.2,0-0.3,0-0.5,0L439.6,87.7z M439.8,83h8.2c0-2.5-0.7-4.7-3.9-4.7C441.2,78.2,439.8,81.2,439.8,83L439.8,83z"/>
<path d="M480.4,81.1v13.8c0,1.9-1.5,3.4-3.4,3.4s-3.4-1.5-3.4-3.4l0,0v-12c0-2.7-1.1-4-3.5-4c-1.6,0-3.1,0.6-4.2,1.8v14.2
	c0.1,1.9-1.3,3.5-3.2,3.6c-1.9,0.1-3.5-1.3-3.6-3.2c0-0.1,0-0.2,0-0.4V80c0-1.1-0.3-1.9-0.4-2.9c-0.2-1.5,0.6-3,2.1-3.6
	c1.8-0.7,3.8,0.1,4.6,1.9c0.1,0.1,0.1,0.3,0.1,0.4c0,0,0.1,0.1,0.1,0.2c1.8-1.7,4.2-2.7,6.8-2.7C479.3,73.3,480.4,77.8,480.4,81.1z"
	/>
<path d="M498.4,95c0,1.4-1,2.3-2.5,2.9l-1.5,0.2c-3.7,0-6.7-1.5-6.7-5.9V79.6h-1.3c-1.5,0-2.6-1.2-2.6-2.7s1.2-2.7,2.6-2.7h1.3v-3.4
	c0.1-1.8,1.7-3.3,3.5-3.2c1.7,0.1,3.1,1.5,3.2,3.2v3.4h2.2c1.5,0,2.6,1.2,2.6,2.7s-1.2,2.7-2.6,2.7h-2.2v9.9c0,2.2,0.3,3.1,1.6,3.1
	h0.1c1.2-0.1,2.3,0.8,2.4,2C498.4,94.7,498.4,94.9,498.4,95z"/>
<path d="M518,90.9c0,6.1-4.7,7.8-8.4,7.8c-2.6,0.1-5.1-0.6-7.2-2c-1.1-0.9-1.5-2.4-0.8-3.6c0.7-1.4,2.4-1.9,3.8-1.2
	c0,0,0.1,0,0.1,0.1c1.2,0.8,2.6,1.2,4,1.2c1,0.1,1.9-0.6,2-1.7c0-0.1,0-0.2,0-0.2c0-1.3-1.5-2.2-4.2-3.6c-3.2-1.6-5.2-3.3-5.2-7.1
	c0-5.9,4.9-7.4,8.8-7.4c1.8,0,3.5,0.5,5,1.3c1.4,0.7,2,2.5,1.3,3.9c0,0.1-0.1,0.1-0.1,0.2c-0.8,1.2-2.5,1.5-3.7,0.7
	c-0.1-0.1-0.2-0.1-0.2-0.2c-0.7-0.5-1.6-0.8-2.4-0.7c-1,0-1.9,0.8-1.9,1.8c0,0,0,0.1,0,0.1c0,1,0.8,1.6,3.3,3
	C515.2,84.8,518,86.6,518,90.9z"/>
<path d="M531,94.4c0,2.2-1.7,3.9-3.9,3.9c-2.2,0-3.9-1.7-3.9-3.9c0-2.2,1.7-3.9,3.9-3.9c0,0,0,0,0,0C529.3,90.6,531,92.3,531,94.4z
	 M524,84.7l-0.5-8v-7c0-2,1.6-3.6,3.6-3.6s3.6,1.6,3.6,3.6v6.9l-0.5,8c-0.1,1.7-1.6,3-3.3,2.9C525.3,87.4,524.1,86.2,524,84.7
	L524,84.7z"/>
</svg>