<svg version="1.1" xmlns="http://www.w3.org/2000/svg" viewBox="0 0 689 110" width="689" height="110">
<path d="M172,28.1c-0.1,1.7-0.2,3.1-0.3,4.5h4.6v4.2h-5.1c-0.1,1.2-0.5,2.3-1.1,3.3c-0.8,1.1-2,1.9-3.4,2c-1.8,0.2-3.6,0.2-5.5,0.1
	c-0.1-1.3-0.5-2.6-1.1-3.7c1.4,0.1,2.9,0.2,4.3,0.2c0.6,0.1,1.1-0.2,1.4-0.7c0.2-0.4,0.4-0.7,0.5-1.1h-21.9c0.5-2.4,1-5.5,1.5-8.7
	h-5.6v-4.3h6.2c0.3-2.5,0.6-5,0.9-7.2c-1,1.3-2,2.4-3,3.4c-1.4-1-2.9-2-4.4-2.8c4.1-3.7,7.3-8.2,9.3-13.3l4.8,1.4
	c-0.4,0.8-0.8,1.7-1.2,2.5h23.5v4.3h-26c-0.7,1.1-1.4,2.1-2.1,3.1h24.1c0,0,0,1.6,0,2.1c-0.1,2.4-0.2,4.4-0.2,6.4h5.9v4.3H172z
	 M150.6,27.9c-0.2,1.6-0.4,3.1-0.7,4.6h8.9c-1.5-1.2-3.1-2.2-4.9-3l1.6-1.6L150.6,27.9z M151.8,19.5c-0.2,1.5-0.4,2.9-0.6,4.4h8.1
	c-1.5-1.1-3.1-2.1-4.7-2.8l1.7-1.6H151.8z M167,32.6c0.1-1.3,0.2-2.8,0.3-4.6h-8.5c1.7,0.9,3.3,2,4.8,3.2l-1.4,1.4H167z M167.4,23.9
	c0.1-1.4,0.1-2.8,0.2-4.4h-8.3c1.7,0.9,3.2,1.9,4.6,3.1l-1.4,1.4L167.4,23.9z"/>
<path d="M202.9,24.1c2.9,6.5,8.1,11.2,16,13.3c-1.4,1.3-2.5,2.8-3.3,4.5c-7.7-2.4-12.6-7.2-16-13.9c-2.2,5.4-6.9,10.6-16,14
	c-0.9-1.5-1.9-3-3.2-4.2c9.4-3.3,13.4-8.6,15.1-13.8h-13.7v-5h14.7c0.1-1.1,0.1-2.1,0.1-3.1v-4.1h-13.3v-5h32.3v5h-13.9V16
	c0,1,0,2-0.1,3.1h15.5v5H202.9z"/>
<path d="M227.5,22.4c-0.2,6-1,13.5-3.7,18.6c-1.1-1.1-2.3-2-3.7-2.8c2.7-5.5,3-13.2,3-18.8V9.1h6.8c-0.4-1.4-0.9-2.8-1.4-4.1
	l4.2-1.1c0.6,1.6,1.3,3.5,1.8,5.1h5.6v13.3L227.5,22.4L227.5,22.4z M241,25.8v15.3h-4.3v-1.7h-5v2.3h-4.1V25.8H241z M227.6,13.4v4.8
	h8.3v-4.8H227.6z M236.6,35.5v-5.8h-5v5.8H236.6z M256.9,16.2c-0.5,5.3-1.9,10.6-4,15.5c1.6,2.7,3.8,5,6.5,6.7
	c-1.2,1.1-2.2,2.3-3,3.7c-2.4-1.6-4.4-3.6-6-6c-1.9,2.6-4.2,4.7-6.9,6.4c-0.7-1.4-1.6-2.8-2.6-4c2.9-1.7,5.4-4.1,7.1-6.9
	c-1.2-2.9-2.2-5.8-2.9-8.9c-0.4,0.7-0.9,1.4-1.4,2c-1-1.2-2.2-2.4-3.5-3.4c3.3-3.9,5.1-10.4,6.1-17.2l4.5,0.7
	c-0.4,2.4-0.8,4.7-1.4,7h9.2v4.5L256.9,16.2z M247.9,16.9c0.5,3.2,1.4,6.4,2.5,9.4c1-3.3,1.6-6.6,2-10h-4.2L247.9,16.9z"/>
<path d="M299.1,13.3c0,0,0,1.6,0,2.2c-0.4,16.7-0.7,22.6-2,24.5c-0.7,1.1-1.9,1.8-3.2,2c-1.7,0.2-3.4,0.3-5,0.2
	c-0.1-1.6-0.6-3.2-1.4-4.7c1.8,0.2,3.3,0.2,4.1,0.2c0.6,0.1,1.1-0.2,1.4-0.7c0.9-1.1,1.3-6.1,1.5-19.2h-3.7
	c-0.5,10.9-2.4,19.3-9.2,24.7c-0.8-1.2-1.8-2.3-2.9-3.2c-5.9,0.6-11.7,1.2-16.1,1.6l-0.6-4.1c2.3-0.2,5.1-0.4,8.3-0.6v-2.4h-7.2
	v-3.4h7.2v-1.6h-7V16.2h7v-1.6h-8v-3.5h8V9.4c-2.4,0.2-4.7,0.3-6.9,0.3c-0.2-1.2-0.6-2.3-1.1-3.4c5.9-0.3,11.8-0.9,17.6-2l2.1,3.6
	c-2.2,0.5-4.7,0.8-7.3,1.1v2h7.8v2.2h3.8c0-2.7,0-5.5,0-8.5h4.6c0,3,0,5.8-0.1,8.5L299.1,13.3L299.1,13.3z M267,21h3.2v-1.8H267V21z
	 M270.1,25.7v-1.8h-3.2v1.8H270.1z M274.5,35.9c2.3-0.2,4.7-0.4,7.1-0.6c3.2-4.4,4.2-10.2,4.4-17.5h-3.7v-3.2h-7.8v1.6h7.2v12.6
	h-7.2v1.6h7.4v3.4h-7.4V35.9z M277.8,21v-1.8h-3.2V21H277.8z M274.5,23.9v1.8h3.2v-1.8H274.5z"/>
<path d="M315,8.5h7.1l9.7,30.2h-6.3l-2.1-7.7h-9.8l-2.1,7.7h-6.2L315,8.5z M314.8,26.2h7.2l-0.9-3.3c-0.9-3.1-1.8-6.6-2.6-9.9h-0.2
	c-0.8,3.3-1.7,6.7-2.6,9.9L314.8,26.2z"/>
<path d="M334.4,15.8h4.9l0.5,2.4h0.1c1.8-1.7,4.2-2.8,6.7-2.9c5.6,0,9,4.6,9,11.6c0,7.8-4.7,12.3-9.7,12.3c-2.1-0.1-4.2-1-5.7-2.5
	l0.2,3.8v6.9h-6V15.8z M349.4,27c0-4.4-1.4-6.8-4.5-6.8c-1.5,0-2.9,0.8-4.5,2.4v10c1.1,1.1,2.6,1.7,4.1,1.7
	C347.2,34.3,349.4,31.9,349.4,27z"/>
<path d="M360.2,15.8h4.9l0.5,2.4h0.1c1.8-1.7,4.2-2.8,6.7-2.9c5.6,0,9,4.6,9,11.6c0,7.8-4.7,12.3-9.7,12.3c-2.1-0.1-4.2-1-5.7-2.5
	l0.2,3.8v6.9h-6V15.8z M375.2,27c0-4.4-1.4-6.8-4.5-6.8c-1.5,0-2.9,0.8-4.5,2.4v10c1.1,1.1,2.6,1.7,4.1,1.7
	C373.1,34.3,375.2,31.9,375.2,27z"/>
<path d="M425.8,10.4c0,0,0,1.6,0,2.2c-0.5,18.2-1,24.7-2.6,26.9c-0.9,1.3-2.4,2.1-3.9,2.2c-2.1,0.2-4.3,0.2-6.4,0.1
	c-0.2-1.7-0.7-3.3-1.6-4.7c2.6,0.2,5,0.2,6.1,0.2c0.7,0.1,1.3-0.2,1.8-0.7c1.2-1.3,1.7-7.4,2.2-21.8h-8.7c-1,2.3-2.2,4.4-3.6,6.4
	c-1-0.8-2-1.6-3.1-2.3v19H395v3h-4.4V10.7h4.6c0.6-2.2,1-4.4,1.2-6.6l5.3,0.7c-0.7,2-1.4,4.1-2.1,5.8h6.3v6.6
	c2.6-4,4.4-8.5,5.5-13.1l4.6,1.1c-0.5,1.8-1,3.5-1.6,5.2L425.8,10.4z M401.4,14.9h-6.5v6.6h6.5V14.9z M401.4,33.7v-8h-6.5v8H401.4z
	 M414.9,31.5c-1.7-3.3-3.6-6.4-5.7-9.4l3.8-2.2c2.2,2.9,4.2,5.9,6,9L414.9,31.5z"/>
<path d="M437.5,10.9h7.3v3.8H429v-3.8h7c-0.7-1.8-1.6-3.5-2.6-5.1l3.7-1.8c1.2,1.7,2.2,3.5,3.1,5.4L437.5,10.9z M443.5,40h-8.8v1.7
	h-4.1V27.6h12.8V40H443.5z M443.4,20.2h-12.5v-3.7h12.5V20.2z M430.9,22h12.5v3.7h-12.5V22z M434.9,31.5v4.6h4.6v-4.6H434.9z
	 M458,20.9v5.6h7v15.6h-4.6v-1.3h-9.2v1.5h-4.5V26.6h6.8V21h-8.6v-4.6h8.6v-5.8c-2.2,0.3-4.5,0.5-6.6,0.7c-0.3-1.3-0.7-2.7-1.2-3.9
	c6-0.6,12.6-1.7,16.8-3.1l2.9,3.9c-2.4,0.7-4.9,1.3-7.5,1.8v6.4h9V21L458,20.9z M460.5,30.9h-9.2v5.4h9.2V30.9z"/>
<path d="M497.8,37c3.7,0,4.3-1.1,4.8-6.4c1.4,0.8,2.9,1.4,4.5,1.8c-0.8,6.8-2.5,8.9-9,8.9h-12.8c-7.2,0-9.3-1.6-9.3-7.9V22.8
	l-5.7,1.8l-1.3-4.4l7-2.2V7h4.8v9.5l6.3-2V4.2h4.8V13l7.4-2.3l0.5-0.4l0.9-0.7l3.4,1.5l-0.2,0.9c-0.1,7.6-0.4,12.4-1.2,14.8
	s-1.9,3.2-3.3,3.6c-1.7,0.4-3.4,0.5-5.1,0.4c-0.1-1.5-0.5-3-1.1-4.4c1.1,0.1,2.7,0.1,3.4,0.1s1.4-0.3,1.9-1.8s0.6-4.4,0.7-9.3
	l-7.3,2.3v15.2h-4.8V19.3l-6.3,2v12.2c0,3,0.6,3.5,4.6,3.5H497.8z"/>
<path d="M549,26.6h-8.4v15.2h-4.9V26.6h-8.5V22h8.5v-8.2h-2.5c-1,2.2-2.1,4.3-3.6,6.3c-1.2-0.9-2.4-1.7-3.7-2.4v2.1h-13v-3.6H526
	v0.6c0.6-0.8,1.1-1.6,1.6-2.4H511v-3.8h6.8c-0.3-1.9-0.9-3.7-1.8-5.4l3.5-1.3c1.1,1.8,1.8,3.7,2.1,5.7l-2.4,1h8.5v3.8
	c1.8-3.4,3-7,3.8-10.7l4.9,1c-0.4,1.6-0.8,3.2-1.4,4.8h13.2v4.4h-7.5v8.2h8.4C549,22.1,549,26.6,549,26.6z M525.8,39.7H517v1.6h-4.2
	v-14h13.1V39.7z M512.8,21.7H526v3.6h-13L512.8,21.7z M517,31.2v4.7h4.7v-4.7H517z"/>
<path d="M112.1,69l-0.6,0.7c3.8,3.3,10.4,6,16.9,7.4c-1.2,1.1-2.2,2.3-3,3.7c-0.8-0.2-1.7-0.5-2.5-0.7v10.5H94.5V80.3
	c-0.8,0.3-1.7,0.6-2.5,0.8c-0.7-1.3-1.6-2.6-2.6-3.7c7.5-1.8,14.8-5.2,18.5-10L112.1,69z M121.3,79.5c-1.9-0.7-3.8-1.5-5.5-2.5v1
	h-14.4v-0.8c-1.6,0.8-3.3,1.6-4.9,2.2L121.3,79.5z M96.8,91.9h24v13.8h-5v-1h-14.3v1.1h-4.8L96.8,91.9z M101.4,87.6
	c-0.3-1.5-0.7-2.9-1.4-4.2l3.1-0.9h-4.6v5.1H101.4z M101.5,95.1v1.6h14.2v-1.6H101.5z M115.8,101.5v-1.7h-14.2v1.6L115.8,101.5z
	 M106.5,82.5h-3.2c0.7,1.4,1.3,2.8,1.6,4.3l-2.6,0.8h4.2V82.5z M112.3,75c-1.2-0.8-2.3-1.7-3.4-2.7c-1.1,0.9-2.2,1.8-3.5,2.7H112.3z
	 M110.3,82.5v5.1h3.8l-2.4-0.7c0.6-1.4,1.2-2.9,1.6-4.4H110.3z M118.4,82.5h-4.2l3.2,0.8c-0.8,1.6-1.6,3.2-2.2,4.4h3.3L118.4,82.5z"
	/>
<path d="M166.8,74.5c-1.5,1.3-3.1,2.6-4.8,3.8c1.9,1,3.8,1.7,5.8,2.3c-1.1,1.1-2.1,2.4-2.9,3.8c-1.6-0.5-3.2-1.2-4.6-2v3.5
	c0,1,0.1,1.3,0.6,1.3h2c0.7,0,1.4-0.1,2.1-0.2c0.1,1,0.2,2.4,0.3,3.3c-0.8,0.2-1.6,0.3-2.4,0.2h-2.5c-3.4,0-4.1-1.4-4.1-4.7v-2.3
	h-3.8c0,3.3-1.7,6.3-4.5,8.1c-0.7-0.9-1.5-1.8-2.4-2.6v1.2h-8.1c-0.2,0.9-0.3,1.9-0.4,2.8h8.5c0,0,0,1.1-0.1,1.7
	c-0.4,5.5-0.9,8.1-2,9.2c-0.8,0.9-2,1.4-3.3,1.3c-1.8,0.1-3.6,0.1-5.4,0c-0.1-1.4-0.6-2.8-1.4-4c2,0.2,4,0.2,4.9,0.2
	c0.5,0.1,1.1-0.1,1.5-0.4c0.5-0.4,0.9-1.8,1.1-4.5h-8.6c0.6-2.7,1.2-6.7,1.6-9.9h7.2v-2.9h-5.9v-0.6c-1.2,0.6-2.4,1.1-3.7,1.6
	c-0.7-1.3-1.6-2.5-2.6-3.6c2.4-0.7,4.7-1.8,6.9-3.1c-1.2-0.9-2.5-1.7-3.8-2.4l2.8-2.6c1.5,0.7,3,1.6,4.3,2.6
	c0.9-0.8,1.7-1.7,2.4-2.6h-8v-3.8h10.7l0.8-0.2l3,1.5c-1.7,3.9-4.3,7.2-7.8,9.7h5.3v8.1c1.9-1.1,3-3.2,2.9-5.5v-2.9h7.8
	c-3.6-2.9-6.4-6.6-8.2-10.8l3.9-1.1c0.6,1.4,1.4,2.7,2.3,3.8c1.4-1.2,2.6-2.4,3.8-3.8l3.5,2.5c-1.7,1.4-3.4,2.9-5,4
	c0.7,0.7,1.4,1.3,2.2,1.8c1.6-1.3,3.2-2.7,4.5-4.2L166.8,74.5z M163.8,92.5c-0.9,2.7-2.4,5.2-4.5,7.3c1.8,1,3.5,2,4.7,2.8l-2.4,3.2
	c-1.4-1-3.4-2.2-5.6-3.6c-2.8,1.7-5.9,2.8-9.1,3.5c-0.5-1.3-1.2-2.4-2-3.5c2.5-0.4,5-1.1,7.3-2.3c-2-1.1-3.9-2.2-5.7-3.1l1.6-2h-1
	v-3.2h13.2l0.7-0.1L163.8,92.5z M150.1,94.9c1.7,0.9,3.6,1.8,5.4,2.9c1-0.8,1.8-1.8,2.6-2.9H150.1z"/>
<path d="M207.1,99.9v4.8h-36.6v-4.8h15.7v-8.2h-11V87h11v-7.2h-8.4c-1.1,2.1-2.3,4.1-3.8,5.9c-1.4-1.1-2.8-2-4.4-2.9
	c3.2-3.4,5.8-9.1,7.2-14.6l5,1.1c-0.6,2-1.2,3.9-1.9,5.8h6.3v-7.3h5.1v7.3h13.8v4.7h-13.8V87h12.2v4.7h-12.2v8.2L207.1,99.9z"/>
<path d="M247.9,83.8v5.3h-37.5v-5.3H247.9z"/>
<path d="M272.4,88.3c-6.6,0.8-13.8,1.7-18.9,2.3l-0.5-4.8l2.2-0.2V71.9h4.5v13.2l2.3-0.2V67.8h4.8v6.1h5.1v4.3h-5.1v6.2l5.4-0.6
	L272.4,88.3z M253.5,100.2h36.8v4.8h-36.8V100.2z M258.2,91.7H286v4.7h-27.7V91.7z M279.4,89.2c-4.7,0-5.9-1.5-5.9-6.3V67.8h4.9v7.1
	c2.5-0.9,5-1.9,7.4-3.2l3.6,3.8c-3.6,1.5-7.3,2.7-11,3.8v3.6c0,1.6,0.2,1.8,1.7,1.8h4.4c1.3,0,1.6-0.7,1.8-4.8
	c1.3,0.9,2.8,1.5,4.4,1.9c-0.5,5.8-1.9,7.5-5.7,7.5L279.4,89.2z"/>
<path d="M317,69.7c-0.4,0.5-0.8,1-1.2,1.4c4.8,4,10.3,7.1,16.2,9.3c-1.4,1.3-2.6,2.8-3.7,4.4c-5.7-2.7-11-6.2-15.7-10.5
	c-4.8,4.4-10.3,8-16.2,10.7c-1-1.6-2.1-3-3.5-4.3c7.2-2.8,15.2-7.7,19.5-13.4L317,69.7z M327.9,88.2c-3.1,3.3-7,7.2-10.8,10.9
	c1.6,1,3.1,2,4.2,2.8l-3.7,4.2c-4.5-3.4-9.2-6.4-14.1-9.1l3.4-3.7c1.8,0.9,3.9,2.1,6,3.3c1.9-1.9,4-3.8,5.7-5.7h-20.2v-4.7h14.8
	c-1.6-2-3.5-3.9-5.4-5.7l3.4-2.8c2.1,1.7,4.1,3.6,5.9,5.7l-3.3,2.8h9.5l0.8-0.2L327.9,88.2z"/>
<path d="M353.4,67.8c0,1.7-0.1,3.9-0.3,6.4c0.6,5.5,3.1,20.9,17.3,27.2c-1.5,1.1-2.7,2.6-3.5,4.2c-9-4.3-13.6-12.3-15.9-19.3
	c-2.2,7.2-6.5,14.6-15,19.5c-1.1-1.6-2.4-2.9-4-4c16.5-8.8,15.8-27.1,15.9-34H353.4z"/>
<path d="M379,83.7v22.1h-4.7V69.3H390v14.4H379z M379,72.7v2.1h6.4v-2.1H379z M385.4,80.2V78H379v2.2H385.4z M397.4,96.6v8.5h-4.3
	v-8.4h-3.9c-0.4,2.8-1.8,6.8-5.2,9.1c-0.9-1-2-2-3.1-2.8c2.2-1.5,3.8-3.8,4.2-6.4H381v-4h4.3v-3h-3.7v-3.8h19.6v3.8h-3.8v3.1h4.5v4
	L397.4,96.6z M393.1,92.6v-3h-3.8v3.1L393.1,92.6z M408.8,100.1c0,2.5-0.5,3.8-1.9,4.6s-3.6,0.9-6.7,0.9c-0.3-1.7-0.8-3.3-1.5-4.8
	c1.8,0.1,3.8,0.1,4.4,0s0.9-0.2,0.9-0.8V83.8h-11.2V69.3h16L408.8,100.1z M397.4,72.7v2.1h6.6v-2L397.4,72.7z M403.9,80.2V78h-6.6
	v2.3L403.9,80.2z"/>
<path d="M420.9,82.7c-0.5,5.7-1.6,11.4-3,16.9l-4.9-2c1.6-5.1,2.7-10.4,3.2-15.8L420.9,82.7z M428.5,79.4v18.9
	c0,1.9,0.3,2.2,2.3,2.2h5.8c2,0,2.4-1.3,2.7-7.7c1.4,0.9,2.9,1.6,4.6,2c-0.6,7.8-1.9,10.2-6.9,10.2h-6.8c-5.3,0-6.8-1.6-6.8-6.8
	V79.4H428.5z M428.1,68.4c3.7,2.3,8.9,5.9,11.3,8.4l-3.6,3.8c-2.2-2.5-7.2-6.4-11-8.9L428.1,68.4z M445.9,80.4
	c2.3,4.9,4,9.9,5.3,15.2l-4.9,2c-1-5.3-2.6-10.5-4.9-15.4L445.9,80.4z"/>
<path d="M491.6,74c0,0,0,1.6,0,2.2c-0.5,18.2-1,24.7-2.6,26.9c-0.9,1.3-2.4,2.1-3.9,2.2c-2.1,0.2-4.3,0.2-6.4,0.1
	c-0.2-1.7-0.7-3.3-1.6-4.7c2.6,0.2,5,0.2,6.1,0.2c0.7,0.1,1.3-0.2,1.8-0.7c1.2-1.3,1.7-7.4,2.2-21.8h-8.7c-1,2.3-2.2,4.4-3.6,6.4
	c-1-0.8-2-1.6-3.1-2.3v19h-10.9v3h-4.4V74.3h4.6c0.6-2.2,1-4.3,1.2-6.6l5.3,0.7c-0.7,2-1.4,4.1-2.1,5.8h6.3v6.6
	c2.6-4,4.4-8.5,5.5-13.1l4.6,1.1c-0.5,1.8-1,3.5-1.6,5.2L491.6,74z M467.1,78.5h-6.5v6.6h6.5V78.5z M467.1,97.3v-8h-6.5v8H467.1z
	 M480.8,95.1c-1.7-3.3-3.6-6.4-5.7-9.4l3.8-2.2c2.2,2.9,4.2,5.9,6,9.1L480.8,95.1z"/>
<path d="M532.8,94.5h-4.2v7.1h-4.9v-1.7h-7.3v1.3c0,2.4-0.6,3.4-2.2,4.1c-1.6,0.7-3.8,0.7-7.2,0.7c-0.4-1.3-0.9-2.6-1.6-3.8
	c2,0.1,4.4,0.1,5,0.1s1-0.3,1-1V100h-12.4v-3.5h12.4v-1.9h-16.2v-3.7h16.1v-1.8h-12.1v-3.3h12.1V84h-11v-8.1h11v-1.7h-15.1v-3.8
	h15.2v-2.7h4.9v2.7h15.6v3.8h-15.6v1.7h11.6V84h-11.6v1.8h12.3v5h4.2V94.5L532.8,94.5z M511.4,80.9v-2h-6.4v2H511.4z M516.2,78.9v2
	h6.6v-2H516.2z M516.2,90.7h7.3V89h-7.3V90.7z M523.7,94.4h-7.3v2h7.3V94.4z"/>
<path d="M534.8,86.4c0.9-3.5,1.5-7,1.7-10.6l3.4,0.4c-0.1,3.8-0.7,7.7-1.6,11.4L534.8,86.4z M573.2,80.6v3.5h-26.7v-3.5h10.8v-1.8
	h-8.4L549,79l-3.2,1.6c-0.4-1.5-0.9-3.1-1.5-4.5v29.6h-4.4v-38h4.4v6.5l2.3-1c0.9,1.8,1.6,3.6,2.3,5.5v-3.2h8.4v-1.6h-9.5v-3.5h9.5
	v-2.8h4.8v2.8h9.9v3.5h-9.9v1.6h8.8v3.3h-8.8v1.8H573.2z M570.6,101.2c0,2.1-0.4,3.3-1.9,3.9s-3.5,0.7-6.3,0.7
	c-0.2-1.4-0.7-2.8-1.3-4.1c1.7,0.1,3.6,0.1,4.1,0.1s0.8-0.2,0.8-0.7v-1.3h-12.2v6.1h-4.5V85.6h21.2v15.6H570.6z M553.8,89.2v1.9
	h12.2v-1.9H553.8z M565.9,96.4v-1.8h-12.2v1.9L565.9,96.4z"/>
<path d="M593.3,79.1c0-2.4-1.5-3.8-4-3.8c-2.2,0-4.2,1.1-5.5,2.8l-3.6-3.3c2.4-2.9,6-4.6,9.8-4.6c5.5,0,9.5,2.9,9.5,8.4
	c0,6.7-8.1,7.4-7.4,13.7h-5.7C585.4,85.1,593.3,83.5,593.3,79.1z M585.4,100c0-2.1,1.7-3.9,3.9-3.9c2.2,0,3.9,1.7,3.9,3.9
	c0,2.1-1.7,3.9-3.9,3.9c-2.1,0.1-3.8-1.6-3.9-3.6C585.4,100.2,585.4,100.1,585.4,100L585.4,100z"/>
</svg>
