<svg version="1.1"
	 xmlns="http://www.w3.org/2000/svg" viewBox="0 0 630 160" width="630" height="160">
<style type="text/css">
	.st0{fill:#FFF;}
</style>
<path d="M55.9,33.3v-1.5c2.1,5.7,7.1,9.1,13.7,9.1c5.3,0,9.6-2.2,12.1-6c1,3.8,4.8,6.1,8.6,5.1c3.1-0.8,5.3-3.6,5.4-6.9v-9.6
	c0.2-0.1,0.4-0.1,0.7-0.2h0.1c0.3-0.1,0.5-0.1,0.8-0.2v10c0,3.9,3.2,7.1,7.1,7.1c2.7,0,5.2-1.6,6.4-4.1c1.6,3.5,5.8,5,9.3,3.4
	c1.5-0.7,2.7-1.9,3.4-3.5c1.6,3.5,5.7,5.1,9.2,3.6c1.4-0.6,2.5-1.7,3.3-3c2.2,2.5,5.3,3.9,8.6,3.8c1.9,0,3.7-0.4,5.4-1.2
	c1.1,0.7,2.4,1.1,3.8,1.1c1.1,0,2.3-0.3,3.3-0.9l0,0l0,0c1.3-0.8,2.3-2,2.9-3.4c1.7,2.5,4.7,4,8.6,4h0.4l0.3,0l1.4-0.2l0.4-0.1
	l0.4-0.2c1.1-0.4,2.1-1,2.9-1.8c2.6,2.9,7.1,3.2,10,0.6c1-0.9,1.8-2.1,2.2-3.4c2.6,3.7,6.8,5.9,12.1,5.9s9.5-2.2,12.1-5.9
	c1,3.8,4.9,6.1,8.7,5.1c2.2-0.6,4-2.1,4.8-4.2c1.4,3.6,5.6,5.4,9.2,4c2.7-1.1,4.5-3.7,4.5-6.6V20.7c0-6.8-4.3-11.1-11.3-11.1
	c-1.8,0-3.6,0.4-5.3,1.2c-1.2-0.8-2.5-1.2-3.9-1.2c-0.8,0-1.7,0.1-2.4,0.4l0,0l0,0c-2.1,0.7-3.7,2.4-4.3,4.6
	c-2.3-3.2-6.1-5.5-11.8-5.5c-5.9,0-9.8,2.4-12.1,5.8c-0.2-0.6-0.4-1.1-0.7-1.7c1-1.3,1.6-2.9,1.6-4.5c0-4.3-3.4-7.8-7.7-7.9
	S172,4.3,172,8.6c-1.5-3.6-5.6-5.3-9.1-3.8c-2.6,1.1-4.3,3.6-4.3,6.4c-0.6,0.3-1.2,0.8-1.7,1.3c-2-2.1-5.2-3.1-9.3-3.1
	c-2.9,0-5.8,0.7-8.4,2.1l0,0l0,0c-1.5,0.8-2.6,2.1-3.2,3.7c-1.8-3.5-5.3-5.5-10.1-5.5c-2.3,0-4.5,0.5-6.6,1.5
	c-1.9-1.1-4-1.6-6.2-1.5c-1.7,0-3.4,0.4-5,1.2c-2.6-1.7-6.1-1.6-8.6,0.4c-1.2-0.9-2.6-1.3-4-1.3c-0.8,0-1.5,0.1-2.3,0.4
	c-0.4,0.1-0.8,0.3-1.1,0.4c-1.1-0.7-2.4-1.1-3.7-1.1c-0.8,0-1.7,0.1-2.5,0.4l0,0l0,0c-2.1,0.7-3.8,2.4-4.4,4.6
	c-2.3-3.2-6.1-5.5-11.8-5.5c-2.5,0-4.9,0.5-7.2,1.5c1-3.1-0.4-6.4-3.2-7.9C57.8,2,56,1.6,54.3,1.7c-5.7-0.3-10.8,3.7-12,9.3
	c-1,0.4-1.8,1-2.5,1.8c-2.3-2.1-5.3-3.3-8.4-3.1c-1.9,0-3.7,0.4-5.4,1.2c-1.2-0.8-2.5-1.2-3.9-1.2c-0.8,0-1.7,0.1-2.5,0.4l0,0l0,0
	c-1.1,0.4-2.1,1.1-2.9,2v-1.7c0-4-3.2-7.2-7.2-7.2c-4,0-7.2,3.2-7.2,7.2c0,0,0,0,0,0v22.8c0,4,3.2,7.2,7.1,7.2
	c2.8,0,5.3-1.6,6.5-4.1c1.7,3.5,5.9,5.1,9.5,3.4c1.6-0.8,2.9-2.1,3.5-3.8c1.4,3.6,5.6,5.4,9.2,4c1.9-0.8,3.4-2.3,4.1-4.3
	c1.2,3.7,5.2,5.6,8.9,4.4C54,39,55.9,36.3,55.9,33.3z M198.5,22.3h0.4c0.3,0.8,0.4,1.6,0.4,2.5c0.1,1-0.1,2-0.5,2.9h-0.2
	c-0.4-0.9-0.5-1.9-0.5-2.9C198,23.9,198.2,23.1,198.5,22.3L198.5,22.3z M172.6,23L172.6,23l0.1,4.7h-0.1V23z M69.4,22.3h0.4
	c0.3,0.8,0.4,1.6,0.4,2.5c0.1,1-0.1,2-0.5,2.9h-0.2c-0.4-0.9-0.6-1.9-0.5-2.9C69,23.9,69.1,23.1,69.4,22.3z"/>
<path d="M244.9,29.3c0,7.7,5.7,11.2,11.1,11.2c1.9,0,3.7-0.4,5.4-1.2c1.1,0.7,2.4,1.1,3.8,1.1c1.1,0,2.3-0.3,3.3-0.9l0,0l0,0
	c0.1-0.1,0.3-0.2,0.4-0.3v2.5c0,3.9,3.1,7,7,7s7-3.1,7-7v-1.3c0.4,0,0.8,0.1,1.2,0.1c4,0.1,7.9-1.7,10.2-5v6.1c0,3.9,3.1,7,7,7
	s7-3.1,7-7v-1.2c0.4,0,0.8,0.1,1.2,0.1c8.2,0,13.3-6.1,13.3-15.8c0-9.6-4.8-15.3-12.7-15.3c-1.8,0-3.6,0.4-5.3,1.2
	c-1.1-0.8-2.5-1.2-3.9-1.2c-0.8,0-1.6,0.1-2.4,0.4c-2,0.6-3.6,2.2-4.3,4.2c-2.3-3-5.9-4.8-9.7-4.6c-1.8,0-3.6,0.4-5.3,1.2
	c-1.1-0.8-2.5-1.2-3.9-1.2c-0.8,0-1.6,0.1-2.4,0.4c-1.9,0.6-3.4,2-4.2,3.9c-2-2.9-5.4-4.3-10.3-4.3c-2.9,0-5.8,0.7-8.4,2.1l0,0l0,0
	c-3,1.6-4.4,5.1-3.2,8.3c0.2,0.6,0.5,1.1,0.9,1.6C246,23.1,244.9,25.6,244.9,29.3z M308.3,24.7c0-0.6,0.1-1.2,0.1-1.8l0.1-0.1
	c0.1,0.7,0.2,1.4,0.2,2.1c0,0.9-0.1,1.7-0.3,2.6l0,0c-0.1-0.7-0.1-1.4-0.1-2.1L308.3,24.7z M282.7,24.7c0-0.6,0-1.2,0.1-1.9
	c0,0,0.1,0,0.1-0.1c0.1,0.7,0.2,1.4,0.2,2.1c0,0.9-0.1,1.7-0.3,2.6l0,0c-0.1-0.7-0.1-1.4-0.1-2.1L282.7,24.7z"/>
<path d="M331.3,22.7v8.2c0,5.7,4,9.3,10.1,9.3h0.3l0.3,0l1.4-0.2l0.4-0.1l0.4-0.2c1.1-0.4,2.1-1,2.9-1.8c2.6,3,7,3.3,10,0.7
	c0.8-0.7,1.5-1.7,1.9-2.7c1.5,3.6,5.6,5.4,9.2,3.9c1.5-0.6,2.7-1.7,3.5-3c2.2,2.5,5.3,3.9,8.6,3.8c1.9,0,3.7-0.4,5.4-1.2
	c1.1,0.7,2.4,1.1,3.8,1.1c1.1,0,2.3-0.3,3.3-0.9c1.3-0.8,2.4-2,2.9-3.5c1.7,2.5,4.7,4,8.6,4h0.3l0.3,0l1.4-0.2l0.4-0.1l0.4-0.2
	c4.3-1.7,4.8-5,4.8-6.4c0.1-2.5-1.4-4.8-3.7-5.7V23c3.4-1.1,5.2-4.7,4.1-8.1c-0.6-1.9-2.1-3.4-4.1-4.1C408.2,7,405,3.9,401.1,4
	c-3.9,0.1-6.9,3.3-6.8,7.2c-0.7,0.3-1.2,0.8-1.8,1.3c-2-2.1-5.1-3.1-9.3-3.1c-2.9,0-5.8,0.7-8.4,2.1l0,0l0,0
	c-1.5,0.8-2.6,2.1-3.2,3.7c-1.7-3.5-5.3-5.5-10.1-5.5c-0.6,0-1.2,0-1.8,0.1v-1c0-3.9-3.2-7.1-7.1-7.1c-3.9,0-7.1,3.2-7.1,7.1v2.1
	h-0.1c-0.1-3.9-3.3-6.9-7.2-6.8c-3.9,0.1-6.9,3.3-6.8,7.2c-3.2,1.6-4.5,5.4-2.9,8.6c0.6,1.2,1.6,2.3,2.9,2.9L331.3,22.7z M345.4,23
	L345.4,23l0.1,4.7h-0.1V23z"/>
<path d="M425.6,40.2c1.1,0,2.2-0.3,3.2-0.8c1.6,0.8,3.4,1.2,5.1,1.2c4.2,0.2,8.3-1.9,10.6-5.5c1.1,3.8,5.1,5.9,8.9,4.8
	c3-0.9,5-3.6,5.1-6.8v-9.7c0.2-0.1,0.5-0.1,0.7-0.2h0c0.3-0.1,0.5-0.1,0.8-0.2v10c0,3.9,3.2,7.1,7.1,7.1c2.5,0,4.8-1.3,6.1-3.4
	c2,3.4,6.4,4.4,9.7,2.4c1.3-0.8,2.3-2,2.9-3.4c1.5,3.6,5.6,5.4,9.2,3.9c1.2-0.5,2.2-1.2,3-2.2c-1.7,3.2-0.7,7.1,2.3,9.1
	c2.4,1.6,5.7,2.4,10.3,2.4c7.8,0,13-4,14.3-10.6c2.5,1.6,5.5,2.3,8.4,2.2c7,0,11.7-4.4,11.7-11.1c0.1-2.8-1-5.5-3.1-7.5
	c0.6-0.4,1.1-1,1.5-1.6c0.9-1.4,1.2-3.2,0.8-4.8c-0.4-1.8-1.6-3.4-3.2-4.4c-2-1.2-4.3-1.8-6.6-1.8c-4.2,0-7.5,1.5-9.6,3.9
	c-0.3-0.6-0.6-1.2-1.1-1.7c-1.4-1.4-3.3-2.2-5.3-2.2c-1.2,0-2.5,0.3-3.5,0.9c-1.6-0.7-3.4-1-5.1-1c-4.6-0.2-8.9,2.3-11.1,6.4
	c-1.6-3.9-5.3-6.1-10.4-6.1c-1.8,0-3.6,0.4-5.3,1.2c-1.2-0.8-2.5-1.2-3.9-1.2c-0.8,0-1.7,0.1-2.5,0.4l0,0l0,0
	c-0.7,0.2-1.3,0.6-1.9,1c0.3-0.7,0.4-1.5,0.4-2.3c-0.2-4.3-3.9-7.6-8.2-7.4c-4,0.2-7.2,3.4-7.4,7.4c0,0.4,0,0.8,0.1,1.2
	c-0.4-0.1-0.8-0.1-1.2-0.1c-0.8,0-1.5,0.1-2.3,0.4c-0.4,0.1-0.8,0.3-1.1,0.4c-1.1-0.7-2.4-1.1-3.7-1.1c-0.8,0-1.7,0.1-2.5,0.4l0,0
	l0,0c-1.9,0.6-3.5,2.1-4.2,4.1c-2.3-3.1-6-4.9-9.8-4.7c-0.6,0-1.2,0-1.7,0.1V8.7c0-3.9-3.1-7-7-7s-7,3.1-7,7v24.7
	C418.9,37.1,421.9,40.2,425.6,40.2z M511.1,22.6L511.1,22.6c0.1,0.7,0.1,1.4,0.1,2.1v0.6c0,0.6,0,1.3-0.1,1.9l-0.1,0.1
	c-0.1-0.7-0.2-1.4-0.2-2.1C510.7,24.3,510.8,23.4,511.1,22.6z M432.6,24.7c0-0.6,0-1.3,0.1-1.8l0.1-0.1c0.1,0.7,0.2,1.4,0.2,2.1
	c0,0.9-0.1,1.7-0.3,2.6l0,0c0-0.6-0.1-1.4-0.1-2.1L432.6,24.7z"/>
<path d="M627.6,32.5c0-0.3-0.1-0.6-0.1-0.8c-0.2-1.1-0.3-2.2-0.3-3.3V16.9c0-3.9-3.2-7.1-7.1-7.1c-2.9,0-5.5,1.7-6.6,4.4
	c-1.5-3.6-5.6-5.4-9.2-3.9c-2,0.8-3.6,2.6-4.2,4.7c-2.3-3.4-6.2-5.8-12-5.8c-4.9,0-8.4,1.7-10.7,4.2c-0.2-0.4-0.5-0.8-0.7-1.1
	c-1.3-1.6-3.3-2.5-5.4-2.5c-3.2-0.1-6,2-7,5l-0.1-0.2c-1-2.9-3.7-4.8-6.7-4.8c-2.4,0-4.6,1.1-5.9,3.1c-1.3,2-1.6,4.5-0.7,6.7v0.1
	v0.1l6.4,14.3c-0.7,1-1.4,2.1-2.2,3.2c-1.1,1.4-1.6,3.2-1.3,5c0.3,1.9,1.3,3.7,2.9,4.8c1.2,0.9,2.6,1.3,4.1,1.3c2.4,0,4.7-1.1,6.1-3
	c1.8-2.5,3.4-5.1,4.7-7.8c0.2-0.3,0.3-0.6,0.4-0.8c0.9-1.7,1.7-3.5,2.3-5.4c2,5.9,7,9.5,13.9,9.5c5.7,0,10.1-2.5,12.6-6.8
	c1.6,4,5.3,6.3,10.5,6.3c1.9,0,3.8-0.4,5.5-1.2c1.2,0.8,2.5,1.2,3.9,1.2c3.9,0,7.1-3.1,7.1-7C627.7,33.1,627.7,32.8,627.6,32.5
	L627.6,32.5z M588.2,27.6H588c-0.4-0.9-0.5-1.9-0.5-2.9c-0.1-0.9,0.1-1.7,0.4-2.5h0.4c0.3,0.8,0.4,1.6,0.4,2.5
	C588.8,25.8,588.6,26.7,588.2,27.6z"/>
<path d="M134.9,93.7l0.3-0.9c0.3,1.6,1.1,3.1,2.4,4.2c2.6,1.9,5.8,2.8,9,2.7c7,0,11.7-4.4,11.7-11.1c0.1-2.8-1-5.5-3.1-7.5
	c0.6-0.4,1.1-1,1.5-1.6c0.9-1.4,1.2-3.2,0.9-4.8c-0.4-1.8-1.6-3.4-3.2-4.4c-2-1.2-4.3-1.8-6.6-1.8c-3.3-0.1-6.5,1-8.9,3.2
	c-1.4-1.8-3.5-2.8-5.7-2.8c-3.2,0-6,2.1-6.9,5.1c-1.8-3.9-6.5-5.7-10.4-3.8c-1.6,0.7-2.9,2-3.7,3.6c-0.9-3-3.7-4.9-6.8-4.9
	c-2.3,0-4.4,1-5.8,2.9l-0.1,0.1c-2.3-2.3-5.5-3.6-8.8-3.5c-5.1-0.2-9.9,2.5-12.5,6.8c-1.6-4.1-5.3-6.5-10.6-6.5
	c-1.8,0-3.6,0.4-5.3,1.2c-1.2-0.8-2.5-1.2-3.9-1.2c-0.8,0-1.7,0.1-2.5,0.4l0,0l0,0c-3.1,1.1-5,4.1-4.6,7.4c0,0.5,0.1,1,0.2,1.4
	c0.1,0.3,0.1,0.6,0.1,0.9v13.5c0,3.9,3.2,7.1,7.1,7.1c2.9,0,5.5-1.8,6.6-4.4c1.4,3.6,5.5,5.4,9.2,4c2.1-0.8,3.6-2.6,4.2-4.7
	c2.6,3.6,6.9,5.6,12.6,5.6c2.7,0,5.4-0.6,7.8-1.8c2.9-1.4,4.3-4.7,3.4-7.7l1.2,3.5c1.3,4.2,5.9,6.6,10.1,5.3
	c2.5-0.8,4.5-2.8,5.3-5.3l0.3-1l0.4,1.1c1.4,4.2,6,6.5,10.2,5.1c2.5-0.8,4.4-2.8,5.1-5.2L134.9,93.7z M137.6,85.2
	c0.2,0.3,0.4,0.5,0.6,0.8c-0.5,0.3-0.9,0.6-1.2,1L137.6,85.2z M102.1,89.4c-0.2-0.6-0.6-1.2-1-1.7l0.3-0.4l0.9,2.6
	C102.2,89.8,102.1,89.6,102.1,89.4z"/>
<path d="M227.4,99.9c5.7,0,10.1-2.5,12.6-6.8c1.6,4,5.3,6.3,10.4,6.3c1.9,0,3.8-0.4,5.5-1.2c1.2,0.8,2.5,1.2,3.9,1.2
	c0.7,0,1.4-0.1,2-0.3c2.2-0.6,4-2.4,4.7-4.6c1.6,2.9,4.8,4.6,9,4.6h0.3h0.3l1.4-0.2l0.4-0.1l0.4-0.2c4.3-1.7,4.8-5,4.8-6.4
	c0.1-2.5-1.4-4.8-3.7-5.7V82c3.4-1.1,5.2-4.7,4.1-8.1c-0.6-1.9-2.1-3.4-4.1-4.1c-0.1-3.9-3.3-6.9-7.2-6.8c-3.9,0.1-6.9,3.3-6.8,7.2
	c-0.4,0.2-0.8,0.4-1.1,0.7c-2.8-2.8-7.2-2.8-10-0.1c-0.7,0.7-1.2,1.5-1.6,2.4c-1.5-3.6-5.6-5.4-9.2-3.9c-2,0.8-3.6,2.6-4.2,4.7
	c-2.3-3.3-6.1-5.8-12-5.8c-6.4,0-10.4,2.9-12.6,6.7c-2.1-4.2-5.8-6.5-10.9-6.5c-0.6,0-1.2,0-1.7,0.1v-0.8c0-3.9-3.1-7-7-7
	c-3.9,0-7,3.1-7,7v4.7c-2-2.7-5.4-4-10.1-4c-2.9,0-5.8,0.7-8.4,2.1l0,0l0,0c-3,1.6-4.4,5.1-3.2,8.3c0.2,0.6,0.5,1.1,0.8,1.6
	c-1.9,1.7-3.1,4.2-3.1,7.9c0,7.7,5.7,11.2,11.1,11.2c1.9,0,3.7-0.4,5.4-1.2c1.1,0.7,2.4,1.1,3.8,1.1c1.1,0,2.3-0.3,3.3-0.9l0,0l0,0
	c0.8-0.5,1.5-1.1,2-1.8c1.3,1.6,3.3,2.5,5.3,2.5c1.1,0,2.2-0.3,3.2-0.8c1.6,0.8,3.4,1.2,5.1,1.2c4.8,0.2,9.3-2.5,11.4-6.8
	C217.1,97.3,221.6,99.9,227.4,99.9z M227.2,81.3h0.4c0.3,0.8,0.4,1.6,0.4,2.5c0.1,1-0.1,2-0.5,2.9h-0.2c-0.4-0.9-0.5-1.9-0.5-2.9
	C226.7,82.9,226.9,82.1,227.2,81.3z M202,86.4L202,86.4c-0.1-0.6-0.1-1.4-0.1-2.1v-0.6c0-0.6,0-1.3,0.1-1.8c0,0,0.1-0.1,0.1-0.1
	c0.1,0.7,0.2,1.4,0.2,2.1C202.3,84.8,202.2,85.6,202,86.4z"/>
<path d="M396.1,98.3c1.1,0.7,2.4,1.1,3.8,1.1c1.1,0,2.3-0.3,3.3-0.9l0,0l0,0c0.8-0.5,1.5-1.1,2-1.9c2.5,3,7,3.5,10,0.9
	c1.6-1.4,2.6-3.4,2.6-5.5V67.8c0.1-3.9-2.9-7.2-6.8-7.4c-3.9-0.1-7.2,2.9-7.4,6.8c0,0.2,0,0.4,0,0.5v4.6c-2-2.7-5.4-4-10.1-4
	c-2.9,0-5.8,0.7-8.4,2.1l0,0l0,0c-1.1,0.6-2,1.5-2.7,2.6c-1.5-3.6-5.7-5.3-9.3-3.8c-1.7,0.7-3.1,2.1-3.8,3.9
	c-1.5-3.6-5.6-5.3-9.2-3.8c-0.9,0.4-1.8,0.9-2.4,1.7c-0.6-0.5-1.3-0.9-2-1.1c0.1-3.9-3-7.1-6.8-7.2c-3.9-0.1-7.1,3-7.2,6.8
	c-0.9-0.4-1.8-0.6-2.8-0.7c-0.8,0-1.5,0.1-2.3,0.4c-0.4,0.1-0.8,0.3-1.1,0.4c-1.1-0.7-2.4-1-3.7-1c-0.8,0-1.7,0.1-2.5,0.4l0,0l0,0
	c-0.7,0.2-1.4,0.6-2,1c0.3-0.7,0.4-1.5,0.4-2.3c-0.2-4.3-3.8-7.6-8-7.5c-4.1,0.1-7.3,3.4-7.5,7.5c0,0.5,0,0.9,0.1,1.4
	c-3.6-1.3-7.7,0.5-9,4.1c0,0.1-0.1,0.3-0.1,0.4l-0.6,1.7l-0.6-1.7c-0.9-3-3.6-5-6.8-4.9c-3.9,0-7.1,3.2-7.1,7.1
	c0,0.8,0.1,1.7,0.4,2.5v0.1v0.1l6.6,15.7c1.1,3.1,4,5.1,7.3,5.1c3.3,0,6.3-2,7.5-5.1l2.8-6.9v4.9c0,3.9,3.2,7.1,7.1,7.1
	c2.5,0,4.8-1.3,6.1-3.4c2,3.4,6.4,4.5,9.7,2.5c2.2-1.3,3.5-3.6,3.5-6.2v-9.6c0.2-0.1,0.5-0.1,0.7-0.2h0c0.6-0.1,1.2-0.3,1.7-0.6v8.1
	c0,5.7,4,9.3,10.1,9.3h0.3h0.3l1.4-0.2l0.4-0.1l0.4-0.2c1.5-0.5,2.8-1.5,3.7-2.8c2,2.2,5,3.5,8.7,3.5c1.9,0,3.8-0.4,5.5-1.2
	c1.2,0.8,2.5,1.2,4,1.2c0.7,0,1.4-0.1,2-0.3c1.7-0.5,3.1-1.6,4-3.1c2.2,2.3,5.2,3.5,8.3,3.5C392.5,99.6,394.4,99.2,396.1,98.3z"/>
<path d="M566.9,79.5c0.9-1.4,1.2-3.2,0.9-4.8c-0.4-1.8-1.6-3.4-3.2-4.4c-2-1.2-4.3-1.8-6.6-1.8c-2.9-0.1-5.8,0.8-8.2,2.6
	c-1.3-1.4-3-2.1-4.9-2.1c-0.8,0-1.5,0.1-2.3,0.4c-0.4,0.1-0.8,0.3-1.1,0.4c-1.1-0.7-2.4-1-3.7-1c-0.8,0-1.7,0.1-2.5,0.4l0,0l0,0
	c-1.8,0.6-3.2,1.9-4,3.6c-2.3-2.9-5.9-4.6-9.6-4.4c-4.6-0.2-9,1.9-11.7,5.6c-0.2-1.2-0.7-2.3-1.5-3.2c-1.4-1.5-3.3-2.3-5.4-2.2
	c-1.2,0-2.5,0.3-3.5,0.9c-1.6-0.7-3.4-1-5.1-1c-4.6-0.2-9,2.3-11.1,6.4c-1.6-3.9-5.3-6.1-10.4-6.1c-1.8,0-3.6,0.4-5.3,1.2
	c-1.2-0.8-2.5-1.2-3.9-1.2c-0.8,0-1.7,0.1-2.5,0.4l0,0l0,0c-0.7,0.2-1.3,0.6-1.9,1c0.2-0.7,0.4-1.5,0.4-2.3c-0.2-4.3-3.8-7.6-8-7.5
	c-4.1,0.1-7.3,3.4-7.5,7.5c0,1,0.2,2,0.6,2.9c-0.2-0.2-0.4-0.3-0.7-0.5c-2-1.2-4.3-1.8-6.6-1.8c-7.1,0-12,4.3-12,10.7
	c-0.1,2.5,0.8,5,2.5,6.9c-1.1,0.6-2,1.6-2.5,2.8c-1.4,2.8-0.6,6.2,1.9,8.1c2.6,1.9,5.8,2.8,9,2.7c3.5,0.2,7-1.3,9.3-4
	c1.9,3.4,6.2,4.7,9.6,2.8c1.1-0.6,2-1.5,2.6-2.5c2,3.4,6.4,4.4,9.8,2.4c1.3-0.8,2.3-2,2.9-3.4c1.4,3.6,5.5,5.4,9.2,4
	c1.2-0.5,2.2-1.3,3-2.3c-1.7,3.2-0.7,7.1,2.3,9.1c2.4,1.6,5.7,2.4,10.3,2.4c8.9,0,14.5-5.2,14.5-13.6c2.6,3.4,6.9,5.3,12.4,5.3
	c2.7,0,5.4-0.6,7.8-1.8c0.8-0.4,1.6-1,2.2-1.7c2.2,3.3,6.6,4.1,9.8,2c2-1.3,3.1-3.5,3.2-5.9v-9.6c0.2-0.1,0.4-0.1,0.7-0.2l0,0
	c0.2,0,0.3-0.1,0.5-0.1c0.4,1.4,1.1,2.7,2.1,3.8c-1.1,0.6-2,1.6-2.5,2.8c-1.4,2.8-0.6,6.2,1.9,8.1c2.6,1.9,5.8,2.8,9,2.7
	c7,0,11.7-4.4,11.7-11.1c0.1-2.8-1-5.5-3.1-7.5C566,80.6,566.5,80.1,566.9,79.5z M495.8,84.3c0,0.6,0,1.3-0.1,1.9l-0.1,0.1
	c-0.3-1.5-0.3-3.1,0.1-4.7l0,0c0.1,0.7,0.1,1.4,0.1,2.1L495.8,84.3z"/>
<path d="M193.6,127.3c-4.3-0.1-8.4,1.7-11.2,4.9c-0.1-0.2-0.2-0.5-0.3-0.7c-1.2-2.4-3.6-3.8-6.2-3.8c-2.1,0.1-4,1-5.3,2.6v-3.5
	c0-3.9-3.2-7.1-7.1-7.1c-2.2,0-4.3,1-5.7,2.8c-2.7-3.5-7.6-4.2-11.1-1.5c-0.6,0.5-1.1,1-1.6,1.6c-2.3-3.2-6.8-3.9-9.9-1.5
	c-1.8,1.3-2.9,3.5-2.9,5.7v24.4c0,3.9,3.2,7.1,7.1,7.1c2.5,0,4.8-1.3,6.1-3.4c2,3.3,6.4,4.4,9.7,2.3c0.9-0.6,1.7-1.3,2.3-2.2
	c2.1,3.3,6.5,4.3,9.8,2.2c1.1-0.7,2-1.8,2.6-3l1.4,1.5c1.4,1.6,3.4,2.6,5.5,2.7c2.6,0,4.9-1.4,6.1-3.7c2.6,2.6,6.5,4,11.2,4
	c2.7,0,5.4-0.6,7.8-1.8c3.1-1.5,4.5-5.2,3.2-8.4c-0.2-0.6-0.6-1.2-1-1.7c1.2-1.3,1.9-3,1.9-4.9v-0.7
	C206,132.6,201.2,127.3,193.6,127.3z M178.7,143.3l-0.6-0.7l0.7-0.9C178.8,142.3,178.7,142.8,178.7,143.3L178.7,143.3z"/>
<path d="M365.4,127.3c-5.1-0.2-9.9,2.4-12.5,6.8c-1.5-4.1-5.3-6.5-10.5-6.5c-1.8,0-3.6,0.4-5.3,1.2c-1.2-0.8-2.5-1.2-3.9-1.2
	c-0.8,0-1.7,0.1-2.5,0.4l0,0l0,0c-1.5,0.5-2.8,1.5-3.6,2.9c-2.2-3.3-6.6-4.1-9.9-1.9c-1.2,0.8-2.1,1.9-2.6,3.2
	c-1.5-3.6-5.6-5.4-9.2-3.9c-1.3,0.5-2.4,1.4-3.2,2.6c-0.5-0.6-1.1-1.2-1.8-1.6c-2-1.2-4.3-1.8-6.6-1.8c-3.2-0.1-6.3,1-8.8,3.1
	c-0.7-0.7-1.6-1.3-2.6-1.6c-0.1-3.9-3.3-6.9-7.2-6.8c-3.9,0.1-6.9,3.3-6.8,7.2c-0.7,0.3-1.2,0.8-1.8,1.3c-2-2.1-5.1-3.1-9.3-3.1
	c-2.9,0-5.8,0.7-8.4,2.1l0,0l0,0c-1.1,0.6-2,1.5-2.7,2.6v-3.8c0-4-3.2-7.2-7.2-7.2c-4,0-7.2,3.2-7.2,7.2v4.4h-3.4v-4.4
	c0-4-3.2-7.2-7.2-7.2c-4,0-7.2,3.2-7.2,7.2v22.9c0,4,3.2,7.2,7.2,7.2c4,0,7.2-3.2,7.2-7.2v-4.9h3.4v4.9c0,4,3.2,7.2,7.2,7.2
	c2.8,0,5.3-1.6,6.5-4.1c2.1,2.8,5.5,4.4,9,4.4c1.9,0,3.7-0.4,5.4-1.2c1.1,0.7,2.4,1.1,3.8,1.1c1.1,0,2.3-0.3,3.3-0.9
	c1.3-0.8,2.4-2,2.9-3.5c1.7,2.5,4.7,4,8.6,4h0.3h0.3l1.4-0.2l0.4-0.1l0.4-0.1c1-0.4,1.8-0.9,2.6-1.5c2.6,1.7,5.6,2.6,8.7,2.5
	c4.5,0,8-1.9,10-4.9c1.9,3,5.2,4.8,9.7,4.8c1.9,0,3.8-0.4,5.5-1.2c1.8,1.2,4,1.5,6,0.9c1.6-0.5,3-1.5,3.9-2.9
	c2.3,3.2,6.8,3.8,9.9,1.5c1-0.8,1.8-1.8,2.3-3c1.4,3.6,5.6,5.4,9.2,4c2.1-0.8,3.6-2.6,4.2-4.7c2.6,3.6,7,5.6,12.6,5.6
	c2.7,0,5.4-0.6,7.8-1.8c3.1-1.5,4.5-5.2,3.2-8.4c-0.2-0.6-0.6-1.2-1-1.7c1.2-1.3,1.9-3,1.9-4.9v-0.7
	C377.8,132.6,373,127.3,365.4,127.3z M246,139.8v-0.8c0.1,0.2,0.2,0.4,0.3,0.5C246.2,139.5,246.1,139.6,246,139.8z M283,145.9
	c-0.2-0.1-0.5-0.3-0.7-0.4v-3.6c0.4,1.1,1.1,2.2,1.9,3.1C283.7,145.3,283.4,145.6,283,145.9z"/>
<path d="M489.9,143.3c-1.8,0-3.6,0.7-4.9,1.8v-10.2c0-3.9-3.2-7.1-7.1-7.1c-2.9,0-5.5,1.7-6.6,4.4c-1.4-3.6-5.5-5.4-9.2-4
	c-1.1,0.4-2.1,1.1-2.8,2.1c-1.3-1.7-3.3-2.6-5.4-2.6c-2.1,0.1-4,1-5.3,2.6v-3.5c0-3.9-3.2-7.1-7.1-7.1c-2.2,0-4.3,1-5.7,2.8
	c-1.5-2-3.8-3.2-6.3-3.1c-3.7-0.1-6.9,2.5-7.6,6.1c-1.4-2.8-4.3-4.5-7.4-4.4c-3.5,0-6.7,2.2-7.9,5.5v0.1v0.1l-1.8,5.3l-1.7-5.3
	c-1.1-3.6-4.5-5.9-8.2-5.7c-3.6,0-7.7,2.5-8.2,8.1l-1.9,21.7v0.1c-0.2,3.9,2.8,7.1,6.7,7.3c3,0.1,5.8-1.7,6.8-4.5
	c2.3,3.4,7,4.3,10.4,2c0.8-0.6,1.5-1.3,2.1-2.1c1.3,3.7,5.4,5.7,9.2,4.4c1.1-0.4,2-1,2.8-1.8c0.3-0.3,0.6-0.6,0.8-1
	c2.1,3.3,6.5,4.2,9.8,2.1c0.9-0.5,1.6-1.3,2.1-2.1c2.1,3.3,6.5,4.3,9.8,2.2c1.1-0.7,2-1.8,2.6-3l1.4,1.5c1.4,1.6,3.4,2.6,5.5,2.7
	c2.3,0,4.5-1.2,5.8-3.1c2.3,2.1,5.3,3.3,8.4,3.1c1.9,0,3.8-0.4,5.5-1.2c1.2,0.8,2.5,1.2,3.9,1.2c0.7,0,1.4-0.1,2.1-0.3
	c1.4-0.4,2.7-1.3,3.6-2.5c2.7,3.2,7.4,3.6,10.6,1c3.2-2.7,3.6-7.4,1-10.6C494.3,144.3,492.2,143.4,489.9,143.3L489.9,143.3z
	 M457.7,144.3l-1.6-1.6l1.6-1.9V144.3z"/>
<path class="st0" d="M12.7,9.2V32c0,1.8-1.4,3.2-3.2,3.2S6.3,33.8,6.3,32V9.2C6.3,7.5,7.7,6,9.5,6S12.7,7.5,12.7,9.2z"/>
<path class="st0" d="M38.7,19.6v12.5c-0.1,1.7-1.6,3-3.3,2.9c-1.6-0.1-2.8-1.3-2.9-2.9V21.2c0-2.5-1-3.6-3.1-3.6
	c-1.5,0-2.8,0.6-3.9,1.6v12.9c0,1.7-1.4,3.1-3.1,3.1c-1.7,0-3.1-1.4-3.1-3.1V18.6c0-1-0.3-1.7-0.3-2.6c-0.2-1.4,0.6-2.7,1.9-3.2
	c1.6-0.7,3.5,0.1,4.1,1.8c0.1,0.1,0.1,0.3,0.1,0.4c0,0,0.1,0.1,0.1,0.1c1.7-1.6,3.9-2.5,6.1-2.5C37.6,12.5,38.7,16.6,38.7,19.6z"/>
<path class="st0" d="M58.6,8.5c-0.4,1.3-1.7,2-3,1.6C55.2,10,54.7,10,54.3,10c-1.5,0-2.4,1.3-2.4,3v0.4h2c1.3,0.1,2.3,1.2,2.2,2.6
	c-0.1,1.2-1,2.2-2.2,2.2h-2v14c0,1.7-1.3,3-3,3s-3-1.3-3-3v-14h-1.3c-1.3-0.1-2.3-1.2-2.2-2.6c0.1-1.2,1-2.2,2.2-2.2h1.3v-0.7
	c0-3,1.7-8.2,8.3-8.2c1.1,0,2.1,0.2,3.1,0.6C58.5,5.8,59.1,7.2,58.6,8.5z"/>
<path class="st0" d="M80.5,23.8c0,5.3-2.3,12-10.9,12s-10.9-6.7-10.9-12c0-5.1,2.3-11.7,10.9-11.7S80.5,18.6,80.5,23.8z M74.2,23.7
	c0-4.8-1.9-6.5-4.6-6.5S65,18.9,65,23.7s1.8,6.9,4.6,6.9S74.2,28.6,74.2,23.7z"/>
<path class="st0" d="M95.6,18.4c-1.8,0.4-3.2,1-3.9,2.4v11.4c0,1.7-1.4,3.1-3.1,3.1s-3.1-1.4-3.1-3.1V18.6c-0.1-0.9-0.2-1.9-0.3-2.8
	c-0.2-1.4,0.6-2.7,1.9-3.1c1.6-0.7,3.5,0.1,4.1,1.8c0.1,0.1,0.1,0.3,0.1,0.4l0.2,0.5c0.6-1.1,1.7-2,2.9-2.4c1.4-0.6,2.9,0.1,3.5,1.5
	c0,0.1,0.1,0.2,0.1,0.3c0.4,1.5-0.4,3.1-1.9,3.5C95.9,18.3,95.8,18.3,95.6,18.4z"/>
<path class="st0" d="M133,19.6v12.5c0.1,1.7-1.2,3.1-2.9,3.2c-1.7,0.1-3.1-1.2-3.2-2.9c0-0.1,0-0.2,0-0.3V21.2
	c0-2.3-1.1-3.7-3.3-3.7c-1.4,0.1-2.7,0.6-3.7,1.4c0.2,1.2,0.3,2.3,0.3,3.5v9.6c0,1.7-1.3,3-3,3s-3-1.3-3-3v-11c0-2.5-1-3.6-3.3-3.6
	c-1.3,0.1-2.5,0.7-3.4,1.6v12.9c0,1.7-1.4,3.1-3.1,3.1s-3.1-1.4-3.1-3.1V18.9c-0.1-1-0.2-2.1-0.4-3.1c-0.2-1.4,0.6-2.7,2-3.1
	c1.7-0.6,3.5,0.3,4.1,1.9c0,0.1,0.1,0.2,0.1,0.3c0,0.1,0,0.1,0,0.1c1.6-1.5,3.7-2.4,5.9-2.5c3.6,0,5,1.5,5.7,2.4
	c2-1.6,4.5-2.4,7-2.4C132,12.5,133,16.6,133,19.6z"/>
<path class="st0" d="M155.1,35c-1.4,0.7-3,0.2-3.8-1.1c-0.3-0.5-0.5-1.1-0.6-1.6c-1.3,2.1-3.6,3.3-6.1,3.2c-3.1,0-7.1-1.7-7.1-7.2
	c0-5.2,2.7-7,12.3-7.3v-0.8c0-1.7-0.7-2.5-2.9-2.5c-1.3,0-2.6,0.4-3.7,1.1c-1.3,0.7-2.9,0.3-3.6-0.9c-0.1-0.1-0.1-0.2-0.1-0.3
	c-0.5-1.4,0.1-2.9,1.4-3.5c2-1,4.2-1.6,6.4-1.6c5.9,0,8.2,2.2,8.2,7.8v8.1c0,1.4,0.2,2.7,0.7,4C156.6,33.2,156.1,34.4,155.1,35z
	 M149.9,27.4v-2c-5.3,0.2-6.6,0.8-6.6,2.7s1.3,2.3,2.6,2.3C147.8,30.3,149.4,29.1,149.9,27.4L149.9,27.4z"/>
<path class="st0" d="M172.3,32.2c0,1.3-0.9,2.1-2.3,2.6l-1.4,0.2c-3.3,0-6.1-1.4-6.1-5.3V18.2h-1.1c-1.3-0.1-2.3-1.2-2.2-2.6
	c0.1-1.2,1-2.2,2.2-2.2h1.1v-3.1c0-1.7,1.4-3,3-3s3,1.4,3,3v3.1h2c1.3,0.1,2.3,1.2,2.2,2.6c-0.1,1.2-1,2.2-2.2,2.2h-2v9
	c0,2,0.3,2.8,1.4,2.9h0.1c1.1-0.1,2.1,0.7,2.1,1.8C172.3,32,172.3,32.1,172.3,32.2z"/>
<path class="st0" d="M176,7.7c0.2-2.1,2-3.6,4.1-3.4c1.8,0.2,3.3,1.6,3.4,3.4c-0.2,2.1-2,3.6-4.1,3.4C177.6,10.9,176.2,9.5,176,7.7z
	 M182.9,15.8v16.3c0,1.7-1.4,3.1-3.1,3.1s-3.1-1.4-3.1-3.1V15.8c0-1.7,1.4-3.1,3.1-3.1S182.9,14.1,182.9,15.8z"/>
<path class="st0" d="M209.6,23.8c0,5.3-2.3,12-10.9,12s-10.9-6.7-10.9-12c0-5.1,2.3-11.7,10.9-11.7S209.6,18.6,209.6,23.8z
	 M203.3,23.7c0-4.8-1.9-6.5-4.6-6.5s-4.6,1.7-4.6,6.5s1.9,6.9,4.6,6.9S203.3,28.6,203.3,23.7L203.3,23.7z"/>
<path class="st0" d="M233.9,19.6v12.5c0,1.7-1.4,3.1-3.1,3.1c-1.7,0-3.1-1.4-3.1-3.1c0,0,0,0,0,0V21.2c0-2.5-1-3.6-3.1-3.6
	c-1.5,0-2.8,0.6-3.8,1.6v12.9c0,1.7-1.4,3.1-3.1,3.1s-3.1-1.4-3.1-3.1V18.6c0-1-0.3-1.7-0.3-2.6c-0.2-1.4,0.6-2.7,1.9-3.2
	c1.6-0.7,3.5,0.1,4.1,1.8c0,0.1,0.1,0.3,0.1,0.4c0,0,0.1,0.1,0.1,0.1c1.7-1.6,3.9-2.5,6.1-2.5C232.9,12.5,233.9,16.6,233.9,19.6z"/>
<path class="st0" d="M266.4,35c-1.4,0.7-3,0.2-3.8-1.1c-0.3-0.5-0.5-1.1-0.6-1.6c-1.3,2.1-3.6,3.3-6.1,3.2c-3.1,0-7.1-1.7-7.1-7.2
	c0-5.2,2.7-7,12.3-7.3v-0.8c0-1.7-0.7-2.5-2.9-2.5c-1.3,0-2.6,0.4-3.7,1.1c-1.3,0.7-2.9,0.3-3.6-0.9c-0.1-0.1-0.1-0.2-0.1-0.3
	c-0.5-1.4,0.1-2.9,1.4-3.6c2-1,4.2-1.6,6.4-1.6c5.9,0,8.2,2.2,8.2,7.8v8.1c0,1.4,0.2,2.7,0.7,4C267.9,33.2,267.4,34.4,266.4,35z
	 M261.2,27.4v-2c-5.3,0.2-6.6,0.8-6.6,2.7s1.3,2.3,2.6,2.3C259,30.3,260.6,29.1,261.2,27.4L261.2,27.4z"/>
<path class="st0" d="M293.5,23.6c0,6.4-2.5,11.8-9.3,11.8c-2,0-3.8-0.8-5.2-2.1v7.3c0,1.7-1.4,3-3,3s-3-1.4-3-3V18.6
	c-0.1-1-0.2-1.9-0.4-2.9c-0.2-1.4,0.6-2.7,1.9-3.2c1.7-0.6,3.6,0.3,4.2,2c0,0.1,0,0.2,0.1,0.2l0.1,0.3c1.5-1.8,3.7-2.8,6-2.8
	C291.1,12.3,293.5,17.3,293.5,23.6z M287.1,23.8c0-3.5-0.9-6.2-3.7-6.3c-1.9,0-3.5,1.1-4.4,2.8c-0.2,1.1-0.3,2.2-0.3,3.3v0.6
	c0,1.3,0.1,2.7,0.3,4c0.9,1.3,2.4,2.1,4,2.1C286.4,30.4,287.1,27.1,287.1,23.8L287.1,23.8z"/>
<path class="st0" d="M319,23.6c0,6.4-2.5,11.8-9.3,11.8c-2,0-3.8-0.8-5.2-2.1v7.3c0,1.7-1.4,3-3,3s-3-1.4-3-3V18.6
	c-0.1-1-0.2-1.9-0.4-2.9c-0.2-1.4,0.6-2.7,2-3.2c1.7-0.6,3.6,0.3,4.2,2c0,0.1,0,0.1,0.1,0.2l0.1,0.3c1.5-1.8,3.7-2.8,6-2.8
	C316.7,12.3,319,17.3,319,23.6z M312.6,23.8c0-3.5-0.9-6.2-3.7-6.3c-1.9,0-3.5,1.1-4.4,2.8c-0.2,1.1-0.3,2.2-0.3,3.3v0.6
	c0,1.3,0.1,2.7,0.3,4c0.9,1.3,2.4,2.2,4,2.1C312,30.4,312.7,27.1,312.6,23.8L312.6,23.8z"/>
<path class="st0" d="M345,32.2c0,1.3-0.9,2.1-2.3,2.6l-1.4,0.2c-3.3,0-6.1-1.4-6.1-5.3V18.2h-1.1c-1.3-0.1-2.3-1.2-2.2-2.6
	c0.1-1.2,1-2.2,2.2-2.2h1.1v-3.1c0-1.7,1.4-3,3-3s3,1.4,3,3v3.1h2c1.3,0.1,2.3,1.2,2.2,2.6c-0.1,1.2-1,2.2-2.2,2.2h-2v9
	c0,2,0.3,2.8,1.4,2.9h0.1c1.1-0.1,2.1,0.7,2.1,1.8C345.1,32,345.1,32.1,345,32.2z"/>
<path class="st0" d="M368.7,19.6v12.5c0,1.7-1.4,3.1-3.1,3.1s-3.1-1.4-3.1-3.1V21.2c0-2.5-1-3.6-3.1-3.6c-1.5,0-2.9,0.6-3.8,1.7
	v12.8c0,1.7-1.4,3.1-3.1,3.1c-1.7,0-3.1-1.4-3.1-3.1V7.7c0-1.7,1.4-3.1,3.1-3.1c1.7,0,3.1,1.4,3.1,3.1v7c1.6-1.4,3.7-2.1,5.8-2.1
	C367.7,12.5,368.7,16.6,368.7,19.6z"/>
<path class="st0" d="M390.9,35c-1.4,0.7-3,0.2-3.8-1.1c-0.3-0.5-0.5-1.1-0.6-1.6c-1.3,2.1-3.6,3.3-6.1,3.2c-3.1,0-7.1-1.7-7.1-7.2
	c0-5.2,2.7-7,12.3-7.3v-0.8c0-1.7-0.7-2.5-2.9-2.5c-1.3,0-2.6,0.4-3.7,1.1c-1.3,0.7-2.9,0.3-3.6-0.9c-0.1-0.1-0.1-0.2-0.1-0.3
	c-0.5-1.4,0.1-2.9,1.5-3.6c2-1,4.2-1.6,6.4-1.6c5.9,0,8.2,2.2,8.2,7.8v8.1c0,1.4,0.2,2.7,0.7,4C392.4,33.2,391.9,34.4,390.9,35z
	 M385.6,27.4v-2c-5.3,0.2-6.5,0.8-6.5,2.7s1.3,2.3,2.6,2.3C383.5,30.3,385.1,29.1,385.6,27.4L385.6,27.4z"/>
<path class="st0" d="M408,32.2c0,1.3-0.9,2.1-2.3,2.6l-1.4,0.2c-3.3,0-6.1-1.4-6.1-5.3V18.2h-1.1c-1.3,0.1-2.5-0.9-2.6-2.2
	c-0.1-1.3,0.9-2.5,2.2-2.6c0.1,0,0.2,0,0.3,0h1.1v-3.1c0-1.7,1.4-3,3-3s3,1.4,3,3v3.1h2c1.3-0.1,2.5,0.9,2.6,2.2
	c0.1,1.3-0.9,2.5-2.2,2.6c-0.1,0-0.2,0-0.3,0h-2v9c0,2,0.3,2.8,1.4,2.9h0.1c1.1-0.1,2.1,0.7,2.1,1.8C408,32,408,32.1,408,32.2z"/>
<path class="st0" d="M443.3,23.6c0,6.4-2.5,11.9-9.3,11.9c-2.1-0.1-4.1-0.9-5.7-2.2l-0.1,0.2c-0.5,1-1.5,1.6-2.6,1.6
	c-1.6,0-2.9-1.3-2.9-2.9c0,0,0,0,0,0V7.6c0-1.7,1.4-3,3-3s3,1.4,3,3v7.1c1.5-1.5,3.6-2.4,5.7-2.4C440.9,12.3,443.3,17.3,443.3,23.6z
	 M437,23.8c0-3.5-0.9-6.3-3.7-6.3c-1.9,0-3.6,1.2-4.4,2.9c-0.1,1.1-0.2,2.1-0.2,3.2v0.6c0,1.3,0.1,2.6,0.3,3.9
	c0.9,1.3,2.4,2.2,4,2.2C436.3,30.4,437,27.1,437,23.8L437,23.8z"/>
<path class="st0" d="M458.4,18.4c-1.8,0.4-3.2,1-3.9,2.4v11.4c0,1.7-1.4,3.1-3.1,3.1c-1.7,0-3.1-1.4-3.1-3.1V18.6
	c0-0.9-0.2-1.9-0.3-2.8c-0.2-1.4,0.6-2.7,1.9-3.1c1.6-0.7,3.5,0.1,4.1,1.8c0.1,0.1,0.1,0.3,0.1,0.4l0.1,0.5c0.6-1.1,1.7-2,2.9-2.4
	c1.4-0.6,2.9,0.1,3.5,1.5c0,0.1,0.1,0.2,0.1,0.3c0.4,1.5-0.4,3.1-1.9,3.5C458.7,18.3,458.5,18.3,458.4,18.4z"/>
<path class="st0" d="M463.3,7.7c0.2-2.1,2-3.6,4-3.5c1.9,0.1,3.3,1.6,3.5,3.5c-0.2,2.1-2,3.6-4,3.5C464.9,11,463.5,9.6,463.3,7.7z
	 M470.2,15.8v16.3c0,1.7-1.4,3.1-3.1,3.1c-1.7,0-3.1-1.4-3.1-3.1V15.8c0-1.7,1.4-3.1,3.1-3.1C468.8,12.7,470.2,14.1,470.2,15.8z"/>
<path class="st0" d="M495.5,19.6v12.5c0,1.7-1.4,3.1-3.1,3.1s-3.1-1.4-3.1-3.1V21.2c0-2.5-1-3.6-3.1-3.6c-1.5,0-2.8,0.6-3.9,1.6
	v12.9c0,1.7-1.4,3.1-3.1,3.1c-1.7,0-3.1-1.4-3.1-3.1V18.6c0-1-0.2-1.7-0.3-2.6c-0.2-1.4,0.6-2.7,1.9-3.2c1.6-0.7,3.5,0.1,4.1,1.8
	c0.1,0.1,0.1,0.3,0.1,0.4c0,0,0.1,0.1,0.1,0.1c1.7-1.6,3.9-2.5,6.1-2.5C494.5,12.5,495.5,16.6,495.5,19.6z"/>
<path class="st0" d="M521.2,15.3c-0.1,0.7-0.2,1.5-0.2,2.1v16.8c0,8.2-6.4,9.7-10.5,9.7c-2.9,0-6.1-0.4-8-1.7c-1.4-0.8-1.8-2.6-1-4
	c0-0.1,0.1-0.1,0.1-0.2c0.9-1.2,2.4-1.5,3.7-0.9c1.6,0.7,3.3,1.1,5,1.1c3,0,4.6-1.7,4.6-4.8v-0.7c-1.4,1.8-3.6,2.9-5.9,2.8
	c-6.4,0-8.7-5-8.7-11.3s2.5-11.9,9.3-11.9c2.2-0.1,4.3,0.8,5.8,2.3c0-0.1,0.1-0.1,0.1-0.2c0.3-1.2,1.5-2.1,2.7-2
	C520.5,12.4,521.4,13.7,521.2,15.3z M514.9,27.4c0.2-1.1,0.2-2.1,0.3-3.2v-0.6c0-1.3-0.1-2.6-0.3-3.9c-0.8-1.4-2.3-2.2-4-2.2
	c-3.5,0-4.1,3.3-4.1,6.6s0.9,6.2,3.7,6.2C512.4,30.3,514.2,29.2,514.9,27.4z"/>
<path class="st0" d="M540.9,28.5c0,5.5-4.3,7.1-7.7,7.1c-2.3,0.1-4.6-0.5-6.5-1.8c-1-0.8-1.3-2.2-0.7-3.3c0.7-1.2,2.2-1.7,3.5-1
	c0,0,0,0,0.1,0c1.1,0.7,2.3,1,3.5,1.1c0.9,0.1,1.7-0.6,1.8-1.5c0-0.1,0-0.1,0-0.2c0-1.2-1.4-2-3.8-3.3c-2.9-1.5-4.7-3-4.7-6.4
	c0-5.3,4.5-6.7,8-6.7c1.6,0,3.1,0.4,4.5,1.2c1.3,0.7,1.8,2.2,1.2,3.5c0,0.1-0.1,0.1-0.1,0.2c-0.8,1.1-2.3,1.4-3.4,0.6
	c0,0-0.1-0.1-0.1-0.1c-0.7-0.5-1.4-0.7-2.2-0.7c-0.9,0-1.7,0.7-1.7,1.6c0,0,0,0.1,0,0.1c0,0.9,0.7,1.5,3,2.7
	C538.3,23,540.9,24.6,540.9,28.5z"/>
<path class="st0" d="M574.2,16.5c-1.3,6-3.2,11.7-5.8,17.2c-1.4,2.9-3,5.6-4.9,8.2c-1,1.4-3,1.8-4.5,0.9c-1.4-0.9-1.8-2.7-0.9-4.1
	c0-0.1,0.1-0.1,0.1-0.2c1.3-1.8,2.5-3.5,3.5-5.3L554.5,17c-0.7-1.6,0-3.4,1.6-4c0.4-0.2,0.9-0.3,1.3-0.3c1.4-0.1,2.6,0.8,3,2.1
	l4.5,11.7l0.8-2.4c1.1-3.8,1.6-6,2.3-9c0.3-1.5,1.7-2.6,3.3-2.5C573.6,12.6,574.5,14.7,574.2,16.5z"/>
<path class="st0" d="M599,23.8c0,5.3-2.3,12-10.9,12s-10.9-6.7-10.9-12c0-5.1,2.3-11.7,10.9-11.7S599,18.6,599,23.8z M592.7,23.7
	c0-4.8-1.9-6.5-4.6-6.5s-4.6,1.7-4.6,6.5s1.9,6.9,4.6,6.9S592.7,28.6,592.7,23.7z"/>
<path class="st0" d="M621.5,35.2c-1.7,0.4-3.4-0.5-4-2.2l-0.1-0.2c-1.7,1.6-3.9,2.5-6.2,2.5c-6.3,0-7.3-4.2-7.3-7.2V15.8
	c-0.1-1.7,1.2-3.2,2.9-3.3c1.7-0.1,3.2,1.2,3.3,2.9c0,0.1,0,0.2,0,0.4v10.8c0,2.4,1,3.7,3.1,3.7c1.4,0,2.8-0.6,3.8-1.6V15.8
	c0-1.7,1.4-3.1,3.1-3.1s3.1,1.4,3.1,3.1c0,0,0,0,0,0v11.5c0,1.6,0.2,3.1,0.4,4.7C623.9,33.4,623,34.9,621.5,35.2z"/>
<path class="st0" d="M74.7,78.6v12.5c0,1.7-1.4,3.1-3.1,3.1c-1.7,0-3.1-1.4-3.1-3.1V80.2c0-2.4-1-3.6-3.2-3.6
	c-1.5,0-2.8,0.6-3.8,1.6v12.9c0.1,1.7-1.2,3.2-2.9,3.3c-1.7,0.1-3.2-1.2-3.3-2.9c0-0.1,0-0.2,0-0.4V77.6c0-1-0.3-1.7-0.3-2.6
	c-0.2-1.4,0.6-2.7,1.9-3.2c1.6-0.6,3.5,0.2,4.1,1.8c0,0.1,0.1,0.2,0.1,0.4c0,0,0.1,0.1,0.1,0.2c1.7-1.6,3.9-2.5,6.1-2.5
	C73.7,71.5,74.7,75.6,74.7,78.6z"/>
<path class="st0" d="M85.8,84.6v0.1c0,1.2,0.7,4.7,5.6,4.7c1.3-0.1,2.6-0.4,3.8-1c1.3-0.5,2.8,0.2,3.3,1.5c0.5,1.3-0.2,2.8-1.5,3.3
	c-1.8,0.9-3.9,1.4-5.9,1.4c-9.2,0-11.5-5.9-11.5-11.4c0-6.6,3.5-12,10.8-12c6.6,0,8.4,4.9,8.4,9.8v0.7c0.1,1.5-1,2.7-2.4,2.9
	c-0.2,0-0.3,0-0.5,0H85.8z M85.9,80.3h7.4c0-2.3-0.6-4.3-3.5-4.3C87.2,76,86,78.6,85.9,80.3z"/>
<path class="st0" d="M136.1,75.8L131,91.3c-0.7,2.1-2.9,3.3-5.1,2.7c-1.3-0.4-2.3-1.4-2.7-2.7L119,79.5l-4,11.8
	c-0.7,2.1-2.9,3.4-5.1,2.7c-1.3-0.4-2.3-1.4-2.7-2.7l-5.1-15.5c-0.6-1.6,0.3-3.4,2-4c0.4-0.1,0.7-0.2,1.1-0.2c1.5-0.1,2.8,1,3.1,2.5
	l3.2,12.4l4-11.7c0.5-1.6,1.9-2.6,3.6-2.6c1.7,0,3.2,1.1,3.7,2.7l4.2,11.6l3-12.4c0.3-1.5,1.6-2.6,3.1-2.5c1.8,0,3.2,1.4,3.2,3.2
	C136.3,75.2,136.2,75.5,136.1,75.8z"/>
<path class="st0" d="M154.3,87.4c0,5.6-4.3,7.1-7.7,7.1c-2.3,0.1-4.6-0.5-6.6-1.8c-1-0.8-1.3-2.2-0.7-3.3c0.7-1.2,2.2-1.7,3.5-1
	c0,0,0,0,0,0c1.1,0.7,2.3,1.1,3.6,1.1c0.9,0.1,1.7-0.6,1.8-1.5c0-0.1,0-0.1,0-0.2c0-1.2-1.4-2-3.8-3.3c-2.9-1.5-4.7-3-4.7-6.4
	c0-5.3,4.5-6.7,7.9-6.7c1.6,0,3.1,0.4,4.5,1.2c1.3,0.7,1.8,2.3,1.1,3.6c0,0,0,0.1-0.1,0.1c-0.8,1.1-2.3,1.4-3.4,0.6
	c0,0-0.1-0.1-0.1-0.1c-0.7-0.5-1.4-0.7-2.2-0.7c-0.9,0-1.7,0.7-1.7,1.6c0,0,0,0.1,0,0.1c0,0.9,0.7,1.4,3,2.7
	C151.7,82,154.3,83.6,154.3,87.4z"/>
<path class="st0" d="M185.6,94c-1.4,0.7-3,0.2-3.8-1.1c-0.3-0.5-0.5-1.1-0.6-1.6c-1.3,2.1-3.6,3.3-6.1,3.2c-3.1,0-7.1-1.7-7.1-7.2
	c0-5.2,2.7-7,12.3-7.3v-0.8c0-1.7-0.7-2.6-2.9-2.6c-1.3,0-2.6,0.4-3.7,1.1c-1.2,0.8-2.9,0.4-3.6-0.9c-0.1-0.1-0.1-0.2-0.2-0.3
	c-0.5-1.4,0.1-2.9,1.4-3.6c2-1,4.2-1.6,6.4-1.6c5.9,0,8.2,2.2,8.2,7.8v8.1c0,1.4,0.2,2.7,0.7,4C187.1,92.2,186.6,93.4,185.6,94z
	 M180.4,86.4v-2c-5.3,0.2-6.6,0.8-6.6,2.7s1.3,2.3,2.6,2.3C178.2,89.3,179.8,88.1,180.4,86.4L180.4,86.4z"/>
<path class="st0" d="M212.6,82.6c0,6.4-2.5,11.9-9.3,11.9c-2.1-0.1-4.1-0.9-5.7-2.2l-0.1,0.2c-0.5,1-1.5,1.6-2.6,1.6
	c-1.6,0-2.9-1.3-2.9-2.9c0,0,0,0,0,0V66.6c0-1.7,1.4-3,3-3s3,1.4,3,3v7.1c1.5-1.5,3.6-2.4,5.7-2.4C210.2,71.3,212.6,76.3,212.6,82.6
	z M206.3,82.8c0-3.4-0.9-6.3-3.7-6.3c-1.9,0-3.6,1.2-4.4,2.9c-0.2,1.1-0.2,2.1-0.2,3.2v0.6c0,1.3,0.1,2.6,0.3,3.9
	c0.9,1.3,2.4,2.2,4,2.2C205.6,89.4,206.3,86.1,206.3,82.8L206.3,82.8z"/>
<path class="st0" d="M238.3,82.8c0,5.3-2.3,12-10.9,12s-10.9-6.7-10.9-12c0-5.1,2.3-11.7,10.9-11.7S238.3,77.6,238.3,82.8z
	 M232,82.7c0-4.8-1.9-6.5-4.6-6.5s-4.6,1.7-4.6,6.5s1.9,6.9,4.6,6.9S232,87.6,232,82.7z"/>
<path class="st0" d="M260.8,94.2c-1.7,0.4-3.4-0.5-4-2.2l-0.1-0.2c-1.7,1.6-3.9,2.5-6.2,2.5c-6.3,0-7.3-4.2-7.3-7.2V74.8
	c0-1.7,1.4-3.1,3.1-3.1c1.7,0,3.1,1.4,3.1,3.1c0,0,0,0,0,0v10.8c0,2.4,1,3.7,3.1,3.7c1.4,0,2.8-0.6,3.8-1.6V74.8
	c0-1.7,1.4-3.1,3.1-3.1c1.7,0,3.1,1.4,3.1,3.1v11.5c0,1.6,0.2,3.1,0.4,4.7C263.1,92.4,262.2,93.8,260.8,94.2z"/>
<path class="st0" d="M279.3,91.2c0,1.3-0.9,2.1-2.2,2.6l-1.4,0.2c-3.3,0-6.1-1.4-6.1-5.3V77.2h-1.1c-1.3,0.1-2.5-0.9-2.6-2.2
	c-0.1-1.3,0.9-2.5,2.2-2.6c0.1,0,0.2,0,0.3,0h1.1v-3.1c0-1.7,1.4-3,3-3s3,1.4,3,3v3.1h2c1.3-0.1,2.5,0.9,2.6,2.2
	c0.1,1.3-0.9,2.5-2.2,2.6c-0.1,0-0.2,0-0.3,0h-2v9c0,2,0.3,2.8,1.5,2.8h0.1c1.1-0.1,2.1,0.7,2.1,1.8C279.3,91,279.3,91.1,279.3,91.2
	z"/>
<path class="st0" d="M312.6,75.8l-6.5,15.8c-0.6,1.6-2.1,2.6-3.7,2.6c-1.6,0-3.1-1-3.6-2.6l-6.6-15.8c-0.6-1.6,0.2-3.4,1.8-4
	c0.3-0.1,0.7-0.2,1.1-0.2c1.4-0.1,2.7,0.8,3,2.2l4.5,12.7l4.2-12.7c0.3-1.3,1.6-2.3,2.9-2.2c1.7,0,3,1.4,3,3.1
	C312.7,75.1,312.7,75.4,312.6,75.8z"/>
<path class="st0" d="M316,66.7c-0.2-2.1,1.4-3.9,3.5-4c2.1-0.2,3.9,1.4,4,3.5c0.2,2.1-1.4,3.9-3.5,4c-0.1,0-0.2,0-0.3,0
	C317.8,70.3,316.1,68.7,316,66.7C316,66.7,316,66.7,316,66.7z M322.9,74.8v16.3c0,1.7-1.4,3.1-3.1,3.1c-1.7,0-3.1-1.4-3.1-3.1V74.8
	c0-1.7,1.4-3.1,3.1-3.1C321.5,71.7,322.9,73.1,322.9,74.8z"/>
<path class="st0" d="M338.9,77.3c-1.8,0.4-3.2,1-3.9,2.4v11.4c0,1.7-1.4,3.1-3.1,3.1c-1.7,0-3.1-1.4-3.1-3.1V77.6
	c0-0.9-0.2-1.9-0.3-2.8c-0.2-1.4,0.6-2.7,1.9-3.1c1.6-0.7,3.5,0.1,4.1,1.8c0.1,0.1,0.1,0.3,0.1,0.4l0.1,0.5c0.6-1.1,1.7-2,2.9-2.4
	c1.4-0.6,2.9,0.1,3.5,1.5c0,0.1,0.1,0.2,0.1,0.3c0.4,1.5-0.4,3.1-1.9,3.5C339.2,77.3,339.1,77.3,338.9,77.3z"/>
<path class="st0" d="M355.3,91.2c0,1.3-0.9,2.1-2.3,2.6l-1.4,0.2c-3.3,0-6.1-1.4-6.1-5.3V77.2h-1.1c-1.3-0.1-2.3-1.2-2.2-2.6
	c0.1-1.2,1-2.2,2.2-2.2h1.1v-3.1c0-1.7,1.4-3,3-3s3,1.4,3,3v3.1h2c1.3-0.1,2.5,0.9,2.6,2.2c0.1,1.3-0.9,2.5-2.2,2.6
	c-0.1,0-0.2,0-0.3,0h-2v9c0,2,0.3,2.8,1.4,2.8h0.1c1.1-0.1,2.1,0.7,2.1,1.8C355.3,91,355.3,91.1,355.3,91.2z"/>
<path class="st0" d="M377.2,94.2c-1.7,0.4-3.4-0.5-4-2.2l-0.1-0.2c-1.7,1.6-3.9,2.5-6.2,2.5c-6.3,0-7.3-4.2-7.3-7.2V74.8
	c0-1.7,1.4-3.1,3.1-3.1s3.1,1.4,3.1,3.1v10.8c0,2.4,1,3.7,3.1,3.7c1.4,0,2.8-0.6,3.8-1.6V74.8c0-1.7,1.4-3.1,3.1-3.1
	c1.7,0,3.1,1.4,3.1,3.1v11.5c0,1.6,0.2,3.1,0.4,4.7C379.5,92.4,378.6,93.8,377.2,94.2z"/>
<path class="st0" d="M401.1,94c-1.4,0.7-3,0.2-3.8-1.1c-0.3-0.5-0.5-1.1-0.6-1.6c-1.3,2.1-3.6,3.3-6.1,3.2c-3.1,0-7.1-1.7-7.1-7.2
	c0-5.2,2.7-7,12.3-7.3v-0.8c0-1.7-0.7-2.6-2.9-2.6c-1.3,0-2.6,0.4-3.7,1.1c-1.3,0.7-2.9,0.3-3.6-0.9c-0.1-0.1-0.1-0.2-0.1-0.3
	c-0.5-1.4,0.1-2.9,1.4-3.5c2-1,4.2-1.6,6.4-1.6c5.9,0,8.2,2.2,8.2,7.8v8.1c0,1.4,0.2,2.7,0.7,4C402.6,92.2,402.1,93.4,401.1,94z
	 M395.9,86.4v-2c-5.3,0.2-6.5,0.8-6.5,2.7s1.3,2.3,2.6,2.3C393.8,89.3,395.4,88.1,395.9,86.4L395.9,86.4z"/>
<path class="st0" d="M413.8,66.7v24.4c0.1,1.7-1.2,3.2-2.9,3.3s-3.2-1.2-3.3-2.9c0-0.1,0-0.2,0-0.4V66.7c-0.1-1.7,1.2-3.2,2.9-3.3
	s3.2,1.2,3.3,2.9C413.8,66.5,413.8,66.6,413.8,66.7z"/>
<path class="st0" d="M443.9,87.4c0,5.6-4.3,7.1-7.7,7.1c-2.3,0.1-4.6-0.5-6.5-1.8c-1-0.8-1.3-2.2-0.7-3.3c0.7-1.2,2.2-1.7,3.5-1
	c0,0,0,0,0,0c1.1,0.7,2.3,1.1,3.6,1.1c0.9,0.1,1.7-0.6,1.8-1.5c0-0.1,0-0.1,0-0.2c0-1.2-1.4-2-3.8-3.3c-2.9-1.5-4.7-3-4.7-6.4
	c0-5.3,4.5-6.7,8-6.7c1.6,0,3.1,0.4,4.5,1.2c1.3,0.7,1.8,2.3,1.2,3.6c0,0.1-0.1,0.1-0.1,0.1c-0.8,1.1-2.3,1.4-3.4,0.6
	c0,0-0.1-0.1-0.1-0.1c-0.7-0.5-1.4-0.7-2.2-0.7c-0.9,0-1.7,0.7-1.7,1.6c0,0,0,0.1,0,0.1c0,0.9,0.7,1.4,3,2.7
	C441.3,82,443.9,83.6,443.9,87.4z"/>
<path class="st0" d="M448,66.7c-0.2-2.1,1.4-3.9,3.5-4c2.1-0.2,3.9,1.4,4,3.5c0.2,2.1-1.4,3.9-3.5,4c-0.1,0-0.2,0-0.3,0
	C449.8,70.3,448.1,68.7,448,66.7C448,66.7,448,66.7,448,66.7z M454.9,74.8v16.3c0.1,1.7-1.2,3.2-2.9,3.3s-3.2-1.2-3.3-2.9
	c0-0.1,0-0.2,0-0.4V74.8c-0.1-1.7,1.2-3.2,2.9-3.3s3.2,1.2,3.3,2.9C454.9,74.6,454.9,74.7,454.9,74.8z"/>
<path class="st0" d="M480.1,78.6v12.5c0,1.7-1.4,3.1-3.1,3.1s-3.1-1.4-3.1-3.1V80.2c0-2.4-1-3.6-3.1-3.6c-1.5,0-2.8,0.6-3.8,1.6
	v12.9c0,1.7-1.4,3.1-3.1,3.1c-1.7,0-3.1-1.4-3.1-3.1V77.6c0-1-0.3-1.7-0.3-2.6c-0.2-1.4,0.6-2.7,1.9-3.2c1.6-0.7,3.5,0.1,4.1,1.8
	c0,0.1,0.1,0.3,0.1,0.4c0,0,0.1,0.1,0.1,0.2c1.7-1.6,3.9-2.5,6.1-2.5C479.1,71.5,480.1,75.6,480.1,78.6z"/>
<path class="st0" d="M505.9,74.3c-0.1,0.7-0.1,1.5-0.1,2.1v16.8c0,8.2-6.4,9.7-10.5,9.7c-2.9,0-6.1-0.4-8-1.7
	c-1.4-0.9-1.8-2.6-0.9-4c0-0.1,0.1-0.1,0.1-0.2c0.9-1.2,2.4-1.5,3.7-0.9c1.6,0.7,3.3,1.1,5,1.1c3,0,4.6-1.7,4.6-4.8v-0.7
	c-1.4,1.8-3.6,2.9-5.9,2.8c-6.4,0-8.7-5-8.7-11.3s2.5-11.8,9.3-11.8c2.2-0.1,4.3,0.8,5.9,2.3c0-0.1,0.1-0.1,0.1-0.2
	c0.3-1.2,1.5-2.1,2.7-2C505.1,71.4,506,72.7,505.9,74.3z M499.6,86.4c0.2-1.1,0.2-2.1,0.3-3.2v-0.6c0-1.3-0.1-2.6-0.3-3.9
	c-0.9-1.4-2.4-2.2-4-2.2c-3.4,0-4.1,3.3-4.1,6.6s0.9,6.2,3.7,6.2C497,89.3,498.8,88.2,499.6,86.4z"/>
<path class="st0" d="M516.8,84.6v0.1c0,1.2,0.7,4.7,5.6,4.7c1.3-0.1,2.6-0.4,3.8-1c1.3-0.5,2.8,0.3,3.3,1.6c0.4,1.3-0.2,2.7-1.4,3.2
	c-1.8,0.9-3.9,1.4-5.9,1.4c-9.2,0-11.5-5.9-11.5-11.4c0-6.6,3.5-12,10.8-12c6.6,0,8.4,4.9,8.4,9.8v0.7c0.1,1.5-1,2.7-2.4,2.9
	c-0.1,0-0.3,0-0.4,0L516.8,84.6z M517,80.3h7.4c0-2.3-0.6-4.3-3.5-4.3C518.3,76,517,78.6,517,80.3L517,80.3z"/>
<path class="st0" d="M545,77.3c-1.8,0.4-3.2,1-3.9,2.4v11.4c0,1.7-1.4,3.1-3.1,3.1c-1.7,0-3.1-1.4-3.1-3.1V77.6
	c-0.1-0.9-0.2-1.9-0.3-2.8c-0.2-1.3,0.6-2.7,1.9-3.1c1.6-0.7,3.5,0.1,4.1,1.8c0,0.1,0.1,0.3,0.1,0.4l0.2,0.5c0.6-1.1,1.7-2,2.9-2.4
	c1.4-0.6,3,0.1,3.5,1.5c0,0.1,0.1,0.2,0.1,0.3c0.4,1.5-0.4,3.1-2,3.5C545.3,77.3,545.1,77.3,545,77.3z"/>
<path class="st0" d="M564.5,87.4c0,5.6-4.2,7.1-7.7,7.1c-2.3,0.1-4.6-0.5-6.5-1.8c-1-0.8-1.3-2.2-0.7-3.3c0.7-1.2,2.2-1.7,3.5-1
	c0,0,0,0,0,0c1.1,0.7,2.3,1.1,3.6,1.1c0.9,0.1,1.7-0.6,1.8-1.5c0-0.1,0-0.1,0-0.2c0-1.2-1.4-2-3.8-3.3c-2.9-1.5-4.7-3-4.7-6.4
	c0-5.3,4.5-6.7,8-6.7c1.6,0,3.1,0.4,4.5,1.2c1.3,0.7,1.8,2.2,1.2,3.5c0,0.1-0.1,0.1-0.1,0.2c-0.8,1.1-2.3,1.4-3.4,0.6
	c0,0-0.1-0.1-0.1-0.1c-0.7-0.5-1.4-0.7-2.2-0.7c-0.9,0-1.7,0.7-1.7,1.6c0,0,0,0.1,0,0.1c0,0.9,0.7,1.4,3,2.7
	C561.9,82,564.5,83.6,564.5,87.4z"/>
<path class="st0" d="M142.5,125.7v24.4c0,1.7-1.4,3.1-3.1,3.1s-3.1-1.4-3.1-3.1v-24.4c0-1.7,1.4-3.1,3.1-3.1S142.5,124,142.5,125.7
	L142.5,125.7z"/>
<path class="st0" d="M147.7,125.7c-0.2-2.1,1.4-3.9,3.5-4s3.9,1.4,4,3.5c0.2,2.1-1.4,3.9-3.5,4c-0.1,0-0.2,0-0.3,0
	C149.5,129.3,147.8,127.7,147.7,125.7C147.7,125.7,147.7,125.7,147.7,125.7z M154.6,133.8v16.3c0.1,1.7-1.2,3.2-2.9,3.3
	s-3.2-1.2-3.3-2.9c0-0.1,0-0.2,0-0.4v-16.3c-0.1-1.7,1.2-3.2,2.9-3.3s3.2,1.2,3.3,2.9C154.6,133.6,154.6,133.7,154.6,133.8
	L154.6,133.8z"/>
<path class="st0" d="M176.8,153.3c-1-0.1-1.9-0.6-2.6-1.4l-7.7-8.3v6.5c0.1,1.7-1.2,3.2-2.9,3.3s-3.2-1.2-3.3-2.9c0-0.1,0-0.2,0-0.4
	v-24.4c-0.1-1.7,1.2-3.2,2.9-3.3c1.7-0.1,3.2,1.2,3.3,2.9c0,0.1,0,0.2,0,0.4v15.2l6.9-9c0.6-0.8,1.5-1.3,2.4-1.4
	c1.6,0,2.9,1.2,2.9,2.8c0,0.6-0.2,1.2-0.6,1.8l-5.5,6.7l6.6,6.8C180.8,150.3,179.2,153.3,176.8,153.3z"/>
<path class="st0" d="M188.9,143.6v0.1c0,1.2,0.7,4.7,5.6,4.7c1.3-0.1,2.6-0.4,3.8-1c1.3-0.5,2.8,0.3,3.3,1.6
	c0.4,1.3-0.2,2.7-1.4,3.2c-1.8,0.9-3.9,1.4-5.9,1.4c-9.2,0-11.5-5.9-11.5-11.4c0-6.6,3.5-12,10.8-12c6.6,0,8.4,4.9,8.4,9.8v0.7
	c0.1,1.5-1,2.7-2.4,2.9c-0.2,0-0.3,0-0.5,0L188.9,143.6z M189,139.3h7.4c0-2.3-0.6-4.3-3.5-4.3C190.3,135,189,137.6,189,139.3z"/>
<path class="st0" d="M242,127.2V150c0,1.8-1.4,3.2-3.2,3.2c-1.8,0-3.2-1.4-3.2-3.2v-8.9h-11.4v8.9c0,1.8-1.4,3.2-3.2,3.2
	c-1.8,0-3.2-1.4-3.2-3.2v-22.8c0-1.8,1.4-3.2,3.2-3.2c1.8,0,3.2,1.4,3.2,3.2v8.4h11.4v-8.4c0-1.8,1.4-3.2,3.2-3.2
	C240.6,124,242,125.5,242,127.2z"/>
<path class="st0" d="M264.8,153c-1.4,0.7-3,0.2-3.8-1.1c-0.3-0.5-0.5-1.1-0.6-1.6c-1.3,2.1-3.6,3.3-6.1,3.2c-3.1,0-7.1-1.7-7.1-7.2
	c0-5.2,2.7-7,12.3-7.3V138c0-1.7-0.7-2.6-2.9-2.6c-1.3,0-2.6,0.4-3.7,1.1c-1.3,0.7-2.9,0.3-3.6-0.9c-0.1-0.1-0.1-0.2-0.1-0.3
	c-0.5-1.4,0.1-2.9,1.4-3.6c2-1,4.2-1.6,6.4-1.6c5.9,0,8.3,2.2,8.3,7.8v8.1c0,1.4,0.2,2.7,0.7,4C266.3,151.2,265.8,152.4,264.8,153z
	 M259.6,145.4v-2c-5.3,0.2-6.6,0.8-6.6,2.7s1.3,2.3,2.6,2.3C257.5,148.3,259.1,147.1,259.6,145.4L259.6,145.4z"/>
<path class="st0" d="M282,150.2c0,1.3-0.9,2.1-2.3,2.6l-1.4,0.2c-3.3,0-6.1-1.4-6.1-5.3v-11.5h-1.1c-1.3,0.1-2.5-0.9-2.6-2.2
	s0.9-2.5,2.2-2.6c0.1,0,0.2,0,0.3,0h1.1v-3.1c0-1.7,1.4-3,3-3s3,1.4,3,3v3.1h2c1.3-0.1,2.5,0.9,2.6,2.2s-0.9,2.5-2.2,2.6
	c-0.1,0-0.2,0-0.3,0h-2v9c0,2,0.3,2.8,1.4,2.9h0.1c1.1-0.1,2.1,0.7,2.1,1.8C282,150,282,150.1,282,150.2z"/>
<path class="st0" d="M300.2,146.4c0,5.6-4.3,7.1-7.7,7.1c-2.3,0.1-4.6-0.5-6.5-1.8c-1-0.8-1.3-2.2-0.7-3.3c0.7-1.2,2.2-1.7,3.5-1
	c0,0,0,0,0.1,0c1.1,0.7,2.3,1.1,3.6,1.1c0.9,0.1,1.7-0.6,1.8-1.5c0-0.1,0-0.1,0-0.2c0-1.2-1.4-2-3.8-3.3c-2.9-1.5-4.7-3-4.7-6.4
	c0-5.3,4.5-6.7,8-6.7c1.6,0,3.1,0.4,4.5,1.2c1.3,0.7,1.8,2.2,1.2,3.5c0,0.1-0.1,0.1-0.1,0.2c-0.8,1.1-2.3,1.4-3.4,0.6
	c0,0-0.1-0.1-0.1-0.1c-0.7-0.5-1.4-0.7-2.2-0.7c-0.9,0-1.7,0.7-1.7,1.6c0,0,0,0.1,0,0.1c0,0.9,0.7,1.4,3,2.7
	C297.6,141,300.2,142.6,300.2,146.4z"/>
<path class="st0" d="M322.5,153.2c-1.7,0.4-3.4-0.5-4-2.2l-0.1-0.2c-1.7,1.6-3.9,2.5-6.2,2.5c-6.3,0-7.3-4.2-7.3-7.2v-12.4
	c0-1.7,1.4-3.1,3.1-3.1s3.1,1.4,3.1,3.1v10.8c0,2.4,1,3.7,3.1,3.7c1.4,0,2.8-0.6,3.8-1.6v-12.8c0-1.7,1.4-3.1,3.1-3.1
	c1.7,0,3.1,1.4,3.1,3.1v11.5c0,1.6,0.2,3.1,0.5,4.7C324.9,151.4,323.9,152.9,322.5,153.2z"/>
<path class="st0" d="M349.6,137.6v12.5c-0.1,1.7-1.6,3-3.3,2.9c-1.6-0.1-2.8-1.3-2.9-2.9v-10.9c0-2.4-1-3.6-3.1-3.6
	c-1.5,0-2.8,0.6-3.9,1.6v12.9c0.1,1.7-1.2,3.2-2.9,3.3c-1.7,0.1-3.2-1.2-3.3-2.9c0-0.1,0-0.2,0-0.4v-13.5c0-1-0.3-1.7-0.3-2.6
	c-0.2-1.4,0.6-2.7,1.9-3.2c1.6-0.7,3.5,0.1,4.1,1.8c0.1,0.1,0.1,0.3,0.1,0.4c0,0,0.1,0.1,0.1,0.1c1.7-1.6,3.9-2.5,6.1-2.5
	C348.6,130.5,349.6,134.6,349.6,137.6z"/>
<path class="st0" d="M360.7,143.6v0.1c0,1.2,0.7,4.7,5.6,4.7c1.3-0.1,2.6-0.4,3.8-1c1.3-0.5,2.8,0.3,3.3,1.6
	c0.4,1.3-0.2,2.7-1.4,3.2c-1.8,0.9-3.9,1.4-5.9,1.4c-9.2,0-11.5-5.9-11.5-11.4c0-6.6,3.5-12,10.8-12c6.6,0,8.4,4.9,8.4,9.8v0.7
	c0.1,1.5-1,2.7-2.4,2.9c-0.1,0-0.3,0-0.4,0L360.7,143.6z M360.8,139.3h7.4c0-2.3-0.6-4.3-3.5-4.3C362.1,135,360.9,137.6,360.8,139.3
	z"/>
<path class="st0" d="M417.6,153.2c-1.7,0-3.1-1.4-3.2-3.1l-0.9-17.6l-5.6,16.8c-0.6,1.9-2.5,3-4.4,2.4c-1.2-0.3-2.1-1.2-2.4-2.4
	l-5.6-16.8l-0.8,17.8c-0.1,1.7-1.5,2.9-3.1,2.9c-1.7-0.1-2.9-1.5-2.9-3.1l1.9-21.7c0.3-3,2.2-4.4,4.2-4.4c2-0.2,3.8,1.1,4.4,3
	l5.5,16.5l5.6-16.5c0.6-1.8,2.3-3,4.1-3c2.8,0,4.2,1.9,4.5,4.4l1.7,21.5C420.8,151.6,419.4,153.1,417.6,153.2
	C417.6,153.2,417.6,153.2,417.6,153.2z"/>
<path class="st0" d="M425.8,125.7c0.1-2,1.8-3.5,3.8-3.4c0,0,0,0,0,0c1.9-0.1,3.6,1.3,3.7,3.2c0.1,1.9-1.3,3.6-3.2,3.7
	c-0.2,0-0.4,0-0.5,0C427.5,129.2,425.9,127.7,425.8,125.7z M432.6,133.8v16.3c0.1,1.7-1.2,3.2-2.9,3.3c-1.7,0.1-3.2-1.2-3.3-2.9
	c0-0.1,0-0.2,0-0.4v-16.3c-0.1-1.7,1.2-3.2,2.9-3.3c1.7-0.1,3.2,1.2,3.3,2.9C432.6,133.6,432.6,133.7,432.6,133.8L432.6,133.8z"/>
<path class="st0" d="M454.8,153.3c-1-0.1-1.9-0.6-2.5-1.4l-7.7-8.3v6.5c0.1,1.7-1.2,3.2-2.9,3.3c-1.7,0.1-3.2-1.2-3.3-2.9
	c0-0.1,0-0.2,0-0.4v-24.4c-0.1-1.7,1.2-3.2,2.9-3.3s3.2,1.2,3.3,2.9c0,0.1,0,0.2,0,0.4v15.2l6.9-9c0.6-0.8,1.5-1.3,2.4-1.4
	c1.6,0,2.9,1.2,2.9,2.8c0,0.6-0.2,1.2-0.6,1.8l-5.5,6.7l6.6,6.8C458.8,150.3,457.3,153.3,454.8,153.3z"/>
<path class="st0" d="M479.3,153.2c-1.7,0.4-3.4-0.5-4-2.2l-0.1-0.2c-1.7,1.6-3.9,2.5-6.2,2.5c-6.3,0-7.3-4.2-7.3-7.2v-12.4
	c0-1.7,1.4-3.1,3.1-3.1s3.1,1.4,3.1,3.1v10.8c0,2.4,1,3.7,3.1,3.7c1.4,0,2.8-0.6,3.8-1.6v-12.8c-0.1-1.7,1.2-3.2,2.9-3.3
	c1.7-0.1,3.2,1.2,3.3,2.9c0,0.1,0,0.2,0,0.4v11.5c0,1.6,0.2,3.1,0.5,4.7C481.7,151.4,480.8,152.9,479.3,153.2z"/>
<path class="st0" d="M493.4,149.7c0,1.9-1.6,3.5-3.5,3.5c-1.9,0-3.5-1.6-3.5-3.5c0-1.9,1.6-3.5,3.5-3.5c0,0,0,0,0,0
	C491.9,146.2,493.4,147.8,493.4,149.7z"/>
</svg>