<svg version="1.1" xmlns="http://www.w3.org/2000/svg" viewBox="0 0 500 109.8" width="500" height="110">
<path d="M59.1,12.6c-2.5,2.8-5.3,5.4-8.3,7.6v18.7c0.1,2-1.4,3.7-3.4,3.8c-0.1,0-0.1,0-0.2,0c-1.9,0-3.5-1.6-3.5-3.5
	c0-0.1,0-0.2,0-0.3V25c-3,1.8-6.3,3.3-9.6,4.6c-2.2,0.8-4.1,0-4.8-1.8c-0.7-1.8,0.2-3.8,1.9-4.5c0.1,0,0.2-0.1,0.4-0.1
	c8.7-3.1,16.4-8.3,22.6-15.2c1.3-1.3,3.2-1.9,4.7-0.6C60.4,8.8,60.5,11.1,59.1,12.6z"/>
<path d="M105.2,37.4c-1.6,1.8-3.8,1.5-5.7-0.1c-5.1-4.5-9.9-9.4-14.3-14.6c-0.7-0.8-1.2-1.5-1.9-1.5s-1.3,0.7-2,1.6l-7.1,8.4
	c-1.6,1.8-3.8,2.1-5.3,0.7s-1.6-3.8,0.1-5.7c3.4-3.8,8-8.6,10.6-11.3c1.7-2.2,4.8-2.6,7-0.9c0.4,0.3,0.7,0.6,1,1
	c5,5.9,10.5,11.4,16.5,16.2C106.3,33.1,106.7,35.6,105.2,37.4z M91.6,15.7c-0.8-0.7-1-1.9-0.3-2.7c0-0.1,0.1-0.1,0.1-0.2
	c0.7-0.7,1.7-0.8,2.5-0.2c1.2,0.7,2.2,1.8,2.9,3c0.6,1,0.3,2.2-0.6,2.9c-0.9,0.6-2.2,0.4-2.8-0.5c0,0-0.1-0.1-0.1-0.1
	C92.9,17.1,92.3,16.4,91.6,15.7z M97.2,13.5c-0.8-0.7-0.9-2-0.2-2.8c0,0,0-0.1,0.1-0.1c0.8-0.6,1.8-0.6,2.6,0
	c1.2,0.7,2.1,1.6,2.7,2.8c0.6,1,0.4,2.2-0.5,2.9c-0.9,0.6-2.2,0.3-2.8-0.6c0,0,0-0.1-0.1-0.1C98.5,14.8,97.9,14.1,97.2,13.5z"/>
<path d="M115.1,11.7c1.1-1.9,3-2.3,5.4-1.3c2.1,0.8,4,2,5.8,3.4c2,1.8,2.5,4.3,1.1,6.1s-3.5,2.1-5.8,0.2c-1.6-1.3-3.2-2.4-4.9-3.4
	C114.8,15.7,114.1,13.5,115.1,11.7C115.1,11.7,115.1,11.7,115.1,11.7z M145.7,22.6c-4.6,7.5-14.1,15.5-24.9,18.8
	c-2.2,0.7-4.3,0.1-5.1-2.1s0.5-4.1,2.8-4.9c10.3-3.2,16-7.8,21.6-15.8c1.4-1.9,3.3-2.5,4.9-1.3S146.9,20.7,145.7,22.6z"/>
<path d="M178.6,30.2c-1.1,1.8-3.3,2-5.3,0.6c-3.3-2.5-6.8-4.6-10.5-6.4v14.8c0.2,1.9-1.2,3.6-3.1,3.7c-1.9,0.2-3.6-1.2-3.7-3.1
	c0-0.2,0-0.4,0-0.6V9.6c-0.1-1.9,1.3-3.6,3.2-3.7c0.1,0,0.1,0,0.2,0c1.9,0,3.5,1.7,3.4,3.6c0,0,0,0.1,0,0.1v7.7
	c5,1.8,9.8,4.2,14.1,7.3C179.3,26.2,179.8,28.4,178.6,30.2z"/>
<path d="M197.9,11c-1.2,4.9-1.8,9.9-1.8,14.9c-0.1,3.7,0.4,7.3,1.4,10.9c0.7,2.5-0.3,4.2-2,4.8c-2,0.7-3.7-0.6-4.4-2.8
	c-0.9-2.5-1.5-7.7-1.5-12.7c0-5.4,0.5-10.9,1.6-16.2c0.5-2.2,2.1-3.6,4.2-3.1C197.4,7,198.6,8.6,197.9,11z M218.9,39.6
	c-1.9,0.3-3.9,0.4-5.8,0.5c-8.1,0-12.7-2-12.7-6.6c0-1.5,0.3-3,0.9-4.3c0.9-2.1,2.5-2.9,4.1-2.4c1.5,0.4,2.4,2,1.9,3.5
	c0,0.1-0.1,0.2-0.1,0.4l-0.3,1.2c-0.2,1.7,1.7,2.4,6.4,2.4c1.7,0,3.3-0.2,5-0.5c2.2-0.4,3.8,0.1,4.2,2.2S221.3,39.2,218.9,39.6
	L218.9,39.6z M200.7,15.5c-0.2-1.7,1-3,2.9-3.3c3.3-0.4,6.7-0.7,10-0.6c1.7,0,3.3,0.1,5,0.3c2,0.3,3.1,1.4,3,3.1s-1.4,3-3.6,2.9
	c-1.7-0.1-3.8-0.1-5.4-0.1c-3.1,0-5.3,0.2-8.5,0.5c-1.6,0.3-3.1-0.7-3.4-2.3C200.7,15.7,200.7,15.6,200.7,15.5z"/>
<path d="M262.7,22.1h-6.9c2,1.5,4.2,2.6,6.6,3.4c1.4,0.5,2.2,2,1.7,3.4c-0.5,1.4-2,2.2-3.4,1.7c-4.9-1.6-9.3-4.4-12.1-8.4h-5.9
	c-1.7,2.1-3.6,3.9-5.8,5.4c3-1,5.8-2.5,8.3-4.5c1.1-0.8,2.6-0.7,3.5,0.4c0.8,1.1,0.7,2.6-0.4,3.5l0,0c-2.9,2.1-6.1,3.7-9.5,4.7
	l-0.7,0.2c-1.2,0.4-2.4-0.2-2.8-1.4c0,0,0-0.1,0-0.1c-0.2-0.7-0.1-1.4,0.4-2c-1.4,0.9-2.8,1.6-4.3,2.2c-1.3,0.7-2.9,0.1-3.6-1.2
	c-0.7-1.3-0.1-2.9,1.2-3.6c0.1,0,0.2-0.1,0.3-0.1c2.2-0.9,4.2-2.1,6.1-3.5H229c-1.4,0.1-2.6-1-2.7-2.4c-0.1-1.4,1-2.6,2.4-2.7
	c0.1,0,0.2,0,0.3,0h10.6l0.7-1.3l-8.1,0.4c-1.4,0-2.6-1.1-2.6-2.6c-0.1-1.4,1-2.6,2.4-2.7c0,0,0.1,0,0.1,0h3.3
	c0.9-1.5,1.8-3.1,2.5-4.4c0.8-1.4,2.5-2,4-1.3c1.4,0.8,2,2.5,1.2,4c-0.1,0.1-0.1,0.2-0.2,0.4L242,11l9.3-0.2l-0.3-0.3
	c-1.1-0.9-1.3-2.6-0.3-3.8c0.9-1.1,2.6-1.3,3.8-0.3l0,0c2,1.5,3.9,3.2,5.6,5c1.1,1.2,1,3.1-0.2,4.2c-0.1,0.1-0.2,0.2-0.4,0.3
	c-1.3,0.9-3.1,0.6-4-0.6l-0.2-0.2l-8.6,0.4l-0.7,1.6h16.8c1.4-0.1,2.6,1,2.7,2.4c0.1,1.4-1,2.6-2.4,2.7
	C262.9,22.1,262.8,22.1,262.7,22.1z M257.3,32.5c0.9,1.2,0.7,2.9-0.4,3.9c-0.1,0-0.1,0.1-0.2,0.1c-5.6,3.7-12.9,6-20.5,7l-0.8,0.1
	c-1.4,0.2-2.7-0.8-2.9-2.2c0,0,0-0.1,0-0.1c-0.1-1.4,0.8-2.6,2.2-2.8c7.3-0.8,13.8-2.8,18.8-6.6C254.8,31.1,256.4,31.3,257.3,32.5z
	 M234.3,35.8c-0.2-1.2,0.6-2.4,1.8-2.7c4.7-0.8,9.2-2.7,13.1-5.5c1.1-0.8,2.7-0.6,3.5,0.5s0.6,2.7-0.5,3.5
	c-4.4,2.9-9.3,4.9-14.4,5.9l-0.7,0.2C235.8,37.8,234.6,37.1,234.3,35.8C234.3,35.8,234.3,35.8,234.3,35.8L234.3,35.8z"/>
<path d="M289.6,16.1c-0.5,25.4-1.6,26.5-7.1,26.5h-1.4c-1.6,0-2.9-1.3-2.9-2.9c0,0,0-0.1,0-0.1c0.1-1.5,1.3-2.8,2.9-2.8h0.2
	c1.3,0,1.8-0.3,2.2-18.8h-3c-0.5,8.5-1.8,16.7-4.8,22.6c-0.8,1.6-2.7,2.2-4.3,1.4c-0.1-0.1-0.3-0.1-0.4-0.2
	c-1.3-0.9-1.7-2.7-0.9-4.1c2.9-5.1,4-12.1,4.5-19.6H272c-1.6,0-2.8-1.3-2.9-2.9c0-1.6,1.3-2.8,2.9-2.8h3c0-1.6,0.1-3.2,0.1-4.8
	c0-1.6,1.3-2.9,2.9-2.9c0,0,0,0,0,0c1.6,0,2.9,1.4,2.9,3l-0.1,4.7h5.1c2,0,3.7,1.6,3.7,3.7C289.6,16.1,289.6,16.1,289.6,16.1z
	 M306.9,11.8v28.8c0,1.4-1.4,2.5-3.1,2.5s-3.1-1.1-3.1-2.5v-0.2h-3.9v0.5c0,1.3-1.3,2.4-3,2.4c-1.5,0.2-2.8-0.9-3-2.4v-29
	c0-2,1.6-3.7,3.7-3.7h8.8C305.2,8.2,306.8,9.8,306.9,11.8z M300.7,13.9h-3.9v20.8h3.9V13.9z"/>
<path d="M347.2,13.4c0,1.7-1.2,2.9-3.2,2.9h-7.3c0,3.4,0,6.3,0,8.3c0.2,0.9,0.4,1.8,0.4,2.6c0,7.2-2.6,13.7-12.9,16
	c-2.1,0.5-3.8-0.3-4.2-2c-0.5-1.9,0.5-3.4,2.7-3.9c3.4-0.8,5.3-1.8,6.4-3.3c-0.8,0.2-1.7,0.3-2.5,0.3c-5,0-8-3.1-8-7.9
	s3.2-8.4,8.5-8.4c1,0,2.1,0.1,3.1,0.4c0-0.7,0-1.4,0-2.1h-14.4c-1.9,0-3.3-1.1-3.3-2.9s1.2-2.9,3.2-2.9h14.3c0-0.4,0-0.7,0-1
	c-0.1-2.2,1.1-3.8,3.3-3.9c1.9-0.1,3.6,1.4,3.7,3.3c0,0.2,0,0.3,0,0.5v1.1h7.2C345.8,10.5,347.2,11.5,347.2,13.4z M327.2,29.1
	c1.5,0.1,2.8-1.1,2.9-2.6c0-0.1,0-0.1,0-0.2v-0.7c-0.1-1.4-1.4-2.5-2.8-2.4c-0.1,0-0.1,0-0.2,0c-1.6,0.1-2.7,1.4-2.6,3
	C324.5,27.8,325.7,29,327.2,29.1z"/>
<path d="M383.8,30.6c0,6.9-4.6,11.5-14.5,11.5c-7,0-10.8-2.9-10.8-7.2c0-3.7,3.4-6.7,8.5-6.7c4.7,0,7.6,2.2,8.5,6.9
	c1.3-1.1,2-2.7,1.9-4.3c0-3.1-2.7-5.8-6.5-5.8c-1.2,0-2.4,0.2-3.5,0.5c-3.3,1-6.9,3.5-10.2,6.6c-1.1,1.3-3.1,1.4-4.4,0.3
	c-0.1-0.1-0.3-0.3-0.4-0.4c-1.1-1.5-0.8-3.6,0.6-4.7c0,0,0.1-0.1,0.1-0.1c5.4-4,10.4-8.3,15.2-13c-2.5,0.2-6.2,0.8-9.9,0.9
	c-2.2,0.1-3.8-1.1-3.9-3.1c-0.1-1.8,1.2-3.2,3.5-3.2c5.6-0.1,11.3-0.4,16.8-1.1c1.7-0.2,3.1-0.1,4,1.3c1,1.5,0.7,3.5-0.7,4.6
	l-7.8,6.5c1-0.1,2-0.2,2.9-0.2C380,19.8,383.8,25,383.8,30.6z M370.2,36.7c-0.3-2.3-1.3-3.5-3.1-3.5s-2.8,0.7-2.8,1.7
	c0,1.2,1.2,1.9,4.5,1.9C369.2,36.8,369.7,36.8,370.2,36.7L370.2,36.7z"/>
<path d="M426.8,24.3c0,7.5-3.2,14.3-13,17c-2.6,0.7-4.8-0.2-5.4-2.1c-0.7-2.3,0.6-4.1,3-4.8c6.4-1.8,8.6-4.6,8.6-10.1
	c0-4.8-2.6-8.7-8-9.5c-0.7,15-5.2,25.2-12.3,25.2c-5.4,0-8.7-6.4-8.7-12.8c-0.2-10.2,8-18.6,18.2-18.7c0.2,0,0.4,0,0.6,0
	C421.8,8.5,426.8,16.4,426.8,24.3z M405.6,15.3c-5.4,1.7-8.3,6.4-8.3,11.7c0,3.6,1.1,5.8,2.6,5.8C402,32.9,405.1,27.2,405.6,15.3
	L405.6,15.3z"/>
<path d="M458.4,24.7c0,6.7-1.1,11.3-2.6,13.9s-3.5,3.6-6.7,3.6c-1.4,0-2.8-0.2-4.2-0.7c-2-0.7-3-2.4-2.4-4.3c0.4-1.5,2-2.4,4.1-1.8
	l1.6,0.4c1,0.2,1.5,0.2,2-0.5c1.2-1.6,1.9-4.9,1.9-10.4c0-3.8-1-4.6-4-4.6c-0.3,0-0.6,0-1,0c-1.9,7.5-4.4,13.9-7.5,18.6
	c-0.9,1.7-3,2.3-4.6,1.3c-0.1-0.1-0.3-0.1-0.4-0.2c-1.5-1.2-1.6-3.1-0.3-5c2.8-4.3,5-9,6.3-14l-3.9,0.8c-1.9,0.4-3.6-0.3-4-2.2
	c-0.3-1.7,0.8-3.4,2.5-3.7c0.1,0,0.2,0,0.4,0c2.2-0.4,4.4-0.7,6.5-0.9c0.4-2,0.6-4,0.9-6.1c0-1.8,1.5-3.3,3.3-3.2c0.1,0,0.2,0,0.4,0
	c2,0.2,3.2,1.8,2.8,4.2c-0.2,1.6-0.5,3.1-0.9,4.7C455.4,14.7,458.4,17.9,458.4,24.7z M470,26.8c0.4,2.7-0.8,4.3-2.6,4.6
	s-3.5-0.8-3.9-3.3c-0.5-3.4-1.9-6.6-4.1-9.3c-1.1-1.3-1-3.3,0.3-4.4c0.1-0.1,0.1-0.1,0.2-0.2c1.5-0.9,3.5-0.6,4.6,0.8
	C467.5,18.3,469.4,22.4,470,26.8z M460.7,10c-0.8-0.6-1-1.8-0.4-2.6c0.1-0.1,0.1-0.1,0.2-0.2c0.7-0.6,1.8-0.7,2.5-0.2
	c1.2,0.7,2.1,1.8,2.8,3c0.5,0.9,0.3,2.1-0.6,2.8c-0.9,0.6-2.1,0.4-2.7-0.5c0,0,0-0.1-0.1-0.1C462,11.4,461.4,10.7,460.7,10z
	 M470.1,10c-0.9,0.6-2.2,0.3-2.8-0.6c0,0,0,0,0-0.1c-0.5-0.7-1.1-1.4-1.8-2.1c-0.8-0.7-0.9-1.9-0.3-2.7c0,0,0.1-0.1,0.1-0.1
	c0.7-0.6,1.7-0.7,2.5-0.1c1.2,0.7,2.1,1.6,2.7,2.8C471.1,8.1,470.9,9.3,470.1,10z"/>
<path d="M68.1,93.7c0,7.1-3.9,10.5-13,10.5c-9.6,0-13.5-3.8-13.5-11.7c0-1,0-2.2,0.1-3.5h-5c-1.6,0.3-3.2-0.8-3.5-2.4
	c-0.3-1.6,0.8-3.2,2.4-3.5c0.3-0.1,0.7-0.1,1,0H42l0.4-4h-5.1c-1.6,0.1-3-1.1-3.1-2.7c0-0.1,0-0.1,0-0.2c0-1.6,1.3-2.9,2.9-2.9
	c0.1,0,0.2,0,0.2,0H43l0.2-1.6c0.1-2,1.8-3.6,3.8-3.5c0,0,0.1,0,0.1,0c2,0.1,3.5,1.8,3.3,3.8c0,0.2-0.1,0.5-0.1,0.7l-0.1,0.7h7.9
	c1.6-0.1,3,1.1,3.1,2.7c0,0.1,0,0.1,0,0.2c0,1.7-1.4,3-3.1,2.9c0,0-0.1,0-0.1,0h-8.8l-0.5,4h8.3c2.2,0,3.3,1.1,3.3,2.9s-1.2,3-3.3,3
	h-8.9c-0.1,1.3-0.1,2.4-0.1,3.3c0,4.4,1.7,5.9,7.1,5.9c4.2,0,6.6-1,6.2-4.7L61.1,92c-0.4-2,0.3-3.6,2.1-4.2s3.6,0.4,4.4,2.6
	C67.9,91.5,68.1,92.6,68.1,93.7z"/>
<path d="M103.3,91.1c0,7.1-4.1,12-15.4,12.5c-2,0.1-3.5-1-3.6-2.8s1.1-3.2,3.3-3.3c7.6-0.4,9.6-2.5,9.6-6s-2-5.1-6.6-5.1
	c-2.4,0-6.2,1.1-10.4,2.2c-2.2,0.6-3.9-0.2-4.4-2s0.6-3.4,2.9-3.9c4.2-1.1,8.6-1.7,12.9-2C99,80.6,103.3,84.5,103.3,91.1z"/>
<path d="M140.6,103.6c-2.9,0.3-5.9,0.4-8.9,0.4c-11.4,0-17.2-3.1-17.2-9.8c0-4.4,3.7-8,8.3-10.8c-1.8-3.2-2.1-6.4-2.2-11.8
	c0-2.4,1.5-4,3.5-4s3.5,1.4,3.5,3.9c0,4,0,6.8,1,9c2.7-1.1,5.4-2.1,8.2-2.9c2.4-0.7,4.4-0.5,5.2,1.6c0.8,2.2-0.6,4-3.1,4.7
	c-9.2,2.2-17.7,6.2-17.7,10c0,2.4,2.5,3.9,10.6,3.9c2.8,0,5.6-0.2,8.2-0.4c2.2-0.2,3.9,0.4,4.1,2.6S142.7,103.3,140.6,103.6z"/>
<path d="M186.7,93.5h-10.5c3.1,2.2,6.5,3.9,10.1,5.1c1.6,0.5,2.5,2.1,2,3.7c0,0,0,0,0,0.1c-0.5,1.6-2.3,2.5-3.9,2
	c-0.1,0-0.1-0.1-0.2-0.1c-4.1-1.7-7.9-4-11.2-6.8v5.2c-0.1,1.8-1.6,3.1-3.4,3c-1.6-0.1-2.9-1.4-3-3v-5.1c-3.3,2.8-7,5.1-11,6.8
	c-1.5,0.7-3.3,0-3.9-1.6c0,0,0-0.1-0.1-0.1c-0.5-1.5,0.3-3.2,1.8-3.7c3.6-1.3,7-3.1,10-5.5h-10.2c-1.4,0-2.6-1.2-2.6-2.6
	c0-1.4,1.2-2.6,2.6-2.6c0,0,0,0,0,0h13.4v-2.1h-1.4c-1.8,0-3.2-1.4-3.2-3.2c0,0,0,0,0,0v-9.3c0-1.8,1.4-3.2,3.2-3.2c0,0,0,0,0,0h1
	l0.4-2c0.6-1.5,2.2-2.3,3.8-1.8c1.5,0.6,2.3,2.2,1.8,3.8l0,0h2.4c1.8,0,3.2,1.4,3.2,3.2c0,0,0,0,0,0V83c0,1.8-1.4,3.2-3.2,3.2
	c0,0,0,0,0,0h-1.7v2.1h13.8c1.4,0,2.6,1.1,2.6,2.5c0,0,0,0,0,0C189.2,92.3,188.1,93.5,186.7,93.5z M151.7,84.8
	c-0.7-1.4-0.2-3,1.2-3.7c0,0,0.1,0,0.1,0l4.9-2.4c1.2-0.6,2.6-0.2,3.3,0.9c0.7,1.2,0.3,2.7-0.9,3.4l-4.7,2.9c-1.3,0.8-3,0.4-3.8-1
	C151.7,84.8,151.7,84.8,151.7,84.8L151.7,84.8z M153.3,72.9c-0.9-1-0.9-2.5,0-3.6c1-1.1,2.7-1.1,3.8-0.2c0.9,0.8,1.7,1.7,2.5,2.6
	c1,1.2,0.9,2.9-0.2,4c-1.2,1-2.9,0.9-4-0.2c-0.1-0.1-0.2-0.2-0.2-0.3C154.6,74.5,154,73.7,153.3,72.9L153.3,72.9z M171.9,75h-4.4
	v1.5h4.4V75z M171.9,80.2h-4.4v1.5h4.4V80.2z M179.3,78.8c0.8-1.1,2.4-1.4,3.5-0.7c1.5,1,2.8,1.9,4,2.8c1.2,0.9,1.5,2.6,0.7,3.8
	s-2.6,1.5-3.8,0.7c-0.1-0.1-0.2-0.2-0.3-0.3c-1.1-0.9-2.2-1.9-3.5-2.9C178.7,81.5,178.5,79.9,179.3,78.8L179.3,78.8z M180.1,72.6
	c0.7-0.9,1.4-1.8,2-2.8c0.8-1.3,2.6-1.7,3.9-0.8c0,0,0,0,0,0c1.3,0.8,1.7,2.5,0.9,3.8c-0.1,0.1-0.1,0.2-0.2,0.3l-2.5,2.9
	c-1,1.1-2.7,1.1-3.8,0.1C179.4,75.2,179.3,73.7,180.1,72.6L180.1,72.6z"/>
<path d="M226.4,93.3c-3.1,8-8.9,10.9-15.1,10.9c-9,0-13.1-5.1-13.1-15.2c0-3.3,0-9.2,0.2-16.5c0-2.6,1.5-4.2,3.6-4.2
	s3.7,1.8,3.5,4.3c-0.5,7.2-0.7,13.1-0.7,16.3c0,6.6,1.9,8.9,6.7,8.9c4.2,0,6.8-2.2,8.7-7.1c0.8-2.2,2.7-3.5,4.8-2.7
	S227.4,90.8,226.4,93.3z"/>
<path d="M258.3,103.6c-1.4,1.6-3.6,1.6-5.7-0.3c-5-4.7-10.3-8.9-16.1-12.6c-1.4-0.7-2.3-2.2-2.3-3.8c0.1-1.4,0.8-2.7,1.9-3.6
	c5.5-4.2,10.6-8.9,15.2-14.1c1.5-1.7,3.6-2.4,5.3-0.9c1.6,1.3,1.8,3.6,0,5.7c-2.2,2.5-5.3,5.5-13.5,11.7c-0.3,0.2-0.5,0.6-0.5,1
	c0,0.4,0.2,0.7,0.5,0.8c5,3,11.3,7.2,14.1,10C259.2,99.4,259.9,101.8,258.3,103.6z"/>
<path d="M282,79.7c-1.5,5.5-3.7,10.9-6.6,15.8c-1.2,2-3.4,2.7-5.2,1.4s-1.8-3.2-0.7-5c2.5-3.8,4.4-7.9,5.7-12.2h-2.9
	c-1.7,0.1-3.1-1.2-3.1-2.9c0,0,0-0.1,0-0.1c0-1.7,1.4-3,3.1-2.9c0,0,0,0,0.1,0h4.3l0.4-2.7c0.2-2.2,1.7-3.6,3.8-3.3
	c1.8,0.1,3.1,1.7,3,3.5c0,0.2,0,0.3-0.1,0.5l-0.3,2h2.1c1.7-0.1,3.1,1.2,3.2,2.8c0,0,0,0.1,0,0.1c0,1.7-1.3,3-3,3
	c-0.1,0-0.1,0-0.2,0L282,79.7z M302.5,98.9c-0.9,1.3-2.7,1.7-4,0.8c-0.1-0.1-0.2-0.1-0.2-0.2l-1.9-1.5c-0.6,4.1-3.2,6.2-8.2,6.2
	c-5.5,0-9.2-3-9.2-7.2c0-3.6,2.9-7,8.9-7c0.8,0,1.7,0,2.5,0.1l-0.2-4.9v-1.5c0-2.2,1.3-3.6,3.2-3.6c1.7,0,3.1,1.3,3.1,3
	c0,0.2,0,0.3,0,0.5c0,0.6-0.1,2.1-0.1,2.6c0,2,0.1,3.7,0.1,5.3c1.7,0.6,3.2,1.5,4.7,2.6C303.1,95.4,303.4,97.4,302.5,98.9z
	 M290.5,95.7v-0.5c-0.9-0.2-1.8-0.3-2.7-0.3c-2.3,0-3.5,0.9-3.5,2.1s1.2,1.9,3,1.9C289.6,98.9,290.5,98,290.5,95.7z M303.3,81.1
	c-1.1,1.4-3.1,1.7-4.5,0.7c-1.8-1.3-3.8-2.3-5.8-3.2c-1.6-0.5-2.4-2.2-1.9-3.8c0-0.1,0-0.1,0.1-0.2c0.6-1.4,2-2.1,3.9-1.7
	c2.6,0.6,5.1,1.8,7.2,3.4C303.9,77.6,304.3,79.6,303.3,81.1z"/>
<path d="M342.5,92.6c0,6.9-4.6,11.5-14.5,11.5c-7.1,0-10.8-2.9-10.8-7.2c0-3.7,3.4-6.7,8.5-6.7c4.7,0,7.6,2.2,8.5,6.9
	c1.3-1.1,2-2.7,1.9-4.3c0-3.1-2.7-5.8-6.5-5.8c-1.2,0-2.4,0.2-3.5,0.5c-3.3,1-6.9,3.5-10.2,6.6c-1.1,1.3-3.1,1.4-4.4,0.3
	c-0.1-0.1-0.3-0.3-0.4-0.4c-1.1-1.5-0.8-3.6,0.6-4.7c0,0,0.1-0.1,0.1-0.1c5.4-4,10.4-8.4,15.2-13c-2.5,0.2-6.2,0.8-10,0.9
	c-2.2,0.1-3.8-1.1-3.9-3.1c-0.1-1.8,1.2-3.2,3.5-3.2c5.6-0.1,11.3-0.4,16.8-1.1c1.7-0.2,3.1-0.1,4,1.3c1,1.5,0.7,3.5-0.7,4.7
	l-7.8,6.5c1-0.1,2-0.2,2.9-0.2C338.7,81.8,342.5,87,342.5,92.6z M328.9,98.7c-0.3-2.3-1.3-3.6-3.1-3.6s-2.8,0.7-2.8,1.7
	c0,1.2,1.2,1.9,4.5,1.9C328,98.8,328.4,98.8,328.9,98.7z"/>
<path d="M375.3,86.7c0,6.7-1.1,11.3-2.6,13.9s-3.5,3.6-6.7,3.6c-1.4,0-2.8-0.2-4.2-0.7c-2-0.7-3-2.4-2.5-4.3c0.5-1.5,2-2.4,4.2-1.8
	l1.6,0.4c1,0.2,1.5,0.2,2-0.5c1.2-1.6,1.9-4.8,1.9-10.4c0-3.8-1-4.7-4-4.6c-0.3,0-0.6,0-1,0c-1.9,7.5-4.4,13.9-7.5,18.6
	c-0.9,1.7-3,2.2-4.6,1.3c-0.1-0.1-0.2-0.1-0.4-0.2c-1.5-1.2-1.6-3.1-0.3-5c2.8-4.3,5-9,6.3-14l-4,0.7c-1.9,0.4-3.6-0.3-4-2.2
	c-0.3-1.7,0.9-3.3,2.6-3.6c0.1,0,0.2,0,0.3,0c2.2-0.4,4.4-0.7,6.5-0.9c0.4-2,0.6-4,0.9-6.1c0-1.8,1.5-3.3,3.3-3.2c0.1,0,0.2,0,0.4,0
	c2,0.2,3.2,1.8,2.8,4.2c-0.2,1.6-0.5,3.1-0.9,4.7C372.3,76.7,375.3,79.9,375.3,86.7z M384.3,93.4c-1.9,0.4-3.5-0.8-3.9-3.3
	c-0.4-3.9-2.1-7.7-4.6-10.7c-1.2-1.3-1.1-3.2,0.2-4.4c0.1-0.1,0.1-0.1,0.2-0.2c1.4-1,3.3-0.6,4.6,0.7c3.1,2.9,5.4,8.4,6.1,13.2
	C387.3,91.5,386.1,93.1,384.3,93.4L384.3,93.4z"/>
<path d="M427,93.7c0,7.1-3.9,10.5-13,10.5c-9.6,0-13.5-3.8-13.5-11.7c0-1,0-2.2,0.1-3.5h-5c-1.6,0.3-3.2-0.8-3.5-2.4
	c-0.3-1.6,0.8-3.2,2.4-3.5c0.3-0.1,0.7-0.1,1,0h5.4l0.4-4h-5.1c-1.6,0.1-3-1.1-3.1-2.7c0-0.1,0-0.1,0-0.2c0-1.6,1.3-2.9,2.9-2.9
	c0.1,0,0.2,0,0.2,0h5.7l0.2-1.6c0.1-2,1.8-3.6,3.8-3.5c0,0,0.1,0,0.1,0c2,0.1,3.5,1.8,3.3,3.8c0,0.2-0.1,0.5-0.1,0.7l-0.1,0.7h7.9
	c1.6-0.1,3,1.1,3.1,2.7c0,0.1,0,0.1,0,0.2c0,1.7-1.4,3-3.1,2.9c0,0-0.1,0-0.1,0h-8.8l-0.5,4h8.3c2.2,0,3.3,1.1,3.3,2.9s-1.1,3-3.3,3
	h-8.9c-0.1,1.3-0.1,2.4-0.1,3.3c0,4.4,1.7,5.9,7.1,5.9c4.2,0,6.6-1,6.2-4.7l-0.3-1.4c-0.4-2,0.3-3.6,2.1-4.2s3.6,0.4,4.4,2.6
	C426.8,91.5,427,92.6,427,93.7z"/>
<path d="M454.9,78.3c0.1,3.1-1.4,5.9-4,7.5c-1.4,0.8-2.5,2.1-3,3.7c-0.2,1.5-1.5,2.6-3,2.5c-1.9,0-2.8-1.3-2.8-3.2
	c0.1-2.1,1.1-4,2.8-5.3c2.3-1.9,3.1-2.9,3.1-4.5c0.1-1.6-1-3-2.6-3.1c-0.1,0-0.2,0-0.2,0c-1.4,0-2.8,0.4-4,1c-1.4,0.7-3,0.2-3.8-1.1
	c0-0.1-0.1-0.1-0.1-0.2c-0.7-1.5-0.1-3.4,1.4-4.1c0,0,0,0,0,0c2.1-1.2,4.4-1.8,6.8-1.8C451.2,69.7,454.9,73,454.9,78.3z M448.8,98.4
	c0,2.1-1.7,3.9-3.9,3.9s-3.9-1.7-3.9-3.9c0-2.1,1.7-3.9,3.9-3.9c0,0,0,0,0,0C447.1,94.5,448.8,96.2,448.8,98.4L448.8,98.4z"/>
</svg>