<svg version="1.1" xmlns="http://www.w3.org/2000/svg" viewBox="0 0 110.5 108.5" width="111" height="109">
<style type="text/css">
	.st0{fill:#F01160;}
	.st1{fill:#FFF;}
</style>
<ellipse class="st0" cx="55.3" cy="54.2" rx="55.3" ry="54.2"/>
<path class="st1" d="M76.1,67.6c0.3-0.3,0.7-0.6,1-0.9c3-2.9,4.5-6.9,4.2-11c5.9-5,6.7-13.8,1.7-19.7
	c-0.5-0.6-1.1-1.2-1.7-1.7c0-0.3,0-0.7,0-1c0-3.8-1.5-7.4-4.2-10c-3-2.9-7.1-4.4-11.2-4.1c-5.3-6-14.5-6.6-20.6-1.2
	c-0.4,0.4-0.9,0.8-1.2,1.2c-4.2-0.3-8.3,1.2-11.2,4.1c-2.7,2.6-4.2,6.2-4.2,10c0,0.3,0,0.7,0,1C22.8,39.2,22,48,27,53.9
	c0.5,0.6,1.1,1.2,1.7,1.7c-0.3,4.1,1.2,8.2,4.2,11c0.3,0.3,0.7,0.6,1,0.9l-8.4,15.9c-0.5,0.9-0.4,2,0.1,2.8c0.6,0.9,1.5,1.4,2.5,1.3
	l8.9-0.2l6.5,6.3c0.8,0.7,1.9,1,2.9,0.7c1-0.3,1.8-1.1,2-2.1l3.9-16.9c1.8,0.4,3.7,0.4,5.6,0l3.9,16.9c0.2,1,1,1.8,2,2.1
	c1,0.3,2.1,0,2.9-0.7l6.5-6.3l8.9,0.2c1,0,2-0.5,2.5-1.3c0.5-0.9,0.6-1.9,0.1-2.8L76.1,67.6z M43.8,86l-3.7-3.5
	c-0.6-0.5-1.3-0.8-2.1-0.8l-5.2,0.1L39,70.3c1.7,0.5,3.4,0.7,5.1,0.5c0.8,0.9,1.7,1.7,2.7,2.4L43.8,86z M47.8,66.2l-1.1-1.6
	l-1.9,0.4c-2.8,0.6-5.8-0.3-7.8-2.3c-2-2-2.9-4.9-2.3-7.7l0.4-1.9L33.4,52c-3.9-2.5-5.1-7.6-2.6-11.5c0.7-1,1.5-1.9,2.6-2.6l1.6-1.1
	l-0.4-1.9c-0.1-0.6-0.2-1.1-0.2-1.7c0-2.2,0.9-4.4,2.5-6c2.1-2,5-2.9,7.8-2.3l1.9,0.4l1.1-1.6c2.7-4,8.1-5,12-2.3
	c0.9,0.6,1.7,1.4,2.3,2.3l1.1,1.6l1.9-0.4c2.8-0.6,5.8,0.3,7.8,2.3c1.6,1.6,2.5,3.7,2.5,6c0,0.6-0.1,1.2-0.2,1.7L75,36.8l1.6,1.1
	c3.9,2.5,5,7.6,2.6,11.5c-0.7,1-1.5,1.9-2.6,2.6L75,53.1l0.4,1.9c0.6,2.8-0.3,5.7-2.3,7.7c-2.1,2-5,2.9-7.8,2.3l-1.9-0.4l-1.1,1.6
	c-2.7,4-8.1,5-12,2.3C49.2,67.9,48.4,67.1,47.8,66.2L47.8,66.2z M72,81.7c-0.8,0-1.5,0.3-2.1,0.8L66.2,86l-2.9-12.9
	c1-0.7,1.9-1.5,2.7-2.4c1.7,0.1,3.5-0.1,5.1-0.5l6.1,11.6L72,81.7z"/>
<path class="st1" d="M69.8,41.2c0.9-1,0.8-2.5-0.2-3.3l-3.5-3.2c-1-0.9-2.5-0.8-3.3,0.2l-4.4,4.9l-4.4,4.9l0,0
	l-1.6,1.8l-1.8-1.6l0,0l-1.9-1.7L46.2,41c-1-0.9-2.5-0.8-3.3,0.2l-3.2,3.5c-0.9,1-0.8,2.5,0.2,3.3l4.9,4.4l6.5,5.8
	c1,0.9,2.5,0.8,3.4-0.2l7.6-8.4L69.8,41.2z"/>
</svg>