<svg version="1.1" xmlns="http://www.w3.org/2000/svg" viewBox="0 0 110 107.9" width="110" height="108">
<style type="text/css">
	.st0{fill:#F01160;}
	.st1{fill:#FFF;}
</style>
<ellipse class="st0" cx="55" cy="54" rx="55" ry="54"/>
<path class="st1" d="M88.4,59.6c0-0.2,0-0.4,0-0.6c0-13-14.9-23.6-33.2-23.6S22.1,45.9,22.1,59c0,0.3,0,0.7,0,1
	c0,0.7,0,1.4,0,2.2c-0.2,9.8,0,14.3,1.3,16.4c4.8,8.7,16.2,13.7,31.5,13.7c15.5,0,27.6-5.1,32.3-13.6C87.7,77.7,88.8,74.9,88.4,59.6
	z M55.2,40.6c15.3,0,27.7,8.2,27.7,18.4v0h0c0,0.2,0,0.4,0,0.6c-0.5,9.9-12.7,17.8-27.6,17.8c-14.8,0-26.9-7.7-27.6-17.4
	c0-0.4,0-0.7,0-1h0C27.6,48.8,40,40.6,55.2,40.6z M28.2,76l-0.1-0.2c-0.3-1.2-0.5-2.5-0.5-3.8c2.9,3,6.4,5.4,10.2,7L37.8,84
	C33.3,82.1,30,79.4,28.2,76L28.2,76z M43.2,85.7l0.1-4.7c7.8,2.1,16.1,2.1,23.9,0l-0.1,4.6c-4,0.9-8.2,1.4-12.3,1.3
	C50.9,87,47.1,86.6,43.2,85.7L43.2,85.7z M82.3,76c-1.8,3.3-5.1,6-9.6,7.8l0.1-4.8c3.8-1.6,7.2-4,10.1-6.9c0,1.3-0.2,2.5-0.4,3.8
	L82.3,76z"/>
<path class="st1" d="M37.6,68.2c1,1.1,2.5,1.7,4,1.7h0.1c1.5,0,3-0.7,4-1.9l4-4.5l2.3,1.7c1.9,1.4,4.6,1.4,6.5,0
	l2.3-1.7l4,4.5c1,1.2,2.5,1.8,4,1.9h0.1c1.5,0,3-0.6,4-1.7l3.1-3.2c1.9-2,2-5.2,0.2-7.4l-9.7-11.3c-1.9-2.2-5.1-2.5-7.4-0.9
	l-3.8,2.7l-3.8-2.7c-2.3-1.7-5.5-1.3-7.4,0.9l-9.7,11.3c-1.8,2.1-1.8,5.3,0.2,7.4L37.6,68.2z M48.2,49.9l7,5.1l7-5.1L72,61.2
	l-3.1,3.2l-7.3-8.2l-6.4,4.7l-6.4-4.7l-7.3,8.2l-3.1-3.2L48.2,49.9z"/>
<path class="st1" d="M55.2,31.1c1.5,0,2.8-1.2,2.8-2.8V15.5c0-1.5-1.2-2.8-2.7-2.8c-1.5,0-2.8,1.2-2.8,2.7
	c0,0,0,0.1,0,0.1v12.8C52.5,29.9,53.7,31.1,55.2,31.1z"/>
<path class="st1" d="M33.4,33.5c0.7,1.3,2.4,1.8,3.7,1.1c1.3-0.7,1.8-2.4,1.1-3.7c0,0,0-0.1,0-0.1l-6.4-11.1
	c-0.8-1.3-2.5-1.7-3.8-0.9c-1.3,0.8-1.7,2.4-1,3.7L33.4,33.5z"/>
<path class="st1" d="M73.4,34.5c1.3,0.8,3,0.3,3.8-1c0,0,0,0,0,0l6.4-11.1c0.8-1.3,0.3-3-1-3.8
	c-1.3-0.8-3-0.3-3.8,1l-6.4,11.1C71.6,32,72.1,33.7,73.4,34.5C73.4,34.5,73.4,34.5,73.4,34.5z"/>
</svg>