<svg version="1.1" xmlns="http://www.w3.org/2000/svg" viewBox="0 0 93.2 93.2" width="93" height="93">
<style type="text/css">
	.st0{fill:#F01160;}
	.st1{fill:#FFF;}
</style>
<ellipse class="st0" cx="46.6" cy="46.6" rx="46.6" ry="46.6"/>
<path class="st1" d="M68.1,43.9c-0.1-0.5-0.4-1-0.8-1.2l-17-10.6l1.2-2c0.3,0.1,0.6,0.1,0.9,0.1
	c0.4,0,0.8,0,1.1-0.1c1.3-0.3,2.4-1.1,3.1-2.2l0,0c1.5-2.3,0.8-5.4-1.6-6.9c-2.3-1.5-5.4-0.8-6.9,1.6c-1.1,1.7-1,4,0.2,5.6l-1.2,2
	l-17-10.6c-0.9-0.5-2-0.3-2.5,0.6c0,0.1-0.1,0.1-0.1,0.2c-1.1,2.7-1.4,5.6-0.9,8.5c0.7,4.3,3.5,10.6,12.7,16.5v8.6
	c-0.6,0.1-1.1,0.2-1.7,0.3c-4,0.7-7.5,1.4-8.6,3.8c-0.5,1.1-0.4,2.3,0.2,3.4c0.5,1.6,2.3,2.1,11.5,2.1c0.6,0,1.3,0,2.1,0
	c0.5,0,0.9,0,1.2,0s0.7,0,1.2,0c11,0.1,13.1-0.4,13.6-2.1c0.6-1,0.7-2.3,0.2-3.4c-1.1-2.4-4.7-3.1-8.8-3.8c-0.5-0.1-1.1-0.2-1.6-0.3
	v-4.2c2.2,0.7,4.5,1,6.8,1.1c1.8,0,3.5-0.2,5.2-0.8c2.8-0.8,5.3-2.4,7.2-4.5C68.1,45,68.2,44.5,68.1,43.9z M51.4,24.5
	c0.2-0.3,0.5-0.5,0.8-0.6c0.1,0,0.2,0,0.3,0c0.7,0,1.3,0.6,1.3,1.3c0,0.7-0.6,1.3-1.3,1.3c-0.7,0-1.3-0.6-1.3-1.3
	C51.2,25,51.2,24.7,51.4,24.5L51.4,24.5z M46.3,57.1c1,0.2,2.1,0.4,3.2,0.6c1.8,0.3,5.2,1,6,1.6c-3.4,0.3-6.9,0.5-10.3,0.3
	c-0.5,0-0.9,0-1.2,0s-0.7,0-1.2,0c-3.4,0.1-6.8,0-10.2-0.3c0.9-0.7,3.9-1.2,5.8-1.6c1.1-0.2,2.2-0.4,3.3-0.7
	c0.8-0.2,1.4-0.9,1.4-1.8v-7.9c0.6,0.3,1.2,0.6,1.8,0.8v7.1C44.8,56.2,45.4,56.9,46.3,57.1L46.3,57.1z M41.7,42.4
	c-11.7-7.3-12-14.9-11.4-18.5l33,20.6C60.4,46.7,53.3,49.7,41.7,42.4L41.7,42.4z"/>
<path class="st1" d="M59.6,24.7c0.1,1-0.1,1.9-0.6,2.7c-0.6,0.9-0.5,2.1,0.4,2.7c0.9,0.6,2.1,0.5,2.7-0.4
	c1-1.5,1.5-3.3,1.4-5.2c-0.1-1.8-0.8-3.6-2-5c-0.7-0.8-1.9-0.8-2.7-0.1c-0.8,0.7-0.8,1.9-0.1,2.7c0,0,0,0,0,0
	C59.2,22.9,59.6,23.8,59.6,24.7z"/>
<path class="st1" d="M64.9,24.3c0.3,1.8-0.2,3.7-1.3,5.2c-0.8,0.7-0.8,2,0,2.7c0.7,0.8,2,0.8,2.7,0
	c0,0,0.1-0.1,0.1-0.1c1.9-2.3,2.7-5.2,2.4-8.1c-0.2-2.7-1.3-5.2-3.1-7.1c-0.8-0.7-2-0.7-2.7,0c-0.7,0.7-0.7,1.9,0,2.7
	C64,20.9,64.7,22.6,64.9,24.3z"/>
</svg>