<svg version="1.1" xmlns="http://www.w3.org/2000/svg" viewBox="0 0 90 90" width="90" height="90">
<style type="text/css">
	.st0{fill:#26BCB2;}
</style>
<path id="パス_721" class="st0" d="M89.8,86.9L79.5,61.5c-0.7-1.5-2.1-2.4-3.7-2.5H53c4.6-7.3,9-14.3,10.5-17.3
	c2.2-4,3.7-8.2,4.4-12.7C70.6,9,58,0.7,45,0.6C32,0.7,19.4,9,22.1,28.9c0.8,4.5,2.3,8.7,4.5,12.7c1.5,3,5.9,10,10.5,17.3H14.2
	c-1.6,0.1-3.1,1.1-3.7,2.5L0.2,86.9c-0.5,0.8-0.2,1.9,0.7,2.3c0,0,0,0,0,0c0.3,0.2,0.7,0.2,1,0.2h86.2c0.9,0.1,1.8-0.5,1.9-1.5
	C90,87.6,90,87.2,89.8,86.9z M31.7,24.3c0-7.4,6-13.3,13.4-13.3s13.4,6,13.3,13.4s-6,13.4-13.4,13.3c0,0,0,0,0,0l0,0
	C37.6,37.6,31.6,31.7,31.7,24.3L31.7,24.3L31.7,24.3L31.7,24.3z M81.1,77H60.2v-3.3l11.9-1.5c0.7-0.1,1.3-0.8,1.2-1.5c0,0,0,0,0,0
	c0,0,0-0.1,0-0.1l-1.7-7.2h3.9L81.1,77z M44,69.9c0.3,0.6,1,0.8,1.6,0.5c0,0,0,0,0,0c0.2-0.1,0.4-0.3,0.5-0.5
	c1.3-2.1,2.7-4.3,4.1-6.6h18.6l1.5,6.4l-11.6,1.4c-0.7,0.1-1.2,0.7-1.2,1.3V77H35c-0.6,0-1.1-0.5-1.2-1.1c0,0,0-0.1,0-0.2l0.3-4.3
	c0.2-2.1-1.4-4-3.5-4.2c0,0,0,0,0,0h-6.2l0.9-3.9h14.4C41.2,65.6,42.6,67.9,44,69.9L44,69.9z M32.2,78.5c0.7,0.8,1.8,1.2,2.9,1.2
	h22.5V85H20.4l3.5-15.1h6.5c0.6,0,1.1,0.5,1.2,1.1c0,0,0,0,0,0v0.2l-0.3,4.3C31.1,76.6,31.4,77.6,32.2,78.5L32.2,78.5z M14.4,63.3
	h8.2l-0.9,3.9h-8.8L14.4,63.3z M11.8,69.9h9.3L17.6,85H5.7L11.8,69.9z M60.2,85v-5.3h21.9l2.2,5.3H60.2z"/>
</svg>