<svg version="1.1" xmlns="http://www.w3.org/2000/svg" viewBox="0 0 93.2 93.2" width="93" height="93">
<style type="text/css">
	.st0{fill:#F01160;}
	.st1{fill:#FFF;}
</style>
<ellipse class="st0" cx="46.6" cy="46.6" rx="46.6" ry="46.6"/>
<path class="st1" d="M66.2,52.3c-1,0-1.7,0.8-1.7,1.7v2.4c0,1.8-1.4,3.2-3.2,3.2H30.9c-1.8,0-3.2-1.4-3.2-3.2V34.4
	h36.7v4.3c0,1,0.8,1.8,1.8,1.8s1.8-0.8,1.8-1.8l0,0V28.6c0-3.7-3-6.7-6.7-6.7h-1.8v-1.6c0-2.2-1.8-3.9-3.9-3.9h-0.6
	c-2.2,0-3.9,1.8-3.9,3.9v1.6h-9.9v-1.6c0-2.2-1.8-3.9-3.9-3.9h-0.6c-2.2,0-3.9,1.8-3.9,3.9v1.6h-1.8c-3.7,0-6.7,3-6.7,6.7v28
	c0,3.7,3,6.7,6.7,6.7h30.3c3.7,0,6.7-3,6.7-6.7v-2.4C67.9,53.1,67.1,52.3,66.2,52.3z M54.5,20.2c0-0.2,0.2-0.4,0.4-0.4h0.6
	c0.2,0,0.4,0.2,0.4,0.4v5.9c0,0.2-0.2,0.4-0.4,0.4h-0.6c-0.2,0-0.4-0.2-0.4-0.4V20.2z M36.2,20.2c0-0.2,0.2-0.4,0.4-0.4h0.6
	c0.2,0,0.4,0.2,0.4,0.4v5.9c0,0.2-0.2,0.4-0.4,0.4h-0.6c-0.2,0-0.4-0.2-0.4-0.4V20.2z M30.9,25.3h1.8v0.8c0,2.2,1.8,3.9,3.9,3.9h0.6
	c2.2,0,3.9-1.8,3.9-3.9v-0.8H51v0.8c0,2.2,1.8,3.9,3.9,3.9h0.6c2.2,0,3.9-1.8,3.9-3.9v-0.8h1.8c1.8,0,3.2,1.4,3.2,3.2v2.4H27.7v-2.4
	C27.7,26.8,29.2,25.3,30.9,25.3z"/>
<path class="st1" d="M32.8,37h1c1.2,0,2.1,0.9,2.1,2.1v1c0,1.2-0.9,2.1-2.1,2.1h-1c-1.2,0-2.1-0.9-2.1-2.1v-1
	C30.7,38,31.6,37,32.8,37z"/>
<path class="st1" d="M41.2,37h1c1.2,0,2.1,0.9,2.1,2.1v1c0,1.2-0.9,2.1-2.1,2.1h-1c-1.2,0-2.1-0.9-2.1-2.1v-1
	C39.1,38,40.1,37,41.2,37z"/>
<path class="st1" d="M49.7,37h1c1.2,0,2.1,0.9,2.1,2.1v1c0,1.2-0.9,2.1-2.1,2.1h-1c-1.2,0-2.1-0.9-2.1-2.1v-1
	C47.6,38,48.6,37,49.7,37z"/>
<path class="st1" d="M58.2,37h1c1.2,0,2.1,0.9,2.1,2.1v1c0,1.2-0.9,2.1-2.1,2.1h-1c-1.2,0-2.1-0.9-2.1-2.1v-1
	C56.1,38,57.1,37,58.2,37z"/>
<path class="st1" d="M32.8,44.4h1c1.2,0,2.1,0.9,2.1,2.1v1c0,1.2-0.9,2.1-2.1,2.1h-1c-1.2,0-2.1-0.9-2.1-2.1v-1
	C30.7,45.4,31.6,44.4,32.8,44.4z"/>
<path class="st1" d="M41.2,44.4h1c1.2,0,2.1,0.9,2.1,2.1v1c0,1.2-0.9,2.1-2.1,2.1h-1c-1.2,0-2.1-0.9-2.1-2.1v-1
	C39.1,45.4,40.1,44.4,41.2,44.4z"/>
<path class="st1" d="M32.8,51.8h1c1.2,0,2.1,0.9,2.1,2.1v1c0,1.2-0.9,2.1-2.1,2.1h-1c-1.2,0-2.1-0.9-2.1-2.1v-1
	C30.7,52.8,31.6,51.8,32.8,51.8z"/>
<path class="st1" d="M41.2,51.8h1c1.2,0,2.1,0.9,2.1,2.1v1c0,1.2-0.9,2.1-2.1,2.1h-1c-1.2,0-2.1-0.9-2.1-2.1v-1
	C39.1,52.8,40.1,51.8,41.2,51.8z"/>
<path class="st1" d="M68.7,46.2l-3.3-3.9c-0.2-0.3-0.6-0.5-1-0.5c-0.4,0-0.7,0.1-1,0.4l-8.8,9.1l-2.9-4
	c-0.2-0.3-0.6-0.5-1-0.5c-0.4,0-0.8,0.2-1,0.5l-2.9,3.4c-0.5,0.6-0.4,1.4,0.2,1.8c0,0,0,0,0,0l6.2,4.9c0.5,0.4,1.1,0.4,1.6,0.1
	l13.7-9.4C69,47.7,69.2,46.9,68.7,46.2C68.8,46.2,68.7,46.2,68.7,46.2L68.7,46.2z"/>
</svg>