<svg version="1.1" xmlns="http://www.w3.org/2000/svg" viewBox="0 0 93.2 93.2" width="93" height="93">
<style type="text/css">
	.st0{fill:#F01160;}
	.st1{fill:#FFF;}
</style>
<ellipse class="st0" cx="46.6" cy="46.6" rx="46.6" ry="46.6"/>
<path class="st1" d="M62.4,29.2h-5.2c1.3-0.7,2.5-1.6,3.4-2.8c1-1.5,0.8-3.6-0.7-5.8c-1.4-2.1-4.7-5.2-7.4-4.2
	c-2.5,1-5.3,6.6-6.4,10.4c-1.1-3.8-3.8-9.4-6.4-10.4c-2.7-1-5.9,2-7.4,4.2c-1.5,2.2-1.7,4.3-0.7,5.8c0.9,1.2,2.1,2.1,3.4,2.8H30
	c-1.7,0.1-3.1,1.5-3,3.2v5.9c-0.1,1.7,1.3,3.2,3,3.2h0.1v17.6c-0.1,2,1.5,3.7,3.5,3.7h25.2c2-0.1,3.6-1.7,3.5-3.7V41.6h0.1
	c1.7-0.1,3.1-1.5,3-3.2v-5.9C65.4,30.7,64.1,29.3,62.4,29.2z M41.6,59.3h-8c-0.1,0-0.2-0.1-0.3-0.2V41.6h8.3L41.6,59.3z M41.6,38.1
	H30.3v-5.3h11.3L41.6,38.1z M59,59.1c0,0.1-0.1,0.2-0.3,0.2h-8V41.6H59V59.1z M62.1,38.1H50.7v-5.3h11.3L62.1,38.1z"/>
</svg>