<svg version="1.1" xmlns="http://www.w3.org/2000/svg" viewBox="0 0 308.4 23.5" width="308" height="24">
<style type="text/css">
	.st0{fill:#56E2B7;}
	.st1{fill:#F9B55B;}
	.st2{fill:#E5D75E;}
	.st3{fill:#FE8CE3;}
	.st4{fill:#FF7B88;}
	.st5{fill:#91D0F1;}
	.st6{fill:#A5EFF2;}
	.st7{fill:#F28CA8;}
	.st8{fill:#BEA5F2;}
	.st9{fill:#FE8D7C;}
	.st10{fill:#D1D1D1;}
</style>
<path class="st0" d="M13.2,1.4l8.9,8.9c0.8,0.8,0.8,2,0,2.8l-8.9,8.9c-0.8,0.8-2,0.8-2.8,0l-8.9-8.9
	c-0.8-0.8-0.8-2,0-2.8l8.9-8.9C11.1,0.6,12.4,0.6,13.2,1.4z"/>
<path class="st1" d="M70.2,1.4l8.9,8.9c0.8,0.8,0.8,2,0,2.8l-8.9,8.9c-0.8,0.8-2,0.8-2.8,0l-8.9-8.9
	c-0.8-0.8-0.8-2,0-2.8l8.9-8.9C68.1,0.6,69.4,0.6,70.2,1.4z"/>
<path class="st2" d="M41.7,1.4l8.9,8.9c0.8,0.8,0.8,2,0,2.8l-8.9,8.9c-0.8,0.8-2,0.8-2.8,0l-8.9-8.9
	c-0.8-0.8-0.8-2,0-2.8l8.9-8.9C39.6,0.6,40.9,0.6,41.7,1.4z"/>
<path class="st3" d="M184.1,1.4l8.9,8.9c0.8,0.8,0.8,2,0,2.8l-8.9,8.9c-0.8,0.8-2,0.8-2.8,0l-8.9-8.9
	c-0.8-0.8-0.8-2,0-2.8l8.9-8.9C182.1,0.6,183.4,0.6,184.1,1.4z"/>
<path class="st4" d="M127.1,1.4l8.9,8.9c0.8,0.8,0.8,2,0,2.8l-8.9,8.9c-0.8,0.8-2,0.8-2.8,0l-8.9-8.9
	c-0.8-0.8-0.8-2,0-2.8l8.9-8.9C125.1,0.6,126.4,0.6,127.1,1.4z"/>
<path class="st5" d="M241.1,1.4l8.9,8.9c0.8,0.8,0.8,2,0,2.8l-8.9,8.9c-0.8,0.8-2,0.8-2.8,0l-8.9-8.9
	c-0.8-0.8-0.8-2,0-2.8l8.9-8.9C239.1,0.6,240.3,0.6,241.1,1.4z"/>
<path class="st6" d="M269.6,1.4l8.9,8.9c0.8,0.8,0.8,2,0,2.8l-8.9,8.9c-0.8,0.8-2,0.8-2.8,0l-8.9-8.9
	c-0.8-0.8-0.8-2,0-2.8l8.9-8.9C267.6,0.6,268.8,0.6,269.6,1.4z"/>
<path class="st7" d="M155.6,1.4l8.9,8.9c0.8,0.8,0.8,2,0,2.8l-8.9,8.9c-0.8,0.8-2,0.8-2.8,0l-8.9-8.9
	c-0.8-0.8-0.8-2,0-2.8l8.9-8.9C153.6,0.6,154.9,0.6,155.6,1.4z"/>
<path class="st8" d="M212.6,1.4l8.9,8.9c0.8,0.8,0.8,2,0,2.8l-8.9,8.9c-0.8,0.8-2,0.8-2.8,0l-8.9-8.9
	c-0.8-0.8-0.8-2,0-2.8l8.9-8.9C210.6,0.6,211.8,0.6,212.6,1.4z"/>
<path class="st9" d="M98.7,1.4l8.9,8.9c0.8,0.8,0.8,2,0,2.8l-8.9,8.9c-0.8,0.8-2,0.8-2.8,0l-8.9-8.9
	c-0.8-0.8-0.8-2,0-2.8l8.9-8.9C96.6,0.6,97.9,0.6,98.7,1.4z"/>
<path class="st10" d="M298.1,1.4l8.9,8.9c0.8,0.8,0.8,2,0,2.8l-8.9,8.9c-0.8,0.8-2,0.8-2.8,0l-8.9-8.9
	c-0.8-0.8-0.8-2,0-2.8l8.9-8.9C296.1,0.6,297.3,0.6,298.1,1.4z"/>
</svg>