<svg xmlns="http://www.w3.org/2000/svg" width="351.536" height="84.519" viewBox="0 0 351.536 84.519"><title>logo_piapro</title><g id="レイヤー_2" data-name="レイヤー 2"><g id="レイヤー_1-2" data-name="レイヤー 1"><g id="レイヤー_2-2" data-name="レイヤー 2"><g id="基本ロゴ"><path d="M275.914.482,251.987,15.8S245.2,19.936,245.2,29.677V57.185a8.819,8.819,0,1,0,17.637,0V34.675c0-5.6,3.87-7.35,3.87-7.35l18.707-11.986V4.7Z" fill="#333"/><path d="M31.949,3.378A31.925,31.925,0,0,0,.323,31,8.528,8.528,0,0,0,0,33.272V84.519l17.636-11.5V35.331h0a14.345,14.345,0,1,1,6.9,12.222V66.391A31.943,31.943,0,1,0,31.949,3.378Z" fill="#333"/><path d="M131.316,3.378a31.95,31.95,0,0,0,0,63.9h0a31.808,31.808,0,0,0,7.41-.874V47.553a14.3,14.3,0,1,1,6.9-12.226V59.175l6.365,4.167,11.275,7.248V35.326A31.992,31.992,0,0,0,131.316,3.378Z" fill="#333"/><path d="M204.322,3.378A31.923,31.923,0,0,0,172.7,31a8.548,8.548,0,0,0-.323,2.275V73.021l17.635,11.261V35.331h0a14.346,14.346,0,1,1,6.9,12.221V66.39a31.943,31.943,0,1,0,7.417-63.012Z" fill="#333"/><path d="M319.836,3.378a31.924,31.924,0,0,0-14.311,60.473V35.333a14.34,14.34,0,1,1,6.9,12.223V66.374a31.776,31.776,0,0,0,7.413.906h0a31.951,31.951,0,0,0,0-63.9Z" fill="#333"/><polygon points="81.927 0 73.109 4.912 73.109 16.727 81.927 11.815 90.746 16.727 90.746 4.912 81.927 0" fill="#333"/><path d="M73.109,24.227V58.288a8.819,8.819,0,1,0,17.637,0V24.227l-8.819-4.912Z" fill="#333"/></g></g></g></g></svg>