<svg xmlns="http://www.w3.org/2000/svg" width="284.583" height="238" viewBox="0 0 284.583 238"><title>pagetop</title><g id="レイヤー_2" data-name="レイヤー 2"><g id="レイヤー_1-2" data-name="レイヤー 1"><path d="M158.454,10.95c-8.889-14.6-23.435-14.6-32.324,0L4.053,211.454C-4.836,226.054,1.391,238,17.891,238h248.8c16.5,0,22.727-11.946,13.838-26.546Z" fill="#e64391"/><path d="M109.188,126.7a5.3,5.3,0,0,1-5.309,5.309h-8.9v39.026a6.17,6.17,0,0,1-12.34,0V132.007h-8.9a5.309,5.309,0,0,1,0-10.618h30.131A5.3,5.3,0,0,1,109.188,126.7Z" fill="#fff"/><path d="M166.218,148.795c0,13.056-5.667,29.485-26.473,29.485s-26.472-16.428-26.472-29.557c0-12.77,5.667-28.912,26.472-28.912S166.218,135.953,166.218,148.795Zm-13.129-.216c0-13.415-5.6-18.007-13.344-18.007S126.4,135.164,126.4,148.579c0,13.7,5.6,18.725,13.343,18.725S153.089,162.282,153.089,148.579Z" fill="#fff"/><path d="M216.144,138.822c0,13.918-9.255,19.514-19.3,19.514h-7.461v12.7a6.17,6.17,0,0,1-12.34,0v-43.9a5.35,5.35,0,0,1,5.739-5.739h10.044C205.813,121.39,216.144,125.335,216.144,138.822Zm-12.555.79c0-4.735-3.228-7.6-10.331-7.6h-3.873v16.141h4.16C200.5,148.149,203.589,146.069,203.589,139.612Z" fill="#fff"/></g></g></svg>