<svg version="1.1" xmlns="http://www.w3.org/2000/svg" viewBox="0 0 159.1 38.4" width="159" height="38">
<style type="text/css">
	.st0{fill:#408C0D;}
</style>
<path class="st0" d="M22.6,10.4c-0.2,0.2-0.5,0.5-0.7,0.7c3.6,3.2,10.2,5.9,16.5,7.2c-1.1,1.1-2.1,2.4-2.9,3.8
	c-2.8-0.7-5.5-1.7-8.1-3v2.7H10.6v-2.6c-2.5,1.2-5.2,2.3-7.8,3.2c-0.8-1.4-1.7-2.7-2.8-3.8c7-1.9,14.7-5.5,18.7-10.2l2.1,1.1
	c-1-0.7-2.4-1.6-3.2-2.1l0,0h-4.6c0.7,1.1,1.2,2.3,1.7,3.5l-4.3,1.2c-0.6-1.6-1.3-3.2-2.1-4.8H7.8C6.7,9.4,5.4,11.3,4,13
	c-1.3-0.9-2.6-1.8-4-2.5C2.8,7.5,4.9,3.9,6.1,0l4.5,1.2C10.4,2,10,2.8,9.6,3.6h8.9v3.1c1.8-1.9,3.2-4.2,4-6.7L27,1.1
	C26.8,2,26.4,2.8,26,3.6h11.1v3.8h-6c0.9,1.2,1.7,2.5,2.3,3.8l-4.6,1c-0.7-1.7-1.7-3.3-2.7-4.8h-2.3c-0.6,0.9-1.3,1.8-2.1,2.6
	L22.6,10.4z M33.2,23.9c-1.2,3.2-2.6,6.3-4.2,9.3h8v4.3H1.6v-4.3h22.1c2.1-3.3,3.8-6.8,5-10.5L33.2,23.9z M9.5,23.1
	c1.6,2.2,3,4.5,4.1,6.9l-4.1,2c-1.1-2.5-2.4-4.9-3.9-7.2L9.5,23.1z M25,17.8c-2.1-1.2-4-2.6-5.7-4.2c-1.9,1.6-3.9,3-6,4.2H25z
	 M19.5,22.5c1.4,2.4,2.6,4.9,3.5,7.5l-4,1.6c-0.9-2.7-2-5.2-3.3-7.7L19.5,22.5z"/>
<path class="st0" d="M54.7,30.3c2.6-0.5,5.2-0.9,7.8-1.3l0.2,4.2c-7.1,1.4-14.8,2.8-20.4,3.8l-1.1-4.5c2.4-0.3,5.5-0.8,8.8-1.3v-5.6
	h-7.4v-4.2h7.4v-3.6h4.6v3.6h7.3v4.2h-7.3V30.3z M41.7,2.7h21.2v4.2h-5.8c2.2,2.7,4.1,5.6,5.7,8.7L59.2,18c-0.2-0.6-0.6-1.3-0.9-2
	c-11.3,0.9-13,1.1-14.2,1.6c-0.3-1-1.1-3.1-1.5-4.4c0.8-0.4,1.4-1,1.9-1.7c1-1.5,1.8-3,2.5-4.6h-5.2L41.7,2.7z M56,12.2
	c-0.8-1.2-1.6-2.3-2.4-3.3l3.4-2h-4.9c-1,2-2.2,3.9-3.5,5.8L56,12.2z M69,28.7h-4.5V4.1H69V28.7z M77,0.8v31.5c0,2.6-0.5,3.8-2,4.6
	s-3.9,0.9-7,0.9c-0.3-1.6-0.9-3.2-1.6-4.6c2.2,0.1,4.4,0.1,5,0.1s0.9-0.2,0.9-0.9V0.8H77z"/>
<path class="st0" d="M95.7,23.9L92.2,25v13.4h-4.6v-12l-5.5,1.7l-1-4.9c1.8-0.4,4-0.9,6.5-1.6v-8.7h-2.3c-0.4,2.3-0.8,4.4-1.3,6
	c-1.1-0.7-2.3-1.3-3.5-1.9c1.2-4.4,1.8-8.9,2-13.5l3.8,0.7c-0.1,1.3-0.2,2.7-0.4,4h1.6V0.4h4.6v7.9h3.1v4.6h-3.1v7.4l3.1-0.9
	L95.7,23.9z M114.4,16.3V20h4v4.5h-4V33c0,2.5-0.4,3.8-2,4.5s-3.8,0.8-6.8,0.8c-0.3-1.7-0.8-3.3-1.4-4.8c1.9,0.1,4.1,0.1,4.7,0.1
	s0.9-0.2,0.9-0.7v-8.5h-8.2c1.8,1.8,3.4,3.9,4.7,6.1l-3.7,2.5c-1.2-2.3-2.8-4.4-4.5-6.4l3.4-2.2h-4.8V20h13.2v-3.7h-14v-4.5h9.4V8.4
	h-7V4h7V0.3h4.7V4h7.2v4.4h-7.2v3.5h9v4.5H114.4z"/>
<path class="st0" d="M159.1,29h-11.7c3.8,1.8,7.4,3.8,11,6l-4.5,3.3c-3.5-2.5-7.2-4.7-11-6.6l2.9-2.7h-12.1l3.8,2.5
	c-3.8,2.9-8.1,5.2-12.5,6.9c-1.2-1.3-2.5-2.4-3.8-3.5c4.1-1.4,7.9-3.4,11.4-5.9h-11.5v-4.5h4V5h8.4V0.2h4.5V5h3.9V0.2h4.6V5h8.8
	v19.5h3.7L159.1,29z M129.8,9.5v5.1h3.8V9.5H129.8z M129.8,24.5h3.8V19h-3.8V24.5z M138.1,9.5v5.1h3.9V9.5H138.1z M142,19h-3.9v5.4
	h3.9V19z M146.6,9.5v5.1h3.9v-5L146.6,9.5z M146.6,24.5h3.9V19h-3.9V24.5z"/>
</svg>