<svg version="1.1" xmlns="http://www.w3.org/2000/svg" viewBox="0 0 315 92" width="315" height="92">
<style type="text/css">
	.st0{fill:#FFF;}
</style>
<path d="M159.7,73.3c2.8,8.8,12.2,13.8,21,11c5.2-1.6,9.3-5.7,11-10.9l1.3-3.8l1.4,4.1c2.9,8.8,12.4,13.5,21.2,10.6
	c5.1-1.7,9.1-5.7,10.7-10.9l0.6-1.9c0.5,3.4,2.4,6.6,5.1,8.7c4.7,3.7,11.3,5.7,19.1,5.7c5.6,0.1,11.1-1.5,15.7-4.7
	c4-2.9,8.8-8.5,8.8-18.6c0.1-6.2-2.4-12.1-7-16.2c1.5-1,2.7-2.3,3.6-3.8c1.9-2.9,2.5-6.5,1.8-9.9c-0.9-3.8-3.3-7-6.6-9.1
	c-4.2-2.5-9.1-3.8-14-3.9c-4.2,0-10.4,0.7-15.8,4.3c-1,0.7-2,1.4-2.9,2.2c-2.8-3.6-7.1-5.8-11.8-5.8c-7-0.1-13.1,4.8-14.6,11.6
	l-0.2,0.9v-0.1c-2.8-8.6-12-13.2-20.5-10.4c-4.8,1.6-8.5,5.2-10.2,9.9l-0.1-0.5c-1.5-6.8-7.6-11.6-14.5-11.4
	c-4.7-0.1-9.2,2.2-12.1,5.9l-0.1,0.2c-3.6-3.7-9.4-7.1-18.5-7.1c-11.2,0-20.2,4.8-25.7,13.1V20.6c0-8-6.5-14.4-14.4-14.4
	c-8,0-14.4,6.5-14.4,14.4c0,0,0,0,0,0v6.4l-5.2-8c-0.3-0.4-0.6-0.9-0.8-1.3c-2.5-4-7.1-11.3-16.2-11.3c-8.8-0.1-16.1,6.9-16.2,15.8
	c0,0.1,0,0.2,0,0.2v48.4c0,8,6.5,14.4,14.4,14.4c7.9,0,14.4-6.4,14.4-14.4v-6.3l5.1,7.9c2.1,3.8,7.3,12.8,17.2,12.8
	c7.4-0.1,13.8-5.1,15.7-12.2c5.4,8.3,14.9,12.9,27.5,12.9c5.7,0,11.4-1.3,16.5-3.9l0,0l0,0c6.6-3.5,9.1-10.5,6.5-17.3
	c-0.6-1.5-1.4-2.8-2.5-4c0.4-0.3,0.7-0.7,1-1.1L159.7,73.3z M232.3,55.1c0.6,0.8,1.2,1.5,1.8,2.2c-1.2,0.6-2.4,1.4-3.3,2.4
	L232.3,55.1z"/>
<path class="st0" d="M98.6,18.6v48.6c-0.2,4.4-3.8,8-8.2,8c-4.6,0-7.8-4.3-10.3-9L60,35.6v33.1c0,3.5-2.9,6.4-6.4,6.4
	c-3.5,0-6.4-2.9-6.4-6.4V20.3c0-4.4,3.6-8,8-8c0.1,0,0.2,0,0.2,0c5.4,0,8,5.4,10.3,9l19.9,30.6V18.6c0-3.6,2.9-6.4,6.4-6.4
	C95.7,12.1,98.6,15,98.6,18.6C98.6,18.6,98.6,18.6,98.6,18.6z"/>
<path class="st0" d="M122.1,54.4v0.2c0,2.6,1.6,10.1,12.1,10.1c3.8,0,5.4-1.1,8.2-2.1c2.7-1,5.7,0.3,6.8,3c1.3,3.2,0.2,5.8-2.8,7.4
	c-4,2-8.4,3-12.8,3c-19.8,0-24.8-12.8-24.8-24.6c0-14.2,7.6-25.9,23.4-25.9c14.2,0,18.2,10.6,18.2,21.2v1.6c0,3.8-2.3,6.2-6.2,6.2
	L122.1,54.4z M122.4,45h16c0-5-1.4-9.3-7.6-9.3C125.2,35.8,122.5,41.5,122.4,45L122.4,45z"/>
<path class="st0" d="M229.7,35.4l-11,33.6c-1.5,4.6-6.4,7.2-11,5.7c-2.7-0.9-4.8-3-5.7-5.7l-9.1-25.6l-8.8,25.4
	c-1.4,4.6-6.3,7.3-10.9,5.9c-2.8-0.8-5-3.1-5.9-5.9l-11-33.5c-1.2-3.5,0.6-7.4,4.2-8.6c0.8-0.3,1.6-0.4,2.5-0.4
	c3.3-0.1,6.1,2.2,6.7,5.4l6.8,26.8l8.6-25.4c1-3.4,4.2-5.7,7.8-5.6c3.7-0.1,7,2.3,8,5.8l9,25.1l6.6-26.7c0.6-3.2,3.4-5.5,6.7-5.4
	c3.8-0.1,6.9,3,7,6.8C230.1,33.8,229.9,34.6,229.7,35.4z"/>
<path class="st0" d="M267.8,60.6c0,12-9.2,15.3-16.6,15.3c-5.8,0-10.8-1.3-14.2-3.9c-2.2-1.7-2.9-4.7-1.6-7.1
	c1.4-2.7,4.7-3.7,7.4-2.3c0.1,0,0.1,0.1,0.2,0.1c2.3,1.5,5,2.3,7.8,2.4c2,0.2,3.7-1.3,3.9-3.3c0-0.1,0-0.3,0-0.4
	c0-2.6-3-4.4-8.2-7.1c-6.2-3.2-10.2-6.4-10.2-13.9c0-11.5,9.7-14.6,17.2-14.6c3.4,0,6.8,0.9,9.8,2.6c2.6,1.6,4.3,4.9,2.3,8
	c-1.5,2.5-4.9,2.9-7.6,1c-1.4-1-3.1-1.5-4.8-1.4c-2-0.1-3.6,1.5-3.7,3.5c0,0.1,0,0.1,0,0.2c0,1.9,1.5,3.1,6.6,5.8
	C262.2,48.7,267.8,52.2,267.8,60.6z"/>
</svg>