<svg version="1.1" xmlns="http://www.w3.org/2000/svg" viewBox="0 0 590.9 148" width="591" height="148">
<style type="text/css">
	.st0{fill:#408C0D;}
	.st1{fill:#FFF;}
</style>
<path class="st0" d="M30,7.9c-2.5,2.8-5.3,5.4-8.3,7.6v18.8c0.1,2-1.4,3.7-3.4,3.8c-0.1,0-0.1,0-0.2,0c-1.9,0-3.5-1.6-3.5-3.5
	c0-0.1,0-0.2,0-0.3v-14c-3,1.8-6.3,3.4-9.6,4.6c-2.2,0.8-4.1,0-4.8-1.8c-0.7-1.8,0.2-3.8,1.9-4.5c0.1,0,0.2-0.1,0.3-0.1
	c8.7-3.1,16.4-8.3,22.5-15.2c1.3-1.3,3.2-1.9,4.7-0.6C31.3,4.1,31.4,6.4,30,7.9z"/>
<path class="st0" d="M74.5,32.8c-1.6,1.8-3.8,1.5-5.7-0.1c-5.1-4.6-9.9-9.5-14.3-14.7c-0.7-0.8-1.2-1.5-1.9-1.5s-1.3,0.7-2,1.6
	l-7.1,8.5c-1.5,1.8-3.8,2.1-5.3,0.7s-1.5-3.8,0.1-5.7c3.4-3.8,7.9-8.6,10.6-11.3c1.7-2.2,4.8-2.6,7-0.9c0.4,0.3,0.7,0.6,1,1
	c5,5.9,10.5,11.4,16.5,16.3C75.5,28.5,76,31,74.5,32.8z M60.9,11.1c-0.8-0.7-1-1.9-0.3-2.7c0-0.1,0.1-0.1,0.1-0.2
	c0.7-0.7,1.7-0.8,2.5-0.2c1.2,0.7,2.2,1.8,2.9,3c0.6,1,0.3,2.2-0.6,2.8c-0.9,0.6-2.2,0.4-2.8-0.5c0,0-0.1-0.1-0.1-0.1
	C62.1,12.5,61.5,11.8,60.9,11.1z M66.4,8.8c-0.8-0.7-1-2-0.2-2.8c0,0,0-0.1,0.1-0.1c0.8-0.6,1.8-0.6,2.6,0C70,6.6,71,7.6,71.6,8.8
	c0.6,1,0.4,2.2-0.5,2.9c-0.9,0.6-2.2,0.4-2.8-0.5c0,0,0-0.1-0.1-0.1C67.7,10.2,67.1,9.5,66.4,8.8z"/>
<path class="st0" d="M82.1,7c1.1-1.9,3-2.3,5.4-1.3c2.1,0.8,4,2,5.8,3.4c2,1.8,2.5,4.3,1.1,6.1s-3.5,2.1-5.8,0.2
	C87,14.1,85.3,13,83.6,12C81.8,11.1,81.1,8.9,82.1,7C82.1,7,82.1,7,82.1,7z M112.7,18c-4.7,7.5-14.1,15.5-24.9,18.7
	c-2.2,0.7-4.3,0.1-5.1-2.1s0.5-4.1,2.8-4.9c10.3-3.2,15.9-7.8,21.6-15.8c1.3-1.9,3.3-2.4,4.8-1.3S113.9,16.1,112.7,18z"/>
<path class="st0" d="M147.6,25.5c-1.1,1.8-3.3,2-5.3,0.6c-3.3-2.5-6.8-4.6-10.5-6.4v14.8c0.1,1.9-1.4,3.6-3.3,3.7c0,0-0.1,0-0.1,0
	c-1.9-0.1-3.4-1.7-3.4-3.6c0,0,0-0.1,0-0.1V5c-0.1-1.9,1.3-3.6,3.2-3.7c0.1,0,0.1,0,0.2,0c1.9,0.1,3.5,1.7,3.4,3.6c0,0,0,0.1,0,0.1
	v7.7c5,1.8,9.8,4.2,14.2,7.3C148.3,21.6,148.8,23.8,147.6,25.5z"/>
<path class="st0" d="M166.8,6.4c-1.2,4.9-1.8,9.9-1.8,14.9c-0.1,3.7,0.4,7.3,1.4,10.9c0.7,2.5-0.3,4.2-2,4.8
	c-1.9,0.7-3.7-0.6-4.4-2.8c-0.9-2.5-1.4-7.8-1.4-12.7c0-5.5,0.5-10.9,1.6-16.2c0.5-2.2,2.1-3.5,4.2-3.1C166.2,2.3,167.4,4,166.8,6.4
	z M187.8,35c-1.9,0.3-3.9,0.4-5.8,0.5c-8.1,0-12.7-2-12.7-6.6c0-1.5,0.3-3,0.9-4.3c0.9-2.1,2.5-2.9,4.1-2.4c1.5,0.4,2.3,2,1.9,3.5
	c0,0.1-0.1,0.2-0.1,0.3l-0.3,1.2c-0.2,1.7,1.7,2.4,6.4,2.4c1.7,0,3.4-0.2,5-0.5c2.2-0.4,3.8,0.1,4.2,2.2S190.2,34.6,187.8,35
	L187.8,35z M169.5,10.8c-0.2-1.7,1-3,2.9-3.3c3.3-0.4,6.7-0.7,10-0.7c1.7,0,3.3,0.1,5,0.3c2,0.3,3.1,1.4,3,3.1s-1.3,3-3.6,2.9
	c-1.7-0.1-3.8-0.1-5.4-0.1c-3.1,0-5.3,0.2-8.5,0.5c-1.6,0.3-3.1-0.7-3.4-2.3C169.6,11,169.5,10.9,169.5,10.8z"/>
<path class="st0" d="M231.3,17.5h-6.9c2,1.5,4.2,2.6,6.6,3.4c1.4,0.4,2.2,2,1.8,3.4c-0.4,1.4-2,2.2-3.4,1.8
	c-4.9-1.6-9.3-4.4-12.1-8.4h-5.9c-1.7,2.1-3.6,3.9-5.8,5.4c3-1,5.8-2.5,8.3-4.5c1.1-0.8,2.6-0.7,3.5,0.4c0.8,1.1,0.7,2.6-0.4,3.5
	l0,0c-2.9,2.1-6.1,3.7-9.5,4.7l-0.7,0.2c-1.2,0.4-2.4-0.2-2.8-1.4c0,0,0-0.1,0-0.1c-0.2-0.7-0.1-1.4,0.4-2c-1.4,0.8-2.8,1.5-4.3,2.2
	c-1.3,0.7-2.9,0.1-3.6-1.2c-0.7-1.3-0.1-2.9,1.2-3.6c0.1,0,0.2-0.1,0.3-0.1c2.2-0.9,4.2-2.1,6.1-3.5h-6.3c-1.4,0.1-2.6-1-2.7-2.4
	s1-2.6,2.4-2.7c0.1,0,0.2,0,0.3,0h10.6l0.7-1.3l-8.1,0.4c-1.4,0-2.6-1.1-2.7-2.6c0-1.4,1.1-2.6,2.5-2.6c0,0,0,0,0.1,0h3.3
	c0.9-1.5,1.8-3,2.5-4.4c0.8-1.4,2.5-2,4-1.3c1.4,0.7,2,2.5,1.2,3.9c-0.1,0.1-0.1,0.3-0.2,0.4l-0.9,1.3l9.3-0.2l-0.3-0.3
	c-1.1-1-1.3-2.6-0.3-3.8c1-1.1,2.6-1.3,3.8-0.3l0,0c2,1.5,3.9,3.2,5.6,5.1c1.1,1.2,1,3.1-0.2,4.2c-0.1,0.1-0.2,0.2-0.4,0.3
	c-1.3,0.9-3.1,0.6-4-0.6l-0.2-0.2l-8.6,0.4l-0.7,1.6h16.8c1.4-0.1,2.6,1,2.7,2.4s-1,2.6-2.4,2.7C231.5,17.5,231.4,17.5,231.3,17.5z
	 M226,27.8c0.9,1.2,0.7,2.9-0.4,3.9c-0.1,0-0.1,0.1-0.2,0.1c-5.6,3.7-12.9,6-20.5,7L204,39c-1.4,0.2-2.7-0.8-2.9-2.2
	c0,0,0-0.1,0-0.1c-0.1-1.4,0.8-2.6,2.2-2.8c7.3-0.8,13.7-2.9,18.8-6.6C223.3,26.5,225,26.7,226,27.8z M202.9,31.1
	c-0.2-1.2,0.6-2.4,1.8-2.7c4.7-0.8,9.2-2.7,13.1-5.5c1.1-0.8,2.7-0.6,3.5,0.5s0.6,2.7-0.5,3.5c-4.4,2.9-9.3,4.9-14.4,5.9l-0.7,0.2
	c-1.2,0.3-2.5-0.4-2.8-1.7C202.9,31.2,202.9,31.2,202.9,31.1L202.9,31.1z"/>
<path class="st0" d="M255.9,11.5c-0.5,25.4-1.6,26.5-7.1,26.5h-1.4c-1.6,0-2.9-1.3-2.9-2.9c0,0,0-0.1,0-0.1c0.1-1.5,1.3-2.8,2.9-2.8
	h0.2c1.3,0,1.8-0.3,2.2-18.8h-3c-0.5,8.5-1.8,16.7-4.8,22.6c-0.8,1.6-2.7,2.2-4.3,1.4c-0.1-0.1-0.2-0.1-0.4-0.2
	c-1.3-0.9-1.7-2.7-0.9-4.1c2.9-5.1,4-12.1,4.5-19.6h-2.7c-1.6,0-2.8-1.3-2.9-2.9c0-1.6,1.3-2.8,2.9-2.8h2.9c0-1.6,0.1-3.2,0.1-4.8
	c0-1.6,1.2-2.9,2.9-3c0,0,0,0,0.1,0c1.6,0,2.9,1.4,2.9,3l-0.1,4.7h5.1c2,0,3.7,1.6,3.7,3.6C255.9,11.4,255.9,11.5,255.9,11.5z
	 M273.3,7.2v28.8c0,1.4-1.4,2.5-3.1,2.5s-3.1-1.1-3.1-2.5v-0.2h-3.9v0.5c0,1.3-1.4,2.4-3,2.4c-1.5,0.2-2.8-0.9-3-2.4v-29
	c0-2,1.6-3.7,3.7-3.7h8.8C271.6,3.5,273.2,5.1,273.3,7.2L273.3,7.2z M267.1,9.2h-3.9v20.8h3.9V9.2z"/>
<path class="st0" d="M311.4,26.6c-3.1,8-8.9,10.9-15.1,10.9c-9,0-13.1-5.1-13.1-15.2c0-3.3,0-9.2,0.2-16.5c0-2.6,1.5-4.2,3.6-4.2
	s3.7,1.8,3.5,4.3c-0.5,7.2-0.7,13.1-0.7,16.3c0,6.6,1.9,8.9,6.7,8.9c4.2,0,6.8-2.2,8.7-7.1c0.8-2.2,2.7-3.5,4.8-2.7
	S312.4,24.2,311.4,26.6z"/>
<path class="st0" d="M332.9,23.7c0,4,2.9,6.2,10.4,6.9c2.3,0.2,3.9,1.2,3.8,3.5s-1.8,3.3-4.5,3.1c-10.3-0.6-16.4-5.5-16.4-13
	c0-4.8,2.1-9.3,5.8-12.3L320,13c-2.2,0.2-3.8-1.1-3.9-3s1.2-3.2,3.4-3.3c5.6-0.3,13.5-0.9,17.2-1.2c2.9-0.2,6.2-0.6,9.1-0.9
	c2.1-0.2,3.8,0.7,4,2.7s-1,3.5-3.3,3.7c-1.6,0.2-3.1,0.4-4,0.6c-1,0.3-2.1,0.8-3,1.4C335,16.1,332.9,19.6,332.9,23.7z"/>
<path class="st0" d="M372.8,9.5c0,1.4-1.1,2.5-2.5,2.5h-13.1c-1.4,0-2.5-1.1-2.5-2.5c0-1.4,1.1-2.4,2.5-2.4h13.1
	C371.6,7.1,372.7,8.2,372.8,9.5z M371.3,27.6v6.6c0,1.8-1.5,3.3-3.3,3.3c0,0,0,0-0.1,0h-6.1c-0.5,1-1.5,1.6-2.6,1.5
	c-1.3,0.1-2.5-0.8-2.7-2.1v-9.4c0-1.9,1.5-3.4,3.4-3.4l0,0h8C369.8,24.2,371.3,25.7,371.3,27.6C371.3,27.6,371.3,27.6,371.3,27.6
	L371.3,27.6z M356.7,15.3c0-1.3,1-2.3,2.2-2.3c0,0,0,0,0.1,0h9.9c1.3,0,2.3,1,2.3,2.3c0,1.3-1,2.3-2.3,2.3c0,0,0,0,0,0H359
	C357.7,17.6,356.7,16.6,356.7,15.3C356.7,15.3,356.7,15.3,356.7,15.3z M356.7,20.9c0-1.3,1-2.3,2.3-2.3c0,0,0,0,0,0h9.9
	c1.3-0.1,2.4,0.9,2.4,2.1s-0.9,2.4-2.1,2.4c-0.1,0-0.2,0-0.3,0H359C357.7,23.2,356.7,22.2,356.7,20.9
	C356.7,20.9,356.7,20.9,356.7,20.9z M357.2,3.8c0-1.3,1.1-2.3,2.3-2.3h8.9c1.3,0.1,2.3,1.2,2.2,2.5c-0.1,1.2-1,2.1-2.2,2.2h-8.9
	C358.2,6.1,357.2,5.1,357.2,3.8z M365.7,29.4H362v3h3.8L365.7,29.4z M393.2,31c-0.7,6.1-2.2,7-7,7h-5.6c-6.2,0-7.6-1.7-7.6-9.2V17.9
	c0-2,1.6-3.7,3.6-3.7c0,0,0,0,0,0h8.9v-7h-9.8c-1.5,0-2.8-1.3-2.7-2.8c0-1.6,1.3-2.8,2.8-2.8h12.3c2,0,3.7,1.7,3.7,3.7c0,0,0,0,0,0
	v11c0,2-1.6,3.7-3.6,3.7c0,0,0,0,0,0h-8.7v8.9c0,2.8,0.3,3.1,1.8,3.1h4.6c0.9,0,1.2-0.2,1.3-1.5c0.2-1.7,1.7-2.9,3.4-2.7
	S393.4,29.4,393.2,31L393.2,31z"/>
<path class="st0" d="M418.5,32.3l-3.8,3.2c-1.2,0.9-2.9,0.7-3.8-0.4c-0.1-0.1-0.1-0.1-0.2-0.2c-0.2-0.3-0.3-0.6-0.4-0.9
	c-0.3,0.9-1,1.5-1.9,1.7l-8.8,1.7c-1.5,0.3-3-0.7-3.3-2.2c0,0,0-0.1,0-0.1c-0.2-1.5,0.8-2.9,2.4-3.1c0,0,0,0,0,0l2.1-0.2v-2.1
	c-0.3,0.7-1,1.1-1.8,1.1c-1.1,0.1-2-0.7-2.2-1.8c-0.1-0.9-0.3-1.8-0.5-2.7c-0.3-1,0.2-2.1,1.3-2.5c1.1-0.4,2.3,0.2,2.7,1.3
	c0,0,0,0.1,0,0.1l0.5,1.9v-4.9h-2.5c-1.4,0-2.6-1.2-2.6-2.6c0-1.4,1.2-2.6,2.6-2.6h2.5v-1.8h-1c-1.4,0-2.5-1.1-2.5-2.5
	c0-0.2,0-0.3,0-0.5l-0.6-0.4c-1-1-1.1-2.7-0.1-3.8c1.5-1.7,2.8-3.5,3.9-5.5c1.2-2.2,3.9-3,6-1.8c0.4,0.2,0.7,0.5,1,0.8
	c1.3,1.4,2.5,2.6,3.5,3.8c1,1.2,0.9,2.9-0.3,3.9c-0.1,0.1-0.2,0.2-0.3,0.2c-1.3,0.8-3,0.5-3.8-0.7l-1.9-2.4
	c-0.9,1.3-1.8,2.7-2.8,3.9h5.2c1.4,0,2.5,1.1,2.5,2.5c0,1.4-1.1,2.5-2.5,2.5h-0.6v1.8h1.7c1.4,0,2.6,1.1,2.6,2.5c0,0,0,0,0,0
	c0,1.4-1.1,2.6-2.6,2.6c0,0,0,0,0,0h-1.7v4.8l0.6-2c0.3-1.2,1.5-1.9,2.6-1.6c0,0,0.1,0,0.1,0c1.2,0.3,1.9,1.5,1.6,2.7
	c0,0.1,0,0.1-0.1,0.2l-1.1,2.5c-0.4,1.1-1.6,1.6-2.7,1.1c-0.5-0.2-0.9-0.6-1.1-1v2l1-0.2c1.3-0.2,2.5,0.6,2.9,1.9
	c0.2-0.7,0.6-1.3,1.2-1.7l4.1-2.5c1.1-0.7,2.5-0.4,3.2,0.6C419.7,30.1,419.5,31.5,418.5,32.3z M433.2,34.3c-0.8,1.5-2.6,2-4.1,1.2
	c-0.1-0.1-0.2-0.1-0.3-0.2c-1.2-0.9-2.4-2-3.4-3.2v1.3c0,4.2-1.3,5.3-5.2,5.3c-0.5,0-1,0-1.5,0c-1.4-0.1-2.5-1.4-2.4-2.8
	c0,0,0,0,0,0c0-1.3,1.1-2.4,2.4-2.5c0.7,0,0.9-0.2,0.9-0.7V18.5h-6.3c-1.4,0-2.6-1.2-2.6-2.6c0-1.4,1.2-2.6,2.6-2.6h12.4v-1.2h-9.8
	c-1.3,0.1-2.4-0.9-2.5-2.2c-0.1-1.3,0.9-2.4,2.2-2.5c0.1,0,0.2,0,0.3,0h9.8V6.2H415c-1.4,0-2.5-1.1-2.5-2.5s1.1-2.5,2.5-2.5l0,0
	h13.5c1.7,0,3,1.3,3.1,2.9c0,0,0,0.1,0,0.1v9.1h0.2c1.4,0,2.6,1.1,2.6,2.6c0,1.4-1.2,2.6-2.6,2.6h-6.3v4.4c1.4,3.2,3.7,5.9,6.7,7.6
	C433.5,31.3,433.9,33,433.2,34.3z M413.6,24.5l-0.9-1.8c-0.6-1.1-0.3-2.5,0.8-3.2c1.1-0.8,2.7-0.5,3.5,0.6c0.5,0.7,1,1.5,1.3,2.2
	c0.7,1.3,0.2,2.9-1.1,3.6c-0.2,0.1-0.3,0.2-0.5,0.2C415.5,26.4,414.1,25.8,413.6,24.5z M431.7,19.3c1.2,0.7,1.7,2.3,0.9,3.5
	c-0.1,0.1-0.1,0.2-0.2,0.3l-1.8,2.2c-0.8,1-2.3,1.2-3.4,0.4c-1-0.8-1.2-2.2-0.5-3.2l1.4-2.2C428.9,19,430.5,18.6,431.7,19.3z"/>
<path class="st0" d="M469,20.7c-2.2,0.6-4.6,1.3-6.9,2.1c0.1,1.1,0.2,2.3,0.2,3.7c0,2.2-1.2,3.8-3.2,3.8s-3.1-1.3-3.1-3.5v-1.3
	c-2.6,1.4-4.4,2.8-4.4,4.2c0,1.8,2.4,2.4,7.4,2.4c2.4-0.1,4.7-0.3,7.1-0.7c2.3-0.3,3.8,0.2,4.1,1.9s-0.7,3.3-3.1,3.8
	c-2.5,0.5-5.1,0.7-7.7,0.6c-9.7,0-14.2-2.4-14.2-7.5c0-4.2,4.5-7.7,9.7-10.4c-0.4-0.5-1-0.8-1.6-0.8c-1.9,0-4.7,1.4-6.4,3.1
	c-0.6,0.6-1.6,1.8-2.7,3.1c-1.5,1.7-3.7,1.9-5,0.6c-1.3-1.4-1.2-3.6,0.2-4.9c2.4-2.7,4.5-5.6,6.2-8.8h-4.3c-1.6,0.1-2.9-1.1-3-2.7
	c0-0.1,0-0.1,0-0.2c0-1.5,1.2-2.7,2.8-2.7c0.1,0,0.2,0,0.2,0h6.7l0.6-2.1c0.3-1.9,2.1-3.2,4-2.9c0.1,0,0.2,0,0.2,0
	c1.9,0.5,2.9,2.5,2.4,4.3c0,0.1-0.1,0.2-0.1,0.3l-0.1,0.2h8.5c1.5-0.2,2.8,0.9,3,2.3c0,0.2,0,0.3,0,0.5c0,1.5-1.2,2.8-2.7,2.8
	c-0.1,0-0.2,0-0.3,0h-11.1c-0.6,1.1-1.3,2.1-2.1,3c1.5-0.7,3.1-1.1,4.8-1.1c2.3-0.1,4.5,1.2,5.4,3.3c2.6-1.1,5-1.8,6.6-2.3
	c2-0.6,4-0.3,4.6,1.7S471.1,20.2,469,20.7z"/>
<path class="st0" d="M492.9,13.6c-1.5,10.5-4.7,18.5-10.1,23.6c-1.2,1.1-3,1-4.1-0.1c-0.1-0.1-0.1-0.1-0.2-0.2
	c-0.8-1.2-0.7-2.8,0.4-3.8c2.5-2.3,4.5-5.3,5.7-8.5l-1.4-1.1c-0.4-0.3-0.7-0.8-0.9-1.3c0,0,0,0,0,0.1c-0.7,1.4-2.4,2-3.8,1.3
	c-0.1,0-0.1-0.1-0.2-0.1c-1.3-0.7-1.8-2.4-1.1-3.7c2-4.2,3.3-8.6,3.8-13.2h-2c-1.4,0-2.6-1.2-2.6-2.6c0-1.4,1.2-2.6,2.6-2.6
	c0,0,0,0,0,0h12.8c1.4,0,2.6,1.1,2.6,2.6c0,0,0,0,0,0c0,1.4-1.2,2.6-2.6,2.6h-5.1l-0.5,3.2h3.4c1.9,0,3.4,1.5,3.4,3.4
	C493,13.3,492.9,13.4,492.9,13.6z M487,15.1h-2c-0.4,1.4-0.9,2.8-1.4,4.2c0.7-0.5,1.6-0.5,2.3-0.1l0.3,0.2
	C486.5,18,486.7,16.7,487,15.1z M515.9,32.4c-1.1,5.7-2.9,6.8-6.8,6.2c-2.3-0.4-4.3-1.9-5.5-4c-2.7,1.6-5.5,2.9-8.4,4
	c-1.4,0.5-3-0.2-3.5-1.6c0,0,0-0.1,0-0.1c-0.5-1.4,0.3-2.9,1.6-3.4c2.8-1,5.5-2.3,8-4c-0.6-1.9-1.1-3.9-1.4-5.9l-4.5,0.5
	c-1.3,0.2-2.5-0.8-2.7-2.1c-0.2-1.3,0.8-2.5,2.1-2.7l4.3-0.5l-0.1-1.1l-2.6,0.3c-1.3,0.2-2.4-0.6-2.7-1.9s0.6-2.4,1.9-2.7
	c0.1,0,0.1,0,0.2,0l2.7-0.3l-0.1-1.1l-2.8,0.3c-1.3,0.2-2.5-0.8-2.7-2.1c-0.2-1.3,0.8-2.5,2.1-2.7l3.1-0.4L498,3.4
	c-0.1-1.7,1.2-3.2,3-3.3c0,0,0.1,0,0.1,0c1.8,0,3.2,1.4,3.2,3.1c0,1.1,0,2.2,0.1,3.3l4-0.4L507,4.9c-1-0.7-1.2-2.1-0.5-3.1
	c0.7-1,2-1.2,3.1-0.6l1.8,1.1c1,0.7,1.3,2.2,0.5,3.2c0,0,0,0,0,0.1h0.2c1.3-0.2,2.5,0.8,2.6,2.1s-0.8,2.5-2.1,2.6l-8,1l0.1,1.1
	l6.6-0.8c1.3-0.1,2.4,0.7,2.5,2c0.1,1.3-0.7,2.4-2,2.5L505,17l0.1,1.1l7.6-0.9c1.3-0.2,2.5,0.8,2.7,2.1s-0.8,2.5-2.1,2.7l0,0
	l-7.5,0.9l0.5,2.4l1.2-1.3c0.9-1.4,2.7-1.9,4.1-1c1.4,0.9,1.9,2.7,1,4.1c-0.2,0.3-0.3,0.5-0.6,0.7c-1.1,1.2-2.2,2.3-3.4,3.4
	c0.4,0.6,1,1,1.7,1.1c0.6,0,0.9-0.1,1.1-0.9c0.3-1.1,1.4-1.8,2.5-1.6C515.2,29.9,516.1,31.1,515.9,32.4
	C515.9,32.4,515.9,32.4,515.9,32.4z"/>
<path class="st0" d="M550.9,19.1c-2.6,0.3-5.2,1-7.7,1.8c-4.8,2.1-6.3,4.4-6.3,6.5s2.4,3.8,8.4,4c2.6,0.1,3.8,1.4,3.5,3.4
	s-1.9,2.7-4,2.7c-10.2-0.1-14.6-4.5-14.6-8.9c-0.1-3.2,1.5-6.2,4.2-8c-4.7,0.5-8.8,1.2-12.7,1.9c-2.3,0.4-3.8-0.6-4-2.4
	s0.9-3.3,3.1-3.5l3.5-0.5c4-2.1,7.9-4.5,11.7-7l-10.2,0.6c-2.2,0.1-3.5-1.2-3.5-3s1.3-2.9,3.3-2.9c5.6,0,14-0.4,18.8-0.8
	c1.8-0.2,3.1,0.5,3.7,2c0.6,1.7-0.1,3.6-1.8,4.3c-3,1.7-6.8,3.9-9.5,5.7c4.7-0.5,9.3-1.1,13.4-1.8c2.2-0.4,3.8,0.2,4.1,2.2
	S553.3,18.7,550.9,19.1z"/>
<path class="st0" d="M590.9,23.3c0,9.7-8.7,13.9-20.2,14.7c-2.7,0.2-4.2-0.9-4.4-3s1-3.4,3.6-3.6c6.4-0.4,14.3-1.8,14.3-7.8
	c0-3.8-2.5-6-6.7-5.8c-3.4,0.2-7.5,1.2-11.7,2.1c-2.4,0.5-4-0.5-4.4-2.3s0.7-3.7,3.1-4.2c4.5-0.9,9-1.5,13.6-1.6
	C586.4,11.8,590.9,15.5,590.9,23.3z M567.8,3.5c0.4-1.5,2-2.5,4.3-1.9c3.9,1,8,1.7,12,2.1c2,0.2,3.3,1.3,3.1,3.5
	c-0.2,2-1.7,2.9-3.8,2.8c-4.4-0.2-8.7-1-12.9-2.2C568.1,7,567.3,5.3,567.8,3.5z"/>
<path d="M71,88.5h-4.3c0.7-0.3,1.4-0.6,2-0.9l0,0c3.9-1.6,6.9-4.8,8.3-8.8c1.2-3.8,0.7-7.9-1.3-11.3l0,0l0,0
	c-2.4-4.2-6.9-6.8-11.7-6.7c-2.1,0-4.1,0.4-6,1.2c-10.5,4.2-22.5,6.5-36.5,7.1c-4.1,0.1-8,1.9-10.7,5.1c-2.4,3-3.5,6.9-2.8,10.7
	c0.2,1.5,0.7,3,1.4,4.3c-5.6,1.8-9.5,7.1-9.5,13c0,7.9,6.3,13.9,14.6,13.9h10.4c-1.4,0.7-2.9,1.3-4.4,1.9c-3.9,1.5-7.1,4.4-8.8,8.3
	c-1.5,3.6-1.5,7.7,0,11.4c2.2,5.5,7.6,9,13.5,8.8c2.2,0,4.4-0.4,6.4-1.1c14.4-5,22.9-14.5,26-29.2h13.2c8.2,0,14.4-6,14.4-13.9
	S79.1,88.5,71,88.5z"/>
<path d="M138.9,115.8h-6.8v-6.3h2.2c7.9,0,13.9-5.8,13.9-13.4s-6.1-13.4-13.9-13.4h-31.7c-7.9,0-14.1,5.9-14.1,13.4
	s6.2,13.4,14.1,13.4h1.3v6.3H98c-7.9,0-14.1,5.9-14.1,13.4c0,7.7,6,13.5,14.1,13.5h40.9c7.9,0,14-5.9,14-13.5
	C152.9,121.4,147,115.8,138.9,115.8z"/>
<path d="M208.1,84.1c-0.9-0.2-1.7-0.3-2.6-0.2l0,0c-4.3,0-8.4,2-11.1,5.5c-2.6-4.2-7.1-6.9-12.1-6.9l0,0c-2,0-4,0.4-5.8,1.3
	c-1.6,0.8-3.1,1.9-4.3,3.2c-1.7-0.7-3.5-1.1-5.3-1.1l0,0c-2,0-4,0.5-5.9,1.3c-3.2,1.5-5.6,4.2-6.8,7.5c-1.3,3.7-1,7.8,0.9,11.2
	c1,1.9,1.9,3.8,2.6,5.7c2.1,5.7,6.7,9.3,12.1,9.7c-5.2,3.8-7.1,10.6-4.6,16.6l0,0l0,0c2.2,5.1,7.2,8.4,12.8,8.2
	c2.3,0,4.6-0.5,6.8-1.4c17.4-7.1,30.5-23.5,34.2-42.9C220.7,93.2,216,85.6,208.1,84.1z M205.5,91.9L205.5,91.9z"/>
<path d="M296.4,78c-3.1-3.9-7.9-6-12.9-5.8h-10.6c-0.2-0.8-0.4-1.6-0.7-2.3c-1.5-3.6-4.3-6.4-7.9-7.8c-1.9-0.8-3.9-1.2-5.9-1.2
	c-6,0-11.2,3.7-13.7,9.7c-3.8,8.8-9.6,16.6-16.9,22.7c-3.3,2.7-5.3,6.7-5.6,11c-0.2,3.9,1.2,7.7,3.9,10.5c2.7,2.9,6.4,4.6,10.4,4.6
	c3.6-0.1,7-1.3,9.9-3.4l0,0l0,0c5.9-4.7,11.2-10.2,15.6-16.3h3.7c-4.4,8.8-12,15.5-21.1,19c-4,1.5-7.3,4.6-9,8.5
	c-1.5,3.6-1.5,7.7,0.1,11.3c2.3,5.4,7.6,8.8,13.5,8.7c2.3,0,4.6-0.5,6.8-1.4c22-8.9,36.6-27.1,43.2-54.3
	C300.3,86.7,299.3,81.8,296.4,78z"/>
<path d="M369.7,64.6L369.7,64.6L369.7,64.6c-2.5-2.1-5.7-3.3-8.9-3.3l0,0c-4.3,0.1-8.4,1.9-11.3,5.1l0,0l0,0
	C337,79.7,324.7,88,308.2,94.1c-8.2,3-12.1,11.1-9.3,19.1l0,0v0.1c2,5.7,7.5,9.5,13.6,9.4c2,0,4-0.3,5.9-1c2.6-0.9,5.3-2,8.1-3.3
	v14.2c0,8.8,6.4,15.4,14.9,15.4c8.3,0,15-6.8,15-15.2c0-0.1,0-0.2,0-0.3V99.7c5.3-4.1,10.1-8.7,14.5-13.7c2.7-3.1,4-7.1,3.8-11.1
	C374.5,70.9,372.7,67.2,369.7,64.6z"/>
<path d="M449.5,83.6c-2.4-1.7-5.2-2.6-8.1-2.7l0,0c-4.8,0-9.4,2.6-12.6,7.1c-10.8,15.2-20.8,22.5-38.3,28c-4.3,1.2-7.9,4.1-10,8
	c-1.8,3.6-2.1,7.8-0.8,11.6l0,0l0,0c2,6.1,7.8,10.2,14.3,10.1c1.9,0,3.8-0.3,5.6-0.8c21.3-6.4,42.3-22.2,53.4-40.3
	C457.6,97.2,456.1,88.3,449.5,83.6z"/>
<path d="M385.1,95.7L385.1,95.7c3.1,1.8,6,3.8,8.7,6c3,2.6,6.9,4,10.8,4.1c4.6,0,9-2.2,11.8-5.8c5.3-6.9,3.9-16.7-3.2-22.9
	c-4-3.4-8.6-6.2-13.5-8.1h0c-2.4-1-5-1.5-7.5-1.6l0,0c-5.4,0-10.4,2.9-13,7.7l0,0l0,0C375.1,82.4,377.7,91.6,385.1,95.7
	C385.1,95.7,385.1,95.7,385.1,95.7z"/>
<path class="st1" d="M77.3,100.3c0,3.3-2.5,5.9-6.4,5.9H50.8c-1,12.8-5.9,24.2-21.7,29.6c-4.4,1.5-8.4,0.6-9.9-3.1s0.2-7.5,4.2-9.1
	c10.3-4,13.3-7.5,14-17.4H14.6c-3.9,0-6.6-2.6-6.6-5.9s2.7-5.8,6.4-5.8h23.2v-9.2C32.4,86,27.4,86.4,23,86.6c-3.8,0.1-6.6-1.8-7-4.9
	c-0.6-3.4,1.8-6.4,5.9-6.6c15.3-0.6,28-3.3,39.1-7.7c3.2-1.3,6.2-0.6,7.8,2c2.1,3.7,0.3,7.3-3.2,8.9c-4.7,1.9-9.6,3.4-14.6,4.5v11.7
	h20C75,94.5,77.3,97,77.3,100.3z"/>
<path class="st1" d="M144.9,127.2c0,2.8-2.1,5.5-6,5.5H98c-3.8,0-6.1-2.5-6.1-5.5s2.3-5.4,6.1-5.4h13.9V99.4h-9.3
	c-3.8,0-6.1-2.6-6.1-5.4s2.3-5.4,6.1-5.4h31.7c3.5,0,5.9,2.4,5.9,5.4s-2.2,5.4-5.9,5.4h-10.2v22.3h14.8
	C142.8,121.8,144.9,124.2,144.9,127.2z"/>
<path class="st1" d="M172.9,110.8c-3.1,1.3-6.2-0.3-7.5-4c-0.9-2.2-1.9-4.4-3-6.6c-1.6-3.2-0.6-6.6,2.2-7.8s5.6-0.5,7.7,2.6
	c1.6,2.3,2.8,4.8,3.6,7.5C177,106.2,175.9,109.6,172.9,110.8z M211.3,98.3c-3.2,16.7-14.4,30.9-29.4,37c-4.2,1.7-7.8,0.6-9.2-2.6
	s0.2-6.6,4.2-8.5c13-5.9,19.4-13.8,22.3-28.6c0.8-4,4-6.2,7.4-5.6S212.1,94,211.3,98.3z M177.8,96.7c-1.6-3.4-0.3-6.6,2.2-7.8
	c2.7-1.3,5.9-0.2,7.8,3c1.6,2.5,2.7,5.2,3.4,8.1c0.9,3.4-0.6,6.5-3.3,7.5c-3,1.1-5.9-0.2-7.2-3.6L177.8,96.7z"/>
<path class="st1" d="M291.3,87.4c-5.6,22.9-17.4,40.3-38.5,48.8c-4.1,1.7-8.4,0.6-9.9-3c-1.7-4,0.5-7.7,4.5-9.3
	c15.1-5.7,26.2-18.7,29.4-34.5l-19.1,0.1c-4.8,7.2-10.6,13.7-16.2,17.8c-3.4,2.5-7.2,2.6-9.7-0.2c-2.8-3-2.1-7.4,1-10
	c8.3-6.9,14.9-15.7,19.2-25.7c1.5-3.6,5-5.9,9.2-4.2c3.8,1.6,5,5.7,3.3,9.6l-0.5,1.2h19.5C289.6,78.2,292.5,82.6,291.3,87.4z"/>
<path class="st1" d="M364.9,78.8c-4.9,5.6-10.4,10.6-16.3,15v36.8c0,4.4-3.1,7.4-7,7.4s-6.9-3-6.9-7.4v-27.5c-6,3.6-12.3,6.6-18.8,9
	c-4.3,1.5-8.1,0-9.4-3.5c-1.3-3.7,0.2-7.4,4.5-9c18.5-6.8,31.8-16.2,44.2-29.8c2.5-2.6,6.3-3.7,9.3-1.2
	C367.4,71.4,367.6,75.9,364.9,78.8z"/>
<path class="st1" d="M386.1,77c2.2-3.8,5.8-4.6,10.6-2.6c4.1,1.6,7.9,3.9,11.3,6.8c4,3.4,4.9,8.4,2.2,11.9
	c-2.6,3.3-6.9,4.1-11.4,0.5c-3-2.5-6.3-4.7-9.7-6.7C385.6,85,384.2,80.6,386.1,77C386,77.1,386.1,77,386.1,77z M446.2,98.4
	c-9.1,14.8-27.7,30.5-48.9,36.8c-4.3,1.3-8.5,0.2-10-4.2s1-8.1,5.6-9.5c20.2-6.3,31.3-15.4,42.4-31c2.6-3.8,6.4-4.8,9.5-2.6
	C448.2,90.5,448.5,94.8,446.2,98.4L446.2,98.4z"/>
</svg>