<svg version="1.1" xmlns="http://www.w3.org/2000/svg" viewBox="0 0 489.9 148" width="490" height="148">
<style type="text/css">
	.st0{fill:#712E07;}
	.st1{fill:#FFF;}
</style>
<path class="st0" d="M18.9,30.7c0,1.7-1.3,3-3,3l0,0H3.1c-1.7-0.1-3-1.4-3.1-3V5.4c0.1-1.7,1.4-3,3.1-3.1h12.1c1.7,0,3,1.3,3,3
	c0,1.7-1.3,3-3,3H6.8v6.5h6.9c1.6,0,2.9,1.3,2.9,2.9c0,0,0,0,0,0c0,1.6-1.3,2.9-2.9,2.9c0,0,0,0-0.1,0H6.8v6.9h9
	C17.6,27.6,18.9,28.9,18.9,30.7C18.9,30.6,18.9,30.6,18.9,30.7z"/>
<path class="st0" d="M41.1,33.9c-1.5,0.8-3.4,0.2-4.2-1.3c0,0,0,0,0,0c-0.3-0.6-0.5-1.2-0.7-1.8c-1.4,2.3-4,3.7-6.7,3.5
	c-3.4,0-7.8-1.9-7.8-8c0-5.7,2.9-7.7,13.6-8.1v-0.9c0-1.9-0.7-2.8-3.1-2.8c-1.4,0-2.8,0.4-4.1,1.2c-1.5,0.8-3.3,0.2-4.1-1.2
	c0,0,0-0.1-0.1-0.1c-0.6-1.5,0.1-3.2,1.6-3.9c2.2-1.1,4.6-1.7,7.1-1.7c6.5,0,9.1,2.4,9.1,8.6v8.9c0,1.5,0.2,3,0.7,4.4
	C42.8,32,42.2,33.3,41.1,33.9z M35.3,25.5v-2.2c-5.9,0.2-7.2,0.9-7.2,2.9s1.5,2.5,2.9,2.5C33,28.7,34.8,27.4,35.3,25.5z"/>
<path class="st0" d="M58.6,15.5c-2,0.4-3.5,1.1-4.3,2.6v12.5c-0.1,1.9-1.7,3.3-3.6,3.2c-1.7-0.1-3.1-1.5-3.2-3.2V15.8
	c-0.1-1-0.2-2-0.4-3.1c-0.3-1.5,0.6-2.9,2.1-3.4c1.8-0.7,3.8,0.1,4.5,1.9c0.1,0.1,0.1,0.3,0.1,0.4l0.2,0.6c0.7-1.3,1.8-2.2,3.2-2.7
	c1.5-0.6,3.3,0.1,3.9,1.7c0,0.1,0.1,0.2,0.1,0.3c0.5,1.7-0.5,3.4-2.2,3.9C58.9,15.5,58.7,15.5,58.6,15.5z"/>
<path class="st0" d="M85.3,16.9v13.8c-0.1,1.9-1.7,3.3-3.6,3.2c-1.7-0.1-3.1-1.5-3.2-3.2v-12c0-2.7-1.1-4-3.5-4
	c-1.6,0-3.1,0.6-4.2,1.8v14.2c-0.1,1.9-1.7,3.3-3.6,3.2c-1.7-0.1-3.1-1.5-3.2-3.2V15.8c0-1.1-0.3-1.9-0.4-2.9
	c-0.2-1.5,0.6-3,2.1-3.5c1.8-0.7,3.8,0.1,4.6,1.9c0.1,0.1,0.1,0.3,0.1,0.4c0,0,0.1,0.1,0.1,0.2c1.8-1.7,4.2-2.7,6.8-2.7
	C84.2,9.1,85.3,13.7,85.3,16.9z"/>
<path class="st0" d="M136.6,16.9v13.8c0,1.8-1.4,3.4-3.3,3.4c0,0,0,0-0.1,0c-1.9,0-3.4-1.5-3.4-3.4c0,0,0,0,0,0v-12
	c0-2.5-1.2-4-3.6-4c-1.5,0.1-2.9,0.6-4.1,1.6c0.2,1.3,0.3,2.6,0.3,3.9v10.6c-0.1,1.8-1.7,3.2-3.5,3.1c-1.7-0.1-3-1.4-3.1-3.1V18.7
	c0-2.7-1.1-4-3.6-4c-1.4,0.1-2.7,0.7-3.7,1.8v14.2c-0.1,1.9-1.7,3.3-3.6,3.2c-1.7-0.1-3.1-1.5-3.2-3.2V16.1
	c-0.1-1.1-0.2-2.3-0.4-3.4c-0.2-1.5,0.7-3,2.2-3.4c1.8-0.7,3.9,0.3,4.5,2.1c0,0.1,0.1,0.2,0.1,0.3c0,0.1,0,0.1,0,0.2
	c1.8-1.7,4.1-2.6,6.5-2.7c4,0,5.5,1.7,6.3,2.7c2.2-1.7,4.9-2.6,7.7-2.7C135.5,9.1,136.6,13.7,136.6,16.9z"/>
<path class="st0" d="M165.3,21.5c0,5.8-2.6,13.2-12,13.2s-12-7.4-12-13.2c0-5.6,2.6-12.9,12-12.9S165.3,15.9,165.3,21.5z
	 M158.3,21.4c0-5.3-2.1-7.2-5.1-7.2s-5.1,1.9-5.1,7.2c0,5.5,2,7.6,5.1,7.6S158.3,26.9,158.3,21.4L158.3,21.4z"/>
<path class="st0" d="M181.1,15.5c-2,0.4-3.5,1.1-4.3,2.6v12.5c-0.1,1.9-1.7,3.3-3.6,3.2c-1.7-0.1-3.1-1.5-3.2-3.2V15.8
	c-0.1-1-0.2-2-0.4-3.1c-0.3-1.5,0.6-2.9,2.1-3.4c1.8-0.7,3.8,0.1,4.5,1.9c0.1,0.1,0.1,0.3,0.1,0.4l0.2,0.6c0.7-1.3,1.8-2.2,3.2-2.7
	c1.5-0.6,3.3,0.1,3.9,1.7c0,0.1,0.1,0.2,0.1,0.3c0.5,1.7-0.5,3.4-2.2,3.9C181.4,15.5,181.3,15.5,181.1,15.5z"/>
<path class="st0" d="M192.2,23.5v0.1c0,1.3,0.8,5.1,6.2,5.1c1.9,0,2.7-0.6,4.2-1.1c1.5-0.5,3.1,0.4,3.5,1.9c0.4,1.4-0.2,2.8-1.5,3.4
	c-2,1-4.3,1.5-6.5,1.5c-10.1,0-12.6-6.5-12.6-12.5c0-7.2,3.9-13.2,11.9-13.2c7.3,0,9.3,5.4,9.3,10.8v0.8c0.1,1.6-1.1,3-2.7,3.1
	c-0.2,0-0.3,0-0.5,0L192.2,23.5z M192.3,18.8h8.1c0-2.5-0.7-4.7-3.9-4.7C193.8,14,192.4,17,192.3,18.8z"/>
<path class="st0" d="M244.4,21.4c0,7.1-2.8,13.1-10.2,13.1c-2.3-0.1-4.5-1-6.2-2.4l-0.1,0.2c-0.6,1.1-1.7,1.8-2.9,1.8
	c-1.8,0-3.2-1.4-3.2-3.2V3.7c0-1.8,1.5-3.3,3.3-3.3c1.8,0,3.3,1.5,3.3,3.3c0,0,0,0,0,0v7.8c1.7-1.7,3.9-2.6,6.3-2.6
	C241.8,8.9,244.4,14.4,244.4,21.4z M237.5,21.5c0-3.8-1-6.9-4.1-6.9c-2.1,0-4,1.3-4.9,3.2c-0.2,1.2-0.2,2.4-0.2,3.5v0.7
	c0,1.4,0.1,2.9,0.3,4.3c1,1.5,2.6,2.4,4.4,2.4C236.7,28.8,237.5,25.2,237.5,21.5z"/>
<path class="st0" d="M269.1,13.4c-1.5,6.8-4.1,14.7-6.4,19c-1.5,3.2-3.3,6.2-5.4,9c-1.1,1.6-3.3,2-5,1c-1.5-1-2-3-1-4.5
	c0-0.1,0.1-0.1,0.2-0.2c1.4-2,2.7-3.9,3.9-5.8L247.5,14c-0.7-1.7,0.1-3.7,1.8-4.5c0.4-0.2,0.9-0.3,1.4-0.3c1.5-0.1,2.9,0.9,3.3,2.3
	l5,12.9l0.9-2.6c1.2-4.2,1.8-6.6,2.5-9.9c0.4-1.7,1.9-2.8,3.6-2.8C268.5,9.2,269.5,11.5,269.1,13.4z"/>
<path class="st0" d="M290.2,3.8v26.9c-0.1,1.9-1.7,3.3-3.6,3.2c-1.7-0.1-3.1-1.5-3.2-3.2V3.8c0.1-1.9,1.7-3.3,3.6-3.2
	C288.7,0.6,290.1,2,290.2,3.8z"/>
<path class="st0" d="M318.9,21.5c0,5.8-2.6,13.2-12,13.2s-12-7.4-12-13.2c0-5.6,2.6-12.9,12-12.9S318.9,15.9,318.9,21.5z
	 M311.9,21.4c0-5.3-2.1-7.2-5.1-7.2s-5,1.9-5,7.2c0,5.5,2,7.6,5,7.6S311.9,26.9,311.9,21.4L311.9,21.4z"/>
<path class="st0" d="M345.3,12.1c-0.1,0.8-0.2,1.7-0.2,2.3v18.5c0,9-7,10.7-11.6,10.7c-3.2,0-6.7-0.4-8.9-1.9
	c-1.5-0.9-1.9-2.9-1-4.4c0-0.1,0.1-0.1,0.1-0.2c1-1.3,2.7-1.7,4.1-1c1.7,0.8,3.6,1.2,5.5,1.2c3.3,0,5.1-1.8,5.1-5.3v-0.8
	c-1.5,2-3.9,3.2-6.5,3.1c-7.1,0-9.6-5.5-9.6-12.5s2.8-13,10.2-13c2.4-0.1,4.7,0.8,6.4,2.5c0-0.1,0.1-0.2,0.1-0.2
	c0.3-1.4,1.6-2.3,3-2.2C344.5,9,345.5,10.4,345.3,12.1z M338.3,25.5c0.2-1.2,0.3-2.3,0.3-3.5v-0.7c0-1.4-0.1-2.9-0.3-4.3
	c-0.9-1.5-2.5-2.4-4.3-2.4c-3.8,0-4.6,3.6-4.6,7.2s1,6.9,4.1,6.9C335.6,28.7,337.5,27.4,338.3,25.5L338.3,25.5z"/>
<path class="st0" d="M372.8,12.1c-0.1,0.8-0.2,1.7-0.2,2.3v18.5c0,9-7,10.7-11.6,10.7c-3.2,0-6.7-0.4-8.9-1.9
	c-1.5-0.9-1.9-2.9-1-4.4c0-0.1,0.1-0.1,0.1-0.2c0.9-1.3,2.6-1.7,4.1-1c1.7,0.8,3.6,1.2,5.5,1.2c3.3,0,5.1-1.8,5.1-5.3v-0.8
	c-1.5,2-3.9,3.2-6.5,3.1c-7.1,0-9.6-5.5-9.6-12.5s2.8-13,10.2-13c2.4-0.1,4.7,0.9,6.4,2.6c0.1-0.1,0.1-0.2,0.1-0.2
	c0.3-1.4,1.6-2.3,3-2.2C372,9,372.9,10.4,372.8,12.1z M365.8,25.5c0.2-1.2,0.3-2.3,0.3-3.5v-0.7c0-1.4-0.1-2.9-0.3-4.3
	c-0.9-1.5-2.6-2.4-4.4-2.4c-3.8,0-4.6,3.6-4.6,7.2s1,6.9,4.1,6.9C363,28.7,364.9,27.5,365.8,25.5L365.8,25.5z"/>
<path class="st0" d="M377.6,3.8c0.2-2.3,2.2-4,4.5-3.8c2,0.2,3.6,1.8,3.8,3.8c-0.1,2.2-1.9,3.9-4.1,3.8C379.6,7.7,377.7,6,377.6,3.8
	z M385.2,12.7v17.9c-0.1,1.9-1.7,3.3-3.6,3.2c-1.7-0.1-3.1-1.5-3.2-3.2V12.7c-0.1-1.9,1.3-3.5,3.2-3.6c1.9-0.1,3.5,1.3,3.6,3.2
	C385.2,12.5,385.2,12.6,385.2,12.7z"/>
<path class="st0" d="M412.2,16.9v13.8c-0.1,1.9-1.7,3.3-3.6,3.2c-1.7-0.1-3.1-1.5-3.2-3.2v-12c0-2.7-1.1-4-3.5-4
	c-1.6,0-3.1,0.6-4.2,1.8v14.2c-0.1,1.9-1.7,3.3-3.6,3.2c-1.7-0.1-3.1-1.5-3.2-3.2V15.8c-0.1-1-0.2-1.9-0.4-2.9
	c-0.2-1.5,0.6-3,2.1-3.5c1.8-0.7,3.8,0.1,4.5,1.9c0.1,0.1,0.1,0.3,0.1,0.4c0,0,0.1,0.1,0.1,0.2c1.8-1.7,4.2-2.7,6.8-2.7
	C411.1,9.1,412.2,13.7,412.2,16.9z"/>
<path class="st0" d="M439.8,12.1c-0.1,0.8-0.2,1.7-0.2,2.3v18.5c0,9-7,10.7-11.6,10.7c-3.2,0-6.7-0.4-8.9-1.9
	c-1.5-0.9-1.9-2.9-1-4.4c0-0.1,0.1-0.1,0.1-0.2c1-1.3,2.7-1.7,4.1-1c1.7,0.8,3.6,1.2,5.5,1.2c3.3,0,5.1-1.8,5.1-5.3v-0.8
	c-1.5,2-3.9,3.2-6.5,3.1c-7.1,0-9.6-5.5-9.6-12.5s2.8-13,10.2-13c2.4-0.1,4.7,0.9,6.4,2.6c0-0.1,0.1-0.2,0.1-0.2
	c0.3-1.4,1.6-2.3,3-2.2C439,9,440,10.4,439.8,12.1z M432.8,25.5c0.2-1.2,0.3-2.3,0.3-3.5v-0.7c0-1.4-0.1-2.9-0.3-4.3
	c-0.9-1.5-2.6-2.4-4.4-2.4c-3.8,0-4.6,3.6-4.6,7.2s1,6.9,4.1,6.9C430.1,28.7,432,27.5,432.8,25.5L432.8,25.5z"/>
<path class="st0" d="M455.2,3.8c0.1-2.2,2-3.9,4.2-3.8c2.2-0.1,4,1.6,4.1,3.8c0,0,0,0,0,0c-0.1,2.2-1.9,3.9-4.1,3.8
	C457.2,7.7,455.3,6,455.2,3.8z M462.8,12.7v17.9c-0.1,1.9-1.7,3.3-3.6,3.2c-1.7-0.1-3.1-1.5-3.2-3.2V12.7c-0.1-1.9,1.3-3.5,3.2-3.6
	c1.9-0.1,3.5,1.3,3.6,3.2C462.8,12.5,462.8,12.6,462.8,12.7z"/>
<path class="st0" d="M489.9,16.9v13.8c-0.1,1.9-1.7,3.3-3.6,3.2c-1.7-0.1-3.1-1.5-3.2-3.2v-12c0-2.7-1.1-4-3.5-4
	c-1.6,0-3.1,0.6-4.2,1.8v14.2c-0.1,1.9-1.7,3.3-3.6,3.2c-1.7-0.1-3.1-1.5-3.2-3.2V15.8c0-1.1-0.3-1.9-0.4-2.9
	c-0.2-1.5,0.6-3,2.1-3.5c1.8-0.7,3.8,0.1,4.6,1.9c0.1,0.2,0.1,0.3,0.2,0.5c0,0,0.1,0.1,0.1,0.2c1.8-1.7,4.2-2.7,6.8-2.7
	C488.7,9.1,489.9,13.7,489.9,16.9z"/>
<path d="M56,135.9c2,8,10,12.8,18,10.9c2.7-0.7,5.2-2.1,7.2-4.1c0.6-0.6,1.1-1.3,1.6-2.1c4.5,6.8,13.6,8.7,20.3,4.2
	c1.7-1.1,3.2-2.6,4.3-4.3c4.4,6.8,13.5,8.7,20.4,4.3c2.6-1.7,4.6-4.2,5.7-7l3.7,4c1.3,1.4,5.1,5.6,11.4,5.6c4.8,0,9.2-2.4,11.9-6.3
	c4.1,4.1,10.1,6.4,17.5,6.4c4.1,0,8.2-0.9,11.9-2.7c3.7,2.7,8.4,3.4,12.7,2.1c6.9-2,11.2-8.7,10.2-15.8V131
	c-0.1-0.6-0.2-1.1-0.3-1.7c-0.4-2.4-0.6-4.8-0.6-7.3V97.3c0.1-8.1-6.4-14.8-14.5-14.9c-6.8-0.1-12.8,4.5-14.5,11.2
	c-2-7.8-10-12.5-17.8-10.5c-2.9,0.7-5.5,2.4-7.4,4.6c-2.7-3.4-6.8-5.3-11.2-5.3c-6.1,0-10,4.2-11.2,5.6l-0.2,0.2l-0.2,0.3l-0.5,0.7
	v-9.4c0-8.1-6.6-14.7-14.7-14.7c-4.6,0-8.9,2.1-11.6,5.7c-3.1-4.1-7.9-6.4-13-6.4c-7.7-0.1-14.4,5.3-15.9,12.8
	c-3-5.8-9-9.3-15.5-9.1c-7.4,0-14,4.6-16.4,11.5v0.1l0,0.1l-4.6,13.3l-4.5-13.3c-2.5-7.6-8.7-11.9-17-11.9c-7.5,0-16,5.3-17,16.8
	L0,131.7v0.2c-0.5,7.9,5.5,14.8,13.5,15.3c0.3,0,0.6,0,0.9,0c6.6,0,12.3-4.5,14-10.9c4.2,7.6,13.7,10.3,21.3,6.1
	C52.4,140.9,54.6,138.6,56,135.9z M154.2,109.5v8.4l-3.7-3.8L154.2,109.5z"/>
<path d="M446.4,108.4c1.5-1,2.7-2.3,3.6-3.8c1.9-2.9,2.5-6.5,1.8-9.9c-0.9-3.8-3.3-7-6.6-9.1c-4.2-2.5-9.1-3.8-14-3.9
	c-4.2,0-10.4,0.7-15.8,4.3c-2.4,1.6-4.5,3.7-6.1,6.1c-0.1-0.2-0.3-0.4-0.4-0.6c-3.2-4.6-9.4-10-21-10c-10.7,0-19.4,4.4-24.9,11.9
	V79.8c0-8.1-6.6-14.7-14.7-14.7c-4.7,0-9.1,2.2-11.8,6c-3.1-4.2-8-6.7-13.2-6.6c-7.7-0.1-14.4,5.3-15.9,12.8
	c-2.9-5.8-9-9.4-15.5-9.2c-7.4,0-14,4.6-16.4,11.5l0,0.1v0.1L271,93.2l-4.5-13.3c-2.5-7.6-8.7-11.9-17-11.9c-7.5,0-16,5.3-17,16.8
	l-4.1,46.9v0.2c-0.5,7.9,5.5,14.8,13.5,15.3c0.3,0,0.6,0,0.9,0c6.6,0,12.3-4.5,14-10.9c4.2,7.5,13.7,10.2,21.3,6
	c2.7-1.5,4.8-3.7,6.2-6.4c2,8,10,12.9,18,10.9c2.7-0.7,5.2-2.1,7.2-4.1c0.6-0.6,1.1-1.3,1.6-2.1c4.4,6.8,13.5,8.7,20.3,4.2
	c1.8-1.2,3.3-2.7,4.4-4.6c4.3,6.9,13.3,9,20.2,4.7c3.2-2,5.5-5.1,6.4-8.7c5.6,7.5,14.7,11.7,26.8,11.7c5.7,0,11.4-1.3,16.5-3.9l0,0
	l0,0c1.2-0.6,2.3-1.4,3.3-2.3l0.6,0.5c4.7,3.7,11.3,5.6,19.1,5.6c5.6,0.1,11.1-1.5,15.7-4.6c4-2.9,8.8-8.5,8.8-18.6
	C453.5,118.5,451,112.6,446.4,108.4z"/>
<path class="st1" d="M70.4,137.2c-3.7,0-6.8-2.9-6.9-6.6l-2-38.2l-12.1,36.4c-1.2,4.1-5.5,6.4-9.5,5.2c-2.5-0.7-4.5-2.7-5.2-5.2
	L22.6,92.4L20.9,131c-0.2,3.6-3.2,6.3-6.7,6.1c-3.6-0.2-6.3-3.2-6.1-6.7l0,0l4.1-46.9c0.6-6.6,4.8-9.5,9-9.5c4.9,0,8.1,2.2,9.4,6.4
	l12,35.8l12.2-35.8c1.3-3.9,4.9-6.4,9-6.4c6.1,0,9,4.2,9.8,9.5l3.7,46.5c0.2,3.8-2.8,7-6.6,7.2C70.6,137.2,70.5,137.2,70.4,137.2z"
	/>
<path class="st1" d="M86.9,77.8c0-4.2,3.7-7.4,8.2-7.4s8.1,3.3,8.1,7.4c-0.2,4.3-3.8,7.7-8.1,7.5c0,0,0,0,0,0
	C90.6,85.3,86.9,81.9,86.9,77.8z M101.8,95.3v35.2c0,3.7-3,6.7-6.7,6.7s-6.7-3-6.7-6.7V95.3c0-3.7,3-6.7,6.7-6.7
	S101.8,91.6,101.8,95.3z"/>
<path class="st1" d="M148.6,137.4c-2.2,0-3.9-1.2-5.5-3l-16.6-18v14.1c0,3.7-3,6.7-6.7,6.7s-6.7-3-6.7-6.7V77.8c0-3.7,3-6.7,6.7-6.7
	s6.7,3,6.7,6.7v33l14.9-19.4c1.5-1.7,3.1-3,5.3-3c3.4-0.1,6.2,2.6,6.2,6c0,1.4-0.4,2.7-1.2,3.8l-11.9,14.4l14.2,14.6
	C157.2,131,153.9,137.4,148.6,137.4z"/>
<path class="st1" d="M200.2,137.3c-3.6,1.1-7-1.1-8.6-4.7l-0.2-0.4c-3.6,3.5-8.4,5.4-13.4,5.4c-13.6,0-15.8-9.1-15.8-15.5V95.2
	c0-3.7,3-6.6,6.6-6.6s6.6,3,6.6,6.6c0,0,0,0,0,0v23.4c0,5.3,2.2,8,6.8,8c3.1,0,6.1-1.3,8.2-3.5V95.3c0-3.7,3-6.7,6.7-6.7
	s6.7,3,6.7,6.7v24.8c0.1,3.4,0.4,6.8,1,10.1C205.5,133.4,203.4,136.5,200.2,137.3z"/>
<path class="st1" d="M298.7,137.2c-3.7,0-6.8-2.9-6.9-6.6l-2-38.2l-12.1,36.4c-1.2,4.1-5.5,6.4-9.5,5.2c-2.5-0.7-4.5-2.7-5.2-5.2
	l-12.2-36.4l-1.7,38.6c0,3.6-2.9,6.4-6.5,6.4s-6.4-2.9-6.4-6.5c0-0.1,0-0.3,0-0.4l4.1-46.9c0.6-6.6,4.8-9.5,9-9.5
	c4.9,0,8.1,2.2,9.4,6.4l12,35.8L283,80.4c1.3-3.9,4.9-6.4,9-6.4c6.1,0,9,4.2,9.8,9.5l3.7,46.5c0.2,3.8-2.8,7-6.6,7.2
	C298.9,137.2,298.8,137.2,298.7,137.2z"/>
<path class="st1" d="M315.2,77.8c0-4.2,3.7-7.4,8.2-7.4s8.1,3.3,8.1,7.4c-0.2,4.3-3.8,7.7-8.1,7.5c0,0,0,0,0,0
	C318.9,85.3,315.2,81.9,315.2,77.8z M330.1,95.3v35.2c0,3.7-3,6.7-6.7,6.7s-6.7-3-6.7-6.7V95.3c0-3.7,3-6.7,6.7-6.7
	S330.1,91.6,330.1,95.3z"/>
<path class="st1" d="M355,77.8v52.7c0,3.7-3,6.7-6.7,6.7s-6.7-3-6.7-6.7V77.8c0-3.7,3-6.7,6.7-6.7S355,74,355,77.8z"/>
<path class="st1" d="M377.8,116.5v0.2c0,2.6,1.6,10.1,12.1,10.1c3.8,0,5.4-1.1,8.2-2.1c2.7-1,5.7,0.3,6.8,3c1.3,3.2,0.2,5.8-2.8,7.4
	c-4,2-8.4,3-12.8,3c-19.8,0-24.8-12.8-24.8-24.6c0-14.2,7.6-25.9,23.4-25.9c14.2,0,18.2,10.6,18.2,21.2v1.6c0,3.8-2.3,6.2-6.2,6.2
	L377.8,116.5z M378.1,107.1h16c0-5-1.4-9.3-7.6-9.3C380.9,97.8,378.2,103.6,378.1,107.1z"/>
<path class="st1" d="M445.5,122.6c0,12-9.2,15.3-16.6,15.3c-5.8,0-10.8-1.3-14.2-3.9c-2.2-1.7-2.9-4.7-1.6-7.1
	c1.4-2.7,4.7-3.7,7.4-2.3c0.1,0,0.1,0.1,0.2,0.1c2.3,1.5,5,2.3,7.8,2.4c2,0.2,3.7-1.3,3.9-3.3c0-0.1,0-0.3,0-0.4
	c0-2.6-3-4.4-8.2-7.1c-6.2-3.2-10.2-6.4-10.2-13.9c0-11.5,9.7-14.6,17.2-14.6c3.4,0,6.8,0.9,9.8,2.6c2.6,1.6,4.3,4.9,2.3,8
	c-1.5,2.5-4.9,2.9-7.6,1c-1.4-1-3.1-1.5-4.8-1.4c-2-0.1-3.6,1.5-3.7,3.5c0,0.1,0,0.1,0,0.2c0,1.9,1.5,3.1,6.6,5.8
	C439.9,110.8,445.5,114.2,445.5,122.6z"/>
</svg>