<svg version="1.1" xmlns="http://www.w3.org/2000/svg" viewBox="0 0 530 148" width="530" height="148">
<style type="text/css">
	.st0{fill:#712E07;}
	.st1{fill:#FFF;}
</style>
<path class="st0" d="M32,24.2c-0.1,1.7-0.2,3.1-0.3,4.4h4.6v4.2h-5.1c-0.1,1.2-0.5,2.3-1.1,3.3c-0.8,1.1-2,1.8-3.4,1.9
	c-1.8,0.2-3.6,0.2-5.5,0.1c-0.1-1.3-0.5-2.6-1.1-3.7c1.4,0.1,2.9,0.2,4.3,0.2c0.6,0.1,1.1-0.2,1.4-0.7c0.2-0.4,0.4-0.7,0.5-1.1H4.4
	c0.5-2.4,1-5.5,1.5-8.7H0.3v-4.3h6.2c0.3-2.5,0.6-5,0.9-7.2c-1,1.3-2,2.4-3,3.4c-1.4-1-2.9-2-4.4-2.8C4.1,9.6,7.3,5.1,9.4,0l4.8,1.4
	c-0.4,0.8-0.8,1.7-1.2,2.5h23.5v4.3h-26c-0.7,1.1-1.4,2.1-2.1,3.1h24.1c0,0,0,1.5,0,2.1c-0.1,2.4-0.2,4.4-0.2,6.4h5.9v4.3H32z
	 M10.8,24c-0.2,1.6-0.4,3.1-0.7,4.6H19c-1.5-1.2-3.1-2.2-4.9-3l1.6-1.6L10.8,24z M11.9,15.6c-0.2,1.5-0.4,2.9-0.6,4.4h8.1
	c-1.5-1.1-3.1-2-4.7-2.8l1.7-1.6L11.9,15.6z M27,28.7c0.1-1.3,0.2-2.8,0.3-4.6h-8.5c1.7,0.9,3.3,2,4.8,3.2l-1.4,1.4L27,28.7z
	 M27.5,20.1c0.1-1.4,0.1-2.8,0.2-4.4h-8.3c1.7,0.9,3.2,1.9,4.7,3.1l-1.4,1.4H27.5z"/>
<path class="st0" d="M64.4,20.1c2.9,6.5,8.1,11.2,16,13.3c-1.3,1.3-2.5,2.8-3.3,4.5c-7.7-2.5-12.6-7.2-16-13.9
	c-2.2,5.4-6.8,10.6-16,14c-0.9-1.5-1.9-3-3.2-4.2c9.4-3.3,13.4-8.6,15.1-13.8H43.3v-5h14.7c0.1-1.1,0.1-2.1,0.1-3.1V7.9H44.7v-5H77
	v5H63.2v4.2c0,1,0,2-0.1,3.1h15.5v5L64.4,20.1z"/>
<path class="st0" d="M114.7,28.7h-6.4l4,0.9c-0.7,1.4-1.3,2.7-2,3.8h10.3v4.1H84.8v-4.1h10c-0.4-1.3-1-2.5-1.7-3.7l3.2-1h-6V18.1
	c-1.4,1-2.8,1.8-4.3,2.5c-0.9-1.3-1.9-2.5-3-3.6c2.5-1.1,4.9-2.6,6.9-4.4c-1.3-1.3-2.8-2.4-4.3-3.4l2.6-2.7c1.7,0.9,3.2,2,4.6,3.3
	c1.2-1.3,2.2-2.7,3.1-4.2h-9.7V1.7h12.1l0.8-0.2l3.2,1.6c-1,2.9-2.5,5.6-4.4,8h9.8c-2.2-2.9-4-6-5.4-9.4l4.3-1.3
	c0.6,1.4,1.3,2.8,2.1,4.2c1.5-1.2,2.9-2.5,4.2-4l3.7,2.6c-1.8,1.5-3.9,3.1-5.7,4.4c0.6,0.7,1.2,1.4,1.8,2.1c1.7-1.3,3.3-2.7,4.7-4.3
	l3.6,2.5c-1.7,1.5-3.8,3.1-5.5,4.3c2.1,1.7,4.4,3,6.9,4c-1.3,1.2-2.4,2.6-3.3,4.1c-1.6-0.7-3-1.6-4.4-2.6L114.7,28.7z M95.8,13.5
	c-1.4,1.4-2.9,2.7-4.5,3.9h22.9c-1.5-1.1-2.9-2.4-4.2-3.8v1.4H95.8V13.5z M109.5,21.2H95.3v3.6h14.2L109.5,21.2z M105.5,33.3
	c0.8-1.5,1.5-3.1,2.1-4.7h-9.9c0.8,1.2,1.5,2.6,1.9,4l-2,0.7L105.5,33.3z"/>
<path class="st0" d="M160.6,22.4c-2.4,1.9-4.9,3.7-7.4,5.4c2.9,2.2,6.3,3.8,9.8,4.7c-1.3,1.3-2.4,2.7-3.3,4.3
	c-5.1-1.6-9.6-4.7-12.9-8.9v5.8c0,2.3-0.5,3.4-2.2,4s-3.9,0.7-6.9,0.7c-0.4-1.5-0.9-2.9-1.6-4.2c1.9,0.1,4.3,0.1,4.9,0.1
	s0.9-0.2,0.9-0.7v-3c-4.5,2-9.2,4-12.9,5.5l-2.7-4.4c3.8-1.3,9.8-3.5,15.5-5.8v-6.4h-15.2v-4.2h25.7l0.1-2.2h-22V8.8h22.2l0.1-2.2
	h-23.6V2.2h24.3l0.9-0.2l3.9,0.2c-0.1,4.2-0.4,8.9-0.8,13.1h5v4.2h-5.9L160.6,22.4z M136.3,27.9c-2.2-2-4.7-3.8-7.3-5.3l3.2-2.9
	c2.7,1.3,5.2,3,7.6,4.9L136.3,27.9z M146.9,20.4c0.9,1.6,1.9,3.1,3.1,4.5c2.2-1.6,4.3-3.4,6.3-5.3h-9.4L146.9,20.4z"/>
<path class="st0" d="M174,24c-0.8,3.8-2.2,7.5-4.1,11c-1-0.9-2.1-1.6-3.3-2.3c1.7-2.9,2.9-6.1,3.5-9.4L174,24z M185.9,9h-18.6V4.8
	h7.6c-0.4-1.3-0.9-2.5-1.4-3.8l4.5-0.9c0.7,1.5,1.4,3.1,1.9,4.7h6L185.9,9z M179.3,22v11.5c0,2-0.3,3-1.6,3.7s-2.8,0.7-5,0.7
	c-0.3-1.4-0.7-2.7-1.3-4c1.3,0,2.6,0,3,0s0.6-0.1,0.6-0.5V22.1h-5.8V11.2h15.4v10.9L179.3,22z M173.3,18.3h6.9v-3.4h-6.9V18.3z
	 M183.2,22.7c1.3,2.3,2.3,4.7,3,7.2l-3.6,1.7c-0.6-2.6-1.5-5.1-2.8-7.4L183.2,22.7z M200.4,33.8c0.2,0,0.5,0,0.7-0.2
	c0.2-0.1,0.3-0.4,0.4-1.2c0.1-1.5,0.2-3,0.2-4.5c1.1,0.9,2.4,1.6,3.7,2c0,1.7-0.2,3.4-0.5,5c-0.2,0.9-0.8,1.6-1.6,2
	c-0.8,0.4-1.6,0.5-2.4,0.5h-2.5c-1,0-2-0.3-2.8-0.9c-0.7-0.7-1.1-1.5-1.1-4.4v-9.4c-1.4,6-3.7,11.5-8,15.6c-0.9-1.2-2-2.2-3.3-3
	c5.5-5.1,7.4-12.6,8.2-20.5h-4.8v-4.3h5.1c0.2-3.5,0.1-6.9,0.2-10.2h4.5c0,3.3-0.1,6.8-0.2,10.2h8.6v4.3h-8.9
	c-0.1,0.7-0.2,1.4-0.2,2h3.2v15.5c0,0.7,0,1.1,0.2,1.3c0.2,0.2,0.4,0.2,0.6,0.2L200.4,33.8z M200.6,9.9c-1.1-2.3-2.5-4.5-4.1-6.5
	l3.1-1.8c1.7,1.9,3.1,4,4.3,6.2L200.6,9.9z"/>
<path class="st0" d="M246,7.8h-4.7v24.3c0,2.9-0.7,4.4-2.6,5.2s-5.1,0.9-9.2,0.9c-0.4-1.8-1.1-3.5-2-5.1c2.9,0.2,6.4,0.1,7.4,0.1
	s1.3-0.3,1.3-1.1V7.8h-27V2.9H246V7.8z M217.7,28.2v3.1H213V12.4h17.3v15.8H217.7z M217.7,17v6.5h7.8V17H217.7z"/>
<path class="st0" d="M266.4,21.8c0.3,1.6,0.7,3.1,1.3,4.6c-11.7,6.1-13.5,7.3-14.7,8.5c-0.7-1.4-1.6-2.7-2.7-3.9
	c1.1-0.7,3-2.5,3-4.6V3h5.3v22.7L266.4,21.8z M283,38.1c-2-3.1-4.3-5.9-6.9-8.6c-2.7,3.9-6.3,7-10.6,8.9c-1.1-1.5-2.3-3-3.7-4.2
	c12.2-5,15.1-15.1,15.7-32.3l5.2,0.2c-0.5,9.5-1.6,17-4.2,22.9c3.2,3.2,6.9,7.1,8.7,9.8L283,38.1z M267.9,16.3
	c-1.5-3.4-3.5-6.7-5.8-9.6l4.2-2.3c2.3,2.9,4.3,6,6,9.3L267.9,16.3z"/>
<path class="st0" d="M329.2,13.4c-1.1,3.9-2.8,7.7-5.1,11.1c0.5,1.7,1.1,2.6,1.6,2.6s0.8-1.5,0.9-4.8c0.9,0.9,2,1.7,3.1,2.2
	c-0.6,5.3-1.8,6.8-4.5,6.8c-1.6,0-2.9-1.2-3.9-3.2c-1.5,1.8-3.3,3.3-5.3,4.5c4.2,0,11.4,0,14.1-0.2c-0.9,1.5-1.5,3.1-1.9,4.8h-14.8
	c-8,0-13.2-1.2-16.8-6.4c-0.5,2.6-1.4,5.1-2.7,7.3c-0.8-1.2-1.9-2.2-3.1-3c2.6-4.6,2.8-10.9,2.6-16.4l4.1,0.2c0,1.5,0,3.2,0,4.8
	c0.5,1.6,1.3,3,2.2,4.3V16.5H292v-4.3h7V8.8h-5.7V4.6h5.7V0.2h4.5v4.3h5.5v4.2h-5.5v3.5h6.2v4.3h-5.4V21h4.6v3.7
	c1-0.6,1.7-1.8,1.7-3v-15h7.3c-0.1-2.2-0.2-4.3-0.2-6.5h4.3c0,2.2,0,4.4,0.1,6.5h3.4c-0.9-1.6-2-3.1-3.1-4.6l3.3-1.7
	c1.3,1.5,2.4,3.1,3.5,4.7l-2.9,1.5h3.2v4h-7.2c0.2,2.9,0.5,5.5,0.8,7.7c1-2,1.8-4,2.4-6.1L329.2,13.4z M304.2,31.4
	c2.5,1,5.6,1.3,9.4,1.3h2.3c-0.8-1.2-1.8-2.3-2.9-3.4c2.6-1.5,4.9-3.4,6.8-5.8c-0.9-4.2-1.5-8.5-1.8-12.8h-3.2v10.7l2.9-1.7
	c0.2,1.3,0.6,2.5,1.1,3.7c-6.4,4-7.7,4.8-8.3,5.6c-0.4-1.4-1-2.7-1.7-3.9h-4.6V31.4z"/>
<path class="st0" d="M347.3,22.1l-3.8,1.1v9.6c0,2.2-0.4,3.4-1.6,4.2s-3,1-5.5,1c-0.2-1.6-0.6-3.1-1.3-4.5c1.5,0.1,2.8,0,3.3,0
	s0.6-0.2,0.6-0.7v-8.3c-1.3,0.3-2.4,0.7-3.6,1l-1-4.7c1.4-0.3,2.9-0.6,4.6-1v-7.4h-4V7.9h4V0.2h4.5v7.7h3.1v4.5h-3.1v6.2l3.1-0.9
	L347.3,22.1z M361.9,27.8c0,4.6-2.5,8.5-13.8,10.4c-0.6-1.4-1.4-2.7-2.4-3.9c10.4-1.5,11.8-3.8,11.8-6.7v-3.8h4.4V27.8z M348.4,7.5
	c-0.7-0.6-1.5-1.2-2.4-1.7c1-1.5,1.7-3.3,2-5.1l3.1,0.6c-0.1,0.4-0.2,0.9-0.3,1.4h1.4V0.2h3.5v2.5h2.6v2.9h-2.6v2h3.4v3.1h-2v2.4
	l2.3-1c0.1,0.9,0.2,1.7,0.4,2.6c-4.5,2.2-5.4,2.7-6,3.3c-0.2-0.9-0.6-1.7-1.1-2.4c0.9-0.6,1.4-1.6,1.3-2.7v-2.3h-1.2
	c-0.3,3.8-1.3,6.4-4.6,8c-0.5-1-1.2-1.8-2-2.6c2.3-1.1,3-2.9,3.1-5.4h-2V7.5H348.4z M349.7,5.5c-0.3,0.7-0.7,1.4-1.1,2h3.6v-2H349.7
	z M365.8,30.8v-8.2h-12.1v8.3h-4.4v-12h21.1v11.9L365.8,30.8z M360.5,7.5c-0.7-0.6-1.5-1.1-2.2-1.6c1.1-1.5,1.8-3.3,2.1-5.2l3.1,0.7
	c-0.1,0.5-0.2,0.9-0.4,1.3h1.4V0.2h3.6v2.5h3.5v2.9H368v1.9h4.8v3.1h-3.5v3.6c0,0.2,0,0.3,0.1,0.4c0.1,0.1,0.2,0.2,0.4,0.2h0.5
	c0.2,0,0.3,0,0.5-0.1c0.1-0.1,0.2-0.2,0.2-0.4c0.1-0.6,0.2-1.2,0.2-1.9c0.7,0.5,1.4,1,2.2,1.3c0,1-0.1,1.9-0.5,2.8
	c-0.2,0.5-0.5,0.9-1,1.1c-0.4,0.3-1,0.4-1.5,0.4H369c-0.7,0-1.5-0.2-2-0.7c-0.5-0.6-0.6-1-0.6-2.9v-3.8h-1c-0.3,3.8-1.3,6.5-4.4,8.2
	c-0.5-1-1.2-1.8-2-2.5c2.2-1.1,2.8-3,3-5.7h-2.2V7.5H360.5z M362.7,31.1c3.5,1,7,2.2,10.3,3.6l-2.3,3.6c-3.3-1.6-6.7-2.9-10.2-4
	L362.7,31.1z M362,5.6c-0.3,0.7-0.7,1.3-1.1,1.9h3.5V5.6H362z"/>
<path class="st0" d="M415.5,13.4c-1.1,3.9-2.8,7.7-5,11.1c0.5,1.7,1.1,2.6,1.6,2.6s0.8-1.5,0.9-4.8c0.9,0.9,2,1.7,3.1,2.2
	c-0.6,5.3-1.8,6.8-4.5,6.8c-1.6,0-2.9-1.2-3.9-3.2c-1.5,1.8-3.3,3.3-5.3,4.5c4.2,0,11.4,0,14.1-0.2c-0.9,1.5-1.5,3.1-1.9,4.8h-14.8
	c-8,0-13.2-1.2-16.8-6.4c-0.5,2.6-1.4,5.1-2.7,7.3c-0.8-1.2-1.9-2.2-3.1-3c2.6-4.6,2.8-10.9,2.6-16.4L384,19c0,1.5,0,3.2,0,4.8
	c0.5,1.6,1.3,3,2.2,4.3V16.5h-7.9v-4.3h7V8.8h-5.7V4.6h5.7V0.2h4.5v4.3h5.5v4.2h-5.5v3.5h6.2v4.3h-5.4V21h4.6v3.7
	c1-0.6,1.7-1.8,1.7-3v-15h7.3c-0.1-2.2-0.2-4.3-0.2-6.5h4.4c0,2.2,0,4.4,0.1,6.5h3.4c-0.9-1.6-2-3.1-3.1-4.6l3.3-1.7
	c1.3,1.5,2.4,3.1,3.5,4.7l-2.9,1.5h3.2v4h-7.2c0.2,2.9,0.5,5.5,0.8,7.7c1-2,1.8-4,2.4-6.1L415.5,13.4z M390.5,31.4
	c2.5,1,5.6,1.3,9.4,1.3h2.3c-0.8-1.2-1.8-2.3-2.9-3.4c2.6-1.5,4.9-3.4,6.8-5.8c-0.9-4.2-1.5-8.5-1.8-12.8h-3.2v10.7l2.9-1.7
	c0.2,1.3,0.6,2.5,1.1,3.7c-6.4,4-7.7,4.8-8.3,5.6c-0.4-1.4-1-2.7-1.7-3.9h-4.6L390.5,31.4z"/>
<path class="st0" d="M457.3,20.2c-5.8,12.4-19.1,16.7-34.7,18.1c-0.4-1.6-1.1-3.2-2-4.7c6.1-0.3,12.1-1.4,17.9-3.3
	c-1.1-1-2.3-2-3.5-2.9l4-2.3c1.4,1,2.8,2,4.1,3.1c2.6-1.4,4.9-3.2,6.8-5.6h-9.3c-3.6,2.5-7.6,4.6-11.8,6.1c-0.8-1.4-1.8-2.7-3-3.8
	c8.4-2.6,14-6.6,17.1-10.6l5.3,1.2c-0.8,0.9-1.6,1.8-2.5,2.7h7.3l0.9-0.2L457.3,20.2z M452,5.2c-5.3,9.4-16.8,14.4-28.6,16.6
	c-0.6-1.5-1.3-3-2.2-4.3c4.1-0.6,8.2-1.6,12.1-3.1c-1.1-1-2.2-1.9-3.3-2.7l3.6-2.2c1.4,0.9,2.8,1.9,4.1,3c2.4-1.3,4.7-2.9,6.7-4.8
	h-10.2c-2.7,1.9-5.6,3.5-8.6,4.8c-0.9-1.3-2-2.5-3.3-3.5c6.6-2.4,11.4-5.9,14.1-9.1l5.2,1.2c-0.7,0.7-1.4,1.5-2.2,2.2h8.6l0.9-0.2
	L452,5.2z"/>
<path class="st0" d="M498.5,6.5c0,0,0,1.6,0,2.2c-0.5,18.2-1,24.7-2.6,26.9c-0.9,1.3-2.3,2.1-3.9,2.2c-2.1,0.2-4.3,0.2-6.4,0.1
	c-0.2-1.7-0.7-3.3-1.6-4.7c2.6,0.2,5,0.2,6.1,0.2c0.7,0.1,1.3-0.2,1.8-0.7c1.2-1.3,1.7-7.4,2.2-21.8h-8.7c-1,2.3-2.2,4.4-3.6,6.4
	c-1-0.8-2.1-1.6-3.2-2.3v19h-10.9v3h-4.4V6.8h4.6c0.6-2.2,1-4.4,1.2-6.6l5.3,0.7c-0.7,2-1.4,4.1-2.1,5.8h6.3v6.6
	c2.6-4,4.4-8.5,5.5-13.1l4.6,1.1c-0.5,1.8-1,3.5-1.6,5.2H498.5z M474.1,11h-6.5v6.6h6.5V11z M474.1,29.8v-8h-6.5v8H474.1z
	 M487.6,27.6c-1.7-3.3-3.6-6.4-5.7-9.4l3.8-2.2c2.2,2.9,4.2,5.9,6,9L487.6,27.6z"/>
<path d="M527.1,88.6c-7.8-6.4-16.4-17.3-20.5-26c-1.8-3.8-6.2-5.5-10-4l-8.9,3.4c-0.9,0.4-1.8,0.9-2.6,1.6c-1-1.1-2.3-1.8-3.7-2.2
	l-10.2-2.8c-0.7-0.2-1.4-0.3-2.1-0.3c-3.3,0-6.3,2.1-7.5,5.2c-3.1,8.3-8,15.9-14.4,22.2V70.2c0-4.4-3.6-8-8-8h-35.5l-0.6-1
	c-1.5-2.3-4-3.7-6.7-3.7c-1,0-1.9,0.2-2.8,0.5c-6.2,2.3-16.5,4.7-27.1,6.2c-1.4-2.6-4.1-4.2-7.1-4.2h-36.7c-1.1,0-2.2,0.2-3.2,0.7
	l-0.1-0.1c-2.3-2.7-6.1-3.5-9.4-2c-4.7,2.2-13,4.3-22.9,6c-1.1,0.2-2.2,0.6-3.1,1.3c-0.9-3.5-4.1-6-7.7-6h-57.6c-4.4,0-8,3.6-8,8
	v37.7c0,0.3,0,0.7,0.1,1c-1,0.9-1.7,2.1-2.1,3.4c0.1-1.2,0.1-2.4,0.1-3.8V73.5c0-4.4-3.6-8-8-8h-11.4c-4.4,0-8,3.6-8,8v33.7
	c0,5.7-1.1,7.5-1.4,8c-0.1,0.1-0.4,0.5-2.1,0.5c-1.5,0-1.7-0.3-1.8-0.4c-0.3-0.4-1.4-2.3-1.4-8V73.5c0-4.4-3.6-8-8-8h-11.8
	c-1.6,0-3.2,0.5-4.5,1.4c-1.3-0.9-2.9-1.4-4.5-1.4h-13c-2.5,0-4.9,1.2-6.4,3.2l-5.5,7.2v-2.4c0-4.4-3.6-8-8-8h-11.9
	c-2.8,0-5.4,1.5-6.9,3.9c-1.4-2.4-4.1-3.9-6.9-3.9H75.5c-2.8,0-5.4,1.5-6.9,3.9c-1.4-2.4-4.1-3.9-6.9-3.9H48.6
	c-3.4,0-6.4,2.1-7.5,5.3L35,88.2l-6.4-17.4c-1.1-3.2-4.2-5.3-7.5-5.3H8c-4.4,0-8,3.6-8,8v59.3c0,4.4,3.6,8,8,8h10.6c4,0,7.4-3,7.9-7
	c1.4,1,3.1,1.6,4.8,1.6h6.8c1.7,0,3.4-0.5,4.8-1.6c0.5,4,3.9,7,7.9,7h10.8c2.8,0,5.4-1.5,6.9-3.9c1.4,2.4,4.1,3.9,6.9,3.9h11.9
	c2.8,0,5.4-1.5,6.9-3.9c1.4,2.4,4.1,3.9,6.9,3.9H113c4.4,0,8-3.6,8-8v-10.2l8.2,14.2c1.4,2.5,4.1,4,6.9,4h13c3.7,0,7-2.6,7.8-6.2
	c5.3,4.9,12.3,7.4,21.1,7.4c7.5,0,18.4-2,25-12v7.6c0,4.4,3.6,8,8,8h71.9c4.4,0,8-3.6,8-8v-2.8c0.4,0.1,0.9,0.1,1.4,0.1h0.7v4.9
	c0,4.4,3.6,8,8,8h9.2c1.9,0,3.7-0.7,5.1-1.9c0.5,0.1,1.1,0.1,1.7,0.1h46.2c4.4,0,8-3.6,8-8v-2.8h0.4c0.6,0,1.3-0.1,1.9-0.2v4.8
	c0,4.4,3.6,8,8,8h9c3,0,5.7-1.6,7.1-4.2c1,0.6,1.9,1.3,2.8,2.1c3.3,3,8.3,2.7,11.3-0.5c4.1-4.6,7.4-9.9,9.9-15.5
	c1.8,3.7,3.3,7.6,4.5,11.6c1.1,4.3,5.4,6.9,9.7,5.8c0.3-0.1,0.7-0.2,1-0.3l9-3.6c0.5-0.2,1-0.5,1.4-0.8c0.2,0.3,0.3,0.6,0.4,0.8
	c1.7,3.9,6.1,5.8,10.1,4.3c7.2-2.5,13.8-6.5,19.2-11.8c0.4,1.1,0.7,2.3,0.8,3.5c0.2,4.1,3.6,7.4,7.7,7.6c2.1,0.1,4,0.1,5.6,0.1
	c2.6,0,5.2-0.1,7.8-0.4c4.9-0.4,9.5-2.8,12.5-6.8c3.7-4.4,5-11.7,5.9-29.6c1.4-0.6,2.6-1.5,3.5-2.8c1.8-2.3,3.8-4.5,6-6.4
	c3.5-2.7,4.2-7.7,1.5-11.2c-0.4-0.5-0.8-0.9-1.3-1.3L527.1,88.6z M137.4,97.5l9.5-12.2v20.9c0,2.7,0.2,5.5,0.5,8.2L137.4,97.5z
	 M208.3,121.1c-0.6,0.2-1.1,0.5-1.7,0.8c0.8-2.5,1.3-5.1,1.7-7.7V121.1z M285.3,107.6c-0.3-0.4-0.6-0.8-1-1.2c0-0.3,0-0.5,0-0.8
	v-3.2c0.9,0.8,1.9,1.3,3.1,1.6C286.7,105.3,286,106.5,285.3,107.6z M421.7,91h-1.1v-3.8h1.1V91z M447,123.8
	c-1.3-2.9-2.8-5.8-4.3-8.5c2.8-1.3,4.6-4.1,4.6-7.2v-1.4c0.8,0.8,1.5,1.5,2.1,2.2c2,2.2,5,3.1,7.9,2.3c0.9,0.3,1.8,0.5,2.8,0.5h2.5
	C460.1,117,455.6,121,447,123.8z M490.5,121.6c-1.1,0-2.4-0.1-3.8-0.1c1.3-3.2,2.3-6.4,3-9.8h1.6
	C491.1,116.1,490.8,119.4,490.5,121.6L490.5,121.6z M479.7,86.2c1.9-3.3,3.7-6.6,5.2-10.1c1.7,3.3,3.7,6.7,5.9,10.1H479.7z"/>
<path class="st1" d="M8,71.5h13.1l10.1,27.8c1.3,3.7,2.4,7.6,3.6,11.4h0.4c1.3-3.8,2.3-7.7,3.6-11.4l9.8-27.8h13.1v59.3H51v-24.7
	c0-5.6,0.9-13.8,1.5-19.4h-0.4l-4.8,13.9l-9.1,24.9h-6.8l-9.2-24.9l-4.8-13.9h-0.3c0.6,5.6,1.5,13.8,1.5,19.4v24.7H8V71.5z"/>
<path class="st1" d="M75.5,71.5h11.8v59.3H75.5V71.5z"/>
<path class="st1" d="M101.1,71.5H113v25.8h0.2l19.6-25.8h13l-18.1,23.4l21.2,35.9h-13l-15.4-26.6l-7.8,10v16.6h-11.8V71.5z"/>
<path class="st1" d="M154.9,104.2V71.5h11.8v33.7c0,12.3,4.3,16.5,11.2,16.5c7,0,11.5-4.2,11.5-16.5V71.5h11.4v32.6
	c0,19.7-8.4,27.8-22.9,27.8S154.9,123.8,154.9,104.2z"/>
<path class="st1" d="M282.9,126.6v8.9H211v-8.9h31.1v-7.4h-25.8v-8.9h25.8v-6.7h-23.4V65.8h57.6v37.8h-23.8v6.7h26.3v8.9h-26.3v7.4
	H282.9z M228.2,80.7h14.6v-6.4h-14.6V80.7z M228.2,95.1h14.6v-6.6h-14.6V95.1z M266.3,74.3h-14.5v6.4h14.5V74.3z M266.3,88.5h-14.5
	v6.6h14.5V88.5z"/>
<path class="st1" d="M315,114.6c-1.4-2.8-3-5.5-4.8-8.1v31.2H301V109c-2.2,5.6-5.2,11-8.7,15.8c-1.1-3.1-2.6-6.2-4.4-9
	c4.5-5.2,8.9-13.7,11.9-21.4h-10.2v-9H301v-9.3c-3.4,0.6-6.6,1.2-9.8,1.6c-0.6-2.5-1.5-5-2.6-7.3c8.8-1.5,18.6-3.8,24.8-6.6l6.3,7.3
	c-3.1,1.2-6.3,2.2-9.5,3v11.3h8.6v8.9h-8.6v2.3c2.2,1.8,8.7,8.7,10.2,10.5L315,114.6z M363.3,127.7v8.3H317v-8.3h19v-7h-14v-8h14
	V106h-15.8v-8.2h41.4v8.2h-16.1v6.6h14.2v8h-14.2v7L363.3,127.7z M359.4,93h-36.7V66h36.7V93z M350.2,74h-18.6v11h18.6L350.2,74z"/>
<path class="st1" d="M397,115.3c-2-3.6-4.1-7-6.4-10.4v32.9h-9v-29.5c-3,6.6-6.3,12.7-9.9,17c-1.2-3.2-2.7-6.3-4.6-9.3
	c4.8-5.2,9.7-13.8,12.8-21.4h-11.4v-8.9h13.1V76c-3.9,0.6-7.8,1.1-11.5,1.5c-0.5-2.5-1.4-5-2.5-7.4c10.1-1.4,21.4-3.8,28.8-6.6
	l5,7.8c-3.5,1.2-7.1,2.2-10.8,3v11.2h11v8.9h-11v1.2c2.6,2.2,9.9,9.8,11.6,11.8L397,115.3z M417.9,114.6c-2.5,8.9-7.1,17.6-12.1,23
	c-2.5-2.1-5.2-3.9-8-5.5c4.8-4.7,8.6-12.2,10.6-19.7L417.9,114.6z M439.2,106.1h-35.6V68.2h35.7L439.2,106.1z M429.7,77.2h-17.1V97
	h17.1V77.2z M432.7,112.1c4.2,6.7,8.7,15.7,10.3,21.6l-9,3.6c-1.4-5.8-5.7-15-9.6-22.1L432.7,112.1z"/>
<path class="st1" d="M499.4,64c4.8,10.1,14.4,21.9,22.6,28.7c-2.9,2.4-5.5,5.1-7.7,8.1c-1.4-1.4-3-2.9-4.5-4.6v0.2
	c-0.8,23.6-1.8,33-4.6,36.2c-1.7,2.3-4.3,3.7-7.2,3.8c-4,0.4-8.1,0.5-12.2,0.2c-0.3-3.4-1.3-6.7-3-9.6c4.3,0.4,8.6,0.4,10.5,0.4
	c1.2,0.1,2.3-0.2,3.2-1c1.7-1.8,2.5-8.6,3.2-24.9H483c-2,15.1-7.3,28.7-27.9,36.3c-1.5-3.1-3.6-6-6-8.5
	c17.8-5.8,22.1-16.3,23.8-27.8H460V97c-1.5,1.6-3.1,3.1-4.8,4.5c-2.5-2.7-5.2-5.2-8.1-7.5c9.4-6.7,17.4-17.9,21.9-29.8l10.2,2.8
	c-3.6,9.2-8.7,17.7-15,25.3h42.2c-6.3-7.7-11.7-16-16.1-24.9L499.4,64z"/>
</svg>