<svg version="1.1" xmlns="http://www.w3.org/2000/svg" viewBox="0 0 315 92" width="315" height="92">
<style type="text/css">
	.st0{fill:#FFF;}
</style>
<path d="M292.2,63.9c0.1-6.2-2.4-12.1-7-16.2c1.5-1,2.7-2.3,3.6-3.8c1.9-2.9,2.5-6.5,1.7-9.9c-0.9-3.8-3.2-7.1-6.6-9.1
	c-4.2-2.5-9.1-3.8-14-3.9c-4.2,0-10.4,0.7-15.8,4.3c-1.2,0.8-2.4,1.7-3.4,2.7v-9.2c0-8-6.5-14.6-14.6-14.6c-8,0-14.5,6.5-14.6,14.6
	v2.4c-1.1-0.2-2.2-0.3-3.4-0.3c-11,0-19.3,5.1-23.9,14.2c-4.7-8.3-13.2-14.6-27-14.6c-14.1,0-22.6,6.5-27.2,15
	c-4.6-8.5-13.2-15-27.2-15c-15.4,0-24.3,7.8-28.5,17.6c-1.4-1.4-3.2-2.6-5.1-3.3c2.4-1.7,4.1-4.1,5-6.9c2.3-7.1-0.5-13.8-7.1-17.4
	l0,0l0,0c-5.1-2.5-10.7-3.8-16.3-3.8c-23.5,0-38.1,15.7-38.1,40.9c0,11,2.8,20,8.2,26.7C37.9,82.7,48.5,87,62.7,87
	c4.8,0,9.6-0.6,14.3-1.8c4.9-1.3,8.8-4.9,10.6-9.6c5.5,7.7,14.3,12.1,25.3,12.1c12.5,0,22-5.6,27.2-15.2
	c5.2,9.6,14.8,15.2,27.2,15.2c12.1,0,21.4-5.2,26.7-14.2c4.4,8.8,12.3,13.8,23,13.8c4.5,0,8.9-1.1,12.9-3.2c4.4,3,10.1,3.2,14.8,0.6
	c1.5-0.8,2.7-1.8,3.8-3.1c4.7,3.7,11.3,5.6,19.1,5.6c5.6,0.1,11.1-1.5,15.7-4.7C287.4,79.6,292.2,74,292.2,63.9z M113.5,60.4
	L113.5,60.4c-0.2,0-0.4,0-0.6,0c-0.2,0-0.5,0-0.7-0.1c-0.3-0.3-1.2-2.2-1.2-6.8c0-4.3,0.8-5.7,1-6c0.3-0.1,0.6-0.1,0.9-0.1
	c0.3,0,0.6,0,0.9,0.1c0.2,0.2,1,1.6,1,6C114.8,59,113.5,60.4,113.5,60.4z M168,60.4L168,60.4c-0.2,0-0.4,0-0.6,0
	c-0.2,0-0.5,0-0.7-0.1c-0.4-0.4-1.2-2.3-1.2-6.8c0-4.3,0.9-5.7,1-6c0.3-0.1,0.6-0.1,0.9-0.1c0.3,0,0.6,0,0.9,0.1
	c0.2,0.2,1.1,1.6,1.1,6C169.3,59,168,60.4,168,60.4z M222.2,54.8c0,1.5-0.1,2.9-0.3,4.4c-0.3,0.3-0.7,0.6-1.2,0.7
	c-0.5-1.8-0.8-3.6-0.7-5.4c0-4,0.6-5.7,0.8-6.2h0.1c0.3,0,0.7,0.1,1,0.3c0.1,1.7,0.2,3.5,0.2,4.9L222.2,54.8z"/>
<path class="st0" d="M80.5,45.6v23.1c-0.2,3.1-2.3,5.7-5.3,6.6c-4.1,1-8.3,1.6-12.6,1.6c-25.4,0-31.8-15.5-31.8-31.4
	c0-17.1,8-32.9,30.1-32.9c4.3,0.1,8.6,1.1,12.5,2.9c3,1.6,4.5,4.2,3.3,7.9c-1.1,3.2-4.6,4.8-7.8,3.6c-0.1,0-0.2-0.1-0.3-0.1
	c-2.9-1.1-5.9-1.7-9-1.8c-7.9,0-14,6.2-14,20.5c0,13.4,5.8,19.4,17.6,19.4c1.6-0.1,3.1-0.3,4.6-0.7v-13h-4.8c-3.1,0-5.7-2.5-5.7-5.7
	s2.5-5.7,5.7-5.7h11.8C77.9,40.2,80.3,42.6,80.5,45.6z"/>
<path class="st0" d="M136.5,51.8c0,11.4-5,25.9-23.6,25.9s-23.6-14.5-23.6-26c0-11,5-25.2,23.6-25.2S136.5,40.7,136.5,51.8z
	 M122.8,51.6c0-10.4-4.1-14.1-9.9-14.1s-9.9,3.7-9.9,14.1c0,10.7,4,14.9,9.9,14.9S122.8,62.3,122.8,51.6z"/>
<path class="st0" d="M191,51.8c0,11.4-5,25.9-23.6,25.9s-23.6-14.5-23.6-26c0-11,5-25.2,23.6-25.2S191,40.7,191,51.8z M177.3,51.6
	c0-10.4-4.1-14.1-9.9-14.1s-9.9,3.7-9.9,14.1c0,10.7,4,14.9,9.9,14.9S177.3,62.3,177.3,51.6L177.3,51.6z"/>
<path class="st0" d="M240.8,75.6c-3.6,2-7.8,0.1-9.3-3.8l-0.4-1.1c-3.4,4.2-8.6,6.6-14.1,6.5c-13.8,0-18.8-10.9-18.8-24.6
	c0-13.9,5.4-25.6,20.1-25.6c4.2,0.1,8.2,1.6,11.4,4.2V16.8c0-3.6,2.9-6.6,6.6-6.6c3.6,0,6.6,2.9,6.6,6.6v40.3c0,4,0.3,8,1.1,12
	C244.4,71.8,243.1,74.4,240.8,75.6z M229.6,59.7c0.3-2.3,0.5-4.7,0.6-7v-1.3c0-2.8-0.2-5.6-0.6-8.4c-1.9-2.9-5.1-4.7-8.6-4.8
	c-7.4,0-9,7-9,14.2c0,7.4,2,13.6,8.1,13.6C224.2,66,228,63.5,229.6,59.7L229.6,59.7z"/>
<path class="st0" d="M284.2,61.9c0,12-9.2,15.3-16.6,15.3c-5.8,0-10.8-1.3-14.2-3.9c-2.2-1.7-2.9-4.7-1.6-7.1
	c1.4-2.7,4.7-3.7,7.4-2.3c0.1,0,0.1,0.1,0.2,0.1c2.3,1.5,5,2.3,7.8,2.4c2,0.2,3.7-1.3,3.9-3.3c0-0.1,0-0.3,0-0.4
	c0-2.6-3-4.4-8.2-7.1c-6.2-3.2-10.2-6.4-10.2-13.9c0-11.6,9.7-14.6,17.2-14.6c3.4,0,6.8,0.9,9.8,2.6c2.6,1.6,4.3,4.9,2.3,8
	c-1.5,2.5-4.9,2.9-7.6,1c-1.4-1-3.1-1.5-4.8-1.4c-2-0.1-3.6,1.5-3.7,3.5c0,0.1,0,0.1,0,0.2c0,1.9,1.5,3.1,6.6,5.8
	C278.6,50,284.2,53.5,284.2,61.9z"/>
</svg>