<svg version="1.1" xmlns="http://www.w3.org/2000/svg" viewBox="0 0 315 92" width="315" height="92">
<style type="text/css">
	.st0{fill:#FFF;}
</style>
<path d="M76.2,45.6c2.4,1.3,7.1,3.8,10.7,6C83.1,58.4,79,65,74.6,71.4c-2.4,3.4-1.8,8.2,1.5,10.8l8,6.5c1.4,1.1,3.2,1.8,5,1.8
	c0.4,0,0.9,0,1.3-0.1c2.3-0.4,4.2-1.7,5.5-3.6c1.5-2.3,3-4.8,4.5-7.5v4.1c0,4.4,3.6,8,8,8h8.6c2.6,0,5-1.2,6.5-3.3h11.4
	c1.5,1.9,3.8,2.9,6.2,2.9h9c4.4,0,8-3.6,8-8v-8.2c0.2,0.8,0.4,1.4,0.6,1.9c1.1,4.3,5.5,6.9,9.7,5.8c0.8-0.2,1.6-0.5,2.3-1
	c1.3-0.8,5.6-2.1,15.9-4.9c0,0.1,0,0.2,0,0.2c0.2,2.4,1.6,4.5,3.6,5.9c1.8,1.4,3.4,3,4.7,4.9c1.3,2,3.5,3.4,5.9,3.7
	c0.3,0,0.6,0,0.9,0c2.1,0,4.1-0.8,5.7-2.2l0.7-0.7c1.4,1.2,3.2,1.9,5,2c1.8,0.1,3.5,0.1,5,0.1c2.4,0,4.9-0.1,7.3-0.4l0.3-0.1
	c4.8-0.7,9-3.4,11.7-7.4c3.9-5.5,4.9-14.8,5.8-52v-0.2c0-0.9,0.1-3.3,0.1-4.1c0.1-4.4-3.4-8.1-7.8-8.2c-0.1,0-0.1,0-0.2,0h-9.2
	c0-2.5,0.1-5,0.1-7.6v-0.2c0-4.4-3.6-8-8-8h-9.4c-3.5,0-6.6,2.3-7.7,5.7c-1.2-0.6-2.5-1-3.8-1h-31.3c-3.4,0-6.4,2.2-7.6,5.4
	c-0.3-0.6-0.7-1.1-1.2-1.6L149.6,3c-2.3-2.3-5.7-3.1-8.7-1.9c-7.1,2.8-20.6,5.5-35.3,7c-0.5,0-1,0.1-1.4,0.3c-3.4-1.9-7.6-4-11.5-6
	c-3.4-1.7-7.5-0.8-9.9,2.2l-5.4,6.9c-2.7,3.5-2.1,8.5,1.4,11.2c0.3,0.2,0.6,0.5,1,0.6l1.6,0.9c-1.1,0.6-2,1.4-2.8,2.4l-5.1,7
	c-2.6,3.6-1.8,8.6,1.8,11.2c0.3,0.2,0.6,0.4,0.9,0.6V45.6z M162.6,49.9c-1.1,3.8-2.2,6.8-2.6,7.8c-0.4,0.9-0.6,1.4-0.8,1.7
	c-0.4,0.2-0.7,0.5-1,0.8V51c0-1-0.2-2-0.5-2.9l0.3-0.2C159.2,49.1,160.9,49.8,162.6,49.9z M154,23.6c1.5-0.6,2.8-1.5,3.7-2.8v2.4
	c0,0.5,0.1,1,0.2,1.5c-1.1-0.6-2.4-0.9-3.7-0.9h-0.7L154,23.6z"/>
<path class="st0" d="M94.9,45.2c-3.3-2.3-10.2-6.1-14.9-8.6l5.1-7c4.4,2.2,11.5,5.6,15,7.8L94.9,45.2z M81.1,74
	c5.6-8.1,10.7-16.5,15.2-25.2l7,6.4c-4.3,8.4-9.3,17.5-14.2,25.3L81.1,74z M98.3,23.4c-3.1-2.4-9.9-6.2-14.6-8.8l5.4-6.9
	c4.5,2.2,11.4,5.8,14.9,8L98.3,23.4z M133.8,39v10h16.3v32h-9v-2.9h-24v3.3h-8.6V49h16.3V39h-21.3v-9.2h21.3v-9.4
	c-5.2,0.8-10.6,1.4-15.5,1.8c-0.6-2.8-1.5-5.6-2.8-8.2c13.6-1.4,28.6-4,37.4-7.5l7.3,7.5c-5.6,2-11.5,3.6-17.4,4.7v11h20.3V39H133.8
	z M141.1,57.7h-24v11.7h24V57.7z"/>
<path class="st0" d="M235,23.9c0,0-0.1,3.1-0.1,4.3c-0.8,32.2-1.7,43.9-4.3,47.6c-1.9,2.8-3.8,3.6-6.6,4.2
	c-3.6,0.4-7.1,0.5-10.7,0.2c-0.3-3.3-1.2-6.4-2.8-9.3c3.8,0.3,7.2,0.3,8.9,0.3c1.2,0.2,2.4-0.4,3-1.4c1.8-2.2,2.6-11.8,3.3-36.9
	h-8.3c-1.1,20.1-4.5,37-15.8,48.2c-1.9-2.8-4.3-5.3-7-7.3c2.3-2.3,4.3-4.9,6-7.7l-7.6,2.3c-0.2-1-0.6-2.4-1-3.8
	c-19.8,5.1-23.2,6.3-25.5,7.8c-0.8-2.9-1.8-5.7-3-8.5c1.5-0.6,2.6-2.4,3.9-5.3c2.4-6.2,4.3-12.5,5.6-19h-9.8v-8.6h35.3v8.6h-15.7
	c-1.7,6.9-4,13.7-6.7,20.2l13.6-3.2c-1.2-3.4-2.4-6.9-3.6-9.9l7.6-2.1c2.9,6.7,5.4,13.5,7.5,20.5c4.6-8.7,6.4-19.8,7-32.4h-8.7v-9.1
	h9c0.1-5,0.1-10.4,0.1-15.8h9.4c0,5.4-0.1,10.7-0.2,15.8H235z M196.9,21.2h-31.3v-8.4h31.3V21.2z"/>
</svg>