<svg version="1.1" xmlns="http://www.w3.org/2000/svg" viewBox="0 0 312 39.2" width="312" height="39">
<style type="text/css">
	.st0{fill:#408C0D;}
</style>
<path class="st0" d="M35.3,18.9c0,1.7-1.3,3-3,3c-0.1,0-0.2,0-0.3,0H21.8c-0.5,6.5-3,12.3-11,15.1c-2.2,0.8-4.3,0.3-5-1.6
	c-0.7-1.8,0.1-3.8,1.8-4.5c0.1,0,0.2-0.1,0.3-0.1c5.3-2,6.8-3.8,7.1-8.9H3.3c-1.7,0-3-1.3-3-3c0-1.7,1.3-3,3-3h11.8v-4.7
	c-2.6,0.4-5.2,0.6-7.5,0.7c-2,0-3.3-0.9-3.6-2.5C3.7,7.8,4.8,6.3,6.3,6C6.6,6,6.8,6,7.1,6c6.8-0.1,13.6-1.5,20-3.9
	c1.6-0.6,3.2-0.3,4,1c0.9,1.5,0.4,3.4-1.1,4.3c-0.2,0.1-0.4,0.2-0.6,0.3c-2.4,1-4.9,1.8-7.4,2.3v6h10.1c1.6-0.2,3.1,1,3.2,2.6
	C35.3,18.7,35.3,18.8,35.3,18.9z"/>
<path class="st0" d="M70,32.6c0,1.6-1.3,2.8-2.8,2.8c-0.1,0-0.1,0-0.2,0H46.1c-1.5,0.2-2.9-1-3.1-2.5c-0.2-1.5,1-2.9,2.5-3.1
	c0.2,0,0.4,0,0.6,0h7.1V18.4h-4.7c-1.5,0.2-2.9-1-3.1-2.5s1-2.9,2.5-3.1c0.2,0,0.4,0,0.6,0h16.1c1.6-0.1,2.9,1.1,3,2.6
	c0,0,0,0.1,0,0.1c0,1.5-1.2,2.8-2.7,2.8c-0.1,0-0.2,0-0.3,0h-5.2v11.4h7.5c1.5-0.2,2.9,0.9,3.1,2.4C70,32.3,70,32.4,70,32.6z"/>
<path class="st0" d="M86.4,24.2c-1.6,0.6-3.1-0.2-3.8-2c-0.4-1.2-1-2.3-1.5-3.4c-0.8-1.3-0.4-3.1,0.9-3.9c0.1,0,0.1-0.1,0.2-0.1
	c1.4-0.6,2.9-0.2,3.9,1.4c0.8,1.2,1.4,2.5,1.9,3.8C88.4,21.9,87.9,23.6,86.4,24.2z M105.9,17.9c-1.5,8.4-7.1,15.5-14.9,18.8
	c-2.1,0.9-4,0.3-4.7-1.3s0.1-3.4,2.2-4.3c6.7-3,9.9-7.1,11.4-14.6c0.2-1.8,1.8-3.1,3.6-2.9c0.1,0,0.1,0,0.2,0
	C105.3,13.9,106.3,15.7,105.9,17.9z M88.8,17c-0.8-1.4-0.3-3.1,1-3.9c0,0,0.1,0,0.1-0.1c1.5-0.6,3.3,0,4,1.5
	c0.8,1.3,1.4,2.7,1.8,4.1c0.5,1.5-0.2,3.2-1.7,3.8c-1.4,0.6-3-0.2-3.6-1.6c0-0.1-0.1-0.2-0.1-0.3L88.8,17z"/>
<path class="st0" d="M145.9,12.3C143,24,137,32.9,126.2,37.2c-2.1,0.9-4.3,0.3-5-1.5c-0.9-2,0.2-3.9,2.3-4.7
	c7.7-2.9,13.3-9.5,15-17.6h-9.7c-2.2,3.5-5,6.5-8.2,9.1c-1.7,1.3-3.7,1.3-4.9-0.1c-1.3-1.4-1.1-3.6,0.3-4.9c0.1-0.1,0.2-0.1,0.3-0.2
	c4.2-3.5,7.5-8,9.7-13.1c0.8-1.8,2.5-3,4.7-2.1c2,0.8,2.5,2.9,1.7,4.9l-0.2,0.6h10C145,7.6,146.5,9.8,145.9,12.3z"/>
<path class="st0" d="M183.6,7.9c-2.5,2.8-5.3,5.4-8.3,7.6v18.8c0.1,2-1.4,3.7-3.4,3.8c-0.1,0-0.1,0-0.2,0c-1.9,0-3.5-1.6-3.5-3.5
	c0-0.1,0-0.2,0-0.3v-14c-3,1.8-6.2,3.4-9.6,4.6c-2.2,0.8-4.1,0-4.8-1.8c-0.7-1.8,0.2-3.8,1.9-4.5c0.1,0,0.2-0.1,0.3-0.1
	c8.7-3.1,16.4-8.3,22.6-15.2c1.3-1.3,3.2-1.9,4.7-0.6C184.9,4.1,185,6.4,183.6,7.9z"/>
<path class="st0" d="M194.8,7c1.1-1.9,3-2.3,5.4-1.3c2.1,0.8,4,2,5.8,3.4c2,1.8,2.5,4.3,1.1,6.1s-3.5,2.1-5.8,0.2
	c-1.6-1.3-3.2-2.4-4.9-3.4C194.5,11.1,193.8,8.9,194.8,7C194.7,7,194.7,7,194.8,7z M225.4,17.9c-4.6,7.5-14.1,15.5-24.9,18.8
	c-2.2,0.7-4.3,0.1-5.1-2.1s0.5-4.1,2.9-4.9c10.3-3.2,15.9-7.8,21.6-15.8c1.4-1.9,3.3-2.4,4.9-1.3S226.6,16.1,225.4,17.9L225.4,17.9z
	"/>
<path class="st0" d="M271,22.3c0,1.5-1.2,2.7-2.7,2.7c0,0,0,0,0,0h-1.9v8c0,4.6-1.4,5.8-5.8,5.8h-2.2c-1.6,0-2.9-1.3-2.8-2.9
	s1.3-2.9,2.9-2.8h0.4c1.1,0,1.4-0.2,1.4-0.9V25h-7c0.5,0.1,1,0.4,1.3,0.8c0.8,0.9,1.6,1.8,2.4,2.7c1,1.3,0.7,3.1-0.6,4.1
	c-1.3,1-3.1,0.7-4.1-0.6c0,0,0-0.1-0.1-0.1c-0.5-0.8-1.1-1.6-1.7-2.4c-0.9-1.2-0.7-3,0.5-4c0.3-0.2,0.6-0.4,1-0.5h-2
	c-1.5,0-2.7-1.2-2.7-2.7l0,0c-0.3,0.6-0.8,1.1-1.5,1.4l-0.8,0.3v12.3c0,1.6-1.3,2.9-2.9,2.9c0,0,0,0,0,0c-1.6,0-3-1.3-3-2.9V26
	l-2.9,1c-1.6,0.5-3.3-0.4-3.8-1.9c0,0,0,0,0-0.1c-0.4-1.6,0.5-3.2,2.1-3.7l4.6-1.3v-6.9h-1.4l-0.4,2.7c-0.2,1.4-1.5,2.3-2.8,2.1
	c-1.4-0.2-2.3-1.5-2.1-2.8c0-0.1,0-0.2,0.1-0.3c0.6-3.1,1-6.2,1.1-9.4c0-1.4,1.2-2.4,2.6-2.4c1.4,0,2.4,1.2,2.4,2.6l0,0l-0.1,2h0.9
	V3c0-1.6,1.4-2.9,3-2.9c1.6,0,2.9,1.3,3,2.9c0,0,0,0,0,0.1v4.6c1.5,0.2,2.6,1.5,2.5,3.1c-0.1,1.3-1.2,2.3-2.5,2.5v5.3
	c1,0.1,2,0.7,2.3,1.7c0.1,0.3,0.1,0.6,0.1,0.9c0.4-1,1.4-1.6,2.5-1.6h10.2v-2.2h-10.3c-1.5,0-2.7-1.2-2.7-2.7c0-1.5,1.2-2.7,2.7-2.7
	h5.9V9.3h-3.7c-1.4,0-2.6-1.1-2.6-2.6c0,0,0,0,0,0c0-1.5,1.2-2.6,2.6-2.7c0,0,0,0,0,0h3.7V3.1c-0.1-1.7,1.2-3.1,2.9-3.2
	s3.1,1.2,3.2,2.9c0,0.1,0,0.2,0,0.3V4h4.5c1.4,0,2.6,1.2,2.6,2.6c0,0,0,0,0,0c0,1.4-1.1,2.6-2.6,2.6c0,0,0,0,0,0h-4.5v2.6h6.6
	c1.5,0,2.7,1.2,2.7,2.7s-1.2,2.7-2.7,2.7h-2.1v2.2h1.9C269.7,19.5,271,20.7,271,22.3C271,22.2,271,22.2,271,22.3z"/>
<path class="st0" d="M309.2,29.1h-8.1c0,0,0,0,0.1,0c2.5,1.4,4.7,2.9,6.9,4.3c1.5,1,1.8,3,0.8,4.4c-1,1.5-3,1.8-4.4,0.8
	c-0.1-0.1-0.1-0.1-0.2-0.2c-1.8-1.4-3.8-2.9-6.2-4.5c-1.3-0.9-1.7-2.6-0.9-4c0.3-0.4,0.7-0.8,1.1-1h-12c1.6,0.6,2.4,2.3,1.8,3.9
	c-0.2,0.6-0.6,1.1-1.1,1.4c-2.3,1.6-4.8,3-7.3,4.3c-1.4,0.9-3.2,0.5-4.2-0.8c-0.9-1.4-0.5-3.2,0.8-4.2c0.2-0.1,0.4-0.2,0.6-0.3
	c2.3-1.1,4.5-2.5,6.5-4c0.2-0.2,0.5-0.3,0.7-0.4h-8.5c-1.6,0.1-2.9-1.1-3-2.6c-0.1-1.6,1.1-2.9,2.6-3c0.1,0,0.2,0,0.3,0h0.8V8.8
	c0-1.9,1.6-3.5,3.5-3.5h5V3c0-1.7,1.3-3,3-3s3,1.3,3,3v2.3h2.6V3c0-1.7,1.3-3,3-3s3,1.3,3,3v2.3h5.4c1.9,0,3.5,1.6,3.5,3.5v14.7h0.7
	c1.6,0.1,2.7,1.4,2.6,3C311.8,27.9,310.7,29,309.2,29.1L309.2,29.1z M282.5,14.4h2.5v-3.6h-2.5L282.5,14.4z M282.5,23.5h2.5v-3.7
	h-2.5L282.5,23.5z M293.5,10.8H291v3.6h2.6L293.5,10.8z M293.5,19.8H291v3.7h2.6L293.5,19.8z M302.1,10.8h-2.6v3.6h2.6V10.8z
	 M302.1,19.8h-2.6v3.7h2.6V19.8z"/>
</svg>