<svg version="1.1" xmlns="http://www.w3.org/2000/svg" viewBox="0 0 315 92" width="315" height="92">
<style type="text/css">
	.st0{fill:#FFF;}
</style>
<path d="M32.9,83.9h25.2c7.7,0,13.9-6.2,13.9-13.9c0-6.5-4.5-12.1-10.8-13.6c2-1.2,3.6-3,4.7-5L75.4,74c2.3,6.4,8.4,10.6,15.2,10.6
	c6.9,0,13.1-4.3,15.5-10.7l4.6-11.3c3.4,14.5,14.7,22.9,31.8,22.9c5.7,0,11.4-1.3,16.5-3.9l0,0l0,0c1.5-0.8,2.8-1.9,4-3.1
	c4.7,6.6,13.9,8.2,20.5,3.5c2.9-2,4.9-5,5.8-8.4c1.9,7.8,9.9,12.6,17.7,10.7c6.5-1.6,11.1-7.5,11.1-14.2V46.8h0.1V65
	c0,11.9,8.3,19.5,21.2,19.5h0.6l0.6-0.1l3-0.5l0.9-0.1l0.8-0.3c2.4-0.9,4.6-2.3,6.4-4.1c0.2,0.2,0.3,0.3,0.5,0.4
	c4.7,3.7,11.3,5.7,19.1,5.7c5.6,0.1,11.1-1.5,15.7-4.7c4-2.9,8.8-8.5,8.8-18.6c0.2-6.1-2.4-12.1-6.9-16.2c1.5-1,2.7-2.3,3.6-3.8
	c1.9-2.9,2.5-6.5,1.8-9.9c-0.9-3.8-3.3-7.1-6.6-9.1c-4.2-2.5-9.1-3.8-14-3.9c-4.2,0-10.4,0.7-15.8,4.3c-1.4,0.9-2.7,2-3.9,3.2
	c-1.7-2.2-4-3.8-6.7-4.6c-0.4-8-7.3-14.2-15.3-13.8c-7.7,0.4-13.8,6.7-13.8,14.5c-2.1,1-3.9,2.5-5.2,4.4c-3.1-3.6-8.7-7.5-18.7-7.5
	c-4,0.1-7.9,0.9-11.6,2.6c-2.5-1.7-5.4-2.7-8.4-2.6c-1.7,0-3.5,0.3-5.1,0.8h-0.1h-0.1c-3.5,1.2-6.4,3.8-8,7.1
	c-3.4-4.2-9.5-8.7-20-8.7c-8.9,0-16.5,3.1-21.9,8.5c-0.2-0.4-0.5-0.8-0.8-1.2c-2.7-3.9-7.2-6.3-12-6.3c-6.5,0-11.7,3.9-13.9,10.3
	v0.1l-1.8,5.3l-2-5.4c-1.8-6.2-7.5-10.4-14-10.2c-1.4,0-2.9,0.2-4.2,0.7c0-0.1,0-0.2,0-0.3c0-7.7-6.2-13.9-13.9-13.9H32.9
	c-7.7,0.1-13.9,6.3-14,14v49.4C19,77.6,25.3,83.8,32.9,83.9z M247.5,47.5c0.6-0.2,1.1-0.4,1.6-0.6c0.8,3.8,2.6,7.3,5.3,10
	c-1.5,0.8-2.9,1.8-4,3.1c-0.9-0.7-1.9-1.2-3-1.6L247.5,47.5z"/>
<path class="st0" d="M64.1,68c0,3.3-2.6,5.9-5.9,5.9c0,0,0,0,0,0H32.9c-3.3-0.1-5.9-2.7-6-6V18.5c0.1-3.3,2.7-5.9,6-6h23.8
	c3.3,0,5.9,2.7,5.9,5.9c0,3.3-2.7,5.9-5.9,5.9H40.4V37H54c3.2,0,5.7,2.5,5.8,5.7c0,0,0,0,0,0c0,3.1-2.5,5.7-5.6,5.7c0,0-0.1,0-0.1,0
	H40.4v13.6h17.8C61.4,62.1,64.1,64.7,64.1,68C64.1,68,64.1,68,64.1,68z"/>
<path class="st0" d="M112.7,34.9L98.7,69c-1.3,3.4-4.5,5.6-8.1,5.6c-3.5,0-6.6-2.2-7.8-5.5L68.6,35c-1.3-3.4,0.4-7.3,3.8-8.6
	c0.8-0.3,1.6-0.4,2.4-0.4c3-0.2,5.7,1.8,6.4,4.7L91,58.3l9.1-27.4c1.1-3.3,3.4-4.9,6.3-4.9c3.7,0,6.6,2.9,6.7,6.6
	C113.1,33.4,113,34.2,112.7,34.9z"/>
<path class="st0" d="M131,54v0.2c0,2.6,1.6,10.1,12.1,10.1c3.8,0,5.4-1.1,8.2-2.1c2.7-1,5.7,0.3,6.8,3c1.3,3.2,0.2,5.8-2.8,7.4
	c-4,2-8.4,3-12.8,3c-19.8,0-24.8-12.8-24.8-24.6c0-14.2,7.6-25.9,23.4-25.9c14.2,0,18.2,10.6,18.2,21.2v1.6c0,3.8-2.3,6.2-6.2,6.2
	L131,54z M131.3,44.6h16c0-5-1.4-9.3-7.6-9.3C134.1,35.4,131.4,41.1,131.3,44.6L131.3,44.6z"/>
<path class="st0" d="M210.3,41v27c0,3.7-3,6.6-6.6,6.6c-3.7,0-6.6-3-6.6-6.6V44.5c0-5.3-2.2-7.8-6.8-7.8c-3.1,0-6.1,1.3-8.3,3.5V68
	c0,3.7-3,6.7-6.7,6.7s-6.7-3-6.7-6.7V38.8c0-2.1-0.6-3.8-0.7-5.7c-0.3-3.3,1.3-6,4.1-7c4.5-1.4,8,0.8,9.2,4.6c0,0.1,0.2,0.2,0.2,0.3
	c2.6-2.9,8.2-5.4,13.3-5.4C208.1,25.8,210.3,34.6,210.3,41z"/>
<path class="st0" d="M247.5,68.3c0,2.8-2,4.6-4.9,5.7l-3,0.5c-7.2,0-13.2-3-13.2-11.5V38.1h-2.5c-2.9,0-5.2-2.3-5.2-5.2
	c0-2.9,2.3-5.2,5.2-5.2h2.5V21c0-3.6,2.9-6.6,6.6-6.6s6.6,2.9,6.6,6.6c0,0,0,0,0,0v6.6h4.2c2.9,0,5.2,2.3,5.2,5.2s-2.3,5.2-5.2,5.2
	h-4.2v19.4c0,4.2,0.6,6.1,3.1,6.2h0.2C246.2,63.6,247.5,65.8,247.5,68.3z"/>
<path class="st0" d="M288.1,60.2c0,12-9.2,15.3-16.6,15.3c-5.8,0-10.8-1.3-14.2-3.9c-2.2-1.7-2.9-4.7-1.6-7.1
	c1.4-2.7,4.7-3.7,7.4-2.3c0.1,0,0.1,0.1,0.2,0.1c2.3,1.5,5,2.3,7.8,2.4c2,0.2,3.7-1.3,3.9-3.3c0-0.1,0-0.3,0-0.4
	c0-2.6-3-4.4-8.2-7.1c-6.2-3.2-10.2-6.4-10.2-13.9c0-11.5,9.7-14.6,17.2-14.6c3.4,0,6.8,0.9,9.8,2.6c2.6,1.6,4.3,4.9,2.3,8
	c-1.5,2.5-4.9,2.9-7.6,1c-1.4-1-3.1-1.5-4.8-1.4c-2-0.1-3.6,1.5-3.7,3.5c0,0.1,0,0.1,0,0.2c0,1.9,1.5,3.1,6.6,5.8
	C282.5,48.3,288.1,51.8,288.1,60.2z"/>
</svg>