<svg version="1.1" xmlns="http://www.w3.org/2000/svg" viewBox="0 0 315 92" width="315" height="92">
<style type="text/css">
	.st0{fill:#FFF;}
</style>
<path d="M242.6,73.9c0.5-1,0.7-2.1,0.7-3.3c0-3.9-2.9-7.3-6.8-7.9c1.7-6.4,2.3-16.9,2.8-37v-4.5c0-4.4-3.6-8-8-8h-13.8
	c0-1.3,0.1-2.7,0.1-4c0-0.1,0-0.2,0-0.4c0-4.4-3.6-8-8-8h-10.3c-4.4,0-7.9,3.5-8,7.8V9c0,1.4-0.1,2.9-0.1,4.3h-5.7
	c-3.7-4.5-8.4-9.1-10.1-10.6c-2.8-2.7-7.1-3-10.2-0.7L158,7.2c-0.5,0.3-0.9,0.7-1.2,1.1c-1.4-2.7-4.2-4.4-7.2-4.3H87.9
	c-4.4,0-8,3.6-8,8v27.6c0,11.7-0.8,24.7-6.7,32.8C70.6,76,71.4,81,75,83.6c0.4,0.3,0.7,0.5,1.1,0.7c1.9,1.2,3.7,2.6,5.3,4.2
	c1.5,1.7,3.7,2.6,5.9,2.6h0.4c2.4-0.1,4.6-1.3,6-3.2c1.2-1.6,2.3-3.2,3.3-5c1.5,1.7,3.7,2.6,5.9,2.6h8.6c3,0,5.7-1.7,7.1-4.3h3.7
	c0.3,0.8,0.5,1.7,0.6,2.5c0.5,4,3.9,7,7.9,7c7.6,0,13.3-0.2,18-2.4l0.2-0.1c2.3-1.1,4.2-2.8,5.6-4.8l3.5,4.8
	c1.5,2.1,3.9,3.3,6.4,3.3h0.5c2.7-0.2,5.2-1.7,6.5-4.1c1.2-2.1,2.1-3.6,2.8-4.6c1,0.6,2,1.3,3.2,1.9c7.8,4.4,16.5,5.3,27.1,5.3
	c8.4,0,21.7-0.6,28.1-0.9c4.2-0.2,7.5-3.6,7.6-7.8C240.9,78.9,241.6,76.4,242.6,73.9z M160.6,60.6c-1,0.7-2.1,1.5-3.1,2.4V51.6
	c0.7,0.2,1.4,0.3,2.1,0.3h1L160.6,60.6z M159.6,26.5c-0.7,0-1.4,0.1-2.1,0.3V20c2,2.2,4,4.5,5.6,6.5L159.6,26.5z M186.3,45.4v-6.8
	h2.5C188.2,41,187.4,43.3,186.3,45.4z M212.3,51.4h-0.5c0.3-0.7,0.5-1.5,0.8-2.2C212.5,50.1,212.4,50.8,212.3,51.4L212.3,51.4z"/>
<path class="st0" d="M149.6,70.3c0,5-1,7.3-4.2,8.9c-3,1.4-7.7,1.6-14.6,1.6c-0.5-3.1-1.5-6.1-2.9-8.9c4.1,0.2,8.8,0.2,10.2,0.2
	s1.9-0.5,1.9-1.8V18.8H97.3v18.9c0,13.1-1.3,31.9-10,43.5c-2.3-2.3-4.9-4.3-7.7-6c7.6-10.5,8.2-25.8,8.2-37.5V10h61.7L149.6,70.3z
	 M113.5,37.6v-5.1h-11.9v-7.2h11.9V20h9v5.3h12.6v7.2h-12.6v5.1h14.2V45H100v-7.4H113.5z M111.5,71.2v4.3h-8.6v-26h30.8v21.7
	L111.5,71.2z M111.5,56.8v7.4h13.4v-7.4L111.5,56.8z"/>
<path class="st0" d="M178.3,63.9c1.3,0.9,2.8,1.9,4.8,3c5.4,3.3,12.9,3.8,22.2,3.8c10.1-0.1,20.1-0.7,30.1-2
	c-1.1,2.7-2.8,7.7-2.9,10.6c-5.9,0.3-19.2,0.9-27.7,0.9c-10.6,0-17.3-1-23.2-4.3c-3.7-2-6.6-4.6-8.3-4.6c-2.3,0-5.8,5.4-8.6,10.4
	l-7-9.6c3.8-4,7.6-7.1,11-8.8V41.9h-9v-9.4h18.6V63.9z M173.9,25.8c-2.2-3.8-7.3-9.8-11.3-14.1l7.4-5.3c4.1,3.9,9.4,9.5,12,13.3
	L173.9,25.8z M208.4,28.6c-1.8,15.7-6.6,29.5-20.1,39c-1.8-2.8-4.1-5.2-6.8-7.1c11.5-7.7,15.4-19,16.9-31.9H184v-9.2h15.1
	c0.2-4,0.2-8.2,0.3-12.4h10.3c-0.1,4.2-0.2,8.3-0.5,12.4h22.2v4.2c-0.7,25.8-1.5,35.7-4.3,39c-2,2.7-4.2,3.6-7.3,4.1
	c-3.9,0.3-7.8,0.4-11.8,0.2c-0.3-3.4-1.5-6.8-3.4-9.7c4.5,0.3,8.6,0.3,10.6,0.3c1.2,0.2,2.4-0.3,3.2-1.1c1.6-1.8,2.5-9.6,3-27.8
	L208.4,28.6z"/>
</svg>