<svg version="1.1" xmlns="http://www.w3.org/2000/svg" viewBox="0 0 562.5 148" width="563" height="148">
<style type="text/css">
	.st0{fill:#408C0D;}
	.st1{fill:#FFF;}
</style>
<path class="st0" d="M24.8,22.8c3.8,4.4,8.5,8,13.8,10.3c-1.3,1.2-2.4,2.6-3.4,4.1c-5.2-2.7-9.7-6.5-13.3-11.2v12.5h-5.1V26.1
	c-3.6,4.6-8.2,8.3-13.4,11c-1-1.5-2.1-2.9-3.4-4.1c5.4-2.3,10.1-5.8,13.9-10.2H1.1v-4.6h7.7c-0.7-2.5-1.7-4.8-3.1-7L10,9.6H3.1V4.9
	h13.7V0.5h5.1v4.4H36v4.7h-6.7L34,11c-1.3,2.5-2.7,4.9-4.3,7.2h7.9v4.6L24.8,22.8z M10.1,9.6c1.5,2.2,2.6,4.6,3.5,7.1l-3.9,1.5h7.1
	V9.6H10.1z M21.9,9.6v8.6h6.9L25.4,17c1.4-2.4,2.5-4.8,3.5-7.4H21.9z"/>
<path class="st0" d="M69.3,17.7c2.7,2.8,6,5,9.7,6.4c-1.3,1.2-2.3,2.5-3.3,4c-4.8-2.4-9-5.9-12-10.4h-7.9c-1,1.5-2.1,2.8-3.3,4.1
	c2.9-0.6,5.8-1.6,8.5-2.8l4,2.1c-4,2.2-8.3,3.7-12.7,4.7c-0.5-0.8-1.1-1.5-1.8-2.2c-2,1.8-4.2,3.2-6.6,4.4c-1.1-1.4-2.3-2.6-3.6-3.8
	c3.6-1.5,6.8-3.7,9.4-6.6h-8.5v-4.2h11.4c0.5-0.8,0.9-1.7,1.2-2.6c-5.3,0.2-6.7,0.4-7.8,0.8c-0.3-1.5-0.8-3-1.4-4.4
	C46,7,47,6.5,48,5.9c3-1.6,5.7-3.6,8.2-5.9l4.4,2.4c-2,1.6-4.1,3.1-6.3,4.4l11.3-0.3c-1.2-0.9-2.4-1.8-3.5-2.6l3.8-2.4
	c3.6,2.3,8.2,5.8,10.5,8.3l-4.1,2.7c-0.7-0.8-1.5-1.5-2.2-2.2l-10.5,0.4c-0.4,1-0.8,1.9-1.2,2.8h19.9v4.2L69.3,17.7z M73.5,29.7
	c-5.6,5.4-14.9,7.7-25.5,9c-0.5-1.5-1.3-3-2.2-4.3c9.6-0.7,18.7-2.6,23.2-6.7L73.5,29.7z M68.3,25.5C64,28.7,57.4,30.8,51.2,32
	c-0.7-1.4-1.6-2.6-2.7-3.7c5.5-0.7,12.3-2.4,15.7-4.7L68.3,25.5z"/>
<path class="st0" d="M100.1,7.8c0,0,0,1.6,0,2.2c-0.4,17.4-0.7,23.6-1.9,25.5c-0.7,1.1-1.8,1.9-3.1,2.1c-1.6,0.2-3.3,0.3-4.9,0.2
	c-0.1-1.7-0.6-3.4-1.4-4.8c1.6,0.1,3.1,0.2,3.9,0.2c0.6,0,1.1-0.2,1.4-0.7c0.8-1.1,1.1-6.2,1.3-19.8h-4.2c-0.4,10.9-1.8,20-7.1,26
	c-0.9-1.4-2.1-2.6-3.5-3.6c4.6-5.2,5.7-13,6-22.5h-4.8V7.8h4.8c0-2.2,0-4.4,0-6.7h4.8c0,2.3,0,4.5,0,6.7H100.1z M117.1,5.1v32.3
	h-4.8v-2.5H107v2.8h-4.7V5.1H117.1z M112.2,30.2V9.8H107v20.4H112.2z"/>
<path class="st0" d="M129,20.1c-1.7-1.2-5.2-3.1-7.6-4.4l2.6-3.6c2.2,1.1,5.9,2.9,7.7,4L129,20.1z M122,34.8
	c2.8-4.1,5.4-8.4,7.7-12.8l3.5,3.3c-2.2,4.3-4.7,8.9-7.2,12.9L122,34.8z M130.7,9c-2.4-1.6-4.9-3.1-7.4-4.5L126,1
	c2.3,1.1,5.8,2.9,7.6,4.1L130.7,9z M148.8,17v5.1h8.3v16.3h-4.6v-1.5h-12.2v1.7h-4.4V22.1h8.3V17h-10.8v-4.7h10.8V7.5
	c-2.6,0.4-5.4,0.7-7.9,0.9c-0.3-1.4-0.8-2.8-1.4-4.2c6.9-0.7,14.6-2,19.1-3.8l3.7,3.8c-2.9,1-5.8,1.9-8.9,2.4v5.6h10.4V17H148.8z
	 M152.5,26.5h-12.2v6h12.2V26.5z"/>
<path class="st0" d="M198.9,9.3c0,0,0,1.6,0,2.2c-0.4,16.4-0.9,22.4-2.2,24.3c-0.7,1.2-2,2-3.4,2.1c-1.8,0.2-3.6,0.2-5.5,0.1
	c-0.1-1.7-0.6-3.3-1.4-4.7c1.9,0.2,3.7,0.2,4.5,0.2c0.6,0.1,1.2-0.2,1.5-0.7c0.9-1.1,1.3-6,1.7-18.8h-4.2c-0.6,10.2-2.3,18.9-8,24.6
	c-1-1.4-2.2-2.7-3.6-3.7c1.2-1.2,2.2-2.5,3.1-3.9l-3.9,1.2c-0.1-0.5-0.3-1.2-0.5-1.9c-10.1,2.6-11.8,3.2-13,3.9
	c-0.4-1.5-0.9-2.9-1.6-4.3c0.8-0.3,1.3-1.2,2-2.7c1.2-3.1,2.2-6.4,2.9-9.7h-5v-4.4h18v4.4h-8c-0.9,3.5-2,7-3.4,10.3l6.9-1.6
	c-0.6-1.8-1.2-3.5-1.8-5.1l3.8-1.1c1.5,3.4,2.8,6.9,3.8,10.4c2.4-4.5,3.3-10.1,3.6-16.5h-4.4V9.3h4.6c0-2.6,0-5.3,0-8.1h4.8
	c0,2.8,0,5.5-0.1,8.1H198.9z M179.4,7.9h-15.9V3.6h15.9V7.9z"/>
<path class="st0" d="M239.4,25.1h-8.9v13.5h-5.1V25.1h-9.3c-0.8,5.2-3.1,10.3-10,13.9c-1-1.5-2.2-2.8-3.6-4c5.3-2.7,7.4-6.2,8.2-9.9
	h-8.4v-4.7h8.9v-7.1h-7.5V8.6h8.6c-0.9-2.3-2.1-4.5-3.5-6.5l4.6-1.8c1.6,2.1,2.9,4.5,4,6.9l-3.6,1.5h10.8c1.4-2.7,2.4-5.5,3.2-8.4
	l5.8,1.5c-1.1,2.3-2.4,4.8-3.6,6.9h8.1v4.7h-7.7v7.1h8.9L239.4,25.1z M225.4,20.4v-7.1h-9v7.1H225.4z"/>
<path class="st0" d="M279.5,32.2v4.7h-36.6v-4.7h6.1V2.7H274v29.5H279.5z M253.8,7.3v5.1H269V7.3H253.8z M269,17h-15.2v5.2H269V17z
	 M253.8,32.2H269v-5.3h-15.2V32.2z"/>
<path class="st0" d="M318.9,2.4c0,0,0,1.2,0,1.8c-0.4,8.7-0.8,12.2-1.8,13.4c-0.7,0.9-1.8,1.5-2.9,1.5c-1.6,0.1-3.1,0.2-4.7,0.1
	c-0.1-1.5-0.5-2.9-1.3-4.2c1.2,0.1,2.4,0.1,3.6,0.1c0.4,0.1,0.9-0.1,1.2-0.4c0.5-0.6,0.9-2.8,1.1-8.2h-4.4c-0.6,6-2.4,10.6-8.3,13.5
	c-0.5-1-1.2-2-2-2.9l-2.8,1.1c-0.1-0.5-0.3-1.1-0.5-1.8c-7.6,1.9-9,2.4-9.9,3c-0.7-1.3-1.5-2.4-2.5-3.5c1.2-1.1,1.8-2.7,1.8-4.3V3.7
	c3.9-0.8,7.7-2,11.4-3.5l3.1,3.6c-3.2,1.1-6.4,2-9.8,2.7v7.1l4.2-1c-0.5-1.2-1.2-2.4-1.9-3.6l3.9-1.6c1.6,2.6,2.9,5.3,4,8.2
	c3.3-2.2,4.3-5.3,4.7-9.1h-3.8V2.4H318.9z M287.5,20.8h28.3v17.6h-5.2v-1.2h-18.2v1.3h-4.9V20.8z M292.4,24.7v2.5h6.9v-2.5H292.4z
	 M299.3,33.4v-2.7h-6.9v2.7H299.3z M310.6,24.7h-6.7v2.5h6.7V24.7z M310.6,33.4v-2.7h-6.7v2.7H310.6z"/>
<path class="st0" d="M343.5,8.4v6.4l0.8-0.9c4.4,2.2,10.8,5.7,13.9,8.2l-3.6,4.4c-3.5-2.8-7.2-5.3-11.1-7.4v19.4h-5.2V8.4h-14.7V3.5
	h36.3v4.9L343.5,8.4z"/>
<path class="st0" d="M375.9,2.1c-1.1,2.9-2.4,5.7-3.9,8.4v28.1h-4.6V17.6c-0.8,1.2-1.7,2.3-2.7,3.4c-0.7-1.8-1.6-3.5-2.6-5.1
	c4.1-4.4,7.3-9.6,9.2-15.3L375.9,2.1z M390.3,12.3v20.9c0,2.3-0.4,3.7-1.9,4.5s-3.4,1-6,1c-0.3-1.7-0.9-3.4-1.7-4.9c1.7,0,3.4,0,4,0
	s0.7-0.2,0.7-0.7V12.3h-4.7c-1,2.2-2.3,4.3-3.8,6.2c-1.2-1.2-2.5-2.2-3.9-3.2c3.1-3.5,5.5-9.1,6.9-14.7l4.7,1.1
	c-0.5,2.1-1.2,4.1-1.9,6.1h14l0.8-0.2l3.4,0.7c-0.5,3.3-1.2,7.1-1.8,9.5l-4.1-0.7c0.2-1.3,0.4-3,0.6-4.8L390.3,12.3z M383.6,19.6
	c-1,4.8-2.9,9.4-5.6,13.6c-1.3-1-2.7-1.9-4.2-2.6c2.3-2.9,4-7.5,5-12L383.6,19.6z M396.1,18.2c2.1,4.2,3.6,8.7,4.5,13.3l-4.6,1.6
	c-0.8-4.6-2.1-9.2-4.1-13.4L396.1,18.2z"/>
<path class="st0" d="M440.2,6.8c0,0,0,1.6,0,2.2c-0.5,18.2-1,24.7-2.6,26.9c-0.9,1.3-2.3,2.1-3.9,2.2c-2.1,0.2-4.3,0.2-6.4,0.1
	c-0.2-1.7-0.7-3.3-1.6-4.7c2.6,0.2,5,0.2,6.1,0.2c0.7,0.1,1.3-0.2,1.8-0.7c1.2-1.3,1.7-7.4,2.2-21.8H427c-1,2.3-2.2,4.4-3.6,6.4
	c-1-0.8-2-1.6-3.1-2.3v19h-10.9v3H405V7.1h4.6c0.5-2.2,0.9-4.3,1.1-6.6l5.3,0.7c-0.7,2-1.4,4.1-2.1,5.8h6.3v6.6
	c2.6-4,4.4-8.5,5.5-13.1l4.6,1.1c-0.5,1.8-1,3.5-1.6,5.2L440.2,6.8z M415.8,11.3h-6.5v6.6h6.5V11.3z M415.8,30.1v-8h-6.5v8H415.8z
	 M429.4,27.9c-1.7-3.3-3.6-6.4-5.7-9.4l3.8-2.2c2.2,2.9,4.2,5.9,6,9.1L429.4,27.9z"/>
<path class="st0" d="M457.7,26.8c0.3,1.5,0.8,2.9,1.5,4.3c-7,5-8.3,6.1-9,7c-0.7-1.3-1.5-2.5-2.5-3.5c1.3-1.1,2-2.8,2-4.5V17.6h-5.9
	v-4.6h10.8V29L457.7,26.8z M453.1,11.1c-2-2.5-4.3-4.9-6.7-7l3.2-3c2.5,2,4.8,4.2,7,6.6L453.1,11.1z M474.3,33.3
	c2.1,0,2.5-0.9,2.8-6.3c1.4,0.9,3,1.6,4.6,2c-0.6,7-2,9-7,9H467c-5.4,0-7.1-1.4-7.1-6.7v-15h14.4V8H459V3.1h20.2v19.7h-4.9v-2h-9.4
	v10.5c0,1.7,0.4,2,2.6,2H474.3z"/>
<path class="st0" d="M518.9,22.7c-2.4,1.9-4.9,3.7-7.4,5.3c2.9,2.2,6.3,3.8,9.9,4.7c-1.3,1.3-2.4,2.7-3.3,4.3
	c-5.1-1.6-9.6-4.7-12.9-8.9V34c0,2.3-0.5,3.4-2.2,4s-3.9,0.7-6.9,0.7c-0.4-1.5-0.9-2.9-1.6-4.2c1.9,0.1,4.3,0.1,4.9,0.1
	s0.9-0.2,0.9-0.7v-3c-4.5,2-9.2,4-12.9,5.5l-2.6-4.3c3.8-1.3,9.8-3.5,15.5-5.8v-6.4H485v-4.2h25.6l0.1-2.2h-22V9.1H511l0.1-2.2
	h-23.6V2.5h24.3l0.9-0.2l3.9,0.2c-0.1,4.2-0.4,8.9-0.8,13.1h5v4.2h-5.9L518.9,22.7z M494.6,28.2c-2.2-2-4.7-3.8-7.3-5.3l3.2-2.9
	c2.7,1.3,5.2,3,7.5,4.9L494.6,28.2z M505.2,20.7c0.9,1.6,1.9,3.1,3.1,4.5c2.2-1.6,4.3-3.4,6.3-5.4h-9.4V20.7z"/>
<path class="st0" d="M537.6,27.9h-7.7v3.6h-4.4V4h12.1L537.6,27.9z M529.9,8.5v15h3.3v-15H529.9z M555.3,33.5c2.1,0,2.5-0.9,2.9-5.1
	c1.3,0.9,2.8,1.5,4.4,1.9c-0.6,5.7-2.1,7.8-6.8,7.8h-8.5c-5.3,0-7-1.5-7-7.3V2.9h20.6v22.4h-4.7V23H545v7.7c0,2.4,0.3,2.8,2.7,2.8
	H555.3z M545,7.4v11.2h3.2V7.4H545z M556.1,7.4h-3.5v11.2h3.5V7.4z"/>
<path d="M159.3,59.4H150c-3.8,0-7.1,2.7-7.9,6.5h-4.5c-1.5-1.7-3.7-2.7-6-2.7H90c-2.2,0-4.2,0.9-5.7,2.4c-1.1-0.5-2.2-0.7-3.4-0.8
	H68.5c-0.1-0.2-0.2-0.4-0.3-0.6c-1.1-2-2.9-3.4-5.1-4l-9-2.2c-0.6-0.2-1.3-0.2-1.9-0.2c-3.4,0-6.4,2.2-7.5,5.4
	c-0.2,0.6-0.4,1.1-0.7,1.7h-7.8c-0.1-0.1-0.1-0.3-0.2-0.4c-1.1-2-2.9-3.4-5.1-4L22,58.1c-0.7-0.2-1.3-0.3-2-0.3
	c-3.5,0-6.5,2.2-7.6,5.5c-2.1,6.5-6,13.3-10,17.3c-3.1,3.1-3.1,8.2,0,11.3c0.6,0.6,1.3,1.1,2.1,1.5c0.6,0.3,1.3,0.7,2.1,1.2L6,94.8
	c-4.3,1.2-6.8,5.6-5.6,9.8c0.4,1.3,1.1,2.6,2.1,3.6c1.6,1.6,2.9,3.5,4,5.5c1.1,2.1,3,3.5,5.2,4.1c0.2,0.4,0.4,0.8,0.6,1.2
	c0.8,1.3,1.7,2.7,2.5,4h-3.7c-4.4,0-8,3.6-8,8v8.4c0,4.4,3.6,8,8,8h69.4c2.3,0,4.4-1,5.9-2.6c1.4,1,3.1,1.6,4.8,1.6
	c0.5,0,0.9,0,1.4-0.1c15.4-2.7,28.9-5.2,40.1-7.4l0,0c0.3,0.8,0.5,1.7,0.7,2.6c0.6,3.9,4,6.7,7.9,6.7c7.4,0,12.8-0.4,17.3-2.5
	l0.1-0.1c8.4-4.2,8.4-12.6,8.4-16.1V67.4C167.3,63,163.7,59.5,159.3,59.4z M80.8,91.4c0.5-1,0.8-2,0.8-3.1c1.1-0.1,2.2-0.4,3.2-1
	c-0.2,0.2-0.3,0.5-0.4,0.7c-0.9,1.7-1.1,3.7-0.6,5.6c-1.3-0.3-2.5-0.6-3.8-0.9C80.3,92.4,80.6,91.9,80.8,91.4L80.8,91.4z
	 M83.8,123.6c-1-0.5-2.1-0.7-3.2-0.7h-3c0.9-2,1.7-4,2.5-6c1.6-0.5,2.9-1.4,3.9-2.7v1.8c0,2.3,1,4.5,2.7,6
	C85.6,122.3,84.6,122.8,83.8,123.6L83.8,123.6z"/>
<path class="st1" d="M52.3,84.2c-0.4,0.5-0.9,1-1.4,1.4c7.1,6.2,20,11.6,32.3,14.1c-2.2,2.3-4.1,4.8-5.7,7.5
	c-5.5-1.4-10.8-3.4-15.8-5.9v5.3H28.9v-5c-5,2.4-10.1,4.5-15.4,6.3c-1.5-2.7-3.3-5.2-5.4-7.4c13.8-3.8,28.8-10.9,36.7-20l4.2,2
	c-2-1.4-4.6-3.1-6.3-4.1l0.1-0.1h-9.2c1.4,2.2,2.5,4.5,3.3,7l-8.5,2.4c-1.1-3.2-2.5-6.4-4.2-9.4h-1c-2.1,3.9-4.6,7.5-7.4,10.9
	c-2.5-1.9-5.1-3.6-7.8-5c5-5,9.5-12.8,12-20.5l8.9,2.3c-0.6,1.5-1.2,3.1-1.9,4.7h17.4v6c3.5-3.7,6.3-8.1,7.9-13l9,2.2
	c-0.6,1.6-1.3,3.2-2.1,4.8h21.7v7.5H69.1c1.7,2.3,3.3,4.8,4.6,7.4l-9.1,1.9c-1.4-3.3-3.2-6.4-5.4-9.4h-4.6c-1.2,1.8-2.6,3.5-4.1,5
	L52.3,84.2z M73,110.7c-2.4,6.2-5.1,12.3-8.2,18.2h15.8v8.4H11.1v-8.4h43.4c4.1-6.4,7.5-13.3,9.9-20.6L73,110.7z M26.5,109.1
	c3,4.2,6.6,9.8,8.1,13.6l-8.1,3.8c-2.1-4.9-4.6-9.6-7.5-14.1L26.5,109.1z M57.1,98.8c-4.1-2.3-7.8-5.1-11.3-8.3
	c-3.7,3.2-7.6,5.9-11.8,8.3H57.1z M46.2,107.9c2.8,4.7,5.2,9.6,7,14.7l-8,3.2c-1.7-5.2-3.8-10.3-6.4-15.1L46.2,107.9z"/>
<path class="st1" d="M115.5,123.3c5-0.9,10.2-1.8,15.3-2.6l0.5,8.2c-14,2.7-29.1,5.4-40,7.4l-2.1-8.8c4.8-0.6,10.8-1.6,17.3-2.6
	v-10.9H91.9v-8.2h14.6v-7.1h9v7.1h14.4v8.2h-14.4L115.5,123.3z M90,69.2h41.6v8.2h-11.3c4.2,5.2,9.1,12.3,11.1,17l-7.2,4.7
	c-0.5-1.2-1.1-2.6-1.8-4c-22.1,1.8-25.5,2.2-27.8,3.2c-0.6-1.9-2.1-6.2-3-8.6c1.2-0.3,2.5-1.6,3.7-3.4c1.9-2.9,3.6-5.9,5-9H90V69.2z
	 M118,87.8c-1.5-2.3-3.1-4.6-4.6-6.6l6.7-3.9h-9.6c-2.1,3.9-4.4,7.7-7,11.3L118,87.8z M143.5,120.2h-8.8V71.9h8.8V120.2z
	 M159.3,65.4v61.8c0,5-1,7.4-4,9s-7.6,1.8-13.8,1.8c-0.7-3.2-1.8-6.2-3.2-9.1c4.2,0.2,8.6,0.2,9.9,0.2s1.8-0.5,1.8-1.8V65.4H159.3z"
	/>
</svg>