<svg version="1.1" xmlns="http://www.w3.org/2000/svg" viewBox="0 0 554.9 148" width="555" height="148">
<style type="text/css">
	.st0{fill:#712E07;}
	.st1{fill:#FFF;}
</style>
<path class="st0" d="M33.3,24.4L33,28.6h3.1c1.4-0.1,2.6,1,2.7,2.4c0.1,1.4-1,2.6-2.4,2.7c-0.1,0-0.2,0-0.3,0h-3.8
	c-1.1,5.3-2.9,5.8-6.4,5.8c-0.4,0-1.1,0-1.8,0c-1.3-0.1-2.3-1.2-2.2-2.5c0.1-1.2,1-2.1,2.2-2.2h0.4c0.5,0,0.8-0.1,1.1-1.1h-15
	c-0.7,1.7-2.6,2.4-4.2,1.7c-1.4-0.6-2.2-2-2-3.5l1.1-7.5H2.5C1.1,24.5,0,23.4,0,22c0,0,0,0,0,0c0-1.4,1.1-2.5,2.5-2.5h3.7L6.8,14
	l-0.4,0.4c-1.1,1.1-3,1.1-4.1,0c0,0-0.1-0.1-0.1-0.1c-1-1.1-1-2.8,0-3.9c2.2-2.3,4.1-5,5.3-8c0.7-1.5,2.5-2.2,4-1.5
	c1,0.5,1.6,1.4,1.7,2.5h23.2c1.4,0,2.5,1.1,2.6,2.5c0,0,0,0.1,0,0.1c0,1.4-1.1,2.5-2.5,2.6c0,0,0,0-0.1,0H11l-1.3,1.9h21.2
	c1.7,0,3,1.3,3.1,2.9c0,0.1,0,0.1,0,0.2l-0.2,5.8h2.8c1.4,0,2.5,1.2,2.5,2.5c0,1.4-1.1,2.5-2.4,2.5c0,0,0,0,0,0H33.3z M16.2,24.4
	h-4.1l-0.5,4.2h4.2L16.2,24.4z M17,15.6h-3.9l-0.4,3.8h4L17,15.6z M26.9,24.4h-4.6l-0.5,4.2h4.6L26.9,24.4z M27.4,15.6h-4.2
	l-0.3,3.8h4.4L27.4,15.6z"/>
<path class="st0" d="M75.1,6.7v30.1c-0.1,1.7-1.5,2.9-3.1,2.9c0,0,0,0,0,0c-1.5,0.1-2.8-1-3.1-2.4H51.6c-0.3,1.4-1.6,2.5-3.1,2.4
	c-1.6,0-2.9-1.2-3.1-2.8V6.7c0-2.1,1.7-3.8,3.8-3.8h22C73.4,2.9,75.1,4.6,75.1,6.7C75.1,6.7,75.1,6.7,75.1,6.7z M51.6,8.8v8.2h17.1
	V8.8H51.6z M68.7,31.4v-8.7H51.6v8.7H68.7z"/>
<path class="st0" d="M116.5,10.7v21.5c0,2.4-1.1,3.7-3.6,3.7H89.4c-2.5,0-3.7-1.3-3.7-3.7V10.7c0-2.5,1.2-3.7,3.7-3.7h23.3
	C115.2,7,116.5,8.4,116.5,10.7z M109.6,13.3H92.4v16.1h17.2V13.3z"/>
<path class="st0" d="M154.4,12.9c-2.9,11.7-8.8,20.5-19.6,24.9c-2.1,0.9-4.3,0.3-5.1-1.5c-0.9-2,0.2-3.9,2.3-4.7
	c7.7-2.9,13.3-9.5,15-17.6h-9.8c-2.2,3.5-5,6.5-8.2,9.1c-1.7,1.3-3.7,1.3-4.9-0.1c-1.3-1.4-1.1-3.6,0.3-4.9c0.1-0.1,0.2-0.1,0.2-0.2
	c4.2-3.5,7.6-8,9.7-13c0.6-1.8,2.5-2.8,4.3-2.3c0.1,0,0.3,0.1,0.4,0.1c2,0.8,2.5,2.9,1.7,4.9l-0.2,0.6h10
	C153.6,8.1,155,10.4,154.4,12.9z M154.7,5.5c0.6,0.9,0.3,2.1-0.6,2.8c-0.9,0.6-2.2,0.3-2.8-0.6c0,0,0,0,0,0
	c-0.5-0.8-1.1-1.5-1.8-2.1c-0.8-0.6-1-1.8-0.4-2.6c0.1-0.1,0.1-0.2,0.2-0.2c0.7-0.6,1.8-0.7,2.6-0.2C153.2,3.2,154.1,4.2,154.7,5.5z
	 M159.4,6c-0.9,0.6-2.1,0.4-2.7-0.5c0-0.1-0.1-0.1-0.1-0.2c-0.5-0.7-1.1-1.4-1.7-2.1c-0.9-1-1-2.1-0.2-2.8c0.7-0.6,1.8-0.7,2.5-0.1
	c1.2,0.7,2.1,1.6,2.8,2.8C160.6,4.1,160.3,5.3,159.4,6L159.4,6z"/>
<path class="st0" d="M191.4,8.5c-2.5,2.8-5.3,5.4-8.3,7.6v18.8c0.1,2-1.4,3.7-3.4,3.8c-0.1,0-0.1,0-0.2,0c-1.9,0-3.5-1.6-3.5-3.5
	c0-0.1,0-0.2,0-0.3v-14c-3,1.8-6.2,3.4-9.6,4.6c-2.2,0.8-4.1,0-4.8-1.8c-0.7-1.8,0.2-3.7,1.9-4.4c0.1,0,0.2-0.1,0.4-0.1
	c8.7-3.1,16.4-8.3,22.5-15.2c1.3-1.4,3.2-1.9,4.7-0.6C192.7,4.7,192.8,7,191.4,8.5z"/>
<path class="st0" d="M201.8,7.6c1.1-1.9,3-2.3,5.4-1.3c2.1,0.8,4,2,5.7,3.4c2,1.8,2.5,4.3,1.1,6.1s-3.5,2.1-5.8,0.2
	c-1.6-1.3-3.2-2.4-4.9-3.4C201.6,11.6,200.9,9.4,201.8,7.6C201.8,7.6,201.8,7.6,201.8,7.6z M232.5,18.5
	c-4.6,7.5-14.1,15.5-24.9,18.8c-2.2,0.7-4.3,0.1-5.1-2.1s0.5-4.1,2.9-4.9c10.3-3.2,15.9-7.8,21.6-15.8c1.3-1.9,3.3-2.4,4.9-1.3
	S233.6,16.6,232.5,18.5z"/>
<path class="st0" d="M269.2,34.6c-0.1,2.2-1.8,3.3-4.5,3.1c-10.3-0.6-16.4-5.5-16.4-13c0-4.8,2.1-9.3,5.8-12.3l-12,1.2
	c-2.2,0.2-3.8-1.1-3.9-3s1.2-3.2,3.4-3.3c5.6-0.3,13.5-0.8,17.2-1.2c2.9-0.2,6.2-0.6,9.1-0.9c2.1-0.2,3.8,0.7,4,2.7s-1,3.5-3.3,3.8
	c-1.6,0.2-3.1,0.4-4,0.6c-1.1,0.3-2.1,0.8-3,1.3c-4.5,3.1-6.6,6.6-6.6,10.7s2.9,6.2,10.4,6.8C267.7,31.3,269.3,32.3,269.2,34.6z
	 M266.9,16.4c1,0.9,1.7,2,2.1,3.2c0.4,1-0.1,2-1,2.4c-1,0.4-2-0.1-2.4-1c-0.3-0.8-0.8-1.5-1.3-2.2c-0.7-0.7-0.6-1.9,0.2-2.5
	c0.1,0,0.1-0.1,0.2-0.1C265.3,15.7,266.3,15.8,266.9,16.4z M273.1,19.7c-0.9,0.4-2,0-2.4-0.9c0-0.1,0-0.1-0.1-0.2
	c-0.3-0.8-0.8-1.5-1.3-2.2c-0.6-0.7-0.6-1.9,0.2-2.5c0,0,0.1-0.1,0.1-0.1c0.8-0.4,1.7-0.3,2.3,0.3c0.9,0.8,1.6,1.9,2,3.1
	C274.3,18.1,273.9,19.2,273.1,19.7z"/>
<path class="st0" d="M311,33.8c0.2,2.2-1.4,3.4-3.5,3.7c-2.9,0.3-5.9,0.4-8.9,0.4c-11.5,0-17.2-3.1-17.2-9.7c0-4.4,3.7-8,8.3-10.8
	c-1.8-3.2-2.1-6.3-2.2-11.8c0-2.4,1.5-4,3.5-4s3.5,1.4,3.5,3.9c0,4,0,6.8,1,9c2.7-1.1,5.4-2.1,8.2-2.9c2.4-0.7,4.4-0.5,5.2,1.6
	c0.8,2.2-0.6,4-3.1,4.6c-9.2,2.2-17.7,6.2-17.7,10c0,2.5,2.5,3.9,10.6,3.9c2.8,0,5.6-0.2,8.2-0.5C309.1,31,310.8,31.6,311,33.8z
	 M303.1,6.2c-0.8-0.7-0.9-1.9-0.2-2.7c0.1-0.1,0.1-0.1,0.2-0.2c0.8-0.6,1.8-0.6,2.6,0c1.2,0.8,2.1,1.9,2.7,3.2
	c0.5,1,0.2,2.2-0.7,2.8c-1,0.6-2.2,0.2-2.7-0.7c0,0,0,0,0-0.1C304.3,7.7,303.8,6.9,303.1,6.2z M313.9,7.7c-0.9,0.6-2.2,0.3-2.7-0.7
	c0,0,0-0.1-0.1-0.1c-0.5-0.8-1.1-1.5-1.7-2.2c-0.8-0.7-0.8-2-0.1-2.7c0,0,0.1-0.1,0.1-0.1c0.7-0.6,1.8-0.6,2.6,0
	c1.1,0.7,2.1,1.8,2.6,3C315.2,5.9,314.8,7.1,313.9,7.7z"/>
<path class="st0" d="M353.7,25.6c-1.6,9.5-6.1,12.4-11.5,12.4c-4.9,0-7.8-3.1-8.1-7.5s0-6.7-1.5-6.9c-0.8,0-1.5,0.4-2,0.9
	c-0.8,0.8-1.5,1.7-2,2.7c-1.1,1.9-2.4,5.2-3.8,8.2c-0.7,1.9-2.8,2.8-4.6,2.1c-0.1,0-0.2-0.1-0.3-0.1c-1.7-0.9-2.2-2.9-1.4-5
	c3.9-8.8,7.3-17.7,10.2-26.9c0.5-2,2.5-3.2,4.5-2.7c0.1,0,0.2,0.1,0.4,0.1c1.9,0.7,2.8,2.8,1.8,5.2c-0.9,2.1-2.4,5.9-4.3,10.2
	c1.1-0.6,2.4-1,3.7-1c4,0,5.1,2.5,5.3,9.2c0.1,4,0.8,5.1,2.5,5.1c2.3,0,3.7-1.5,4.3-7.6c0.2-2.4,1.9-3.8,4-3.5
	S354.2,22.8,353.7,25.6z"/>
<path class="st0" d="M389.9,33.8c0.2,2.2-1.4,3.4-3.5,3.7c-2.9,0.3-5.9,0.4-8.9,0.4c-11.5,0-17.2-3.1-17.2-9.7c0-4.4,3.7-8,8.3-10.8
	c-1.8-3.2-2.1-6.4-2.2-11.8c0-2.4,1.5-4,3.5-4s3.5,1.4,3.5,3.9c0,4,0,6.8,1,9c2.7-1.1,5.4-2.1,8.2-2.9c2.4-0.7,4.4-0.5,5.2,1.6
	c0.8,2.2-0.6,4-3.1,4.6c-9.2,2.2-17.7,6.2-17.7,10c0,2.5,2.5,3.9,10.6,3.9c2.8,0,5.6-0.2,8.2-0.5C387.9,31,389.6,31.6,389.9,33.8z
	 M382,6.2c-0.8-0.7-0.9-1.9-0.2-2.7c0.1-0.1,0.1-0.1,0.2-0.2c0.8-0.6,1.8-0.6,2.6,0c1.2,0.8,2.1,1.9,2.7,3.2c0.5,1,0.2,2.2-0.7,2.8
	c-1,0.6-2.2,0.2-2.7-0.7c0,0,0,0,0-0.1C383.2,7.7,382.6,6.9,382,6.2z M392.8,7.7c-0.9,0.6-2.2,0.3-2.7-0.7c0,0,0-0.1-0.1-0.1
	c-0.5-0.8-1.1-1.5-1.7-2.2c-0.8-0.7-0.8-2-0.1-2.7c0,0,0.1-0.1,0.1-0.1c0.7-0.6,1.8-0.6,2.6,0c1.1,0.7,2.1,1.8,2.6,3
	C394,5.9,393.7,7.1,392.8,7.7L392.8,7.7z"/>
<path class="st0" d="M432.6,25.6C431,35.1,426.5,38,421.1,38c-4.9,0-7.8-3.1-8.1-7.5s0-6.7-1.5-6.9c-0.8,0-1.5,0.4-2,0.9
	c-0.8,0.8-1.5,1.7-2,2.7c-1.1,1.9-2.4,5.2-3.8,8.2c-0.7,1.9-2.8,2.8-4.6,2.1c-0.1,0-0.2-0.1-0.3-0.1c-1.7-0.9-2.2-2.9-1.4-5
	c3.9-8.8,7.3-17.7,10.2-26.9c0.5-2,2.5-3.2,4.5-2.7c0.1,0,0.2,0.1,0.4,0.1c1.9,0.7,2.8,2.8,1.8,5.2c-0.9,2.1-2.4,5.9-4.3,10.2
	c1.1-0.6,2.4-1,3.7-1c4,0,5.1,2.5,5.3,9.2c0.1,4,0.8,5.1,2.5,5.1c2.3,0,3.7-1.5,4.3-7.6c0.2-2.4,1.9-3.8,4-3.5S433,22.8,432.6,25.6z
	"/>
<path class="st0" d="M445.9,32.8c-0.6,1.8-1.4,3.5-2.2,5.1c-0.7,1.2-2.2,1.7-3.4,1c-0.1,0-0.1-0.1-0.2-0.1c-1.1-0.7-1.5-2.2-0.9-3.3
	c0.7-1.4,1.3-2.8,1.8-4.3c0.4-1.3,1.8-2,3.1-1.7c1.4,0.4,2.2,1.8,1.8,3.1C445.9,32.7,445.9,32.8,445.9,32.8z M454.8,34.6
	c0.6,1.3,0,2.9-1.3,3.5c-1.3,0.6-2.9,0-3.5-1.3c-0.1-0.1-0.1-0.3-0.2-0.5c-0.4-1.1-0.8-2.4-1.3-3.6c-0.5-1.2,0-2.6,1.1-3.2l0.6-0.2
	h-7.7c-1.6,0-3-1.3-3-2.9V5.1c0-1.7,1.3-3,3-3h8.9c1.7,0,3,1.3,3,3v21.3c0,1.6-1.4,2.9-3,2.9c0.7,0.2,1.3,0.7,1.6,1.3
	C453.7,31.9,454.3,33.2,454.8,34.6z M448.6,7.4h-3.5v2.4h3.5V7.4z M448.6,14.4h-3.5v2.5h3.5V14.4z M448.6,21.5h-3.5V24h3.5V21.5z
	 M477.2,18.1c0,1.5-1.2,2.7-2.7,2.7H469v12.8c0,4.5-1.3,5.8-5.6,5.8h-1.9c-1.7-0.1-3-1.4-2.9-3.1c0,0,0,0,0,0
	c0.1-1.5,1.4-2.7,2.9-2.7h0.2c0.9,0,1.1-0.2,1.1-0.7v-12h-5.4c-1.5,0-2.7-1.2-2.7-2.7c0,0,0,0,0,0c0-1.5,1.2-2.8,2.7-2.8h17
	C476,15.4,477.2,16.6,477.2,18.1L477.2,18.1z M455.4,12.1V8.8c0-1.9,1.6-3.5,3.5-3.5h3.8V3.6c0-1.7,1.4-3.1,3.1-3.1c0,0,0,0,0,0
	c1.7,0,3,1.3,3.1,2.9c0,0,0,0.1,0,0.1v1.6h4c1.9,0,3.5,1.6,3.5,3.5V12c-0.1,1.6-1.5,2.8-3.1,2.7c-1.5-0.1-2.7-1.3-2.7-2.7v-1.4H461
	v1.5c0,1.5-1.2,2.8-2.7,2.8c0,0,0,0,0,0C456.7,14.9,455.4,13.7,455.4,12.1C455.4,12.1,455.4,12.1,455.4,12.1L455.4,12.1z"/>
<path class="st0" d="M512.8,34.4c-1,1.6-3,2.1-5.5,0.2c-1.6-1.2-3.3-2.3-5.1-3.2c-0.6,4.5-3.1,6.7-9.4,6.7c-6.6,0-10.1-3.5-10.1-7.3
	c0-4.1,3.3-7.5,10.4-7.5c0.9,0,1.7,0,2.6,0.1c0-0.9,0-1.8-0.1-2.7h-8.9c-1.6,0.1-3-1-3.1-2.6c0-0.1,0-0.2,0-0.3
	c0-1.6,1.2-2.8,2.8-2.9c0.1,0,0.2,0,0.3,0h8.7l-0.1-2.9h-9.6c-1.6,0.1-2.9-1.2-3-2.8c0,0,0-0.1,0-0.1c0-1.6,1.2-2.8,2.8-2.9
	c0.1,0,0.1,0,0.2,0h9.4c0-0.3,0-0.6,0-0.9c-0.2-1.9,1.2-3.5,3.1-3.7c0.1,0,0.3,0,0.4,0c1.8-0.1,3.4,1.3,3.5,3.1c0,0.2,0,0.4,0,0.6
	v0.9h8.7c1.5-0.2,2.9,0.9,3,2.4c0,0.2,0,0.3,0,0.5c0.1,1.5-1.1,2.9-2.6,2.9c-0.1,0-0.3,0-0.4,0H502V15h8.1c1.8,0,3.1,1,3.1,2.9
	c0,1.6-1.2,2.9-2.8,2.9c-0.1,0-0.3,0-0.4,0h-7.9l0.1,3.9c3.2,0.8,6.2,2.2,8.9,4.2C513.2,30.6,513.8,32.7,512.8,34.4z M495.8,29
	c-1.1-0.2-2.1-0.4-3.2-0.4c-2.8,0-4,0.9-4,2.1s1.1,1.9,3.8,1.9S495.8,32,495.8,29L495.8,29z"/>
<path class="st0" d="M554.9,26.5c0,6.9-4.6,11.5-14.5,11.5c-7,0-10.8-2.9-10.8-7.2c0-3.7,3.4-6.7,8.5-6.7c4.7,0,7.6,2.2,8.5,6.9
	c1.3-1,2-2.7,1.9-4.3c0-3.1-2.7-5.8-6.5-5.8c-1.2,0-2.4,0.2-3.5,0.5c-3.3,1-6.9,3.5-10.2,6.6c-1.2,1.3-3.1,1.4-4.4,0.2
	c-0.1-0.1-0.3-0.3-0.4-0.4c-1.1-1.5-0.8-3.6,0.6-4.7c0,0,0.1-0.1,0.1-0.1c5.4-4,10.4-8.3,15.2-13c-2.5,0.2-6.2,0.8-10,0.9
	c-2.2,0.1-3.8-1.1-3.9-3.1c0-1.8,1.2-3.2,3.6-3.3c5.6-0.1,11.3-0.4,16.8-1.1c1.7-0.2,3.1-0.1,4,1.3c1,1.5,0.7,3.5-0.7,4.6l-7.8,6.5
	c1-0.1,2-0.2,2.9-0.2C551,15.7,554.9,20.9,554.9,26.5z M541.2,32.7c-0.3-2.3-1.3-3.5-3.1-3.5s-2.8,0.6-2.8,1.7
	c0,1.2,1.2,1.9,4.5,1.9C540.3,32.7,540.8,32.7,541.2,32.7z"/>
<path d="M12,130.9c13,2.7,25.6,7.1,37.5,12.9c2.4,1.2,5.1,1.9,7.8,1.9c5.7,0,10.8-3.3,13.1-8.5c3.2-7.4,0.2-15.2-7.7-20.2
	c-0.2-0.2-0.5-0.3-0.7-0.4c1.8-1.5,3.1-3.5,3.9-5.6c1.6-4,1.2-8.5-0.8-12.2c3.1-1.7,5.5-4.5,6.7-7.8c2.8-7.6-0.6-15.1-8.6-19.3
	c-9.9-5.1-29.5-9.5-38.7-10.3c-0.6-0.1-1.2-0.1-1.9-0.1l0,0c-7.5,0-13.3,4.4-14.8,11.1c-0.9,3.9-0.2,7.9,2,11.3
	c0.8,1.2,1.8,2.3,2.9,3.2c-1.9,1.9-3.2,4.3-3.7,7v0.1c-0.6,3-0.3,6.1,1,8.9c-4.4,1.3-7.9,4.7-9.3,9.2c-1.3,3.9-0.8,8.1,1.2,11.6
	C4.1,127.4,7.7,130,12,130.9z"/>
<path d="M97.2,118.5c-4,1.5-7.3,4.6-9,8.5c-1.5,3.6-1.5,7.7,0.1,11.3c2.3,5.4,7.6,8.9,13.5,8.7c2.3,0,4.6-0.5,6.8-1.4
	c22-8.9,36.6-27.1,43.2-54.3c1.2-4.6,0.3-9.5-2.6-13.3c-3.1-3.9-7.9-6-12.9-5.8h-10.6c-0.2-0.8-0.4-1.6-0.7-2.3
	c-1.5-3.6-4.3-6.4-7.9-7.8c-1.9-0.8-3.9-1.2-5.9-1.2c-6,0-11.2,3.7-13.7,9.7c-3.8,8.8-9.6,16.6-16.9,22.7c-3.3,2.7-5.3,6.7-5.6,11
	c-0.2,3.9,1.2,7.7,3.9,10.6c2.7,2.9,6.4,4.6,10.4,4.6c3.6-0.1,7-1.3,9.9-3.4l0,0l0,0c6-4.7,11.2-10.2,15.6-16.3h3.7
	C113.9,108.2,106.4,115,97.2,118.5z"/>
<path d="M235.7,76.1c-2.7-4.9-8-7.8-14.2-7.8H167c-8.2,0-14.5,6.1-14.5,14.1c-0.1,7.7,6,14,13.7,14.1c-2.2,2.9-3.2,6.4-2.9,10
	c0.3,4.1,2.3,7.8,5.5,10.4c8.1,6.3,15.4,13.7,21.7,21.9c3.4,4.3,7.9,6.6,12.7,6.6c3.3,0,6.6-1.2,9.1-3.3c6.5-5.3,7.3-15,1.9-22
	c-0.4-0.5-0.8-1-1.2-1.5c6.8-6.9,15.6-16.8,21.8-26.4C238,87.4,238.4,81.2,235.7,76.1z M192.7,98.2c-0.7-0.6-1.4-1.1-2.1-1.6h3.6
	L192.7,98.2z"/>
<path d="M274.9,148c8.3,0,15-6.8,15-15.2c0-0.1,0-0.2,0-0.3V99.7c5.2-4.1,10.1-8.7,14.4-13.7c2.7-3.1,4-7.1,3.8-11.1
	c-0.2-4-2.1-7.7-5.1-10.3l0,0l0,0c-2.5-2.1-5.7-3.3-8.9-3.3l0,0c-4.3,0.1-8.4,1.9-11.3,5.1l0,0l0,0c-12.3,13.3-24.6,21.6-41.1,27.7
	c-8.2,3-12.1,11.1-9.3,19.1l0,0v0.1c2,5.8,7.5,9.6,13.7,9.4c2,0,4-0.3,5.9-1c2.6-0.9,5.3-2,8.1-3.3v14.2
	C260,141.4,266.4,148,274.9,148z"/>
<path d="M335.5,64.8c-8.1,0-14.6,6.6-14.6,14.7c0,0.1,0,0.2,0,0.3v19.3c0,10.8-1.5,14.2-8.5,19c-3.6,2.4-6,6.2-6.8,10.4
	c-1.4,7.9,3.9,15.5,11.9,16.9c0.8,0.1,1.7,0.2,2.6,0.2c3.5,0,6.9-1.2,9.8-3.2c5.7-3.9,10.5-9,13.9-15c0.2,9.5,6.7,16.4,15.6,16.4
	c2.7,0,5.3-0.6,7.7-1.7c10.7-4.5,20.8-13.5,27.7-24.6c2.9-4.6,3.8-9.6,2.6-14c-1-3.8-3.6-7-7.2-8.8l0,0l0,0c-2-1-4.2-1.5-6.4-1.6
	c-4.1,0.1-8,1.9-10.7,5V78.7c0-8.5-6.4-15.2-14.6-15.2c-4.8,0-9.3,2.3-12,6.3C343.8,66.6,339.8,64.8,335.5,64.8z"/>
<path class="st1" d="M63,132c-1.7,3.8-5.8,4.7-10,2.6c-12.5-6.2-25.7-10.7-39.3-13.6c-4.4-1-6.6-4.9-5.4-8.6c1-3,3.5-4.7,8-4.2
	c10.2,1,34.3,8.6,42.2,13.6C63,124.6,64.6,128.3,63,132z M64.2,86.2c-1.4,3.9-5.1,5.1-9,3.5c-10.9-4.5-22.2-7.7-33.8-9.5
	c-4.3-0.8-6.6-4.1-5.8-8.1c0.7-3.2,3.5-5.2,8.2-4.8c9,0.8,27.3,5.1,35.7,9.4C63.8,79,65.7,82.3,64.2,86.2L64.2,86.2z M22,100.9
	c-3.4-0.4-5.7-3.5-5.3-6.8c0-0.2,0.1-0.4,0.1-0.6c0.6-3.1,3.4-5.1,7.7-4.6c10.1,1.3,20,4.1,29.3,8.3c3.8,1.8,6.2,5,4.6,9.1
	c-1.3,3.4-4.8,4.4-8.9,2.8C40.6,105.5,31.4,102.8,22,100.9z"/>
<path class="st1" d="M144.1,87.4c-5.6,22.9-17.4,40.3-38.5,48.8c-4.1,1.7-8.4,0.6-9.9-3c-1.7-4,0.5-7.7,4.5-9.3
	c15.1-5.7,26.2-18.7,29.4-34.5l-19.1,0.1c-4.8,7.2-10.6,13.7-16.2,17.8c-3.4,2.5-7.2,2.6-9.7-0.2c-2.8-3-2.1-7.4,1-10
	c8.3-6.9,14.9-15.7,19.2-25.7c1.5-3.6,5-5.9,9.2-4.2c3.8,1.6,5,5.7,3.3,9.6l-0.5,1.2h19.5C142.4,78.2,145.3,82.6,144.1,87.4z"/>
<path class="st1" d="M202.2,116.1c1.9,2.2,3.8,4.5,5.7,6.9c2.8,3.7,2.5,8.4-0.6,11s-7.3,2-10.5-2.1c-6.7-8.7-14.4-16.5-23-23.2
	c-2.9-2.2-3.5-6.3-1.3-9.2c0.1-0.1,0.2-0.2,0.3-0.4c2.5-2.7,5.9-2.7,9.3-0.6c3.9,2.6,7.6,5.4,11,8.6c7-6.9,14.2-15.3,17.8-20.5H167
	c-3.8,0-6.5-2.6-6.5-6.2s2.6-6.1,6.5-6.1h54.5c7.4,0,9.8,6.4,6.6,11.6C221.7,96,211.4,107.2,202.2,116.1z"/>
<path class="st1" d="M298.2,78.8c-4.9,5.6-10.4,10.6-16.3,15v36.8c0,4.4-3.1,7.4-7,7.4s-6.9-3-6.9-7.4v-27.5c-6,3.6-12.3,6.6-18.8,9
	c-4.3,1.5-8.1,0-9.4-3.5c-1.3-3.7,0.2-7.4,4.5-9c18.5-6.8,31.8-16.2,44.2-29.8c2.5-2.6,6.3-3.7,9.3-1.2
	C300.8,71.4,300.9,75.9,298.2,78.8z"/>
<path class="st1" d="M342.1,77.8v19.9c0,14.4-3.6,27-16.8,36.2c-3.9,2.7-8.2,2.2-10.6-0.9s-1.6-7.6,2.2-10.2c10-6.9,12-13.4,12-25.6
	V77.8c0-4.1,2.8-7,6.6-7C339.1,70.8,342.1,73.5,342.1,77.8z M388.1,111.4c-5.8,9.3-14.4,17.4-24.1,21.4c-6.9,3-12.2-0.7-12.2-7.8
	V76.7c0-4.2,3-7.2,6.7-7.2s6.6,3,6.6,7.2v39.5c5.1-3.2,9.3-7.6,12.5-12.7c2.6-4,5.7-5.3,9-3.6C390.4,101.8,391.1,106.6,388.1,111.4z
	"/>
</svg>