<svg version="1.1" xmlns="http://www.w3.org/2000/svg" viewBox="0 0 315 92" width="315" height="92">
<style type="text/css">
	.st0{fill:#FFF;}
</style>
<path d="M73.8,71.5c0.3,2.5,1.7,4.6,3.9,5.9c1.8,1.1,3.5,2.4,5.1,3.7c0.8,0.7,1.7,1.2,2.8,1.5c0.1,0.3,0.1,0.5,0.1,0.7
	c0.6,3.9,3.9,6.9,7.9,6.9c4.3,0,9.3,0,13.6-2.3l0.2-0.1c1.9-1.1,3.5-2.6,4.7-4.4c0.3,0.2,0.7,0.5,1.1,0.7c1.8,1.1,3.5,2.5,5,4
	c1.5,1.7,3.7,2.6,5.9,2.6c0.2,0,0.4,0,0.5,0c2.4-0.2,4.7-1.4,6.1-3.4c0.5-0.7,0.9-1.4,1.4-2.2c0.8,3.7,4.1,6.3,7.8,6.2h9.3
	c3.3,0,6.3-2.1,7.5-5.2c1.1,3.2,4.1,5.4,7.6,5.4h9.7c4.4,0,8-3.6,8-8v-5.5l6.9-0.5l9.1-0.7c0.1,4.3,3.7,7.7,8,7.7h4.1
	c0.6,3.9,4,6.8,7.9,6.8c5.8,0,11.3-0.2,15.8-2.7h0.1c7.6-4.2,7.6-12,7.6-15.3V11.8c0-4.4-3.6-8-8-8h-47.2c-2,0-3.9,0.7-5.4,2.1
	c-1-1-2-1.9-2.9-2.7C175,0.9,171,0.6,168,2.7l-6.9,4.7c-0.8,0.6-1.5,1.3-2.1,2.2l-6.1-5.7C150.5,1.6,147,1,144,2.5
	c-4.5,2.1-13,4.5-22.2,6.2c-0.3,0.1-0.7,0.1-1,0.2c-0.3,0-0.7-0.1-1-0.1h-7.2c-0.5-1.2-1.1-2.4-1.7-3.7c-1.3-2.8-4.2-4.6-7.3-4.6
	c-0.6,0-1.2,0.1-1.8,0.2l-8.5,2c-3,0.7-5.4,3.1-6,6.1h-3.4c-4.4,0-8,3.6-8,8v7.8c0,1.5,0.4,2.9,1.2,4.2c-1.5,1.5-2.4,3.6-2.4,5.7
	v7.8c0,1.3,0.3,2.5,0.9,3.7c-0.3,0.8-0.4,1.7-0.4,2.5v8c0,2.3,1,4.5,2.8,6c-0.6,0.8-1.2,1.6-1.9,2.3C74.3,66.6,73.4,69,73.8,71.5z
	 M157.2,24.3c-0.5,0.9-0.8,1.9-0.9,2.9h-8.2C151.2,26.4,154.2,25.4,157.2,24.3z"/>
<path class="st0" d="M95.9,58.5C94,63.8,91,69.4,87.9,73c-2-1.6-4-3.1-6.2-4.5c3.1-3.4,5.5-7.4,6.9-11.8L95.9,58.5z M106.4,54.5
	v17.1c0,3.8-0.6,5.8-3,7.2s-5.6,1.4-9.8,1.4c-0.5-2.7-1.4-5.3-2.6-7.8c2.4,0.1,4.9,0.1,5.8,0.1s1.1-0.2,1.1-1.1V54.5H83.1v-8h14.7
	v-6.2H82.7v-7.8h7.8c-0.5-2.9-1.3-5.7-2.4-8.3l6.6-1.6H83.9v-7.8h13.7c-0.7-2.2-1.6-4.4-2.4-6.3l8.5-2c1.3,2.7,2.4,5.5,3.4,8.3h12.6
	v7.8h-10.1l6.6,1.3c-1.3,3-2.4,6.2-3.6,8.6h8.3v7.8h-14.5v6.2h13.2v8H106.4z M95.8,22.6c1.3,2.8,2.2,5.8,2.7,8.9l-3.8,1h9.4
	c1.3-3.2,2.5-6.5,3.4-9.9L95.8,22.6z M156.6,42h-7.4v39.3h-9.3V42H132v0.6c0,11.8-1,28.1-7.9,38.1c-2.2-2.2-4.6-4.1-7.3-5.6
	c1.6-2.4,2.8-5,3.5-7.7l-6.3,4c-1.8-4.1-3.9-8.2-6.2-12l6.2-3.5c2.4,3.6,4.5,7.4,6.4,11.3c2.5-7.8,2.7-16.9,2.7-24.6V14.5
	c8.8-1.6,18.5-4.1,24.2-6.8l7.4,7c-7.4,2.7-15,4.7-22.7,6v12.5h24.6L156.6,42z"/>
<path class="st0" d="M164.2,26.1h9.7v55.4h-9.7V26.1z M172.5,7.3c3.8,3.3,8.2,7.9,10.3,11.3l-7.4,5.3c-1.8-3.3-6.2-8.4-9.8-11.8
	L172.5,7.3z M214.3,65.5v9h-8.5v-8.4c-10.6,0.9-20.8,1.6-28.7,2.2l-0.8-7.8c1.8-0.1,3.8-0.2,6-0.3v-28h-4.3V25h40.8v7.3h-4.5v25.8
	l6.1-0.4l0.1,7.3L214.3,65.5z M233.3,71.4c0,4.6-0.8,6.8-3.5,8.3s-6.6,1.7-12,1.7c-0.5-3-1.4-5.9-2.6-8.6c3,0.2,6.2,0.2,7.3,0.2
	s1.4-0.4,1.4-1.5v-53h-37.7V9.8h47.2L233.3,71.4z M190.7,32.4v4.2h15v-4.3L190.7,32.4z M190.7,47.8h15v-4.6h-15V47.8z M190.7,59.8
	c4.7-0.3,9.8-0.6,15-1v-4.4h-15V59.8z"/>
</svg>