<svg version="1.1" xmlns="http://www.w3.org/2000/svg" viewBox="0 0 309.4 34.7" width="309" height="35">
<style type="text/css">
	.st0{fill:#408C0D;}
</style>
<path class="st0" d="M21.9,32.4c-1.9,1.4-4.2,2.1-6.5,2C3.5,34.4,0,26.5,0,18.4S3.5,1.6,15.4,1.6c1.9,0,3.7,0.4,5.4,1
	C22.6,3.2,23.6,5.2,23,7c0,0,0,0.1,0,0.1c-0.5,1.6-2.3,2.4-3.8,1.8c-0.1,0-0.2-0.1-0.3-0.1c-1.3-0.5-2.6-0.8-4-0.8
	c-5.1,0-7.4,4.8-7.4,10.4c0,5.9,3,9.5,7.5,9.5c1.3,0,2.5-0.4,3.6-1c1.8-0.8,3.5-0.5,4.3,0.9C23.8,29.4,23.4,31.4,21.9,32.4z"/>
<path class="st0" d="M48.4,16.9v13.8c-0.1,1.9-1.7,3.3-3.6,3.2c-1.7-0.1-3.1-1.5-3.2-3.2v-12c0-2.7-1.1-4-3.5-4
	c-1.6-0.1-3.2,0.6-4.2,1.8v14.1c-0.1,1.9-1.7,3.3-3.6,3.2c-1.7-0.1-3.1-1.5-3.2-3.2V3.8c0.1-1.9,1.7-3.3,3.6-3.2
	C32.5,0.6,33.9,2,34,3.8v7.7c1.8-1.5,4-2.3,6.4-2.3C47.3,9.1,48.4,13.7,48.4,16.9z"/>
<path class="st0" d="M59.8,23.5v0.1c0,1.3,0.8,5.1,6.2,5.1c1.9,0,2.7-0.6,4.2-1.1c1.5-0.5,3.1,0.4,3.5,1.9c0.4,1.4-0.2,2.8-1.5,3.4
	c-2,1-4.3,1.5-6.5,1.5C55.6,34.5,53,28,53,22c0-7.2,3.9-13.2,12-13.2c7.2,0,9.3,5.4,9.3,10.8v0.8c0.1,1.6-1.1,3-2.7,3.1
	c-0.2,0-0.3,0-0.5,0L59.8,23.5z M60,18.8h8.2c0-2.5-0.7-4.7-3.9-4.7C61.4,14,60,17,60,18.8z"/>
<path class="st0" d="M94.3,33.4c-1.4,0.7-3,1-4.5,1.1c-8.8,0-12-6.3-12-12.7c0-7.7,4.1-12.9,11.5-12.9c1.8,0,3.7,0.4,5.3,1.3
	c1.4,0.8,1.9,2.5,1.1,3.9c-0.7,1.3-2.2,1.9-3.5,1.3c-0.7-0.3-1.4-0.5-2.2-0.5c-3.5,0-5.2,2.2-5.2,6.8s2.7,6.6,5.1,6.6
	c0.9-0.1,1.7-0.2,2.6-0.6c1.3-0.4,2.7,0.1,3.4,1.3c0.8,1.4,0.3,3.3-1.2,4.1C94.4,33.4,94.4,33.4,94.3,33.4z"/>
<path class="st0" d="M117.6,34.2c-1.1-0.1-2.1-0.6-2.8-1.5l-8.5-9.2v7.2c-0.1,1.9-1.7,3.3-3.6,3.2c-1.7-0.1-3.1-1.5-3.2-3.2V3.8
	c0.1-1.9,1.7-3.3,3.6-3.2c1.7,0.1,3.1,1.5,3.2,3.2v16.8l7.6-9.9c0.6-0.9,1.6-1.4,2.7-1.5c1.7-0.1,3.1,1.3,3.2,3c0,0.7-0.2,1.4-0.6,2
	l-6.1,7.3l7.3,7.5C122,30.9,120.3,34.2,117.6,34.2z"/>
<path class="st0" d="M134.3,3.8c0.2-2.3,2.3-4,4.5-3.7c2,0.2,3.5,1.8,3.7,3.7c-0.2,2.3-2.1,4-4.4,3.9C136.1,7.5,134.4,5.9,134.3,3.8
	z M141.9,12.7v17.9c-0.1,1.9-1.7,3.3-3.6,3.2c-1.7-0.1-3.1-1.5-3.2-3.2V12.7c-0.1-1.9,1.3-3.5,3.2-3.6c1.9-0.1,3.5,1.3,3.6,3.2
	C141.9,12.5,141.9,12.6,141.9,12.7z"/>
<path class="st0" d="M168.9,16.9v13.8c-0.1,1.9-1.7,3.3-3.6,3.2c-1.7-0.1-3.1-1.5-3.2-3.2v-12c0-2.7-1.1-4-3.5-4
	c-1.6,0-3.1,0.6-4.2,1.8v14.2c-0.1,1.9-1.7,3.3-3.6,3.2c-1.7-0.1-3.1-1.5-3.2-3.2V15.8c0-1.1-0.3-1.9-0.4-2.9
	c-0.2-1.5,0.6-3,2.1-3.5c1.8-0.7,3.8,0.1,4.6,1.9c0.1,0.1,0.1,0.3,0.2,0.5c0,0,0.1,0.1,0.1,0.2c1.8-1.7,4.2-2.7,6.8-2.7
	C167.8,9.1,168.9,13.7,168.9,16.9z"/>
<path class="st0" d="M207.8,21.4c0,7.1-2.8,13.1-10.2,13.1c-2.3-0.1-4.5-1-6.2-2.4l-0.1,0.2c-0.5,1.1-1.7,1.8-2.9,1.8
	c-1.8,0-3.2-1.4-3.2-3.2V3.7c0.1-1.8,1.7-3.3,3.5-3.2c1.7,0.1,3.1,1.5,3.2,3.2v7.8c1.7-1.7,3.9-2.6,6.3-2.6
	C205.2,8.9,207.8,14.4,207.8,21.4z M200.9,21.5c0-3.8-1-6.9-4.1-6.9c-2.1,0-4,1.3-4.9,3.2c-0.2,1.2-0.3,2.4-0.2,3.5v0.7
	c0,1.4,0.1,2.9,0.3,4.3c1,1.5,2.6,2.4,4.4,2.4C200.1,28.8,200.9,25.2,200.9,21.5L200.9,21.5z"/>
<path class="st0" d="M235.4,21.5c0,5.8-2.6,13.2-12,13.2s-12-7.4-12-13.2c0-5.6,2.6-12.9,12-12.9S235.4,15.9,235.4,21.5z
	 M228.4,21.4c0-5.3-2.1-7.2-5-7.2s-5.1,1.9-5.1,7.2c0,5.5,2,7.6,5.1,7.6S228.4,26.9,228.4,21.4L228.4,21.4z"/>
<path class="st0" d="M261.4,16.9v13.8c-0.1,1.9-1.7,3.3-3.6,3.2c-1.7-0.1-3.1-1.5-3.2-3.2v-12c0-2.7-1.1-4-3.5-4
	c-1.6,0-3.1,0.6-4.2,1.8v14.2c-0.1,1.9-1.7,3.3-3.6,3.2c-1.7-0.1-3.1-1.5-3.2-3.2V15.8c0-1.1-0.3-1.9-0.4-2.9
	c-0.3-1.5,0.6-3,2.1-3.5c1.8-0.7,3.8,0.1,4.5,1.9c0.1,0.1,0.1,0.3,0.1,0.4c0,0,0.1,0.1,0.1,0.2c1.8-1.7,4.2-2.7,6.8-2.7
	C260.2,9.1,261.4,13.7,261.4,16.9z"/>
<path class="st0" d="M286.4,34.1c-1.8,0.6-3.6-0.6-4.4-2.4l-0.1-0.2c-1.8,1.8-4.3,2.7-6.9,2.7c-6.9,0-8.1-4.6-8.1-7.9V12.7
	c0-1.9,1.5-3.4,3.4-3.4s3.4,1.5,3.4,3.4v11.9c0,2.7,1.1,4.1,3.5,4.1c1.6,0,3.1-0.7,4.2-1.8V12.7c-0.1-1.9,1.3-3.5,3.2-3.6
	c1.9-0.1,3.5,1.3,3.6,3.2c0,0.1,0,0.2,0,0.4v12.6c0,1.7,0.2,3.4,0.5,5.1C289,32.1,288,33.7,286.4,34.1z"/>
<path class="st0" d="M309.4,26.7c0,6.1-4.7,7.8-8.4,7.8c-2.6,0.1-5.1-0.6-7.2-2c-1.1-0.9-1.5-2.4-0.8-3.6c0.7-1.4,2.4-1.9,3.8-1.2
	c0,0,0.1,0,0.1,0c1.2,0.8,2.6,1.2,4,1.2c1,0.1,1.9-0.7,2-1.7c0-0.1,0-0.1,0-0.2c0-1.3-1.5-2.2-4.2-3.6c-3.2-1.6-5.2-3.3-5.2-7.1
	c0-5.9,4.9-7.4,8.8-7.4c1.8,0,3.5,0.5,5,1.3c1.4,0.7,2,2.5,1.3,3.9c0,0.1-0.1,0.1-0.1,0.1c-0.8,1.2-2.5,1.5-3.7,0.6
	c-0.1,0-0.1-0.1-0.1-0.1c-0.7-0.5-1.6-0.7-2.5-0.7c-1-0.1-1.9,0.7-1.9,1.7c0,0.1,0,0.1,0,0.2c0,1,0.8,1.6,3.3,3
	C306.5,20.6,309.4,22.4,309.4,26.7z"/>
</svg>