<svg version="1.1" xmlns="http://www.w3.org/2000/svg" viewBox="0 0 315 92" width="315" height="92">
<style type="text/css">
	.st0{fill:#FFF;}
</style>
<path d="M76.4,45.3c2.4,1.3,7.1,3.8,10.7,6c-3.7,6.8-7.8,13.4-12.3,19.8c-2.4,3.4-1.8,8.2,1.5,10.8l8,6.5c1.4,1.1,3.2,1.8,5,1.8
	c0.4,0,0.9,0,1.3-0.1c2.3-0.4,4.2-1.7,5.5-3.6c1.5-2.3,3-4.8,4.5-7.5v4.1c0,4.4,3.6,8,8,8h8.6c2.6,0,5-1.2,6.5-3.3H135
	c1.5,1.8,3.8,2.9,6.1,2.9h9c3,0,5.8-1.7,7.1-4.4c1.5,1.4,3.4,2.2,5.5,2.2c0.2,0,0.4,0,0.7,0c7.8-0.7,18-1.7,28.1-2.7
	c0.6,0.7,1.2,1.4,1.7,2.2c1.2,1.9,3.2,3.3,5.4,3.6c0.4,0.1,0.9,0.1,1.4,0.1c1.8,0,3.6-0.6,5-1.7c1-0.8,1.9-1.6,2.9-2.4
	c1.5,2.1,3.8,3.4,6.4,3.4h0.1c1.4,0,2.9,0.1,4.3,0.1c2.4,0.1,4.9-0.1,7.3-0.5h0.1c4.6-0.8,8.6-3.4,11.2-7.2
	c3.9-5.6,4.6-15.6,5.4-52.4v-0.2c0-0.8,0.1-3.2,0.1-4c0.1-4.4-3.4-8.1-7.8-8.2c-0.1,0-0.1,0-0.2,0h-8.1c0-2.8,0-5.6,0-8.5V9.7
	c0-4.4-3.6-8-8-8h-9.1c-2.3,0-4.5,1-6,2.7c-1.5-2.3-4-3.6-6.6-3.6c-0.6,0-1.1,0.1-1.7,0.2c-7.3,1.6-20.1,3-33.2,3.8
	c-2.7,0.1-5.1,1.6-6.4,3.9c0,0,0,0.1,0,0.1l-5.7-5.9c-2.3-2.4-5.7-3.1-8.8-1.9c-7.1,2.8-20.6,5.5-35.3,7c-0.5,0-1,0.1-1.4,0.3
	c-3.4-1.9-7.6-4-11.5-6c-3.4-1.7-7.5-0.7-9.9,2.3l-5.4,6.9c-2.7,3.5-2.1,8.5,1.4,11.2c0.3,0.2,0.6,0.5,1,0.6l1.6,0.9
	c-1.1,0.6-2,1.4-2.8,2.4l-5.1,7c-2.6,3.6-1.8,8.6,1.8,11.2C75.8,44.9,76.1,45.1,76.4,45.3L76.4,45.3z"/>
<path class="st0" d="M95.1,44.9c-3.3-2.3-10.2-6.1-14.9-8.6l5.1-7c4.4,2.2,11.5,5.6,15,7.8L95.1,44.9z M81.3,73.7
	c5.6-8.1,10.7-16.5,15.2-25.2l7,6.4c-4.2,8.4-9.3,17.5-14.2,25.3L81.3,73.7z M98.5,23.1c-3.1-2.4-9.9-6.2-14.6-8.8l5.4-6.9
	c4.5,2.2,11.4,5.8,14.9,8L98.5,23.1z M133.9,38.7v10.1h16.3v31.9h-9v-2.9h-24v3.3h-8.6V48.8h16.3V38.7h-21.3v-9.1h21.3v-9.4
	c-5.2,0.8-10.6,1.4-15.5,1.8c-0.6-2.8-1.5-5.6-2.8-8.2c13.6-1.4,28.6-4,37.4-7.5l7.3,7.5c-5.6,2-11.5,3.6-17.4,4.7v11h20.3v9.1
	L133.9,38.7z M141.2,57.4h-24v11.8h24V57.4z"/>
<path class="st0" d="M234.8,24.4c0,0-0.1,3.1-0.1,4.2c-0.7,32.7-1.4,44.3-3.9,48c-1.4,2.2-3.7,3.7-6.3,4c-2.4,0.5-6.1,0.4-9.9,0.3
	c-0.3-3.2-1.2-6.3-2.8-9.1c3.5,0.3,6.6,0.4,8.1,0.4c1.1,0.1,2.1-0.4,2.7-1.4c1.7-2.2,2.5-11.9,3-37.8h-7.2
	c-1,21.4-4.7,37.9-18.2,48.6c-1.6-2.4-3.5-4.5-5.6-6.3c-11.5,1.2-23,2.4-31.7,3.1l-1.1-8c4.5-0.3,10.1-0.7,16.2-1.1v-4.8h-14.1v-6.7
	H178v-3.1h-13.7V30H178v-3.2h-15.7V20H178v-3.2c-4.6,0.3-9.2,0.6-13.5,0.6c-0.4-2.3-1.1-4.6-2.1-6.7c11.8-0.6,25.7-2,34.5-3.9
	l4.2,7.1c-4.2,0.9-9.2,1.6-14.4,2.2V20H202v4.4h7.5c0.1-5.3,0.1-10.8,0.1-16.7h9.1c0,5.8,0,11.4-0.2,16.7L234.8,24.4z M171.8,39.5
	h6.2V36h-6.2L171.8,39.5z M178,48.8v-3.6h-6.2v3.6H178z M186.6,68.6c4.6-0.3,9.3-0.7,13.9-1.1c6.2-8.6,8.2-20.1,8.7-34.4H202v-6.2
	h-15.3V30h14.2v24.7h-14.2v3.1h14.5v6.7h-14.5L186.6,68.6z M192.9,39.5V36h-6.2v3.5L192.9,39.5z M186.6,45.2v3.6h6.2v-3.6H186.6z"/>
</svg>