<svg version="1.1" xmlns="http://www.w3.org/2000/svg" viewBox="0 0 562.3 148" width="562" height="148">
<style type="text/css">
	.st0{fill:#408C0D;}
	.st1{fill:#FFF;}
</style>
<path class="st0" d="M34,24.3c-1.7-1.7-3.4-3.3-5.3-4.7C28,20.9,27.1,22,26,23.1c-1-0.8-2.1-1.5-3.2-2.1c4,5.1,9.4,9.1,15.6,11.4
	c-1.4,1.3-2.6,2.8-3.6,4.5c-5.1-2.5-9.6-6-13.2-10.3v11.9h-5.1V26.8C12.9,31,8.4,34.4,3.4,36.8c-1-1.5-2.2-2.9-3.4-4.2
	c6.7-2.6,12.4-7.2,16.5-13.1v-9.4H1.7V5.3h14.8v-5h5.1v5H37v4.8H21.6v9.1c0.2,0.3,0.4,0.6,0.6,0.9c2.6-2.3,4.3-5.9,5.1-9.8l4.7,0.9
	c-0.4,1.5-0.8,2.9-1.4,4.4c2.3,1.8,5.1,4,6.6,5.3L34,24.3z M13,11.3c-0.4,1.5-0.9,3-1.5,4.4c1.5,1.3,3,2.6,4,3.6l-3.3,3.4
	c-0.9-1-1.8-2-2.8-2.9c-1.2,2.1-2.8,4-4.7,5.6c-1.2-1.2-2.4-2.2-3.8-3.2c3.6-2.6,6.1-6.9,7.2-11.8L13,11.3z"/>
<path class="st0" d="M74.4,18.4c-0.2-0.5-0.4-1-0.7-1.6c-3.1,0.2-5.1,0.4-6.5,0.5c3.7,2.2,7.8,3.7,12,4.7c-1.2,1.1-2.2,2.3-3,3.7
	c-6.4-1.8-12.2-5-17-9.6c-2.6,2.9-5.7,5.3-9.2,7c3.7-1,7.9-2.6,10.3-4.2l3.4,1.8c-3.9,2.6-8.3,4.5-12.8,5.7c-0.7-1-1.4-1.9-2.3-2.6
	c-1.8,0.9-3.7,1.7-5.6,2.3c-0.7-1.4-1.6-2.7-2.6-3.9c4.1-1,7.9-2.7,11.4-5.1c-5.9,0.4-7.1,0.7-7.9,0.9c-0.4-1.3-1-2.6-1.5-3.8
	c0.6-0.2,1.1-0.6,1.5-1.1c1-1.3,1.8-2.7,2.4-4.2h0.1c-0.2-0.9-0.8-2.6-1.3-3.7c0.9-0.2,1.9-0.5,2.7-1c2.5-1.2,4.9-2.7,7-4.4L59,2.1
	c-1.6,1.1-3.2,2.1-4.9,3l10.7-0.2c-1-0.8-2-1.6-3-2.3l3.7-1.7c3,2.1,5.8,4.5,8.4,7.1L70,9.8c-0.4-0.4-0.9-1-1.5-1.6
	c-17,0.7-20,0.7-21.7,1.1l3.8,1.5c-0.7,1.1-1.5,2.2-2.3,3.2l2.9-0.1c-0.3-0.6-0.6-1.1-0.9-1.7l3.5-1c0.5,0.9,1.1,2,1.5,3
	c1.1-1.1,2-2.4,2.7-3.8l4.4,1.3c-0.2,0.4-0.5,0.9-0.7,1.3c0.3,0.4,0.7,0.8,1.1,1.2c0.6-0.2,1.1-0.6,1.4-1.1c0.8-1.2,1.5-2.6,2-4
	l4.3,1.7c-0.6,1-1.3,2.1-2,3l3.4-0.2c-0.4-0.6-0.8-1.2-1.2-1.7l3.3-1.2c1.7,1.9,3,4,4,6.3L74.4,18.4z M72.9,28.7
	c-5.4,5.7-14.8,8.3-25.2,9.8c-0.5-1.4-1.2-2.7-2.2-3.9c9.7-0.9,18.9-3.2,23.4-7.7L72.9,28.7z M68.2,24.5c-4.4,3.7-11.5,6.2-18.2,7.6
	c-0.7-1.2-1.5-2.4-2.4-3.4c6.2-1,13.3-3.1,17-6L68.2,24.5z"/>
<path class="st0" d="M99.9,7.6c0,0,0,1.6,0,2.2c-0.4,17.4-0.7,23.6-1.9,25.5c-0.7,1.1-1.8,1.9-3.1,2.1c-1.6,0.2-3.3,0.3-4.9,0.2
	c-0.1-1.7-0.6-3.4-1.4-4.8c1.6,0.1,3.1,0.2,3.9,0.2c0.6,0,1.1-0.2,1.4-0.7c0.8-1.1,1.1-6.2,1.3-19.8H91c-0.4,10.9-1.8,20-7.1,26.1
	c-0.9-1.4-2.1-2.6-3.6-3.5c4.6-5.2,5.7-13,6-22.5h-4.8V7.6h4.8c0-2.2,0-4.4,0-6.7h4.8c0,2.3,0,4.5,0,6.7H99.9z M116.9,4.9v32.3h-4.8
	v-2.5h-5.3v2.8h-4.7V4.9H116.9z M112.1,30V9.6h-5.3V30H112.1z"/>
<path class="st0" d="M128.8,19.9c-1.7-1.2-5.2-3.1-7.6-4.4l2.6-3.5c2.2,1.1,5.9,2.9,7.7,4L128.8,19.9z M121.8,34.6
	c2.8-4.1,5.4-8.4,7.7-12.9l3.5,3.2c-2.2,4.3-4.7,8.9-7.2,12.9L121.8,34.6z M130.6,8.8c-2.4-1.6-4.9-3.1-7.4-4.5l2.7-3.5
	c2.3,1.1,5.8,2.9,7.6,4.1L130.6,8.8z M148.6,16.8v5.1h8.3v16.2h-4.6v-1.5h-12.2v1.7h-4.4V21.9h8.3v-5.1h-10.8v-4.7H144V7.3
	c-2.6,0.4-5.4,0.7-7.9,0.9c-0.3-1.4-0.8-2.8-1.4-4.2c6.9-0.7,14.6-2,19.1-3.8l3.7,3.8c-2.9,1-5.8,1.8-8.9,2.4v5.6H159v4.6
	L148.6,16.8z M152.3,26.4h-12.2v6h12.2L152.3,26.4z"/>
<path class="st0" d="M198.5,9.5c0,0,0,1.6,0,2.2c-0.4,16.7-0.7,22.6-2,24.5c-0.7,1.1-1.9,1.8-3.2,2c-1.7,0.2-3.4,0.3-5.1,0.2
	c-0.1-1.6-0.6-3.2-1.4-4.7c1.8,0.2,3.3,0.2,4.1,0.2c0.6,0,1.1-0.2,1.4-0.7c0.9-1.1,1.3-6.1,1.5-19.2h-3.7
	c-0.5,10.9-2.4,19.3-9.2,24.8c-0.8-1.2-1.8-2.3-2.9-3.2c-5.9,0.6-11.8,1.2-16.1,1.6l-0.6-4.1l8.3-0.6v-2.4h-7.2v-3.4h7.2v-1.6h-7
	V12.3h7v-1.6h-8V7.2h8V5.6c-2.4,0.2-4.7,0.3-6.9,0.3c-0.2-1.2-0.6-2.3-1.1-3.4c5.9-0.3,11.8-0.9,17.6-2l2.1,3.6
	c-2.2,0.4-4.7,0.8-7.3,1.1v2h7.8v2.2h3.8c0-2.7,0-5.5,0-8.5h4.6c0,3,0,5.8-0.1,8.5H198.5z M166.4,17.2h3.2v-1.8h-3.2V17.2z
	 M169.6,21.9v-1.8h-3.2v1.8H169.6z M174,32c2.3-0.2,4.7-0.4,7.1-0.6c3.2-4.4,4.2-10.2,4.4-17.5h-3.7v-3.2H174v1.6h7.2v12.6H174v1.6
	h7.4v3.4H174V32z M177.2,17.2v-1.8H174v1.8H177.2z M174,20.1v1.8h3.2v-1.8H174z"/>
<path class="st0" d="M239,31.8v5h-36.6v-5h11.5V12.3h-10.7V7.5h8.3c-0.8-1.9-1.8-3.8-2.9-5.5l4.3-1.7c1.5,2,2.7,4.2,3.6,6.5
	l-1.6,0.7h10c1.4-2.3,2.7-4.7,3.7-7.2l5.4,1.4c-1.2,2.1-2.5,4.2-3.7,5.8h7.8v4.8h-10.8v19.6H239z M209.1,15.3c1.7,4,3,8.2,3.6,12.4
	L208,29c-0.5-4.3-1.6-8.5-3.3-12.5L209.1,15.3z M218.6,31.8h3.9V12.3h-3.9V31.8z M228.1,27.8c1.6-4.1,2.9-8.4,3.8-12.8l5.3,1.2
	c-1.3,4.3-2.9,8.5-4.6,12.7L228.1,27.8z"/>
<path class="st0" d="M279.3,32v4.7h-36.6V32h6.1V2.5h25.1V32H279.3z M253.6,7.1v5.1h15.2V7.1H253.6z M268.8,16.8h-15.2V22h15.2V16.8
	z M253.6,32h15.2v-5.3h-15.2V32z"/>
<path class="st0" d="M318.7,2.2c0,0,0,1.2,0,1.8c-0.4,8.7-0.8,12.2-1.8,13.5c-0.7,0.9-1.8,1.5-2.9,1.5c-1.6,0.1-3.1,0.2-4.7,0.1
	c-0.1-1.5-0.6-2.9-1.3-4.2c1.2,0.1,2.4,0.2,3.6,0.1c0.5,0.1,0.9-0.1,1.2-0.4c0.5-0.7,0.9-2.8,1.1-8.2h-4.4c-0.6,6-2.4,10.6-8.3,13.5
	c-0.5-1-1.2-2-2-2.9l-2.8,1.1c-0.1-0.5-0.3-1.1-0.5-1.8c-7.6,1.9-9,2.4-9.9,3c-0.7-1.3-1.5-2.4-2.5-3.5c1.2-1.1,1.8-2.7,1.8-4.3V3.5
	c3.9-0.9,7.7-2,11.4-3.5l3.1,3.6c-3.2,1.2-6.5,2.1-9.8,2.7v7.1l4.2-1c-0.5-1.2-1.1-2.5-1.8-3.6l3.9-1.6c1.6,2.6,2.9,5.3,4,8.2
	c3.3-2.2,4.3-5.3,4.7-9h-3.8V2.2H318.7z M287.4,20.6h28.3v17.6h-5.2v-1.2h-18.2v1.3h-4.9V20.6z M292.3,24.5V27h6.9v-2.5H292.3z
	 M299.1,33.2v-2.7h-6.9v2.7H299.1z M310.5,24.5h-6.7V27h6.7V24.5z M310.5,33.2v-2.7h-6.7v2.7H310.5z"/>
<path class="st0" d="M343.3,8.1v6.4l0.8-0.9c4.4,2.2,10.8,5.7,13.9,8.2l-3.6,4.5c-3.5-2.8-7.2-5.3-11.1-7.4v19.4h-5.2V8.1h-14.7V3.3
	h36.3v4.9H343.3z"/>
<path class="st0" d="M375.8,1.9c-1.1,2.9-2.4,5.7-3.9,8.4v28.1h-4.6V17.5c-0.9,1.1-1.8,2.2-2.7,3.3c-0.7-1.8-1.6-3.4-2.6-5.1
	c4.1-4.4,7.3-9.6,9.2-15.2L375.8,1.9z M390.2,12.1v20.9c0,2.3-0.4,3.7-1.9,4.5s-3.4,1-6,1c-0.3-1.7-0.9-3.4-1.7-4.9c1.7,0,3.4,0,4,0
	s0.7-0.2,0.7-0.7V12.1h-4.7c-1.1,2.2-2.3,4.3-3.8,6.2c-1.2-1.2-2.5-2.2-3.9-3.2c3.1-3.5,5.6-9.1,6.9-14.7l4.7,1.1
	c-0.5,2.1-1.2,4.1-1.9,6.1h14l0.8-0.2l3.4,0.6c-0.5,3.3-1.2,7.1-1.8,9.5l-4.1-0.7c0.2-1.3,0.5-3,0.6-4.8H390.2z M383.4,19.4
	c-1,4.8-2.9,9.4-5.5,13.6c-1.3-1-2.7-1.9-4.2-2.6c2.3-2.9,4-7.5,5-12L383.4,19.4z M396,18c2.1,4.2,3.6,8.7,4.5,13.3l-4.6,1.6
	c-0.8-4.6-2.1-9.1-4.1-13.4L396,18z"/>
<path class="st0" d="M440.1,6.6c0,0,0,1.6,0,2.2c-0.5,18.2-1,24.7-2.6,26.9c-0.9,1.3-2.3,2.1-3.9,2.2c-2.1,0.2-4.3,0.2-6.4,0.1
	c-0.2-1.7-0.7-3.3-1.6-4.7c2.6,0.2,5,0.2,6.1,0.2c0.7,0.1,1.3-0.2,1.8-0.7c1.2-1.3,1.7-7.4,2.2-21.8h-8.8c-1,2.3-2.2,4.4-3.6,6.4
	c-1-0.8-2-1.6-3.1-2.3v19h-10.9v3h-4.4V6.8h4.6c0.6-2.2,1-4.3,1.2-6.6l5.3,0.7c-0.7,2-1.4,4.1-2.1,5.8h6.3v6.6
	c2.6-4,4.4-8.5,5.5-13.1l4.6,1.1c-0.4,1.7-1,3.5-1.6,5.2H440.1z M415.7,11.1h-6.5v6.6h6.5V11.1z M415.7,29.9v-8h-6.5v8H415.7z
	 M429.2,27.7c-1.7-3.3-3.6-6.4-5.7-9.4l3.8-2.2c2.2,2.9,4.2,5.9,6,9L429.2,27.7z"/>
<path class="st0" d="M452.2,6.4h8.1v3.8h-17V6.4h7.1c-0.7-1.6-1.6-3.1-2.7-4.5l4-1.9c1.3,1.5,2.3,3.2,3.1,5L452.2,6.4z M444.5,18.2
	H459v3.7h-14.5V18.2z M458.2,36.5h-8.9v1.6h-4.2V24h13.1L458.2,36.5z M458.2,12.4V16h-12.9v-3.6L458.2,12.4z M449.3,27.8v4.8h4.7
	v-4.8L449.3,27.8z M474.6,33.3c1.8,0,2.1-0.9,2.4-6c1.4,0.9,2.9,1.5,4.5,1.9c-0.6,6.7-1.9,8.7-6.5,8.7h-6.6c-5.1,0-6.6-1.4-6.6-6.6
	V15.4h12.6V6.9h-12.7V2.3h17.6v19.7h-4.9v-2h-7.7v11.2c0,1.7,0.4,2,2.3,2L474.6,33.3z"/>
<path class="st0" d="M498.6,30.2l0.2,3.8c-4.9,1.1-10,2.2-14,3.1l-0.9-4.4c1.6-0.2,3.7-0.6,5.9-1V21.6h-5.3v-4.1h5.3v-3h-3.1v-1.8
	c-0.6,0.6-1.3,1.2-1.9,1.7c-0.4-1.7-1-3.4-1.7-5c3.4-2.5,6.1-5.7,8-9.5l3.5,1.6L494,3.1c2.2,1.3,4.3,2.8,6.2,4.6l-2,4
	c-0.3-0.3-0.6-0.6-1-0.9v3.8h-3.5v3h4.9v4.1h-4.9v9.5L498.6,30.2z M487.8,23.2c0.7,2.3,1.2,4.6,1.5,6.9l-3.1,0.9
	c-0.3-2.4-0.7-4.7-1.3-7.1L487.8,23.2z M497.1,10.5c-1.6-1.4-3.4-2.7-5.2-3.9c-0.9,1.3-1.9,2.6-2.9,3.9H497.1z M494.1,29.6
	c0.6-2.3,1.1-4.5,1.4-6.9l3.4,0.9c-0.7,2.4-1.5,5-2.1,6.8L494.1,29.6z M521.1,21.9c-1.6,1.6-3.3,3.1-5.1,4.5
	c1.6,2.3,3.7,4.4,6.1,5.9c-1.1,1.2-2,2.5-2.8,3.9c-3.1-2.5-5.6-5.7-7.5-9.2v6.4c0,2.3-0.4,3.5-1.7,4.2s-3.1,0.7-5.6,0.7
	c-0.3-1.5-0.7-2.9-1.3-4.3c1.7,0.1,3.6,0.1,4.1,0.1s0.8-0.2,0.8-0.7v-3.3c-2.6,1.7-5.2,3.3-7.4,4.7l-1.9-3.7
	c2.3-1.2,5.8-3.1,9.3-5.1v-6.5h-8.9v-4.2h12.9l0.5-2h-8.1l0,0h-3.6c1.4-4.3,2.6-8.6,3.6-13l4,0.6l-0.5,2h7.2l0.6-0.2l2.8,0.6
	c-0.7,3.7-1.5,8-2.5,11.9h5.3v4.2h-3L521.1,21.9z M503,19.6c1.4,1.5,2.6,3.2,3.6,5l-3.1,2.2c-0.9-1.9-2.1-3.7-3.4-5.3L503,19.6z
	 M513.5,9.3l0.5-2.6h-7.1c-0.2,0.9-0.5,1.7-0.7,2.6H513.5z M512.2,19.4c0.6,1.4,1.2,2.8,1.9,4.1c1.4-1.3,2.7-2.6,3.9-4.1H512.2z"/>
<path class="st0" d="M537.4,27.7h-7.7v3.6h-4.4V3.8h12.1L537.4,27.7z M529.7,8.3v15h3.3v-15H529.7z M555.1,33.2
	c2.1,0,2.5-0.9,2.8-5.1c1.3,0.9,2.8,1.6,4.4,1.9c-0.6,5.7-2.1,7.7-6.8,7.7H547c-5.3,0-7-1.5-7-7.3V2.7h20.6v22.4h-4.7v-2.4h-11.1
	v7.7c0,2.4,0.3,2.8,2.7,2.8H555.1z M544.8,7.2v11.1h3.2V7.2L544.8,7.2z M555.9,7.2h-3.5v11.1h3.5V7.2z"/>
<path d="M159.4,58h-9.3c-3.8,0-7.1,2.7-7.9,6.5h-4.5c-1.5-1.7-3.7-2.7-6-2.7H90.1c-1.9,0-3.6,0.6-5.1,1.8c-0.8-0.3-1.7-0.4-2.6-0.4
	H68.5L68.4,63c-1.1-2-2.9-3.5-5.2-4.1l-9-2.2c-4-1-8,1.2-9.4,5c-0.2,0.5-0.4,1-0.6,1.5h-8.2c-1-2-2.8-3.4-5-4l-8.8-2.4
	c-4-1.1-8.1,1-9.6,4.9c-2.1,5.6-6,11.3-9.7,14.6c-3.4,2.9-3.8,7.9-0.9,11.3c0.6,0.7,1.4,1.3,2.2,1.8c0.6,0.3,1.3,0.8,2.1,1.2
	c-4.2,1.5-6.3,6-4.9,10.2c0.4,1.2,1.2,2.4,2.1,3.2c1.5,1.4,2.8,3.1,3.8,4.8c0.6,1.2,1.6,2.3,2.8,3v9.9c0,0.7,0.1,1.4,0.3,2.1
	c-1.3,0.5-2.5,1-3.8,1.4c-4.2,1.3-6.5,5.8-5.2,10c0.4,1.3,1.2,2.6,2.2,3.5c1.6,1.6,3.1,3.4,4.4,5.3c1.5,2.4,4,3.8,6.8,3.8
	c1,0,2-0.2,3-0.6c3.8-1.5,7.4-3.4,10.7-5.7c0.9,0.6,1.8,1.3,2.7,2c1.5,1.3,3.3,2,5.3,2c0.2,0,0.5,0,0.7,0c0.9-0.1,1.7-0.3,2.5-0.6
	c1.5,1.8,3.8,2.9,6.1,2.9c1.1,0,2.2-0.2,3.2-0.7c3.4-1.5,6.7-3.4,9.7-5.6c4.6,1.7,9.4,3.7,12.7,5.3c3.3,1.6,7.3,0.8,9.6-2l3.4-4.1
	c1.4,2.5,4,4,6.9,4c0.5,0,0.9,0,1.4-0.1c15.4-2.7,28.9-5.2,40.1-7.4l0,0c0.3,0.8,0.5,1.7,0.7,2.5c0.6,3.9,4,6.7,7.9,6.7
	c7.4,0,12.8-0.4,17.3-2.5l0.1-0.1c8.4-4.2,8.4-12.6,8.4-16.1V66C167.3,61.6,163.8,58,159.4,58z M80.4,88.2c0.2-0.3,0.3-0.5,0.4-0.8
	c0.2-0.4,0.3-0.8,0.4-1.2h1.1c0.9,0,1.8-0.2,2.6-0.4c-0.2,0.3-0.4,0.6-0.5,0.9c-0.3,0.7-0.6,1.4-0.7,2.2
	C82.6,88.6,81.5,88.4,80.4,88.2z M82.7,123.5c-0.2,0.3-0.4,0.7-0.6,1.1l-0.6-0.2c0.3-0.8,0.4-1.7,0.4-2.6v-11.1
	c0.8-0.6,1.5-1.3,2.1-2.1v6c0,2.3,1,4.5,2.7,6C85.1,121.1,83.7,122.1,82.7,123.5z"/>
<path class="st1" d="M52.4,81.7C52,82.2,51.5,82.6,51,83c7.1,5.3,20,9.8,32,11.8c-2.3,2.1-4.2,4.6-5.7,7.3
	c-6.5-1.5-12.9-3.7-18.9-6.6v3.8H33.6v-4c-6.2,3.2-12.6,5.8-19.3,7.8c-1.4-2.6-3.3-5-5.4-7c13.4-3.4,28.1-9.8,35.8-18l1,0.5
	c-1.4-0.9-2.7-1.7-3.7-2.2l0.2-0.2h-8.8c1.2,2,2.2,4.1,3,6.3L28,85.2c-1.1-3.1-2.5-6.2-4.2-9h-1c-2.1,3.4-4.5,6.5-7.2,9.4
	c-2.4-2-4.9-3.7-7.6-5.3c5-4.2,9.4-11.1,12-17.9l8.8,2.4c-0.6,1.4-1.2,2.9-1.9,4.3h17.4v5.2c3.5-3.3,6.2-7.4,7.9-11.9l9,2.2
	c-0.6,1.5-1.2,3-2,4.5h23.2v7H69.3c1.6,1.9,3,3.9,4.2,6l-8.9,2.7c-1.7-3-3.6-5.9-5.8-8.6h-4.2c-1.2,1.7-2.6,3.2-4.1,4.6L52.4,81.7z
	 M64.1,119.8c-0.5,1.5-1.2,2.9-2,4.2c6.4,1.9,12.6,4.1,18.7,6.7l-5.9,7.1c-5.8-2.7-11.8-5.1-17.9-7.1c-3.3,3.1-7.1,5.5-11.2,7.3
	c-1.8-2.3-3.8-4.5-6-6.4l-3.4,4.2c-2.6-2.1-5.5-4-8.5-5.6c-4,3.3-8.4,5.9-13.2,7.8c-1.7-2.5-3.7-4.9-5.8-7
	c7.3-2.3,13.8-6.2,17.4-11.2H18v-17.6h26v17.6h-8.9l1,0.2c-0.7,1.4-1.6,2.8-2.6,4.1c2.9,1.4,5.7,3,8.3,4.9l-1.9,2.4
	c6.9-2.4,12.2-6.2,14.7-11.6h-7v-17.6h26.3v17.6L64.1,119.8z M27,113.4h7.6v-4.8H27V113.4z M54,93c-2.8-1.6-5.4-3.5-8-5.4
	c-2.7,2-5.4,3.8-8.2,5.5L54,93z M56.6,113.4h7.9v-4.8h-8L56.6,113.4z"/>
<path class="st1" d="M115.6,121.8c5-0.9,10.2-1.8,15.3-2.6l0.5,8.2c-14,2.7-29.1,5.4-40,7.4l-2.1-8.8c4.8-0.6,10.8-1.6,17.3-2.6
	v-10.9H92v-8.2h14.6v-7.1h9v7.1H130v8.2h-14.4V121.8z M90.1,67.8h41.6v8.2h-11.3c4.2,5.2,9.1,12.3,11.1,17l-7.2,4.7
	c-0.5-1.2-1.1-2.6-1.8-4c-22.1,1.9-25.5,2.3-27.8,3.2c-0.6-1.9-2.1-6.2-3-8.6c1.2-0.3,2.5-1.6,3.7-3.4c1.9-2.9,3.6-5.9,5-9H90.1
	V67.8z M118.1,86.4c-1.5-2.3-3.1-4.6-4.6-6.6l6.7-3.9h-9.6c-2.1,3.9-4.4,7.7-7,11.3L118.1,86.4z M143.6,118.8h-8.8V70.5h8.8V118.8z
	 M159.4,64v61.8c0,5-1,7.4-4,9s-7.6,1.8-13.8,1.8c-0.7-3.2-1.8-6.2-3.2-9.1c4.2,0.2,8.6,0.2,9.9,0.2s1.8-0.5,1.8-1.8V64H159.4z"/>
</svg>