<svg version="1.1" xmlns="http://www.w3.org/2000/svg" viewBox="0 0 533.7 148" width="534" height="148">
<style type="text/css">
	.st0{fill:#712E07;}
	.st1{fill:#FFF;}
</style>
<path class="st0" d="M32,24.2c-0.1,1.7-0.2,3.1-0.3,4.4h4.6v4.2h-5.1c-0.1,1.2-0.5,2.3-1.1,3.3c-0.8,1.1-2,1.8-3.4,1.9
	c-1.8,0.2-3.6,0.2-5.5,0.1c-0.1-1.3-0.5-2.6-1.1-3.7c1.4,0.1,2.9,0.2,4.3,0.2c0.6,0.1,1.1-0.2,1.4-0.7c0.2-0.4,0.4-0.7,0.5-1.1H4.4
	c0.5-2.4,1-5.5,1.5-8.7H0.3v-4.3h6.2c0.3-2.5,0.6-5,0.9-7.2c-1,1.3-2,2.4-3,3.4c-1.4-1-2.9-2-4.4-2.8C4.1,9.6,7.3,5.1,9.4,0l4.8,1.4
	c-0.4,0.8-0.8,1.7-1.2,2.5h23.5v4.3h-26c-0.7,1.1-1.4,2.1-2.1,3.1h24.1c0,0,0,1.5,0,2.1c-0.1,2.4-0.2,4.4-0.2,6.4h5.9v4.3H32z
	 M10.8,24c-0.2,1.6-0.4,3.1-0.7,4.6H19c-1.5-1.2-3.1-2.2-4.9-3l1.6-1.6L10.8,24z M11.9,15.6c-0.2,1.5-0.4,2.9-0.6,4.4h8.1
	c-1.5-1.1-3.1-2-4.7-2.8l1.7-1.6L11.9,15.6z M27,28.7c0.1-1.3,0.2-2.8,0.3-4.6h-8.5c1.7,0.9,3.3,2,4.8,3.2l-1.4,1.4L27,28.7z
	 M27.5,20.1c0.1-1.4,0.1-2.8,0.2-4.4h-8.3c1.7,0.9,3.2,1.9,4.7,3.1l-1.4,1.4H27.5z"/>
<path class="st0" d="M64.4,20.1c2.9,6.5,8.1,11.2,16,13.3c-1.3,1.3-2.5,2.8-3.3,4.5c-7.7-2.5-12.6-7.2-16-13.9
	c-2.2,5.4-6.8,10.6-16,14c-0.9-1.5-1.9-3-3.2-4.2c9.4-3.3,13.4-8.6,15.1-13.8H43.3v-5h14.7c0.1-1.1,0.1-2.1,0.1-3.1V7.9H44.7v-5H77
	v5H63.2v4.2c0,1,0,2-0.1,3.1h15.5v5L64.4,20.1z"/>
<path class="st0" d="M114.7,28.7h-6.4l4,0.9c-0.7,1.4-1.3,2.7-2,3.8h10.3v4.1H84.8v-4.1h10c-0.4-1.3-1-2.5-1.7-3.7l3.2-1h-6V18.1
	c-1.4,1-2.8,1.8-4.3,2.5c-0.9-1.3-1.9-2.5-3-3.6c2.5-1.1,4.9-2.6,6.9-4.4c-1.3-1.3-2.8-2.4-4.3-3.4l2.6-2.7c1.7,0.9,3.2,2,4.6,3.3
	c1.2-1.3,2.2-2.7,3.1-4.2h-9.7V1.7h12.1l0.8-0.2l3.2,1.6c-1,2.9-2.5,5.6-4.4,8h9.8c-2.2-2.9-4-6-5.4-9.4l4.3-1.3
	c0.6,1.4,1.3,2.8,2.1,4.2c1.5-1.2,2.9-2.5,4.2-4l3.7,2.6c-1.8,1.5-3.9,3.1-5.7,4.4c0.6,0.7,1.2,1.4,1.8,2.1c1.7-1.3,3.3-2.7,4.7-4.3
	l3.6,2.5c-1.7,1.5-3.8,3.1-5.5,4.3c2.1,1.7,4.4,3,6.9,4c-1.3,1.2-2.4,2.6-3.3,4.1c-1.6-0.7-3-1.6-4.4-2.6L114.7,28.7z M95.8,13.5
	c-1.4,1.4-2.9,2.7-4.5,3.9h22.9c-1.5-1.1-2.9-2.4-4.2-3.8v1.4H95.8V13.5z M109.5,21.2H95.3v3.6h14.2L109.5,21.2z M105.5,33.3
	c0.8-1.5,1.5-3.1,2.1-4.7h-9.9c0.8,1.2,1.5,2.6,1.9,4l-2,0.7L105.5,33.3z"/>
<path class="st0" d="M138.2,0.4c13,9.5,12.6,23.6,25.6,31.9c-1,1.8-1.8,3.7-2.3,5.6c-8.4-4.7-11.9-13-16-20.7
	c-3.2,9.3-8.2,16.2-15.6,20.5c-1.4-1.5-2.9-2.8-4.4-4c8.7-4.3,13.7-12.1,16.1-23c-1.7-2.4-3.9-4.6-6.3-6.2L138.2,0.4z"/>
<path class="st0" d="M174.6,24c-0.8,3.8-2.2,7.5-4.1,11c-1-0.9-2.1-1.6-3.3-2.3c1.7-2.9,2.9-6.1,3.5-9.4L174.6,24z M186.5,9h-18.6
	V4.8h7.6c-0.4-1.3-0.9-2.5-1.4-3.8l4.4-0.9c0.7,1.5,1.4,3.1,1.9,4.7h6L186.5,9z M179.8,22v11.5c0,2-0.3,3-1.6,3.7s-2.8,0.7-5,0.7
	c-0.3-1.4-0.7-2.7-1.4-4c1.3,0,2.6,0,3,0s0.6-0.1,0.6-0.5V22.1h-5.8V11.2H185v10.9L179.8,22z M173.8,18.3h6.9v-3.4h-6.9V18.3z
	 M183.8,22.7c1.3,2.3,2.3,4.7,3,7.2l-3.5,1.7c-0.6-2.6-1.6-5.1-2.8-7.4L183.8,22.7z M200.9,33.8c0.2,0,0.5,0,0.7-0.2
	c0.2-0.1,0.3-0.4,0.4-1.2c0.1-1.5,0.2-3,0.2-4.5c1.1,0.9,2.4,1.6,3.7,2c0,1.7-0.2,3.4-0.5,5c-0.2,0.9-0.8,1.6-1.5,2
	c-0.8,0.4-1.6,0.5-2.4,0.5h-2.5c-1,0-2-0.3-2.8-0.9c-0.7-0.7-1.1-1.5-1.1-4.4v-9.4c-1.4,6-3.7,11.5-8,15.6c-0.9-1.2-2.1-2.2-3.4-3
	c5.5-5.1,7.4-12.6,8.2-20.5H187v-4.3h5.1c0.2-3.5,0.1-6.9,0.2-10.2h4.5c0,3.3-0.1,6.8-0.2,10.2h8.6v4.3h-8.9c-0.1,0.7-0.2,1.4-0.2,2
	h3.2v15.5c0,0.7,0,1.1,0.2,1.3c0.2,0.2,0.4,0.2,0.6,0.2L200.9,33.8z M201.1,9.9c-1.1-2.3-2.5-4.4-4.1-6.4l3.1-1.8
	c1.7,1.9,3.1,4,4.3,6.2L201.1,9.9z"/>
<path class="st0" d="M246.5,7.8h-4.7v24.3c0,2.9-0.7,4.4-2.6,5.2s-5.1,0.9-9.2,0.9c-0.4-1.8-1.1-3.5-2-5.1c2.9,0.2,6.4,0.1,7.4,0.1
	s1.3-0.3,1.3-1.1V7.8h-27V2.9h36.7L246.5,7.8z M218.3,28.2v3.1h-4.7V12.4h17.3v15.8H218.3z M218.3,17v6.5h7.7V17H218.3z"/>
<path class="st0" d="M268.3,21.8c0.3,1.6,0.7,3.1,1.3,4.6c-11.6,6.1-13.5,7.3-14.7,8.5c-0.7-1.4-1.6-2.7-2.7-3.9
	c1.1-0.7,3-2.5,3-4.6V3h5.3v22.7L268.3,21.8z M284.9,38.1c-2-3.1-4.3-5.9-6.9-8.6c-2.7,3.9-6.3,7-10.6,8.9c-1.1-1.5-2.3-2.9-3.7-4.2
	c12.2-5,15.1-15.1,15.7-32.3l5.2,0.2c-0.5,9.5-1.6,17-4.2,22.9c3.2,3.2,6.9,7.1,8.7,9.8L284.9,38.1z M269.7,16.3
	c-1.5-3.4-3.5-6.7-5.8-9.6l4.2-2.3c2.3,2.9,4.3,6,6,9.3L269.7,16.3z"/>
<path class="st0" d="M330,13.4c-1.1,3.9-2.8,7.7-5,11.1c0.5,1.7,1.1,2.6,1.6,2.6s0.8-1.5,0.9-4.8c0.9,0.9,2,1.7,3.1,2.2
	c-0.6,5.3-1.8,6.8-4.5,6.8c-1.6,0-2.9-1.2-3.9-3.2c-1.5,1.8-3.3,3.3-5.3,4.5c4.1,0,11.4,0,14.1-0.2c-0.9,1.5-1.5,3.1-1.9,4.8h-14.8
	c-8,0-13.2-1.2-16.8-6.4c-0.5,2.6-1.4,5.1-2.7,7.3c-0.8-1.2-1.9-2.2-3.1-3c2.6-4.6,2.8-10.9,2.6-16.4l4.1,0.2c0,1.5,0,3.2,0,4.8
	c0.5,1.6,1.3,3,2.2,4.3V16.5h-7.9v-4.3h7V8.8H294V4.6h5.7V0.2h4.5v4.3h5.5v4.2h-5.5v3.5h6.2v4.3H305V21h4.6v3.7c1-0.6,1.7-1.8,1.7-3
	v-15h7.3c-0.1-2.2-0.2-4.3-0.2-6.5h4.4c0,2.2,0,4.4,0.1,6.5h3.4c-0.9-1.6-2-3.1-3.1-4.6l3.3-1.7c1.3,1.5,2.4,3.1,3.5,4.7l-2.9,1.5
	h3.2v4H323c0.2,2.9,0.5,5.5,0.8,7.7c1-2,1.8-4,2.4-6.1L330,13.4z M305,31.4c2.5,1,5.6,1.3,9.4,1.3h2.3c-0.8-1.2-1.8-2.3-2.9-3.4
	c2.6-1.5,4.9-3.4,6.8-5.8c-0.9-4.2-1.5-8.5-1.8-12.8h-3.2v10.7l2.9-1.7c0.2,1.3,0.6,2.5,1.1,3.7c-6.4,4-7.7,4.8-8.3,5.6
	c-0.4-1.4-1-2.7-1.7-3.9H305V31.4z"/>
<path class="st0" d="M343,22.9v10.2c0,2.1-0.4,3.2-1.6,3.9s-2.8,0.9-5.3,0.9c-0.2-1.5-0.6-2.9-1.2-4.2c1.1,0.1,2.2,0.1,3.3,0
	c0.5,0,0.7-0.1,0.7-0.6v-8.7l-3.6,1.3l-1.2-4.6c1.3-0.4,3-0.9,4.8-1.4v-7.2h-4.2V7.9h4.2V0.2h4.2v7.7h2.2v4.5H343v5.8l2.7-0.9
	l0.8,4.3L343,22.9z M365,32.5c2.5,1.2,5.1,2.4,6.8,3.4l-4.2,2.4c-2.4-1.6-4.9-3-7.4-4.2l2.1-1.6h-7.2l2.5,1.6
	c-2.8,1.9-5.9,3.4-9.2,4.3c-0.9-1-1.9-2-3-2.9c2.6-0.6,5.2-1.6,7.5-3h-4V17.3h4c-0.4-0.8-0.8-1.5-1.4-2.2c0.9-0.7,1.4-1.9,1.4-3.1
	v-1.2h-1.3c-0.5,3.2-1.5,5.8-4.5,7.5c-0.5-1-1.2-1.8-2.1-2.5c1.9-0.9,3.2-2.8,3.4-4.9h-2.3v-3h4.9V6.1h-2c-0.2,0.5-0.5,1.1-0.8,1.6
	c-0.8-0.6-1.6-1.2-2.5-1.6c0.8-1.6,1.3-3.4,1.5-5.3l2.9,0.7c-0.1,0.6-0.2,1.1-0.4,1.7h1.1V0.4h3.3v2.8h3.1v3h-3.1v1.7h3.5v3H356v2.4
	l1.7-0.6c0.1,0.8,0.4,1.6,0.7,2.3c-1.7,0.7-3.3,1.5-4.8,2.4h6.1c-0.5-0.7-1-1.4-1.7-2c1.7-0.9,2.8-2.6,2.9-4.5h-2.1v-3h1.7
	c-0.6-0.4-1.8-1.2-2.5-1.6c0.9-1.7,1.5-3.5,1.6-5.3l2.9,0.6c-0.1,0.5-0.2,1.1-0.3,1.6h1.2V0.4h3.4v2.8h3.8v3h-3.8v1.7h4.6v3h-3.1
	v2.5c0,0.3,0,0.6,0.1,0.9c0.1,0.1,0.2,0.1,0.4,0.1h0.5c0.1,0,0.3,0,0.4,0c0.1,0,0.2-0.2,0.3-0.4c0.1-0.5,0.1-0.9,0.2-1.4
	c0.6,0.4,1.3,0.8,2,1c0,0.8-0.2,1.5-0.5,2.2c-0.2,0.4-0.6,0.7-1,0.9c-0.5,0.2-0.9,0.3-1.4,0.3h-1.5c-0.7,0-1.5-0.2-2-0.7
	c-0.5-0.5-0.7-1.1-0.7-3v-2.4H364c-0.3,2.7-1.1,4.9-3.2,6.5h7.5v15.2H365z M363.9,20.4h-10.5v1.3h10.6L363.9,20.4z M363.9,25.5v-1.3
	h-10.5v1.3H363.9z M353.3,28v1.3h10.6V28H353.3z M361.3,6.1c-0.2,0.6-0.5,1.2-0.8,1.7h2.9V6.1L361.3,6.1z"/>
<path class="st0" d="M413.5,13.4c-1.1,3.9-2.8,7.7-5,11.1c0.5,1.7,1.1,2.6,1.6,2.6s0.8-1.5,0.9-4.8c0.9,0.9,2,1.7,3.1,2.2
	c-0.6,5.3-1.8,6.8-4.5,6.8c-1.6,0-2.9-1.2-3.9-3.2c-1.5,1.8-3.3,3.3-5.3,4.5c4.2,0,11.4,0,14.1-0.2c-0.9,1.5-1.5,3.1-1.9,4.8h-14.8
	c-8,0-13.2-1.2-16.8-6.4c-0.5,2.6-1.4,5.1-2.7,7.3c-0.8-1.2-1.9-2.2-3.1-3c2.6-4.6,2.8-10.9,2.6-16.4L382,19c0,1.5,0,3.2,0,4.8
	c0.5,1.6,1.3,3,2.2,4.3V16.5h-7.9v-4.3h7V8.8h-5.7V4.6h5.7V0.2h4.5v4.3h5.5v4.2h-5.5v3.5h6.2v4.3h-5.4V21h4.6v3.7
	c1-0.6,1.7-1.8,1.7-3v-15h7.3c-0.1-2.2-0.2-4.3-0.2-6.5h4.4c0,2.2,0,4.4,0.1,6.5h3.4c-0.9-1.6-2-3.1-3.1-4.6l3.2-1.7
	c1.3,1.5,2.4,3.1,3.5,4.7l-2.9,1.5h3.2v4h-7.2c0.2,2.9,0.5,5.5,0.8,7.7c1-2,1.8-4,2.4-6.1L413.5,13.4z M388.5,31.4
	c2.5,1,5.6,1.3,9.4,1.3h2.3c-0.8-1.2-1.8-2.3-2.9-3.4c2.6-1.5,4.9-3.4,6.8-5.8c-0.9-4.2-1.5-8.5-1.8-12.8h-3.2v10.7l2.9-1.7
	c0.2,1.3,0.6,2.5,1.1,3.7c-6.4,4-7.7,4.8-8.3,5.6c-0.4-1.4-1-2.7-1.7-3.9h-4.6L388.5,31.4z"/>
<path class="st0" d="M455.3,20.2c-5.8,12.4-19.1,16.7-34.7,18.1c-0.4-1.6-1.1-3.2-2-4.7c6.1-0.3,12.1-1.4,17.9-3.3
	c-1.1-1-2.3-2-3.5-2.9l4-2.3c1.4,1,2.8,2,4.1,3.1c2.6-1.4,4.9-3.2,6.8-5.6h-9.3c-3.6,2.5-7.6,4.6-11.8,6.1c-0.8-1.4-1.8-2.7-3-3.8
	c8.4-2.6,14-6.6,17.1-10.6l5.3,1.2c-0.8,0.9-1.6,1.8-2.5,2.7h7.3l0.9-0.2L455.3,20.2z M450,5.2c-5.3,9.4-16.8,14.4-28.6,16.6
	c-0.6-1.5-1.3-3-2.2-4.3c4.1-0.6,8.2-1.6,12.1-3.1c-1.1-1-2.2-1.9-3.3-2.7l3.6-2.2c1.4,0.9,2.8,1.9,4.1,3c2.4-1.3,4.7-2.9,6.7-4.8
	h-10.2c-2.7,1.9-5.6,3.5-8.6,4.8c-0.9-1.3-2-2.5-3.3-3.5c6.6-2.4,11.4-5.9,14.1-9.1l5.2,1.2c-0.7,0.7-1.4,1.5-2.2,2.2h8.6l0.9-0.2
	L450,5.2z"/>
<path class="st0" d="M496.5,6.5c0,0,0,1.6,0,2.2c-0.5,18.2-1,24.7-2.6,26.9c-0.9,1.3-2.3,2.1-3.9,2.2c-2.1,0.2-4.3,0.2-6.4,0.1
	c-0.2-1.7-0.7-3.3-1.6-4.7c2.6,0.2,5,0.2,6.1,0.2c0.7,0.1,1.3-0.2,1.8-0.7c1.2-1.3,1.7-7.4,2.2-21.8h-8.7c-1,2.3-2.2,4.4-3.6,6.4
	c-1-0.8-2.1-1.6-3.2-2.3v19h-10.9v3h-4.4V6.8h4.6c0.6-2.2,1-4.4,1.2-6.6l5.3,0.7c-0.7,2-1.4,4.1-2.1,5.8h6.3v6.6
	c2.6-4,4.4-8.5,5.5-13.1l4.6,1.1c-0.5,1.8-1,3.5-1.6,5.2L496.5,6.5z M472.1,11h-6.5v6.6h6.5V11z M472.1,29.8v-8h-6.5v8H472.1z
	 M485.6,27.6c-1.7-3.3-3.6-6.4-5.7-9.4l3.8-2.2c2.2,2.9,4.2,5.9,6,9L485.6,27.6z"/>
<path d="M530.8,88.5c-7.8-6.4-16.4-17.3-20.5-26c-1.3-2.8-4.2-4.6-7.3-4.6c-1,0-1.9,0.2-2.8,0.5l-8.9,3.4c-0.9,0.4-1.8,0.9-2.6,1.6
	c-1-1.1-2.3-1.8-3.7-2.2l-10.2-2.8c-0.7-0.2-1.4-0.3-2.1-0.3c-3.3,0-6.3,2.1-7.5,5.2c-2.7,7.2-6.7,13.9-11.9,19.6
	c-0.5-1.5-1.4-2.9-2.6-3.9c1-1.4,1.5-3,1.5-4.6v-5.7c0-4.4-3.6-8-8-8h-9.9c-1.5-2.3-4-3.6-6.7-3.6h-9.5c-2.7,0-5.2,1.4-6.7,3.6h-8.9
	h-0.6l-0.1-0.2c-2.3-2.6-6-3.5-9.2-2.1c-4.9,2.1-13.4,4.2-22,5.3l-0.5,0.1c-1.4-2.4-4.1-3.9-6.9-3.9h-36.8c-1.1,0-2.2,0.2-3.2,0.7
	l-0.1-0.1c-2.3-2.7-6.1-3.5-9.4-2c-4.7,2.1-13,4.3-22.7,6c-1.5-2.3-4-3.6-6.7-3.6h-41.4c-2.4,0-4.8,1.1-6.3,3h-20.8
	c-3.7,0-6.9,2.6-7.8,6.2c-1.3-2.8-4.1-4.5-7.2-4.5h-11.4c-4.4,0-8,3.6-8,8v33.7c0,5.7-1.1,7.5-1.4,8c-0.1,0.1-0.4,0.5-2.1,0.5
	c-1.5,0-1.7-0.3-1.8-0.4c-0.3-0.4-1.4-2.3-1.4-8V73.4c0-4.4-3.6-8-8-8h-11.8c-1.6,0-3.2,0.5-4.5,1.4c-1.3-0.9-2.9-1.4-4.5-1.4h-13
	c-2.5,0-4.9,1.2-6.4,3.2l-5.5,7.2v-2.3c0-4.4-3.6-8-8-8h-11.9c-2.8,0-5.4,1.5-6.9,3.9c-1.4-2.4-4.1-3.9-6.9-3.9H75.5
	c-2.8,0-5.4,1.5-6.9,3.9c-1.4-2.4-4.1-3.9-6.9-3.9H48.6c-3.4,0-6.4,2.1-7.5,5.3L35,88.1l-6.4-17.4c-1.1-3.2-4.2-5.3-7.5-5.3H8
	c-4.4,0-8,3.6-8,8v59.3c0,4.4,3.6,8,8,8h10.6c4,0,7.4-3,7.9-6.9c1.4,1,3.1,1.6,4.8,1.6h6.8c1.8,0,3.5-0.6,4.8-1.6c0.5,4,3.9,7,7.9,7
	h10.8c2.8,0,5.4-1.5,6.9-3.9c1.4,2.4,4.1,3.9,6.9,3.9h11.9c2.8,0,5.4-1.5,6.9-3.9c1.4,2.4,4.1,3.9,6.9,3.9H113c4.4,0,8-3.6,8-8
	v-10.2l8.2,14.2c1.4,2.5,4.1,4,6.9,4h13c3.7,0,7-2.6,7.8-6.2c5.3,4.9,12.3,7.4,21.1,7.4c9.9,0,25.7-3.5,29.8-24.4v8.4
	c0,4.4,3.6,8,8,8h8.6c1.7,0,3.4-0.6,4.8-1.6v4.9c0,4.4,3.6,8,8,8h51c4.4,0,8-3.6,8-8v-2.5h0.5v4.9c0,4.4,3.6,8,8,8h9.2
	c1.9,0,3.7-0.7,5.1-1.9c0.6,0.1,1.2,0.2,1.7,0.2H367c4.4,0,8-3.6,8-8v-3.2h0.3v4.9c0,4.4,3.6,8,8,8h9.3c1.6,0,3.1-0.5,4.4-1.4
	c1.4,1.1,3.2,1.8,5,1.8c0.8,0,1.7-0.1,2.5-0.4c6.7-2.2,13-5.2,18.9-9c3.8,2.5,7.9,5.4,10.1,7.3c2.5,2.1,6,2.5,8.9,0.9l8.3-4.5
	l0.2-0.1c0.2,0.4,0.4,0.7,0.5,0.9c1.3,2.9,4.2,4.8,7.3,4.8c0.9,0,1.9-0.2,2.8-0.5c7.2-2.5,13.8-6.5,19.2-11.8
	c0.4,1.1,0.7,2.3,0.8,3.5c0.2,4.1,3.6,7.4,7.7,7.6c2.1,0.1,4,0.1,5.6,0.1c2.6,0,5.2-0.1,7.8-0.4c4.9-0.4,9.5-2.8,12.5-6.8
	c3.7-4.4,5-11.7,5.9-29.6c1.4-0.6,2.6-1.5,3.5-2.8c1.8-2.3,3.8-4.5,6-6.4c3.5-2.7,4.2-7.7,1.5-11.2
	C531.7,89.4,531.3,88.9,530.8,88.5L530.8,88.5z M137.4,97.4l9.5-12.2v20.9c0,2.7,0.2,5.5,0.5,8.2L137.4,97.4z M450.3,123.8
	c-0.1,0-0.3,0.1-0.4,0.2v-18.3c1.1,1.1,2.2,2.2,3.1,3.1c1.5,1.7,3.7,2.6,5.9,2.6c0.7,0,1.3-0.1,2-0.3c0.9,0.3,1.8,0.5,2.8,0.5h2.5
	C463.7,117,459.2,121,450.3,123.8z M483.4,86.2c1.9-3.3,3.7-6.6,5.2-10.1c1.7,3.3,3.7,6.7,5.9,10.1H483.4z M493.4,111.6h1.6
	c-0.3,4.4-0.6,7.7-0.9,9.9c-1.1,0-2.4-0.1-3.8-0.1C491.7,118.2,492.7,114.9,493.4,111.6L493.4,111.6z"/>
<path class="st1" d="M8,71.4h13.1l10.1,27.8c1.3,3.7,2.4,7.6,3.6,11.4h0.4c1.3-3.8,2.3-7.7,3.6-11.4l9.8-27.8h13.1v59.3H51V106
	c0-5.6,0.9-13.8,1.5-19.4h-0.4l-4.8,13.9l-9.1,24.9h-6.8l-9.2-24.9l-4.8-13.9h-0.3c0.6,5.6,1.5,13.8,1.5,19.4v24.7H8V71.4z"/>
<path class="st1" d="M75.5,71.4h11.8v59.3H75.5V71.4z"/>
<path class="st1" d="M101.1,71.4H113v25.8h0.2l19.6-25.8h13l-18.1,23.4l21.2,35.9h-13l-15.4-26.6l-7.8,10v16.6h-11.8V71.4z"/>
<path class="st1" d="M154.9,104.1V71.4h11.8v33.7c0,12.3,4.3,16.5,11.2,16.5c7,0,11.5-4.2,11.5-16.5V71.4h11.4v32.6
	c0,19.7-8.4,27.8-22.9,27.8S154.9,123.8,154.9,104.1z"/>
<path class="st1" d="M224.4,116.8v7.1h-8.6v-54h22.8v46.9H224.4z M224.4,78.6v29.4h5.5V78.6H224.4z M288.2,126.6v8.6h-51v-8.6H259
	V119h-16.7v-8.6H259v-6.2h-16.1V66.9h41.4v37.3h-16v6.2h17.2v8.6h-17.2v7.6L288.2,126.6z M251.4,81.7h8.2V75h-8.2V81.7z M251.4,96.1
	h8.2v-6.9h-8.2V96.1z M275.2,75h-7.6v6.7h7.6V75z M275.2,89.2h-7.6v6.9h7.6V89.2z"/>
<path class="st1" d="M318.6,114.5c-1.4-2.8-3-5.5-4.8-8.1v31.2h-9.2v-28.7c-2.2,5.6-5.2,11-8.7,15.8c-1.1-3.1-2.6-6.2-4.4-9
	c4.5-5.2,8.9-13.7,11.8-21.4h-10.2v-8.9h11.4v-9.3c-3.4,0.6-6.6,1.2-9.8,1.6c-0.6-2.5-1.5-5-2.6-7.3c8.8-1.5,18.6-3.8,24.8-6.6
	l6.3,7.2c-3.1,1.2-6.3,2.2-9.5,3v11.4h8.6v8.9h-8.6v2.3c2.2,1.8,8.7,8.7,10.2,10.5L318.6,114.5z M367,127.6v8.3h-46.3v-8.3h19v-7
	h-14v-8h14V106h-15.9v-8.2h41.4v8.2h-16.1v6.6h14.2v8h-14.2v7L367,127.6z M363.1,93h-36.7V66h36.7V93z M353.8,74h-18.6v11h18.6
	L353.8,74z"/>
<path class="st1" d="M396.8,113.6c-1.3-2.5-2.7-4.9-4.2-7.2v31.2h-9.3v-27.8c-2.2,5.3-4.9,10.3-8.3,14.9c-1.1-3.1-2.6-6.2-4.4-9
	c4.6-5.3,9.1-14.2,12.1-22.1h-10v-8.9h10.6v-9c-3.1,0.5-6.2,0.9-9,1.2c-0.6-2.5-1.5-5-2.6-7.3c8.6-1.2,18.1-3.4,24.1-5.9L402,71
	c-3.1,1.2-6.2,2.1-9.4,2.9v10.8h7.4v-1.3h18.1v-2.7h-14.2v-5.5h14.2v-2.7h-15.6v-5.8h15.6V63h9.5v3.6h16.6v5.8h-16.6v2.7h14.7v5.5
	h-14.7v2.7h18.2v5.9h-45.3v4.3h-7.9v2.6c2.6,2.4,8.3,8.3,9.7,10L396.8,113.6z M433.4,124.8c4.9,2.9,10.4,6.2,13.6,8.5l-8.3,4.5
	c-4.2-3.4-8.6-6.5-13.2-9.4l5-3.6h-14.6l5.4,3.5c-4.9,3.8-12.8,7.6-19.2,9.7c-1.4-1.7-4.1-4.2-5.8-5.9c5.6-1.7,10.9-4.1,15.8-7.3h-7
	V92h37v32.8L433.4,124.8z M413.4,101.2h19.4v-3.4h-19.4L413.4,101.2z M413.4,110.1h19.4v-3.4h-19.4L413.4,110.1z M413.4,118.9h19.4
	v-3.4h-19.4L413.4,118.9z"/>
<path class="st1" d="M503,63.9c4.8,10.1,14.4,21.9,22.6,28.7c-2.9,2.4-5.5,5.1-7.7,8.1c-1.4-1.4-3-2.9-4.5-4.6v0.2
	c-0.8,23.6-1.8,33-4.6,36.2c-1.7,2.3-4.3,3.7-7.2,3.8c-4,0.4-8.1,0.5-12.2,0.2c-0.3-3.4-1.3-6.7-3-9.6c4.3,0.4,8.6,0.4,10.5,0.4
	c1.2,0.1,2.3-0.2,3.2-1c1.7-1.8,2.5-8.6,3.2-24.9h-16.7c-2.1,15.1-7.4,28.7-27.9,36.3c-1.5-3.1-3.6-6-6-8.5
	c17.8-5.8,22.1-16.3,23.8-27.8h-12.9v-4.8c-1.5,1.6-3.1,3.1-4.8,4.5c-2.5-2.7-5.2-5.2-8.1-7.4c9.4-6.7,17.4-17.9,21.9-29.8l10.3,2.8
	c-3.6,9.2-8.7,17.7-15,25.3h42.2c-6.3-7.7-11.7-16-16.1-24.9L503,63.9z"/>
</svg>