<svg version="1.1" xmlns="http://www.w3.org/2000/svg" viewBox="0 0 315 92" width="315" height="92">
<style type="text/css">
	.st0{fill:#FFF;}
</style>
<path d="M242.8,74.1c1.7-4.1-0.2-8.8-4.2-10.5c-0.6-0.2-1.1-0.4-1.8-0.5c2.3-1.5,3.7-4,3.7-6.8v-5.2c0-0.9-0.2-1.8-0.5-2.7
	c0.2-0.6,0.2-1.3,0.2-1.9v-9c0-3.7-2.5-6.9-6.1-7.8V12.9c0-4.4-3.6-8-8-8H219c-1.4-2.2-3.7-3.7-6.3-3.8l-9.8-0.6c-0.2,0-0.4,0-0.5,0
	c-3.1,0-5.8,1.7-7.2,4.5h-8.3c-2.7,0-5.1,1.3-6.6,3.5c-1.7-1.8-3.4-3.6-4.8-5.1c-2.7-2.8-7.1-3.3-10.3-1l-7.1,5
	c-0.5,0.4-1,0.8-1.4,1.2c-1.4-2.6-4.1-4.3-7.1-4.3H87.8c-4.4,0-8,3.6-8,8c0,0,0,0,0,0v27.6c0,11.7-0.8,24.7-6.7,32.8
	c-2.6,3.6-1.8,8.6,1.8,11.2c0.4,0.3,0.7,0.5,1.1,0.7c1.9,1.2,3.7,2.6,5.3,4.2c1.5,1.7,3.7,2.6,5.9,2.6h0.4c2.4-0.1,4.6-1.3,6-3.2
	c1.2-1.6,2.3-3.3,3.2-5c1.5,1.7,3.7,2.6,5.9,2.6h8.6c3,0,5.7-1.7,7.1-4.3h3.7c0.3,0.8,0.5,1.7,0.6,2.5c0.5,4,3.9,7,7.9,7
	c7.6,0,13.3-0.2,18-2.4l0.2-0.1c2.4-1.2,4.5-3,5.9-5.2L158,88c1.5,2.2,4,3.6,6.7,3.6h0.6c2.9-0.2,5.5-2,6.7-4.6
	c0.7-1.4,1.2-2.6,1.7-3.5c0.7,0.4,1.4,0.9,2.2,1.4c7.6,4.4,15.8,5.3,27.4,5.3c8.9,0,23.3-0.6,29.9-1.1c4-0.3,7.2-3.5,7.5-7.5
	C241.1,79,241.8,76.5,242.8,74.1z M161.1,60.6c-1.3,0.9-2.5,1.9-3.6,3V51.1c0.8,0.3,1.6,0.4,2.5,0.4h1.1L161.1,60.6z M160,26.8
	c-0.8,0-1.7,0.1-2.5,0.4v-6.9l1.3,1.5c1.4,1.6,2.9,3.4,4.3,5.1H160z"/>
<path class="st0" d="M149.5,70.6c0,5-1,7.3-4.2,8.9c-3,1.4-7.7,1.6-14.6,1.6c-0.5-3.1-1.5-6.1-2.9-8.9c4.1,0.2,8.8,0.2,10.2,0.2
	s1.9-0.5,1.9-1.8V19H97.3v18.9c0,13.1-1.3,31.9-10,43.5c-2.3-2.3-4.9-4.3-7.7-6c7.6-10.4,8.2-25.8,8.2-37.5V10.2h61.7V70.6z
	 M113.4,37.8v-5.1h-11.9v-7.2h11.9v-5.3h9v5.3H135v7.2h-12.5v5.1h14.2v7.4H99.9v-7.4H113.4z M111.4,71.5v4.3h-8.6v-26h30.8v21.7
	L111.4,71.5z M111.4,57v7.4h13.4V57L111.4,57z"/>
<path class="st0" d="M200.8,61.9c-2.3,3.5-6.2,6.2-12.5,8.2c4.3,1,9.6,1.1,15.4,1.1c10.6,0,21.2-0.8,31.8-2.3
	c-1,2.6-2.6,7.4-2.8,10.2c-6.1,0.4-20.4,1-29.4,1c-10.8,0-17.6-0.8-23.4-4.2c-3.5-2-6.2-4.8-7.8-4.8c-2.1,0-5,5.5-7.3,10.4l-6.2-9.4
	c3.8-4.6,7.5-7.8,10.6-9V41.5H160v-8.7h18.2v32.7c0.9,0.6,1.8,1.3,3,2c1.2,0.7,2.5,1.3,3.8,1.8c-0.9-1.7-2.1-3.2-3.4-4.6
	c9.5-2,12.8-5.3,14.1-10.4h-14.9v-5.2h7c-0.7-1-1.5-2-2.4-2.9c1.2-0.5,2.5-1.1,3.8-1.8H181v-9h20.4l-1.1-2.2l0.6-0.2h-14.1V10.9
	h14.3c0.5-1.5,0.9-3,1.2-4.5l9.8,0.6c-0.7,1.3-1.5,2.6-2.4,3.8h16.5v22.2h-16.1c0.5,0.8,0.9,1.6,1.3,2.3h20.9v9h-8.6V40h-34.5v4.5
	c2.4-1.2,4.8-2.5,7-4l6,3c-2.8,1.8-6.2,4-9.4,5.7h9.3c-0.5-1.1-1-2.2-1.4-3.3l7.8-1.7c0.8,1.4,1.8,3.3,2.6,5h7.3
	c-2.6-1.9-6.5-4.5-9.5-6.2l5.8-2.6c3.5,2.1,8.4,5,11.1,7l-3.9,1.9h10.7v5.2h-28.8c-0.1,0.9-0.3,1.7-0.6,2.6h21.8
	c0,0.9-0.1,1.8-0.3,2.6c-0.8,5.2-1.8,8-3.4,9.3c-1.6,1.1-3.5,1.6-5.4,1.6c-1.8,0.1-5.2,0.1-8.8-0.1c-0.1-1.8-0.6-3.6-1.5-5.3
	c2.3,0.3,4.6,0.4,6.9,0.3c0.8,0.1,1.6,0,2.2-0.5c0.8-0.8,1.3-1.9,1.4-3L200.8,61.9z M173.9,25.8c-2.3-3.8-7.6-9.6-11.4-14l7.1-5
	c3.8,3.9,9.3,9.7,11.9,13.2L173.9,25.8z M195.7,17H217v-2.3h-21.3V17z M195.7,23.1H217v-2.3h-21.3V23.1z M195.7,29.2H217v-2.4h-21.3
	V29.2z"/>
</svg>