<svg version="1.1" xmlns="http://www.w3.org/2000/svg" viewBox="0 0 315 92" width="315" height="92">
<style type="text/css">
	.st0{fill:#FFF;}
</style>
<path d="M3.2,55.2L3.2,55.2c2,5.7,7.5,9.5,13.6,9.4c2,0,4-0.3,5.9-1c2.6-0.9,5.3-2,8.1-3.3v14.2c0,8.8,6.4,15.4,14.9,15.4
	c8.3,0,15-6.8,15-15.2c0-0.1,0-0.2,0-0.3V41.7C66,37.6,70.8,33,75.2,28c2.7-3.1,4-7.1,3.8-11.1c-0.2-4-2.1-7.7-5.1-10.3l0,0l0,0
	c-2.5-2.1-5.7-3.3-8.9-3.3l0,0c-4.3,0.1-8.4,1.9-11.4,5.1l0,0l0,0C41.3,21.7,29,30,12.4,36.1C4.3,39.1,0.4,47.2,3.2,55.2L3.2,55.2z"
	/>
<path d="M79,66.7c2.7,2.5,6.2,3.9,9.8,3.9c4.7-0.1,9.2-2.3,12.2-6l11.8-14.1c10,11.4,18.9,20.4,26.5,26.9c3.1,2.8,7.1,4.5,11.3,4.6
	c4.3,0,8.4-2,11.1-5.3c2.6-3.1,3.9-7.1,3.5-11.2c-0.5-4.7-2.9-9-6.6-11.9c-5.4-4.5-10.3-8.8-14.9-13.3c0.6-0.5,1.1-1.1,1.6-1.7
	c0.5,0.1,1,0.1,1.5,0.1c2.4,0,4.7-0.7,6.6-2.1c5.1-3.6,6.7-10.4,3.7-15.9c-1.9-3.6-4.8-6.7-8.3-8.7c-2.1-1.3-4.4-2-6.9-2
	c-2.9,0-5.7,1.1-7.8,3.1c-0.5,0.4-0.9,0.9-1.3,1.4c-0.5-0.1-1-0.1-1.5-0.1c-3.1,0-6.2,1.3-8.4,3.5c-0.2,0.1-0.3,0.3-0.4,0.5
	c-2.7-1.7-5.9-2.7-9.1-2.7c-6.4,0-10.4,3.1-13.5,6.2c-5.4,5.3-14.3,14.8-21.2,22.5C72.5,51.2,72.6,60.8,79,66.7z"/>
<path d="M177.4,58c-4.3,1.2-7.9,4.1-10,8c-1.8,3.6-2.1,7.8-0.8,11.6l0,0l0,0c2,6.1,7.8,10.2,14.3,10.1c1.9,0,3.8-0.3,5.6-0.8
	c21.3-6.3,42.2-22.2,53.4-40.3c4.6-7.5,3.1-16.4-3.5-21.1c-2.4-1.7-5.2-2.6-8.1-2.7l0,0c-4.8,0-9.4,2.6-12.6,7.1
	C204.8,45.2,194.8,52.5,177.4,58z"/>
<path d="M171.9,37.7L171.9,37.7L171.9,37.7c3,1.8,5.9,3.8,8.7,6c3,2.6,6.9,4,10.8,4.1c4.6,0,9-2.1,11.9-5.8
	c5.3-6.9,3.9-16.7-3.2-22.9c-4-3.4-8.6-6.2-13.5-8.1l0,0c-2.4-1-5-1.5-7.6-1.6l0,0c-5.4,0-10.4,2.9-13,7.7v0l0,0
	C161.9,24.5,164.6,33.7,171.9,37.7z"/>
<path d="M265.7,90.2c8.3,0,14.8-6.7,14.8-15.3V59.5c2.5,1.6,5.1,3.4,7.9,5.4l0,0l0,0c2.8,2.1,6.2,3.3,9.8,3.3c4.9,0,9.4-2.5,12-6.6
	c4.8-7.3,2.6-16.3-5.4-21.9c-7.6-5.3-15.7-9.7-24.3-13.1V17c0-8.6-6.5-15.3-14.7-15.3S251,8.5,251,17v58
	C251,83.5,257.5,90.2,265.7,90.2z"/>
<path class="st0" d="M69.1,20.8c-4.9,5.6-10.4,10.6-16.3,15v36.8c0,4.4-3.1,7.4-7,7.4s-6.9-3-6.9-7.4V45.1c-6,3.6-12.3,6.6-18.8,9
	c-4.3,1.5-8.1,0-9.4-3.5c-1.3-3.7,0.2-7.4,4.5-9C33.7,34.8,47,25.4,59.4,11.8c2.5-2.6,6.3-3.7,9.3-1.2
	C71.6,13.3,71.8,17.9,69.1,20.8z"/>
<path class="st0" d="M155.6,69.5c-3,3.6-7.4,3-11.1-0.2c-9.8-8.4-20.2-19.7-28-28.7c-1.3-1.5-2.4-2.9-3.8-2.9s-2.6,1.4-4,3.1
	L94.9,57.4c-3,3.6-7.4,4.2-10.5,1.4s-3-7.5,0.2-11.1c6.6-7.4,15.5-16.9,20.9-22.2c2.6-2.6,4.6-3.8,7.8-3.8c3,0,5.6,1.4,7.9,4.2
	c9.7,11.6,20.6,22.3,32.3,31.9C157.6,61.1,158.5,66.1,155.6,69.5z M128.9,27c-1.9-1.9-1.8-4.2-0.3-5.6c1.4-1.3,3.4-1.5,5-0.4
	c2.4,1.4,4.3,3.5,5.6,5.9c1.1,1.9,0.6,4.3-1.1,5.6c-1.9,1.2-4.3,0.7-5.5-1.2c0,0,0-0.1-0.1-0.1C131.4,29.7,130.2,28.3,128.9,27z
	 M139.8,22.5c-2-2.1-1.7-4.4-0.3-5.7s3.3-1.2,5.1-0.1c2.3,1.3,4.1,3.2,5.4,5.5c1.2,1.9,0.7,4.3-1,5.7c-2,1.4-4.1,0.7-5.6-1.3
	C142.3,25.2,141.1,23.8,139.8,22.5L139.8,22.5z"/>
<path class="st0" d="M172.9,19c2.2-3.8,5.8-4.6,10.6-2.6c4.1,1.6,7.9,3.9,11.3,6.7c4,3.4,4.9,8.4,2.2,11.9
	c-2.6,3.3-6.9,4.1-11.4,0.5c-3-2.5-6.3-4.7-9.7-6.7C172.4,26.9,171,22.6,172.9,19C172.9,19,172.9,19,172.9,19z M233,40.5
	c-9.1,14.8-27.7,30.5-48.9,36.8c-4.3,1.3-8.5,0.2-10-4.2s1-8.1,5.6-9.5c20.2-6.3,31.3-15.4,42.4-31c2.6-3.8,6.4-4.8,9.5-2.6
	C235,32.5,235.3,36.8,233,40.5z"/>
<path class="st0" d="M303.5,55.4c-2.2,3.4-6.5,3.9-10.4,1.1c-6.5-4.8-13.4-9-20.6-12.6V73c0,4.3-3.1,7.3-6.8,7.3S259,77.2,259,73V15
	c0-4.2,2.8-7.3,6.7-7.3s6.8,3.3,6.8,7.3v15c9.9,3.5,19.2,8.3,27.8,14.2C304.9,47.6,305.8,51.8,303.5,55.4z"/>
</svg>