<svg version="1.1" xmlns="http://www.w3.org/2000/svg" viewBox="0 0 315 92" width="315" height="92">
<style type="text/css">
	.st0{fill:#FFF;}
</style>
<path d="M11.9,24.6c0,8,6.6,14.5,14.6,14.4c0.1,0,0.2,0,0.3,0h35.7c8.5,0,15-6.2,15-14.5s-6.5-14.4-15-14.4H26.8
	c-8-0.2-14.7,6.2-14.9,14.2C11.9,24.4,11.9,24.5,11.9,24.6z"/>
<path d="M156.2,68c0-6.5-4.7-12.1-11.2-13.2l2.1-17v-0.1c0.6-4.1-0.7-8.2-3.4-11.3c-2.8-3-6.7-4.7-10.8-4.6h-26.7
	c-7.8,0-14,5.9-14,13.4s6.2,13.5,14,13.5h11.3l-0.7,5.8H99c-5.3-0.1-10.1,2.9-12.4,7.6c-1.4-6.8-7.4-11.8-15-11.8H18
	C9.5,50.4,2.8,56.8,2.8,65S9.6,79.6,18,79.6h53.6c5.9,0.1,11.4-3.3,13.9-8.7c1.4,6.3,7,10.7,13.5,10.6h43.4
	c7.5,0.2,13.7-5.8,13.8-13.2C156.2,68.2,156.2,68.1,156.2,68z"/>
<path d="M155,43c0,8.2,6.9,14.7,15.6,14.7h52.6c8.7,0,15.2-6.3,15.2-14.7s-6.5-14.7-15.2-14.7h-52.8C161.6,28.2,155,34.6,155,43z"/>
<path d="M294.4,45.6c3.5-5.9,6.4-12.2,8.7-18.7v-0.1c1.7-4.6,1.1-9.7-1.7-13.8c-2.9-4.1-7.8-6.4-13.4-6.4h-37.6
	c-7.7,0-13.9,6.3-13.8,13.9s6.3,13.9,13.9,13.8h16.8c-6.1,9.7-14.9,17.5-25.3,22.4c-3.9,1.7-6.9,4.8-8.4,8.8
	c-1.3,3.7-1,7.8,0.8,11.3c2.4,4.9,7.3,8,12.8,7.9c2.7,0,5.4-0.7,7.8-1.9c7.7-3.7,14.8-8.6,21.1-14.4c3.2,3.1,6.1,6.5,8.8,10
	c3,4.2,7.8,6.7,12.9,6.8c3.4,0,6.8-1.3,9.4-3.5c6.4-5.5,6.8-15.3,0.8-22.8C303.9,54.1,299.4,49.6,294.4,45.6z"/>
<path class="st0" d="M78.8,63c0,3.8-3,6.6-7.2,6.6H18c-3.8,0.2-7-2.8-7.2-6.6c0,0,0,0,0,0c0-3.7,3.1-6.6,7.2-6.6h53.6
	C75.8,56.4,78.8,59.2,78.8,63z M19.9,22.6c0-3.6,3-6.5,6.6-6.5c0.1,0,0.2,0,0.3,0h35.7c4.2,0,7,2.9,7,6.5s-2.8,6.4-7,6.4H26.8
	c-3.6,0.2-6.7-2.6-6.9-6.2C19.9,22.7,19.9,22.6,19.9,22.6z"/>
<path class="st0" d="M148.2,66c0,3-2.4,5.5-5.5,5.5c-0.1,0-0.2,0-0.3,0H99c-3,0-5.5-2.5-5.5-5.5s2.5-5.5,5.5-5.5h25l2.7-21.8h-20.4
	c-3.5,0-6-2.4-6-5.5s2.5-5.4,6-5.4H133c4,0,6.6,2.8,6.2,7L136,60.5h6.3C145.8,60.6,148.2,62.9,148.2,66z"/>
<path class="st0" d="M230.3,41c0,3.9-3,6.7-7.2,6.7h-52.6c-4.3,0-7.6-2.8-7.6-6.7s3.1-6.7,7.4-6.7h52.7
	C227.3,34.2,230.3,37,230.3,41z"/>
<path class="st0" d="M301.9,73.8c-3.4,2.9-7.8,1.7-10.7-2.1c-4.6-5.9-9.7-11.3-15.4-16.2c-6.9,7.6-15.1,13.8-24.3,18.3
	c-4.5,2.2-8.2,1.1-10-2.4c-1.8-3.7-0.3-7.4,3.8-9.3c16.1-7.5,28.6-21,34.8-37.7h-29.6c-3.3,0.2-6.1-2.4-6.2-5.6c0-0.1,0-0.2,0-0.3
	c0-3.2,2.6-5.8,5.8-5.9c0.1,0,0.3,0,0.4,0H288c5.9,0,9.4,4.2,7.6,9.6c-2.9,8.2-6.9,16-11.8,23.2c7.2,5.3,13.7,11.2,17.9,16.6
	C304.8,65.9,305.2,71,301.9,73.8z"/>
</svg>