<svg version="1.1" xmlns="http://www.w3.org/2000/svg" viewBox="0 0 315 92" width="315" height="92">
<style type="text/css">
	.st0{fill:#FFF;}
</style>
<path d="M124.2,11.2L124.2,11.2c-1.9-3.6-4.8-6.5-8.2-8.6c-2-1.3-4.4-2-6.8-2c-2.9,0-5.6,1.1-7.8,3C101,4,100.6,4.5,100.2,5
	c-0.4,0-0.8,0-1.1,0l0,0c-5.8,0-10.8,4.3-11.6,10c-0.1-0.2-0.2-0.5-0.3-0.8c-1.5-3.6-4.3-6.4-7.9-7.9c-1.9-0.8-3.9-1.2-5.9-1.2
	c-6,0-11.2,3.7-13.7,9.6c-3.8,8.8-9.6,16.6-16.9,22.7c-3.3,2.7-5.3,6.7-5.6,11c-0.2,3.9,1.2,7.7,3.9,10.6c2.7,2.9,6.4,4.6,10.4,4.6
	c3.6-0.1,7-1.3,9.9-3.4l0,0l0,0c5.9-4.7,11.2-10.1,15.6-16.3h3.7c-4.4,8.8-12,15.5-21.2,19c-4,1.5-7.3,4.6-9,8.5
	c-1.5,3.6-1.5,7.7,0.1,11.3c2.3,5.4,7.7,8.9,13.5,8.7c2.3,0,4.6-0.5,6.8-1.4c22-8.9,36.6-27.1,43.2-54.3c0.6-2.2,0.7-4.5,0.3-6.7
	c2.2-0.1,4.4-0.8,6.2-2C125.6,23.6,127.2,17,124.2,11.2L124.2,11.2z"/>
<path d="M176.8,28.5c-0.9-0.2-1.7-0.3-2.6-0.2l0,0c-4.3,0-8.4,2-11.1,5.5c-2.6-4.3-7.1-6.9-12.1-7l0,0c-2,0-4,0.4-5.8,1.3
	c-1.6,0.8-3.1,1.9-4.2,3.2c-1.7-0.7-3.5-1.1-5.3-1.1l0,0c-2,0-4,0.5-5.9,1.3c-3.2,1.4-5.7,4.1-6.9,7.5c-1.3,3.7-1,7.7,0.8,11.2
	c1,1.9,1.9,3.8,2.6,5.7c2.1,5.7,6.7,9.3,12.1,9.7c-5.1,3.8-7,10.7-4.5,16.6l0,0l0,0c2.2,5.1,7.2,8.4,12.8,8.2c2.3,0,4.6-0.5,6.8-1.4
	c17.4-7,30.5-23.4,34.2-42.8C189.4,37.6,184.6,30,176.8,28.5z M174.1,36.3L174.1,36.3z"/>
<path d="M194.3,25.8c0,7.7,6.2,13.9,13.9,13.9c0.1,0,0.2,0,0.3,0h16.8c-6.2,9.7-15,17.5-25.4,22.4c-3.9,1.7-6.9,4.9-8.4,8.8
	c-1.3,3.7-1,7.8,0.8,11.3c2.3,4.9,7.3,8,12.8,8c2.7,0,5.4-0.7,7.9-1.9c7.7-3.7,14.8-8.6,21.1-14.4c3.2,3.1,6.1,6.5,8.8,10
	c3,4.2,7.8,6.7,12.9,6.8c3.4,0,6.8-1.3,9.4-3.5c6.4-5.5,6.8-15.3,0.8-22.8c-4-5-8.5-9.5-13.5-13.5c3.2-5.5,6-11.3,8.2-17.2
	c1.6-0.3,3.2-0.9,4.5-1.9c1.6-1.1,2.9-2.5,3.8-4.3c1.4-0.3,2.8-0.9,4-1.8c4.9-3.4,6.4-10,3.6-15.2v-0.1l0,0
	c-1.8-3.4-4.4-6.2-7.7-8.2c-2-1.2-4.2-1.9-6.5-1.9l0,0c-4.2,0-8.1,2.4-10,6.2c-2.1,0.4-4.1,1.5-5.6,3c-0.7,0.7-1.3,1.4-1.8,2.3
	h-36.5c-7.6-0.2-14,5.9-14.2,13.5C194.3,25.6,194.3,25.7,194.3,25.8z"/>
<path class="st0" d="M106.2,31.9c-5.6,22.9-17.4,40.3-38.5,48.8c-4.1,1.7-8.4,0.6-9.9-3c-1.7-4,0.5-7.7,4.5-9.3
	c15.1-5.7,26.2-18.7,29.4-34.5l-19.1,0.1C67.8,41.1,62,47.6,56.5,51.8c-3.4,2.5-7.2,2.6-9.7-0.2c-2.8-3-2.1-7.4,1-10
	c8.3-6.9,14.9-15.7,19.2-25.7c1.5-3.6,5-5.9,9.2-4.2c3.8,1.6,5,5.7,3.3,9.6L79,22.6h19.5C104.6,22.6,107.4,27,106.2,31.9z
	 M106.8,17.3c1.1,1.8,0.6,4.2-1.1,5.4c-1.8,1.2-4.2,0.7-5.4-1.1c0,0,0,0,0-0.1c-1-1.5-2.2-2.9-3.4-4.2c-2-2-1.8-4.1-0.3-5.5
	c1.4-1.2,3.5-1.4,5-0.3C103.7,12.9,105.6,14.9,106.8,17.3z M116.1,18.3c-1.9,1.3-4,0.7-5.4-1.3c-1-1.4-2.1-2.8-3.4-4
	c-1.8-2-1.9-4.2-0.5-5.4c1.4-1.2,3.5-1.3,5-0.2c2.2,1.3,4.1,3.2,5.4,5.4C118.2,14.9,117.8,17.2,116.1,18.3L116.1,18.3z"/>
<path class="st0" d="M141.5,55.2c-3.1,1.3-6.2-0.3-7.5-4c-0.9-2.2-1.9-4.4-3-6.6c-1.6-3.2-0.6-6.6,2.2-7.8s5.6-0.5,7.7,2.6
	c1.6,2.3,2.8,4.8,3.6,7.5C145.6,50.7,144.6,54,141.5,55.2z M179.9,42.7c-3.2,16.7-14.4,30.9-29.4,37c-4.2,1.7-7.8,0.6-9.2-2.6
	s0.2-6.6,4.2-8.5c13-5.9,19.4-13.8,22.3-28.6c0.8-4,4-6.2,7.4-5.6S180.7,38.4,179.9,42.7z M146.4,41.1c-1.6-3.4-0.3-6.6,2.2-7.8
	c2.7-1.3,5.9-0.2,7.8,3c1.6,2.5,2.7,5.2,3.4,8.1c0.9,3.4-0.6,6.5-3.3,7.5c-3,1.1-5.9-0.2-7.2-3.6L146.4,41.1z"/>
<path class="st0" d="M259.8,67.4c3.1,3.9,3.5,9,0.2,11.8s-7.8,1.7-10.7-2.1c-4.6-5.9-9.7-11.3-15.4-16.2
	c-6.9,7.6-15.1,13.8-24.3,18.3c-4.5,2.2-8.2,1.1-10-2.4c-1.8-3.7-0.3-7.4,3.8-9.3c16.1-7.5,28.6-21,34.8-37.7h-29.6
	c-3.3,0.2-6.1-2.4-6.2-5.6c0-0.1,0-0.2,0-0.3c0-3.2,2.5-5.8,5.7-5.9c0.1,0,0.3,0,0.4,0h37.6c5.8,0,9.5,4.1,7.6,9.6
	c-2.9,8.2-6.9,16-11.8,23.2C249,56.1,255.5,62,259.8,67.4z M252.8,18.5c-1.8-1.8-1.6-3.8-0.3-5c1.2-1.1,3-1.3,4.4-0.3
	c2.1,1.2,3.9,3.1,5,5.3c1,1.6,0.6,3.8-1,4.9c-1.6,1.1-3.7,0.7-4.8-0.9c0,0-0.1-0.1-0.1-0.1C255,20.9,253.9,19.6,252.8,18.5
	L252.8,18.5z M268.5,17.3c-1.8,1.2-3.7,0.6-5-1.2c-0.9-1.3-2-2.5-3.1-3.7c-1.8-1.9-1.4-3.9-0.2-5c1.3-1.1,3.2-1.2,4.6-0.2
	c2,1.2,3.7,2.9,4.7,5C270.4,13.9,270,16.1,268.5,17.3L268.5,17.3z"/>
</svg>