<svg version="1.1" xmlns="http://www.w3.org/2000/svg" viewBox="0 0 315 92" width="315" height="92">
<style type="text/css">
	.st0{fill:#FFF;}
</style>
<path d="M74.2,71.4c0.3,2.5,1.7,4.6,3.8,5.9c1.8,1.1,3.5,2.4,5.1,3.7c0.8,0.7,1.7,1.2,2.8,1.5c0.1,0.3,0.1,0.5,0.1,0.7
	c0.6,3.9,3.9,6.9,7.9,6.9c4.3,0,9.3,0,13.6-2.3l0.2-0.1c1.9-1.1,3.5-2.6,4.7-4.4c0.3,0.2,0.7,0.5,1.1,0.7c1.8,1.1,3.5,2.5,5,4
	c1.5,1.7,3.7,2.6,5.9,2.6c0.2,0,0.4,0,0.5,0c2.4-0.2,4.7-1.4,6.1-3.4c0.5-0.7,0.9-1.4,1.4-2.1c0.8,3.7,4.1,6.3,7.8,6.2h9.3
	c4.1,0,7.5-3,8-7.1c0.3,4.2,3.8,7.4,8,7.4h9.3c3.9,0,7.2-2.8,7.9-6.6c4.6-0.3,9.7-0.7,15.1-1.2c1.3,2.8,4.1,4.6,7.2,4.6h7.3
	c1.5,1.8,3.8,2.9,6.1,2.9c5.8,0,10.9-0.2,15.4-3.1c7.1-4.4,7.1-12.2,7.1-15.5V11.9c0-4.4-3.6-8-8-8h-31.4c-0.9,0-1.8,0.2-2.6,0.4
	c-0.8-0.3-1.7-0.4-2.6-0.5h-30.8c-3.1,0-5.9,1.8-7.2,4.6l-4.9-4.7c-2.4-2.3-5.9-2.8-8.9-1.4c-4.5,2.1-13,4.5-22.2,6.2
	c-0.3,0.1-0.7,0.1-1,0.2c-0.3,0-0.7-0.1-1-0.1h-7.2c-0.5-1.2-1.1-2.4-1.7-3.7c-1.3-2.8-4.2-4.6-7.3-4.6c-0.6,0-1.2,0.1-1.8,0.2
	l-8.5,2c-3,0.7-5.4,3.1-6,6.1h-3.4c-4.4,0-8,3.6-8,8v7.8c0,1.5,0.4,2.9,1.2,4.2c-1.5,1.5-2.4,3.6-2.4,5.7v7.8c0,1.3,0.3,2.5,0.9,3.7
	c-0.3,0.8-0.4,1.7-0.4,2.5v8c0,2.3,1,4.5,2.8,6c-0.5,0.8-1.2,1.6-1.8,2.3C74.7,66.5,73.8,69,74.2,71.4z M157.5,24.3v2.9H157h-8.5
	C151.5,26.3,154.6,25.4,157.5,24.3z"/>
<path class="st0" d="M96.3,58.4c-1.9,5.3-5,11-8.1,14.5c-2-1.6-4-3.1-6.2-4.5C85.2,65,87.6,61,89,56.6L96.3,58.4z M106.8,54.4v17.1
	c0,3.8-0.6,5.8-3,7.2s-5.6,1.4-9.8,1.4c-0.5-2.7-1.3-5.3-2.6-7.8c2.4,0.1,4.9,0.1,5.8,0.1s1.1-0.2,1.1-1.1V54.4H83.5v-8h14.7v-6.2
	H83.1v-7.8h7.8c-0.5-2.9-1.3-5.7-2.4-8.3l6.6-1.6H84.3v-7.8h13.7c-0.7-2.2-1.6-4.4-2.4-6.3l8.5-2c1.3,2.7,2.4,5.5,3.4,8.3h12.6v7.8
	H110l6.6,1.3c-1.3,3-2.4,6.2-3.6,8.6h8.3v7.8h-14.5v6.2H120v8L106.8,54.4z M96.2,22.5c1.3,2.8,2.2,5.8,2.7,8.9l-3.8,1h9.4
	c1.3-3.2,2.5-6.5,3.4-9.9L96.2,22.5z M157,42h-7.4v39.2h-9.3V42h-7.8v0.6c0,11.8-1,28.1-7.9,38.1c-2.2-2.2-4.6-4.1-7.3-5.7
	c1.6-2.4,2.8-5,3.5-7.7l-6.3,4c-1.8-4.1-3.9-8.2-6.2-12l6.2-3.4c2.4,3.6,4.5,7.4,6.4,11.3c2.5-7.8,2.7-16.9,2.7-24.6V14.4
	c8.8-1.6,18.5-4.1,24.2-6.8l7.4,7c-7.4,2.7-15,4.7-22.7,6v12.5H157V42z"/>
<path class="st0" d="M174.7,36.6v45h-9.3V9.9h30.8v26.7H174.7z M174.7,16.2v4.1h12.6v-4.1L174.7,16.2z M187.3,30.3v-3.9h-12.6v3.9
	H187.3z M232.9,70.8c0,4.4-0.6,7-3.4,8.7c-2.5,1.6-6,1.8-11.1,1.8c-0.4-3.1-1.1-6.1-2.3-9l-2.6,0.2v5.9H205v-5.2
	c-9.9,0.8-19.4,1.5-26.8,2.1l-0.7-7.3l6.6-0.4V46.4h-4.6v-6.6h38.8v6.6h-4.7v19.1l7.1-0.5V72H220c1,0,1.8-0.1,2.2-0.1
	c1,0,1.3-0.4,1.3-1.4V36.6h-22V9.9h31.4V70.8z M192.4,46.4v3.1H205v-3.1H192.4z M192.4,58.2H205v-3.4h-12.6V58.2z M205,66.2v-2.7
	h-12.6v3.6L205,66.2z M210.6,16.2v4.1h13v-4.1L210.6,16.2z M223.6,30.3v-3.9h-13v3.9L223.6,30.3z"/>
</svg>